<?xml version="1.0" encoding="utf-8"?>
<!-- Generator: Adobe Illustrator 16.0.0, SVG Export Plug-In . SVG Version: 6.00 Build 0)  -->
<!DOCTYPE svg PUBLIC "-//W3C//DTD SVG 1.1//EN" "http://www.w3.org/Graphics/SVG/1.1/DTD/svg11.dtd">
<svg version="1.1" id="Layer_1" xmlns="http://www.w3.org/2000/svg" xmlns:xlink="http://www.w3.org/1999/xlink" x="0px" y="0px"
	  width="230x" height="230px" viewBox="0 0 216.184 216.184" enable-background="new 0 0 216.184 216.184"
	 xml:space="preserve">
<g>
	<circle fill-rule="evenodd" clip-rule="evenodd" fill="#E2E2E2" cx="108.092" cy="108.092" r="108.092"/>
	<g>
		<defs>
			<circle id="SVGID_1_" cx="108.092" cy="108.092" r="108.092"/>
		</defs>
		<clipPath id="SVGID_2_">
			<use xlink:href="#SVGID_1_"  overflow="visible"/>
		</clipPath>
		<g clip-path="url(#SVGID_2_)">
			<path fill-rule="evenodd" clip-rule="evenodd" fill="#6C7A89" d="M123.113,177.457c0,6.108-4.812,11.258-10.769,11.258h-7.198
				c-5.957,0-10.033-5.149-10.033-11.258v-45.874c0-6.108,4.076-10.868,10.033-10.868h7.198c5.956,0,10.769,4.76,10.769,10.868
				V177.457z"/>
			<path fill-rule="evenodd" clip-rule="evenodd" fill="#B4B4B4" d="M160.113,118.997c0,6.167-5.62,11.718-11.937,11.718H65.881
				c-6.32,0-10.768-5.551-10.768-11.718V57.174c0-6.166,4.447-10.459,10.768-10.459h82.296c6.316,0,11.937,4.293,11.937,10.459
				V118.997z"/>
			<path fill-rule="evenodd" clip-rule="evenodd" fill="#B4B4B4" d="M186.113,263.988c0,6.477-5.067,11.727-11.318,11.727H44.432
				c-6.251,0-11.318-5.25-11.318-11.727v-75.547c0-6.477,5.067-11.727,11.318-11.727h130.363c6.251,0,11.318,5.25,11.318,11.727
				V263.988z"/>
			<rect x="106.113" y="19.715" fill-rule="evenodd" clip-rule="evenodd" fill="#6C7A89" width="4" height="27"/>
			<circle fill-rule="evenodd" clip-rule="evenodd" fill="#EEA420" cx="108.746" cy="20.729" r="10.149"/>
			<rect x="95.113" y="152.715" fill-rule="evenodd" clip-rule="evenodd" fill="#8995A1" width="28" height="3"/>
			<rect x="95.113" y="144.715" fill-rule="evenodd" clip-rule="evenodd" fill="#8995A1" width="28" height="2"/>
			<rect x="95.113" y="134.715" fill-rule="evenodd" clip-rule="evenodd" fill="#8995A1" width="28" height="4"/>
			<rect x="95.113" y="161.715" fill-rule="evenodd" clip-rule="evenodd" fill="#8995A1" width="28" height="2"/>
			<rect x="95.113" y="169.715" fill-rule="evenodd" clip-rule="evenodd" fill="#8995A1" width="28" height="3"/>
			<path opacity="0.4" fill-rule="evenodd" clip-rule="evenodd" fill="#F7F8F8" d="M109.113,10.579c-7,0-10.146,4.543-10.146,10.149
				c0,5.604,3.146,10.146,10.146,10.146V10.579z"/>
			<circle fill-rule="evenodd" clip-rule="evenodd" fill="#6C7A89" cx="86.577" cy="76.539" r="22.151"/>
			<circle fill-rule="evenodd" clip-rule="evenodd" fill="#6C7A89" cx="130.887" cy="76.539" r="22.152"/>
			
				<circle fill-rule="evenodd" clip-rule="evenodd" fill="#1A1A1A" stroke="#214770" stroke-width="0.25" stroke-miterlimit="10" cx="86.239" cy="76.539" r="17.417"/>
			<path fill-rule="evenodd" clip-rule="evenodd" fill="#1A1A1A" d="M148.643,76.539c0,9.617-7.802,17.417-17.42,17.417
				c-9.616,0-17.415-7.8-17.415-17.417c0-9.619,7.799-17.418,17.415-17.418C140.841,59.121,148.643,66.92,148.643,76.539z"/>
			<rect x="150.113" y="70.715" fill-rule="evenodd" clip-rule="evenodd" fill="#6C7A89" width="10" height="16"/>
			<rect x="55.113" y="70.715" fill-rule="evenodd" clip-rule="evenodd" fill="#6C7A89" width="12" height="16"/>
			<rect x="104.113" y="70.715" fill-rule="evenodd" clip-rule="evenodd" fill="#6C7A89" width="10" height="16"/>
			<path fill-rule="evenodd" clip-rule="evenodd" fill="#EDF0F1" d="M144.809,72.479c0,1.399-1.137,2.534-2.541,2.534
				c-1.397,0-2.534-1.135-2.534-2.534c0-1.403,1.137-2.537,2.534-2.537C143.672,69.942,144.809,71.077,144.809,72.479z"/>
			<path fill-rule="evenodd" clip-rule="evenodd" fill="#EDF0F1" d="M142.214,80.09c0,0.84-0.679,1.521-1.519,1.521
				c-0.844,0-1.525-0.681-1.525-1.521c0-0.844,0.682-1.522,1.525-1.522C141.535,78.568,142.214,79.247,142.214,80.09z"/>
			<path fill-rule="evenodd" clip-rule="evenodd" fill="#EDF0F1" d="M100.159,73.494c0,1.402-1.137,2.537-2.539,2.537
				c-1.396,0-2.535-1.135-2.535-2.537c0-1.402,1.139-2.538,2.535-2.538C99.022,70.957,100.159,72.092,100.159,73.494z"/>
			<circle fill-rule="evenodd" clip-rule="evenodd" fill="#EDF0F1" cx="96.045" cy="81.103" r="1.522"/>
			<path opacity="0.1" fill-rule="evenodd" clip-rule="evenodd" fill="#333333" d="M149.318,46.715h-40.205v84h40.205
				c6.165,0,10.795-6.407,10.795-12.572V57.259C160.113,51.093,155.483,46.715,149.318,46.715z"/>
			<path opacity="0.1" fill-rule="evenodd" clip-rule="evenodd" fill="#333333" d="M175.948,176.715h-66.835v96h66.835
				c6.381,0,10.165-3.301,10.165-9.468v-75.09C186.113,181.992,182.329,176.715,175.948,176.715z"/>
		</g>
	</g>
</g>
</svg>
