<?xml version="1.0" encoding="utf-8"?>
<!-- Generator: Adobe Illustrator 16.0.0, SVG Export Plug-In . SVG Version: 6.00 Build 0)  -->
<!DOCTYPE svg PUBLIC "-//W3C//DTD SVG 1.1//EN" "http://www.w3.org/Graphics/SVG/1.1/DTD/svg11.dtd">
<svg version="1.1" id="Layer_1" xmlns="http://www.w3.org/2000/svg" xmlns:xlink="http://www.w3.org/1999/xlink" x="0px" y="0px"
	 width="381.096px" height="214.549px" viewBox="0 0 381.096 214.549" enable-background="new 0 0 381.096 214.549"
	 xml:space="preserve">
<g>
	
		<line fill="none" stroke="#EEA315" stroke-width="3" stroke-linecap="round" stroke-miterlimit="10" stroke-dasharray="6,10" x1="189.048" y1="164.549" x2="189.048" y2="29.549"/>
	
		<line fill="none" stroke="#EEA315" stroke-width="3" stroke-linecap="round" stroke-miterlimit="10" stroke-dasharray="6,10" x1="30.548" y1="165.049" x2="351.548" y2="165.049"/>
	<g>
		<g>
			<circle fill="#E2E2E2" cx="30.048" cy="165.049" r="30.048"/>
			<g>
				<defs>
					<circle id="SVGID_1_" cx="30.048" cy="165.049" r="30.048"/>
				</defs>
				<clipPath id="SVGID_2_">
					<use xlink:href="#SVGID_1_"  overflow="visible"/>
				</clipPath>
				<g clip-path="url(#SVGID_2_)">
					<g>
						<path fill="#E8B691" d="M45.741,182.506c-5.14,0-9.345-4.363-9.345-9.697s-2.976-9.697-6.612-9.697s-6.612,4.363-6.612,9.697
							s-4.166,9.697-9.257,9.697c-5.091,0-9.256,3.032-9.256,6.649s7.328,7.394,16.285,9.394c0,0,0,0,9.017,0
							c8.948,0,8.948,0,8.948,0c8.897-2,16.177-5.745,16.177-9.373C55.085,185.547,50.88,182.506,45.741,182.506z"/>
					</g>
					<path fill="#E8B691" d="M42.063,155.794l0.056-2.221c-0.181-6.312-4.973-12.024-10.97-12.024H30.37h-1.858
						c-5.999,0-9.964,5.791-10.964,12.723l0,0v1.522c-1,0-1.232,1.658-1.232,3.702c0,2.046,0.584,3.702,1.327,3.702
						c0.103,0,0.379-0.036,0.475-0.096c1.226,6.204,6.061,13.709,12.222,13.788c5.648-0.079,10.439-7.584,11.665-13.788
						c0.096,0.06,0.048,0.096,0.152,0.096c0.741,0,1.37-1.656,1.37-3.702C43.525,157.452,42.747,155.794,42.063,155.794z"/>
				</g>
			</g>
		</g>
		<g>
			<circle fill="#E2E2E2" cx="351.048" cy="165.049" r="30.048"/>
			<g>
				<defs>
					<circle id="SVGID_3_" cx="351.048" cy="165.049" r="30.048"/>
				</defs>
				<clipPath id="SVGID_4_">
					<use xlink:href="#SVGID_3_"  overflow="visible"/>
				</clipPath>
				<g clip-path="url(#SVGID_4_)">
					<g>
						<path fill="#E8B691" d="M366.741,182.506c-5.14,0-9.345-4.363-9.345-9.697s-2.976-9.697-6.612-9.697s-6.612,4.363-6.612,9.697
							s-4.165,9.697-9.257,9.697c-5.091,0-9.256,3.032-9.256,6.649s7.328,7.394,16.285,9.394c0,0,0,0,9.016,0
							c8.948,0,8.948,0,8.948,0c8.897-2,16.177-5.745,16.177-9.373C376.085,185.547,371.88,182.506,366.741,182.506z"/>
					</g>
					<path fill="#E8B691" d="M363.063,155.794l0.056-2.221c-0.181-6.312-4.973-12.024-10.97-12.024h-0.779h-1.858
						c-5.999,0-9.964,5.791-10.964,12.723l0,0v1.522c-1,0-1.232,1.658-1.232,3.702c0,2.046,0.584,3.702,1.326,3.702
						c0.104,0,0.379-0.036,0.475-0.096c1.227,6.204,6.061,13.709,12.223,13.788c5.647-0.079,10.438-7.584,11.664-13.788
						c0.096,0.06,0.049,0.096,0.152,0.096c0.741,0,1.369-1.656,1.369-3.702C364.524,157.452,363.747,155.794,363.063,155.794z"/>
				</g>
			</g>
		</g>
	</g>
	<g>
		<circle fill="#E2E2E2" cx="190.548" cy="30.049" r="30.048"/>
		<g>
			<defs>
				<circle id="SVGID_5_" cx="190.548" cy="30.049" r="30.048"/>
			</defs>
			<clipPath id="SVGID_6_">
				<use xlink:href="#SVGID_5_"  overflow="visible"/>
			</clipPath>
			<g clip-path="url(#SVGID_6_)">
				<g>
					<path fill="#E8B691" d="M206.241,47.506c-5.14,0-9.345-4.364-9.345-9.697s-2.976-9.697-6.612-9.697s-6.612,4.364-6.612,9.697
						s-4.166,9.697-9.257,9.697c-5.091,0-9.256,3.032-9.256,6.649s7.328,7.394,16.285,9.394c0,0,0,0,9.017,0
						c8.948,0,8.948,0,8.948,0c8.897-2,16.177-5.745,16.177-9.374S211.38,47.506,206.241,47.506z"/>
				</g>
				<path fill="#E8B691" d="M202.563,20.794l0.056-2.221c-0.181-6.312-4.973-12.024-10.97-12.024h-0.78h-1.858
					c-5.999,0-10.464,5.791-11.464,12.723l0,0v1.522c-1,0-0.982,1.658-0.982,3.702c0,2.046,0.709,3.702,1.452,3.702
					c0.103,0,0.441-0.036,0.537-0.096c1.226,6.204,6.092,13.709,12.253,13.788c5.648-0.079,10.455-7.584,11.68-13.788
					c0.096,0.06,0.057,0.096,0.16,0.096c0.741,0,1.373-1.656,1.373-3.702C204.021,22.452,203.247,20.794,202.563,20.794z"/>
			</g>
		</g>
	</g>
	<g>
		<circle fill="#333333" cx="190.548" cy="165.049" r="49.5"/>
		<text transform="matrix(1 0 0 1 162.7217 172.0732)" fill="#FFFFFF" font-family="'OpenSans-Bold'" font-size="25">DAO</text>
	</g>
	<g>
		<circle fill="#E2E2E2" cx="140.883" cy="164.786" r="17.5"/>
		<text transform="matrix(1 0 0 1 133.7485 172.8359)" fill="#333333" font-family="'OpenSans-Bold'" font-size="25">$</text>
	</g>
	<g>
		<circle fill="#E2E2E2" cx="188.884" cy="117.786" r="17.5"/>
		<text transform="matrix(1 0 0 1 181.7485 125.8359)" fill="#333333" font-family="'OpenSans-Bold'" font-size="25">$</text>
	</g>
	<g>
		<circle fill="#E2E2E2" cx="239.884" cy="164.786" r="17.5"/>
		<text transform="matrix(1 0 0 1 232.749 172.8359)" fill="#333333" font-family="'OpenSans-Bold'" font-size="25">$</text>
	</g>
</g>
</svg>
