<?xml version="1.0" encoding="utf-8"?>
<!-- Generator: Adobe Illustrator 16.0.0, SVG Export Plug-In . SVG Version: 6.00 Build 0)  -->
<!DOCTYPE svg PUBLIC "-//W3C//DTD SVG 1.1//EN" "http://www.w3.org/Graphics/SVG/1.1/DTD/svg11.dtd">
<svg version="1.1" id="Layer_1" xmlns="http://www.w3.org/2000/svg" xmlns:xlink="http://www.w3.org/1999/xlink" x="0px" y="0px"
	 width="214.549px" height="214.549px" viewBox="0 0 243.787 243.787" enable-background="new 0 0 243.787 243.787"
	 xml:space="preserve">
<circle fill="#E2E2E2" cx="121.894" cy="121.894" r="121.894"/>
<g>
	<defs>
		<circle id="SVGID_1_" cx="121.894" cy="121.894" r="121.894"/>
	</defs>
	<clipPath id="SVGID_2_">
		<use xlink:href="#SVGID_1_"  overflow="visible"/>
	</clipPath>
	<g clip-path="url(#SVGID_2_)">
		<path fill="#333333" d="M148.227,203.351v-6.6H95.493v6.592c0.264,32.958-13.185,32.963-13.185,32.963
			c0,3.645,2.95,6.595,6.593,6.595h65.92c3.644,0,6.59-2.95,6.59-6.595C161.411,236.306,147.962,236.306,148.227,203.351z"/>
		<path fill="#4D4D4D" d="M227.329,170.39v-0.006V45.145c0-7.282-5.907-13.188-13.185-13.188H29.575
			c-7.28,0-13.183,5.906-13.183,13.188v125.239v0.006H227.329z"/>
		<rect x="29.575" y="45.145" fill="#FFFFFF" width="184.569" height="112.058"/>
		<path fill="#333333" d="M16.393,170.39v13.19c0,7.28,5.902,13.183,13.183,13.183h184.569c7.277,0,13.185-5.902,13.185-13.183
			v-13.19H16.393z"/>
		<path opacity="0.1" d="M88.901,242.9h65.92c3.644,0,6.59-2.95,6.59-6.595H82.309C82.309,239.95,85.259,242.9,88.901,242.9z"/>
		<path opacity="0.8" fill="#CCCCCC" d="M128.45,183.57c0-3.64-2.946-6.588-6.59-6.588c-3.645,0-6.593,2.948-6.593,6.588
			c0,3.646,2.948,6.595,6.593,6.595C125.504,190.165,128.45,187.217,128.45,183.57z"/>
		<rect x="95.493" y="196.751" opacity="0.1" width="52.733" height="6.592"/>
		<rect x="124.441" y="135.442" fill="#664C39" width="39" height="5"/>
		<rect x="119.441" y="140.442" fill="#7C5A3E" width="50" height="6"/>
		<g>
			
				<rect x="89.353" y="74.948" transform="matrix(0.6879 0.7258 -0.7258 0.6879 111.6223 -31.6675)" fill="#7C5A3E" width="6.555" height="77.999"/>
			<path fill="#664C39" d="M109.319,105.353c-0.524,0.499-1.354,0.477-1.853-0.049l-4.509-4.758
				c-0.497-0.523-0.476-1.354,0.051-1.852l0,0c0.524-0.499,1.354-0.477,1.853,0.049l4.509,4.758
				C109.867,104.026,109.845,104.855,109.319,105.353L109.319,105.353z"/>
			<path fill="#664C39" d="M105.989,108.509c-0.524,0.499-1.354,0.476-1.853-0.049l-4.509-4.758
				c-0.499-0.525-0.476-1.354,0.05-1.854l0,0c0.525-0.496,1.354-0.475,1.853,0.052l4.509,4.755
				C106.538,107.182,106.516,108.013,105.989,108.509L105.989,108.509z"/>
			<path fill="#664C39" d="M83.631,129.701c-0.526,0.498-1.355,0.476-1.854-0.05l-4.509-4.758c-0.498-0.525-0.476-1.355,0.051-1.854
				l0,0c0.524-0.498,1.355-0.475,1.853,0.05l4.509,4.758C84.178,128.372,84.155,129.202,83.631,129.701L83.631,129.701z"/>
			<path fill="#664C39" d="M80.3,132.857c-0.525,0.497-1.356,0.475-1.853-0.051l-4.509-4.757c-0.499-0.526-0.476-1.354,0.049-1.854
				l0,0c0.526-0.498,1.356-0.476,1.854,0.05l4.509,4.758C80.849,131.529,80.826,132.358,80.3,132.857L80.3,132.857z"/>
			<path fill="#7C5A3E" d="M133.366,105.141c0,0-4.235-7.969-12.681-16.878c-8.445-8.913-16.175-13.569-16.175-13.569l17.123-16.228
				c0,0,6.37,10.921,12.33,17.211c5.962,6.29,16.524,13.236,16.524,13.236L133.366,105.141z"/>
			<path fill="#664C39" d="M134.246,107.017c-1.014,0.96-2.614,0.917-3.574-0.097l-0.129-0.136c-0.96-1.013-0.917-2.613,0.097-3.573
				l17.737-16.812c1.014-0.96,2.613-0.918,3.574,0.098l0.13,0.136c0.96,1.013,0.917,2.612-0.095,3.573L134.246,107.017z"/>
			<path fill="#664C39" d="M105.841,77.045c-1.014,0.96-2.613,0.917-3.574-0.097l-0.128-0.137c-0.961-1.013-0.918-2.612,0.095-3.573
				l17.739-16.812c1.013-0.96,2.613-0.916,3.573,0.097l0.13,0.136c0.961,1.014,0.917,2.612-0.096,3.574L105.841,77.045z"/>
		</g>
		<path opacity="0.1" fill="#FFFFFF" d="M214.145,31.956H63.435L210.302,170.39h17.027v-0.006V45.145
			C227.329,37.862,221.422,31.956,214.145,31.956z"/>
	</g>
</g>
</svg>
