<?xml version="1.0" encoding="utf-8"?>
<!-- Generator: Adobe Illustrator 16.0.0, SVG Export Plug-In . SVG Version: 6.00 Build 0)  -->
<!DOCTYPE svg PUBLIC "-//W3C//DTD SVG 1.1//EN" "http://www.w3.org/Graphics/SVG/1.1/DTD/svg11.dtd">
<svg version="1.1" id="Layer_1" xmlns="http://www.w3.org/2000/svg" xmlns:xlink="http://www.w3.org/1999/xlink" x="0px" y="0px"
	 width="381.096px" height="214.549px" viewBox="0 0 381.096 214.549" enable-background="new 0 0 381.096 214.549"
	 xml:space="preserve">
<line fill="none" stroke="#EEA315" stroke-width="3" stroke-linecap="round" stroke-miterlimit="10" stroke-dasharray="6,10" x1="189.048" y1="164.549" x2="189.048" y2="29.549"/>
<line fill="none" stroke="#EEA315" stroke-width="3" stroke-linecap="round" stroke-miterlimit="10" stroke-dasharray="6,10" x1="30.548" y1="165.049" x2="351.548" y2="165.049"/>
<g>
	<g>
		<circle fill="#E2E2E2" cx="30.048" cy="165.049" r="30.048"/>
		<g>
			<defs>
				<circle id="SVGID_1_" cx="30.048" cy="165.049" r="30.048"/>
			</defs>
			<clipPath id="SVGID_2_">
				<use xlink:href="#SVGID_1_"  overflow="visible"/>
			</clipPath>
			<g clip-path="url(#SVGID_2_)">
				<g>
					<path fill="#E8B691" d="M45.741,182.506c-5.14,0-9.345-4.363-9.345-9.697s-2.976-9.697-6.612-9.697s-6.612,4.363-6.612,9.697
						s-4.166,9.697-9.257,9.697c-5.091,0-9.256,3.032-9.256,6.649s7.328,7.394,16.285,9.394c0,0,0,0,9.017,0
						c8.948,0,8.948,0,8.948,0c8.897-2,16.177-5.745,16.177-9.373C55.085,185.547,50.88,182.506,45.741,182.506z"/>
				</g>
				<path fill="#E8B691" d="M42.063,155.794l0.056-2.221c-0.181-6.312-4.973-12.024-10.97-12.024H30.37h-1.858
					c-5.999,0-9.964,5.791-10.964,12.723l0,0v1.522c-1,0-1.232,1.658-1.232,3.702c0,2.046,0.584,3.702,1.327,3.702
					c0.103,0,0.379-0.036,0.475-0.096c1.226,6.204,6.061,13.709,12.222,13.788c5.648-0.079,10.439-7.584,11.665-13.788
					c0.096,0.06,0.048,0.096,0.152,0.096c0.741,0,1.37-1.656,1.37-3.702C43.525,157.452,42.747,155.794,42.063,155.794z"/>
			</g>
		</g>
	</g>
	<g>
		<circle fill="#E2E2E2" cx="351.048" cy="165.049" r="30.048"/>
		<g>
			<defs>
				<circle id="SVGID_3_" cx="351.048" cy="165.049" r="30.048"/>
			</defs>
			<clipPath id="SVGID_4_">
				<use xlink:href="#SVGID_3_"  overflow="visible"/>
			</clipPath>
			<g clip-path="url(#SVGID_4_)">
				<g>
					<path fill="#E8B691" d="M366.741,182.506c-5.14,0-9.345-4.363-9.345-9.697s-2.976-9.697-6.612-9.697s-6.612,4.363-6.612,9.697
						s-4.165,9.697-9.257,9.697c-5.091,0-9.256,3.032-9.256,6.649s7.328,7.394,16.285,9.394c0,0,0,0,9.016,0
						c8.948,0,8.948,0,8.948,0c8.897-2,16.177-5.745,16.177-9.373C376.085,185.547,371.88,182.506,366.741,182.506z"/>
				</g>
				<path fill="#E8B691" d="M363.063,155.794l0.056-2.221c-0.181-6.312-4.973-12.024-10.97-12.024h-0.779h-1.858
					c-5.999,0-9.964,5.791-10.964,12.723l0,0v1.522c-1,0-1.232,1.658-1.232,3.702c0,2.046,0.584,3.702,1.326,3.702
					c0.104,0,0.379-0.036,0.475-0.096c1.227,6.204,6.061,13.709,12.223,13.788c5.647-0.079,10.438-7.584,11.664-13.788
					c0.096,0.06,0.049,0.096,0.152,0.096c0.741,0,1.369-1.656,1.369-3.702C364.524,157.452,363.747,155.794,363.063,155.794z"/>
			</g>
		</g>
	</g>
</g>
<g>
	<circle fill="#E2E2E2" cx="190.548" cy="30.049" r="30.048"/>
	<g>
		<defs>
			<circle id="SVGID_5_" cx="190.548" cy="30.049" r="30.048"/>
		</defs>
		<clipPath id="SVGID_6_">
			<use xlink:href="#SVGID_5_"  overflow="visible"/>
		</clipPath>
		<g clip-path="url(#SVGID_6_)">
			<g>
				<path fill="#E8B691" d="M206.241,47.506c-5.14,0-9.345-4.364-9.345-9.697s-2.976-9.697-6.612-9.697s-6.612,4.364-6.612,9.697
					s-4.166,9.697-9.257,9.697c-5.091,0-9.256,3.032-9.256,6.649s7.328,7.394,16.285,9.394c0,0,0,0,9.017,0c8.948,0,8.948,0,8.948,0
					c8.897-2,16.177-5.745,16.177-9.374S211.38,47.506,206.241,47.506z"/>
			</g>
			<path fill="#E8B691" d="M202.563,20.794l0.056-2.221c-0.181-6.312-4.973-12.024-10.97-12.024h-0.78h-1.858
				c-5.999,0-10.464,5.791-11.464,12.723l0,0v1.522c-1,0-0.982,1.658-0.982,3.702c0,2.046,0.709,3.702,1.452,3.702
				c0.103,0,0.441-0.036,0.537-0.096c1.226,6.204,6.092,13.709,12.253,13.788c5.648-0.079,10.455-7.584,11.68-13.788
				c0.096,0.06,0.057,0.096,0.16,0.096c0.741,0,1.373-1.656,1.373-3.702C204.021,22.452,203.247,20.794,202.563,20.794z"/>
		</g>
	</g>
</g>
<circle fill="#333333" cx="190.548" cy="165.049" r="49.5"/>
<g>
	<path fill="#FFFFFF" d="M179.775,162.979c0,2.938-0.836,5.188-2.508,6.75c-1.673,1.562-4.088,2.344-7.245,2.344h-5.054v-17.847
		h5.603c2.913,0,5.176,0.769,6.787,2.308C178.969,158.071,179.775,160.22,179.775,162.979z M175.844,163.077
		c0-3.834-1.693-5.75-5.078-5.75h-2.014v11.621h1.624C174.021,168.948,175.844,166.991,175.844,163.077z"/>
	<path fill="#FFFFFF" d="M194.399,172.073l-1.295-4.248h-6.506l-1.294,4.248h-4.077l6.299-17.92h4.627l6.322,17.92H194.399z
		 M192.202,164.651c-1.197-3.85-1.87-6.026-2.021-6.531c-0.151-0.504-0.259-0.902-0.324-1.195c-0.269,1.041-1.038,3.617-2.307,7.727
		H192.202z"/>
	<path fill="#FFFFFF" d="M216.921,163.126c0,2.953-0.732,5.225-2.197,6.811c-1.465,1.588-3.564,2.381-6.299,2.381
		s-4.834-0.793-6.299-2.381c-1.465-1.586-2.197-3.865-2.197-6.836c0-2.97,0.734-5.238,2.203-6.805s3.574-2.35,6.317-2.35
		c2.742,0,4.841,0.789,6.292,2.367C216.194,157.893,216.921,160.163,216.921,163.126z M203.896,163.126
		c0,1.993,0.379,3.495,1.136,4.504s1.888,1.514,3.394,1.514c3.02,0,4.529-2.006,4.529-6.018c0-4.021-1.502-6.031-4.505-6.031
		c-1.506,0-2.642,0.507-3.405,1.521C204.278,159.628,203.896,161.132,203.896,163.126z"/>
</g>
<circle fill="#E2E2E2" cx="140.883" cy="164.786" r="17.5"/>
<g>
	<path fill="#333333" d="M147.079,167.258c0,1.293-0.468,2.333-1.404,3.118c-0.936,0.786-2.246,1.256-3.931,1.41v2.503h-1.672
		v-2.454c-1.986-0.041-3.728-0.391-5.225-1.05v-3.223c0.708,0.35,1.561,0.659,2.558,0.928c0.997,0.269,1.886,0.428,2.667,0.477
		v-3.785l-0.818-0.316c-1.611-0.635-2.752-1.325-3.424-2.069c-0.671-0.745-1.007-1.667-1.007-2.765c0-1.181,0.462-2.15,1.386-2.912
		c0.923-0.761,2.211-1.223,3.863-1.385v-1.868h1.672v1.819c1.863,0.081,3.548,0.455,5.054,1.123l-1.147,2.855
		c-1.27-0.521-2.572-0.838-3.906-0.951v3.601c1.587,0.61,2.716,1.14,3.387,1.587c0.672,0.447,1.164,0.939,1.478,1.477
		C146.922,165.914,147.079,166.541,147.079,167.258z M138.497,160.031c0,0.357,0.124,0.652,0.373,0.885
		c0.248,0.231,0.648,0.47,1.202,0.714v-2.868C139.022,158.916,138.497,159.339,138.497,160.031z M143.404,167.44
		c0-0.342-0.139-0.631-0.415-0.866c-0.277-0.236-0.692-0.48-1.245-0.732v3.039C142.851,168.693,143.404,168.214,143.404,167.44z"/>
</g>
<circle fill="#E2E2E2" cx="188.884" cy="117.786" r="17.5"/>
<g>
	<path fill="#333333" d="M195.079,120.258c0,1.293-0.469,2.333-1.404,3.118c-0.936,0.786-2.246,1.256-3.931,1.41v2.503h-1.672
		v-2.454c-1.986-0.041-3.728-0.391-5.225-1.05v-3.223c0.708,0.35,1.561,0.659,2.558,0.928c0.997,0.269,1.886,0.428,2.667,0.477
		v-3.785l-0.818-0.316c-1.611-0.635-2.752-1.325-3.424-2.069c-0.671-0.745-1.007-1.667-1.007-2.765c0-1.181,0.462-2.15,1.386-2.912
		c0.923-0.761,2.211-1.223,3.863-1.385v-1.868h1.672v1.819c1.863,0.081,3.548,0.455,5.054,1.123l-1.147,2.855
		c-1.27-0.521-2.572-0.838-3.906-0.951v3.601c1.587,0.61,2.716,1.14,3.388,1.587s1.164,0.939,1.477,1.477
		C194.922,118.914,195.079,119.541,195.079,120.258z M186.497,113.031c0,0.357,0.124,0.652,0.373,0.885
		c0.248,0.231,0.648,0.47,1.202,0.714v-2.868C187.022,111.916,186.497,112.339,186.497,113.031z M191.404,120.44
		c0-0.342-0.139-0.631-0.415-0.866c-0.277-0.236-0.692-0.48-1.245-0.732v3.039C190.851,121.693,191.404,121.214,191.404,120.44z"/>
</g>
<circle fill="#E2E2E2" cx="239.884" cy="164.786" r="17.5"/>
<g>
	<path fill="#333333" d="M246.079,167.258c0,1.293-0.469,2.333-1.404,3.118c-0.936,0.786-2.246,1.256-3.931,1.41v2.503h-1.673
		v-2.454c-1.985-0.041-3.727-0.391-5.225-1.05v-3.223c0.709,0.35,1.561,0.659,2.559,0.928c0.996,0.269,1.885,0.428,2.666,0.477
		v-3.785l-0.817-0.316c-1.611-0.635-2.753-1.325-3.425-2.069c-0.67-0.745-1.006-1.667-1.006-2.765c0-1.181,0.461-2.15,1.385-2.912
		c0.924-0.761,2.211-1.223,3.863-1.385v-1.868h1.673v1.819c1.863,0.081,3.548,0.455,5.054,1.123l-1.147,2.855
		c-1.27-0.521-2.571-0.838-3.906-0.951v3.601c1.587,0.61,2.716,1.14,3.388,1.587s1.164,0.939,1.477,1.477
		C245.922,165.914,246.079,166.541,246.079,167.258z M237.497,160.031c0,0.357,0.124,0.652,0.373,0.885
		c0.248,0.231,0.648,0.47,1.201,0.714v-2.868C238.022,158.916,237.497,159.339,237.497,160.031z M242.404,167.44
		c0-0.342-0.139-0.631-0.415-0.866c-0.277-0.236-0.691-0.48-1.245-0.732v3.039C241.851,168.693,242.404,168.214,242.404,167.44z"/>
</g>
</svg>
