<?xml version="1.0" encoding="utf-8"?>
<!-- Generator: Adobe Illustrator 16.0.0, SVG Export Plug-In . SVG Version: 6.00 Build 0)  -->
<!DOCTYPE svg PUBLIC "-//W3C//DTD SVG 1.1//EN" "http://www.w3.org/Graphics/SVG/1.1/DTD/svg11.dtd">
<svg version="1.1" id="Layer_1" xmlns="http://www.w3.org/2000/svg" xmlns:xlink="http://www.w3.org/1999/xlink" x="0px" y="0px"
	 width="573.623px" height="112.746px" viewBox="0 0 573.623 112.746" enable-background="new 0 0 573.623 112.746"
	 xml:space="preserve">
<path fill="#E2E2E2" d="M573.623,86.373c0,6.627-5.373,12-12,12h-400c-6.627,0-12-5.373-12-12v-59c0-6.627,5.373-12,12-12h400
	c6.627,0,12,5.373,12,12V86.373z"/>
<g>
	<rect x="189.906" y="33.873" fill="none" width="343.435" height="45"/>
	<text transform="matrix(1 0 0 1 197.5854 49.1133)"><tspan x="0" y="0" fill="#555555" font-family="'RobotoCondensed-Regular'" font-size="20">Um profissional submete uma proposta de </tspan><tspan x="83.975" y="27" fill="#555555" font-family="'RobotoCondensed-Regular'" font-size="20">trabalho para a DAO.</tspan></text>
</g>
<g>
	<circle fill="#E2E2E2" cx="56.373" cy="56.373" r="56.373"/>
	<g>
		<defs>
			<circle id="SVGID_1_" cx="56.373" cy="56.373" r="56.373"/>
		</defs>
		<clipPath id="SVGID_2_">
			<use xlink:href="#SVGID_1_"  overflow="visible"/>
		</clipPath>
		<g clip-path="url(#SVGID_2_)">
			<g>
				<path fill="#EFBB93" d="M69.376,73.327c0-10.817-6.034-19.667-13.41-19.667s-13.41,8.85-13.41,19.667
					c0,10.816-8.448,19.667-18.773,19.667S5.011,99.065,5.011,106.402s14.862,15.971,33.027,18.971c0,0,0,0,18.286,0
					c18.146,0,18.146,0,18.146,0c18.045-3,32.809-11.572,32.809-18.932c0-7.358-8.528-13.413-18.952-13.413
					C77.904,93.028,69.376,84.144,69.376,73.327z"/>
			</g>
			<path fill="#EFBB93" d="M56.623,81.607c12-0.164,21.407-15.382,23.891-27.963c0.195,0.123,0.217,0.193,0.427,0.193
				c1.503,0,3.063-3.361,3.063-7.508s-0.381-7.51-2.381-7.51v-3.957l-0.443,0.176c-0.365-12.805-10.282-22.666-22.445-23.666h-2.111
				V81.607z"/>
			<path fill="#F9CDA6" d="M56.623,81.607c-13-0.164-21.97-15.382-24.455-27.963c-0.194,0.123-0.496,0.193-0.705,0.193
				c-1.504,0-2.643-3.361-2.643-7.508s0.803-7.51,2.803-7.51v-3.447h-0.29c0.365-13,9.889-23,22.053-24h3.237V81.607z"/>
			<g>
				<path fill="#F9CDA6" d="M56.298,89.517c0-19.684-3.098-35.822-6.884-35.822s-6.884,8.833-6.884,19.65
					c0,10.816-8.448,19.659-18.773,19.659S4.985,99.069,4.985,106.406s14.862,15.967,33.027,18.967c0,0,0,0,18.285,0l0,0
					C56.298,125.373,56.298,109.2,56.298,89.517z"/>
			</g>
			<path fill="#A38671" d="M56.311,10.753C20.04,15.195,30.977,38.82,30.977,38.82c5.229,0,11.495-17.928,11.495-17.928
				S65.594,38.82,81.089,38.82C81.089,38.82,93.577,6.791,56.311,10.753z"/>
			<path fill="#2A4F77" d="M41.429,80.4c-0.761,2.768-7.406,11.885-14.743,11.885c-7.337,0-12.044-0.014-16.474,3.599
				c-4.43,3.613-5.227,8.381-5.227,9.826c0,1.446,0.244,7.081,4.259,10.837c4.015,3.758,7.785,5.781,13.512,6.502
				c5.729,0.724,10.319,1.783,12.941,1.997c2.623,0.215,20.574,0.894,20.6,0.894c0.027,0,0.014-39.229,0.014-39.229L41.429,80.4z"/>
			<path fill="#2A4F77" d="M70.5,80.4c1.315,4.444,7.843,11.921,15.18,11.921c7.337,0,12.044-0.013,16.474,3.61
				c4.43,3.623,5.228,8.405,5.228,9.854c0,1.45-0.244,7.103-4.258,10.87c-4.015,3.769-7.785,5.798-13.514,6.521
				c-5.728,0.726-10.317,1.787-12.941,2.004c-2.623,0.214-20.573,0.896-20.599,0.896c-0.027,0,0.242-39.349,0.242-39.349L70.5,80.4z
				"/>
			<path fill="#E1E4E7" d="M58.623,93.231c0,1.52-1.111,3.142-2.582,3.142h-0.049c-1.47,0-2.369-1.622-2.369-3.142v-3.042
				c0-1.52,0.899-2.816,2.369-2.816h0.049c1.47,0,2.582,1.297,2.582,2.816V93.231z"/>
			<polygon opacity="0.2" fill="#050505" points="38.842,85.807 53.126,92.223 52.295,93.398 38.522,86.189 			"/>
			<polygon opacity="0.2" fill="#050505" points="53.126,92.15 56.296,87.164 53.818,92.41 			"/>
			<polygon opacity="0.2" fill="#050505" points="72.867,85.807 58.802,92.15 59.545,93.226 73.128,86.133 			"/>
			<polygon opacity="0.2" fill="#050505" points="58.802,92.15 56.296,87.164 58.231,92.41 			"/>
			<path fill="#2A4F77" d="M56.296,87.164l-3.17,4.986l-14.284-6.344c0,0,2.608-3.72,2.586-4.199S56.296,87.164,56.296,87.164z"/>
			<path fill="#2A4F77" d="M58.802,92.15l-2.506-4.986L70.5,81.607c0,0,2.105,3.871,2.367,4.199
				C73.128,86.133,58.802,92.15,58.802,92.15z"/>
			<path fill="#E1E4E7" d="M59.62,147.414c0,1.576-2.459,0.893-3.358,0.893l0,0c-0.899,0-3.136,1.011-3.136-0.565l1.508-50.123
				c0-1.577,0.729-2.854,1.628-2.854l0,0c0.899,0,1.628,1.277,1.628,2.854L59.62,147.414z"/>
			<path fill="#8E725E" d="M56.491,10.643c-0.017,0.001,0.132,0.115,0.132,0.115v19.268c8,4.425,16.996,8.684,24.646,8.684
				c0,0,10.526-27.541-16.811-28.145l0,0C62.221,10.564,59.242,10.227,56.491,10.643z"/>
		</g>
	</g>
</g>
</svg>
