<?xml version="1.0" encoding="utf-8"?>
<!-- Generator: Adobe Illustrator 16.0.0, SVG Export Plug-In . SVG Version: 6.00 Build 0)  -->
<!DOCTYPE svg PUBLIC "-//W3C//DTD SVG 1.1//EN" "http://www.w3.org/Graphics/SVG/1.1/DTD/svg11.dtd">
<svg version="1.1" id="Layer_1" xmlns="http://www.w3.org/2000/svg" xmlns:xlink="http://www.w3.org/1999/xlink" x="0px" y="0px"
	 width="209.164px" height="215.164px" viewBox="0 0 209.164 215.164" enable-background="new 0 0 209.164 215.164"
	 xml:space="preserve">
<g>
	<g>
		<circle fill="#333333" cx="104.229" cy="108.286" r="69.803"/>
		<text transform="matrix(1 0 0 1 64.9907 118.1924)" fill="#FFFFFF" font-family="'OpenSans-Bold'" font-size="35.254">DAO</text>
	</g>
	<g>
		<circle fill="#1A1A1A" cx="45.718" cy="169.855" r="22.582"/>
		<circle fill="#333333" cx="45.718" cy="169.855" r="20.611"/>
		<text transform="matrix(1 0 0 1 30.2925 174.1494)" fill="#FFFFFF" font-family="'OpenSans-Bold'" font-size="13.8591">DAO</text>
		<path opacity="0.1" fill="#FFFFFF" d="M45.718,147.274c-12.472,0-22.582,10.11-22.582,22.581c0,6.355,2.634,12.087,6.859,16.19
			l31.913-31.912C57.805,149.908,52.073,147.274,45.718,147.274z"/>
	</g>
	<g>
		<circle fill="#1A1A1A" cx="45.718" cy="48.582" r="22.582"/>
		<circle fill="#333333" cx="45.718" cy="48.582" r="20.611"/>
		<text transform="matrix(1 0 0 1 30.2925 52.876)" fill="#FFFFFF" font-family="'OpenSans-Bold'" font-size="13.8591">DAO</text>
		<path opacity="0.1" fill="#FFFFFF" d="M45.718,26c-12.472,0-22.582,10.11-22.582,22.582c0,6.355,2.634,12.087,6.859,16.19
			l31.913-31.913C57.805,28.635,52.073,26,45.718,26z"/>
	</g>
	<g>
		<circle fill="#1A1A1A" cx="165.582" cy="169.855" r="22.582"/>
		<circle fill="#333333" cx="165.582" cy="169.855" r="20.611"/>
		<text transform="matrix(1 0 0 1 150.1558 174.1494)" fill="#FFFFFF" font-family="'OpenSans-Bold'" font-size="13.8591">DAO</text>
		<path opacity="0.1" fill="#FFFFFF" d="M165.582,147.274c-12.473,0-22.582,10.11-22.582,22.581c0,6.355,2.635,12.087,6.859,16.19
			l31.912-31.912C177.667,149.908,171.937,147.274,165.582,147.274z"/>
	</g>
	<g>
		<circle fill="#1A1A1A" cx="165.582" cy="48.582" r="22.582"/>
		<circle fill="#333333" cx="165.582" cy="48.582" r="20.611"/>
		<text transform="matrix(1 0 0 1 150.1558 52.876)" fill="#FFFFFF" font-family="'OpenSans-Bold'" font-size="13.8591">DAO</text>
		<path opacity="0.1" fill="#FFFFFF" d="M165.582,26C153.109,26,143,36.11,143,48.582c0,6.355,2.635,12.087,6.859,16.19
			l31.912-31.913C177.667,28.635,171.937,26,165.582,26z"/>
	</g>
	<g>
		<circle fill="#1A1A1A" cx="104.582" cy="22.582" r="22.582"/>
		<circle fill="#333333" cx="104.581" cy="22.582" r="20.612"/>
		<text transform="matrix(1 0 0 1 89.1562 26.876)" fill="#FFFFFF" font-family="'OpenSans-Bold'" font-size="13.8591">DAO</text>
		<path opacity="0.1" fill="#FFFFFF" d="M104.582,0C92.109,0,82,10.11,82,22.582c0,6.355,2.634,12.087,6.858,16.19l31.913-31.913
			C116.667,2.635,110.937,0,104.582,0z"/>
	</g>
	<g>
		<circle fill="#1A1A1A" cx="104.582" cy="192.582" r="22.582"/>
		<circle fill="#333333" cx="104.581" cy="192.582" r="20.612"/>
		<text transform="matrix(1 0 0 1 89.1562 196.876)" fill="#FFFFFF" font-family="'OpenSans-Bold'" font-size="13.8591">DAO</text>
		<path opacity="0.1" fill="#FFFFFF" d="M104.582,170C92.109,170,82,180.11,82,192.582c0,6.355,2.634,12.087,6.858,16.19
			l31.913-31.913C116.667,172.635,110.937,170,104.582,170z"/>
	</g>
	<g>
		<circle fill="#1A1A1A" cx="186.582" cy="108.582" r="22.582"/>
		<circle fill="#333333" cx="186.582" cy="108.582" r="20.611"/>
		<text transform="matrix(1 0 0 1 171.1558 112.876)" fill="#FFFFFF" font-family="'OpenSans-Bold'" font-size="13.8591">DAO</text>
		<path opacity="0.1" fill="#FFFFFF" d="M186.582,86C174.109,86,164,96.11,164,108.582c0,6.355,2.635,12.087,6.859,16.19
			l31.912-31.913C198.667,88.635,192.937,86,186.582,86z"/>
	</g>
	<g>
		<circle fill="#1A1A1A" cx="22.582" cy="108.582" r="22.582"/>
		<circle fill="#333333" cx="22.581" cy="108.582" r="20.611"/>
		<text transform="matrix(1 0 0 1 7.1562 112.876)" fill="#FFFFFF" font-family="'OpenSans-Bold'" font-size="13.8591">DAO</text>
		<path opacity="0.1" fill="#FFFFFF" d="M22.582,86C10.109,86,0,96.11,0,108.582c0,6.355,2.634,12.087,6.858,16.19l31.913-31.913
			C34.668,88.635,28.937,86,22.582,86z"/>
	</g>
</g>
</svg>
