<?xml version="1.0" encoding="utf-8"?>
<!-- Generator: Adobe Illustrator 16.0.0, SVG Export Plug-In . SVG Version: 6.00 Build 0)  -->
<!DOCTYPE svg PUBLIC "-//W3C//DTD SVG 1.1//EN" "http://www.w3.org/Graphics/SVG/1.1/DTD/svg11.dtd">
<svg version="1.1" id="Layer_1" xmlns="http://www.w3.org/2000/svg" xmlns:xlink="http://www.w3.org/1999/xlink" x="0px" y="0px"
	 width="278.595px" height="280.096px" viewBox="0 0 278.595 280.096" enable-background="new 0 0 278.595 280.096"
	 xml:space="preserve">
<g>
	<g>
		
			<line fill="none" stroke="#EEA315" stroke-width="3" stroke-linecap="round" stroke-miterlimit="10" x1="132.611" y1="131.201" x2="75.115" y2="73.707"/>
		<polygon fill="#EEA315" points="68.609,79.002 80.434,67.18 67.828,66.396 		"/>
	</g>
	<g>
		
			<line fill="none" stroke="#EEA315" stroke-width="3" stroke-linecap="round" stroke-miterlimit="10" x1="145.601" y1="132.201" x2="203.097" y2="74.707"/>
		<polygon fill="#EEA315" points="209.603,80.002 197.779,68.18 210.384,67.396 		"/>
	</g>
	<g>
		
			<line fill="none" stroke="#EEA315" stroke-width="3" stroke-linecap="round" stroke-miterlimit="10" x1="145.601" y1="147.396" x2="203.097" y2="204.891"/>
		<polygon fill="#EEA315" points="209.603,199.596 197.779,211.418 210.384,212.201 		"/>
	</g>
	<g>
		
			<line fill="none" stroke="#EEA315" stroke-width="3" stroke-linecap="round" stroke-miterlimit="10" x1="132.611" y1="146.396" x2="75.115" y2="203.891"/>
		<polygon fill="#EEA315" points="68.609,198.596 80.434,210.418 67.828,211.201 		"/>
	</g>
</g>
<g>
	<circle fill="#E2E2E2" cx="30.548" cy="250.049" r="30.048"/>
	<g>
		<defs>
			<circle id="SVGID_1_" cx="30.548" cy="250.049" r="30.048"/>
		</defs>
		<clipPath id="SVGID_2_">
			<use xlink:href="#SVGID_1_"  overflow="visible"/>
		</clipPath>
		<g clip-path="url(#SVGID_2_)">
			<g>
				<path fill="#E8B691" d="M46.241,267.506c-5.14,0-9.345-4.363-9.345-9.697s-2.976-9.697-6.612-9.697s-6.612,4.363-6.612,9.697
					s-4.165,9.697-9.256,9.697s-9.256,2.807-9.256,6.424s7.328,8.168,16.285,9.168c0,0,0,0,9.016,0c8.947,0,8.947,0,8.947,0
					c8.898-1,16.178-5.52,16.178-9.147C55.586,270.321,51.381,267.506,46.241,267.506z"/>
			</g>
			<path fill="#E8B691" d="M42.564,240.794l0.055-2.446c-0.18-6.312-4.973-12.25-10.969-12.25h-0.779h-1.859
				c-5.998,0-9.489,6.242-10.489,13.174l0,0v1.522c-1,0-1.47,1.658-1.47,3.702c0,2.046,0.465,3.702,1.208,3.702
				c0.104,0,0.32-0.036,0.416-0.096c1.227,6.204,6.031,13.709,12.193,13.788c5.646-0.079,10.425-7.584,11.649-13.788
				c0.096,0.06,0.041,0.096,0.144,0.096c0.74,0,1.366-1.656,1.366-3.702C44.029,242.452,43.248,240.794,42.564,240.794z"/>
		</g>
	</g>
</g>
<g>
	<circle fill="#E2E2E2" cx="248.547" cy="250.049" r="30.048"/>
	<g>
		<defs>
			<circle id="SVGID_3_" cx="248.547" cy="250.049" r="30.048"/>
		</defs>
		<clipPath id="SVGID_4_">
			<use xlink:href="#SVGID_3_"  overflow="visible"/>
		</clipPath>
		<g clip-path="url(#SVGID_4_)">
			<g>
				<path fill="#E8B691" d="M264.241,267.506c-5.14,0-9.345-4.363-9.345-9.697s-2.976-9.697-6.612-9.697s-6.612,4.363-6.612,9.697
					s-4.165,9.697-9.256,9.697s-9.256,2.807-9.256,6.424s7.328,8.168,16.285,9.168c0,0,0,0,9.016,0c8.947,0,8.947,0,8.947,0
					c8.897-1,16.178-5.52,16.178-9.147C273.585,270.321,269.38,267.506,264.241,267.506z"/>
			</g>
			<path fill="#E8B691" d="M260.564,240.794l0.055-2.446c-0.18-6.312-4.973-12.25-10.969-12.25h-0.779h-1.859
				c-5.998,0-9.488,6.242-10.488,13.174l0,0v1.522c-1,0-1.469,1.658-1.469,3.702c0,2.046,0.464,3.702,1.206,3.702
				c0.104,0,0.321-0.036,0.417-0.096c1.227,6.204,6.03,13.709,12.192,13.788c5.646-0.079,10.425-7.584,11.649-13.788
				c0.096,0.06,0.041,0.096,0.145,0.096c0.74,0,1.365-1.656,1.365-3.702C262.029,242.452,261.248,240.794,260.564,240.794z"/>
		</g>
	</g>
</g>
<g>
	<circle fill="#E2E2E2" cx="248.547" cy="30.049" r="30.048"/>
	<g>
		<defs>
			<circle id="SVGID_5_" cx="248.547" cy="30.049" r="30.048"/>
		</defs>
		<clipPath id="SVGID_6_">
			<use xlink:href="#SVGID_5_"  overflow="visible"/>
		</clipPath>
		<g clip-path="url(#SVGID_6_)">
			<g>
				<path fill="#E8B691" d="M264.241,47.506c-5.14,0-9.345-4.364-9.345-9.697s-2.976-9.697-6.612-9.697s-6.612,4.364-6.612,9.697
					s-4.165,9.697-9.256,9.697s-9.256,2.807-9.256,6.424s7.328,8.168,16.285,9.168c0,0,0,0,9.016,0c8.947,0,8.947,0,8.947,0
					c8.897-1,16.178-5.52,16.178-9.148S269.38,47.506,264.241,47.506z"/>
			</g>
			<path fill="#E8B691" d="M260.564,20.794l0.055-2.446c-0.18-6.312-4.973-12.25-10.969-12.25h-0.779h-1.859
				c-5.998,0-9.488,6.242-10.488,13.174l0,0v1.522c-1,0-1.469,1.658-1.469,3.702c0,2.046,0.464,3.702,1.206,3.702
				c0.104,0,0.321-0.036,0.417-0.096c1.227,6.204,6.03,13.709,12.192,13.788c5.646-0.079,10.423-7.584,11.649-13.788
				c0.096,0.06,0.041,0.096,0.145,0.096c0.74,0,1.365-1.656,1.365-3.702C262.029,22.452,261.248,20.794,260.564,20.794z"/>
		</g>
	</g>
</g>
<g>
	<circle fill="#E2E2E2" cx="30.048" cy="30.049" r="30.048"/>
	<g>
		<defs>
			<circle id="SVGID_7_" cx="30.048" cy="30.049" r="30.048"/>
		</defs>
		<clipPath id="SVGID_8_">
			<use xlink:href="#SVGID_7_"  overflow="visible"/>
		</clipPath>
		<g clip-path="url(#SVGID_8_)">
			<g>
				<path fill="#E8B691" d="M45.741,47.506c-5.14,0-9.345-4.364-9.345-9.697s-2.976-9.697-6.612-9.697s-6.612,4.364-6.612,9.697
					s-4.165,9.697-9.256,9.697S4.66,50.312,4.66,53.93s7.328,8.168,16.285,9.168c0,0,0,0,9.016,0c8.947,0,8.947,0,8.947,0
					c8.898-1,16.178-5.52,16.178-9.148S50.881,47.506,45.741,47.506z"/>
			</g>
			<path fill="#E8B691" d="M42.064,20.794l0.055-2.446c-0.18-6.312-4.973-12.25-10.969-12.25h-0.779h-1.859
				c-5.998,0-9.989,6.242-10.989,13.174l0,0v1.522c-1,0-1.22,1.658-1.22,3.702c0,2.046,0.59,3.702,1.333,3.702
				c0.104,0,0.382-0.036,0.478-0.096c1.227,6.204,6.062,13.709,12.225,13.788c5.646-0.079,10.438-7.584,11.665-13.788
				c0.096,0.06,0.048,0.096,0.152,0.096c0.74,0,1.37-1.656,1.37-3.702C43.525,22.452,42.748,20.794,42.064,20.794z"/>
		</g>
	</g>
</g>
<circle fill="#1A1A1A" cx="58.049" cy="56.323" r="15.082"/>
<circle fill="#333333" cx="58.048" cy="56.323" r="13.767"/>
<g>
	<path fill="#FFFFFF" d="M54.059,55.822c0,1.088-0.311,1.921-0.93,2.499c-0.619,0.579-1.512,0.868-2.682,0.868h-1.871v-6.607h2.074
		c1.078,0,1.916,0.284,2.514,0.854C53.76,54.006,54.059,54.801,54.059,55.822z M52.604,55.858c0-1.419-0.627-2.129-1.881-2.129
		h-0.746v4.303h0.602C51.928,58.032,52.604,57.308,52.604,55.858z"/>
	<path fill="#FFFFFF" d="M59.473,59.189l-0.479-1.573h-2.41l-0.479,1.573h-1.51l2.332-6.635h1.713l2.342,6.635H59.473z
		 M58.66,56.441c-0.443-1.425-0.693-2.231-0.748-2.418c-0.057-0.187-0.096-0.334-0.121-0.442c-0.1,0.386-0.383,1.339-0.854,2.86
		H58.66z"/>
	<path fill="#FFFFFF" d="M67.812,55.877c0,1.094-0.271,1.934-0.814,2.521c-0.541,0.588-1.318,0.882-2.332,0.882
		c-1.012,0-1.789-0.294-2.332-0.882s-0.812-1.431-0.812-2.531c0-1.1,0.271-1.939,0.814-2.52c0.545-0.58,1.324-0.87,2.34-0.87
		s1.791,0.293,2.33,0.877C67.543,53.939,67.812,54.78,67.812,55.877z M62.99,55.877c0,0.738,0.139,1.294,0.42,1.667
		c0.279,0.374,0.699,0.561,1.256,0.561c1.119,0,1.678-0.742,1.678-2.228c0-1.489-0.557-2.233-1.668-2.233
		c-0.559,0-0.979,0.188-1.262,0.563C63.131,54.582,62.99,55.139,62.99,55.877z"/>
</g>
<path opacity="0.1" fill="#FFFFFF" d="M58.049,41.241c-8.33,0-15.082,6.753-15.082,15.082c0,4.245,1.758,8.072,4.58,10.813
	l21.314-21.314C66.121,43.001,62.293,41.241,58.049,41.241z"/>
<circle fill="#1A1A1A" cx="219.048" cy="56.323" r="15.082"/>
<circle fill="#333333" cx="219.047" cy="56.323" r="13.767"/>
<g>
	<path fill="#FFFFFF" d="M215.058,55.822c0,1.088-0.311,1.921-0.93,2.499c-0.619,0.579-1.512,0.868-2.682,0.868h-1.871v-6.607h2.074
		c1.078,0,1.916,0.284,2.514,0.854C214.759,54.006,215.058,54.801,215.058,55.822z M213.603,55.858c0-1.419-0.627-2.129-1.881-2.129
		h-0.746v4.303h0.602C212.927,58.032,213.603,57.308,213.603,55.858z"/>
	<path fill="#FFFFFF" d="M220.472,59.189l-0.479-1.573h-2.41l-0.479,1.573h-1.51l2.332-6.635h1.713l2.342,6.635H220.472z
		 M219.66,56.441c-0.443-1.425-0.693-2.231-0.748-2.418c-0.057-0.187-0.096-0.334-0.121-0.442c-0.1,0.386-0.383,1.339-0.854,2.86
		H219.66z"/>
	<path fill="#FFFFFF" d="M228.812,55.877c0,1.094-0.271,1.934-0.814,2.521c-0.541,0.588-1.318,0.882-2.332,0.882
		c-1.012,0-1.789-0.294-2.332-0.882s-0.812-1.431-0.812-2.531c0-1.1,0.271-1.939,0.814-2.52c0.545-0.58,1.324-0.87,2.34-0.87
		s1.791,0.293,2.33,0.877C228.542,53.939,228.812,54.78,228.812,55.877z M223.99,55.877c0,0.738,0.139,1.294,0.42,1.667
		c0.279,0.374,0.699,0.561,1.256,0.561c1.119,0,1.678-0.742,1.678-2.228c0-1.489-0.557-2.233-1.668-2.233
		c-0.559,0-0.979,0.188-1.262,0.563C224.13,54.582,223.99,55.139,223.99,55.877z"/>
</g>
<path opacity="0.1" fill="#FFFFFF" d="M219.048,41.241c-8.33,0-15.082,6.753-15.082,15.082c0,4.245,1.758,8.072,4.58,10.813
	l21.314-21.314C227.121,43.001,223.292,41.241,219.048,41.241z"/>
<circle fill="#1A1A1A" cx="58.049" cy="223.323" r="15.082"/>
<circle fill="#333333" cx="58.048" cy="223.323" r="13.767"/>
<g>
	<path fill="#FFFFFF" d="M54.059,222.822c0,1.088-0.311,1.921-0.93,2.499c-0.619,0.579-1.512,0.868-2.682,0.868h-1.871v-6.607h2.074
		c1.078,0,1.916,0.284,2.514,0.854C53.76,221.006,54.059,221.801,54.059,222.822z M52.604,222.858c0-1.419-0.627-2.129-1.881-2.129
		h-0.746v4.303h0.602C51.928,225.032,52.604,224.308,52.604,222.858z"/>
	<path fill="#FFFFFF" d="M59.473,226.189l-0.479-1.573h-2.41l-0.479,1.573h-1.51l2.332-6.635h1.713l2.342,6.635H59.473z
		 M58.66,223.441c-0.443-1.425-0.693-2.231-0.748-2.418c-0.057-0.187-0.096-0.334-0.121-0.442c-0.1,0.386-0.383,1.339-0.854,2.86
		H58.66z"/>
	<path fill="#FFFFFF" d="M67.812,222.877c0,1.094-0.271,1.934-0.814,2.521c-0.541,0.588-1.318,0.882-2.332,0.882
		c-1.012,0-1.789-0.294-2.332-0.882s-0.812-1.431-0.812-2.531c0-1.1,0.271-1.939,0.814-2.52c0.545-0.58,1.324-0.87,2.34-0.87
		s1.791,0.293,2.33,0.877C67.543,220.939,67.812,221.78,67.812,222.877z M62.99,222.877c0,0.738,0.139,1.294,0.42,1.667
		c0.279,0.374,0.699,0.561,1.256,0.561c1.119,0,1.678-0.742,1.678-2.228c0-1.489-0.557-2.233-1.668-2.233
		c-0.559,0-0.979,0.188-1.262,0.563C63.131,221.582,62.99,222.139,62.99,222.877z"/>
</g>
<path opacity="0.1" fill="#FFFFFF" d="M58.049,208.241c-8.33,0-15.082,6.753-15.082,15.082c0,4.245,1.758,8.072,4.58,10.813
	l21.314-21.314C66.121,210.001,62.293,208.241,58.049,208.241z"/>
<circle fill="#1A1A1A" cx="219.048" cy="223.323" r="15.082"/>
<circle fill="#333333" cx="219.047" cy="223.323" r="13.767"/>
<g>
	<path fill="#FFFFFF" d="M215.058,222.822c0,1.088-0.311,1.921-0.93,2.499c-0.619,0.579-1.512,0.868-2.682,0.868h-1.871v-6.607
		h2.074c1.078,0,1.916,0.284,2.514,0.854C214.759,221.006,215.058,221.801,215.058,222.822z M213.603,222.858
		c0-1.419-0.627-2.129-1.881-2.129h-0.746v4.303h0.602C212.927,225.032,213.603,224.308,213.603,222.858z"/>
	<path fill="#FFFFFF" d="M220.472,226.189l-0.479-1.573h-2.41l-0.479,1.573h-1.51l2.332-6.635h1.713l2.342,6.635H220.472z
		 M219.66,223.441c-0.443-1.425-0.693-2.231-0.748-2.418c-0.057-0.187-0.096-0.334-0.121-0.442c-0.1,0.386-0.383,1.339-0.854,2.86
		H219.66z"/>
	<path fill="#FFFFFF" d="M228.812,222.877c0,1.094-0.271,1.934-0.814,2.521c-0.541,0.588-1.318,0.882-2.332,0.882
		c-1.012,0-1.789-0.294-2.332-0.882s-0.812-1.431-0.812-2.531c0-1.1,0.271-1.939,0.814-2.52c0.545-0.58,1.324-0.87,2.34-0.87
		s1.791,0.293,2.33,0.877C228.542,220.939,228.812,221.78,228.812,222.877z M223.99,222.877c0,0.738,0.139,1.294,0.42,1.667
		c0.279,0.374,0.699,0.561,1.256,0.561c1.119,0,1.678-0.742,1.678-2.228c0-1.489-0.557-2.233-1.668-2.233
		c-0.559,0-0.979,0.188-1.262,0.563C224.13,221.582,223.99,222.139,223.99,222.877z"/>
</g>
<path opacity="0.1" fill="#FFFFFF" d="M219.048,208.241c-8.33,0-15.082,6.753-15.082,15.082c0,4.245,1.758,8.072,4.58,10.813
	l21.314-21.314C227.121,210.001,223.292,208.241,219.048,208.241z"/>
<circle fill="#333333" cx="139.299" cy="139.299" r="49.5"/>
<g>
	<path fill="#FFFFFF" d="M128.525,137.229c0,2.938-0.836,5.188-2.508,6.75c-1.674,1.562-4.088,2.344-7.246,2.344h-5.053v-17.847
		h5.603c2.913,0,5.176,0.769,6.787,2.308C127.72,132.321,128.525,134.47,128.525,137.229z M124.595,137.327
		c0-3.834-1.692-5.75-5.078-5.75h-2.015v11.621h1.624C122.771,143.198,124.595,141.241,124.595,137.327z"/>
	<path fill="#FFFFFF" d="M143.15,146.323l-1.295-4.248h-6.505l-1.295,4.248h-4.076l6.299-17.92h4.626l6.322,17.92H143.15z
		 M140.953,138.901c-1.197-3.85-1.871-6.026-2.021-6.531c-0.15-0.504-0.258-0.902-0.323-1.195c-0.269,1.041-1.038,3.617-2.308,7.727
		H140.953z"/>
	<path fill="#FFFFFF" d="M165.671,137.376c0,2.953-0.732,5.225-2.197,6.811c-1.465,1.588-3.564,2.381-6.299,2.381
		s-4.834-0.793-6.299-2.381c-1.465-1.586-2.197-3.865-2.197-6.836c0-2.97,0.734-5.238,2.203-6.805s3.574-2.35,6.316-2.35
		s4.842,0.789,6.293,2.367C164.945,132.143,165.671,134.413,165.671,137.376z M152.646,137.376c0,1.993,0.379,3.495,1.135,4.504
		c0.758,1.009,1.889,1.514,3.395,1.514c3.02,0,4.529-2.006,4.529-6.018c0-4.021-1.502-6.031-4.506-6.031
		c-1.506,0-2.641,0.507-3.404,1.521C153.029,133.878,152.646,135.382,152.646,137.376z"/>
</g>
</svg>
