<?xml version="1.0" encoding="utf-8"?>
<!-- Generator: Adobe Illustrator 16.0.0, SVG Export Plug-In . SVG Version: 6.00 Build 0)  -->
<!DOCTYPE svg PUBLIC "-//W3C//DTD SVG 1.1//EN" "http://www.w3.org/Graphics/SVG/1.1/DTD/svg11.dtd">
<svg version="1.1" id="Layer_1" xmlns="http://www.w3.org/2000/svg" xmlns:xlink="http://www.w3.org/1999/xlink" x="0px" y="0px"
	 width="209.164px" height="215.164px" viewBox="0 0 209.164 215.164" enable-background="new 0 0 209.164 215.164"
	 xml:space="preserve">
<circle fill="#333333" cx="104.229" cy="108.286" r="69.803"/>
<g>
	<path fill="#FFFFFF" d="M89.039,105.368c0,4.143-1.179,7.315-3.538,9.52c-2.358,2.203-5.764,3.305-10.216,3.305h-7.126V93.025
		h7.901c4.108,0,7.299,1.085,9.571,3.254C87.902,98.448,89.039,101.478,89.039,105.368z M83.496,105.506
		c0-5.405-2.387-8.107-7.161-8.107h-2.84v16.387h2.29C80.925,113.785,83.496,111.025,83.496,105.506z"/>
	<path fill="#FFFFFF" d="M109.66,118.192l-1.824-5.99h-9.174l-1.825,5.99h-5.749l8.882-25.27h6.525l8.916,25.27H109.66z
		 M106.562,107.727c-1.687-5.428-2.636-8.498-2.849-9.21c-0.212-0.711-0.364-1.273-0.455-1.687
		c-0.379,1.469-1.464,5.102-3.254,10.896H106.562z"/>
	<path fill="#FFFFFF" d="M141.419,105.574c0,4.166-1.031,7.368-3.098,9.605c-2.066,2.238-5.027,3.357-8.883,3.357
		s-6.816-1.119-8.883-3.357c-2.064-2.237-3.098-5.45-3.098-9.64c0-4.188,1.035-7.388,3.107-9.597
		c2.07-2.209,5.041-3.313,8.908-3.313s6.824,1.113,8.873,3.34S141.419,101.397,141.419,105.574z M123.052,105.574
		c0,2.812,0.535,4.93,1.602,6.353c1.068,1.423,2.662,2.135,4.785,2.135c4.258,0,6.387-2.829,6.387-8.487
		c0-5.669-2.117-8.503-6.352-8.503c-2.123,0-3.725,0.714-4.803,2.143S123.052,102.763,123.052,105.574z"/>
</g>
<circle fill="#1A1A1A" cx="45.718" cy="169.855" r="22.582"/>
<circle fill="#333333" cx="45.718" cy="169.855" r="20.611"/>
<g>
	<path fill="#FFFFFF" d="M39.746,169.107c0,1.629-0.463,2.877-1.391,3.743s-2.266,1.299-4.016,1.299h-2.802v-9.894h3.106
		c1.615,0,2.87,0.427,3.763,1.279S39.746,167.578,39.746,169.107z M37.567,169.162c0-2.125-0.938-3.188-2.815-3.188h-1.117v6.442
		h0.9C36.557,172.417,37.567,171.332,37.567,169.162z"/>
	<path fill="#FFFFFF" d="M47.853,174.149l-0.717-2.354h-3.607l-0.717,2.354h-2.26l3.492-9.935h2.565l3.505,9.935H47.853z
		 M46.635,170.035c-0.663-2.134-1.036-3.341-1.12-3.62c-0.083-0.28-0.144-0.501-0.18-0.664c-0.149,0.578-0.575,2.006-1.279,4.284
		H46.635z"/>
	<path fill="#FFFFFF" d="M60.338,169.189c0,1.638-0.406,2.896-1.218,3.775c-0.812,0.88-1.976,1.32-3.492,1.32
		c-1.516,0-2.68-0.44-3.492-1.32s-1.218-2.143-1.218-3.789s0.407-2.904,1.222-3.772c0.814-0.869,1.981-1.303,3.502-1.303
		c1.52,0,2.683,0.438,3.488,1.312C59.936,166.288,60.338,167.547,60.338,169.189z M53.118,169.189c0,1.105,0.21,1.938,0.629,2.497
		c0.42,0.56,1.047,0.839,1.881,0.839c1.674,0,2.511-1.112,2.511-3.336c0-2.229-0.833-3.344-2.497-3.344
		c-0.835,0-1.464,0.281-1.888,0.843C53.33,167.25,53.118,168.084,53.118,169.189z"/>
</g>
<path opacity="0.1" fill="#FFFFFF" d="M45.718,147.274c-12.472,0-22.582,10.11-22.582,22.581c0,6.355,2.634,12.087,6.859,16.19
	l31.913-31.912C57.805,149.908,52.073,147.274,45.718,147.274z"/>
<circle fill="#1A1A1A" cx="45.718" cy="48.582" r="22.582"/>
<circle fill="#333333" cx="45.718" cy="48.582" r="20.611"/>
<g>
	<path fill="#FFFFFF" d="M39.746,47.834c0,1.629-0.463,2.877-1.391,3.743s-2.266,1.299-4.016,1.299h-2.802v-9.894h3.106
		c1.615,0,2.87,0.427,3.763,1.279S39.746,46.305,39.746,47.834z M37.567,47.889c0-2.125-0.938-3.188-2.815-3.188h-1.117v6.442h0.9
		C36.557,51.144,37.567,50.059,37.567,47.889z"/>
	<path fill="#FFFFFF" d="M47.853,52.876l-0.717-2.354h-3.607l-0.717,2.354h-2.26l3.492-9.935h2.565l3.505,9.935H47.853z
		 M46.635,48.762c-0.663-2.134-1.036-3.341-1.12-3.62c-0.083-0.28-0.144-0.501-0.18-0.664c-0.149,0.578-0.575,2.006-1.279,4.284
		H46.635z"/>
	<path fill="#FFFFFF" d="M60.338,47.916c0,1.638-0.406,2.896-1.218,3.775c-0.812,0.88-1.976,1.32-3.492,1.32
		c-1.516,0-2.68-0.44-3.492-1.32s-1.218-2.143-1.218-3.789s0.407-2.904,1.222-3.772c0.814-0.869,1.981-1.303,3.502-1.303
		c1.52,0,2.683,0.438,3.488,1.312C59.936,45.015,60.338,46.273,60.338,47.916z M53.118,47.916c0,1.105,0.21,1.938,0.629,2.497
		c0.42,0.56,1.047,0.839,1.881,0.839c1.674,0,2.511-1.112,2.511-3.336c0-2.229-0.833-3.344-2.497-3.344
		c-0.835,0-1.464,0.281-1.888,0.843C53.33,45.977,53.118,46.811,53.118,47.916z"/>
</g>
<path opacity="0.1" fill="#FFFFFF" d="M45.718,26c-12.472,0-22.582,10.11-22.582,22.582c0,6.355,2.634,12.087,6.859,16.19
	l31.913-31.913C57.805,28.635,52.073,26,45.718,26z"/>
<circle fill="#1A1A1A" cx="165.582" cy="169.855" r="22.582"/>
<circle fill="#333333" cx="165.582" cy="169.855" r="20.611"/>
<g>
	<path fill="#FFFFFF" d="M159.611,169.107c0,1.629-0.465,2.877-1.391,3.743c-0.928,0.866-2.268,1.299-4.018,1.299h-2.801v-9.894
		h3.105c1.615,0,2.869,0.427,3.764,1.279C159.164,166.388,159.611,167.578,159.611,169.107z M157.431,169.162
		c0-2.125-0.939-3.188-2.814-3.188H153.5v6.442h0.9C156.419,172.417,157.431,171.332,157.431,169.162z"/>
	<path fill="#FFFFFF" d="M167.716,174.149L167,171.795h-3.607l-0.717,2.354h-2.26l3.492-9.935h2.564l3.504,9.935H167.716z
		 M166.5,170.035c-0.664-2.134-1.037-3.341-1.121-3.62c-0.084-0.28-0.143-0.501-0.18-0.664c-0.148,0.578-0.574,2.006-1.277,4.284
		H166.5z"/>
	<path fill="#FFFFFF" d="M180.203,169.189c0,1.638-0.406,2.896-1.219,3.775c-0.811,0.88-1.975,1.32-3.49,1.32
		c-1.518,0-2.682-0.44-3.492-1.32c-0.812-0.88-1.219-2.143-1.219-3.789s0.406-2.904,1.221-3.772
		c0.814-0.869,1.982-1.303,3.502-1.303c1.521,0,2.684,0.438,3.49,1.312C179.8,166.288,180.203,167.547,180.203,169.189z
		 M172.982,169.189c0,1.105,0.211,1.938,0.629,2.497c0.42,0.56,1.047,0.839,1.883,0.839c1.672,0,2.51-1.112,2.51-3.336
		c0-2.229-0.832-3.344-2.498-3.344c-0.834,0-1.463,0.281-1.887,0.843S172.982,168.084,172.982,169.189z"/>
</g>
<path opacity="0.1" fill="#FFFFFF" d="M165.582,147.274c-12.473,0-22.582,10.11-22.582,22.581c0,6.355,2.635,12.087,6.859,16.19
	l31.912-31.912C177.667,149.908,171.937,147.274,165.582,147.274z"/>
<circle fill="#1A1A1A" cx="165.582" cy="48.582" r="22.582"/>
<circle fill="#333333" cx="165.582" cy="48.582" r="20.611"/>
<g>
	<path fill="#FFFFFF" d="M159.611,47.834c0,1.629-0.465,2.877-1.391,3.743c-0.928,0.866-2.268,1.299-4.018,1.299h-2.801v-9.894
		h3.105c1.615,0,2.869,0.427,3.764,1.279C159.164,45.114,159.611,46.305,159.611,47.834z M157.431,47.889
		c0-2.125-0.939-3.188-2.814-3.188H153.5v6.442h0.9C156.419,51.144,157.431,50.059,157.431,47.889z"/>
	<path fill="#FFFFFF" d="M167.716,52.876L167,50.521h-3.607l-0.717,2.354h-2.26l3.492-9.935h2.564l3.504,9.935H167.716z
		 M166.5,48.762c-0.664-2.134-1.037-3.341-1.121-3.62c-0.084-0.28-0.143-0.501-0.18-0.664c-0.148,0.578-0.574,2.006-1.277,4.284
		H166.5z"/>
	<path fill="#FFFFFF" d="M180.203,47.916c0,1.638-0.406,2.896-1.219,3.775c-0.811,0.88-1.975,1.32-3.49,1.32
		c-1.518,0-2.682-0.44-3.492-1.32c-0.812-0.88-1.219-2.143-1.219-3.789s0.406-2.904,1.221-3.772
		c0.814-0.869,1.982-1.303,3.502-1.303c1.521,0,2.684,0.438,3.49,1.312C179.8,45.015,180.203,46.273,180.203,47.916z
		 M172.982,47.916c0,1.105,0.211,1.938,0.629,2.497c0.42,0.56,1.047,0.839,1.883,0.839c1.672,0,2.51-1.112,2.51-3.336
		c0-2.229-0.832-3.344-2.498-3.344c-0.834,0-1.463,0.281-1.887,0.843S172.982,46.811,172.982,47.916z"/>
</g>
<path opacity="0.1" fill="#FFFFFF" d="M165.582,26C153.109,26,143,36.11,143,48.582c0,6.355,2.635,12.087,6.859,16.19l31.912-31.913
	C177.667,28.635,171.937,26,165.582,26z"/>
<circle fill="#1A1A1A" cx="104.582" cy="22.582" r="22.582"/>
<circle fill="#333333" cx="104.581" cy="22.582" r="20.612"/>
<g>
	<path fill="#FFFFFF" d="M98.61,21.834c0,1.629-0.464,2.877-1.391,3.743c-0.928,0.866-2.267,1.299-4.017,1.299h-2.802v-9.894h3.106
		c1.614,0,2.869,0.427,3.763,1.279C98.163,19.114,98.61,20.305,98.61,21.834z M96.431,21.889c0-2.125-0.938-3.188-2.814-3.188
		h-1.117v6.442h0.9C95.42,25.144,96.431,24.059,96.431,21.889z"/>
	<path fill="#FFFFFF" d="M106.716,26.876L106,24.521h-3.607l-0.718,2.354h-2.26l3.492-9.935h2.565l3.504,9.935H106.716z
		 M105.5,22.762c-0.664-2.134-1.038-3.341-1.121-3.62c-0.084-0.28-0.144-0.501-0.18-0.664c-0.148,0.578-0.575,2.006-1.278,4.284
		H105.5z"/>
	<path fill="#FFFFFF" d="M119.203,21.916c0,1.638-0.406,2.896-1.219,3.775c-0.811,0.88-1.975,1.32-3.49,1.32
		c-1.518,0-2.682-0.44-3.492-1.32c-0.812-0.88-1.219-2.143-1.219-3.789s0.406-2.904,1.221-3.772
		c0.814-0.869,1.982-1.303,3.502-1.303c1.521,0,2.684,0.438,3.49,1.312C118.8,19.015,119.203,20.273,119.203,21.916z
		 M111.982,21.916c0,1.105,0.211,1.938,0.629,2.497c0.42,0.56,1.047,0.839,1.883,0.839c1.672,0,2.51-1.112,2.51-3.336
		c0-2.229-0.832-3.344-2.498-3.344c-0.834,0-1.463,0.281-1.887,0.843S111.982,20.811,111.982,21.916z"/>
</g>
<path opacity="0.1" fill="#FFFFFF" d="M104.582,0C92.109,0,82,10.11,82,22.582c0,6.355,2.634,12.087,6.858,16.19l31.913-31.913
	C116.667,2.635,110.937,0,104.582,0z"/>
<circle fill="#1A1A1A" cx="104.582" cy="192.582" r="22.582"/>
<circle fill="#333333" cx="104.581" cy="192.582" r="20.612"/>
<g>
	<path fill="#FFFFFF" d="M98.61,191.834c0,1.629-0.464,2.877-1.391,3.743c-0.928,0.866-2.267,1.299-4.017,1.299h-2.802v-9.894h3.106
		c1.614,0,2.869,0.427,3.763,1.279C98.163,189.114,98.61,190.305,98.61,191.834z M96.431,191.889c0-2.125-0.938-3.188-2.814-3.188
		h-1.117v6.442h0.9C95.42,195.144,96.431,194.059,96.431,191.889z"/>
	<path fill="#FFFFFF" d="M106.716,196.876L106,194.521h-3.607l-0.718,2.354h-2.26l3.492-9.935h2.565l3.504,9.935H106.716z
		 M105.5,192.762c-0.664-2.134-1.038-3.341-1.121-3.62c-0.084-0.28-0.144-0.501-0.18-0.664c-0.148,0.578-0.575,2.006-1.278,4.284
		H105.5z"/>
	<path fill="#FFFFFF" d="M119.203,191.916c0,1.638-0.406,2.896-1.219,3.775c-0.811,0.88-1.975,1.32-3.49,1.32
		c-1.518,0-2.682-0.44-3.492-1.32c-0.812-0.88-1.219-2.143-1.219-3.789s0.406-2.904,1.221-3.772
		c0.814-0.869,1.982-1.303,3.502-1.303c1.521,0,2.684,0.438,3.49,1.312C118.8,189.015,119.203,190.273,119.203,191.916z
		 M111.982,191.916c0,1.105,0.211,1.938,0.629,2.497c0.42,0.56,1.047,0.839,1.883,0.839c1.672,0,2.51-1.112,2.51-3.336
		c0-2.229-0.832-3.344-2.498-3.344c-0.834,0-1.463,0.281-1.887,0.843S111.982,190.811,111.982,191.916z"/>
</g>
<path opacity="0.1" fill="#FFFFFF" d="M104.582,170C92.109,170,82,180.11,82,192.582c0,6.355,2.634,12.087,6.858,16.19
	l31.913-31.913C116.667,172.635,110.937,170,104.582,170z"/>
<circle fill="#1A1A1A" cx="186.582" cy="108.582" r="22.582"/>
<circle fill="#333333" cx="186.582" cy="108.582" r="20.611"/>
<g>
	<path fill="#FFFFFF" d="M180.611,107.834c0,1.629-0.465,2.877-1.391,3.743c-0.928,0.866-2.268,1.299-4.018,1.299h-2.801v-9.894
		h3.105c1.615,0,2.869,0.427,3.764,1.279C180.164,105.114,180.611,106.305,180.611,107.834z M178.431,107.889
		c0-2.125-0.939-3.188-2.814-3.188H174.5v6.442h0.9C177.419,111.144,178.431,110.059,178.431,107.889z"/>
	<path fill="#FFFFFF" d="M188.716,112.876L188,110.521h-3.607l-0.717,2.354h-2.26l3.492-9.935h2.564l3.504,9.935H188.716z
		 M187.5,108.762c-0.664-2.134-1.037-3.341-1.121-3.62c-0.084-0.28-0.143-0.501-0.18-0.664c-0.148,0.578-0.574,2.006-1.277,4.284
		H187.5z"/>
	<path fill="#FFFFFF" d="M201.203,107.916c0,1.638-0.406,2.896-1.219,3.775c-0.811,0.88-1.975,1.32-3.49,1.32
		c-1.518,0-2.682-0.44-3.492-1.32c-0.812-0.88-1.219-2.143-1.219-3.789s0.406-2.904,1.221-3.772
		c0.814-0.869,1.982-1.303,3.502-1.303c1.521,0,2.684,0.438,3.49,1.312C200.8,105.015,201.203,106.273,201.203,107.916z
		 M193.982,107.916c0,1.105,0.211,1.938,0.629,2.497c0.42,0.56,1.047,0.839,1.883,0.839c1.672,0,2.51-1.112,2.51-3.336
		c0-2.229-0.832-3.344-2.498-3.344c-0.834,0-1.463,0.281-1.887,0.843S193.982,106.811,193.982,107.916z"/>
</g>
<path opacity="0.1" fill="#FFFFFF" d="M186.582,86C174.109,86,164,96.11,164,108.582c0,6.355,2.635,12.087,6.859,16.19
	l31.912-31.913C198.667,88.635,192.937,86,186.582,86z"/>
<circle fill="#1A1A1A" cx="22.582" cy="108.582" r="22.582"/>
<circle fill="#333333" cx="22.581" cy="108.582" r="20.611"/>
<g>
	<path fill="#FFFFFF" d="M16.61,107.834c0,1.629-0.464,2.877-1.391,3.743c-0.928,0.866-2.267,1.299-4.017,1.299H8.401v-9.894h3.106
		c1.614,0,2.869,0.427,3.763,1.279C16.163,105.114,16.61,106.305,16.61,107.834z M14.431,107.889c0-2.125-0.938-3.188-2.814-3.188
		h-1.117v6.442h0.9C13.42,111.144,14.431,110.059,14.431,107.889z"/>
	<path fill="#FFFFFF" d="M24.717,112.876l-0.718-2.354h-3.606l-0.718,2.354h-2.26l3.492-9.935h2.564l3.505,9.935H24.717z
		 M23.499,108.762c-0.663-2.134-1.037-3.341-1.12-3.62c-0.084-0.28-0.144-0.501-0.18-0.664c-0.148,0.578-0.575,2.006-1.278,4.284
		H23.499z"/>
	<path fill="#FFFFFF" d="M37.203,107.916c0,1.638-0.406,2.896-1.219,3.775c-0.812,0.88-1.976,1.32-3.491,1.32
		c-1.517,0-2.681-0.44-3.492-1.32c-0.812-0.88-1.218-2.143-1.218-3.789s0.406-2.904,1.221-3.772
		c0.814-0.869,1.982-1.303,3.502-1.303c1.521,0,2.684,0.438,3.489,1.312C36.8,105.015,37.203,106.273,37.203,107.916z
		 M29.982,107.916c0,1.105,0.21,1.938,0.629,2.497c0.42,0.56,1.047,0.839,1.882,0.839c1.673,0,2.51-1.112,2.51-3.336
		c0-2.229-0.832-3.344-2.497-3.344c-0.834,0-1.464,0.281-1.888,0.843S29.982,106.811,29.982,107.916z"/>
</g>
<path opacity="0.1" fill="#FFFFFF" d="M22.582,86C10.109,86,0,96.11,0,108.582c0,6.355,2.634,12.087,6.858,16.19l31.913-31.913
	C34.668,88.635,28.937,86,22.582,86z"/>
</svg>
