<?xml version="1.0" encoding="utf-8"?>
<!-- Generator: Adobe Illustrator 16.0.0, SVG Export Plug-In . SVG Version: 6.00 Build 0)  -->
<!DOCTYPE svg PUBLIC "-//W3C//DTD SVG 1.1//EN" "http://www.w3.org/Graphics/SVG/1.1/DTD/svg11.dtd">
<svg version="1.1" id="Layer_1" xmlns="http://www.w3.org/2000/svg" xmlns:xlink="http://www.w3.org/1999/xlink" x="0px" y="0px"
	 width="278.595px" height="280.096px" viewBox="0 0 278.595 280.096" enable-background="new 0 0 278.595 280.096"
	 xml:space="preserve">
<g>
	<g>
		<g>
			
				<line fill="none" stroke="#EEA315" stroke-width="3" stroke-linecap="round" stroke-miterlimit="10" x1="132.611" y1="131.201" x2="75.115" y2="73.707"/>
			<polygon fill="#EEA315" points="68.609,79.002 80.434,67.18 67.828,66.396 			"/>
		</g>
		<g>
			
				<line fill="none" stroke="#EEA315" stroke-width="3" stroke-linecap="round" stroke-miterlimit="10" x1="145.601" y1="132.201" x2="203.097" y2="74.707"/>
			<polygon fill="#EEA315" points="209.603,80.002 197.779,68.18 210.384,67.396 			"/>
		</g>
		<g>
			
				<line fill="none" stroke="#EEA315" stroke-width="3" stroke-linecap="round" stroke-miterlimit="10" x1="145.601" y1="147.396" x2="203.097" y2="204.891"/>
			<polygon fill="#EEA315" points="209.603,199.596 197.779,211.418 210.384,212.201 			"/>
		</g>
		<g>
			
				<line fill="none" stroke="#EEA315" stroke-width="3" stroke-linecap="round" stroke-miterlimit="10" x1="132.611" y1="146.396" x2="75.115" y2="203.891"/>
			<polygon fill="#EEA315" points="68.609,198.596 80.434,210.418 67.828,211.201 			"/>
		</g>
	</g>
	<g>
		<circle fill="#E2E2E2" cx="30.548" cy="250.049" r="30.048"/>
		<g>
			<defs>
				<circle id="SVGID_1_" cx="30.548" cy="250.049" r="30.048"/>
			</defs>
			<clipPath id="SVGID_2_">
				<use xlink:href="#SVGID_1_"  overflow="visible"/>
			</clipPath>
			<g clip-path="url(#SVGID_2_)">
				<g>
					<path fill="#E8B691" d="M46.241,267.506c-5.14,0-9.345-4.364-9.345-9.697s-2.976-9.697-6.612-9.697s-6.612,4.364-6.612,9.697
						s-4.165,9.697-9.256,9.697s-9.256,3.21-9.256,6.827s7.328,7.572,16.285,9.572c0,0,0,0,9.016,0c8.947,0,8.947,0,8.947,0
						c8.898-2,16.178-5.924,16.178-9.553C55.586,270.726,51.381,267.506,46.241,267.506z"/>
				</g>
				<path fill="#E8B691" d="M42.564,240.794l0.055-2.043c-0.18-6.312-4.973-11.846-10.969-11.846h-0.779h-1.859
					c-5.998,0-9.907,5.435-10.907,12.366l0,0v1.522c-1,0-1.261,1.658-1.261,3.702c0,2.046,0.57,3.702,1.312,3.702
					c0.104,0,0.372-0.036,0.468-0.096c1.227,6.204,6.058,13.709,12.22,13.788c5.646-0.079,10.438-7.584,11.662-13.788
					c0.096,0.06,0.047,0.096,0.151,0.096c0.74,0,1.369-1.656,1.369-3.702C44.026,242.452,43.248,240.794,42.564,240.794z"/>
			</g>
		</g>
	</g>
	<g>
		<circle fill="#E2E2E2" cx="248.547" cy="250.049" r="30.048"/>
		<g>
			<defs>
				<circle id="SVGID_3_" cx="248.547" cy="250.049" r="30.048"/>
			</defs>
			<clipPath id="SVGID_4_">
				<use xlink:href="#SVGID_3_"  overflow="visible"/>
			</clipPath>
			<g clip-path="url(#SVGID_4_)">
				<g>
					<path fill="#E8B691" d="M264.241,267.506c-5.14,0-9.345-4.364-9.345-9.697s-2.976-9.697-6.612-9.697s-6.612,4.364-6.612,9.697
						s-4.165,9.697-9.256,9.697s-9.256,3.21-9.256,6.827s7.328,7.572,16.285,9.572c0,0,0,0,9.016,0c8.947,0,8.947,0,8.947,0
						c8.897-2,16.178-5.924,16.178-9.553C273.585,270.726,269.38,267.506,264.241,267.506z"/>
				</g>
				<path fill="#E8B691" d="M260.564,240.794l0.055-2.043c-0.18-6.312-4.973-11.846-10.969-11.846h-0.779h-1.859
					c-5.998,0-9.906,5.435-10.906,12.366l0,0v1.522c-1,0-1.26,1.658-1.26,3.702c0,2.046,0.568,3.702,1.311,3.702
					c0.104,0,0.373-0.036,0.469-0.096c1.227,6.204,6.057,13.709,12.219,13.788c5.646-0.079,10.438-7.584,11.663-13.788
					c0.096,0.06,0.048,0.096,0.151,0.096c0.74,0,1.368-1.656,1.368-3.702C262.026,242.452,261.248,240.794,260.564,240.794z"/>
			</g>
		</g>
	</g>
	<g>
		<circle fill="#E2E2E2" cx="248.547" cy="30.049" r="30.048"/>
		<g>
			<defs>
				<circle id="SVGID_5_" cx="248.547" cy="30.049" r="30.048"/>
			</defs>
			<clipPath id="SVGID_6_">
				<use xlink:href="#SVGID_5_"  overflow="visible"/>
			</clipPath>
			<g clip-path="url(#SVGID_6_)">
				<g>
					<path fill="#E8B691" d="M264.241,47.506c-5.14,0-9.345-4.364-9.345-9.697s-2.976-9.697-6.612-9.697s-6.612,4.364-6.612,9.697
						s-4.165,9.697-9.256,9.697s-9.256,3.21-9.256,6.828s7.328,7.572,16.285,9.572c0,0,0,0,9.016,0c8.947,0,8.947,0,8.947,0
						c8.897-2,16.178-5.923,16.178-9.552S269.38,47.506,264.241,47.506z"/>
				</g>
				<path fill="#E8B691" d="M260.564,20.794l0.055-2.042c-0.18-6.312-4.973-11.846-10.969-11.846h-0.779h-1.859
					c-5.998,0-9.906,5.435-10.906,12.366l0,0v1.522c-1,0-1.26,1.658-1.26,3.702c0,2.046,0.568,3.702,1.311,3.702
					c0.104,0,0.373-0.036,0.469-0.096c1.227,6.204,6.057,13.709,12.219,13.788c5.646-0.079,10.437-7.584,11.663-13.788
					c0.096,0.06,0.048,0.096,0.151,0.096c0.74,0,1.368-1.656,1.368-3.702C262.026,22.452,261.248,20.794,260.564,20.794z"/>
			</g>
		</g>
	</g>
	<g>
		<circle fill="#E2E2E2" cx="30.048" cy="30.049" r="30.048"/>
		<g>
			<defs>
				<circle id="SVGID_7_" cx="30.048" cy="30.049" r="30.048"/>
			</defs>
			<clipPath id="SVGID_8_">
				<use xlink:href="#SVGID_7_"  overflow="visible"/>
			</clipPath>
			<g clip-path="url(#SVGID_8_)">
				<g>
					<path fill="#E8B691" d="M45.741,47.506c-5.14,0-9.345-4.364-9.345-9.697s-2.976-9.697-6.612-9.697s-6.612,4.364-6.612,9.697
						s-4.165,9.697-9.256,9.697s-9.256,3.21-9.256,6.828s7.328,7.572,16.285,9.572c0,0,0,0,9.016,0c8.947,0,8.947,0,8.947,0
						c8.898-2,16.178-5.923,16.178-9.552S50.881,47.506,45.741,47.506z"/>
				</g>
				<path fill="#E8B691" d="M42.064,20.794l0.055-2.042c-0.18-6.312-4.973-11.846-10.969-11.846h-0.779h-1.859
					c-5.998,0-10.407,5.435-11.407,12.366l0,0v1.522c-1,0-1.011,1.658-1.011,3.702c0,2.046,0.695,3.702,1.437,3.702
					c0.104,0,0.435-0.036,0.53-0.096c1.227,6.204,6.089,13.709,12.251,13.788c5.646-0.079,10.451-7.584,11.678-13.788
					c0.096,0.06,0.055,0.096,0.159,0.096c0.74,0,1.373-1.656,1.373-3.702C43.522,22.452,42.748,20.794,42.064,20.794z"/>
			</g>
		</g>
	</g>
	<g>
		<circle fill="#1A1A1A" cx="58.049" cy="56.323" r="15.082"/>
		<circle fill="#333333" cx="58.048" cy="56.323" r="13.767"/>
		<text transform="matrix(1 0 0 1 47.7446 59.1895)" fill="#FFFFFF" font-family="'Roboto'" font-weight="700" font-size="10">DAO</text>
		<path opacity="0.1" fill="#FFFFFF" d="M58.049,41.241c-8.33,0-15.082,6.753-15.082,15.082c0,4.245,1.758,8.072,4.58,10.813
			l21.314-21.314C66.121,43.001,62.293,41.241,58.049,41.241z"/>
	</g>
	<g>
		<circle fill="#1A1A1A" cx="219.048" cy="56.323" r="15.082"/>
		<circle fill="#333333" cx="219.047" cy="56.323" r="13.767"/>
		<text transform="matrix(1 0 0 1 208.7446 59.1895)" fill="#FFFFFF" font-family="'Roboto'" font-weight="700" font-size="10">DAO</text>
		<path opacity="0.1" fill="#FFFFFF" d="M219.048,41.241c-8.33,0-15.082,6.753-15.082,15.082c0,4.245,1.758,8.072,4.58,10.813
			l21.314-21.314C227.121,43.001,223.292,41.241,219.048,41.241z"/>
	</g>
	<g>
		<circle fill="#1A1A1A" cx="58.049" cy="223.323" r="15.082"/>
		<circle fill="#333333" cx="58.048" cy="223.323" r="13.767"/>
		<text transform="matrix(1 0 0 1 47.7446 226.1895)" fill="#FFFFFF" font-family="'Roboto'" font-weight="700" font-size="10">DAO</text>
		<path opacity="0.1" fill="#FFFFFF" d="M58.049,208.241c-8.33,0-15.082,6.753-15.082,15.082c0,4.245,1.758,8.072,4.58,10.813
			l21.314-21.314C66.121,210.001,62.293,208.241,58.049,208.241z"/>
	</g>
	<g>
		<circle fill="#1A1A1A" cx="219.048" cy="223.323" r="15.082"/>
		<circle fill="#333333" cx="219.047" cy="223.323" r="13.767"/>
		<text transform="matrix(1 0 0 1 208.7446 226.1895)" fill="#FFFFFF" font-family="'Roboto'" font-weight="700" font-size="10">DAO</text>
		<path opacity="0.1" fill="#FFFFFF" d="M219.048,208.241c-8.33,0-15.082,6.753-15.082,15.082c0,4.245,1.758,8.072,4.58,10.813
			l21.314-21.314C227.121,210.001,223.292,208.241,219.048,208.241z"/>
	</g>
	<g>
		<circle fill="#333333" cx="139.299" cy="139.299" r="49.5"/>
		<text transform="matrix(1 0 0 1 111.4722 146.3232)" fill="#FFFFFF" font-family="'Roboto'" font-weight="700" font-size="28">DAO</text>
	</g>
</g>
</svg>
