<?xml version="1.0" encoding="utf-8"?>
<!-- Generator: Adobe Illustrator 16.0.0, SVG Export Plug-In . SVG Version: 6.00 Build 0)  -->
<!DOCTYPE svg PUBLIC "-//W3C//DTD SVG 1.1//EN" "http://www.w3.org/Graphics/SVG/1.1/DTD/svg11.dtd">
<svg version="1.1" id="Layer_1" xmlns="http://www.w3.org/2000/svg" xmlns:xlink="http://www.w3.org/1999/xlink" x="0px" y="0px"
	 width="278.595px" height="280.096px" viewBox="0 0 278.595 280.096" enable-background="new 0 0 278.595 280.096"
	 xml:space="preserve">
<g>
	<circle fill="#333333" cx="139.298" cy="139.299" r="49.5"/>
	<text transform="matrix(1 0 0 1 111.4717 146.3232)" fill="#FFFFFF" font-family="'OpenSans-Bold'" font-size="25">DAO</text>
</g>
<g>
	<g>
		<path fill="#333333" d="M97.588,166.946c-8.724,0-15.796,7.072-15.796,15.796c0,4.362,1.772,8.308,4.63,11.166l22.331-22.331
			C105.895,168.719,101.95,166.946,97.588,166.946z"/>
		<path fill="#333333" d="M86.422,193.908c0.147,0.147,0.295,0.293,0.448,0.435l22.317-22.317c-0.141-0.153-0.288-0.301-0.435-0.448
			L86.422,193.908z"/>
		<path fill="#333333" d="M86.871,194.343c2.816,2.604,6.58,4.195,10.717,4.195c8.724,0,15.796-7.071,15.796-15.796
			c0-4.137-1.593-7.9-4.196-10.717L86.871,194.343z"/>
		<circle fill="#4D4D4D" cx="97.588" cy="182.742" r="14.25"/>
		<g>
			<polygon fill="#333333" points="97.261,170.386 89.64,183.077 97.261,179.6 			"/>
			<polygon fill="#131313" points="97.261,170.386 104.882,183.077 97.261,179.6 			"/>
			<polygon fill="#070707" points="97.261,179.6 104.882,183.077 97.261,187.562 			"/>
			<polygon fill="#141414" points="97.261,179.6 89.64,183.077 97.261,187.562 			"/>
			<polygon fill="#333333" points="89.982,184.115 97.604,194.854 97.603,188.584 			"/>
			<polygon fill="#131313" points="105.232,184.115 97.609,194.854 97.611,188.584 			"/>
		</g>
		<path opacity="0.2" fill="#FFFFFF" d="M97.588,166.946c-8.724,0-15.796,7.072-15.796,15.796c0,4.362,1.772,8.308,4.63,11.166
			l22.331-22.331C105.895,168.719,101.95,166.946,97.588,166.946z"/>
	</g>
	<g>
		
			<line fill="none" stroke="#EEA315" stroke-width="3" stroke-linecap="round" stroke-miterlimit="10" x1="24.828" y1="253.438" x2="82.323" y2="195.943"/>
		<polygon fill="#EEA315" points="88.83,201.239 77.004,189.416 89.611,188.633 		"/>
	</g>
</g>
<g>
	<path fill="#333333" d="M181.623,166.946c-8.724,0-15.795,7.072-15.795,15.796c0,4.362,1.771,8.308,4.63,11.166l22.331-22.331
		C189.93,168.719,185.985,166.946,181.623,166.946z"/>
	<path fill="#333333" d="M170.458,193.908c0.147,0.147,0.295,0.293,0.448,0.435l22.317-22.317c-0.142-0.153-0.288-0.301-0.435-0.448
		L170.458,193.908z"/>
	<path fill="#333333" d="M170.906,194.343c2.816,2.604,6.58,4.195,10.717,4.195c8.725,0,15.797-7.071,15.797-15.796
		c0-4.137-1.594-7.9-4.196-10.717L170.906,194.343z"/>
	<circle fill="#4D4D4D" cx="181.623" cy="182.742" r="14.25"/>
	<g>
		<polygon fill="#333333" points="181.261,170.386 173.64,183.077 181.261,179.6 		"/>
		<polygon fill="#131313" points="181.261,170.386 188.882,183.077 181.261,179.6 		"/>
		<polygon fill="#070707" points="181.261,179.6 188.882,183.077 181.261,187.562 		"/>
		<polygon fill="#141414" points="181.261,179.6 173.64,183.077 181.261,187.562 		"/>
		<polygon fill="#333333" points="174.017,184.115 181.64,194.854 181.638,188.584 		"/>
		<polygon fill="#131313" points="189.267,184.115 181.644,194.854 181.646,188.584 		"/>
	</g>
	<path opacity="0.2" fill="#FFFFFF" d="M181.623,166.946c-8.724,0-15.795,7.072-15.795,15.796c0,4.362,1.771,8.308,4.63,11.166
		l22.331-22.331C189.93,168.719,185.985,166.946,181.623,166.946z"/>
</g>
<g>
	
		<line fill="none" stroke="#EEA315" stroke-width="3" stroke-linecap="round" stroke-miterlimit="10" x1="254.383" y1="253.438" x2="196.888" y2="195.943"/>
	<polygon fill="#EEA315" points="190.381,201.239 202.207,189.416 189.6,188.633 	"/>
</g>
<g>
	<path fill="#333333" d="M97.588,79.847c-8.724,0-15.796,7.072-15.796,15.796c0,4.362,1.772,8.308,4.63,11.166l22.331-22.331
		C105.895,81.619,101.95,79.847,97.588,79.847z"/>
	<path fill="#333333" d="M86.422,106.809c0.147,0.147,0.295,0.293,0.448,0.435l22.317-22.317c-0.141-0.153-0.288-0.301-0.435-0.448
		L86.422,106.809z"/>
	<path fill="#333333" d="M86.871,107.243c2.816,2.604,6.58,4.195,10.717,4.195c8.724,0,15.796-7.071,15.796-15.796
		c0-4.137-1.593-7.9-4.196-10.717L86.871,107.243z"/>
	<circle fill="#4D4D4D" cx="97.588" cy="95.643" r="14.25"/>
	<g>
		<polygon fill="#333333" points="97.261,83.286 89.64,95.978 97.261,92.5 		"/>
		<polygon fill="#131313" points="97.261,83.286 104.882,95.978 97.261,92.5 		"/>
		<polygon fill="#070707" points="97.261,92.5 104.882,95.978 97.261,100.462 		"/>
		<polygon fill="#141414" points="97.261,92.5 89.64,95.978 97.261,100.462 		"/>
		<polygon fill="#333333" points="89.982,97.016 97.604,107.754 97.603,101.484 		"/>
		<polygon fill="#131313" points="105.232,97.016 97.609,107.754 97.611,101.484 		"/>
	</g>
	<path opacity="0.2" fill="#FFFFFF" d="M97.588,79.847c-8.724,0-15.796,7.072-15.796,15.796c0,4.362,1.772,8.308,4.63,11.166
		l22.331-22.331C105.895,81.619,101.95,79.847,97.588,79.847z"/>
</g>
<g>
	
		<line fill="none" stroke="#EEA315" stroke-width="3" stroke-linecap="round" stroke-miterlimit="10" x1="24.828" y1="24.946" x2="82.323" y2="82.441"/>
	<polygon fill="#EEA315" points="88.83,77.146 77.004,88.969 89.611,89.752 	"/>
</g>
<g>
	<path fill="#333333" d="M181.623,79.847c-8.724,0-15.795,7.072-15.795,15.796c0,4.362,1.771,8.308,4.63,11.166l22.331-22.331
		C189.93,81.619,185.985,79.847,181.623,79.847z"/>
	<path fill="#333333" d="M170.458,106.809c0.147,0.147,0.295,0.293,0.448,0.435l22.317-22.317c-0.142-0.153-0.288-0.301-0.435-0.448
		L170.458,106.809z"/>
	<path fill="#333333" d="M170.906,107.243c2.816,2.604,6.58,4.195,10.717,4.195c8.725,0,15.797-7.071,15.797-15.796
		c0-4.137-1.594-7.9-4.196-10.717L170.906,107.243z"/>
	<circle fill="#4D4D4D" cx="181.623" cy="95.643" r="14.25"/>
	<g>
		<polygon fill="#333333" points="181.261,83.286 173.64,95.978 181.261,92.5 		"/>
		<polygon fill="#131313" points="181.261,83.286 188.882,95.978 181.261,92.5 		"/>
		<polygon fill="#070707" points="181.261,92.5 188.882,95.978 181.261,100.462 		"/>
		<polygon fill="#141414" points="181.261,92.5 173.64,95.978 181.261,100.462 		"/>
		<polygon fill="#333333" points="174.017,97.016 181.64,107.754 181.638,101.484 		"/>
		<polygon fill="#131313" points="189.267,97.016 181.644,107.754 181.646,101.484 		"/>
	</g>
	<path opacity="0.2" fill="#FFFFFF" d="M181.623,79.847c-8.724,0-15.795,7.072-15.795,15.796c0,4.362,1.771,8.308,4.63,11.166
		l22.331-22.331C189.93,81.619,185.985,79.847,181.623,79.847z"/>
</g>
<g>
	
		<line fill="none" stroke="#EEA315" stroke-width="3" stroke-linecap="round" stroke-miterlimit="10" x1="254.383" y1="24.946" x2="196.888" y2="82.441"/>
	<polygon fill="#EEA315" points="190.381,77.146 202.207,88.969 189.6,89.752 	"/>
</g>
<g>
	<circle fill="#E2E2E2" cx="30.548" cy="250.049" r="30.048"/>
	<g>
		<defs>
			<circle id="SVGID_1_" cx="30.548" cy="250.049" r="30.048"/>
		</defs>
		<clipPath id="SVGID_2_">
			<use xlink:href="#SVGID_1_"  overflow="visible"/>
		</clipPath>
		<g clip-path="url(#SVGID_2_)">
			<g>
				<path fill="#E8B691" d="M46.241,267.506c-5.139,0-9.344-4.363-9.344-9.697s-2.976-9.697-6.612-9.697s-6.612,4.363-6.612,9.697
					s-4.166,9.697-9.256,9.697c-5.091,0-9.257,3.032-9.257,6.649s7.328,7.394,16.285,9.394c0,0,0,0,9.017,0c8.948,0,8.948,0,8.948,0
					c8.897-2,16.177-5.745,16.177-9.373C55.585,270.547,51.38,267.506,46.241,267.506z"/>
			</g>
			<path fill="#E8B691" d="M42.563,240.794l0.056-2.221c-0.181-6.312-4.973-12.024-10.97-12.024H30.87h-1.858
				c-5.999,0-9.75,5.791-10.75,12.723l0,0v1.522c-1,0-1.339,1.658-1.339,3.702c0,2.046,0.53,3.702,1.273,3.702
				c0.103,0,0.353-0.036,0.448-0.096c1.226,6.204,6.047,13.709,12.208,13.788c5.648-0.079,10.433-7.584,11.659-13.788
				c0.096,0.06,0.045,0.096,0.148,0.096c0.741,0,1.368-1.656,1.368-3.702C44.026,242.452,43.247,240.794,42.563,240.794z"/>
		</g>
	</g>
</g>
<g>
	<circle fill="#E2E2E2" cx="248.547" cy="250.049" r="30.048"/>
	<g>
		<defs>
			<circle id="SVGID_3_" cx="248.547" cy="250.049" r="30.048"/>
		</defs>
		<clipPath id="SVGID_4_">
			<use xlink:href="#SVGID_3_"  overflow="visible"/>
		</clipPath>
		<g clip-path="url(#SVGID_4_)">
			<g>
				<path fill="#E8B691" d="M264.241,267.506c-5.14,0-9.345-4.363-9.345-9.697s-2.976-9.697-6.612-9.697s-6.612,4.363-6.612,9.697
					s-4.165,9.697-9.256,9.697c-5.092,0-9.257,3.032-9.257,6.649s7.328,7.394,16.285,9.394c0,0,0,0,9.017,0c8.947,0,8.947,0,8.947,0
					c8.897-2,16.178-5.745,16.178-9.373C273.585,270.547,269.38,267.506,264.241,267.506z"/>
			</g>
			<path fill="#E8B691" d="M260.564,240.794l0.055-2.221c-0.18-6.312-4.973-12.024-10.97-12.024h-0.779h-1.858
				c-5.998,0-9.75,5.791-10.75,12.723l0,0v1.522c-1,0-1.339,1.658-1.339,3.702c0,2.046,0.53,3.702,1.272,3.702
				c0.104,0,0.354-0.036,0.449-0.096c1.225,6.204,6.047,13.709,12.207,13.788c5.648-0.079,10.434-7.584,11.659-13.788
				c0.096,0.06,0.045,0.096,0.148,0.096c0.741,0,1.368-1.656,1.368-3.702C262.027,242.452,261.248,240.794,260.564,240.794z"/>
		</g>
	</g>
</g>
<g>
	<circle fill="#E2E2E2" cx="248.547" cy="30.049" r="30.048"/>
	<g>
		<defs>
			<circle id="SVGID_5_" cx="248.547" cy="30.049" r="30.048"/>
		</defs>
		<clipPath id="SVGID_6_">
			<use xlink:href="#SVGID_5_"  overflow="visible"/>
		</clipPath>
		<g clip-path="url(#SVGID_6_)">
			<g>
				<path fill="#E8B691" d="M264.241,47.506c-5.14,0-9.345-4.364-9.345-9.697s-2.976-9.697-6.612-9.697s-6.612,4.364-6.612,9.697
					s-4.165,9.697-9.256,9.697s-9.256,3.032-9.256,6.649s7.328,7.394,16.285,9.394c0,0,0,0,9.016,0c8.947,0,8.947,0,8.947,0
					c8.897-2,16.178-5.745,16.178-9.374S269.38,47.506,264.241,47.506z"/>
			</g>
			<path fill="#E8B691" d="M260.564,20.794l0.055-2.221c-0.18-6.312-4.973-12.024-10.969-12.024h-0.779h-1.859
				c-5.998,0-9.75,5.791-10.75,12.723l0,0v1.522c-1,0-1.339,1.658-1.339,3.702c0,2.046,0.53,3.702,1.272,3.702
				c0.104,0,0.353-0.036,0.448-0.096c1.227,6.204,6.047,13.709,12.209,13.788c5.647-0.079,10.433-7.584,11.657-13.788
				c0.096,0.06,0.046,0.096,0.149,0.096c0.741,0,1.367-1.656,1.367-3.702C262.026,22.452,261.248,20.794,260.564,20.794z"/>
		</g>
	</g>
</g>
<g>
	<circle fill="#E2E2E2" cx="30.048" cy="30.049" r="30.048"/>
	<g>
		<defs>
			<circle id="SVGID_7_" cx="30.048" cy="30.049" r="30.048"/>
		</defs>
		<clipPath id="SVGID_8_">
			<use xlink:href="#SVGID_7_"  overflow="visible"/>
		</clipPath>
		<g clip-path="url(#SVGID_8_)">
			<g>
				<path fill="#E8B691" d="M45.741,47.506c-5.139,0-9.344-4.364-9.344-9.697s-2.976-9.697-6.612-9.697s-6.612,4.364-6.612,9.697
					s-4.166,9.697-9.256,9.697c-5.091,0-9.257,3.032-9.257,6.649s7.328,7.394,16.285,9.394c0,0,0,0,9.017,0c8.948,0,8.948,0,8.948,0
					c8.897-2,16.177-5.745,16.177-9.374S50.88,47.506,45.741,47.506z"/>
			</g>
			<path fill="#E8B691" d="M42.063,20.794l0.056-2.221c-0.181-6.312-4.973-12.024-10.97-12.024H30.37h-1.858
				c-5.999,0-10.25,5.791-11.25,12.723l0,0v1.522c-1,0-1.089,1.658-1.089,3.702c0,2.046,0.655,3.702,1.398,3.702
				c0.103,0,0.415-0.036,0.511-0.096c1.226,6.204,6.078,13.709,12.239,13.788c5.648-0.079,10.448-7.584,11.674-13.788
				c0.096,0.06,0.053,0.096,0.157,0.096c0.741,0,1.372-1.656,1.372-3.702C43.522,22.452,42.747,20.794,42.063,20.794z"/>
		</g>
	</g>
</g>
</svg>
