<?xml version="1.0" encoding="utf-8"?>
<!-- Generator: Adobe Illustrator 16.0.0, SVG Export Plug-In . SVG Version: 6.00 Build 0)  -->
<!DOCTYPE svg PUBLIC "-//W3C//DTD SVG 1.1//EN" "http://www.w3.org/Graphics/SVG/1.1/DTD/svg11.dtd">
<svg version="1.1" id="Layer_1" xmlns="http://www.w3.org/2000/svg" xmlns:xlink="http://www.w3.org/1999/xlink" x="0px" y="0px"
	 width="248.116px" height="248.116px" viewBox="0 0 248.116 248.116" enable-background="new 0 0 248.116 248.116"
	 xml:space="preserve">
<g>
	<circle fill="#E2E2E2" cx="124.058" cy="124.059" r="124.058"/>
	<g>
		
			<line fill="none" stroke="#EEA420" stroke-width="3" stroke-linecap="round" stroke-miterlimit="10" stroke-dasharray="6,10" x1="204.151" y1="66.158" x2="47.391" y2="188.958"/>
		
			<line fill="none" stroke="#EEA420" stroke-width="3" stroke-linecap="round" stroke-miterlimit="10" stroke-dasharray="6,10" x1="43.965" y1="66.591" x2="208.387" y2="189.025"/>
		<g>
			<path fill="#B4B4B4" d="M203.637,83.265v-1.213h-9.685v1.211c0.049,6.053-2.421,6.054-2.421,6.054c0,0.67,0.541,1.211,1.21,1.211
				h12.106c0.669,0,1.21-0.541,1.21-1.211C206.058,89.316,203.588,89.316,203.637,83.265z"/>
			<path fill="#444A56" d="M218.164,77.211L218.164,77.211v-23c0-1.338-1.086-2.423-2.421-2.423h-33.897
				c-1.337,0-2.421,1.085-2.421,2.423V77.21v0.001H218.164z"/>
			<rect x="181.846" y="54.211" opacity="0.1" fill="#FFFFFF" width="33.897" height="20.578"/>
			<path fill="#B4B4B4" d="M179.425,77.211v2.423c0,1.337,1.084,2.421,2.421,2.421h33.897c1.335,0,2.421-1.084,2.421-2.421v-2.423
				H179.425z"/>
			<path opacity="0.1" fill="#010101" d="M192.741,90.527h12.106c0.669,0,1.21-0.541,1.21-1.211h-14.526
				C191.531,89.986,192.072,90.527,192.741,90.527z"/>
			<circle opacity="0.9" fill="#F3F3F3" cx="198.794" cy="79.632" r="1.21"/>
			<rect x="193.952" y="82.052" opacity="0.1" fill="#010101" width="9.685" height="1.211"/>
			<path opacity="0.1" fill="#FFFFFF" d="M215.743,51.788h-15.739l9.685,25.423h8.476V77.21V54.211
				C218.164,52.873,217.078,51.788,215.743,51.788z"/>
		</g>
		<g>
			<path fill="#B4B4B4" d="M203.637,197.064v-1.213h-9.685v1.211c0.049,6.053-2.421,6.054-2.421,6.054
				c0,0.67,0.541,1.211,1.21,1.211h12.106c0.669,0,1.21-0.541,1.21-1.211C206.058,203.116,203.588,203.116,203.637,197.064z"/>
			<path fill="#444A56" d="M218.164,191.011L218.164,191.011v-23c0-1.338-1.086-2.423-2.421-2.423h-33.897
				c-1.337,0-2.421,1.085-2.421,2.423v22.999v0.001H218.164z"/>
			<rect x="181.846" y="168.011" opacity="0.1" fill="#FFFFFF" width="33.897" height="20.578"/>
			<path fill="#B4B4B4" d="M179.425,191.011v2.423c0,1.337,1.084,2.421,2.421,2.421h33.897c1.335,0,2.421-1.084,2.421-2.421v-2.423
				H179.425z"/>
			<path opacity="0.1" fill="#010101" d="M192.741,204.327h12.106c0.669,0,1.21-0.541,1.21-1.211h-14.526
				C191.531,203.786,192.072,204.327,192.741,204.327z"/>
			<circle opacity="0.9" fill="#F3F3F3" cx="198.794" cy="193.432" r="1.21"/>
			<rect x="193.952" y="195.852" opacity="0.1" fill="#010101" width="9.685" height="1.211"/>
			<path opacity="0.1" fill="#FFFFFF" d="M215.743,165.588h-15.739l9.685,25.423h8.476v-0.001v-22.999
				C218.164,166.673,217.078,165.588,215.743,165.588z"/>
		</g>
		<g>
			<path fill="#B4B4B4" d="M54.877,83.265v-1.213h-9.685v1.211c0.049,6.053-2.421,6.054-2.421,6.054c0,0.67,0.541,1.211,1.21,1.211
				h12.106c0.669,0,1.21-0.541,1.21-1.211C57.298,89.316,54.828,89.316,54.877,83.265z"/>
			<path fill="#444A56" d="M69.404,77.211L69.404,77.211v-23c0-1.338-1.086-2.423-2.421-2.423H33.086
				c-1.337,0-2.421,1.085-2.421,2.423V77.21v0.001H69.404z"/>
			<rect x="33.086" y="54.211" opacity="0.1" fill="#FFFFFF" width="33.897" height="20.578"/>
			<path fill="#B4B4B4" d="M30.665,77.211v2.423c0,1.337,1.084,2.421,2.421,2.421h33.897c1.335,0,2.421-1.084,2.421-2.421v-2.423
				H30.665z"/>
			<path opacity="0.1" fill="#010101" d="M43.981,90.527h12.106c0.669,0,1.21-0.541,1.21-1.211H42.771
				C42.771,89.986,43.312,90.527,43.981,90.527z"/>
			<circle opacity="0.9" fill="#F3F3F3" cx="50.034" cy="79.632" r="1.21"/>
			<rect x="45.192" y="82.052" opacity="0.1" fill="#010101" width="9.685" height="1.211"/>
			<path opacity="0.1" fill="#FFFFFF" d="M66.983,51.788H51.244l9.685,25.423h8.476V77.21V54.211
				C69.404,52.873,68.318,51.788,66.983,51.788z"/>
		</g>
		<g>
			<path fill="#B4B4B4" d="M54.877,197.064v-1.213h-9.685v1.211c0.049,6.053-2.421,6.054-2.421,6.054c0,0.67,0.541,1.211,1.21,1.211
				h12.106c0.669,0,1.21-0.541,1.21-1.211C57.298,203.116,54.828,203.116,54.877,197.064z"/>
			<path fill="#444A56" d="M69.404,191.011L69.404,191.011v-23c0-1.338-1.086-2.423-2.421-2.423H33.086
				c-1.337,0-2.421,1.085-2.421,2.423v22.999v0.001H69.404z"/>
			<rect x="33.086" y="168.011" opacity="0.1" fill="#FFFFFF" width="33.897" height="20.578"/>
			<path fill="#B4B4B4" d="M30.665,191.011v2.423c0,1.337,1.084,2.421,2.421,2.421h33.897c1.335,0,2.421-1.084,2.421-2.421v-2.423
				H30.665z"/>
			<path opacity="0.1" fill="#010101" d="M43.981,204.327h12.106c0.669,0,1.21-0.541,1.21-1.211H42.771
				C42.771,203.786,43.312,204.327,43.981,204.327z"/>
			<circle opacity="0.9" fill="#F3F3F3" cx="50.034" cy="193.432" r="1.21"/>
			<rect x="45.192" y="195.852" opacity="0.1" fill="#010101" width="9.685" height="1.211"/>
			<path opacity="0.1" fill="#FFFFFF" d="M66.983,165.588H51.244l9.685,25.423h8.476v-0.001v-22.999
				C69.404,166.673,68.318,165.588,66.983,165.588z"/>
		</g>
		<g>
			<path fill="#B4B4B4" d="M130.257,139.915v-1.213h-9.685v1.211c0.049,6.053-2.421,6.054-2.421,6.054
				c0,0.67,0.541,1.211,1.21,1.211h12.106c0.669,0,1.21-0.541,1.21-1.211C132.678,145.967,130.208,145.967,130.257,139.915z"/>
			<path fill="#444A56" d="M144.784,133.861L144.784,133.861v-23c0-1.338-1.086-2.423-2.421-2.423h-33.897
				c-1.337,0-2.421,1.085-2.421,2.423v22.999v0.001H144.784z"/>
			<rect x="108.466" y="110.861" opacity="0.1" fill="#FFFFFF" width="33.897" height="20.578"/>
			<path fill="#B4B4B4" d="M106.045,133.861v2.423c0,1.337,1.084,2.421,2.421,2.421h33.897c1.335,0,2.421-1.084,2.421-2.421v-2.423
				H106.045z"/>
			<path opacity="0.1" fill="#010101" d="M119.361,147.178h12.106c0.669,0,1.21-0.541,1.21-1.211h-14.526
				C118.151,146.637,118.692,147.178,119.361,147.178z"/>
			<circle opacity="0.9" fill="#F3F3F3" cx="125.414" cy="136.282" r="1.21"/>
			<rect x="120.572" y="138.702" opacity="0.1" fill="#010101" width="9.685" height="1.211"/>
			<path opacity="0.1" fill="#FFFFFF" d="M142.363,108.438h-15.739l9.685,25.423h8.476v-0.001v-22.999
				C144.784,109.523,143.698,108.438,142.363,108.438z"/>
		</g>
	</g>
</g>
</svg>
