<?xml version="1.0" encoding="utf-8"?>
<!-- Generator: Adobe Illustrator 16.0.0, SVG Export Plug-In . SVG Version: 6.00 Build 0)  -->
<!DOCTYPE svg PUBLIC "-//W3C//DTD SVG 1.1//EN" "http://www.w3.org/Graphics/SVG/1.1/DTD/svg11.dtd">
<svg version="1.1" id="Layer_1" xmlns="http://www.w3.org/2000/svg" xmlns:xlink="http://www.w3.org/1999/xlink" x="0px" y="0px"
	 width="334px" height="291.117px" viewBox="0 0 334 291.117" enable-background="new 0 0 334 291.117" xml:space="preserve">
<circle fill="#E2E2E2" cx="167.54" cy="93.311" r="93.312"/>
<path fill="#E2E2E2" d="M334,279.117c0,6.627-5.373,12-12,12H12c-6.627,0-12-5.373-12-12v-94c0-6.627,5.373-12,12-12h310
	c6.627,0,12,5.373,12,12V279.117z"/>
<g>
	<text transform="matrix(1 0 0 1 142.2339 204.5586)" fill="#333333" font-family="'OpenSans-Semibold'" font-size="20">Ether</text>
</g>
<g>
	<rect x="36.059" y="223.026" fill="none" width="261.407" height="44.182"/>
	<text transform="matrix(1 0 0 1 38.061 238.2266)"><tspan x="0" y="0" fill="#333333" font-family="'OpenSans'" font-size="20">É o combustível (token) que </tspan><tspan x="19.321" y="28" fill="#333333" font-family="'OpenSans'" font-size="20">move a rede Ethereum.</tspan></text>
</g>
<g>
	<path fill="#333333" d="M167.539,28.074c-36.029,0-65.236,29.207-65.236,65.238c0,18.014,7.32,34.307,19.125,46.111l92.225-92.225
		C201.848,35.395,185.555,28.074,167.539,28.074z"/>
	<path fill="#333333" d="M121.428,139.424c0.607,0.609,1.217,1.213,1.85,1.797l92.17-92.172c-0.582-0.631-1.189-1.24-1.795-1.85
		L121.428,139.424z"/>
	<path fill="#333333" d="M123.277,141.221c11.631,10.752,27.176,17.326,44.262,17.326c36.029,0,65.238-29.205,65.238-65.234
		c0-17.088-6.578-32.633-17.33-44.264L123.277,141.221z"/>
	<circle fill="#4D4D4D" cx="167.54" cy="93.312" r="58.854"/>
	<g>
		<polygon fill="#333333" points="167,42.279 135.525,94.693 167,80.33 		"/>
		<polygon fill="#131313" points="167,42.279 198.475,94.693 167,80.33 		"/>
		<polygon fill="#070707" points="167,80.33 198.475,94.693 167,113.215 		"/>
		<polygon fill="#141414" points="167,80.33 135.525,94.693 167,113.215 		"/>
		<polygon fill="#333333" points="136.129,98.979 167.609,143.33 167.604,117.438 		"/>
		<polygon fill="#131313" points="199.109,98.979 167.629,143.33 167.635,117.438 		"/>
	</g>
	<path opacity="0.2" fill="#FFFFFF" d="M167.539,28.074c-36.029,0-65.236,29.207-65.236,65.238c0,18.014,7.32,34.307,19.125,46.111
		l92.225-92.225C201.848,35.395,185.555,28.074,167.539,28.074z"/>
</g>
</svg>
