<?xml version="1.0" encoding="utf-8"?>
<!-- Generator: Adobe Illustrator 16.0.0, SVG Export Plug-In . SVG Version: 6.00 Build 0)  -->
<!DOCTYPE svg PUBLIC "-//W3C//DTD SVG 1.1//EN" "http://www.w3.org/Graphics/SVG/1.1/DTD/svg11.dtd">
<svg version="1.1" id="Layer_1" xmlns="http://www.w3.org/2000/svg" xmlns:xlink="http://www.w3.org/1999/xlink" x="0px" y="0px"
	 width="374px" height="336.917px" viewBox="0 0 374 336.917" enable-background="new 0 0 374 336.917" xml:space="preserve">
<circle fill="#E2E2E2" cx="185.762" cy="104.395" r="104.312"/>
<g>
	<path fill="#E2E2E2" d="M374,324.917c0,6.627-5.373,12-12,12H12c-6.627,0-12-5.373-12-12v-124c0-6.627,5.373-12,12-12h350
		c6.627,0,12,5.373,12,12V324.917z"/>
	<g>
		<text transform="matrix(1 0 0 1 139.564 222.4419)" fill="#333333" font-family="'OpenSans-Semibold'" font-size="20">Ethereum</text>
	</g>
	<g>
		<rect x="28.666" y="241.819" fill="none" width="317" height="73"/>
		<text transform="matrix(1 0 0 1 39.3394 257.0181)"><tspan x="0" y="0" fill="#333333" font-family="'OpenSans'" font-size="20">Plataforma descentralizada que </tspan><tspan x="17.036" y="28" fill="#333333" font-family="'OpenSans'" font-size="20">roda smart contracts na sua </tspan><tspan x="95.332" y="56" fill="#333333" font-family="'OpenSans'" font-size="20">blockchain.</tspan></text>
	</g>
</g>
<g>
	<polygon fill="#333333" points="186,28.309 144.252,97.832 186,78.78 	"/>
	<polygon fill="#131313" points="186,28.309 227.748,97.832 186,78.78 	"/>
	<polygon fill="#070707" points="186,78.78 227.748,97.832 186,122.399 	"/>
	<polygon fill="#141414" points="186,78.78 144.252,97.832 186,122.399 	"/>
	<polygon fill="#333333" points="144.451,103.515 186.207,162.342 186.199,127.999 	"/>
	<polygon fill="#131313" points="227.988,103.515 186.232,162.342 186.24,127.999 	"/>
</g>
</svg>
