<?xml version="1.0" encoding="utf-8"?>
<!-- Generator: Adobe Illustrator 16.0.0, SVG Export Plug-In . SVG Version: 6.00 Build 0)  -->
<!DOCTYPE svg PUBLIC "-//W3C//DTD SVG 1.1//EN" "http://www.w3.org/Graphics/SVG/1.1/DTD/svg11.dtd">
<svg version="1.1" id="Layer_1" xmlns="http://www.w3.org/2000/svg" xmlns:xlink="http://www.w3.org/1999/xlink" x="0px" y="0px"
	 width="186.623px" height="186.623px" viewBox="0 0 186.623 186.623" enable-background="new 0 0 186.623 186.623"
	 xml:space="preserve">
<circle fill="#E2E2E2" cx="93.312" cy="93.311" r="93.312"/>
<g>
	<path fill="#333333" d="M93.311,28.074c-36.029,0-65.236,29.207-65.236,65.238c0,18.014,7.32,34.307,19.125,46.111l92.225-92.225
		C127.619,35.395,111.326,28.074,93.311,28.074z"/>
	<path fill="#333333" d="M47.199,139.424c0.607,0.609,1.217,1.213,1.85,1.797l92.17-92.172c-0.582-0.631-1.189-1.24-1.795-1.85
		L47.199,139.424z"/>
	<path fill="#333333" d="M49.049,141.221c11.631,10.752,27.176,17.326,44.262,17.326c36.029,0,65.238-29.205,65.238-65.234
		c0-17.088-6.578-32.633-17.33-44.264L49.049,141.221z"/>
	<circle fill="#4D4D4D" cx="93.312" cy="93.312" r="58.854"/>
	<g>
		<polygon fill="#333333" points="92.771,42.279 61.297,94.693 92.771,80.33 		"/>
		<polygon fill="#131313" points="92.771,42.279 124.246,94.693 92.771,80.33 		"/>
		<polygon fill="#070707" points="92.771,80.33 124.246,94.693 92.771,113.215 		"/>
		<polygon fill="#141414" points="92.771,80.33 61.297,94.693 92.771,113.215 		"/>
		<polygon fill="#333333" points="61.9,98.979 93.381,143.33 93.375,117.438 		"/>
		<polygon fill="#131313" points="124.881,98.979 93.4,143.33 93.406,117.438 		"/>
	</g>
	<path opacity="0.2" fill="#FFFFFF" d="M93.311,28.074c-36.029,0-65.236,29.207-65.236,65.238c0,18.014,7.32,34.307,19.125,46.111
		l92.225-92.225C127.619,35.395,111.326,28.074,93.311,28.074z"/>
</g>
</svg>
