<?xml version="1.0" encoding="utf-8"?>
<!-- Generator: Adobe Illustrator 16.0.0, SVG Export Plug-In . SVG Version: 6.00 Build 0)  -->
<!DOCTYPE svg PUBLIC "-//W3C//DTD SVG 1.1//EN" "http://www.w3.org/Graphics/SVG/1.1/DTD/svg11.dtd">
<svg version="1.1" id="Layer_1" xmlns="http://www.w3.org/2000/svg" xmlns:xlink="http://www.w3.org/1999/xlink" x="0px" y="0px"
	 width="230px" height="230px" viewBox="0 0 248.116 248.116" enable-background="new 0 0 248.116 248.116"
	 xml:space="preserve">
<g>
	<circle fill="#E2E2E2" cx="124.058" cy="124.059" r="124.058"/>
	<g>
		<path fill-rule="evenodd" clip-rule="evenodd" fill="#6C7A89" d="M136.828,81.654c-0.975-6.28-2.185-7.22-8.66-6.905
			c-1.068,0.052-2.702,0.231-3.129-0.347c-1.851-2.501-3.784-5.111-4.777-7.996c-0.442-1.284,1.189-3.348,2.017-4.989
			c1.738-3.448,1.354-5.459-1.749-7.825c-2.314-1.765-4.657-3.5-7.048-5.157c-3.195-2.214-5.231-2.241-7.6,0.793
			c-2.42,3.099-4.869,4.244-8.429,2.278c-0.286-0.158-0.643-0.276-0.964-0.27c-3.866,0.082-5.56-1.82-6.329-5.622
			c-0.864-4.268-2.774-5.179-7.099-4.583c-2.662,0.368-5.323,0.762-7.967,1.234c-4.072,0.728-5.465,2.311-5.13,6.412
			c0.279,3.409-0.131,6.146-3.981,7.142c-0.415,0.107-0.844,0.375-1.139,0.689c-2.988,3.177-5.936,2.822-9.285,0.37
			c-2.688-1.968-5.306-1.234-7.29,1.453c-1.929,2.612-3.875,5.214-5.739,7.871c-1.627,2.319-1.827,4.976,0.55,6.591
			c4.333,2.942,5.113,6.49,3.071,11.02c-0.043,0.096-0.037,0.222-0.031,0.332c0.156,2.971-1.575,4.157-4.232,4.518
			c-2.914,0.396-5.025,1.5-6.563,4.465c0.718,4.65,1.436,9.301,2.152,13.952c2.354,2.325,4.726,2.48,7.629,2.339
			c1.591-0.077,3.961,0.138,4.709,1.155c2.842,3.864,5.854,7.853,1.259,12.821c-2.006,2.168-1.066,4.888,1.352,6.714
			c2.68,2.025,5.382,4.026,8.127,5.958c2.493,1.755,4.835,1.367,6.922-0.779c1.169-1.204,2.229-2.529,3.491-3.625
			c0.565-0.492,1.61-0.938,2.253-0.755c4.582,1.304,10.048,1.202,10.39,8.354c0.161,3.354,2.692,4.419,6.218,3.939
			c3.217-0.437,6.425-0.95,9.626-1.494c2.696-0.455,4.699-2.31,4.136-4.815c-1.34-5.969,1.698-8.796,6.505-10.797
			c0.1-0.042,0.187-0.124,0.268-0.2c1.541-1.449,3.087-1.443,4.771-0.172c0.886,0.669,1.917,1.154,2.913,1.663
			c3.097,1.583,5.152,1.149,7.318-1.628c1.446-1.852,2.79-3.785,4.18-5.683c3.711-5.066,3.563-6.403-1.042-10.744
			c-0.952-0.896-2.58-2.068-2.468-2.925c0.417-3.183,1.021-6.491,2.414-9.329c0.599-1.222,3.274-1.501,5.056-2.045
			c3.565-1.088,4.789-2.732,4.377-6.407C137.619,86.294,137.189,83.978,136.828,81.654z M90.41,113.91
			c-12.455,1.921-24.111-6.618-26.033-19.075c-1.922-12.457,6.618-24.111,19.074-26.033c12.457-1.922,24.112,6.618,26.034,19.074
			C111.406,100.333,102.866,111.988,90.41,113.91z"/>
		<path fill-rule="evenodd" clip-rule="evenodd" fill="#6C7A89" d="M211.731,110.908c-1.462-4.968-2.435-5.488-7.739-5.12
			c-1.133,0.08-2.535-0.742-3.48-1.536c-0.992-0.834-1.817-2.043-2.312-3.252c-0.469-1.148-0.926-2.702-0.521-3.744
			c2.102-5.423,1.85-6.428-3.221-9.509c-1.149-0.698-2.29-1.409-3.438-2.108c-2.707-1.646-5.283-1.49-7.046,1.223
			c-1.606,2.474-3.396,3.208-6.122,2.086c-0.895-0.369-2.08-0.051-2.957-0.441c-1.08-0.479-2.428-1.158-2.881-2.119
			c-2.643-5.598-3.493-6.064-9.572-4.396c-1.079,0.296-2.172,0.546-3.254,0.832c-3.436,0.909-4.769,2.542-4.142,6.087
			c0.491,2.778-0.302,4.427-2.757,5.607c-0.982,0.473-1.679,1.594-2.675,1.973c-1.171,0.444-2.716,0.893-3.772,0.489
			c-5.255-2.01-6.333-1.75-9.281,3.057c-0.527,0.86-1.062,1.714-1.576,2.581c-2.633,4.443-2.351,5.841,1.619,9.106
			c0.809,0.664,1.952,1.64,1.934,2.451c-0.053,2.436-0.232,5.01-1.119,7.227c-0.424,1.06-2.521,1.521-3.924,2.103
			c-2.684,1.115-4.125,3.24-3.167,5.846c1.389,3.778-0.073,9.317,5.886,10.575c0.216,0.046,0.473,0.093,0.665,0.02
			c4.412-1.687,6.879,0.752,8.649,4.259c0.496,0.982,0.732,2.491,0.344,3.459c-2.465,6.125-2.289,6.887,3.248,10.306
			c0.764,0.471,1.52,0.953,2.291,1.408c4.117,2.436,5.611,2.179,8.596-1.462c3.246-3.963,9.725-2.817,11.56,2.041
			c1.516,4.012,3.361,5.017,7.494,4.045c0.98-0.23,1.94-0.547,2.916-0.799c6.296-1.632,6.585-2.172,6.295-8.478
			c-0.056-1.208,1.001-2.6,1.842-3.674c0.659-0.842,1.907-1.199,2.663-1.991c1.461-1.532,2.807-1.561,4.709-0.638
			c4.933,2.39,6.306,1.854,9.218-2.941c0.523-0.86,1.065-1.711,1.587-2.573c2.574-4.247,2.336-5.99-1.73-9.029
			c-1.684-1.259-2.338-2.487-1.625-4.493c0.332-0.933,0.53-1.972,0.516-2.959c-0.031-2.057,0.864-3.08,2.841-3.91
			c1.924-0.808,3.449-2.502,5.241-3.822c-0.308-1.993-0.615-3.986-0.922-5.979C212.512,112.083,211.917,111.539,211.731,110.908z
			 M174.629,142.218c-10.745,1.657-20.799-5.709-22.457-16.454c-1.657-10.744,5.709-20.798,16.453-22.456
			c10.745-1.658,20.8,5.708,22.457,16.454C192.74,130.506,185.373,140.56,174.629,142.218z"/>
		<path fill-rule="evenodd" clip-rule="evenodd" fill="#6C7A89" d="M149.663,167.238c-0.559-3.008-2.214-4.455-5.245-4.562
			c-3.516-0.123-6.271-4.819-4.767-8.017c1.534-3.256,0.966-5.023-2.458-7.646c-4.037-3.094-5.715-3.258-8.57-0.846
			c-2.654,2.243-8.213,0.822-9.354-2.391c-1.247-3.508-2.899-4.264-7.831-3.578c-4.359,0.605-6.056,1.9-5.957,5.346
			c0.06,2.076-0.821,2.846-2.358,3.836c-2.533,1.633-4.702,2.77-7.792,0.89c-0.963-0.586-3.318,0.532-4.704,1.401
			c-1.154,0.723-1.847,2.204-2.702,3.38c-1.698,2.337-1.462,4.56,0.421,6.696c2.794,3.169,1.625,8.023-2.281,9.537
			c-3.54,1.371-4.193,2.982-3.348,8.269c0.64,3.997,1.972,5.331,5.468,5.478c4.2,0.177,6.671,4.228,4.836,7.928
			c-1.776,3.582-1.298,4.969,2.779,8.062c3.77,2.859,5.519,2.958,8.272,0.47c3.119-2.818,7.846-1.629,9.253,2.331
			c1.321,3.712,2.899,4.491,7.694,3.792c4.721-0.688,5.867-1.829,6.159-5.934c0.067-0.954,0.155-2.504,0.681-2.727
			c2.684-1.141,4.963-4.672,8.553-1.691c0.666,0.553,1.894,0.432,3.785,0.803c1.682-2.194,4.029-4.38,5.143-7.076
			c0.57-1.383-0.766-3.857-1.777-5.512c-1.154-1.891-0.56-7.615,1.314-8.555C150.834,173.938,150.875,173.754,149.663,167.238z
			 M118.928,190.967c-9.429,1.455-18.251-5.009-19.706-14.438c-1.455-9.43,5.009-18.251,14.438-19.705
			c9.428-1.455,18.251,5.009,19.706,14.438C134.821,180.689,128.356,189.513,118.928,190.967z"/>
	</g>
</g>
</svg>
