<?xml version="1.0" encoding="utf-8"?>
<!-- Generator: Adobe Illustrator 16.0.0, SVG Export Plug-In . SVG Version: 6.00 Build 0)  -->
<!DOCTYPE svg PUBLIC "-//W3C//DTD SVG 1.1//EN" "http://www.w3.org/Graphics/SVG/1.1/DTD/svg11.dtd">
<svg version="1.1" id="Layer_1" xmlns="http://www.w3.org/2000/svg" xmlns:xlink="http://www.w3.org/1999/xlink" x="0px" y="0px"
	 width="178px" height="178px" viewBox="0 0 178 178" enable-background="new 0 0 178 178" xml:space="preserve">
<circle fill="#E2E2E2" cx="88.863" cy="88.798" r="88.018"/>
<circle fill="#333333" cx="88.606" cy="88.798" r="56.366"/>
<g>
	<path fill="#FFFFFF" d="M76.144,88.624c0,3.344-0.952,5.908-2.856,7.686c-1.905,1.779-4.654,2.67-8.25,2.67h-5.755V78.657h6.381
		c3.317,0,5.894,0.875,7.729,2.627C75.226,83.036,76.144,85.481,76.144,88.624z M71.668,88.735c0-4.365-1.929-6.547-5.783-6.547
		h-2.294v13.232h1.85C69.592,95.421,71.668,93.192,71.668,88.735z"/>
	<path fill="#FFFFFF" d="M92.797,98.979l-1.475-4.838h-7.409l-1.473,4.838h-4.644l7.174-20.406h5.267l7.201,20.406H92.797z
		 M90.295,90.528c-1.363-4.383-2.129-6.861-2.3-7.438c-0.173-0.574-0.295-1.029-0.369-1.361c-0.306,1.186-1.182,4.119-2.627,8.799
		H90.295z"/>
	<path fill="#FFFFFF" d="M118.441,88.79c0,3.365-0.834,5.949-2.5,7.758c-1.67,1.807-4.061,2.711-7.174,2.711
		s-5.504-0.904-7.174-2.711c-1.666-1.809-2.5-4.402-2.5-7.785s0.836-5.965,2.508-7.75c1.672-1.783,4.07-2.676,7.193-2.676
		s5.512,0.898,7.166,2.697C117.615,82.831,118.441,85.417,118.441,88.79z M103.609,88.79c0,2.271,0.432,3.98,1.295,5.129
		c0.861,1.15,2.148,1.725,3.863,1.725c3.438,0,5.158-2.283,5.158-6.854c0-4.578-1.711-6.867-5.131-6.867
		c-1.715,0-3.006,0.578-3.879,1.73C104.047,84.808,103.609,86.519,103.609,88.79z"/>
</g>
<g>
	
		<line fill="none" stroke="#EEA315" stroke-width="2" stroke-linecap="round" stroke-miterlimit="10" stroke-dasharray="4,6" x1="1" y1="91" x2="177" y2="91"/>
	
		<line fill="none" stroke="#EEA315" stroke-width="2" stroke-linecap="round" stroke-miterlimit="10" stroke-dasharray="4,6" x1="87" y1="177" x2="87" y2="1"/>
	
		<line fill="none" stroke="#EEA315" stroke-width="2" stroke-linecap="round" stroke-miterlimit="10" stroke-dasharray="4,6" x1="151.102" y1="151.187" x2="26.625" y2="26.71"/>
	
		<line fill="none" stroke="#EEA315" stroke-width="2" stroke-linecap="round" stroke-miterlimit="10" stroke-dasharray="4,6" x1="26.625" y1="151.187" x2="151.1" y2="26.71"/>
</g>
</svg>
