<?xml version="1.0" encoding="utf-8"?>
<!-- Generator: Adobe Illustrator 16.0.0, SVG Export Plug-In . SVG Version: 6.00 Build 0)  -->
<!DOCTYPE svg PUBLIC "-//W3C//DTD SVG 1.1//EN" "http://www.w3.org/Graphics/SVG/1.1/DTD/svg11.dtd">
<svg version="1.1" id="Layer_1" xmlns="http://www.w3.org/2000/svg" xmlns:xlink="http://www.w3.org/1999/xlink" x="0px" y="0px"
	 width="374px" height="336.917px" viewBox="0 0 374 336.917" enable-background="new 0 0 374 336.917" xml:space="preserve">
<path fill="#E2E2E2" d="M374,324.917c0,6.627-5.373,12-12,12H12c-6.627,0-12-5.373-12-12v-124c0-6.627,5.373-12,12-12h350
	c6.627,0,12,5.373,12,12V324.917z"/>
<g>
	<circle fill="#E2E2E2" cx="185.762" cy="104.312" r="104.312"/>
	<g>
		<defs>
			<path id="SVGID_1_" d="M290.074,104.311C290.074,46.703,243.368,0,185.762,0C128.151,0,81.449,46.703,81.449,104.311
				c0,57.611,46.702,104.312,104.312,104.312C243.368,208.624,290.074,161.922,290.074,104.311z"/>
		</defs>
		<clipPath id="SVGID_2_">
			<use xlink:href="#SVGID_1_"  overflow="visible"/>
		</clipPath>
		<g clip-path="url(#SVGID_2_)">
			<g>
				<path fill="#B88C5F" d="M179.593,141.388c-1.771,1.991-4.988,2.022-7.186,0.069l0,0c-2.194-1.957-2.54-5.157-0.77-7.148
					l2.567-2.884c1.771-1.993,4.992-2.023,7.186-0.067l0,0c2.195,1.956,2.542,5.155,0.771,7.144L179.593,141.388z"/>
				<path fill="#B88C5F" d="M171.729,134.738c-1.772,1.99-4.995,2.016-7.202,0.049l0,0c-2.206-1.961-2.56-5.169-0.788-7.16
					l2.566-2.886c1.772-1.993,5-2.013,7.204-0.051l0,0c2.208,1.961,2.558,5.168,0.79,7.16L171.729,134.738z"/>
				<path fill="#B88C5F" d="M163.39,128.202c-1.77,1.989-5.033,1.981-7.287-0.022l0,0c-2.252-2.004-2.642-5.244-0.869-7.235
					l2.564-2.885c1.773-1.99,5.036-1.98,7.287,0.022l0,0c2.253,2.004,2.644,5.241,0.871,7.237L163.39,128.202z"/>
				<path fill="#B88C5F" d="M156.542,120.762c-1.771,1.995-4.997,2.015-7.202,0.05l0,0c-2.205-1.962-2.562-5.167-0.788-7.16
					l2.565-2.884c1.776-1.992,4.999-2.01,7.204-0.051l0,0c2.209,1.963,2.561,5.169,0.79,7.16L156.542,120.762z"/>
			</g>
			<g>
				<path fill="#F5BB7F" d="M151.705,74.161l6.561,1.605c0,0,3.737-15.028,26.575-5.501c22.84,9.532,6.233,15.619,6.233,15.619
					l28.571,21.06l-38.699,34.008c0,0-32.036-30.944-37.925-30.944C140.935,110.008,151.705,74.161,151.705,74.161z"/>
				<path fill="#F5BB7F" d="M192.619,134.53c2.318,2.469,1.975,6.556-0.764,9.127l0,0c-2.734,2.561-6.835,2.641-9.148,0.169
					l-3.266-3.481c-2.323-2.47-1.974-6.556,0.759-9.124l0,0c2.739-2.567,6.838-2.645,9.155-0.173L192.619,134.53z"/>
				<path fill="#F5BB7F" d="M203.555,126.631c2.318,2.473,1.979,6.556-0.764,9.121l0,0c-2.737,2.569-6.836,2.645-9.149,0.174
					l-3.269-3.479c-2.316-2.471-1.973-6.556,0.764-9.125l0,0c2.738-2.566,6.838-2.639,9.155-0.173L203.555,126.631z"/>
				<path fill="#F5BB7F" d="M214.76,118.94c2.841,3.028,2.921,7.565,0.186,10.131l0,0c-2.739,2.569-7.262,2.194-10.104-0.833
					l-3.996-4.267c-2.842-3.03-2.924-7.563-0.184-10.134l0,0c2.738-2.563,7.261-2.193,10.1,0.835L214.76,118.94z"/>
				<path fill="#F5BB7F" d="M225.131,112.786c2.842,3.028,3.051,7.446,0.466,9.868l0,0c-2.582,2.418-6.976,1.928-9.817-1.101
					l-3.998-4.267c-2.842-3.027-3.048-7.445-0.466-9.868l0,0c2.582-2.421,6.979-1.925,9.817,1.102L225.131,112.786z"/>
			</g>
			<path fill="#B88C5F" d="M226.31,70.549c0,0-6.882,2.716-9.314,1.526c-2.429-1.193-2.026-9.7-12.354-9.295
				c-10.326,0.409-17.06,3.647-17.06,3.647l-20.81,29.16c0,0,11.361,10.663,24.302-9.703l34.058,26.902
				c0,0,6.039-6.869,10.092-3.529L226.31,70.549z"/>
			<polygon fill="#FFFFFF" points="296.197,96.615 234.654,110.008 225.918,69.854 287.459,56.457 			"/>
			
				<rect x="235.12" y="56.435" transform="matrix(0.9771 -0.2126 0.2126 0.9771 -11.0603 59.2367)" fill="#333333" width="69.501" height="49.209"/>
			
				<rect x="85.406" y="65.584" transform="matrix(-0.9771 -0.2126 0.2126 -0.9771 212.9693 193.6169)" fill="#FFFFFF" width="62.981" height="39.545"/>
			
				<rect x="64.492" y="57.918" transform="matrix(-0.9771 -0.2127 0.2127 -0.9771 187.4324 185.2109)" fill="#EEA315" width="78.371" height="49.214"/>
		</g>
	</g>
</g>
<g>
	<g>
		<text transform="matrix(1 0 0 1 113.582 222.3579)" fill="#333333" font-family="'OpenSans-Semibold'" font-size="20">Smart Contract</text>
	</g>
	<g>
		<rect x="23" y="241.735" fill="none" width="326" height="73"/>
		<text transform="matrix(1 0 0 1 30.8682 256.9341)"><tspan x="0" y="0" fill="#333333" font-family="'OpenSans'" font-size="20">(contratos inteligente): termos de </tspan><tspan x="-6.758" y="28" fill="#333333" font-family="'OpenSans'" font-size="20">um contrato tradicional traduzidos </tspan><tspan x="31.865" y="56" fill="#333333" font-family="'OpenSans'" font-size="20">para linguagem de código.</tspan></text>
	</g>
</g>
</svg>
