<?xml version="1.0" encoding="utf-8"?>
<!-- Generator: Adobe Illustrator 16.0.0, SVG Export Plug-In . SVG Version: 6.00 Build 0)  -->
<!DOCTYPE svg PUBLIC "-//W3C//DTD SVG 1.1//EN" "http://www.w3.org/Graphics/SVG/1.1/DTD/svg11.dtd">
<svg version="1.1" id="Layer_1" xmlns="http://www.w3.org/2000/svg" xmlns:xlink="http://www.w3.org/1999/xlink" x="0px" y="0px"
	 width="208.625px" height="208.624px" viewBox="0 0 208.625 208.624" enable-background="new 0 0 208.625 208.624"
	 xml:space="preserve">
<g>
	<circle fill="#E2E2E2" cx="104.312" cy="104.311" r="104.312"/>
	<g>
		<defs>
			<path id="SVGID_1_" d="M208.625,104.311C208.625,46.703,161.919,0,104.312,0C46.702,0,0,46.703,0,104.311
				c0,57.611,46.702,104.312,104.312,104.312C161.919,208.624,208.625,161.922,208.625,104.311z"/>
		</defs>
		<clipPath id="SVGID_2_">
			<use xlink:href="#SVGID_1_"  overflow="visible"/>
		</clipPath>
		<g clip-path="url(#SVGID_2_)">
			<g>
				<path fill="#B88C5F" d="M98.144,141.387c-1.771,1.991-4.988,2.023-7.186,0.07l0,0c-2.194-1.957-2.54-5.158-0.77-7.148
					l2.567-2.885c1.771-1.992,4.992-2.023,7.186-0.066l0,0c2.195,1.955,2.542,5.154,0.771,7.144L98.144,141.387z"/>
				<path fill="#B88C5F" d="M90.28,134.738c-1.772,1.989-4.995,2.017-7.202,0.05l0,0c-2.206-1.962-2.56-5.17-0.788-7.16l2.566-2.887
					c1.772-1.992,5-2.013,7.204-0.051l0,0c2.208,1.962,2.558,5.169,0.79,7.16L90.28,134.738z"/>
				<path fill="#B88C5F" d="M81.941,128.202c-1.77,1.989-5.033,1.981-7.287-0.022l0,0c-2.252-2.004-2.642-5.244-0.869-7.235
					l2.564-2.885c1.773-1.99,5.036-1.98,7.287,0.021l0,0c2.253,2.004,2.644,5.241,0.871,7.237L81.941,128.202z"/>
				<path fill="#B88C5F" d="M75.093,120.762c-1.771,1.994-4.997,2.016-7.202,0.05l0,0c-2.205-1.962-2.562-5.167-0.788-7.16
					l2.565-2.884c1.776-1.992,4.999-2.011,7.204-0.051l0,0c2.209,1.963,2.561,5.169,0.79,7.159L75.093,120.762z"/>
			</g>
			<g>
				<path fill="#F5BB7F" d="M70.255,74.161l6.561,1.605c0,0,3.737-15.028,26.575-5.501c22.84,9.532,6.233,15.619,6.233,15.619
					l28.571,21.06l-38.699,34.008c0,0-32.036-30.943-37.925-30.943C59.485,110.008,70.255,74.161,70.255,74.161z"/>
				<path fill="#F5BB7F" d="M111.17,134.53c2.318,2.47,1.975,6.557-0.764,9.127l0,0c-2.734,2.562-6.835,2.641-9.148,0.17
					l-3.266-3.481c-2.323-2.47-1.974-6.556,0.759-9.124l0,0c2.739-2.566,6.839-2.645,9.155-0.172L111.17,134.53z"/>
				<path fill="#F5BB7F" d="M122.105,126.631c2.318,2.473,1.979,6.556-0.764,9.121l0,0c-2.737,2.568-6.836,2.645-9.149,0.174
					l-3.269-3.479c-2.316-2.472-1.973-6.557,0.764-9.126l0,0c2.738-2.566,6.838-2.639,9.155-0.173L122.105,126.631z"/>
				<path fill="#F5BB7F" d="M133.311,118.94c2.841,3.028,2.921,7.564,0.186,10.131l0,0c-2.739,2.569-7.262,2.193-10.104-0.833
					l-3.996-4.267c-2.842-3.03-2.924-7.563-0.184-10.134l0,0c2.738-2.563,7.261-2.193,10.1,0.835L133.311,118.94z"/>
				<path fill="#F5BB7F" d="M143.682,112.786c2.842,3.028,3.051,7.446,0.466,9.868l0,0c-2.582,2.419-6.976,1.928-9.817-1.101
					l-3.998-4.268c-2.842-3.027-3.048-7.445-0.466-9.867l0,0c2.582-2.421,6.979-1.926,9.817,1.102L143.682,112.786z"/>
			</g>
			<path fill="#B88C5F" d="M144.86,70.549c0,0-6.882,2.716-9.314,1.526c-2.429-1.193-2.026-9.7-12.354-9.295
				c-10.326,0.409-17.06,3.647-17.06,3.647l-20.81,29.16c0,0,11.361,10.663,24.302-9.703l34.058,26.902
				c0,0,6.039-6.868,10.092-3.528L144.86,70.549z"/>
			<polygon fill="#FFFFFF" points="214.748,96.615 153.205,110.008 144.469,69.854 206.01,56.457 			"/>
			
				<rect x="153.671" y="56.435" transform="matrix(0.9771 -0.2126 0.2126 0.9771 -12.9232 41.9192)" fill="#333333" width="69.502" height="49.209"/>
			
				<rect x="3.957" y="65.584" transform="matrix(-0.9771 -0.2126 0.2126 -0.9771 51.9335 176.2978)" fill="#FFFFFF" width="62.981" height="39.545"/>
			
				<rect x="-16.957" y="57.918" transform="matrix(-0.9771 -0.2127 0.2127 -0.9771 26.3966 167.8892)" fill="#EEA315" width="78.371" height="49.214"/>
		</g>
	</g>
</g>
</svg>
