<?xml version="1.0" encoding="utf-8"?>
<!-- Generator: Adobe Illustrator 16.0.0, SVG Export Plug-In . SVG Version: 6.00 Build 0)  -->
<!DOCTYPE svg PUBLIC "-//W3C//DTD SVG 1.1//EN" "http://www.w3.org/Graphics/SVG/1.1/DTD/svg11.dtd">
<svg version="1.1" id="Layer_1" xmlns="http://www.w3.org/2000/svg" xmlns:xlink="http://www.w3.org/1999/xlink" x="0px" y="0px"
	 width="252.753px" height="249.34px" viewBox="0 0 252.753 249.34" enable-background="new 0 0 252.753 249.34"
	 xml:space="preserve">
<g>
	<g>
		<circle fill="#E2E2E2" cx="216.083" cy="36.671" r="36.67"/>
		<g>
			<path fill="#333333" d="M205.395,35.587c0,2.854-0.812,5.042-2.437,6.559c-1.627,1.52-3.973,2.279-7.042,2.279h-4.91V27.082
				h5.444c2.833,0,5.03,0.745,6.597,2.24C204.612,30.819,205.395,32.905,205.395,35.587z M201.576,35.682
				c0-3.726-1.646-5.587-4.937-5.587h-1.957v11.293h1.578C199.803,41.388,201.576,39.486,201.576,35.682z"/>
			<path fill="#333333" d="M219.606,44.425l-1.258-4.129h-6.323l-1.257,4.129h-3.962l6.122-17.416h4.495l6.144,17.416H219.606z
				 M217.471,37.212c-1.163-3.74-1.816-5.855-1.962-6.348c-0.147-0.488-0.253-0.879-0.315-1.162
				c-0.262,1.013-1.008,3.516-2.242,7.51H217.471z"/>
			<path fill="#333333" d="M241.492,35.729c0,2.871-0.711,5.076-2.135,6.62c-1.424,1.541-3.465,2.313-6.12,2.313
				c-2.657,0-4.699-0.772-6.122-2.313c-1.424-1.544-2.135-3.757-2.135-6.644c0-2.888,0.713-5.092,2.141-6.614
				s3.473-2.284,6.139-2.284c2.665,0,4.704,0.768,6.116,2.303C240.787,30.644,241.492,32.851,241.492,35.729z M228.834,35.729
				c0,1.938,0.369,3.396,1.105,4.377c0.734,0.98,1.833,1.471,3.298,1.471c2.934,0,4.401-1.947,4.401-5.848
				c0-3.908-1.46-5.861-4.379-5.861c-1.463,0-2.565,0.493-3.31,1.477C229.207,32.33,228.834,33.79,228.834,35.729z"/>
		</g>
	</g>
	<g>
		<circle fill="#E2E2E2" cx="215.083" cy="124.671" r="36.67"/>
		<g>
			<path fill="#333333" d="M204.395,123.587c0,2.854-0.812,5.042-2.437,6.559c-1.627,1.52-3.973,2.279-7.042,2.279h-4.91v-17.343
				h5.444c2.833,0,5.03,0.745,6.597,2.24C203.612,118.819,204.395,120.905,204.395,123.587z M200.576,123.682
				c0-3.726-1.646-5.587-4.937-5.587h-1.957v11.293h1.578C198.803,129.388,200.576,127.486,200.576,123.682z"/>
			<path fill="#333333" d="M218.606,132.425l-1.258-4.129h-6.323l-1.257,4.129h-3.962l6.122-17.416h4.495l6.144,17.416H218.606z
				 M216.471,125.212c-1.163-3.74-1.816-5.855-1.962-6.348c-0.147-0.488-0.253-0.879-0.315-1.162
				c-0.262,1.013-1.008,3.516-2.242,7.51H216.471z"/>
			<path fill="#333333" d="M240.492,123.729c0,2.871-0.711,5.076-2.135,6.62c-1.424,1.541-3.465,2.313-6.12,2.313
				c-2.657,0-4.699-0.772-6.122-2.313c-1.424-1.544-2.135-3.757-2.135-6.644c0-2.888,0.713-5.092,2.141-6.614
				s3.473-2.284,6.139-2.284c2.665,0,4.704,0.768,6.116,2.303C239.787,118.644,240.492,120.851,240.492,123.729z M227.834,123.729
				c0,1.938,0.369,3.396,1.105,4.377c0.734,0.98,1.833,1.471,3.298,1.471c2.934,0,4.401-1.947,4.401-5.848
				c0-3.908-1.46-5.861-4.379-5.861c-1.463,0-2.565,0.493-3.31,1.477C228.207,120.33,227.834,121.79,227.834,123.729z"/>
		</g>
	</g>
	<g>
		<circle fill="#E2E2E2" cx="214.083" cy="212.671" r="36.67"/>
		<g>
			<path fill="#333333" d="M203.395,211.587c0,2.854-0.812,5.042-2.437,6.559c-1.627,1.52-3.973,2.279-7.042,2.279h-4.91v-17.343
				h5.444c2.833,0,5.03,0.745,6.597,2.24C202.612,206.819,203.395,208.905,203.395,211.587z M199.576,211.682
				c0-3.726-1.646-5.587-4.937-5.587h-1.957v11.293h1.578C197.803,217.388,199.576,215.486,199.576,211.682z"/>
			<path fill="#333333" d="M217.606,220.425l-1.258-4.129h-6.323l-1.257,4.129h-3.962l6.122-17.416h4.495l6.144,17.416H217.606z
				 M215.471,213.212c-1.163-3.74-1.816-5.855-1.962-6.348c-0.147-0.488-0.253-0.879-0.315-1.162
				c-0.262,1.013-1.008,3.516-2.242,7.51H215.471z"/>
			<path fill="#333333" d="M239.492,211.729c0,2.871-0.711,5.076-2.135,6.62c-1.424,1.541-3.465,2.313-6.12,2.313
				c-2.657,0-4.699-0.772-6.122-2.313c-1.424-1.544-2.135-3.757-2.135-6.644c0-2.888,0.713-5.092,2.141-6.614
				s3.473-2.284,6.139-2.284c2.665,0,4.704,0.768,6.116,2.303C238.787,206.644,239.492,208.851,239.492,211.729z M226.834,211.729
				c0,1.938,0.369,3.396,1.105,4.377c0.734,0.98,1.833,1.471,3.298,1.471c2.934,0,4.401-1.947,4.401-5.848
				c0-3.908-1.46-5.861-4.379-5.861c-1.463,0-2.565,0.493-3.31,1.477C227.207,208.33,226.834,209.79,226.834,211.729z"/>
		</g>
	</g>
</g>
<g>
	<path fill="#528C45" d="M168.901,212.696c9.963-0.002,18.096-8.019,18.097-17.98c0-4.98-1.998-9.461-5.228-12.69l-25.5,25.501
		C159.5,210.756,163.92,212.696,168.901,212.696z"/>
	<path fill="#528C45" d="M181.771,182.025c-0.808-0.808-0.809-0.806-0.815-0.8l-25.484,25.485c-0.007,0.007-0.007,0.008,0.8,0.815
		L181.771,182.025z"/>
	<path fill="#528C45" d="M180.955,181.226c-3.352-3.108-7.48-4.758-12.205-4.758c-9.963,0-18.055,8.059-18.055,18.021
		c0,4.723,1.667,8.869,4.775,12.222L180.955,181.226z"/>
	<circle fill="#63B751" cx="168.782" cy="194.539" r="16.274"/>
	<text transform="matrix(1 0 0 1 162.5195 202.3242)" fill="#FFFFFF" font-family="'OpenSans'" font-size="22.8386">$</text>
	<path opacity="0.2" fill="#FFFFFF" d="M168.658,176.318c-9.963,0-18.096,8.018-18.097,17.979c0,4.98,1.998,9.461,5.228,12.69
		l25.499-25.499C178.059,178.259,173.64,176.318,168.658,176.318z"/>
</g>
<g>
	<path fill="#528C45" d="M168.901,70.696c9.963-0.002,18.096-8.019,18.097-17.98c0-4.98-1.998-9.461-5.228-12.69l-25.5,25.501
		C159.5,68.756,163.92,70.696,168.901,70.696z"/>
	<path fill="#528C45" d="M181.771,40.025c-0.808-0.808-0.809-0.806-0.815-0.8l-25.484,25.485c-0.007,0.007-0.007,0.008,0.8,0.815
		L181.771,40.025z"/>
	<path fill="#528C45" d="M180.955,39.226c-3.352-3.108-7.48-4.758-12.205-4.758c-9.963,0-18.055,8.059-18.055,18.021
		c0,4.723,1.667,8.869,4.775,12.222L180.955,39.226z"/>
	<circle fill="#63B751" cx="168.782" cy="52.539" r="16.274"/>
	<text transform="matrix(1 0 0 1 162.5195 60.3242)" fill="#FFFFFF" font-family="'OpenSans'" font-size="22.8386">$</text>
	<path opacity="0.2" fill="#FFFFFF" d="M168.658,34.318c-9.963,0-18.096,8.018-18.097,17.979c0,4.98,1.998,9.461,5.228,12.69
		l25.499-25.499C178.059,36.259,173.64,34.318,168.658,34.318z"/>
</g>
<g>
	
		<line fill="none" stroke="#EEA315" stroke-width="3" stroke-linecap="round" stroke-miterlimit="10" x1="97.686" y1="95.981" x2="149.756" y2="66.169"/>
	<polygon fill="#EEA315" points="146.128,57.249 155.614,73.822 160.252,60.163 	"/>
</g>
<g>
	
		<line fill="none" stroke="#EEA315" stroke-width="3" stroke-linecap="round" stroke-miterlimit="10" x1="95.686" y1="152.372" x2="147.756" y2="182.185"/>
	<polygon fill="#EEA315" points="144.128,191.104 153.614,174.531 158.252,188.19 	"/>
</g>
<g>
	<path fill="#528C45" d="M166.901,142.696c9.963-0.002,18.096-8.019,18.097-17.98c0-4.98-1.998-9.461-5.228-12.69l-25.5,25.501
		C157.5,140.756,161.92,142.696,166.901,142.696z"/>
	<path fill="#528C45" d="M179.771,112.025c-0.808-0.808-0.809-0.806-0.815-0.8l-25.484,25.485c-0.007,0.007-0.007,0.008,0.8,0.815
		L179.771,112.025z"/>
	<path fill="#528C45" d="M178.955,111.226c-3.352-3.108-7.48-4.758-12.205-4.758c-9.963,0-18.055,8.059-18.055,18.021
		c0,4.723,1.667,8.869,4.775,12.222L178.955,111.226z"/>
	<circle fill="#63B751" cx="166.782" cy="124.539" r="16.274"/>
	<text transform="matrix(1 0 0 1 160.5195 132.3242)" fill="#FFFFFF" font-family="'OpenSans'" font-size="22.8386">$</text>
	<path opacity="0.2" fill="#FFFFFF" d="M166.658,106.318c-9.963,0-18.096,8.018-18.097,17.979c0,4.98,1.998,9.461,5.228,12.69
		l25.499-25.499C176.059,108.259,171.64,106.318,166.658,106.318z"/>
</g>
<g>
	
		<line fill="none" stroke="#EEA315" stroke-width="3" stroke-linecap="round" stroke-miterlimit="10" x1="83.935" y1="124.468" x2="143.935" y2="124.468"/>
	<polygon fill="#EEA315" points="144.763,115.033 144.761,134.13 155.573,124.581 	"/>
</g>
<g>
	<circle fill="#333333" cx="57.083" cy="124.671" r="57.083"/>
	<text transform="matrix(1 0 0 1 30.9648 117.3389)"><tspan x="0" y="0" fill="#FFFFFF" font-family="'OpenSans-Bold'" font-size="28.5876">The</tspan><tspan x="-5.702" y="30.875" fill="#FFFFFF" font-family="'OpenSans-Bold'" font-size="28.5876">DAO</tspan></text>
</g>
</svg>
