<?xml version="1.0" encoding="utf-8"?>
<!-- Generator: Adobe Illustrator 16.0.0, SVG Export Plug-In . SVG Version: 6.00 Build 0)  -->
<!DOCTYPE svg PUBLIC "-//W3C//DTD SVG 1.1//EN" "http://www.w3.org/Graphics/SVG/1.1/DTD/svg11.dtd">
<svg version="1.1" id="Layer_1" xmlns="http://www.w3.org/2000/svg" xmlns:xlink="http://www.w3.org/1999/xlink" x="0px" y="0px"
	 width="252.753px" height="249.34px" viewBox="0 0 252.753 249.34" enable-background="new 0 0 252.753 249.34"
	 xml:space="preserve">
<g>
	<g>
		<circle fill="#E2E2E2" cx="216.083" cy="36.671" r="36.67"/>
		<g>
			<path fill="#333333" d="M205.395,35.587c0,2.854-0.812,5.042-2.437,6.559c-1.627,1.52-3.973,2.279-7.042,2.279h-4.91V27.082
				h5.444c2.833,0,5.03,0.745,6.597,2.24C204.612,30.819,205.395,32.905,205.395,35.587z M201.576,35.682
				c0-3.726-1.646-5.587-4.937-5.587h-1.957v11.293h1.578C199.803,41.388,201.576,39.486,201.576,35.682z"/>
			<path fill="#333333" d="M219.606,44.425l-1.258-4.129h-6.323l-1.257,4.129h-3.962l6.122-17.416h4.495l6.144,17.416H219.606z
				 M217.471,37.212c-1.163-3.74-1.816-5.855-1.962-6.348c-0.147-0.488-0.253-0.879-0.315-1.162
				c-0.262,1.013-1.008,3.516-2.242,7.51H217.471z"/>
			<path fill="#333333" d="M241.492,35.729c0,2.871-0.711,5.076-2.135,6.62c-1.424,1.541-3.465,2.313-6.12,2.313
				c-2.657,0-4.699-0.772-6.122-2.313c-1.424-1.544-2.135-3.757-2.135-6.644c0-2.888,0.713-5.092,2.141-6.614
				s3.473-2.284,6.139-2.284c2.665,0,4.704,0.768,6.116,2.303C240.787,30.644,241.492,32.851,241.492,35.729z M228.834,35.729
				c0,1.938,0.369,3.396,1.105,4.377c0.734,0.98,1.833,1.471,3.298,1.471c2.934,0,4.401-1.947,4.401-5.848
				c0-3.908-1.46-5.861-4.379-5.861c-1.463,0-2.565,0.493-3.31,1.477C229.207,32.33,228.834,33.79,228.834,35.729z"/>
		</g>
	</g>
	<g>
		<circle fill="#E2E2E2" cx="215.083" cy="124.671" r="36.67"/>
		<g>
			<path fill="#333333" d="M204.395,123.587c0,2.854-0.812,5.042-2.437,6.559c-1.627,1.52-3.973,2.279-7.042,2.279h-4.91v-17.343
				h5.444c2.833,0,5.03,0.745,6.597,2.24C203.612,118.819,204.395,120.905,204.395,123.587z M200.576,123.682
				c0-3.726-1.646-5.587-4.937-5.587h-1.957v11.293h1.578C198.803,129.388,200.576,127.486,200.576,123.682z"/>
			<path fill="#333333" d="M218.606,132.425l-1.258-4.129h-6.323l-1.257,4.129h-3.962l6.122-17.416h4.495l6.144,17.416H218.606z
				 M216.471,125.212c-1.163-3.74-1.816-5.855-1.962-6.348c-0.147-0.488-0.253-0.879-0.315-1.162
				c-0.262,1.013-1.008,3.516-2.242,7.51H216.471z"/>
			<path fill="#333333" d="M240.492,123.729c0,2.871-0.711,5.076-2.135,6.62c-1.424,1.541-3.465,2.313-6.12,2.313
				c-2.657,0-4.699-0.772-6.122-2.313c-1.424-1.544-2.135-3.757-2.135-6.644c0-2.888,0.713-5.092,2.141-6.614
				s3.473-2.284,6.139-2.284c2.665,0,4.704,0.768,6.116,2.303C239.787,118.644,240.492,120.851,240.492,123.729z M227.834,123.729
				c0,1.938,0.369,3.396,1.105,4.377c0.734,0.98,1.833,1.471,3.298,1.471c2.934,0,4.401-1.947,4.401-5.848
				c0-3.908-1.46-5.861-4.379-5.861c-1.463,0-2.565,0.493-3.31,1.477C228.207,120.33,227.834,121.79,227.834,123.729z"/>
		</g>
	</g>
	<g>
		<circle fill="#E2E2E2" cx="214.083" cy="212.671" r="36.67"/>
		<g>
			<path fill="#333333" d="M203.395,211.587c0,2.854-0.812,5.042-2.437,6.559c-1.627,1.52-3.973,2.279-7.042,2.279h-4.91v-17.343
				h5.444c2.833,0,5.03,0.745,6.597,2.24C202.612,206.819,203.395,208.905,203.395,211.587z M199.576,211.682
				c0-3.726-1.646-5.587-4.937-5.587h-1.957v11.293h1.578C197.803,217.388,199.576,215.486,199.576,211.682z"/>
			<path fill="#333333" d="M217.606,220.425l-1.258-4.129h-6.323l-1.257,4.129h-3.962l6.122-17.416h4.495l6.144,17.416H217.606z
				 M215.471,213.212c-1.163-3.74-1.816-5.855-1.962-6.348c-0.147-0.488-0.253-0.879-0.315-1.162
				c-0.262,1.013-1.008,3.516-2.242,7.51H215.471z"/>
			<path fill="#333333" d="M239.492,211.729c0,2.871-0.711,5.076-2.135,6.62c-1.424,1.541-3.465,2.313-6.12,2.313
				c-2.657,0-4.699-0.772-6.122-2.313c-1.424-1.544-2.135-3.757-2.135-6.644c0-2.888,0.713-5.092,2.141-6.614
				s3.473-2.284,6.139-2.284c2.665,0,4.704,0.768,6.116,2.303C238.787,206.644,239.492,208.851,239.492,211.729z M226.834,211.729
				c0,1.938,0.369,3.396,1.105,4.377c0.734,0.98,1.833,1.471,3.298,1.471c2.934,0,4.401-1.947,4.401-5.848
				c0-3.908-1.46-5.861-4.379-5.861c-1.463,0-2.565,0.493-3.31,1.477C227.207,208.33,226.834,209.79,226.834,211.729z"/>
		</g>
	</g>
</g>
<g>
	<path fill="#528C45" d="M168.901,212.696c9.963-0.002,18.096-8.019,18.097-17.98c0-4.98-1.998-9.461-5.228-12.69l-25.5,25.501
		C159.5,210.756,163.92,212.696,168.901,212.696z"/>
	<path fill="#528C45" d="M181.771,182.025c-0.808-0.808-0.809-0.806-0.815-0.8l-25.484,25.485c-0.007,0.007-0.007,0.008,0.8,0.815
		L181.771,182.025z"/>
	<path fill="#528C45" d="M180.955,181.226c-3.352-3.108-7.48-4.758-12.205-4.758c-9.963,0-18.055,8.059-18.055,18.021
		c0,4.723,1.667,8.869,4.775,12.222L180.955,181.226z"/>
	<circle fill="#63B751" cx="168.782" cy="194.539" r="16.274"/>
	<text transform="matrix(1 0 0 1 162.5195 202.3242)" fill="#FFFFFF" font-family="'OpenSans'" font-size="22.8386">$</text>
	<path opacity="0.2" fill="#FFFFFF" d="M168.658,176.318c-9.963,0-18.096,8.018-18.097,17.979c0,4.98,1.998,9.461,5.228,12.69
		l25.499-25.499C178.059,178.259,173.64,176.318,168.658,176.318z"/>
</g>
<g>
	<path fill="#528C45" d="M168.901,70.696c9.963-0.002,18.096-8.019,18.097-17.98c0-4.98-1.998-9.461-5.228-12.69l-25.5,25.501
		C159.5,68.756,163.92,70.696,168.901,70.696z"/>
	<path fill="#528C45" d="M181.771,40.025c-0.808-0.808-0.809-0.806-0.815-0.8l-25.484,25.485c-0.007,0.007-0.007,0.008,0.8,0.815
		L181.771,40.025z"/>
	<path fill="#528C45" d="M180.955,39.226c-3.352-3.108-7.48-4.758-12.205-4.758c-9.963,0-18.055,8.059-18.055,18.021
		c0,4.723,1.667,8.869,4.775,12.222L180.955,39.226z"/>
	<circle fill="#63B751" cx="168.782" cy="52.539" r="16.274"/>
	<text transform="matrix(1 0 0 1 162.5195 60.3242)" fill="#FFFFFF" font-family="'OpenSans'" font-size="22.8386">$</text>
	<path opacity="0.2" fill="#FFFFFF" d="M168.658,34.318c-9.963,0-18.096,8.018-18.097,17.979c0,4.98,1.998,9.461,5.228,12.69
		l25.499-25.499C178.059,36.259,173.64,34.318,168.658,34.318z"/>
</g>
<g>
	
		<line fill="none" stroke="#EEA315" stroke-width="3" stroke-linecap="round" stroke-miterlimit="10" x1="97.686" y1="95.981" x2="149.756" y2="66.169"/>
	<polygon fill="#EEA315" points="146.128,57.249 155.614,73.822 160.252,60.163 	"/>
</g>
<g>
	
		<line fill="none" stroke="#EEA315" stroke-width="3" stroke-linecap="round" stroke-miterlimit="10" x1="95.686" y1="152.372" x2="147.756" y2="182.185"/>
	<polygon fill="#EEA315" points="144.128,191.104 153.614,174.531 158.252,188.19 	"/>
</g>
<g>
	<path fill="#528C45" d="M166.901,142.696c9.963-0.002,18.096-8.019,18.097-17.98c0-4.98-1.998-9.461-5.228-12.69l-25.5,25.501
		C157.5,140.756,161.92,142.696,166.901,142.696z"/>
	<path fill="#528C45" d="M179.771,112.025c-0.808-0.808-0.809-0.806-0.815-0.8l-25.484,25.485c-0.007,0.007-0.007,0.008,0.8,0.815
		L179.771,112.025z"/>
	<path fill="#528C45" d="M178.955,111.226c-3.352-3.108-7.48-4.758-12.205-4.758c-9.963,0-18.055,8.059-18.055,18.021
		c0,4.723,1.667,8.869,4.775,12.222L178.955,111.226z"/>
	<circle fill="#63B751" cx="166.782" cy="124.539" r="16.274"/>
	<text transform="matrix(1 0 0 1 160.5195 132.3242)" fill="#FFFFFF" font-family="'OpenSans'" font-size="22.8386">$</text>
	<path opacity="0.2" fill="#FFFFFF" d="M166.658,106.318c-9.963,0-18.096,8.018-18.097,17.979c0,4.98,1.998,9.461,5.228,12.69
		l25.499-25.499C176.059,108.259,171.64,106.318,166.658,106.318z"/>
</g>
<g>
	
		<line fill="none" stroke="#EEA315" stroke-width="3" stroke-linecap="round" stroke-miterlimit="10" x1="83.648" y1="124.468" x2="143.648" y2="124.468"/>
	<polygon fill="#EEA315" points="144.763,115.033 144.761,134.13 155.573,124.581 	"/>
</g>
<circle fill="#333333" cx="57.083" cy="124.671" r="57.083"/>
<g>
	<path fill="#FFFFFF" d="M41.406,117.339h-4.327v-16.807h-5.542v-3.602h15.41v3.602h-5.541V117.339z"/>
	<path fill="#FFFFFF" d="M64.158,117.339h-4.257v-9.115c0-2.252-0.838-3.378-2.513-3.378c-1.191,0-2.052,0.405-2.583,1.215
		c-0.53,0.81-0.795,2.121-0.795,3.936v7.343h-4.258v-21.72h4.258v4.425c0,0.345-0.033,1.154-0.098,2.429l-0.099,1.257h0.224
		c0.949-1.526,2.457-2.29,4.522-2.29c1.834,0,3.225,0.494,4.174,1.48s1.424,2.4,1.424,4.243V117.339z"/>
	<path fill="#FFFFFF" d="M75.605,117.618c-2.513,0-4.477-0.693-5.891-2.08c-1.415-1.387-2.122-3.35-2.122-5.891
		c0-2.615,0.653-4.637,1.961-6.065c1.308-1.428,3.115-2.143,5.423-2.143c2.206,0,3.923,0.629,5.151,1.885s1.843,2.992,1.843,5.207
		v2.065H71.906c0.046,1.21,0.404,2.154,1.074,2.834c0.671,0.679,1.61,1.019,2.82,1.019c0.939,0,1.828-0.098,2.666-0.293
		s1.712-0.507,2.624-0.936v3.295c-0.744,0.372-1.54,0.648-2.387,0.83S76.824,117.618,75.605,117.618z M75.005,104.469
		c-0.902,0-1.61,0.286-2.122,0.858s-0.805,1.385-0.879,2.436h5.975c-0.02-1.051-0.294-1.863-0.824-2.436
		S75.907,104.469,75.005,104.469z"/>
	<path fill="#FFFFFF" d="M44.763,137.814c0,3.359-0.956,5.933-2.868,7.72c-1.912,1.786-4.674,2.68-8.284,2.68h-5.779v-20.408h6.407
		c3.331,0,5.918,0.88,7.761,2.639S44.763,134.66,44.763,137.814z M40.269,137.926c0-4.383-1.936-6.574-5.807-6.574h-2.304v13.289
		h1.856C38.184,144.641,40.269,142.402,40.269,137.926z"/>
	<path fill="#FFFFFF" d="M61.485,148.214l-1.479-4.857h-7.44l-1.479,4.857h-4.662l7.203-20.491h5.29l7.23,20.491H61.485z
		 M58.973,139.727c-1.368-4.401-2.138-6.891-2.311-7.468c-0.172-0.577-0.295-1.033-0.369-1.368
		c-0.308,1.191-1.187,4.137-2.639,8.836H58.973z"/>
	<path fill="#FFFFFF" d="M87.239,137.982c0,3.378-0.838,5.974-2.513,7.789c-1.675,1.814-4.076,2.722-7.203,2.722
		c-3.126,0-5.527-0.907-7.202-2.722c-1.675-1.815-2.513-4.421-2.513-7.817s0.84-5.99,2.52-7.782c1.68-1.791,4.088-2.687,7.224-2.687
		s5.535,0.902,7.195,2.708C86.408,131.999,87.239,134.595,87.239,137.982z M72.345,137.982c0,2.279,0.434,3.997,1.299,5.15
		c0.865,1.154,2.158,1.73,3.88,1.73c3.453,0,5.179-2.293,5.179-6.881c0-4.598-1.717-6.896-5.15-6.896
		c-1.722,0-3.02,0.579-3.895,1.737S72.345,135.702,72.345,137.982z"/>
</g>
</svg>
