<?xml version="1.0" encoding="utf-8"?>
<!-- Generator: Adobe Illustrator 16.0.0, SVG Export Plug-In . SVG Version: 6.00 Build 0)  -->
<!DOCTYPE svg PUBLIC "-//W3C//DTD SVG 1.1//EN" "http://www.w3.org/Graphics/SVG/1.1/DTD/svg11.dtd">
<svg version="1.1" id="Layer_1" xmlns="http://www.w3.org/2000/svg" xmlns:xlink="http://www.w3.org/1999/xlink" x="0px" y="0px"
	 width="1280px" height="135.342px" viewBox="0 0 1280 135.342" enable-background="new 0 0 1280 135.342" xml:space="preserve">
<rect fill="#131313" width="1280" height="135"/>
<g>
	<g>
		<polygon fill="#333333" points="55,1.309 13.252,70.832 55,51.78 		"/>
		<polygon fill="#131313" points="55,1.309 96.747,70.832 55,51.78 		"/>
		<polygon fill="#070707" points="55,51.78 96.747,70.832 55,95.399 		"/>
		<polygon fill="#141414" points="55,51.78 13.252,70.832 55,95.399 		"/>
		<polygon fill="#333333" points="13.451,76.515 55.207,135.342 55.199,100.999 		"/>
		<polygon fill="#131313" points="96.988,76.515 55.232,135.342 55.24,100.999 		"/>
	</g>
	<g>
		<polygon fill="#333333" points="139,1.309 97.252,70.832 139,51.78 		"/>
		<polygon fill="#131313" points="139,1.309 180.747,70.832 139,51.78 		"/>
		<polygon fill="#070707" points="139,51.78 180.747,70.832 139,95.399 		"/>
		<polygon fill="#141414" points="139,51.78 97.252,70.832 139,95.399 		"/>
		<polygon fill="#333333" points="97.451,76.515 139.207,135.342 139.199,100.999 		"/>
		<polygon fill="#131313" points="180.988,76.515 139.232,135.342 139.24,100.999 		"/>
	</g>
	<g>
		<polygon fill="#333333" points="222,1.309 180.252,70.832 222,51.78 		"/>
		<polygon fill="#131313" points="222,1.309 263.747,70.832 222,51.78 		"/>
		<polygon fill="#070707" points="222,51.78 263.747,70.832 222,95.399 		"/>
		<polygon fill="#141414" points="222,51.78 180.252,70.832 222,95.399 		"/>
		<polygon fill="#333333" points="180.451,76.515 222.207,135.342 222.199,100.999 		"/>
		<polygon fill="#131313" points="263.988,76.515 222.232,135.342 222.24,100.999 		"/>
	</g>
	<g>
		<polygon fill="#333333" points="306,0.309 264.252,69.832 306,50.78 		"/>
		<polygon fill="#131313" points="306,0.309 347.747,69.832 306,50.78 		"/>
		<polygon fill="#070707" points="306,50.78 347.747,69.832 306,94.399 		"/>
		<polygon fill="#141414" points="306,50.78 264.252,69.832 306,94.399 		"/>
		<polygon fill="#333333" points="264.451,75.515 306.207,134.342 306.199,99.999 		"/>
		<polygon fill="#131313" points="347.988,75.515 306.232,134.342 306.24,99.999 		"/>
	</g>
	<g>
		<polygon fill="#333333" points="391,1.309 349.252,70.832 391,51.78 		"/>
		<polygon fill="#131313" points="391,1.309 432.747,70.832 391,51.78 		"/>
		<polygon fill="#070707" points="391,51.78 432.747,70.832 391,95.399 		"/>
		<polygon fill="#141414" points="391,51.78 349.252,70.832 391,95.399 		"/>
		<polygon fill="#333333" points="349.451,76.515 391.207,135.342 391.199,100.999 		"/>
		<polygon fill="#131313" points="432.988,76.515 391.232,135.342 391.24,100.999 		"/>
	</g>
	<g>
		<polygon fill="#333333" points="475,1.309 433.252,70.832 475,51.78 		"/>
		<polygon fill="#131313" points="475,1.309 516.747,70.832 475,51.78 		"/>
		<polygon fill="#070707" points="475,51.78 516.747,70.832 475,95.399 		"/>
		<polygon fill="#141414" points="475,51.78 433.252,70.832 475,95.399 		"/>
		<polygon fill="#333333" points="433.451,76.515 475.207,135.342 475.199,100.999 		"/>
		<polygon fill="#131313" points="516.988,76.515 475.232,135.342 475.24,100.999 		"/>
	</g>
	<g>
		<polygon fill="#333333" points="558,1.309 516.252,70.832 558,51.78 		"/>
		<polygon fill="#131313" points="558,1.309 599.747,70.832 558,51.78 		"/>
		<polygon fill="#070707" points="558,51.78 599.747,70.832 558,95.399 		"/>
		<polygon fill="#141414" points="558,51.78 516.252,70.832 558,95.399 		"/>
		<polygon fill="#333333" points="516.451,76.515 558.207,135.342 558.199,100.999 		"/>
		<polygon fill="#131313" points="599.988,76.515 558.232,135.342 558.24,100.999 		"/>
	</g>
	<g>
		<polygon fill="#333333" points="642,0.309 600.252,69.832 642,50.78 		"/>
		<polygon fill="#131313" points="642,0.309 683.748,69.832 642,50.78 		"/>
		<polygon fill="#070707" points="642,50.78 683.748,69.832 642,94.399 		"/>
		<polygon fill="#141414" points="642,50.78 600.252,69.832 642,94.399 		"/>
		<polygon fill="#333333" points="600.451,75.515 642.207,134.342 642.199,99.999 		"/>
		<polygon fill="#131313" points="683.988,75.515 642.232,134.342 642.24,99.999 		"/>
	</g>
	<g>
		<polygon fill="#333333" points="724,1.309 682.252,70.832 724,51.78 		"/>
		<polygon fill="#131313" points="724,1.309 765.748,70.832 724,51.78 		"/>
		<polygon fill="#070707" points="724,51.78 765.748,70.832 724,95.399 		"/>
		<polygon fill="#141414" points="724,51.78 682.252,70.832 724,95.399 		"/>
		<polygon fill="#333333" points="682.451,76.515 724.207,135.342 724.199,100.999 		"/>
		<polygon fill="#131313" points="765.988,76.515 724.232,135.342 724.24,100.999 		"/>
	</g>
	<g>
		<polygon fill="#333333" points="808,1.309 766.252,70.832 808,51.78 		"/>
		<polygon fill="#131313" points="808,1.309 849.748,70.832 808,51.78 		"/>
		<polygon fill="#070707" points="808,51.78 849.748,70.832 808,95.399 		"/>
		<polygon fill="#141414" points="808,51.78 766.252,70.832 808,95.399 		"/>
		<polygon fill="#333333" points="766.451,76.515 808.207,135.342 808.199,100.999 		"/>
		<polygon fill="#131313" points="849.988,76.515 808.232,135.342 808.24,100.999 		"/>
	</g>
	<g>
		<polygon fill="#333333" points="891,1.309 849.252,70.832 891,51.78 		"/>
		<polygon fill="#131313" points="891,1.309 932.748,70.832 891,51.78 		"/>
		<polygon fill="#070707" points="891,51.78 932.748,70.832 891,95.399 		"/>
		<polygon fill="#141414" points="891,51.78 849.252,70.832 891,95.399 		"/>
		<polygon fill="#333333" points="849.451,76.515 891.207,135.342 891.199,100.999 		"/>
		<polygon fill="#131313" points="932.988,76.515 891.232,135.342 891.24,100.999 		"/>
	</g>
	<g>
		<polygon fill="#333333" points="975,0.309 933.252,69.832 975,50.78 		"/>
		<polygon fill="#131313" points="975,0.309 1016.748,69.832 975,50.78 		"/>
		<polygon fill="#070707" points="975,50.78 1016.748,69.832 975,94.399 		"/>
		<polygon fill="#141414" points="975,50.78 933.252,69.832 975,94.399 		"/>
		<polygon fill="#333333" points="933.451,75.515 975.207,134.342 975.199,99.999 		"/>
		<polygon fill="#131313" points="1016.988,75.515 975.232,134.342 975.24,99.999 		"/>
	</g>
	<g>
		<polygon fill="#333333" points="1060,1.309 1018.252,70.832 1060,51.78 		"/>
		<polygon fill="#131313" points="1060,1.309 1101.748,70.832 1060,51.78 		"/>
		<polygon fill="#070707" points="1060,51.78 1101.748,70.832 1060,95.399 		"/>
		<polygon fill="#141414" points="1060,51.78 1018.252,70.832 1060,95.399 		"/>
		<polygon fill="#333333" points="1018.451,76.515 1060.207,135.342 1060.199,100.999 		"/>
		<polygon fill="#131313" points="1101.988,76.515 1060.232,135.342 1060.24,100.999 		"/>
	</g>
	<g>
		<polygon fill="#333333" points="1143,1.309 1101.252,70.832 1143,51.78 		"/>
		<polygon fill="#131313" points="1143,1.309 1184.748,70.832 1143,51.78 		"/>
		<polygon fill="#070707" points="1143,51.78 1184.748,70.832 1143,95.399 		"/>
		<polygon fill="#141414" points="1143,51.78 1101.252,70.832 1143,95.399 		"/>
		<polygon fill="#333333" points="1101.451,76.515 1143.207,135.342 1143.199,100.999 		"/>
		<polygon fill="#131313" points="1184.988,76.515 1143.232,135.342 1143.24,100.999 		"/>
	</g>
	<g>
		<polygon fill="#333333" points="1227,0.309 1185.252,69.832 1227,50.78 		"/>
		<polygon fill="#131313" points="1227,0.309 1268.748,69.832 1227,50.78 		"/>
		<polygon fill="#070707" points="1227,50.78 1268.748,69.832 1227,94.399 		"/>
		<polygon fill="#141414" points="1227,50.78 1185.252,69.832 1227,94.399 		"/>
		<polygon fill="#333333" points="1185.451,75.515 1227.207,134.342 1227.199,99.999 		"/>
		<polygon fill="#131313" points="1268.988,75.515 1227.232,134.342 1227.24,99.999 		"/>
	</g>
</g>
</svg>
