<?xml version="1.0" encoding="utf-8"?>
<!-- Generator: Adobe Illustrator 16.0.0, SVG Export Plug-In . SVG Version: 6.00 Build 0)  -->
<!DOCTYPE svg PUBLIC "-//W3C//DTD SVG 1.1//EN" "http://www.w3.org/Graphics/SVG/1.1/DTD/svg11.dtd">
<svg version="1.1" id="Layer_1" xmlns="http://www.w3.org/2000/svg" xmlns:xlink="http://www.w3.org/1999/xlink" x="0px" y="0px"
	 width="312.518px" height="128.732px" viewBox="0 0 312.518 128.732" enable-background="new 0 0 312.518 128.732"
	 xml:space="preserve">
<g>
	<circle fill="#333333" cx="153.452" cy="64.367" r="64.367"/>
	<g>
		<path fill="#FFFFFF" d="M139.221,62.527c0,3.818-1.088,6.746-3.262,8.776c-2.176,2.032-5.315,3.049-9.422,3.049h-6.571V51.146
			h7.286c3.789,0,6.73,0.998,8.826,2.999C138.172,56.146,139.221,58.938,139.221,62.527z M134.109,62.654
			c0-4.984-2.202-7.477-6.604-7.477h-2.62v15.111h2.112C131.738,70.289,134.109,67.744,134.109,62.654z"/>
		<path fill="#FFFFFF" d="M158.236,74.353l-1.683-5.524h-8.461l-1.682,5.524h-5.303l8.192-23.303h6.015l8.222,23.303H158.236z
			 M155.379,64.702c-1.556-5.005-2.431-7.835-2.626-8.493c-0.197-0.656-0.337-1.176-0.422-1.555
			c-0.349,1.354-1.349,4.703-2.999,10.048H155.379z"/>
		<path fill="#FFFFFF" d="M187.521,62.717c0,3.843-0.952,6.794-2.855,8.859c-1.906,2.062-4.637,3.096-8.191,3.096
			s-6.286-1.033-8.191-3.096c-1.904-2.065-2.856-5.027-2.856-8.891s0.954-6.812,2.865-8.85c1.909-2.037,4.647-3.056,8.214-3.056
			s6.294,1.026,8.184,3.08C186.578,55.912,187.521,58.865,187.521,62.717z M170.584,62.717c0,2.594,0.493,4.545,1.479,5.857
			c0.983,1.313,2.454,1.969,4.412,1.969c3.926,0,5.89-2.607,5.89-7.826c0-5.228-1.954-7.842-5.858-7.842
			c-1.958,0-3.434,0.66-4.43,1.977C171.083,58.169,170.584,60.123,170.584,62.717z"/>
	</g>
	<g>
		<path fill="#333333" d="M228.212,29.055c-9.963,0.001-18.096,8.018-18.097,17.979c0,4.98,1.998,9.461,5.228,12.69l25.499-25.5
			C237.612,30.995,233.193,29.055,228.212,29.055z"/>
		<path fill="#333333" d="M215.343,59.725c0.808,0.808,0.809,0.807,0.815,0.8l25.484-25.485c0.007-0.006,0.007-0.008-0.801-0.814
			L215.343,59.725z"/>
		<path fill="#333333" d="M216.158,60.524c3.351,3.109,7.48,4.759,12.205,4.759c9.963,0,18.055-8.06,18.055-18.022
			c0-4.723-1.667-8.869-4.775-12.222L216.158,60.524z"/>
		<circle fill="#4D4D4D" cx="228.331" cy="47.212" r="16.273"/>
		<g>
			<polygon fill="#333333" points="228.018,33.103 219.315,47.596 228.018,43.623 			"/>
			<polygon fill="#131313" points="228.018,33.103 236.721,47.594 228.018,43.623 			"/>
			<polygon fill="#070707" points="228.018,43.623 236.721,47.594 228.018,52.715 			"/>
			<polygon fill="#141414" points="228.018,43.623 219.315,47.596 228.018,52.715 			"/>
			<polygon fill="#333333" points="219.645,48.779 228.35,61.042 228.348,53.884 			"/>
			<polygon fill="#131313" points="237.06,48.779 228.354,61.042 228.356,53.884 			"/>
		</g>
		<path opacity="0.2" fill="#FFFFFF" d="M228.212,29.055c-9.963,0.001-18.096,8.018-18.097,17.979c0,4.98,1.998,9.461,5.228,12.69
			l25.499-25.5C237.612,30.995,233.193,29.055,228.212,29.055z"/>
	</g>
	<g>
		
			<line fill="none" stroke="#EEA315" stroke-width="3" stroke-linecap="round" stroke-miterlimit="10" x1="311.018" y1="47.164" x2="251.018" y2="47.164"/>
		<polygon fill="#EEA315" points="250.35,56.717 250.353,37.621 239.539,47.169 		"/>
	</g>
	<g>
		<path fill="#333333" d="M18.097,70.164C8.134,70.165,0.001,78.182,0,88.144c0,4.98,1.998,9.461,5.228,12.69l25.499-25.5
			C27.498,72.104,23.078,70.164,18.097,70.164z"/>
		<path fill="#333333" d="M5.228,100.834c0.808,0.808,0.809,0.807,0.815,0.8l25.484-25.485c0.007-0.006,0.007-0.008-0.801-0.814
			L5.228,100.834z"/>
		<path fill="#333333" d="M6.043,101.634c3.351,3.109,7.48,4.759,12.205,4.759c9.963,0,18.055-8.06,18.055-18.022
			c0-4.723-1.667-8.869-4.775-12.222L6.043,101.634z"/>
		<circle fill="#4D4D4D" cx="18.216" cy="88.321" r="16.273"/>
		<g>
			<polygon fill="#333333" points="18.018,74.212 9.315,88.705 18.018,84.732 			"/>
			<polygon fill="#131313" points="18.018,74.212 26.722,88.703 18.018,84.732 			"/>
			<polygon fill="#070707" points="18.018,84.732 26.722,88.703 18.018,93.824 			"/>
			<polygon fill="#141414" points="18.018,84.732 9.315,88.705 18.018,93.824 			"/>
			<polygon fill="#333333" points="9.53,89.889 18.235,102.151 18.232,94.993 			"/>
			<polygon fill="#131313" points="26.944,89.889 18.239,102.151 18.242,94.993 			"/>
		</g>
		<path opacity="0.2" fill="#FFFFFF" d="M18.097,70.164C8.134,70.165,0.001,78.182,0,88.144c0,4.98,1.998,9.461,5.228,12.69
			l25.499-25.5C27.498,72.104,23.078,70.164,18.097,70.164z"/>
	</g>
	<g>
		
			<line fill="none" stroke="#EEA315" stroke-width="3" stroke-linecap="round" stroke-miterlimit="10" x1="101.018" y1="88.164" x2="41.018" y2="88.164"/>
		<polygon fill="#EEA315" points="40.235,97.826 40.237,78.73 29.425,88.278 		"/>
	</g>
	<path fill="#528C45" d="M85.439,65.283c9.963-0.002,18.096-8.019,18.097-17.98c0-4.98-1.998-9.461-5.228-12.69l-25.5,25.501
		C76.038,63.343,80.458,65.283,85.439,65.283z"/>
	<path fill="#528C45" d="M98.309,34.612c-0.808-0.808-0.809-0.806-0.815-0.8L72.008,59.298c-0.006,0.007-0.006,0.008,0.801,0.815
		L98.309,34.612z"/>
	<path fill="#528C45" d="M97.493,33.812c-3.352-3.108-7.48-4.758-12.205-4.758c-9.963,0-18.055,8.059-18.055,18.021
		c0,4.723,1.667,8.869,4.774,12.222L97.493,33.812z"/>
	<circle fill="#63B751" cx="85.32" cy="47.126" r="16.273"/>
	<g>
		
			<line fill="none" stroke="#EEA315" stroke-width="3" stroke-linecap="round" stroke-miterlimit="10" x1="2.018" y1="47.164" x2="62.018" y2="47.164"/>
		<polygon fill="#EEA315" points="63.301,37.62 63.299,56.716 74.111,47.168 		"/>
	</g>
	<text transform="matrix(1 0 0 1 79.0576 54.7148)" fill="#FFFFFF" font-family="'OpenSans'" font-size="22.8386">$</text>
	<path opacity="0.2" fill="#FFFFFF" d="M85.196,28.905c-9.963,0-18.096,8.018-18.097,17.979c0,4.98,1.998,9.461,5.228,12.69
		l25.499-25.499C94.597,30.846,90.178,28.905,85.196,28.905z"/>
	<path fill="#528C45" d="M293.271,106.393c9.963-0.002,18.096-8.019,18.097-17.98c0-4.98-1.998-9.461-5.228-12.69l-25.5,25.501
		C283.869,104.452,288.289,106.393,293.271,106.393z"/>
	<path fill="#528C45" d="M306.14,75.722c-0.808-0.808-0.809-0.806-0.815-0.8l-25.484,25.485c-0.007,0.007-0.007,0.008,0.8,0.815
		L306.14,75.722z"/>
	<path fill="#528C45" d="M305.324,74.922c-3.352-3.108-7.48-4.758-12.205-4.758c-9.963,0-18.055,8.059-18.055,18.021
		c0,4.723,1.667,8.869,4.775,12.222L305.324,74.922z"/>
	<circle fill="#63B751" cx="293.151" cy="88.235" r="16.274"/>
	<g>
		
			<line fill="none" stroke="#EEA315" stroke-width="3" stroke-linecap="round" stroke-miterlimit="10" x1="210.018" y1="88.164" x2="270.018" y2="88.164"/>
		<polygon fill="#EEA315" points="271.132,78.729 271.13,97.826 281.942,88.277 		"/>
	</g>
	<text transform="matrix(1 0 0 1 286.8887 96.0205)" fill="#FFFFFF" font-family="'OpenSans'" font-size="22.8386">$</text>
	<path opacity="0.2" fill="#FFFFFF" d="M293.027,70.015c-9.963,0-18.096,8.018-18.097,17.979c0,4.98,1.998,9.461,5.228,12.69
		l25.499-25.499C302.428,71.955,298.009,70.015,293.027,70.015z"/>
</g>
</svg>
