<?xml version="1.0" encoding="utf-8"?>
<!-- Generator: Adobe Illustrator 16.0.0, SVG Export Plug-In . SVG Version: 6.00 Build 0)  -->
<!DOCTYPE svg PUBLIC "-//W3C//DTD SVG 1.1//EN" "http://www.w3.org/Graphics/SVG/1.1/DTD/svg11.dtd">
<svg version="1.1" id="Layer_1" xmlns="http://www.w3.org/2000/svg" xmlns:xlink="http://www.w3.org/1999/xlink" x="0px" y="0px"
	 width="151px" height="151px" viewBox="0 0 151 151" enable-background="new 0 0 151 151" xml:space="preserve">
<circle fill="#E2E2E2" cx="75.5" cy="75.5" r="75.5"/>
<g>
	<rect x="37" y="24" fill="#FFFFFF" width="77" height="103"/>
	
		<rect x="52" y="42" fill="#FFFFFF" stroke="#333333" stroke-width="2" stroke-linejoin="round" stroke-miterlimit="10" width="15" height="16"/>
	
		<rect x="52" y="68" fill="#FFFFFF" stroke="#333333" stroke-width="2" stroke-linejoin="round" stroke-miterlimit="10" width="15" height="16"/>
	
		<rect x="52" y="93" fill="#FFFFFF" stroke="#333333" stroke-width="2" stroke-linejoin="round" stroke-miterlimit="10" width="15" height="16"/>
	<g>
		<g>
			<path fill="#CC4848" d="M65,37.5c-0.505,10.264-10.561,18.477-17.561,24.939c-1.424,1.315,0.703,3.431,2.121,2.121
				C57.232,57.478,67.446,48.744,68,37.5C68.095,35.565,65.095,35.575,65,37.5L65,37.5z"/>
		</g>
	</g>
	<g>
		<g>
			<path fill="#CC4848" d="M50.205,43.757c6.03,8.4,14.531,14.202,23.539,19.039c1.704,0.915,3.219-1.675,1.514-2.591
				c-8.515-4.572-16.751-10.007-22.461-17.961C51.678,40.687,49.074,42.182,50.205,43.757L50.205,43.757z"/>
		</g>
	</g>
</g>
</svg>
