<?xml version="1.0" encoding="utf-8"?>
<!-- Generator: Adobe Illustrator 16.0.0, SVG Export Plug-In . SVG Version: 6.00 Build 0)  -->
<!DOCTYPE svg PUBLIC "-//W3C//DTD SVG 1.1//EN" "http://www.w3.org/Graphics/SVG/1.1/DTD/svg11.dtd">
<svg version="1.1" id="Layer_1" xmlns="http://www.w3.org/2000/svg" xmlns:xlink="http://www.w3.org/1999/xlink" x="0px" y="0px"
	 viewBox="0 0 346.052 1095" enable-background="new 0 0 346.052 1095" xml:space="preserve">
<g>
	<path fill="#2EA3F2" d="M289.831,193c0,11.046-8.954,20-20,20h-227c-11.046,0-20-8.954-20-20V20c0-11.046,8.954-20,20-20h227
		c11.046,0,20,8.954,20,20V193z"/>
	<g>
		<rect x="61.462" y="20.211" fill="none" width="190.49" height="18.134"/>
		<text transform="matrix(1 0 0 1 63.7178 36.9307)" fill="#F7F7F7" font-family="'Open Sans', sans-serif" font-size="22">Uma Rede Pública</text>
	</g>
	<g>
		<rect x="12.155" y="227.502" fill="none" width="289.105" height="112.722"/>
		<text transform="matrix(1 0 0 1 91.0479 242.7021)"><tspan x="0" y="0" fill="#333333" font-family="'Open Sans', sans-serif" font-size="20">Mais Usuários</tspan><tspan x="59.941" y="24" fill="#333333" font-family="'Open Sans', sans-serif" font-size="20">= </tspan><tspan x="-75.879" y="48" fill="#333333" font-family="'Open Sans', sans-serif" font-size="20">Mais Poder de Processamento</tspan><tspan x="59.941" y="72" fill="#333333" font-family="'Open Sans', sans-serif" font-size="20">= </tspan><tspan x="-7.646" y="96" fill="#333333" font-family="'Open Sans', sans-serif" font-size="20">Mais Segurança</tspan></text>
	</g>
	
		<line fill="none" stroke="#333333" stroke-width="2" stroke-miterlimit="10" stroke-dasharray="4" x1="134.482" y1="83.787" x2="211.002" y2="134.666"/>
	
		<line fill="none" stroke="#333333" stroke-width="2" stroke-miterlimit="10" stroke-dasharray="4" x1="178.829" y1="83.768" x2="102.309" y2="134.707"/>
	
		<line fill="none" stroke="#333333" stroke-width="2" stroke-miterlimit="10" stroke-dasharray="4" x1="178.829" y1="83.768" x2="156.655" y2="168.775"/>
	
		<line fill="none" stroke="#333333" stroke-width="2" stroke-miterlimit="10" stroke-dasharray="4" x1="134.482" y1="83.787" x2="156.655" y2="168.775"/>
	<polygon fill="none" stroke="#333333" stroke-width="2" stroke-miterlimit="10" stroke-dasharray="4" points="134.482,83.787 
		178.829,83.768 211.002,134.666 156.655,168.775 102.309,134.707 	"/>
	<g>
		<circle fill="#F7F7F7" cx="102.303" cy="118.667" r="4.324"/>
		<path fill="#F7F7F7" d="M111.313,126.798c0,1.167-1.99,1.673-2.971,1.673l-12.328,0.005c-0.98,0.001-2.814-0.305-2.815-1.475l0,0
			c0-1.165,3.591-2.752,4.573-2.753l9.063-0.003C107.819,124.245,111.313,125.631,111.313,126.798L111.313,126.798z"/>
		<path fill="#F7F7F7" d="M108.192,142.398c0.001,0.927,0.75,1.674,1.673,1.674l0,0c0.927-0.001,1.674-0.749,1.674-1.674
			l-0.007-14.783c0-0.924-0.749-1.674-1.674-1.675l0,0c-0.923,0.001-1.674,0.753-1.673,1.676L108.192,142.398z"/>
		<path fill="#F7F7F7" d="M103.437,158.834c0.001,0.923,0.75,1.672,1.673,1.673l0,0c0.924-0.001,1.674-0.751,1.672-1.674
			l-0.006-14.784c-0.001-0.926-0.749-1.674-1.674-1.674l0,0c-0.923,0.002-1.673,0.751-1.672,1.676L103.437,158.834z"/>
		<path fill="#F7F7F7" d="M97.856,158.837c0.001,0.923,0.751,1.673,1.677,1.671l0,0c0.922,0.001,1.673-0.748,1.673-1.674
			l-0.007-14.781c0-0.926-0.752-1.675-1.673-1.676l0,0c-0.927,0.001-1.676,0.751-1.676,1.676L97.856,158.837z"/>
		<path fill="#F7F7F7" d="M93.088,142.407c0,0.924,0.747,1.673,1.673,1.671l0,0c0.925,0,1.673-0.749,1.674-1.673l-0.007-14.783
			c-0.001-0.924-0.751-1.674-1.675-1.672l0,0c-0.925-0.002-1.672,0.751-1.672,1.673L93.088,142.407z"/>
		<rect x="97.845" y="125.084" fill="#F7F7F7" width="8.926" height="19.246"/>
	</g>
	<g>
		<circle fill="#F7F7F7" cx="134.476" cy="67.75" r="4.324"/>
		<path fill="#F7F7F7" d="M143.487,75.878c0,1.169-1.99,1.674-2.973,1.674l-12.327,0.005c-0.978,0.002-2.814-0.307-2.814-1.473l0,0
			c0-1.168,3.59-2.754,4.573-2.755l9.063-0.003C139.993,73.326,143.485,74.711,143.487,75.878L143.487,75.878z"/>
		<path fill="#F7F7F7" d="M140.367,91.48c0,0.926,0.749,1.673,1.674,1.673l0,0c0.925-0.001,1.672-0.749,1.672-1.674l-0.007-14.783
			c0-0.923-0.749-1.673-1.673-1.672l0,0c-0.925,0-1.672,0.751-1.672,1.674L140.367,91.48z"/>
		<path fill="#F7F7F7" d="M135.61,107.916c0,0.923,0.75,1.672,1.673,1.672l0,0c0.927-0.001,1.672-0.751,1.673-1.674l-0.006-14.783
			c-0.001-0.924-0.749-1.674-1.675-1.673l0,0c-0.922-0.001-1.672,0.749-1.671,1.674L135.61,107.916z"/>
		<path fill="#F7F7F7" d="M130.031,107.918c0.001,0.924,0.749,1.674,1.675,1.673l0,0c0.922-0.001,1.672-0.751,1.673-1.675
			l-0.007-14.781c-0.001-0.928-0.752-1.677-1.673-1.677l0,0c-0.927,0.002-1.675,0.753-1.675,1.677L130.031,107.918z"/>
		<path fill="#F7F7F7" d="M125.26,91.488c0.001,0.924,0.75,1.672,1.674,1.672l0,0c0.925,0,1.672-0.748,1.671-1.673l-0.007-14.783
			c0.001-0.925-0.749-1.673-1.674-1.673l0,0c-0.925,0-1.671,0.75-1.672,1.674L125.26,91.488z"/>
		<rect x="130.021" y="74.166" fill="#F7F7F7" width="8.922" height="19.245"/>
	</g>
	<g>
		<circle fill="#F7F7F7" cx="156.649" cy="152.737" r="4.324"/>
		<path fill="#F7F7F7" d="M165.661,160.866c0,1.169-1.991,1.675-2.972,1.675l-12.329,0.006c-0.979,0-2.812-0.307-2.812-1.474l0,0
			c-0.001-1.169,3.59-2.755,4.573-2.755l9.064-0.003C162.167,158.313,165.659,159.699,165.661,160.866L165.661,160.866z"/>
		<path fill="#F7F7F7" d="M162.538,176.471c0.001,0.925,0.751,1.67,1.676,1.67l0,0c0.925,0,1.672-0.748,1.672-1.672l-0.006-14.783
			c0-0.925-0.75-1.674-1.674-1.674l0,0c-0.925,0-1.675,0.752-1.674,1.674L162.538,176.471z"/>
		<path fill="#F7F7F7" d="M157.782,192.904c0.002,0.922,0.751,1.671,1.675,1.672l0,0c0.927-0.001,1.673-0.751,1.671-1.673
			l-0.006-14.785c0-0.924-0.746-1.674-1.674-1.673l0,0c-0.923,0-1.672,0.75-1.672,1.674L157.782,192.904z"/>
		<path fill="#F7F7F7" d="M152.205,192.905c0,0.925,0.749,1.673,1.675,1.673l0,0c0.922-0.001,1.671-0.749,1.671-1.673l-0.007-14.784
			c0.001-0.926-0.751-1.674-1.673-1.674l0,0c-0.925,0-1.673,0.75-1.673,1.676L152.205,192.905z"/>
		<path fill="#F7F7F7" d="M147.435,176.476c0,0.925,0.747,1.674,1.673,1.673l0,0c0.923-0.002,1.673-0.749,1.672-1.675l-0.007-14.781
			c0-0.925-0.75-1.674-1.674-1.673l0,0c-0.925-0.001-1.672,0.75-1.671,1.674L147.435,176.476z"/>
		<rect x="152.194" y="159.152" fill="#F7F7F7" width="8.923" height="19.246"/>
	</g>
	<g>
		<circle fill="#F7F7F7" cx="178.823" cy="67.729" r="4.324"/>
		<path fill="#F7F7F7" d="M187.832,75.857c0.001,1.168-1.987,1.673-2.97,1.674l-12.327,0.007c-0.98,0.001-2.813-0.308-2.815-1.476
			l0,0c0-1.166,3.591-2.752,4.572-2.753l9.064-0.005C184.338,73.305,187.833,74.691,187.832,75.857L187.832,75.857z"/>
		<path fill="#F7F7F7" d="M184.711,91.461c0.001,0.926,0.751,1.672,1.675,1.672l0,0c0.926,0,1.675-0.75,1.673-1.673l-0.007-14.784
			c0-0.923-0.75-1.673-1.677-1.672l0,0c-0.923,0-1.67,0.75-1.67,1.673L184.711,91.461z"/>
		<path fill="#F7F7F7" d="M179.955,107.896c0.001,0.923,0.753,1.673,1.673,1.672l0,0c0.926-0.002,1.676-0.75,1.674-1.674
			l-0.008-14.782c0-0.925-0.747-1.676-1.672-1.674l0,0c-0.924-0.002-1.676,0.749-1.674,1.674L179.955,107.896z"/>
		<path fill="#F7F7F7" d="M174.377,107.897c0,0.925,0.75,1.672,1.676,1.673l0,0c0.923-0.001,1.672-0.752,1.672-1.674l-0.008-14.783
			c0-0.926-0.75-1.676-1.674-1.674l0,0c-0.924-0.001-1.673,0.75-1.673,1.676L174.377,107.897z"/>
		<path fill="#F7F7F7" d="M169.608,91.467c0,0.926,0.747,1.672,1.673,1.673l0,0c0.924-0.001,1.673-0.749,1.673-1.673l-0.007-14.783
			c-0.001-0.924-0.751-1.675-1.675-1.675l0,0c-0.925,0.002-1.672,0.752-1.671,1.677L169.608,91.467z"/>
		<rect x="174.367" y="74.145" fill="#F7F7F7" width="8.924" height="19.246"/>
	</g>
	<g>
		<path fill="#F7F7F7" d="M215.317,118.626c0.004,2.387-1.932,4.322-4.32,4.324c-2.389,0.001-4.328-1.934-4.328-4.32
			c0-2.39,1.936-4.325,4.325-4.327C213.38,114.302,215.317,116.236,215.317,118.626z"/>
		<path fill="#F7F7F7" d="M220.006,126.756c0,1.167-1.99,1.674-2.971,1.674l-12.33,0.006c-0.979,0-2.812-0.307-2.812-1.474l0,0
			c0-1.169,3.589-2.754,4.572-2.754l9.061-0.005C216.51,124.203,220.006,125.588,220.006,126.756L220.006,126.756z"/>
		<path fill="#F7F7F7" d="M216.883,142.358c0.002,0.926,0.752,1.673,1.676,1.673l0,0c0.926,0,1.672-0.749,1.672-1.673l-0.006-14.784
			c-0.001-0.924-0.748-1.674-1.673-1.673l0,0c-0.925-0.001-1.677,0.751-1.675,1.675L216.883,142.358z"/>
		<path fill="#F7F7F7" d="M212.125,158.794c0.002,0.921,0.754,1.672,1.676,1.671l0,0c0.926,0,1.674-0.75,1.674-1.674l-0.006-14.783
			c-0.002-0.925-0.75-1.674-1.676-1.674l0,0c-0.924,0-1.674,0.75-1.674,1.676L212.125,158.794z"/>
		<path fill="#F7F7F7" d="M206.551,158.797c-0.002,0.923,0.748,1.671,1.674,1.671l0,0c0.924,0,1.674-0.749,1.672-1.673
			l-0.004-14.783c-0.002-0.927-0.754-1.675-1.678-1.676l0,0c-0.924,0.001-1.672,0.751-1.672,1.676L206.551,158.797z"/>
		<path fill="#F7F7F7" d="M201.781,142.366c0,0.924,0.748,1.671,1.673,1.672l0,0c0.923-0.001,1.673-0.749,1.673-1.675l-0.007-14.782
			c0-0.923-0.752-1.673-1.674-1.673l0,0c-0.927,0-1.672,0.752-1.672,1.674L201.781,142.366z"/>
		<rect x="206.541" y="125.044" fill="#F7F7F7" width="8.924" height="19.245"/>
	</g>
	<g>
		<path fill="#333333" d="M319.413,104.109h14.484v4.852h-14.484v14.977h-4.887v-14.977h-14.414v-4.852h14.414V89.062h4.887V104.109
			z"/>
	</g>
</g>
<path fill="#2EA3F2" d="M300.831,576c0,11.046-8.954,20-20,20h-227c-11.046,0-20-8.954-20-20V403c0-11.046,8.954-20,20-20h227
	c11.046,0,20,8.954,20,20V576z"/>
<g>
	<rect x="48.676" y="403.211" fill="none" width="237.165" height="17.386"/>
	<text transform="matrix(1 0 0 1 50.8179 419.9297)" fill="#F7F7F7" font-family="'Open Sans', sans-serif" font-size="22">Incentivos Econômicos</text>
</g>
<g>
	<path fill="#333333" d="M313.357,484.719v-4.816h32.695v4.816H313.357z M313.357,499.098v-4.816h32.695v4.816H313.357z"/>
</g>
<g>
	<circle fill="#F7F7F7" cx="167.74" cy="511.416" r="63.333"/>
	<g>
		<defs>
			<circle id="SVGID_1_" cx="167.274" cy="511.416" r="63.333"/>
		</defs>
		<clipPath id="SVGID_2_">
			<use xlink:href="#SVGID_1_"  overflow="visible"/>
		</clipPath>
		<g clip-path="url(#SVGID_2_)">
			<path fill="#99A641" d="M167.377,492.971c0-5.678,11.972-31.844,7.024-32.184c-4.951-0.342-10.011,11.039-13.426,10.954
				c-3.413-0.085-7.75-5.496-12.187-4.13c-3.99,1.229,8.882,21.079,8.882,25.359c0,5.111-25.49,32.644-25.49,49.859
				c0,20.142,15.276,25.26,29.982,25.26c14.706,0,31.119-5.461,31.119-26.626C193.282,525.614,167.377,498.646,167.377,492.971z"/>
			<g>
				<rect x="190.831" y="486" fill="#FFCCB0" width="75" height="20"/>
				<path fill="#FFCCB0" d="M199.755,486.244c-5.164,0-14.407-4.982-18.125-10.561c0,0-3.926-3.912-7.643-4.117l-3.512,6.002
					l-0.92,35.323c0,0,11.429,0.425,16.722-4.882c1.896-1.9,5.783-1.938,11.773-1.938"/>
				<path fill="#FFCCB0" d="M172.831,480.332c0-1.576-1.739-2.332-3.274-2.332h-15.007c-1.536,0-3.719,0.756-3.719,2.332v28.564
					c0,1.578,2.183,4.104,3.719,4.104h15.007c1.535,0,3.274-2.525,3.274-4.104V480.332z"/>
				<path fill="#FFCCB0" d="M159.831,480.779c0-1.535-1.244-2.779-2.779-2.779h-7.441c-1.535,0-2.779,1.244-2.779,2.779v2.441
					c0,1.535,1.244,2.779,2.779,2.779h7.441c1.535,0,2.779-1.244,2.779-2.779V480.779z"/>
				<path fill="#FFCCB0" d="M159.831,489.78c0-1.535-1.244-2.78-2.779-2.78h-7.441c-1.535,0-2.779,1.245-2.779,2.78v1.439
					c0,1.535,1.244,2.78,2.779,2.78h7.441c1.535,0,2.779-1.245,2.779-2.78V489.78z"/>
				<path fill="#FFCCB0" d="M160.831,497.425c0-1.362-1.3-2.425-2.598-2.425h-8.398c-1.299,0-3.004,1.062-3.004,2.425v3.639
					c0,1.364,1.706,2.937,3.004,2.937h8.398c1.298,0,2.598-1.572,2.598-2.937V497.425z"/>
				<path fill="#FFCCB0" d="M160.831,507.829c0-1.573-1.267-2.829-2.782-2.829h-7.508c-1.515,0-3.71,1.256-3.71,2.829V509
					c0,1.572,2.195,4,3.71,4h7.508c1.515,0,2.782-2.428,2.782-4V507.829z"/>
				<path fill="#FFCCB0" d="M150.957,485.463c0.325,0,0.494,0.619,0.485,0.897c-0.014,0.346-0.066,1.083-0.506,1.083
					c-0.44,0,0.406,0.557,0.406,0.557h0.489v-3h-0.895L150.957,485.463z"/>
				<path fill="#FFCCB0" d="M150.884,493.295c0.382,0.029,0.485,1.277,0.485,1.497c0,0.221,0.069,1.22-0.324,1.22
					c-0.394,0,0.061,0.289,0.061,0.289l1.288-0.06L152.198,493h-1.262L150.884,493.295z"/>
				<path fill="#FFCCB0" d="M149.831,502.861c0,0,1.198,0.614,1.169,1.079c-0.018,0.277,0.163,0.962-0.218,0.962
					c-0.384,0,0.201,0.592,0.2,0.591l1.54-0.138l-0.746-3.087l-1.945-0.069V502.861z"/>
			</g>
			<text transform="matrix(1 0 0 1 153.9912 548.3555)" fill="#F7F7F7" font-family="'Open Sans', sans-serif" font-size="30.5678">$</text>
		</g>
	</g>
</g>
<g>
	<g>
		<rect x="27.568" y="626.708" fill="none" width="306.948" height="66"/>
		<text transform="matrix(1 0 0 1 27.5679 641.9082)"><tspan x="0" y="0" fill="#333333" font-family="'Open Sans', sans-serif" font-size="20">A  recompensa da mineração faz </tspan><tspan x="0" y="24" fill="#333333" font-family="'Open Sans', sans-serif" font-size="20">a trapaça ser menos vantajosa </tspan><tspan x="0" y="48" fill="#333333" font-family="'Open Sans', sans-serif" font-size="20">do que a colaboração honesta.</tspan></text>
	</g>
	<g>
		<path fill="#CCCCCC" d="M18.58,693.468c0,3.854,1.123,6.732,3.37,8.64c2.247,1.905,6.07,2.917,11.471,3.03v5.154
			c-7.363,0-12.604-1.416-15.719-4.249c-3.116-2.831-4.674-7.193-4.674-13.084V673.87c0-7.742-4.343-11.689-13.028-11.84v-4.532
			c4.607-0.075,7.931-1.038,9.97-2.889c2.04-1.85,3.059-4.645,3.059-8.384v-19.824c0-11.292,6.798-17.052,20.393-17.278v5.099
			c-5.211,0.188-8.988,1.284-11.329,3.285c-2.342,2.002-3.512,4.966-3.512,8.895v17.275c0,4.91-0.831,8.573-2.493,10.989
			c-1.662,2.417-4.343,4.022-8.043,4.815v0.453c3.662,0.756,6.335,2.332,8.016,4.73c1.68,2.398,2.521,5.919,2.521,10.564V693.468z"
			/>
	</g>
</g>
<g>
	<path fill="#2EA3F2" d="M307.831,1075c0,11.046-8.954,20-20,20h-227c-11.046,0-20-8.954-20-20V771c0-11.046,8.954-20,20-20h227
		c11.046,0,20,8.954,20,20V1075z"/>
	<g>
		<rect x="61.252" y="771.211" fill="none" width="226.549" height="94.092"/>
		<text transform="matrix(1 0 0 1 94.4004 787.9297)"><tspan x="0" y="0" fill="#F7F7F7" font-family="'Open Sans', sans-serif" font-size="22">Manutenção de </tspan><tspan x="-15.41" y="26.4" fill="#F7F7F7" font-family="'Open Sans', sans-serif" font-size="22">Consenso Sem um </tspan><tspan x="-30.191" y="52.801" fill="#F7F7F7" font-family="'Open Sans', sans-serif" font-size="22">Intermediário Central</tspan></text>
	</g>
	<rect x="37.831" y="944" fill="#FFFFFF" width="270" height="121"/>
	<ellipse opacity="0.2" fill="#333333" cx="228.535" cy="951.402" rx="15.256" ry="4.972"/>
	<rect x="221.831" y="889" fill="#F4A25F" width="13" height="62"/>
	<rect x="221.831" y="889" fill="#DD925B" width="1" height="62"/>
	<rect x="224.831" y="889" fill="#DD925B" width="2" height="62"/>
	<rect x="227.831" y="889" fill="#DD925B" width="3" height="62"/>
	<rect x="231.831" y="889" fill="#DD925B" width="2" height="62"/>
	<rect x="221.831" y="889" opacity="0.2" fill="#333333" width="13" height="17"/>
	<polygon fill="#89427C" points="252.108,898.3 188.009,894.756 190.844,872.945 253.76,885.576 	"/>
	<polygon fill="#89427C" points="248.214,871.365 280.389,895.968 242.996,911.531 	"/>
	<g>
		<g>
			<polygon fill="#999999" points="70.643,1048.33 68.297,1042.072 69.182,1041.811 71.526,1048.069 			"/>
			<polygon fill="#999999" points="73.656,1051.492 70.643,1048.33 71.431,1047.772 74.342,1050.876 			"/>
			<polygon fill="#999999" points="66.02,1048.252 66.725,1041.687 67.644,1041.765 66.938,1048.331 			"/>
			<polygon fill="#999999" points="67.679,1052.294 66.02,1048.252 66.947,1048 68.541,1051.969 			"/>
			<polygon fill="#999999" points="62.078,1047.826 65.021,1041.77 65.884,1042.098 62.939,1048.152 			"/>
			<polygon fill="#999999" points="62.567,1052.168 62.078,1047.826 63.054,1047.857 63.485,1052.09 			"/>
			<polygon fill="#999999" points="70.643,1033.033 68.297,1039.291 69.182,1039.551 71.526,1033.293 			"/>
			<polygon fill="#999999" points="73.656,1029.87 70.643,1033.033 71.431,1033.59 74.342,1030.486 			"/>
			<polygon fill="#999999" points="66.02,1033.11 66.725,1039.676 67.644,1039.598 66.938,1033.032 			"/>
			<polygon fill="#999999" points="67.679,1029.068 66.02,1033.11 66.947,1033.363 68.541,1029.395 			"/>
			<polygon fill="#999999" points="62.078,1033.537 65.021,1039.593 65.884,1039.266 62.939,1033.21 			"/>
			<polygon fill="#999999" points="62.567,1029.195 62.078,1033.537 63.054,1033.505 63.485,1029.271 			"/>
			
				<rect x="75.263" y="1037.14" transform="matrix(0.7061 -0.7082 0.7082 0.7061 -711.9851 359.9387)" fill="#999999" width="4.628" height="0.923"/>
			
				<rect x="75.263" y="1042.597" transform="matrix(0.7061 0.7082 -0.7082 0.7061 761.4564 251.6691)" fill="#999999" width="4.628" height="0.922"/>
			<circle fill="#333333" cx="73.804" cy="1040.519" r="3.993"/>
			<ellipse fill="#333333" cx="57.775" cy="1040.519" rx="6.58" ry="4.946"/>
			<circle fill="#333333" cx="66.983" cy="1040.518" r="3.598"/>
		</g>
		<g>
			<polygon fill="#999999" points="107.778,1048.33 105.434,1042.072 106.317,1041.811 108.662,1048.069 			"/>
			<polygon fill="#999999" points="110.793,1051.492 107.778,1048.33 108.566,1047.772 111.478,1050.876 			"/>
			<polygon fill="#999999" points="103.155,1048.252 103.86,1041.687 104.779,1041.765 104.073,1048.331 			"/>
			<polygon fill="#999999" points="104.814,1052.294 103.155,1048.252 104.083,1048 105.678,1051.969 			"/>
			<polygon fill="#999999" points="99.215,1047.826 102.158,1041.77 103.02,1042.098 100.076,1048.152 			"/>
			<polygon fill="#999999" points="99.703,1052.168 99.215,1047.826 100.189,1047.857 100.622,1052.09 			"/>
			<polygon fill="#999999" points="107.778,1033.033 105.434,1039.291 106.317,1039.551 108.662,1033.293 			"/>
			<polygon fill="#999999" points="110.793,1029.87 107.778,1033.033 108.566,1033.59 111.478,1030.486 			"/>
			<polygon fill="#999999" points="103.155,1033.11 103.86,1039.676 104.779,1039.598 104.073,1033.032 			"/>
			<polygon fill="#999999" points="104.814,1029.068 103.155,1033.11 104.083,1033.363 105.678,1029.395 			"/>
			<polygon fill="#999999" points="99.215,1033.537 102.158,1039.593 103.02,1039.266 100.076,1033.21 			"/>
			<polygon fill="#999999" points="99.703,1029.195 99.215,1033.537 100.189,1033.505 100.622,1029.271 			"/>
			
				<rect x="112.399" y="1037.14" transform="matrix(0.7062 -0.7081 0.7081 0.7062 -700.9716 386.1152)" fill="#999999" width="4.629" height="0.923"/>
			
				<rect x="112.399" y="1042.597" transform="matrix(0.7062 0.7081 -0.7081 0.7062 772.2504 225.2724)" fill="#999999" width="4.629" height="0.922"/>
			<circle fill="#333333" cx="110.939" cy="1040.519" r="3.993"/>
			<ellipse fill="#333333" cx="94.912" cy="1040.519" rx="6.581" ry="4.946"/>
			<circle fill="#333333" cx="104.119" cy="1040.518" r="3.598"/>
		</g>
		<g>
			<polygon fill="#999999" points="144.915,1048.33 142.569,1042.072 143.454,1041.811 145.799,1048.069 			"/>
			<polygon fill="#999999" points="147.929,1051.492 144.915,1048.33 145.703,1047.772 148.614,1050.876 			"/>
			<polygon fill="#999999" points="140.292,1048.252 140.997,1041.687 141.916,1041.765 141.21,1048.331 			"/>
			<polygon fill="#999999" points="141.951,1052.294 140.292,1048.252 141.22,1048 142.813,1051.969 			"/>
			<polygon fill="#999999" points="136.351,1047.826 139.294,1041.77 140.156,1042.098 137.212,1048.152 			"/>
			<polygon fill="#999999" points="136.84,1052.168 136.351,1047.826 137.326,1047.857 137.758,1052.09 			"/>
			<polygon fill="#999999" points="144.915,1033.033 142.569,1039.291 143.454,1039.551 145.799,1033.293 			"/>
			<polygon fill="#999999" points="147.929,1029.87 144.915,1033.033 145.703,1033.59 148.614,1030.486 			"/>
			<polygon fill="#999999" points="140.292,1033.11 140.997,1039.676 141.916,1039.598 141.21,1033.032 			"/>
			<polygon fill="#999999" points="141.951,1029.068 140.292,1033.11 141.22,1033.363 142.813,1029.395 			"/>
			<polygon fill="#999999" points="136.351,1033.537 139.294,1039.593 140.156,1039.266 137.212,1033.21 			"/>
			<polygon fill="#999999" points="136.84,1029.195 136.351,1033.537 137.326,1033.505 137.758,1029.271 			"/>
			
				<rect x="149.535" y="1037.14" transform="matrix(0.7061 -0.7082 0.7082 0.7061 -690.1528 412.5355)" fill="#999999" width="4.628" height="0.923"/>
			
				<rect x="149.535" y="1042.597" transform="matrix(0.7061 0.7082 -0.7082 0.7061 783.2887 199.0722)" fill="#999999" width="4.628" height="0.922"/>
			<circle fill="#333333" cx="148.076" cy="1040.519" r="3.993"/>
			<ellipse fill="#333333" cx="132.048" cy="1040.519" rx="6.58" ry="4.946"/>
			<circle fill="#333333" cx="141.256" cy="1040.518" r="3.598"/>
		</g>
		<g>
			<polygon fill="#999999" points="182.049,1048.33 179.704,1042.072 180.588,1041.811 182.934,1048.069 			"/>
			<polygon fill="#999999" points="185.065,1051.492 182.049,1048.33 182.838,1047.772 185.749,1050.876 			"/>
			<polygon fill="#999999" points="177.426,1048.252 178.131,1041.687 179.051,1041.765 178.344,1048.331 			"/>
			<polygon fill="#999999" points="179.086,1052.294 177.426,1048.252 178.354,1048 179.948,1051.969 			"/>
			<polygon fill="#999999" points="173.487,1047.826 176.43,1041.77 177.292,1042.098 174.346,1048.152 			"/>
			<polygon fill="#999999" points="173.975,1052.168 173.487,1047.826 174.461,1047.857 174.893,1052.09 			"/>
			<polygon fill="#999999" points="182.049,1033.033 179.704,1039.291 180.588,1039.551 182.934,1033.293 			"/>
			<polygon fill="#999999" points="185.065,1029.87 182.049,1033.033 182.838,1033.59 185.749,1030.486 			"/>
			<polygon fill="#999999" points="177.426,1033.11 178.131,1039.676 179.051,1039.598 178.344,1033.032 			"/>
			<polygon fill="#999999" points="179.086,1029.068 177.426,1033.11 178.354,1033.363 179.948,1029.395 			"/>
			<polygon fill="#999999" points="173.487,1033.537 176.43,1039.593 177.292,1039.266 174.346,1033.21 			"/>
			<polygon fill="#999999" points="173.975,1029.195 173.487,1033.537 174.461,1033.505 174.893,1029.271 			"/>
			
				<rect x="186.67" y="1037.14" transform="matrix(0.7063 -0.708 0.708 0.7063 -679.0578 438.5742)" fill="#999999" width="4.629" height="0.922"/>
			
				<rect x="186.67" y="1042.597" transform="matrix(0.7063 0.708 -0.708 0.7063 793.9446 172.5934)" fill="#999999" width="4.629" height="0.921"/>
			<circle fill="#333333" cx="185.211" cy="1040.519" r="3.993"/>
			<ellipse fill="#333333" cx="169.184" cy="1040.519" rx="6.582" ry="4.946"/>
			<circle fill="#333333" cx="178.391" cy="1040.518" r="3.598"/>
		</g>
		<g>
			<polygon fill="#999999" points="219.186,1048.33 216.84,1042.072 217.725,1041.811 220.07,1048.069 			"/>
			<polygon fill="#999999" points="222.2,1051.492 219.186,1048.33 219.974,1047.772 222.885,1050.876 			"/>
			<polygon fill="#999999" points="214.563,1048.252 215.268,1041.687 216.187,1041.765 215.481,1048.331 			"/>
			<polygon fill="#999999" points="216.222,1052.294 214.563,1048.252 215.491,1048 217.084,1051.969 			"/>
			<polygon fill="#999999" points="210.622,1047.826 213.565,1041.77 214.427,1042.098 211.483,1048.152 			"/>
			<polygon fill="#999999" points="211.111,1052.168 210.622,1047.826 211.597,1047.857 212.029,1052.09 			"/>
			<polygon fill="#999999" points="219.186,1033.033 216.84,1039.291 217.725,1039.551 220.07,1033.293 			"/>
			<polygon fill="#999999" points="222.2,1029.87 219.186,1033.033 219.974,1033.59 222.885,1030.486 			"/>
			<polygon fill="#999999" points="214.563,1033.11 215.268,1039.676 216.187,1039.598 215.481,1033.032 			"/>
			<polygon fill="#999999" points="216.222,1029.068 214.563,1033.11 215.491,1033.363 217.084,1029.395 			"/>
			<polygon fill="#999999" points="210.622,1033.537 213.565,1039.593 214.427,1039.266 211.483,1033.21 			"/>
			<polygon fill="#999999" points="211.111,1029.195 210.622,1033.537 211.597,1033.505 212.029,1029.271 			"/>
			
				<rect x="223.806" y="1037.14" transform="matrix(0.7061 -0.7082 0.7082 0.7061 -668.3209 465.1313)" fill="#999999" width="4.628" height="0.923"/>
			
				<rect x="223.806" y="1042.597" transform="matrix(0.7061 0.7082 -0.7082 0.7061 805.1206 146.4764)" fill="#999999" width="4.628" height="0.922"/>
			<circle fill="#333333" cx="222.347" cy="1040.519" r="3.993"/>
			<ellipse fill="#333333" cx="206.319" cy="1040.519" rx="6.58" ry="4.946"/>
			<circle fill="#333333" cx="215.527" cy="1040.518" r="3.598"/>
		</g>
		<g>
			<polygon fill="#999999" points="256.322,1048.33 253.977,1042.072 254.861,1041.811 257.206,1048.069 			"/>
			<polygon fill="#999999" points="259.336,1051.492 256.322,1048.33 257.11,1047.772 260.021,1050.876 			"/>
			<polygon fill="#999999" points="251.699,1048.252 252.404,1041.687 253.323,1041.765 252.617,1048.331 			"/>
			<polygon fill="#999999" points="253.358,1052.294 251.699,1048.252 252.626,1048 254.221,1051.969 			"/>
			<polygon fill="#999999" points="247.758,1047.826 250.702,1041.77 251.563,1042.098 248.62,1048.152 			"/>
			<polygon fill="#999999" points="248.247,1052.168 247.758,1047.826 248.733,1047.857 249.166,1052.09 			"/>
			<polygon fill="#999999" points="256.322,1033.033 253.977,1039.291 254.861,1039.551 257.206,1033.293 			"/>
			<polygon fill="#999999" points="259.336,1029.87 256.322,1033.033 257.11,1033.59 260.021,1030.486 			"/>
			<polygon fill="#999999" points="251.699,1033.11 252.404,1039.676 253.323,1039.598 252.617,1033.032 			"/>
			<polygon fill="#999999" points="253.358,1029.068 251.699,1033.11 252.626,1033.363 254.221,1029.395 			"/>
			<polygon fill="#999999" points="247.758,1033.537 250.702,1039.593 251.563,1039.266 248.62,1033.21 			"/>
			<polygon fill="#999999" points="248.247,1029.195 247.758,1033.537 248.733,1033.505 249.166,1029.271 			"/>
			
				<rect x="260.942" y="1037.14" transform="matrix(0.7062 -0.7081 0.7081 0.7062 -657.3231 491.2922)" fill="#999999" width="4.629" height="0.923"/>
			
				<rect x="260.942" y="1042.597" transform="matrix(0.7062 0.7081 -0.7081 0.7062 815.8988 120.0953)" fill="#999999" width="4.629" height="0.922"/>
			<circle fill="#333333" cx="259.483" cy="1040.519" r="3.993"/>
			<ellipse fill="#333333" cx="243.456" cy="1040.519" rx="6.581" ry="4.946"/>
			<circle fill="#333333" cx="252.663" cy="1040.518" r="3.598"/>
		</g>
		<g>
			<polygon fill="#999999" points="293.458,1048.33 291.113,1042.072 291.998,1041.811 294.342,1048.069 			"/>
			<polygon fill="#999999" points="296.472,1051.492 293.458,1048.33 294.247,1047.772 297.158,1050.876 			"/>
			<polygon fill="#999999" points="288.835,1048.252 289.541,1041.687 290.459,1041.765 289.753,1048.331 			"/>
			<polygon fill="#999999" points="290.495,1052.294 288.835,1048.252 289.763,1048 291.357,1051.969 			"/>
			<polygon fill="#999999" points="284.894,1047.826 287.837,1041.77 288.7,1042.098 285.755,1048.152 			"/>
			<polygon fill="#999999" points="285.383,1052.168 284.894,1047.826 285.87,1047.857 286.301,1052.09 			"/>
			<polygon fill="#999999" points="293.458,1033.033 291.113,1039.291 291.998,1039.551 294.342,1033.293 			"/>
			<polygon fill="#999999" points="296.472,1029.87 293.458,1033.033 294.247,1033.59 297.158,1030.486 			"/>
			<polygon fill="#999999" points="288.835,1033.11 289.541,1039.676 290.459,1039.598 289.753,1033.032 			"/>
			<polygon fill="#999999" points="290.495,1029.068 288.835,1033.11 289.763,1033.363 291.357,1029.395 			"/>
			<polygon fill="#999999" points="284.894,1033.537 287.837,1039.593 288.7,1039.266 285.755,1033.21 			"/>
			<polygon fill="#999999" points="285.383,1029.195 284.894,1033.537 285.87,1033.505 286.301,1029.271 			"/>
			
				<rect x="298.079" y="1037.14" transform="matrix(0.7061 -0.7082 0.7082 0.7061 -646.4886 517.7282)" fill="#999999" width="4.628" height="0.923"/>
			
				<rect x="298.079" y="1042.597" transform="matrix(0.7061 0.7082 -0.7082 0.7061 826.9529 93.8795)" fill="#999999" width="4.628" height="0.922"/>
			<circle fill="#333333" cx="296.62" cy="1040.519" r="3.993"/>
			<ellipse fill="#333333" cx="280.591" cy="1040.519" rx="6.58" ry="4.946"/>
			<circle fill="#333333" cx="289.799" cy="1040.518" r="3.598"/>
		</g>
	</g>
	<g>
		<g>
			<polygon fill="#999999" points="70.643,1018.188 68.297,1011.932 69.182,1011.67 71.526,1017.928 			"/>
			<polygon fill="#999999" points="73.656,1021.352 70.643,1018.188 71.431,1017.631 74.342,1020.734 			"/>
			<polygon fill="#999999" points="66.02,1018.111 66.725,1011.545 67.644,1011.623 66.938,1018.189 			"/>
			<polygon fill="#999999" points="67.679,1022.152 66.02,1018.111 66.947,1017.857 68.541,1021.826 			"/>
			<polygon fill="#999999" points="62.078,1017.684 65.021,1011.629 65.884,1011.955 62.939,1018.012 			"/>
			<polygon fill="#999999" points="62.567,1022.025 62.078,1017.684 63.054,1017.717 63.485,1021.949 			"/>
			<polygon fill="#999999" points="70.643,1002.893 68.297,1009.148 69.182,1009.41 71.526,1003.152 			"/>
			<polygon fill="#999999" points="73.656,999.729 70.643,1002.893 71.431,1003.449 74.342,1000.346 			"/>
			<polygon fill="#999999" points="66.02,1002.969 66.725,1009.535 67.644,1009.457 66.938,1002.891 			"/>
			<polygon fill="#999999" points="67.679,998.928 66.02,1002.969 66.947,1003.221 68.541,999.254 			"/>
			<polygon fill="#999999" points="62.078,1003.395 65.021,1009.451 65.884,1009.125 62.939,1003.068 			"/>
			<polygon fill="#999999" points="62.567,999.053 62.078,1003.395 63.054,1003.363 63.485,999.131 			"/>
			
				<rect x="75.263" y="1006.999" transform="matrix(0.7061 -0.7082 0.7082 0.7061 -690.6403 351.0787)" fill="#999999" width="4.628" height="0.922"/>
			
				<rect x="75.263" y="1012.456" transform="matrix(0.7061 0.7082 -0.7082 0.7061 740.1119 242.8093)" fill="#999999" width="4.628" height="0.922"/>
			<circle fill="#333333" cx="73.804" cy="1010.377" r="3.992"/>
			<ellipse fill="#333333" cx="57.775" cy="1010.377" rx="6.58" ry="4.947"/>
			<circle fill="#333333" cx="66.983" cy="1010.377" r="3.598"/>
		</g>
		<g>
			<polygon fill="#999999" points="107.778,1018.188 105.434,1011.932 106.317,1011.67 108.662,1017.928 			"/>
			<polygon fill="#999999" points="110.793,1021.352 107.778,1018.188 108.566,1017.631 111.478,1020.734 			"/>
			<polygon fill="#999999" points="103.155,1018.111 103.86,1011.545 104.779,1011.623 104.073,1018.189 			"/>
			<polygon fill="#999999" points="104.814,1022.152 103.155,1018.111 104.083,1017.857 105.678,1021.826 			"/>
			<polygon fill="#999999" points="99.215,1017.684 102.158,1011.629 103.02,1011.955 100.076,1018.012 			"/>
			<polygon fill="#999999" points="99.703,1022.025 99.215,1017.684 100.189,1017.717 100.622,1021.949 			"/>
			<polygon fill="#999999" points="107.778,1002.893 105.434,1009.148 106.317,1009.41 108.662,1003.152 			"/>
			<polygon fill="#999999" points="110.793,999.729 107.778,1002.893 108.566,1003.449 111.478,1000.346 			"/>
			<polygon fill="#999999" points="103.155,1002.969 103.86,1009.535 104.779,1009.457 104.073,1002.891 			"/>
			<polygon fill="#999999" points="104.814,998.928 103.155,1002.969 104.083,1003.221 105.678,999.254 			"/>
			<polygon fill="#999999" points="99.215,1003.395 102.158,1009.451 103.02,1009.125 100.076,1003.068 			"/>
			<polygon fill="#999999" points="99.703,999.053 99.215,1003.395 100.189,1003.363 100.622,999.131 			"/>
			
				<rect x="112.399" y="1006.999" transform="matrix(0.7062 -0.7081 0.7081 0.7062 -679.63 377.2584)" fill="#999999" width="4.629" height="0.922"/>
			
				<rect x="112.399" y="1012.456" transform="matrix(0.7062 0.7081 -0.7081 0.7062 750.9091 216.4158)" fill="#999999" width="4.629" height="0.922"/>
			<circle fill="#333333" cx="110.939" cy="1010.377" r="3.992"/>
			<ellipse fill="#333333" cx="94.912" cy="1010.377" rx="6.581" ry="4.947"/>
			<circle fill="#333333" cx="104.119" cy="1010.377" r="3.598"/>
		</g>
		<g>
			<polygon fill="#999999" points="144.915,1018.188 142.569,1011.932 143.454,1011.67 145.799,1017.928 			"/>
			<polygon fill="#999999" points="147.929,1021.352 144.915,1018.188 145.703,1017.631 148.614,1020.734 			"/>
			<polygon fill="#999999" points="140.292,1018.111 140.997,1011.545 141.916,1011.623 141.21,1018.189 			"/>
			<polygon fill="#999999" points="141.951,1022.152 140.292,1018.111 141.22,1017.857 142.813,1021.826 			"/>
			<polygon fill="#999999" points="136.351,1017.684 139.294,1011.629 140.156,1011.955 137.212,1018.012 			"/>
			<polygon fill="#999999" points="136.84,1022.025 136.351,1017.684 137.326,1017.717 137.758,1021.949 			"/>
			<polygon fill="#999999" points="144.915,1002.893 142.569,1009.148 143.454,1009.41 145.799,1003.152 			"/>
			<polygon fill="#999999" points="147.929,999.729 144.915,1002.893 145.703,1003.449 148.614,1000.346 			"/>
			<polygon fill="#999999" points="140.292,1002.969 140.997,1009.535 141.916,1009.457 141.21,1002.891 			"/>
			<polygon fill="#999999" points="141.951,998.928 140.292,1002.969 141.22,1003.221 142.813,999.254 			"/>
			<polygon fill="#999999" points="136.351,1003.395 139.294,1009.451 140.156,1009.125 137.212,1003.068 			"/>
			<polygon fill="#999999" points="136.84,999.053 136.351,1003.395 137.326,1003.363 137.758,999.131 			"/>
			
				<rect x="149.535" y="1006.999" transform="matrix(0.7061 -0.7082 0.7082 0.7061 -668.808 403.6755)" fill="#999999" width="4.628" height="0.922"/>
			
				<rect x="149.535" y="1012.456" transform="matrix(0.7061 0.7082 -0.7082 0.7061 761.9443 190.2124)" fill="#999999" width="4.628" height="0.922"/>
			<circle fill="#333333" cx="148.076" cy="1010.377" r="3.992"/>
			<ellipse fill="#333333" cx="132.048" cy="1010.377" rx="6.58" ry="4.947"/>
			<circle fill="#333333" cx="141.256" cy="1010.377" r="3.598"/>
		</g>
		<g>
			<polygon fill="#999999" points="182.049,1018.188 179.704,1011.932 180.588,1011.67 182.934,1017.928 			"/>
			<polygon fill="#999999" points="185.065,1021.352 182.049,1018.188 182.838,1017.631 185.749,1020.734 			"/>
			<polygon fill="#999999" points="177.426,1018.111 178.131,1011.545 179.051,1011.623 178.344,1018.189 			"/>
			<polygon fill="#999999" points="179.086,1022.152 177.426,1018.111 178.354,1017.857 179.948,1021.826 			"/>
			<polygon fill="#999999" points="173.487,1017.684 176.43,1011.629 177.292,1011.955 174.346,1018.012 			"/>
			<polygon fill="#999999" points="173.975,1022.025 173.487,1017.684 174.461,1017.717 174.893,1021.949 			"/>
			<polygon fill="#999999" points="182.049,1002.893 179.704,1009.148 180.588,1009.41 182.934,1003.152 			"/>
			<polygon fill="#999999" points="185.065,999.729 182.049,1002.893 182.838,1003.449 185.749,1000.346 			"/>
			<polygon fill="#999999" points="177.426,1002.969 178.131,1009.535 179.051,1009.457 178.344,1002.891 			"/>
			<polygon fill="#999999" points="179.086,998.928 177.426,1002.969 178.354,1003.221 179.948,999.254 			"/>
			<polygon fill="#999999" points="173.487,1003.395 176.43,1009.451 177.292,1009.125 174.346,1003.068 			"/>
			<polygon fill="#999999" points="173.975,999.053 173.487,1003.395 174.461,1003.363 174.893,999.131 			"/>
			
				<rect x="186.67" y="1006.999" transform="matrix(0.7063 -0.708 0.708 0.7063 -657.7194 429.7206)" fill="#999999" width="4.629" height="0.921"/>
			
				<rect x="186.67" y="1012.456" transform="matrix(0.7063 0.708 -0.708 0.7063 772.6066 163.7399)" fill="#999999" width="4.629" height="0.921"/>
			<circle fill="#333333" cx="185.211" cy="1010.377" r="3.992"/>
			<ellipse fill="#333333" cx="169.184" cy="1010.377" rx="6.582" ry="4.947"/>
			<circle fill="#333333" cx="178.391" cy="1010.377" r="3.598"/>
		</g>
		<g>
			<polygon fill="#999999" points="219.186,1018.188 216.84,1011.932 217.725,1011.67 220.07,1017.928 			"/>
			<polygon fill="#999999" points="222.2,1021.352 219.186,1018.188 219.974,1017.631 222.885,1020.734 			"/>
			<polygon fill="#999999" points="214.563,1018.111 215.268,1011.545 216.187,1011.623 215.481,1018.189 			"/>
			<polygon fill="#999999" points="216.222,1022.152 214.563,1018.111 215.491,1017.857 217.084,1021.826 			"/>
			<polygon fill="#999999" points="210.622,1017.684 213.565,1011.629 214.427,1011.955 211.483,1018.012 			"/>
			<polygon fill="#999999" points="211.111,1022.025 210.622,1017.684 211.597,1017.717 212.029,1021.949 			"/>
			<polygon fill="#999999" points="219.186,1002.893 216.84,1009.148 217.725,1009.41 220.07,1003.152 			"/>
			<polygon fill="#999999" points="222.2,999.729 219.186,1002.893 219.974,1003.449 222.885,1000.346 			"/>
			<polygon fill="#999999" points="214.563,1002.969 215.268,1009.535 216.187,1009.457 215.481,1002.891 			"/>
			<polygon fill="#999999" points="216.222,998.928 214.563,1002.969 215.491,1003.221 217.084,999.254 			"/>
			<polygon fill="#999999" points="210.622,1003.395 213.565,1009.451 214.427,1009.125 211.483,1003.068 			"/>
			<polygon fill="#999999" points="211.111,999.053 210.622,1003.395 211.597,1003.363 212.029,999.131 			"/>
			
				<rect x="223.806" y="1006.999" transform="matrix(0.7061 -0.7082 0.7082 0.7061 -646.9761 456.2714)" fill="#999999" width="4.628" height="0.922"/>
			
				<rect x="223.806" y="1012.456" transform="matrix(0.7061 0.7082 -0.7082 0.7061 783.7761 137.6166)" fill="#999999" width="4.628" height="0.922"/>
			<circle fill="#333333" cx="222.347" cy="1010.377" r="3.992"/>
			<ellipse fill="#333333" cx="206.319" cy="1010.377" rx="6.58" ry="4.947"/>
			<circle fill="#333333" cx="215.527" cy="1010.377" r="3.598"/>
		</g>
		<g>
			<polygon fill="#999999" points="256.322,1018.188 253.977,1011.932 254.861,1011.67 257.206,1017.928 			"/>
			<polygon fill="#999999" points="259.336,1021.352 256.322,1018.188 257.11,1017.631 260.021,1020.734 			"/>
			<polygon fill="#999999" points="251.699,1018.111 252.404,1011.545 253.323,1011.623 252.617,1018.189 			"/>
			<polygon fill="#999999" points="253.358,1022.152 251.699,1018.111 252.626,1017.857 254.221,1021.826 			"/>
			<polygon fill="#999999" points="247.758,1017.684 250.702,1011.629 251.563,1011.955 248.62,1018.012 			"/>
			<polygon fill="#999999" points="248.247,1022.025 247.758,1017.684 248.733,1017.717 249.166,1021.949 			"/>
			<polygon fill="#999999" points="256.322,1002.893 253.977,1009.148 254.861,1009.41 257.206,1003.152 			"/>
			<polygon fill="#999999" points="259.336,999.729 256.322,1002.893 257.11,1003.449 260.021,1000.346 			"/>
			<polygon fill="#999999" points="251.699,1002.969 252.404,1009.535 253.323,1009.457 252.617,1002.891 			"/>
			<polygon fill="#999999" points="253.358,998.928 251.699,1002.969 252.626,1003.221 254.221,999.254 			"/>
			<polygon fill="#999999" points="247.758,1003.395 250.702,1009.451 251.563,1009.125 248.62,1003.068 			"/>
			<polygon fill="#999999" points="248.247,999.053 247.758,1003.395 248.733,1003.363 249.166,999.131 			"/>
			
				<rect x="260.942" y="1006.999" transform="matrix(0.7062 -0.7081 0.7081 0.7062 -635.9816 482.4354)" fill="#999999" width="4.629" height="0.922"/>
			
				<rect x="260.942" y="1012.456" transform="matrix(0.7062 0.7081 -0.7081 0.7062 794.5576 111.2388)" fill="#999999" width="4.629" height="0.922"/>
			<circle fill="#333333" cx="259.483" cy="1010.377" r="3.992"/>
			<ellipse fill="#333333" cx="243.456" cy="1010.377" rx="6.581" ry="4.947"/>
			<circle fill="#333333" cx="252.663" cy="1010.377" r="3.598"/>
		</g>
		<g>
			<polygon fill="#999999" points="293.458,1018.188 291.113,1011.932 291.998,1011.67 294.342,1017.928 			"/>
			<polygon fill="#999999" points="296.472,1021.352 293.458,1018.188 294.247,1017.631 297.158,1020.734 			"/>
			<polygon fill="#999999" points="288.835,1018.111 289.541,1011.545 290.459,1011.623 289.753,1018.189 			"/>
			<polygon fill="#999999" points="290.495,1022.152 288.835,1018.111 289.763,1017.857 291.357,1021.826 			"/>
			<polygon fill="#999999" points="284.894,1017.684 287.837,1011.629 288.7,1011.955 285.755,1018.012 			"/>
			<polygon fill="#999999" points="285.383,1022.025 284.894,1017.684 285.87,1017.717 286.301,1021.949 			"/>
			<polygon fill="#999999" points="293.458,1002.893 291.113,1009.148 291.998,1009.41 294.342,1003.152 			"/>
			<polygon fill="#999999" points="296.472,999.729 293.458,1002.893 294.247,1003.449 297.158,1000.346 			"/>
			<polygon fill="#999999" points="288.835,1002.969 289.541,1009.535 290.459,1009.457 289.753,1002.891 			"/>
			<polygon fill="#999999" points="290.495,998.928 288.835,1002.969 289.763,1003.221 291.357,999.254 			"/>
			<polygon fill="#999999" points="284.894,1003.395 287.837,1009.451 288.7,1009.125 285.755,1003.068 			"/>
			<polygon fill="#999999" points="285.383,999.053 284.894,1003.395 285.87,1003.363 286.301,999.131 			"/>
			
				<rect x="298.079" y="1006.999" transform="matrix(0.7061 -0.7082 0.7082 0.7061 -625.1438 508.8682)" fill="#999999" width="4.628" height="0.922"/>
			
				<rect x="298.079" y="1012.456" transform="matrix(0.7061 0.7082 -0.7082 0.7061 805.6085 85.0197)" fill="#999999" width="4.628" height="0.922"/>
			<circle fill="#333333" cx="296.62" cy="1010.377" r="3.992"/>
			<ellipse fill="#333333" cx="280.591" cy="1010.377" rx="6.58" ry="4.947"/>
			<circle fill="#333333" cx="289.799" cy="1010.377" r="3.598"/>
		</g>
	</g>
	<g>
		<g>
			<polygon fill="#999999" points="70.643,988.047 68.297,981.79 69.182,981.529 71.526,987.787 			"/>
			<polygon fill="#999999" points="73.656,991.21 70.643,988.047 71.431,987.49 74.342,990.594 			"/>
			<polygon fill="#999999" points="66.02,987.97 66.725,981.404 67.644,981.482 66.938,988.049 			"/>
			<polygon fill="#999999" points="67.679,992.012 66.02,987.97 66.947,987.717 68.541,991.686 			"/>
			<polygon fill="#999999" points="62.078,987.543 65.021,981.487 65.884,981.814 62.939,987.871 			"/>
			<polygon fill="#999999" points="62.567,991.885 62.078,987.543 63.054,987.575 63.485,991.809 			"/>
			<polygon fill="#999999" points="70.643,972.751 68.297,979.008 69.182,979.27 71.526,973.012 			"/>
			<polygon fill="#999999" points="73.656,969.588 70.643,972.751 71.431,973.308 74.342,970.204 			"/>
			<polygon fill="#999999" points="66.02,972.828 66.725,979.394 67.644,979.315 66.938,972.75 			"/>
			<polygon fill="#999999" points="67.679,968.786 66.02,972.828 66.947,973.08 68.541,969.112 			"/>
			<polygon fill="#999999" points="62.078,973.254 65.021,979.311 65.884,978.983 62.939,972.928 			"/>
			<polygon fill="#999999" points="62.567,968.912 62.078,973.254 63.054,973.223 63.485,968.99 			"/>
			
				<rect x="75.263" y="976.858" transform="matrix(0.7061 -0.7082 0.7082 0.7061 -669.2955 342.2188)" fill="#999999" width="4.628" height="0.923"/>
			
				<rect x="75.263" y="982.315" transform="matrix(0.7062 0.7081 -0.7081 0.7062 718.6556 233.8538)" fill="#999999" width="4.627" height="0.922"/>
			<circle fill="#333333" cx="73.804" cy="980.236" r="3.993"/>
			<ellipse fill="#333333" cx="57.775" cy="980.236" rx="6.58" ry="4.947"/>
			<circle fill="#333333" cx="66.983" cy="980.236" r="3.598"/>
		</g>
		<g>
			<polygon fill="#999999" points="107.778,988.047 105.434,981.79 106.317,981.529 108.662,987.787 			"/>
			<polygon fill="#999999" points="110.793,991.21 107.778,988.047 108.566,987.49 111.478,990.594 			"/>
			<polygon fill="#999999" points="103.155,987.97 103.86,981.404 104.779,981.482 104.073,988.049 			"/>
			<polygon fill="#999999" points="104.814,992.012 103.155,987.97 104.083,987.717 105.678,991.686 			"/>
			<polygon fill="#999999" points="99.215,987.543 102.158,981.487 103.02,981.814 100.076,987.871 			"/>
			<polygon fill="#999999" points="99.703,991.885 99.215,987.543 100.189,987.575 100.622,991.809 			"/>
			<polygon fill="#999999" points="107.778,972.751 105.434,979.008 106.317,979.27 108.662,973.012 			"/>
			<polygon fill="#999999" points="110.793,969.588 107.778,972.751 108.566,973.308 111.478,970.204 			"/>
			<polygon fill="#999999" points="103.155,972.828 103.86,979.394 104.779,979.315 104.073,972.75 			"/>
			<polygon fill="#999999" points="104.814,968.786 103.155,972.828 104.083,973.08 105.678,969.112 			"/>
			<polygon fill="#999999" points="99.215,973.254 102.158,979.311 103.02,978.983 100.076,972.928 			"/>
			<polygon fill="#999999" points="99.703,968.912 99.215,973.254 100.189,973.223 100.622,968.99 			"/>
			
				<rect x="112.399" y="976.858" transform="matrix(0.7062 -0.7081 0.7081 0.7062 -658.2885 368.4017)" fill="#999999" width="4.629" height="0.923"/>
			
				<rect x="112.399" y="982.315" transform="matrix(0.7063 0.708 -0.708 0.7063 729.452 207.4674)" fill="#999999" width="4.628" height="0.922"/>
			<circle fill="#333333" cx="110.939" cy="980.236" r="3.993"/>
			<ellipse fill="#333333" cx="94.912" cy="980.236" rx="6.581" ry="4.947"/>
			<circle fill="#333333" cx="104.119" cy="980.236" r="3.598"/>
		</g>
		<g>
			<polygon fill="#999999" points="144.915,988.047 142.569,981.79 143.454,981.529 145.799,987.787 			"/>
			<polygon fill="#999999" points="147.929,991.21 144.915,988.047 145.703,987.49 148.614,990.594 			"/>
			<polygon fill="#999999" points="140.292,987.97 140.997,981.404 141.916,981.482 141.21,988.049 			"/>
			<polygon fill="#999999" points="141.951,992.012 140.292,987.97 141.22,987.717 142.813,991.686 			"/>
			<polygon fill="#999999" points="136.351,987.543 139.294,981.487 140.156,981.814 137.212,987.871 			"/>
			<polygon fill="#999999" points="136.84,991.885 136.351,987.543 137.326,987.575 137.758,991.809 			"/>
			<polygon fill="#999999" points="144.915,972.751 142.569,979.008 143.454,979.27 145.799,973.012 			"/>
			<polygon fill="#999999" points="147.929,969.588 144.915,972.751 145.703,973.308 148.614,970.204 			"/>
			<polygon fill="#999999" points="140.292,972.828 140.997,979.394 141.916,979.315 141.21,972.75 			"/>
			<polygon fill="#999999" points="141.951,968.786 140.292,972.828 141.22,973.08 142.813,969.112 			"/>
			<polygon fill="#999999" points="136.351,973.254 139.294,979.311 140.156,978.983 137.212,972.928 			"/>
			<polygon fill="#999999" points="136.84,968.912 136.351,973.254 137.326,973.223 137.758,968.99 			"/>
			
				<rect x="149.535" y="976.858" transform="matrix(0.7061 -0.7082 0.7082 0.7061 -647.4632 394.8156)" fill="#999999" width="4.628" height="0.923"/>
			
				<rect x="149.535" y="982.315" transform="matrix(0.7062 0.7081 -0.7081 0.7062 740.4801 181.2647)" fill="#999999" width="4.627" height="0.922"/>
			<circle fill="#333333" cx="148.076" cy="980.236" r="3.993"/>
			<ellipse fill="#333333" cx="132.048" cy="980.236" rx="6.58" ry="4.947"/>
			<circle fill="#333333" cx="141.256" cy="980.236" r="3.598"/>
		</g>
		<g>
			<polygon fill="#999999" points="219.186,988.047 216.84,981.79 217.725,981.529 220.07,987.787 			"/>
			<polygon fill="#999999" points="222.2,991.21 219.186,988.047 219.974,987.49 222.885,990.594 			"/>
			<polygon fill="#999999" points="214.563,987.97 215.268,981.404 216.187,981.482 215.481,988.049 			"/>
			<polygon fill="#999999" points="216.222,992.012 214.563,987.97 215.491,987.717 217.084,991.686 			"/>
			<polygon fill="#999999" points="210.622,987.543 213.565,981.487 214.427,981.814 211.483,987.871 			"/>
			<polygon fill="#999999" points="211.111,991.885 210.622,987.543 211.597,987.575 212.029,991.809 			"/>
			<polygon fill="#999999" points="219.186,972.751 216.84,979.008 217.725,979.27 220.07,973.012 			"/>
			<polygon fill="#999999" points="222.2,969.588 219.186,972.751 219.974,973.308 222.885,970.204 			"/>
			<polygon fill="#999999" points="214.563,972.828 215.268,979.394 216.187,979.315 215.481,972.75 			"/>
			<polygon fill="#999999" points="216.222,968.786 214.563,972.828 215.491,973.08 217.084,969.112 			"/>
			<polygon fill="#999999" points="210.622,973.254 213.565,979.311 214.427,978.983 211.483,972.928 			"/>
			<polygon fill="#999999" points="211.111,968.912 210.622,973.254 211.597,973.223 212.029,968.99 			"/>
			
				<rect x="223.806" y="976.858" transform="matrix(0.7061 -0.7082 0.7082 0.7061 -625.6313 447.4114)" fill="#999999" width="4.628" height="0.923"/>
			
				<rect x="223.806" y="982.315" transform="matrix(0.7062 0.7081 -0.7081 0.7062 762.3042 128.6767)" fill="#999999" width="4.627" height="0.922"/>
			<circle fill="#333333" cx="222.347" cy="980.236" r="3.993"/>
			<ellipse fill="#333333" cx="206.319" cy="980.236" rx="6.58" ry="4.947"/>
			<circle fill="#333333" cx="215.527" cy="980.236" r="3.598"/>
		</g>
		<g>
			<polygon fill="#999999" points="256.322,988.047 253.977,981.79 254.861,981.529 257.206,987.787 			"/>
			<polygon fill="#999999" points="259.336,991.21 256.322,988.047 257.11,987.49 260.021,990.594 			"/>
			<polygon fill="#999999" points="251.699,987.97 252.404,981.404 253.323,981.482 252.617,988.049 			"/>
			<polygon fill="#999999" points="253.358,992.012 251.699,987.97 252.626,987.717 254.221,991.686 			"/>
			<polygon fill="#999999" points="247.758,987.543 250.702,981.487 251.563,981.814 248.62,987.871 			"/>
			<polygon fill="#999999" points="248.247,991.885 247.758,987.543 248.733,987.575 249.166,991.809 			"/>
			<polygon fill="#999999" points="256.322,972.751 253.977,979.008 254.861,979.27 257.206,973.012 			"/>
			<polygon fill="#999999" points="259.336,969.588 256.322,972.751 257.11,973.308 260.021,970.204 			"/>
			<polygon fill="#999999" points="251.699,972.828 252.404,979.394 253.323,979.315 252.617,972.75 			"/>
			<polygon fill="#999999" points="253.358,968.786 251.699,972.828 252.626,973.08 254.221,969.112 			"/>
			<polygon fill="#999999" points="247.758,973.254 250.702,979.311 251.563,978.983 248.62,972.928 			"/>
			<polygon fill="#999999" points="248.247,968.912 247.758,973.254 248.733,973.223 249.166,968.99 			"/>
			
				<rect x="260.942" y="976.858" transform="matrix(0.7062 -0.7081 0.7081 0.7062 -614.6399 473.5787)" fill="#999999" width="4.629" height="0.923"/>
			
				<rect x="260.942" y="982.315" transform="matrix(0.7063 0.708 -0.708 0.7063 773.0848 102.306)" fill="#999999" width="4.628" height="0.922"/>
			<circle fill="#333333" cx="259.483" cy="980.236" r="3.993"/>
			<ellipse fill="#333333" cx="243.456" cy="980.236" rx="6.581" ry="4.947"/>
			<circle fill="#333333" cx="252.663" cy="980.236" r="3.598"/>
		</g>
		<g>
			<polygon fill="#999999" points="293.458,988.047 291.113,981.79 291.998,981.529 294.342,987.787 			"/>
			<polygon fill="#999999" points="296.472,991.21 293.458,988.047 294.247,987.49 297.158,990.594 			"/>
			<polygon fill="#999999" points="288.835,987.97 289.541,981.404 290.459,981.482 289.753,988.049 			"/>
			<polygon fill="#999999" points="290.495,992.012 288.835,987.97 289.763,987.717 291.357,991.686 			"/>
			<polygon fill="#999999" points="284.894,987.543 287.837,981.487 288.7,981.814 285.755,987.871 			"/>
			<polygon fill="#999999" points="285.383,991.885 284.894,987.543 285.87,987.575 286.301,991.809 			"/>
			<polygon fill="#999999" points="293.458,972.751 291.113,979.008 291.998,979.27 294.342,973.012 			"/>
			<polygon fill="#999999" points="296.472,969.588 293.458,972.751 294.247,973.308 297.158,970.204 			"/>
			<polygon fill="#999999" points="288.835,972.828 289.541,979.394 290.459,979.315 289.753,972.75 			"/>
			<polygon fill="#999999" points="290.495,968.786 288.835,972.828 289.763,973.08 291.357,969.112 			"/>
			<polygon fill="#999999" points="284.894,973.254 287.837,979.311 288.7,978.983 285.755,972.928 			"/>
			<polygon fill="#999999" points="285.383,968.912 284.894,973.254 285.87,973.223 286.301,968.99 			"/>
			
				<rect x="298.079" y="976.858" transform="matrix(0.7061 -0.7082 0.7082 0.7061 -603.799 500.0083)" fill="#999999" width="4.628" height="0.923"/>
			
				<rect x="298.079" y="982.315" transform="matrix(0.7062 0.7081 -0.7081 0.7062 784.1287 76.0876)" fill="#999999" width="4.627" height="0.922"/>
			<circle fill="#333333" cx="296.62" cy="980.236" r="3.993"/>
			<ellipse fill="#333333" cx="280.591" cy="980.236" rx="6.58" ry="4.947"/>
			<circle fill="#333333" cx="289.799" cy="980.236" r="3.598"/>
		</g>
		<g>
			<polygon fill="#999999" points="182.049,988.047 179.704,981.79 180.588,981.529 182.934,987.787 			"/>
			<polygon fill="#999999" points="185.065,991.21 182.049,988.047 182.838,987.49 185.749,990.594 			"/>
			<polygon fill="#999999" points="177.426,987.97 178.131,981.404 179.051,981.482 178.344,988.049 			"/>
			<polygon fill="#999999" points="179.086,992.012 177.426,987.97 178.354,987.717 179.948,991.686 			"/>
			<polygon fill="#999999" points="173.487,987.543 176.43,981.487 177.292,981.814 174.346,987.871 			"/>
			<polygon fill="#999999" points="173.975,991.885 173.487,987.543 174.461,987.575 174.893,991.809 			"/>
			<polygon fill="#999999" points="182.049,972.751 179.704,979.008 180.588,979.27 182.934,973.012 			"/>
			<polygon fill="#999999" points="185.065,969.588 182.049,972.751 182.838,973.308 185.749,970.204 			"/>
			<polygon fill="#999999" points="177.426,972.828 178.131,979.394 179.051,979.315 178.344,972.75 			"/>
			<polygon fill="#999999" points="179.086,968.786 177.426,972.828 178.354,973.08 179.948,969.112 			"/>
			<polygon fill="#999999" points="173.487,973.254 176.43,979.311 177.292,978.983 174.346,972.928 			"/>
			<polygon fill="#999999" points="173.975,968.912 173.487,973.254 174.461,973.223 174.893,968.99 			"/>
			
				<rect x="186.67" y="976.858" transform="matrix(0.7063 -0.708 0.708 0.7063 -636.381 420.8671)" fill="#999999" width="4.629" height="0.922"/>
			
				<rect x="186.671" y="982.315" transform="matrix(0.7064 0.7078 -0.7078 0.7064 751.1448 154.8025)" fill="#999999" width="4.629" height="0.921"/>
			<circle fill="#333333" cx="185.211" cy="980.236" r="3.993"/>
			<ellipse fill="#333333" cx="169.184" cy="980.236" rx="6.582" ry="4.947"/>
			<circle fill="#333333" cx="178.391" cy="980.236" r="3.598"/>
		</g>
	</g>
</g>
</svg>
