<?xml version="1.0" encoding="utf-8"?>
<!-- Generator: Adobe Illustrator 16.0.0, SVG Export Plug-In . SVG Version: 6.00 Build 0)  -->
<!DOCTYPE svg PUBLIC "-//W3C//DTD SVG 1.1//EN" "http://www.w3.org/Graphics/SVG/1.1/DTD/svg11.dtd">
<svg version="1.1" id="Layer_1" xmlns="http://www.w3.org/2000/svg" xmlns:xlink="http://www.w3.org/1999/xlink" x="0px" y="0px"
	 width="1058.553px" height="409.89px" viewBox="0 0 1058.553 409.89" enable-background="new 0 0 1058.553 409.89"
	 xml:space="preserve">
<defs>
<style type="text/css">@import url('http://fonts.googleapis.com/css?family=Roboto+Condensed:400,400italic,700|Roboto:400,700,500');</style>
</defs>	 
<circle fill="#E2E2E2" cx="144.553" cy="140.166" r="140.166"/>
<circle fill="#E2E2E2" cx="504.553" cy="139.166" r="139.166"/>
<circle fill="#E2E2E2" cx="876.553" cy="165.318" r="165.318"/>
<g>
	<rect x="49.308" y="56.4" fill="none" width="190.49" height="18.133"/>
	<text transform="matrix(1 0 0 1 51.563 73.1196)" fill="#333333" font-family="'Roboto', sans-serif" font-weight="500" font-size="22">Uma Rede Pública</text>
</g>
<g>
	<rect x="436.762" y="43.869" fill="none" width="135.582" height="43.195"/>
	<text transform="matrix(1 0 0 1 452.5068 60.5884)"><tspan x="0" y="0" fill="#333333" font-family="'Roboto', sans-serif" font-weight="500" font-size="22">Incentivos </tspan><tspan x="-9.491" y="26.4" fill="#333333" font-family="'Roboto', sans-serif" font-weight="500" font-size="22">Econômicos</tspan></text>
</g>
<g>
	<rect x="763.278" y="49.178" fill="none" width="226.549" height="72.578"/>
	<text transform="matrix(1 0 0 1 796.4268 65.8965)"><tspan x="0" y="0" fill="#333333" font-family="'Roboto', sans-serif" font-weight="500" font-size="22">Manutenção de </tspan><tspan x="-15.409" y="26.4" fill="#333333" font-family="'Roboto', sans-serif" font-weight="500" font-size="22">Consenso Sem um </tspan><tspan x="-30.19" y="52.8" fill="#333333" font-family="'Roboto', sans-serif" font-weight="500" font-size="22">Intermediário Central</tspan></text>
</g>
<g>
	<rect y="297.168" fill="none" width="289.105" height="112.722"/>
	<text transform="matrix(1 0 0 1 85.4595 310.8477)"><tspan x="0" y="0" fill="#333333" font-family="'Roboto', sans-serif" font-size="18">Mais Usuários</tspan><tspan x="53.947" y="21.601" fill="#333333" font-family="'Roboto', sans-serif" font-size="18">= </tspan><tspan x="-68.291" y="43.2" fill="#333333" font-family="'Roboto', sans-serif" font-size="18">Mais Poder de Processamento</tspan><tspan x="53.947" y="64.8" fill="#333333" font-family="'Roboto', sans-serif" font-size="18">= </tspan><tspan x="-6.882" y="86.4" fill="#333333" font-family="'Roboto', sans-serif" font-size="18">Mais Segurança</tspan></text>
</g>
<g>
	
		<line fill="none" stroke="#EEA315" stroke-width="2" stroke-miterlimit="10" stroke-dasharray="4" x1="122.327" y1="130.453" x2="198.848" y2="181.332"/>
	
		<line fill="none" stroke="#EEA315" stroke-width="2" stroke-miterlimit="10" stroke-dasharray="4" x1="166.674" y1="130.434" x2="90.154" y2="181.373"/>
	
		<line fill="none" stroke="#EEA315" stroke-width="2" stroke-miterlimit="10" stroke-dasharray="4" x1="166.674" y1="130.434" x2="144.5" y2="215.441"/>
	
		<line fill="none" stroke="#EEA315" stroke-width="2" stroke-miterlimit="10" stroke-dasharray="4" x1="122.327" y1="130.453" x2="144.5" y2="215.441"/>
	<polygon fill="none" stroke="#EEA315" stroke-width="2" stroke-miterlimit="10" stroke-dasharray="4" points="122.327,130.453 
		166.674,130.434 198.848,181.332 144.5,215.441 90.154,181.373 	"/>
	<g>
		<circle fill="#333333" cx="90.2" cy="165.333" r="4.324"/>
		<path fill="#333333" d="M99.211,173.464c0,1.167-1.99,1.673-2.971,1.673l-12.328,0.005c-0.98,0.001-2.813-0.305-2.814-1.475l0,0
			c0-1.165,3.591-2.752,4.573-2.753l9.062-0.003C95.716,170.911,99.21,172.297,99.211,173.464L99.211,173.464z"/>
		<path fill="#333333" d="M96.09,189.064c0.001,0.927,0.75,1.674,1.673,1.674l0,0c0.927-0.001,1.674-0.749,1.674-1.674
			l-0.007-14.783c-0.001-0.924-0.749-1.674-1.674-1.675l0,0c-0.924,0.001-1.674,0.753-1.673,1.676L96.09,189.064z"/>
		<path fill="#333333" d="M91.334,205.5c0.001,0.923,0.75,1.672,1.673,1.673l0,0c0.925-0.001,1.674-0.751,1.673-1.674l-0.007-14.784
			c-0.001-0.926-0.749-1.674-1.674-1.674l0,0c-0.924,0.002-1.673,0.751-1.672,1.676L91.334,205.5z"/>
		<path fill="#333333" d="M85.754,205.503c0.001,0.923,0.751,1.673,1.677,1.671l0,0c0.923,0.001,1.673-0.748,1.673-1.674
			l-0.007-14.781c-0.001-0.926-0.753-1.675-1.673-1.676l0,0c-0.928,0.001-1.676,0.751-1.676,1.676L85.754,205.503z"/>
		<path fill="#333333" d="M80.985,189.073c0,0.924,0.747,1.673,1.673,1.671l0,0c0.925,0,1.673-0.749,1.674-1.673l-0.007-14.783
			c-0.001-0.924-0.752-1.674-1.675-1.672l0,0c-0.926-0.002-1.673,0.751-1.673,1.673L80.985,189.073z"/>
		<rect x="85.743" y="171.75" fill="#333333" width="8.926" height="19.246"/>
	</g>
	<g>
		<circle fill="#333333" cx="122.373" cy="114.416" r="4.324"/>
		<path fill="#333333" d="M131.385,122.544c0,1.169-1.99,1.674-2.973,1.674l-12.327,0.005c-0.978,0.002-2.814-0.307-2.814-1.473l0,0
			c0-1.168,3.591-2.754,4.573-2.755l9.063-0.003C127.89,119.992,131.383,121.377,131.385,122.544L131.385,122.544z"/>
		<path fill="#333333" d="M128.264,138.146c0,0.926,0.749,1.673,1.674,1.673l0,0c0.926-0.001,1.673-0.749,1.673-1.674l-0.008-14.783
			c0-0.923-0.748-1.673-1.673-1.672l0,0c-0.925,0-1.673,0.751-1.673,1.674L128.264,138.146z"/>
		<path fill="#333333" d="M123.507,154.582c0,0.923,0.751,1.672,1.673,1.672l0,0c0.927-0.001,1.673-0.751,1.674-1.674l-0.007-14.783
			c-0.001-0.924-0.748-1.674-1.675-1.673l0,0c-0.923-0.001-1.673,0.749-1.671,1.674L123.507,154.582z"/>
		<path fill="#333333" d="M117.929,154.584c0.001,0.924,0.749,1.674,1.675,1.673l0,0c0.923-0.001,1.672-0.751,1.674-1.675
			l-0.008-14.781c-0.001-0.928-0.752-1.677-1.673-1.677l0,0c-0.927,0.002-1.675,0.753-1.675,1.677L117.929,154.584z"/>
		<path fill="#333333" d="M113.157,138.154c0.002,0.924,0.751,1.672,1.675,1.672l0,0c0.925,0,1.672-0.748,1.671-1.673l-0.007-14.783
			c0.001-0.925-0.749-1.673-1.674-1.673l0,0c-0.925,0-1.671,0.75-1.672,1.674L113.157,138.154z"/>
		<rect x="117.918" y="120.832" fill="#333333" width="8.923" height="19.245"/>
	</g>
	<g>
		<circle fill="#333333" cx="144.546" cy="199.403" r="4.324"/>
		<path fill="#333333" d="M153.558,207.532c0,1.169-1.991,1.675-2.972,1.675l-12.329,0.006c-0.979,0-2.812-0.307-2.812-1.474l0,0
			c-0.001-1.169,3.59-2.755,4.573-2.755l9.063-0.003C150.063,204.979,153.556,206.365,153.558,207.532L153.558,207.532z"/>
		<path fill="#333333" d="M150.435,223.137c0.001,0.925,0.751,1.67,1.676,1.67l0,0c0.925,0,1.673-0.748,1.673-1.672l-0.007-14.783
			c0-0.925-0.749-1.674-1.674-1.674l0,0c-0.925,0-1.675,0.752-1.674,1.674L150.435,223.137z"/>
		<path fill="#333333" d="M145.679,239.57c0.002,0.922,0.752,1.671,1.675,1.672l0,0c0.927-0.001,1.673-0.751,1.671-1.673
			l-0.006-14.785c0-0.924-0.746-1.674-1.674-1.673l0,0c-0.923,0-1.672,0.75-1.672,1.674L145.679,239.57z"/>
		<path fill="#333333" d="M140.103,239.571c0,0.925,0.749,1.673,1.675,1.673l0,0c0.922-0.001,1.672-0.749,1.672-1.673l-0.008-14.784
			c0.001-0.926-0.751-1.674-1.673-1.674l0,0c-0.926,0-1.673,0.75-1.674,1.676L140.103,239.571z"/>
		<path fill="#333333" d="M135.332,223.142c0,0.925,0.747,1.674,1.673,1.673l0,0c0.924-0.002,1.674-0.749,1.672-1.675l-0.007-14.781
			c0-0.925-0.75-1.674-1.674-1.673l0,0c-0.926-0.001-1.673,0.75-1.672,1.674L135.332,223.142z"/>
		<rect x="140.091" y="205.818" fill="#333333" width="8.923" height="19.246"/>
	</g>
	<g>
		<circle fill="#333333" cx="166.72" cy="114.395" r="4.324"/>
		<path fill="#333333" d="M175.729,122.523c0.002,1.168-1.987,1.673-2.97,1.674l-12.327,0.007c-0.98,0.001-2.813-0.308-2.814-1.476
			l0,0c0-1.166,3.59-2.752,4.572-2.753l9.064-0.005C172.236,119.971,175.73,121.357,175.729,122.523L175.729,122.523z"/>
		<path fill="#333333" d="M172.609,138.127c0,0.926,0.75,1.672,1.674,1.672l0,0c0.926,0,1.675-0.75,1.673-1.673l-0.007-14.784
			c0-0.923-0.75-1.673-1.676-1.672l0,0c-0.924,0-1.671,0.75-1.671,1.673L172.609,138.127z"/>
		<path fill="#333333" d="M167.852,154.562c0.001,0.923,0.753,1.673,1.674,1.672l0,0c0.926-0.002,1.675-0.75,1.673-1.674
			l-0.007-14.782c0-0.925-0.748-1.676-1.673-1.674l0,0c-0.923-0.002-1.675,0.749-1.674,1.674L167.852,154.562z"/>
		<path fill="#333333" d="M162.275,154.563c0,0.925,0.749,1.672,1.675,1.673l0,0c0.923-0.001,1.673-0.752,1.672-1.674l-0.007-14.783
			c0-0.926-0.751-1.676-1.674-1.674l0,0c-0.925-0.001-1.674,0.75-1.674,1.676L162.275,154.563z"/>
		<path fill="#333333" d="M157.506,138.133c-0.001,0.926,0.746,1.672,1.672,1.673l0,0c0.924-0.001,1.673-0.749,1.673-1.673
			l-0.007-14.783c-0.001-0.924-0.751-1.675-1.674-1.675l0,0c-0.926,0.002-1.673,0.752-1.672,1.677L157.506,138.133z"/>
		<rect x="162.264" y="120.811" fill="#333333" width="8.923" height="19.246"/>
	</g>
	<g>
		<circle fill="#333333" cx="198.891" cy="165.294" r="4.324"/>
		<path fill="#333333" d="M207.903,173.422c0,1.167-1.99,1.674-2.971,1.674l-12.33,0.006c-0.978,0-2.812-0.307-2.812-1.474l0,0
			c0-1.169,3.589-2.754,4.572-2.754l9.062-0.005C204.408,170.869,207.903,172.254,207.903,173.422L207.903,173.422z"/>
		<path fill="#333333" d="M204.781,189.024c0.001,0.926,0.751,1.673,1.676,1.673l0,0c0.925,0,1.671-0.749,1.671-1.673l-0.006-14.784
			c-0.001-0.924-0.748-1.674-1.673-1.673l0,0c-0.925-0.001-1.676,0.751-1.675,1.675L204.781,189.024z"/>
		<path fill="#333333" d="M200.022,205.46c0.002,0.921,0.755,1.672,1.677,1.671l0,0c0.926,0,1.673-0.75,1.673-1.674l-0.006-14.783
			c-0.002-0.925-0.75-1.674-1.676-1.674l0,0c-0.923,0-1.673,0.75-1.673,1.676L200.022,205.46z"/>
		<path fill="#333333" d="M194.448,205.463c-0.002,0.923,0.748,1.671,1.674,1.671l0,0c0.924,0,1.674-0.749,1.672-1.673
			l-0.004-14.783c-0.002-0.927-0.754-1.675-1.678-1.676l0,0c-0.924,0.001-1.671,0.751-1.671,1.676L194.448,205.463z"/>
		<path fill="#333333" d="M189.678,189.032c0,0.924,0.748,1.671,1.673,1.672l0,0c0.923-0.001,1.673-0.749,1.673-1.675l-0.007-14.782
			c0-0.923-0.751-1.673-1.674-1.673l0,0c-0.927,0-1.672,0.752-1.672,1.674L189.678,189.032z"/>
		<rect x="194.438" y="171.71" fill="#333333" width="8.924" height="19.245"/>
	</g>
</g>
<g>
	<path fill="#333333" d="M327.258,150.775h14.484v4.852h-14.484v14.977h-4.887v-14.977h-14.414v-4.852h14.414v-15.047h4.887V150.775
		z"/>
</g>
<g>
	<path fill="#333333" d="M662.152,148.385v-4.816h32.695v4.816H662.152z M662.152,162.764v-4.816h32.695v4.816H662.152z"/>
</g>
<g>
	<circle fill="#F7F7F7" cx="504.786" cy="175.082" r="63.333"/>
	<g>
		<defs>
			<circle id="SVGID_1_" cx="504.32" cy="175.082" r="63.333"/>
		</defs>
		<clipPath id="SVGID_2_">
			<use xlink:href="#SVGID_1_"  overflow="visible"/>
		</clipPath>
		<g clip-path="url(#SVGID_2_)">
			<path fill="#99A641" d="M504.423,156.637c0-5.678,11.972-31.844,7.024-32.184c-4.95-0.342-10.012,11.039-13.427,10.954
				c-3.413-0.085-7.75-5.496-12.187-4.13c-3.99,1.229,8.882,21.079,8.882,25.359c0,5.111-25.49,32.644-25.49,49.859
				c0,20.142,15.276,25.26,29.982,25.26s31.119-5.461,31.119-26.626C530.327,189.28,504.423,162.312,504.423,156.637z"/>
			<g>
				<rect x="527.553" y="149.666" fill="#FFCCB0" width="75" height="20"/>
				<path fill="#FFCCB0" d="M536.801,149.91c-5.164,0-14.407-4.982-18.125-10.561c0,0-3.926-3.912-7.643-4.117l-3.511,6.002
					l-0.921,35.323c0,0,11.429,0.425,16.722-4.882c1.896-1.9,5.783-1.938,11.773-1.938"/>
				<path fill="#FFCCB0" d="M509.553,143.998c0-1.576-1.416-2.332-2.951-2.332h-15.007c-1.536,0-4.042,0.756-4.042,2.332v28.564
					c0,1.578,2.506,4.104,4.042,4.104h15.007c1.535,0,2.951-2.525,2.951-4.104V143.998z"/>
				<path fill="#FFCCB0" d="M496.553,144.445c0-1.535-1.244-2.779-2.779-2.779h-7.441c-1.535,0-2.779,1.244-2.779,2.779v2.441
					c0,1.535,1.244,2.779,2.779,2.779h7.441c1.535,0,2.779-1.244,2.779-2.779V144.445z"/>
				<path fill="#FFCCB0" d="M496.553,153.446c0-1.535-1.244-2.78-2.779-2.78h-7.441c-1.535,0-2.779,1.245-2.779,2.78v1.439
					c0,1.535,1.244,2.78,2.779,2.78h7.441c1.535,0,2.779-1.245,2.779-2.78V153.446z"/>
				<path fill="#FFCCB0" d="M497.553,161.091c0-1.362-0.977-2.425-2.274-2.425h-8.398c-1.299,0-3.327,1.062-3.327,2.425v3.639
					c0,1.364,2.028,2.937,3.327,2.937h8.398c1.298,0,2.274-1.572,2.274-2.937V161.091z"/>
				<path fill="#FFCCB0" d="M497.553,171.495c0-1.573-0.944-2.829-2.459-2.829h-7.508c-1.515,0-4.033,1.256-4.033,2.829v1.171
					c0,1.572,2.519,4,4.033,4h7.508c1.515,0,2.459-2.428,2.459-4V171.495z"/>
				<path fill="#FFCCB0" d="M488.002,149.129c0.325,0,0.494,0.619,0.485,0.897c-0.015,0.346-0.066,1.083-0.506,1.083
					c-0.44,0,0.405,0.557,0.405,0.557h0.166v-3h-0.571L488.002,149.129z"/>
				<path fill="#FFCCB0" d="M487.93,156.961c0.382,0.029,0.484,1.277,0.484,1.497c0,0.221,0.069,1.22-0.324,1.22
					s0.062,0.289,0.062,0.289l1.287-0.06l-0.195-3.241h-1.262L487.93,156.961z"/>
				<path fill="#FFCCB0" d="M486.553,166.527c0,0,1.36,0.614,1.33,1.079c-0.018,0.277,0.244,0.962-0.137,0.962
					c-0.384,0,0.24,0.592,0.239,0.591l1.561-0.138l-0.896-3.087l-2.097-0.069V166.527z"/>
			</g>
			<text transform="matrix(1 0 0 1 491.0361 212.0215)" fill="#F7F7F7" font-family="'Roboto', sans-serif" font-size="30.5678">$</text>
		</g>
	</g>
</g>
<g>
	<rect x="367.616" y="300.666" fill="none" width="301.948" height="65"/>
	<text transform="matrix(1 0 0 1 367.6157 314.3457)"><tspan x="0" y="0" fill="#333333" font-family="'Roboto', sans-serif" font-size="18">A recompensa da mineração faz a </tspan><tspan x="0" y="21.601" fill="#333333" font-family="'Roboto', sans-serif" font-size="18">trapaça ser menos vantajosa do </tspan><tspan x="0" y="43.2" fill="#333333" font-family="'Roboto', sans-serif" font-size="18">que a colaboração honesta.</tspan></text>
</g>
<g>
	<path fill="#CCCCCC" d="M356,360.666c0,3.412,0.995,5.963,2.985,7.652c1.99,1.688,5.377,2.584,10.162,2.684v4.566
		c-6.524,0-11.166-1.255-13.924-3.763c-2.76-2.51-4.14-6.373-4.14-11.592v-16.909c0-6.856-3.847-10.354-11.541-10.486v-4.015
		c4.081-0.066,7.025-0.92,8.832-2.56c1.806-1.639,2.709-4.114,2.709-7.426v-17.562c0-10.002,6.021-15.104,18.064-15.304v4.516
		c-4.617,0.169-7.962,1.138-10.036,2.91c-2.075,1.773-3.111,4.399-3.111,7.878v15.305c0,4.349-0.736,7.594-2.208,9.733
		c-1.473,2.142-3.847,3.562-7.125,4.266v0.401c3.244,0.67,5.611,2.065,7.101,4.189c1.487,2.125,2.232,5.244,2.232,9.359V360.666z"/>
</g>
<g>
	<defs>
		<circle id="SVGID_3_" cx="876.553" cy="165.318" r="165.318"/>
	</defs>
	<clipPath id="SVGID_4_">
		<use xlink:href="#SVGID_3_"  overflow="visible"/>
	</clipPath>
	<g clip-path="url(#SVGID_4_)">
		<rect x="694.553" y="205.666" fill="#FFFFFF" width="364" height="109"/>
		<g>
			<g>
				<polygon fill="#999999" points="776.169,302.996 773.823,296.738 774.708,296.477 777.053,302.735 				"/>
				<polygon fill="#999999" points="779.183,306.158 776.169,302.996 776.957,302.438 779.868,305.542 				"/>
				<polygon fill="#999999" points="771.546,302.918 772.251,296.353 773.17,296.431 772.464,302.997 				"/>
				<polygon fill="#999999" points="773.205,306.96 771.546,302.918 772.474,302.666 774.067,306.635 				"/>
				<polygon fill="#999999" points="767.604,302.492 770.548,296.436 771.41,296.764 768.466,302.818 				"/>
				<polygon fill="#999999" points="768.094,306.834 767.604,302.492 768.58,302.523 769.012,306.756 				"/>
				<polygon fill="#999999" points="776.169,287.699 773.823,293.957 774.708,294.217 777.053,287.959 				"/>
				<polygon fill="#999999" points="779.183,284.536 776.169,287.699 776.957,288.256 779.868,285.152 				"/>
				<polygon fill="#999999" points="771.546,287.776 772.251,294.342 773.17,294.264 772.464,287.698 				"/>
				<polygon fill="#999999" points="773.205,283.734 771.546,287.776 772.474,288.029 774.067,284.061 				"/>
				<polygon fill="#999999" points="767.604,288.203 770.548,294.259 771.41,293.932 768.466,287.876 				"/>
				<polygon fill="#999999" points="768.094,283.861 767.604,288.203 768.58,288.171 769.012,283.938 				"/>
				
					<rect x="780.789" y="291.806" transform="matrix(0.7061 -0.7082 0.7082 0.7061 23.2202 640.4747)" fill="#999999" width="4.628" height="0.923"/>
				
					<rect x="780.789" y="297.263" transform="matrix(0.7061 0.7082 -0.7082 0.7061 441.0287 -467.0475)" fill="#999999" width="4.628" height="0.922"/>
				<circle fill="#333333" cx="779.33" cy="295.185" r="3.993"/>
				<ellipse fill="#333333" cx="763.302" cy="295.185" rx="6.58" ry="4.946"/>
				<circle fill="#333333" cx="772.51" cy="295.184" r="3.598"/>
			</g>
			<g>
				<polygon fill="#999999" points="813.305,302.996 810.96,296.738 811.844,296.477 814.188,302.735 				"/>
				<polygon fill="#999999" points="816.319,306.158 813.305,302.996 814.093,302.438 817.004,305.542 				"/>
				<polygon fill="#999999" points="808.682,302.918 809.387,296.353 810.306,296.431 809.6,302.997 				"/>
				<polygon fill="#999999" points="810.341,306.96 808.682,302.918 809.609,302.666 811.204,306.635 				"/>
				<polygon fill="#999999" points="804.741,302.492 807.685,296.436 808.546,296.764 805.603,302.818 				"/>
				<polygon fill="#999999" points="805.229,306.834 804.741,302.492 805.716,302.523 806.148,306.756 				"/>
				<polygon fill="#999999" points="813.305,287.699 810.96,293.957 811.844,294.217 814.188,287.959 				"/>
				<polygon fill="#999999" points="816.319,284.536 813.305,287.699 814.093,288.256 817.004,285.152 				"/>
				<polygon fill="#999999" points="808.682,287.776 809.387,294.342 810.306,294.264 809.6,287.698 				"/>
				<polygon fill="#999999" points="810.341,283.734 808.682,287.776 809.609,288.029 811.204,284.061 				"/>
				<polygon fill="#999999" points="804.741,288.203 807.685,294.259 808.546,293.932 805.603,287.876 				"/>
				<polygon fill="#999999" points="805.229,283.861 804.741,288.203 805.716,288.171 806.148,283.938 				"/>
				
					<rect x="817.925" y="291.806" transform="matrix(0.7062 -0.7081 0.7081 0.7062 34.0804 666.6557)" fill="#999999" width="4.629" height="0.923"/>
				
					<rect x="817.925" y="297.263" transform="matrix(0.7062 0.7081 -0.7081 0.7062 451.8267 -493.2909)" fill="#999999" width="4.629" height="0.922"/>
				<circle fill="#333333" cx="816.466" cy="295.185" r="3.993"/>
				<ellipse fill="#333333" cx="800.438" cy="295.185" rx="6.581" ry="4.946"/>
				<circle fill="#333333" cx="809.646" cy="295.184" r="3.598"/>
			</g>
			<g>
				<polygon fill="#999999" points="850.441,302.996 848.096,296.738 848.98,296.477 851.325,302.735 				"/>
				<polygon fill="#999999" points="853.455,306.158 850.441,302.996 851.229,302.438 854.141,305.542 				"/>
				<polygon fill="#999999" points="845.818,302.918 846.523,296.353 847.442,296.431 846.736,302.997 				"/>
				<polygon fill="#999999" points="847.478,306.96 845.818,302.918 846.746,302.666 848.34,306.635 				"/>
				<polygon fill="#999999" points="841.877,302.492 844.82,296.436 845.683,296.764 842.738,302.818 				"/>
				<polygon fill="#999999" points="842.366,306.834 841.877,302.492 842.853,302.523 843.284,306.756 				"/>
				<polygon fill="#999999" points="850.441,287.699 848.096,293.957 848.98,294.217 851.325,287.959 				"/>
				<polygon fill="#999999" points="853.455,284.536 850.441,287.699 851.229,288.256 854.141,285.152 				"/>
				<polygon fill="#999999" points="845.818,287.776 846.523,294.342 847.442,294.264 846.736,287.698 				"/>
				<polygon fill="#999999" points="847.478,283.734 845.818,287.776 846.746,288.029 848.34,284.061 				"/>
				<polygon fill="#999999" points="841.877,288.203 844.82,294.259 845.683,293.932 842.738,287.876 				"/>
				<polygon fill="#999999" points="842.366,283.861 841.877,288.203 842.853,288.171 843.284,283.938 				"/>
				
					<rect x="855.062" y="291.806" transform="matrix(0.7061 -0.7082 0.7082 0.7061 45.0526 693.0715)" fill="#999999" width="4.628" height="0.923"/>
				
					<rect x="855.062" y="297.263" transform="matrix(0.7061 0.7082 -0.7082 0.7061 462.861 -519.6443)" fill="#999999" width="4.628" height="0.922"/>
				<circle fill="#333333" cx="853.603" cy="295.185" r="3.993"/>
				<ellipse fill="#333333" cx="837.574" cy="295.185" rx="6.58" ry="4.946"/>
				<circle fill="#333333" cx="846.782" cy="295.184" r="3.598"/>
			</g>
			<g>
				<polygon fill="#999999" points="887.576,302.996 885.23,296.738 886.115,296.477 888.461,302.735 				"/>
				<polygon fill="#999999" points="890.592,306.158 887.576,302.996 888.365,302.438 891.275,305.542 				"/>
				<polygon fill="#999999" points="882.953,302.918 883.658,296.353 884.578,296.431 883.871,302.997 				"/>
				<polygon fill="#999999" points="884.613,306.96 882.953,302.918 883.881,302.666 885.475,306.635 				"/>
				<polygon fill="#999999" points="879.014,302.492 881.957,296.436 882.818,296.764 879.873,302.818 				"/>
				<polygon fill="#999999" points="879.502,306.834 879.014,302.492 879.988,302.523 880.42,306.756 				"/>
				<polygon fill="#999999" points="887.576,287.699 885.23,293.957 886.115,294.217 888.461,287.959 				"/>
				<polygon fill="#999999" points="890.592,284.536 887.576,287.699 888.365,288.256 891.275,285.152 				"/>
				<polygon fill="#999999" points="882.953,287.776 883.658,294.342 884.578,294.264 883.871,287.698 				"/>
				<polygon fill="#999999" points="884.613,283.734 882.953,287.776 883.881,288.029 885.475,284.061 				"/>
				<polygon fill="#999999" points="879.014,288.203 881.957,294.259 882.818,293.932 879.873,287.876 				"/>
				<polygon fill="#999999" points="879.502,283.861 879.014,288.203 879.988,288.171 880.42,283.938 				"/>
				
					<rect x="892.197" y="291.806" transform="matrix(0.7063 -0.708 0.708 0.7063 55.8411 719.1194)" fill="#999999" width="4.629" height="0.922"/>
				
					<rect x="892.197" y="297.263" transform="matrix(0.7063 0.708 -0.708 0.7063 473.5251 -545.817)" fill="#999999" width="4.629" height="0.921"/>
				<circle fill="#333333" cx="890.738" cy="295.185" r="3.993"/>
				<ellipse fill="#333333" cx="874.711" cy="295.185" rx="6.582" ry="4.946"/>
				<circle fill="#333333" cx="883.918" cy="295.184" r="3.598"/>
			</g>
			<g>
				<polygon fill="#999999" points="924.713,302.996 922.367,296.738 923.252,296.477 925.597,302.735 				"/>
				<polygon fill="#999999" points="927.727,306.158 924.713,302.996 925.501,302.438 928.412,305.542 				"/>
				<polygon fill="#999999" points="920.09,302.918 920.795,296.353 921.714,296.431 921.008,302.997 				"/>
				<polygon fill="#999999" points="921.749,306.96 920.09,302.918 921.018,302.666 922.611,306.635 				"/>
				<polygon fill="#999999" points="916.148,302.492 919.092,296.436 919.954,296.764 917.01,302.818 				"/>
				<polygon fill="#999999" points="916.638,306.834 916.148,302.492 917.124,302.523 917.556,306.756 				"/>
				<polygon fill="#999999" points="924.713,287.699 922.367,293.957 923.252,294.217 925.597,287.959 				"/>
				<polygon fill="#999999" points="927.727,284.536 924.713,287.699 925.501,288.256 928.412,285.152 				"/>
				<polygon fill="#999999" points="920.09,287.776 920.795,294.342 921.714,294.264 921.008,287.698 				"/>
				<polygon fill="#999999" points="921.749,283.734 920.09,287.776 921.018,288.029 922.611,284.061 				"/>
				<polygon fill="#999999" points="916.148,288.203 919.092,294.259 919.954,293.932 917.01,287.876 				"/>
				<polygon fill="#999999" points="916.638,283.861 916.148,288.203 917.124,288.171 917.556,283.938 				"/>
				
					<rect x="929.333" y="291.806" transform="matrix(0.7061 -0.7082 0.7082 0.7061 66.8846 745.6677)" fill="#999999" width="4.628" height="0.923"/>
				
					<rect x="929.333" y="297.263" transform="matrix(0.7061 0.7082 -0.7082 0.7061 484.6931 -572.2405)" fill="#999999" width="4.628" height="0.922"/>
				<circle fill="#333333" cx="927.874" cy="295.185" r="3.993"/>
				<ellipse fill="#333333" cx="911.846" cy="295.185" rx="6.58" ry="4.946"/>
				<circle fill="#333333" cx="921.054" cy="295.184" r="3.598"/>
			</g>
			<g>
				<polygon fill="#999999" points="961.849,302.996 959.504,296.738 960.388,296.477 962.732,302.735 				"/>
				<polygon fill="#999999" points="964.863,306.158 961.849,302.996 962.637,302.438 965.548,305.542 				"/>
				<polygon fill="#999999" points="957.226,302.918 957.931,296.353 958.85,296.431 958.144,302.997 				"/>
				<polygon fill="#999999" points="958.885,306.96 957.226,302.918 958.153,302.666 959.748,306.635 				"/>
				<polygon fill="#999999" points="953.285,302.492 956.229,296.436 957.09,296.764 954.146,302.818 				"/>
				<polygon fill="#999999" points="953.773,306.834 953.285,302.492 954.26,302.523 954.692,306.756 				"/>
				<polygon fill="#999999" points="961.849,287.699 959.504,293.957 960.388,294.217 962.732,287.959 				"/>
				<polygon fill="#999999" points="964.863,284.536 961.849,287.699 962.637,288.256 965.548,285.152 				"/>
				<polygon fill="#999999" points="957.226,287.776 957.931,294.342 958.85,294.264 958.144,287.698 				"/>
				<polygon fill="#999999" points="958.885,283.734 957.226,287.776 958.153,288.029 959.748,284.061 				"/>
				<polygon fill="#999999" points="953.285,288.203 956.229,294.259 957.09,293.932 954.146,287.876 				"/>
				<polygon fill="#999999" points="953.773,283.861 953.285,288.203 954.26,288.171 954.692,283.938 				"/>
				
					<rect x="966.469" y="291.806" transform="matrix(0.7062 -0.7081 0.7081 0.7062 77.7291 771.8331)" fill="#999999" width="4.629" height="0.923"/>
				
					<rect x="966.469" y="297.263" transform="matrix(0.7062 0.7081 -0.7081 0.7062 495.4753 -598.4683)" fill="#999999" width="4.629" height="0.922"/>
				<circle fill="#333333" cx="965.01" cy="295.185" r="3.993"/>
				<ellipse fill="#333333" cx="948.982" cy="295.185" rx="6.581" ry="4.946"/>
				<circle fill="#333333" cx="958.189" cy="295.184" r="3.598"/>
			</g>
			<g>
				<polygon fill="#999999" points="998.985,302.996 996.64,296.738 997.524,296.477 999.869,302.735 				"/>
				<polygon fill="#999999" points="1001.999,306.158 998.985,302.996 999.773,302.438 1002.685,305.542 				"/>
				<polygon fill="#999999" points="994.362,302.918 995.067,296.353 995.986,296.431 995.28,302.997 				"/>
				<polygon fill="#999999" points="996.021,306.96 994.362,302.918 995.29,302.666 996.884,306.635 				"/>
				<polygon fill="#999999" points="990.421,302.492 993.364,296.436 994.227,296.764 991.282,302.818 				"/>
				<polygon fill="#999999" points="990.91,306.834 990.421,302.492 991.396,302.523 991.828,306.756 				"/>
				<polygon fill="#999999" points="998.985,287.699 996.64,293.957 997.524,294.217 999.869,287.959 				"/>
				<polygon fill="#999999" points="1001.999,284.536 998.985,287.699 999.773,288.256 1002.685,285.152 				"/>
				<polygon fill="#999999" points="994.362,287.776 995.067,294.342 995.986,294.264 995.28,287.698 				"/>
				<polygon fill="#999999" points="996.021,283.734 994.362,287.776 995.29,288.029 996.884,284.061 				"/>
				<polygon fill="#999999" points="990.421,288.203 993.364,294.259 994.227,293.932 991.282,287.876 				"/>
				<polygon fill="#999999" points="990.91,283.861 990.421,288.203 991.396,288.171 991.828,283.938 				"/>
				
					<rect x="1003.605" y="291.806" transform="matrix(0.7061 -0.7082 0.7082 0.7061 88.7169 798.2646)" fill="#999999" width="4.628" height="0.923"/>
				
					<rect x="1003.605" y="297.263" transform="matrix(0.7061 0.7082 -0.7082 0.7061 506.5254 -624.8374)" fill="#999999" width="4.628" height="0.922"/>
				<circle fill="#333333" cx="1002.146" cy="295.185" r="3.993"/>
				<ellipse fill="#333333" cx="986.118" cy="295.185" rx="6.58" ry="4.946"/>
				<circle fill="#333333" cx="995.326" cy="295.184" r="3.598"/>
			</g>
		</g>
		<g>
			<g>
				<polygon fill="#999999" points="776.169,272.854 773.823,266.598 774.708,266.336 777.053,272.594 				"/>
				<polygon fill="#999999" points="779.183,276.018 776.169,272.854 776.957,272.297 779.868,275.4 				"/>
				<polygon fill="#999999" points="771.546,272.777 772.251,266.211 773.17,266.289 772.464,272.855 				"/>
				<polygon fill="#999999" points="773.205,276.818 771.546,272.777 772.474,272.523 774.067,276.492 				"/>
				<polygon fill="#999999" points="767.604,272.35 770.548,266.295 771.41,266.621 768.466,272.678 				"/>
				<polygon fill="#999999" points="768.094,276.691 767.604,272.35 768.58,272.383 769.012,276.615 				"/>
				<polygon fill="#999999" points="776.169,257.559 773.823,263.814 774.708,264.076 777.053,257.818 				"/>
				<polygon fill="#999999" points="779.183,254.395 776.169,257.559 776.957,258.115 779.868,255.012 				"/>
				<polygon fill="#999999" points="771.546,257.635 772.251,264.201 773.17,264.123 772.464,257.557 				"/>
				<polygon fill="#999999" points="773.205,253.594 771.546,257.635 772.474,257.887 774.067,253.92 				"/>
				<polygon fill="#999999" points="767.604,258.061 770.548,264.117 771.41,263.791 768.466,257.734 				"/>
				<polygon fill="#999999" points="768.094,253.719 767.604,258.061 768.58,258.029 769.012,253.797 				"/>
				
					<rect x="780.789" y="261.665" transform="matrix(0.7061 -0.7082 0.7082 0.7061 44.5649 631.6147)" fill="#999999" width="4.628" height="0.922"/>
				
					<rect x="780.789" y="267.122" transform="matrix(0.7061 0.7082 -0.7082 0.7061 419.6843 -475.9073)" fill="#999999" width="4.628" height="0.922"/>
				<circle fill="#333333" cx="779.33" cy="265.043" r="3.992"/>
				<ellipse fill="#333333" cx="763.302" cy="265.043" rx="6.58" ry="4.947"/>
				<circle fill="#333333" cx="772.51" cy="265.043" r="3.598"/>
			</g>
			<g>
				<polygon fill="#999999" points="813.305,272.854 810.96,266.598 811.844,266.336 814.188,272.594 				"/>
				<polygon fill="#999999" points="816.319,276.018 813.305,272.854 814.093,272.297 817.004,275.4 				"/>
				<polygon fill="#999999" points="808.682,272.777 809.387,266.211 810.306,266.289 809.6,272.855 				"/>
				<polygon fill="#999999" points="810.341,276.818 808.682,272.777 809.609,272.523 811.204,276.492 				"/>
				<polygon fill="#999999" points="804.741,272.35 807.685,266.295 808.546,266.621 805.603,272.678 				"/>
				<polygon fill="#999999" points="805.229,276.691 804.741,272.35 805.716,272.383 806.148,276.615 				"/>
				<polygon fill="#999999" points="813.305,257.559 810.96,263.814 811.844,264.076 814.188,257.818 				"/>
				<polygon fill="#999999" points="816.319,254.395 813.305,257.559 814.093,258.115 817.004,255.012 				"/>
				<polygon fill="#999999" points="808.682,257.635 809.387,264.201 810.306,264.123 809.6,257.557 				"/>
				<polygon fill="#999999" points="810.341,253.594 808.682,257.635 809.609,257.887 811.204,253.92 				"/>
				<polygon fill="#999999" points="804.741,258.061 807.685,264.117 808.546,263.791 805.603,257.734 				"/>
				<polygon fill="#999999" points="805.229,253.719 804.741,258.061 805.716,258.029 806.148,253.797 				"/>
				
					<rect x="817.925" y="261.665" transform="matrix(0.7062 -0.7081 0.7081 0.7062 55.4221 657.799)" fill="#999999" width="4.629" height="0.922"/>
				
					<rect x="817.925" y="267.122" transform="matrix(0.7062 0.7081 -0.7081 0.7062 430.4854 -502.1475)" fill="#999999" width="4.629" height="0.922"/>
				<circle fill="#333333" cx="816.466" cy="265.043" r="3.992"/>
				<ellipse fill="#333333" cx="800.438" cy="265.043" rx="6.581" ry="4.947"/>
				<circle fill="#333333" cx="809.646" cy="265.043" r="3.598"/>
			</g>
			<g>
				<polygon fill="#999999" points="850.441,272.854 848.096,266.598 848.98,266.336 851.325,272.594 				"/>
				<polygon fill="#999999" points="853.455,276.018 850.441,272.854 851.229,272.297 854.141,275.4 				"/>
				<polygon fill="#999999" points="845.818,272.777 846.523,266.211 847.442,266.289 846.736,272.855 				"/>
				<polygon fill="#999999" points="847.478,276.818 845.818,272.777 846.746,272.523 848.34,276.492 				"/>
				<polygon fill="#999999" points="841.877,272.35 844.82,266.295 845.683,266.621 842.738,272.678 				"/>
				<polygon fill="#999999" points="842.366,276.691 841.877,272.35 842.853,272.383 843.284,276.615 				"/>
				<polygon fill="#999999" points="850.441,257.559 848.096,263.814 848.98,264.076 851.325,257.818 				"/>
				<polygon fill="#999999" points="853.455,254.395 850.441,257.559 851.229,258.115 854.141,255.012 				"/>
				<polygon fill="#999999" points="845.818,257.635 846.523,264.201 847.442,264.123 846.736,257.557 				"/>
				<polygon fill="#999999" points="847.478,253.594 845.818,257.635 846.746,257.887 848.34,253.92 				"/>
				<polygon fill="#999999" points="841.877,258.061 844.82,264.117 845.683,263.791 842.738,257.734 				"/>
				<polygon fill="#999999" points="842.366,253.719 841.877,258.061 842.853,258.029 843.284,253.797 				"/>
				
					<rect x="855.062" y="261.665" transform="matrix(0.7061 -0.7082 0.7082 0.7061 66.3973 684.2116)" fill="#999999" width="4.628" height="0.922"/>
				
					<rect x="855.062" y="267.122" transform="matrix(0.7061 0.7082 -0.7082 0.7061 441.5166 -528.5042)" fill="#999999" width="4.628" height="0.922"/>
				<circle fill="#333333" cx="853.603" cy="265.043" r="3.992"/>
				<ellipse fill="#333333" cx="837.574" cy="265.043" rx="6.58" ry="4.947"/>
				<circle fill="#333333" cx="846.782" cy="265.043" r="3.598"/>
			</g>
			<g>
				<polygon fill="#999999" points="887.576,272.854 885.23,266.598 886.115,266.336 888.461,272.594 				"/>
				<polygon fill="#999999" points="890.592,276.018 887.576,272.854 888.365,272.297 891.275,275.4 				"/>
				<polygon fill="#999999" points="882.953,272.777 883.658,266.211 884.578,266.289 883.871,272.855 				"/>
				<polygon fill="#999999" points="884.613,276.818 882.953,272.777 883.881,272.523 885.475,276.492 				"/>
				<polygon fill="#999999" points="879.014,272.35 881.957,266.295 882.818,266.621 879.873,272.678 				"/>
				<polygon fill="#999999" points="879.502,276.691 879.014,272.35 879.988,272.383 880.42,276.615 				"/>
				<polygon fill="#999999" points="887.576,257.559 885.23,263.814 886.115,264.076 888.461,257.818 				"/>
				<polygon fill="#999999" points="890.592,254.395 887.576,257.559 888.365,258.115 891.275,255.012 				"/>
				<polygon fill="#999999" points="882.953,257.635 883.658,264.201 884.578,264.123 883.871,257.557 				"/>
				<polygon fill="#999999" points="884.613,253.594 882.953,257.635 883.881,257.887 885.475,253.92 				"/>
				<polygon fill="#999999" points="879.014,258.061 881.957,264.117 882.818,263.791 879.873,257.734 				"/>
				<polygon fill="#999999" points="879.502,253.719 879.014,258.061 879.988,258.029 880.42,253.797 				"/>
				
					<rect x="892.197" y="261.665" transform="matrix(0.7063 -0.708 0.708 0.7063 77.1796 710.2658)" fill="#999999" width="4.629" height="0.921"/>
				
					<rect x="892.197" y="267.122" transform="matrix(0.7063 0.708 -0.708 0.7063 452.1871 -554.6704)" fill="#999999" width="4.629" height="0.921"/>
				<circle fill="#333333" cx="890.738" cy="265.043" r="3.992"/>
				<ellipse fill="#333333" cx="874.711" cy="265.043" rx="6.582" ry="4.947"/>
				<circle fill="#333333" cx="883.918" cy="265.043" r="3.598"/>
			</g>
			<g>
				<polygon fill="#999999" points="924.713,272.854 922.367,266.598 923.252,266.336 925.597,272.594 				"/>
				<polygon fill="#999999" points="927.727,276.018 924.713,272.854 925.501,272.297 928.412,275.4 				"/>
				<polygon fill="#999999" points="920.09,272.777 920.795,266.211 921.714,266.289 921.008,272.855 				"/>
				<polygon fill="#999999" points="921.749,276.818 920.09,272.777 921.018,272.523 922.611,276.492 				"/>
				<polygon fill="#999999" points="916.148,272.35 919.092,266.295 919.954,266.621 917.01,272.678 				"/>
				<polygon fill="#999999" points="916.638,276.691 916.148,272.35 917.124,272.383 917.556,276.615 				"/>
				<polygon fill="#999999" points="924.713,257.559 922.367,263.814 923.252,264.076 925.597,257.818 				"/>
				<polygon fill="#999999" points="927.727,254.395 924.713,257.559 925.501,258.115 928.412,255.012 				"/>
				<polygon fill="#999999" points="920.09,257.635 920.795,264.201 921.714,264.123 921.008,257.557 				"/>
				<polygon fill="#999999" points="921.749,253.594 920.09,257.635 921.018,257.887 922.611,253.92 				"/>
				<polygon fill="#999999" points="916.148,258.061 919.092,264.117 919.954,263.791 917.01,257.734 				"/>
				<polygon fill="#999999" points="916.638,253.719 916.148,258.061 917.124,258.029 917.556,253.797 				"/>
				
					<rect x="929.333" y="261.665" transform="matrix(0.7061 -0.7082 0.7082 0.7061 88.2294 736.8078)" fill="#999999" width="4.628" height="0.922"/>
				
					<rect x="929.333" y="267.122" transform="matrix(0.7061 0.7082 -0.7082 0.7061 463.3486 -581.1003)" fill="#999999" width="4.628" height="0.922"/>
				<circle fill="#333333" cx="927.874" cy="265.043" r="3.992"/>
				<ellipse fill="#333333" cx="911.846" cy="265.043" rx="6.58" ry="4.947"/>
				<circle fill="#333333" cx="921.054" cy="265.043" r="3.598"/>
			</g>
			<g>
				<polygon fill="#999999" points="961.849,272.854 959.504,266.598 960.388,266.336 962.732,272.594 				"/>
				<polygon fill="#999999" points="964.863,276.018 961.849,272.854 962.637,272.297 965.548,275.4 				"/>
				<polygon fill="#999999" points="957.226,272.777 957.931,266.211 958.85,266.289 958.144,272.855 				"/>
				<polygon fill="#999999" points="958.885,276.818 957.226,272.777 958.153,272.523 959.748,276.492 				"/>
				<polygon fill="#999999" points="953.285,272.35 956.229,266.295 957.09,266.621 954.146,272.678 				"/>
				<polygon fill="#999999" points="953.773,276.691 953.285,272.35 954.26,272.383 954.692,276.615 				"/>
				<polygon fill="#999999" points="961.849,257.559 959.504,263.814 960.388,264.076 962.732,257.818 				"/>
				<polygon fill="#999999" points="964.863,254.395 961.849,257.559 962.637,258.115 965.548,255.012 				"/>
				<polygon fill="#999999" points="957.226,257.635 957.931,264.201 958.85,264.123 958.144,257.557 				"/>
				<polygon fill="#999999" points="958.885,253.594 957.226,257.635 958.153,257.887 959.748,253.92 				"/>
				<polygon fill="#999999" points="953.285,258.061 956.229,264.117 957.09,263.791 954.146,257.734 				"/>
				<polygon fill="#999999" points="953.773,253.719 953.285,258.061 954.26,258.029 954.692,253.797 				"/>
				
					<rect x="966.469" y="261.665" transform="matrix(0.7062 -0.7081 0.7081 0.7062 99.0707 762.9763)" fill="#999999" width="4.629" height="0.922"/>
				
					<rect x="966.469" y="267.122" transform="matrix(0.7062 0.7081 -0.7081 0.7062 474.134 -607.3248)" fill="#999999" width="4.629" height="0.922"/>
				<circle fill="#333333" cx="965.01" cy="265.043" r="3.992"/>
				<ellipse fill="#333333" cx="948.982" cy="265.043" rx="6.581" ry="4.947"/>
				<circle fill="#333333" cx="958.189" cy="265.043" r="3.598"/>
			</g>
			<g>
				<polygon fill="#999999" points="998.985,272.854 996.64,266.598 997.524,266.336 999.869,272.594 				"/>
				<polygon fill="#999999" points="1001.999,276.018 998.985,272.854 999.773,272.297 1002.685,275.4 				"/>
				<polygon fill="#999999" points="994.362,272.777 995.067,266.211 995.986,266.289 995.28,272.855 				"/>
				<polygon fill="#999999" points="996.021,276.818 994.362,272.777 995.29,272.523 996.884,276.492 				"/>
				<polygon fill="#999999" points="990.421,272.35 993.364,266.295 994.227,266.621 991.282,272.678 				"/>
				<polygon fill="#999999" points="990.91,276.691 990.421,272.35 991.396,272.383 991.828,276.615 				"/>
				<polygon fill="#999999" points="998.985,257.559 996.64,263.814 997.524,264.076 999.869,257.818 				"/>
				<polygon fill="#999999" points="1001.999,254.395 998.985,257.559 999.773,258.115 1002.685,255.012 				"/>
				<polygon fill="#999999" points="994.362,257.635 995.067,264.201 995.986,264.123 995.28,257.557 				"/>
				<polygon fill="#999999" points="996.021,253.594 994.362,257.635 995.29,257.887 996.884,253.92 				"/>
				<polygon fill="#999999" points="990.421,258.061 993.364,264.117 994.227,263.791 991.282,257.734 				"/>
				<polygon fill="#999999" points="990.91,253.719 990.421,258.061 991.396,258.029 991.828,253.797 				"/>
				
					<rect x="1003.605" y="261.665" transform="matrix(0.7061 -0.7082 0.7082 0.7061 110.0616 789.4047)" fill="#999999" width="4.628" height="0.922"/>
				
					<rect x="1003.605" y="267.122" transform="matrix(0.7061 0.7082 -0.7082 0.7061 485.181 -633.6972)" fill="#999999" width="4.628" height="0.922"/>
				<circle fill="#333333" cx="1002.146" cy="265.043" r="3.992"/>
				<ellipse fill="#333333" cx="986.118" cy="265.043" rx="6.58" ry="4.947"/>
				<circle fill="#333333" cx="995.326" cy="265.043" r="3.598"/>
			</g>
		</g>
		<g>
			<g>
				<polygon fill="#999999" points="776.169,242.713 773.823,236.456 774.708,236.195 777.053,242.453 				"/>
				<polygon fill="#999999" points="779.183,245.876 776.169,242.713 776.957,242.156 779.868,245.26 				"/>
				<polygon fill="#999999" points="771.546,242.636 772.251,236.07 773.17,236.148 772.464,242.715 				"/>
				<polygon fill="#999999" points="773.205,246.678 771.546,242.636 772.474,242.383 774.067,246.352 				"/>
				<polygon fill="#999999" points="767.604,242.209 770.548,236.153 771.41,236.48 768.466,242.537 				"/>
				<polygon fill="#999999" points="768.094,246.551 767.604,242.209 768.58,242.241 769.012,246.475 				"/>
				<polygon fill="#999999" points="776.169,227.417 773.823,233.674 774.708,233.936 777.053,227.678 				"/>
				<polygon fill="#999999" points="779.183,224.254 776.169,227.417 776.957,227.974 779.868,224.87 				"/>
				<polygon fill="#999999" points="771.546,227.494 772.251,234.06 773.17,233.981 772.464,227.416 				"/>
				<polygon fill="#999999" points="773.205,223.452 771.546,227.494 772.474,227.746 774.067,223.778 				"/>
				<polygon fill="#999999" points="767.604,227.92 770.548,233.977 771.41,233.649 768.466,227.594 				"/>
				<polygon fill="#999999" points="768.094,223.578 767.604,227.92 768.58,227.889 769.012,223.656 				"/>
				
					<rect x="780.789" y="231.524" transform="matrix(0.7061 -0.7082 0.7082 0.7061 65.9097 622.7548)" fill="#999999" width="4.628" height="0.923"/>
				
					<rect x="780.789" y="236.981" transform="matrix(0.7062 0.7081 -0.7081 0.7062 398.2319 -484.71)" fill="#999999" width="4.627" height="0.922"/>
				<circle fill="#333333" cx="779.33" cy="234.902" r="3.993"/>
				<ellipse fill="#333333" cx="763.302" cy="234.902" rx="6.58" ry="4.947"/>
				<circle fill="#333333" cx="772.51" cy="234.902" r="3.598"/>
			</g>
			<g>
				<polygon fill="#999999" points="813.305,242.713 810.96,236.456 811.844,236.195 814.188,242.453 				"/>
				<polygon fill="#999999" points="816.319,245.876 813.305,242.713 814.093,242.156 817.004,245.26 				"/>
				<polygon fill="#999999" points="808.682,242.636 809.387,236.07 810.306,236.148 809.6,242.715 				"/>
				<polygon fill="#999999" points="810.341,246.678 808.682,242.636 809.609,242.383 811.204,246.352 				"/>
				<polygon fill="#999999" points="804.741,242.209 807.685,236.153 808.546,236.48 805.603,242.537 				"/>
				<polygon fill="#999999" points="805.229,246.551 804.741,242.209 805.716,242.241 806.148,246.475 				"/>
				<polygon fill="#999999" points="813.305,227.417 810.96,233.674 811.844,233.936 814.188,227.678 				"/>
				<polygon fill="#999999" points="816.319,224.254 813.305,227.417 814.093,227.974 817.004,224.87 				"/>
				<polygon fill="#999999" points="808.682,227.494 809.387,234.06 810.306,233.981 809.6,227.416 				"/>
				<polygon fill="#999999" points="810.341,223.452 808.682,227.494 809.609,227.746 811.204,223.778 				"/>
				<polygon fill="#999999" points="804.741,227.92 807.685,233.977 808.546,233.649 805.603,227.594 				"/>
				<polygon fill="#999999" points="805.229,223.578 804.741,227.92 805.716,227.889 806.148,223.656 				"/>
				
					<rect x="817.925" y="231.524" transform="matrix(0.7062 -0.7081 0.7081 0.7062 76.7636 648.9421)" fill="#999999" width="4.629" height="0.923"/>
				
					<rect x="817.925" y="236.981" transform="matrix(0.7063 0.708 -0.708 0.7063 409.0323 -510.943)" fill="#999999" width="4.628" height="0.922"/>
				<circle fill="#333333" cx="816.466" cy="234.902" r="3.993"/>
				<ellipse fill="#333333" cx="800.438" cy="234.902" rx="6.581" ry="4.947"/>
				<circle fill="#333333" cx="809.646" cy="234.902" r="3.598"/>
			</g>
			<g>
				<polygon fill="#999999" points="850.441,242.713 848.096,236.456 848.98,236.195 851.325,242.453 				"/>
				<polygon fill="#999999" points="853.455,245.876 850.441,242.713 851.229,242.156 854.141,245.26 				"/>
				<polygon fill="#999999" points="845.818,242.636 846.523,236.07 847.442,236.148 846.736,242.715 				"/>
				<polygon fill="#999999" points="847.478,246.678 845.818,242.636 846.746,242.383 848.34,246.352 				"/>
				<polygon fill="#999999" points="841.877,242.209 844.82,236.153 845.683,236.48 842.738,242.537 				"/>
				<polygon fill="#999999" points="842.366,246.551 841.877,242.209 842.853,242.241 843.284,246.475 				"/>
				<polygon fill="#999999" points="850.441,227.417 848.096,233.674 848.98,233.936 851.325,227.678 				"/>
				<polygon fill="#999999" points="853.455,224.254 850.441,227.417 851.229,227.974 854.141,224.87 				"/>
				<polygon fill="#999999" points="845.818,227.494 846.523,234.06 847.442,233.981 846.736,227.416 				"/>
				<polygon fill="#999999" points="847.478,223.452 845.818,227.494 846.746,227.746 848.34,223.778 				"/>
				<polygon fill="#999999" points="841.877,227.92 844.82,233.977 845.683,233.649 842.738,227.594 				"/>
				<polygon fill="#999999" points="842.366,223.578 841.877,227.92 842.853,227.889 843.284,223.656 				"/>
				
					<rect x="855.062" y="231.524" transform="matrix(0.7061 -0.7082 0.7082 0.7061 87.7421 675.3516)" fill="#999999" width="4.628" height="0.923"/>
				
					<rect x="855.062" y="236.981" transform="matrix(0.7062 0.7081 -0.7081 0.7062 420.0564 -537.299)" fill="#999999" width="4.627" height="0.922"/>
				<circle fill="#333333" cx="853.603" cy="234.902" r="3.993"/>
				<ellipse fill="#333333" cx="837.574" cy="234.902" rx="6.58" ry="4.947"/>
				<circle fill="#333333" cx="846.782" cy="234.902" r="3.598"/>
			</g>
			<g>
				<polygon fill="#999999" points="924.713,242.713 922.367,236.456 923.252,236.195 925.597,242.453 				"/>
				<polygon fill="#999999" points="927.727,245.876 924.713,242.713 925.501,242.156 928.412,245.26 				"/>
				<polygon fill="#999999" points="920.09,242.636 920.795,236.07 921.714,236.148 921.008,242.715 				"/>
				<polygon fill="#999999" points="921.749,246.678 920.09,242.636 921.018,242.383 922.611,246.352 				"/>
				<polygon fill="#999999" points="916.148,242.209 919.092,236.153 919.954,236.48 917.01,242.537 				"/>
				<polygon fill="#999999" points="916.638,246.551 916.148,242.209 917.124,242.241 917.556,246.475 				"/>
				<polygon fill="#999999" points="924.713,227.417 922.367,233.674 923.252,233.936 925.597,227.678 				"/>
				<polygon fill="#999999" points="927.727,224.254 924.713,227.417 925.501,227.974 928.412,224.87 				"/>
				<polygon fill="#999999" points="920.09,227.494 920.795,234.06 921.714,233.981 921.008,227.416 				"/>
				<polygon fill="#999999" points="921.749,223.452 920.09,227.494 921.018,227.746 922.611,223.778 				"/>
				<polygon fill="#999999" points="916.148,227.92 919.092,233.977 919.954,233.649 917.01,227.594 				"/>
				<polygon fill="#999999" points="916.638,223.578 916.148,227.92 917.124,227.889 917.556,223.656 				"/>
				
					<rect x="929.333" y="231.524" transform="matrix(0.7061 -0.7082 0.7082 0.7061 109.5741 727.9478)" fill="#999999" width="4.628" height="0.923"/>
				
					<rect x="929.333" y="236.981" transform="matrix(0.7062 0.7081 -0.7081 0.7062 441.8806 -589.8873)" fill="#999999" width="4.627" height="0.922"/>
				<circle fill="#333333" cx="927.874" cy="234.902" r="3.993"/>
				<ellipse fill="#333333" cx="911.846" cy="234.902" rx="6.58" ry="4.947"/>
				<circle fill="#333333" cx="921.054" cy="234.902" r="3.598"/>
			</g>
			<g>
				<polygon fill="#999999" points="961.849,242.713 959.504,236.456 960.388,236.195 962.732,242.453 				"/>
				<polygon fill="#999999" points="964.863,245.876 961.849,242.713 962.637,242.156 965.548,245.26 				"/>
				<polygon fill="#999999" points="957.226,242.636 957.931,236.07 958.85,236.148 958.144,242.715 				"/>
				<polygon fill="#999999" points="958.885,246.678 957.226,242.636 958.153,242.383 959.748,246.352 				"/>
				<polygon fill="#999999" points="953.285,242.209 956.229,236.153 957.09,236.48 954.146,242.537 				"/>
				<polygon fill="#999999" points="953.773,246.551 953.285,242.209 954.26,242.241 954.692,246.475 				"/>
				<polygon fill="#999999" points="961.849,227.417 959.504,233.674 960.388,233.936 962.732,227.678 				"/>
				<polygon fill="#999999" points="964.863,224.254 961.849,227.417 962.637,227.974 965.548,224.87 				"/>
				<polygon fill="#999999" points="957.226,227.494 957.931,234.06 958.85,233.981 958.144,227.416 				"/>
				<polygon fill="#999999" points="958.885,223.452 957.226,227.494 958.153,227.746 959.748,223.778 				"/>
				<polygon fill="#999999" points="953.285,227.92 956.229,233.977 957.09,233.649 954.146,227.594 				"/>
				<polygon fill="#999999" points="953.773,223.578 953.285,227.92 954.26,227.889 954.692,223.656 				"/>
				
					<rect x="966.469" y="231.524" transform="matrix(0.7062 -0.7081 0.7081 0.7062 120.4122 754.1195)" fill="#999999" width="4.629" height="0.923"/>
				
					<rect x="966.469" y="236.981" transform="matrix(0.7063 0.708 -0.708 0.7063 452.6653 -616.1047)" fill="#999999" width="4.628" height="0.922"/>
				<circle fill="#333333" cx="965.01" cy="234.902" r="3.993"/>
				<ellipse fill="#333333" cx="948.982" cy="234.902" rx="6.581" ry="4.947"/>
				<circle fill="#333333" cx="958.189" cy="234.902" r="3.598"/>
			</g>
			<g>
				<polygon fill="#999999" points="998.985,242.713 996.64,236.456 997.524,236.195 999.869,242.453 				"/>
				<polygon fill="#999999" points="1001.999,245.876 998.985,242.713 999.773,242.156 1002.685,245.26 				"/>
				<polygon fill="#999999" points="994.362,242.636 995.067,236.07 995.986,236.148 995.28,242.715 				"/>
				<polygon fill="#999999" points="996.021,246.678 994.362,242.636 995.29,242.383 996.884,246.352 				"/>
				<polygon fill="#999999" points="990.421,242.209 993.364,236.153 994.227,236.48 991.282,242.537 				"/>
				<polygon fill="#999999" points="990.91,246.551 990.421,242.209 991.396,242.241 991.828,246.475 				"/>
				<polygon fill="#999999" points="998.985,227.417 996.64,233.674 997.524,233.936 999.869,227.678 				"/>
				<polygon fill="#999999" points="1001.999,224.254 998.985,227.417 999.773,227.974 1002.685,224.87 				"/>
				<polygon fill="#999999" points="994.362,227.494 995.067,234.06 995.986,233.981 995.28,227.416 				"/>
				<polygon fill="#999999" points="996.021,223.452 994.362,227.494 995.29,227.746 996.884,223.778 				"/>
				<polygon fill="#999999" points="990.421,227.92 993.364,233.977 994.227,233.649 991.282,227.594 				"/>
				<polygon fill="#999999" points="990.91,223.578 990.421,227.92 991.396,227.889 991.828,223.656 				"/>
				
					<rect x="1003.605" y="231.524" transform="matrix(0.7061 -0.7082 0.7082 0.7061 131.4064 780.5447)" fill="#999999" width="4.628" height="0.923"/>
				
					<rect x="1003.606" y="236.981" transform="matrix(0.7062 0.7081 -0.7081 0.7062 463.7051 -642.4764)" fill="#999999" width="4.627" height="0.922"/>
				<circle fill="#333333" cx="1002.146" cy="234.902" r="3.993"/>
				<ellipse fill="#333333" cx="986.118" cy="234.902" rx="6.58" ry="4.947"/>
				<circle fill="#333333" cx="995.326" cy="234.902" r="3.598"/>
			</g>
			<g>
				<polygon fill="#999999" points="887.576,242.713 885.23,236.456 886.115,236.195 888.461,242.453 				"/>
				<polygon fill="#999999" points="890.592,245.876 887.576,242.713 888.365,242.156 891.275,245.26 				"/>
				<polygon fill="#999999" points="882.953,242.636 883.658,236.07 884.578,236.148 883.871,242.715 				"/>
				<polygon fill="#999999" points="884.613,246.678 882.953,242.636 883.881,242.383 885.475,246.352 				"/>
				<polygon fill="#999999" points="879.014,242.209 881.957,236.153 882.818,236.48 879.873,242.537 				"/>
				<polygon fill="#999999" points="879.502,246.551 879.014,242.209 879.988,242.241 880.42,246.475 				"/>
				<polygon fill="#999999" points="887.576,227.417 885.23,233.674 886.115,233.936 888.461,227.678 				"/>
				<polygon fill="#999999" points="890.592,224.254 887.576,227.417 888.365,227.974 891.275,224.87 				"/>
				<polygon fill="#999999" points="882.953,227.494 883.658,234.06 884.578,233.981 883.871,227.416 				"/>
				<polygon fill="#999999" points="884.613,223.452 882.953,227.494 883.881,227.746 885.475,223.778 				"/>
				<polygon fill="#999999" points="879.014,227.92 881.957,233.977 882.818,233.649 879.873,227.594 				"/>
				<polygon fill="#999999" points="879.502,223.578 879.014,227.92 879.988,227.889 880.42,223.656 				"/>
				
					<rect x="892.197" y="231.524" transform="matrix(0.7063 -0.708 0.708 0.7063 98.5179 701.4122)" fill="#999999" width="4.629" height="0.922"/>
				
					<rect x="892.197" y="236.981" transform="matrix(0.7064 0.7078 -0.7078 0.7064 430.7293 -563.455)" fill="#999999" width="4.629" height="0.921"/>
				<circle fill="#333333" cx="890.738" cy="234.902" r="3.993"/>
				<ellipse fill="#333333" cx="874.711" cy="234.902" rx="6.582" ry="4.947"/>
				<circle fill="#333333" cx="883.918" cy="234.902" r="3.598"/>
			</g>
		</g>
	</g>
</g>
<g>
	<ellipse opacity="0.2" fill="#333333" cx="934.772" cy="213.359" rx="13.342" ry="4.348"/>
	<rect x="929.553" y="158.666" fill="#F4A25F" width="11" height="54"/>
	<rect x="929.553" y="158.666" fill="#DD925B" width="0" height="54"/>
	<rect x="931.553" y="158.666" fill="#DD925B" width="2" height="54"/>
	<rect x="934.553" y="158.666" fill="#DD925B" width="2" height="54"/>
	<rect x="937.553" y="158.666" fill="#DD925B" width="2" height="54"/>
	<rect x="929.553" y="159.666" opacity="0.2" fill="#333333" width="11" height="15"/>
	<polygon fill="#89427C" points="955.388,166.92 899.332,163.82 901.811,144.746 956.833,155.792 	"/>
	<polygon fill="#89427C" points="951.982,143.364 980.12,164.88 947.419,178.49 	"/>
</g>
</svg>
