<?xml version="1.0" encoding="utf-8"?>
<!-- Generator: Adobe Illustrator 16.0.0, SVG Export Plug-In . SVG Version: 6.00 Build 0)  -->
<!DOCTYPE svg PUBLIC "-//W3C//DTD SVG 1.1//EN" "http://www.w3.org/Graphics/SVG/1.1/DTD/svg11.dtd">
<svg version="1.1" id="Layer_1" xmlns="http://www.w3.org/2000/svg" xmlns:xlink="http://www.w3.org/1999/xlink" x="0px" y="0px"
	 width="387.189px" height="1200.637px" viewBox="0 0 387.189 1200.637" enable-background="new 0 0 387.189 1200.637"
	 xml:space="preserve">
<g>
	<circle fill="#E2E2E2" cx="200" cy="140.166" r="140.166"/>
	<g>
		<rect x="104.755" y="56.4" fill="none" width="190.49" height="18.133"/>
		<text transform="matrix(1 0 0 1 107.0103 73.1196)" fill="#333333" font-family="'Roboto', sans-serif" font-weight="500" font-size="22">Uma Rede Pública</text>
	</g>
	<g>
		<rect x="55.447" y="297.168" fill="none" width="289.105" height="112.722"/>
		<text transform="matrix(1 0 0 1 140.9067 310.8477)"><tspan x="0" y="0" fill="#333333" font-family="'Roboto', sans-serif" font-size="18">Mais Usuários</tspan><tspan x="53.947" y="21.601" fill="#333333" font-family="'Roboto', sans-serif" font-size="18">= </tspan><tspan x="-68.291" y="43.2" fill="#333333" font-family="'Roboto', sans-serif" font-size="18">Mais Poder de Processamento</tspan><tspan x="53.947" y="64.8" fill="#333333" font-family="'Roboto', sans-serif" font-size="18">= </tspan><tspan x="-6.882" y="86.4" fill="#333333" font-family="'Roboto', sans-serif" font-size="18">Mais Segurança</tspan></text>
	</g>
	<g>
		
			<line fill="none" stroke="#EEA315" stroke-width="2" stroke-miterlimit="10" stroke-dasharray="4" x1="177.774" y1="130.453" x2="254.295" y2="181.332"/>
		
			<line fill="none" stroke="#EEA315" stroke-width="2" stroke-miterlimit="10" stroke-dasharray="4" x1="222.121" y1="130.434" x2="145.601" y2="181.373"/>
		
			<line fill="none" stroke="#EEA315" stroke-width="2" stroke-miterlimit="10" stroke-dasharray="4" x1="222.121" y1="130.434" x2="199.948" y2="215.441"/>
		
			<line fill="none" stroke="#EEA315" stroke-width="2" stroke-miterlimit="10" stroke-dasharray="4" x1="177.774" y1="130.453" x2="199.948" y2="215.441"/>
		<polygon fill="none" stroke="#EEA315" stroke-width="2" stroke-miterlimit="10" stroke-dasharray="4" points="177.774,130.453 
			222.121,130.434 254.295,181.332 199.948,215.441 145.601,181.373 		"/>
		<g>
			<circle fill="#333333" cx="145.647" cy="165.333" r="4.324"/>
			<path fill="#333333" d="M154.658,173.464c0,1.167-1.99,1.673-2.971,1.673l-12.328,0.005c-0.98,0.001-2.813-0.305-2.814-1.475l0,0
				c0-1.165,3.591-2.752,4.573-2.753l9.062-0.003C151.163,170.911,154.657,172.297,154.658,173.464L154.658,173.464z"/>
			<path fill="#333333" d="M151.537,189.064c0.001,0.927,0.75,1.674,1.673,1.674l0,0c0.927-0.001,1.674-0.749,1.674-1.674
				l-0.007-14.783c-0.001-0.924-0.749-1.674-1.674-1.675l0,0c-0.924,0.001-1.674,0.753-1.673,1.676L151.537,189.064z"/>
			<path fill="#333333" d="M146.781,205.5c0.001,0.923,0.75,1.672,1.673,1.673l0,0c0.925-0.001,1.674-0.751,1.673-1.674
				l-0.007-14.784c-0.001-0.926-0.749-1.674-1.674-1.674l0,0c-0.924,0.002-1.673,0.751-1.672,1.676L146.781,205.5z"/>
			<path fill="#333333" d="M141.201,205.503c0.001,0.923,0.751,1.673,1.677,1.671l0,0c0.923,0.001,1.673-0.748,1.673-1.674
				l-0.007-14.781c-0.001-0.926-0.753-1.675-1.673-1.676l0,0c-0.928,0.001-1.676,0.751-1.676,1.676L141.201,205.503z"/>
			<path fill="#333333" d="M136.433,189.073c0,0.924,0.747,1.673,1.673,1.671l0,0c0.925,0,1.673-0.749,1.674-1.673l-0.007-14.783
				c-0.001-0.924-0.752-1.674-1.675-1.672l0,0c-0.926-0.002-1.673,0.751-1.673,1.673L136.433,189.073z"/>
			<rect x="141.19" y="171.75" fill="#333333" width="8.926" height="19.246"/>
		</g>
		<g>
			<circle fill="#333333" cx="177.82" cy="114.416" r="4.324"/>
			<path fill="#333333" d="M186.832,122.544c0,1.169-1.99,1.674-2.973,1.674l-12.327,0.005c-0.978,0.002-2.814-0.307-2.814-1.473
				l0,0c0-1.168,3.591-2.754,4.573-2.755l9.063-0.003C183.337,119.992,186.83,121.377,186.832,122.544L186.832,122.544z"/>
			<path fill="#333333" d="M183.711,138.146c0,0.926,0.749,1.673,1.674,1.673l0,0c0.926-0.001,1.673-0.749,1.673-1.674
				l-0.008-14.783c0-0.923-0.748-1.673-1.673-1.672l0,0c-0.925,0-1.673,0.751-1.673,1.674L183.711,138.146z"/>
			<path fill="#333333" d="M178.954,154.582c0,0.923,0.751,1.672,1.673,1.672l0,0c0.927-0.001,1.673-0.751,1.674-1.674
				l-0.007-14.783c-0.001-0.924-0.748-1.674-1.675-1.673l0,0c-0.923-0.001-1.673,0.749-1.671,1.674L178.954,154.582z"/>
			<path fill="#333333" d="M173.376,154.584c0.001,0.924,0.749,1.674,1.675,1.673l0,0c0.923-0.001,1.672-0.751,1.674-1.675
				l-0.008-14.781c-0.001-0.928-0.752-1.677-1.673-1.677l0,0c-0.927,0.002-1.675,0.753-1.675,1.677L173.376,154.584z"/>
			<path fill="#333333" d="M168.604,138.154c0.002,0.924,0.751,1.672,1.675,1.672l0,0c0.925,0,1.672-0.748,1.671-1.673
				l-0.007-14.783c0.001-0.925-0.749-1.673-1.674-1.673l0,0c-0.925,0-1.671,0.75-1.672,1.674L168.604,138.154z"/>
			<rect x="173.365" y="120.832" fill="#333333" width="8.923" height="19.245"/>
		</g>
		<g>
			<circle fill="#333333" cx="199.994" cy="199.403" r="4.324"/>
			<path fill="#333333" d="M209.005,207.532c0,1.169-1.991,1.675-2.972,1.675l-12.329,0.006c-0.979,0-2.812-0.307-2.812-1.474l0,0
				c-0.001-1.169,3.59-2.755,4.573-2.755l9.063-0.003C205.511,204.979,209.003,206.365,209.005,207.532L209.005,207.532z"/>
			<path fill="#333333" d="M205.882,223.137c0.001,0.925,0.751,1.67,1.676,1.67l0,0c0.925,0,1.673-0.748,1.673-1.672l-0.007-14.783
				c0-0.925-0.749-1.674-1.674-1.674l0,0c-0.925,0-1.675,0.752-1.674,1.674L205.882,223.137z"/>
			<path fill="#333333" d="M201.126,239.57c0.002,0.922,0.752,1.671,1.675,1.672l0,0c0.927-0.001,1.673-0.751,1.671-1.673
				l-0.006-14.785c0-0.924-0.746-1.674-1.674-1.673l0,0c-0.923,0-1.672,0.75-1.672,1.674L201.126,239.57z"/>
			<path fill="#333333" d="M195.55,239.571c0,0.925,0.749,1.673,1.675,1.673l0,0c0.922-0.001,1.672-0.749,1.672-1.673l-0.008-14.784
				c0.001-0.926-0.751-1.674-1.673-1.674l0,0c-0.926,0-1.673,0.75-1.674,1.676L195.55,239.571z"/>
			<path fill="#333333" d="M190.779,223.142c0,0.925,0.747,1.674,1.673,1.673l0,0c0.924-0.002,1.674-0.749,1.672-1.675
				l-0.007-14.781c0-0.925-0.75-1.674-1.674-1.673l0,0c-0.926-0.001-1.673,0.75-1.672,1.674L190.779,223.142z"/>
			<rect x="195.538" y="205.818" fill="#333333" width="8.923" height="19.246"/>
		</g>
		<g>
			<circle fill="#333333" cx="222.167" cy="114.395" r="4.324"/>
			<path fill="#333333" d="M231.176,122.523c0.002,1.168-1.987,1.673-2.97,1.674l-12.327,0.007c-0.98,0.001-2.813-0.308-2.814-1.476
				l0,0c0-1.166,3.59-2.752,4.572-2.753l9.064-0.005C227.684,119.971,231.178,121.357,231.176,122.523L231.176,122.523z"/>
			<path fill="#333333" d="M228.057,138.127c0,0.926,0.75,1.672,1.674,1.672l0,0c0.926,0,1.675-0.75,1.673-1.673l-0.007-14.784
				c0-0.923-0.75-1.673-1.676-1.672l0,0c-0.924,0-1.671,0.75-1.671,1.673L228.057,138.127z"/>
			<path fill="#333333" d="M223.299,154.562c0.001,0.923,0.753,1.673,1.674,1.672l0,0c0.926-0.002,1.675-0.75,1.673-1.674
				l-0.007-14.782c0-0.925-0.748-1.676-1.673-1.674l0,0c-0.923-0.002-1.675,0.749-1.674,1.674L223.299,154.562z"/>
			<path fill="#333333" d="M217.723,154.563c0,0.925,0.749,1.672,1.675,1.673l0,0c0.923-0.001,1.673-0.752,1.672-1.674
				l-0.007-14.783c0-0.926-0.751-1.676-1.674-1.674l0,0c-0.925-0.001-1.674,0.75-1.674,1.676L217.723,154.563z"/>
			<path fill="#333333" d="M212.953,138.133c-0.001,0.926,0.746,1.672,1.672,1.673l0,0c0.924-0.001,1.673-0.749,1.673-1.673
				l-0.007-14.783c-0.001-0.924-0.751-1.675-1.674-1.675l0,0c-0.926,0.002-1.673,0.752-1.672,1.677L212.953,138.133z"/>
			<rect x="217.711" y="120.811" fill="#333333" width="8.923" height="19.246"/>
		</g>
		<g>
			<circle fill="#333333" cx="254.338" cy="165.294" r="4.324"/>
			<path fill="#333333" d="M263.351,173.422c0,1.167-1.99,1.674-2.971,1.674l-12.33,0.006c-0.978,0-2.812-0.307-2.812-1.474l0,0
				c0-1.169,3.589-2.754,4.572-2.754l9.062-0.005C259.855,170.869,263.351,172.254,263.351,173.422L263.351,173.422z"/>
			<path fill="#333333" d="M260.229,189.024c0.001,0.926,0.751,1.673,1.676,1.673l0,0c0.925,0,1.671-0.749,1.671-1.673
				l-0.006-14.784c-0.001-0.924-0.748-1.674-1.673-1.673l0,0c-0.925-0.001-1.676,0.751-1.675,1.675L260.229,189.024z"/>
			<path fill="#333333" d="M255.47,205.46c0.002,0.921,0.755,1.672,1.677,1.671l0,0c0.926,0,1.673-0.75,1.673-1.674l-0.006-14.783
				c-0.002-0.925-0.75-1.674-1.676-1.674l0,0c-0.923,0-1.673,0.75-1.673,1.676L255.47,205.46z"/>
			<path fill="#333333" d="M249.896,205.463c-0.002,0.923,0.748,1.671,1.674,1.671l0,0c0.924,0,1.674-0.749,1.672-1.673
				l-0.004-14.783c-0.002-0.927-0.754-1.675-1.678-1.676l0,0c-0.924,0.001-1.671,0.751-1.671,1.676L249.896,205.463z"/>
			<path fill="#333333" d="M245.125,189.032c0,0.924,0.748,1.671,1.673,1.672l0,0c0.923-0.001,1.673-0.749,1.673-1.675
				l-0.007-14.782c0-0.923-0.751-1.673-1.674-1.673l0,0c-0.927,0-1.672,0.752-1.672,1.674L245.125,189.032z"/>
			<rect x="249.885" y="171.71" fill="#333333" width="8.924" height="19.245"/>
		</g>
	</g>
	<g>
		<path fill="#333333" d="M372.705,150.775h14.484v4.852h-14.484v14.977h-4.887v-14.977h-14.414v-4.852h14.414v-15.047h4.887
			V150.775z"/>
	</g>
</g>
<g>
	<circle fill="#E2E2E2" cx="197" cy="589.166" r="139.166"/>
	<g>
		<rect x="129.209" y="493.869" fill="none" width="135.582" height="43.195"/>
		<text transform="matrix(1 0 0 1 144.9541 510.5879)"><tspan x="0" y="0" fill="#333333" font-family="'Roboto', sans-serif" font-weight="500" font-size="22">Incentivos </tspan><tspan x="-9.491" y="26.4" fill="#333333" font-family="'Roboto', sans-serif" font-weight="500" font-size="22">Econômicos</tspan></text>
	</g>
	<g>
		<path fill="#333333" d="M347.6,598.385v-4.816h32.695v4.816H347.6z M347.6,612.764v-4.816h32.695v4.816H347.6z"/>
	</g>
	<g>
		<circle fill="#F7F7F7" cx="197.233" cy="625.082" r="63.333"/>
		<g>
			<defs>
				<circle id="SVGID_1_" cx="196.767" cy="625.082" r="63.333"/>
			</defs>
			<clipPath id="SVGID_2_">
				<use xlink:href="#SVGID_1_"  overflow="visible"/>
			</clipPath>
			<g clip-path="url(#SVGID_2_)">
				<path fill="#99A641" d="M196.87,606.637c0-5.678,11.972-31.844,7.024-32.184c-4.95-0.342-10.012,11.039-13.427,10.954
					c-3.413-0.085-7.75-5.496-12.187-4.13c-3.99,1.229,8.882,21.079,8.882,25.359c0,5.111-25.49,32.644-25.49,49.859
					c0,20.142,15.276,25.26,29.982,25.26s31.119-5.461,31.119-26.626C222.774,639.28,196.87,612.312,196.87,606.637z"/>
				<g>
					<rect x="220" y="599.666" fill="#FFCCB0" width="75" height="20"/>
					<path fill="#FFCCB0" d="M229.248,599.91c-5.164,0-14.407-4.982-18.125-10.561c0,0-3.926-3.912-7.643-4.117l-3.511,6.002
						l-0.921,35.323c0,0,11.429,0.425,16.722-4.882c1.896-1.9,5.783-1.938,11.773-1.938"/>
					<path fill="#FFCCB0" d="M202,593.998c0-1.576-1.416-2.332-2.951-2.332h-15.007c-1.536,0-4.042,0.756-4.042,2.332v28.564
						c0,1.578,2.506,4.104,4.042,4.104h15.007c1.535,0,2.951-2.525,2.951-4.104V593.998z"/>
					<path fill="#FFCCB0" d="M189,594.445c0-1.535-1.244-2.779-2.779-2.779h-7.441c-1.535,0-2.779,1.244-2.779,2.779v2.441
						c0,1.535,1.244,2.779,2.779,2.779h7.441c1.535,0,2.779-1.244,2.779-2.779V594.445z"/>
					<path fill="#FFCCB0" d="M189,603.446c0-1.535-1.244-2.78-2.779-2.78h-7.441c-1.535,0-2.779,1.245-2.779,2.78v1.439
						c0,1.535,1.244,2.78,2.779,2.78h7.441c1.535,0,2.779-1.245,2.779-2.78V603.446z"/>
					<path fill="#FFCCB0" d="M190,611.091c0-1.362-0.977-2.425-2.274-2.425h-8.398c-1.299,0-3.327,1.062-3.327,2.425v3.639
						c0,1.364,2.028,2.937,3.327,2.937h8.398c1.298,0,2.274-1.572,2.274-2.937V611.091z"/>
					<path fill="#FFCCB0" d="M190,621.495c0-1.573-0.944-2.829-2.459-2.829h-7.508c-1.515,0-4.033,1.256-4.033,2.829v1.171
						c0,1.572,2.519,4,4.033,4h7.508c1.515,0,2.459-2.428,2.459-4V621.495z"/>
					<path fill="#FFCCB0" d="M180.449,599.129c0.325,0,0.494,0.619,0.485,0.897c-0.015,0.346-0.066,1.083-0.506,1.083
						c-0.44,0,0.405,0.557,0.405,0.557H181v-3h-0.571L180.449,599.129z"/>
					<path fill="#FFCCB0" d="M180.377,606.961c0.382,0.029,0.484,1.277,0.484,1.497c0,0.221,0.069,1.22-0.324,1.22
						s0.062,0.289,0.062,0.289l1.287-0.06l-0.195-3.241h-1.262L180.377,606.961z"/>
					<path fill="#FFCCB0" d="M179,616.527c0,0,1.36,0.614,1.33,1.079c-0.018,0.277,0.244,0.962-0.137,0.962
						c-0.384,0,0.24,0.592,0.239,0.591l1.561-0.138l-0.896-3.087L179,615.865V616.527z"/>
				</g>
				<text transform="matrix(1 0 0 1 183.4834 662.0215)" fill="#F7F7F7" font-family="'Roboto', sans-serif" font-size="30.5678">$</text>
			</g>
		</g>
	</g>
	<g>
		<rect x="60.063" y="750.666" fill="none" width="301.948" height="65"/>
		<text transform="matrix(1 0 0 1 60.063 764.3457)"><tspan x="0" y="0" fill="#333333" font-family="'Roboto', sans-serif" font-size="18">A recompensa da mineração faz a </tspan><tspan x="0" y="21.601" fill="#333333" font-family="'Roboto', sans-serif" font-size="18">trapaça ser menos vantajosa do </tspan><tspan x="0" y="43.2" fill="#333333" font-family="'Roboto', sans-serif" font-size="18">que a colaboração honesta.</tspan></text>
	</g>
	<g>
		<path fill="#CCCCCC" d="M48.447,810.666c0,3.412,0.995,5.963,2.985,7.652c1.99,1.688,5.377,2.584,10.162,2.684v4.566
			c-6.524,0-11.166-1.255-13.924-3.763c-2.76-2.51-4.14-6.373-4.14-11.592v-16.909c0-6.856-3.847-10.354-11.541-10.486v-4.015
			c4.081-0.066,7.025-0.92,8.832-2.56c1.806-1.639,2.709-4.114,2.709-7.426v-17.562c0-10.002,6.021-15.104,18.064-15.304v4.516
			c-4.617,0.169-7.962,1.138-10.036,2.91c-2.075,1.773-3.111,4.399-3.111,7.878v15.305c0,4.349-0.736,7.594-2.208,9.733
			c-1.473,2.142-3.847,3.562-7.125,4.266v0.401c3.244,0.67,5.611,2.065,7.101,4.189c1.487,2.125,2.232,5.244,2.232,9.359V810.666z"
			/>
	</g>
</g>
<g>
	<circle fill="#E2E2E2" cx="182" cy="1035.318" r="165.318"/>
	<g>
		<rect x="68.726" y="919.178" fill="none" width="226.549" height="72.578"/>
		<text transform="matrix(1 0 0 1 101.874 935.8965)"><tspan x="0" y="0" fill="#333333" font-family="'Roboto', sans-serif" font-weight="500" font-size="22">Manutenção de </tspan><tspan x="-15.41" y="26.4" fill="#333333" font-family="'Roboto', sans-serif" font-weight="500" font-size="22">Consenso Sem um </tspan><tspan x="-30.191" y="52.8" fill="#333333" font-family="'Roboto', sans-serif" font-weight="500" font-size="22">Intermediário Central</tspan></text>
	</g>
	<g>
		<defs>
			<circle id="SVGID_3_" cx="182" cy="1035.318" r="165.318"/>
		</defs>
		<clipPath id="SVGID_4_">
			<use xlink:href="#SVGID_3_"  overflow="visible"/>
		</clipPath>
		<g clip-path="url(#SVGID_4_)">
			<rect y="1075.666" fill="#FFFFFF" width="364" height="109"/>
			<g>
				<g>
					<polygon fill="#999999" points="81.616,1172.996 79.271,1166.738 80.155,1166.477 82.5,1172.735 					"/>
					<polygon fill="#999999" points="84.63,1176.158 81.616,1172.996 82.404,1172.438 85.315,1175.542 					"/>
					<polygon fill="#999999" points="76.993,1172.918 77.698,1166.353 78.617,1166.431 77.911,1172.997 					"/>
					<polygon fill="#999999" points="78.652,1176.96 76.993,1172.918 77.921,1172.666 79.515,1176.635 					"/>
					<polygon fill="#999999" points="73.052,1172.492 75.995,1166.436 76.857,1166.764 73.913,1172.818 					"/>
					<polygon fill="#999999" points="73.541,1176.834 73.052,1172.492 74.027,1172.523 74.459,1176.756 					"/>
					<polygon fill="#999999" points="81.616,1157.699 79.271,1163.957 80.155,1164.217 82.5,1157.959 					"/>
					<polygon fill="#999999" points="84.63,1154.536 81.616,1157.699 82.404,1158.256 85.315,1155.152 					"/>
					<polygon fill="#999999" points="76.993,1157.776 77.698,1164.342 78.617,1164.264 77.911,1157.698 					"/>
					<polygon fill="#999999" points="78.652,1153.734 76.993,1157.776 77.921,1158.029 79.515,1154.061 					"/>
					<polygon fill="#999999" points="73.052,1158.203 75.995,1164.259 76.857,1163.932 73.913,1157.876 					"/>
					<polygon fill="#999999" points="73.541,1153.861 73.052,1158.203 74.027,1158.171 74.459,1153.938 					"/>
					
						<rect x="86.236" y="1161.806" transform="matrix(0.7061 -0.7082 0.7082 0.7061 -797.043 404.3552)" fill="#999999" width="4.628" height="0.923"/>
					
						<rect x="86.236" y="1167.263" transform="matrix(0.7061 0.7082 -0.7082 0.7061 852.9657 280.5434)" fill="#999999" width="4.628" height="0.922"/>
					<circle fill="#333333" cx="84.777" cy="1165.185" r="3.993"/>
					<ellipse fill="#333333" cx="68.749" cy="1165.185" rx="6.58" ry="4.946"/>
					<circle fill="#333333" cx="77.957" cy="1165.184" r="3.598"/>
				</g>
				<g>
					<polygon fill="#999999" points="118.752,1172.996 116.407,1166.738 117.291,1166.477 119.636,1172.735 					"/>
					<polygon fill="#999999" points="121.767,1176.158 118.752,1172.996 119.54,1172.438 122.451,1175.542 					"/>
					<polygon fill="#999999" points="114.129,1172.918 114.834,1166.353 115.753,1166.431 115.047,1172.997 					"/>
					<polygon fill="#999999" points="115.788,1176.96 114.129,1172.918 115.057,1172.666 116.651,1176.635 					"/>
					<polygon fill="#999999" points="110.188,1172.492 113.132,1166.436 113.993,1166.764 111.05,1172.818 					"/>
					<polygon fill="#999999" points="110.677,1176.834 110.188,1172.492 111.163,1172.523 111.596,1176.756 					"/>
					<polygon fill="#999999" points="118.752,1157.699 116.407,1163.957 117.291,1164.217 119.636,1157.959 					"/>
					<polygon fill="#999999" points="121.767,1154.536 118.752,1157.699 119.54,1158.256 122.451,1155.152 					"/>
					<polygon fill="#999999" points="114.129,1157.776 114.834,1164.342 115.753,1164.264 115.047,1157.698 					"/>
					<polygon fill="#999999" points="115.788,1153.734 114.129,1157.776 115.057,1158.029 116.651,1154.061 					"/>
					<polygon fill="#999999" points="110.188,1158.203 113.132,1164.259 113.993,1163.932 111.05,1157.876 					"/>
					<polygon fill="#999999" points="110.677,1153.861 110.188,1158.203 111.163,1158.171 111.596,1153.938 					"/>
					
						<rect x="123.372" y="1161.806" transform="matrix(0.7062 -0.7081 0.7081 0.7062 -786.0175 430.5174)" fill="#999999" width="4.629" height="0.923"/>
					
						<rect x="123.372" y="1167.263" transform="matrix(0.7062 0.7081 -0.7081 0.7062 863.7454 254.1347)" fill="#999999" width="4.629" height="0.922"/>
					<circle fill="#333333" cx="121.913" cy="1165.185" r="3.993"/>
					<ellipse fill="#333333" cx="105.886" cy="1165.185" rx="6.581" ry="4.946"/>
					<circle fill="#333333" cx="115.093" cy="1165.184" r="3.598"/>
				</g>
				<g>
					<polygon fill="#999999" points="155.889,1172.996 153.543,1166.738 154.428,1166.477 156.772,1172.735 					"/>
					<polygon fill="#999999" points="158.902,1176.158 155.889,1172.996 156.677,1172.438 159.588,1175.542 					"/>
					<polygon fill="#999999" points="151.266,1172.918 151.971,1166.353 152.89,1166.431 152.184,1172.997 					"/>
					<polygon fill="#999999" points="152.925,1176.96 151.266,1172.918 152.193,1172.666 153.787,1176.635 					"/>
					<polygon fill="#999999" points="147.324,1172.492 150.268,1166.436 151.13,1166.764 148.186,1172.818 					"/>
					<polygon fill="#999999" points="147.813,1176.834 147.324,1172.492 148.3,1172.523 148.731,1176.756 					"/>
					<polygon fill="#999999" points="155.889,1157.699 153.543,1163.957 154.428,1164.217 156.772,1157.959 					"/>
					<polygon fill="#999999" points="158.902,1154.536 155.889,1157.699 156.677,1158.256 159.588,1155.152 					"/>
					<polygon fill="#999999" points="151.266,1157.776 151.971,1164.342 152.89,1164.264 152.184,1157.698 					"/>
					<polygon fill="#999999" points="152.925,1153.734 151.266,1157.776 152.193,1158.029 153.787,1154.061 					"/>
					<polygon fill="#999999" points="147.324,1158.203 150.268,1164.259 151.13,1163.932 148.186,1157.876 					"/>
					<polygon fill="#999999" points="147.813,1153.861 147.324,1158.203 148.3,1158.171 148.731,1153.938 					"/>
					
						<rect x="160.509" y="1161.806" transform="matrix(0.7061 -0.7082 0.7082 0.7061 -775.2107 456.9521)" fill="#999999" width="4.628" height="0.923"/>
					
						<rect x="160.509" y="1167.263" transform="matrix(0.7061 0.7082 -0.7082 0.7061 874.798 227.9465)" fill="#999999" width="4.628" height="0.922"/>
					<circle fill="#333333" cx="159.05" cy="1165.185" r="3.993"/>
					<ellipse fill="#333333" cx="143.021" cy="1165.185" rx="6.58" ry="4.946"/>
					<circle fill="#333333" cx="152.229" cy="1165.184" r="3.598"/>
				</g>
				<g>
					<polygon fill="#999999" points="193.023,1172.996 190.678,1166.738 191.562,1166.477 193.908,1172.735 					"/>
					<polygon fill="#999999" points="196.039,1176.158 193.023,1172.996 193.812,1172.438 196.723,1175.542 					"/>
					<polygon fill="#999999" points="188.4,1172.918 189.105,1166.353 190.025,1166.431 189.318,1172.997 					"/>
					<polygon fill="#999999" points="190.061,1176.96 188.4,1172.918 189.328,1172.666 190.922,1176.635 					"/>
					<polygon fill="#999999" points="184.461,1172.492 187.404,1166.436 188.266,1166.764 185.32,1172.818 					"/>
					<polygon fill="#999999" points="184.949,1176.834 184.461,1172.492 185.436,1172.523 185.867,1176.756 					"/>
					<polygon fill="#999999" points="193.023,1157.699 190.678,1163.957 191.562,1164.217 193.908,1157.959 					"/>
					<polygon fill="#999999" points="196.039,1154.536 193.023,1157.699 193.812,1158.256 196.723,1155.152 					"/>
					<polygon fill="#999999" points="188.4,1157.776 189.105,1164.342 190.025,1164.264 189.318,1157.698 					"/>
					<polygon fill="#999999" points="190.061,1153.734 188.4,1157.776 189.328,1158.029 190.922,1154.061 					"/>
					<polygon fill="#999999" points="184.461,1158.203 187.404,1164.259 188.266,1163.932 185.32,1157.876 					"/>
					<polygon fill="#999999" points="184.949,1153.861 184.461,1158.203 185.436,1158.171 185.867,1153.938 					"/>
					
						<rect x="197.644" y="1161.806" transform="matrix(0.7063 -0.708 0.708 0.7063 -764.0916 482.9625)" fill="#999999" width="4.629" height="0.922"/>
					
						<rect x="197.644" y="1167.263" transform="matrix(0.7063 0.708 -0.708 0.7063 885.4255 201.4433)" fill="#999999" width="4.629" height="0.921"/>
					<circle fill="#333333" cx="196.186" cy="1165.185" r="3.993"/>
					<ellipse fill="#333333" cx="180.158" cy="1165.185" rx="6.582" ry="4.946"/>
					<circle fill="#333333" cx="189.365" cy="1165.184" r="3.598"/>
				</g>
				<g>
					<polygon fill="#999999" points="230.16,1172.996 227.814,1166.738 228.699,1166.477 231.044,1172.735 					"/>
					<polygon fill="#999999" points="233.174,1176.158 230.16,1172.996 230.948,1172.438 233.859,1175.542 					"/>
					<polygon fill="#999999" points="225.537,1172.918 226.242,1166.353 227.161,1166.431 226.455,1172.997 					"/>
					<polygon fill="#999999" points="227.196,1176.96 225.537,1172.918 226.465,1172.666 228.059,1176.635 					"/>
					<polygon fill="#999999" points="221.596,1172.492 224.539,1166.436 225.401,1166.764 222.457,1172.818 					"/>
					<polygon fill="#999999" points="222.085,1176.834 221.596,1172.492 222.571,1172.523 223.003,1176.756 					"/>
					<polygon fill="#999999" points="230.16,1157.699 227.814,1163.957 228.699,1164.217 231.044,1157.959 					"/>
					<polygon fill="#999999" points="233.174,1154.536 230.16,1157.699 230.948,1158.256 233.859,1155.152 					"/>
					<polygon fill="#999999" points="225.537,1157.776 226.242,1164.342 227.161,1164.264 226.455,1157.698 					"/>
					<polygon fill="#999999" points="227.196,1153.734 225.537,1157.776 226.465,1158.029 228.059,1154.061 					"/>
					<polygon fill="#999999" points="221.596,1158.203 224.539,1164.259 225.401,1163.932 222.457,1157.876 					"/>
					<polygon fill="#999999" points="222.085,1153.861 221.596,1158.203 222.571,1158.171 223.003,1153.938 					"/>
					
						<rect x="234.78" y="1161.806" transform="matrix(0.7061 -0.7082 0.7082 0.7061 -753.3787 509.5482)" fill="#999999" width="4.628" height="0.923"/>
					
						<rect x="234.78" y="1167.263" transform="matrix(0.7061 0.7082 -0.7082 0.7061 896.63 175.3503)" fill="#999999" width="4.628" height="0.922"/>
					<circle fill="#333333" cx="233.321" cy="1165.185" r="3.993"/>
					<ellipse fill="#333333" cx="217.293" cy="1165.185" rx="6.58" ry="4.946"/>
					<circle fill="#333333" cx="226.501" cy="1165.184" r="3.598"/>
				</g>
				<g>
					<polygon fill="#999999" points="267.296,1172.996 264.951,1166.738 265.835,1166.477 268.18,1172.735 					"/>
					<polygon fill="#999999" points="270.311,1176.158 267.296,1172.996 268.084,1172.438 270.995,1175.542 					"/>
					<polygon fill="#999999" points="262.673,1172.918 263.378,1166.353 264.297,1166.431 263.591,1172.997 					"/>
					<polygon fill="#999999" points="264.332,1176.96 262.673,1172.918 263.601,1172.666 265.195,1176.635 					"/>
					<polygon fill="#999999" points="258.732,1172.492 261.676,1166.436 262.537,1166.764 259.594,1172.818 					"/>
					<polygon fill="#999999" points="259.221,1176.834 258.732,1172.492 259.707,1172.523 260.14,1176.756 					"/>
					<polygon fill="#999999" points="267.296,1157.699 264.951,1163.957 265.835,1164.217 268.18,1157.959 					"/>
					<polygon fill="#999999" points="270.311,1154.536 267.296,1157.699 268.084,1158.256 270.995,1155.152 					"/>
					<polygon fill="#999999" points="262.673,1157.776 263.378,1164.342 264.297,1164.264 263.591,1157.698 					"/>
					<polygon fill="#999999" points="264.332,1153.734 262.673,1157.776 263.601,1158.029 265.195,1154.061 					"/>
					<polygon fill="#999999" points="258.732,1158.203 261.676,1164.259 262.537,1163.932 259.594,1157.876 					"/>
					<polygon fill="#999999" points="259.221,1153.861 258.732,1158.203 259.707,1158.171 260.14,1153.938 					"/>
					
						<rect x="271.916" y="1161.806" transform="matrix(0.7062 -0.7081 0.7081 0.7062 -742.3689 535.6948)" fill="#999999" width="4.629" height="0.923"/>
					
						<rect x="271.916" y="1167.263" transform="matrix(0.7062 0.7081 -0.7081 0.7062 907.394 148.9573)" fill="#999999" width="4.629" height="0.922"/>
					<circle fill="#333333" cx="270.457" cy="1165.185" r="3.993"/>
					<ellipse fill="#333333" cx="254.43" cy="1165.185" rx="6.581" ry="4.946"/>
					<circle fill="#333333" cx="263.637" cy="1165.184" r="3.598"/>
				</g>
				<g>
					<polygon fill="#999999" points="304.433,1172.996 302.087,1166.738 302.972,1166.477 305.316,1172.735 					"/>
					<polygon fill="#999999" points="307.446,1176.158 304.433,1172.996 305.221,1172.438 308.132,1175.542 					"/>
					<polygon fill="#999999" points="299.81,1172.918 300.515,1166.353 301.434,1166.431 300.728,1172.997 					"/>
					<polygon fill="#999999" points="301.469,1176.96 299.81,1172.918 300.737,1172.666 302.331,1176.635 					"/>
					<polygon fill="#999999" points="295.868,1172.492 298.812,1166.436 299.674,1166.764 296.729,1172.818 					"/>
					<polygon fill="#999999" points="296.357,1176.834 295.868,1172.492 296.844,1172.523 297.275,1176.756 					"/>
					<polygon fill="#999999" points="304.433,1157.699 302.087,1163.957 302.972,1164.217 305.316,1157.959 					"/>
					<polygon fill="#999999" points="307.446,1154.536 304.433,1157.699 305.221,1158.256 308.132,1155.152 					"/>
					<polygon fill="#999999" points="299.81,1157.776 300.515,1164.342 301.434,1164.264 300.728,1157.698 					"/>
					<polygon fill="#999999" points="301.469,1153.734 299.81,1157.776 300.737,1158.029 302.331,1154.061 					"/>
					<polygon fill="#999999" points="295.868,1158.203 298.812,1164.259 299.674,1163.932 296.729,1157.876 					"/>
					<polygon fill="#999999" points="296.357,1153.861 295.868,1158.203 296.844,1158.171 297.275,1153.938 					"/>
					
						<rect x="309.053" y="1161.806" transform="matrix(0.7061 -0.7082 0.7082 0.7061 -731.5463 562.1451)" fill="#999999" width="4.628" height="0.923"/>
					
						<rect x="309.053" y="1167.263" transform="matrix(0.7061 0.7082 -0.7082 0.7061 918.4623 122.7535)" fill="#999999" width="4.628" height="0.922"/>
					<circle fill="#333333" cx="307.594" cy="1165.185" r="3.993"/>
					<ellipse fill="#333333" cx="291.565" cy="1165.185" rx="6.58" ry="4.946"/>
					<circle fill="#333333" cx="300.773" cy="1165.184" r="3.598"/>
				</g>
			</g>
			<g>
				<g>
					<polygon fill="#999999" points="81.616,1142.854 79.271,1136.598 80.155,1136.336 82.5,1142.594 					"/>
					<polygon fill="#999999" points="84.63,1146.018 81.616,1142.854 82.404,1142.297 85.315,1145.4 					"/>
					<polygon fill="#999999" points="76.993,1142.777 77.698,1136.211 78.617,1136.289 77.911,1142.855 					"/>
					<polygon fill="#999999" points="78.652,1146.818 76.993,1142.777 77.921,1142.523 79.515,1146.492 					"/>
					<polygon fill="#999999" points="73.052,1142.35 75.995,1136.295 76.857,1136.621 73.913,1142.678 					"/>
					<polygon fill="#999999" points="73.541,1146.691 73.052,1142.35 74.027,1142.383 74.459,1146.615 					"/>
					<polygon fill="#999999" points="81.616,1127.559 79.271,1133.814 80.155,1134.076 82.5,1127.818 					"/>
					<polygon fill="#999999" points="84.63,1124.395 81.616,1127.559 82.404,1128.115 85.315,1125.012 					"/>
					<polygon fill="#999999" points="76.993,1127.635 77.698,1134.201 78.617,1134.123 77.911,1127.557 					"/>
					<polygon fill="#999999" points="78.652,1123.594 76.993,1127.635 77.921,1127.887 79.515,1123.92 					"/>
					<polygon fill="#999999" points="73.052,1128.061 75.995,1134.117 76.857,1133.791 73.913,1127.734 					"/>
					<polygon fill="#999999" points="73.541,1123.719 73.052,1128.061 74.027,1128.029 74.459,1123.797 					"/>
					
						<rect x="86.236" y="1131.665" transform="matrix(0.7061 -0.7082 0.7082 0.7061 -775.6982 395.4952)" fill="#999999" width="4.628" height="0.922"/>
					
						<rect x="86.236" y="1137.122" transform="matrix(0.7061 0.7082 -0.7082 0.7061 831.6213 271.6836)" fill="#999999" width="4.628" height="0.922"/>
					<circle fill="#333333" cx="84.777" cy="1135.043" r="3.992"/>
					<ellipse fill="#333333" cx="68.749" cy="1135.043" rx="6.58" ry="4.947"/>
					<circle fill="#333333" cx="77.957" cy="1135.043" r="3.598"/>
				</g>
				<g>
					<polygon fill="#999999" points="118.752,1142.854 116.407,1136.598 117.291,1136.336 119.636,1142.594 					"/>
					<polygon fill="#999999" points="121.767,1146.018 118.752,1142.854 119.54,1142.297 122.451,1145.4 					"/>
					<polygon fill="#999999" points="114.129,1142.777 114.834,1136.211 115.753,1136.289 115.047,1142.855 					"/>
					<polygon fill="#999999" points="115.788,1146.818 114.129,1142.777 115.057,1142.523 116.651,1146.492 					"/>
					<polygon fill="#999999" points="110.188,1142.35 113.132,1136.295 113.993,1136.621 111.05,1142.678 					"/>
					<polygon fill="#999999" points="110.677,1146.691 110.188,1142.35 111.163,1142.383 111.596,1146.615 					"/>
					<polygon fill="#999999" points="118.752,1127.559 116.407,1133.814 117.291,1134.076 119.636,1127.818 					"/>
					<polygon fill="#999999" points="121.767,1124.395 118.752,1127.559 119.54,1128.115 122.451,1125.012 					"/>
					<polygon fill="#999999" points="114.129,1127.635 114.834,1134.201 115.753,1134.123 115.047,1127.557 					"/>
					<polygon fill="#999999" points="115.788,1123.594 114.129,1127.635 115.057,1127.887 116.651,1123.92 					"/>
					<polygon fill="#999999" points="110.188,1128.061 113.132,1134.117 113.993,1133.791 111.05,1127.734 					"/>
					<polygon fill="#999999" points="110.677,1123.719 110.188,1128.061 111.163,1128.029 111.596,1123.797 					"/>
					
						<rect x="123.372" y="1131.665" transform="matrix(0.7062 -0.7081 0.7081 0.7062 -764.676 421.6606)" fill="#999999" width="4.629" height="0.922"/>
					
						<rect x="123.372" y="1137.122" transform="matrix(0.7062 0.7081 -0.7081 0.7062 842.4041 245.2781)" fill="#999999" width="4.629" height="0.922"/>
					<circle fill="#333333" cx="121.913" cy="1135.043" r="3.992"/>
					<ellipse fill="#333333" cx="105.886" cy="1135.043" rx="6.581" ry="4.947"/>
					<circle fill="#333333" cx="115.093" cy="1135.043" r="3.598"/>
				</g>
				<g>
					<polygon fill="#999999" points="155.889,1142.854 153.543,1136.598 154.428,1136.336 156.772,1142.594 					"/>
					<polygon fill="#999999" points="158.902,1146.018 155.889,1142.854 156.677,1142.297 159.588,1145.4 					"/>
					<polygon fill="#999999" points="151.266,1142.777 151.971,1136.211 152.89,1136.289 152.184,1142.855 					"/>
					<polygon fill="#999999" points="152.925,1146.818 151.266,1142.777 152.193,1142.523 153.787,1146.492 					"/>
					<polygon fill="#999999" points="147.324,1142.35 150.268,1136.295 151.13,1136.621 148.186,1142.678 					"/>
					<polygon fill="#999999" points="147.813,1146.691 147.324,1142.35 148.3,1142.383 148.731,1146.615 					"/>
					<polygon fill="#999999" points="155.889,1127.559 153.543,1133.814 154.428,1134.076 156.772,1127.818 					"/>
					<polygon fill="#999999" points="158.902,1124.395 155.889,1127.559 156.677,1128.115 159.588,1125.012 					"/>
					<polygon fill="#999999" points="151.266,1127.635 151.971,1134.201 152.89,1134.123 152.184,1127.557 					"/>
					<polygon fill="#999999" points="152.925,1123.594 151.266,1127.635 152.193,1127.887 153.787,1123.92 					"/>
					<polygon fill="#999999" points="147.324,1128.061 150.268,1134.117 151.13,1133.791 148.186,1127.734 					"/>
					<polygon fill="#999999" points="147.813,1123.719 147.324,1128.061 148.3,1128.029 148.731,1123.797 					"/>
					
						<rect x="160.509" y="1131.665" transform="matrix(0.7061 -0.7082 0.7082 0.7061 -753.866 448.0921)" fill="#999999" width="4.628" height="0.922"/>
					
						<rect x="160.509" y="1137.122" transform="matrix(0.7061 0.7082 -0.7082 0.7061 853.4536 219.0867)" fill="#999999" width="4.628" height="0.922"/>
					<circle fill="#333333" cx="159.05" cy="1135.043" r="3.992"/>
					<ellipse fill="#333333" cx="143.021" cy="1135.043" rx="6.58" ry="4.947"/>
					<circle fill="#333333" cx="152.229" cy="1135.043" r="3.598"/>
				</g>
				<g>
					<polygon fill="#999999" points="193.023,1142.854 190.678,1136.598 191.562,1136.336 193.908,1142.594 					"/>
					<polygon fill="#999999" points="196.039,1146.018 193.023,1142.854 193.812,1142.297 196.723,1145.4 					"/>
					<polygon fill="#999999" points="188.4,1142.777 189.105,1136.211 190.025,1136.289 189.318,1142.855 					"/>
					<polygon fill="#999999" points="190.061,1146.818 188.4,1142.777 189.328,1142.523 190.922,1146.492 					"/>
					<polygon fill="#999999" points="184.461,1142.35 187.404,1136.295 188.266,1136.621 185.32,1142.678 					"/>
					<polygon fill="#999999" points="184.949,1146.691 184.461,1142.35 185.436,1142.383 185.867,1146.615 					"/>
					<polygon fill="#999999" points="193.023,1127.559 190.678,1133.814 191.562,1134.076 193.908,1127.818 					"/>
					<polygon fill="#999999" points="196.039,1124.395 193.023,1127.559 193.812,1128.115 196.723,1125.012 					"/>
					<polygon fill="#999999" points="188.4,1127.635 189.105,1134.201 190.025,1134.123 189.318,1127.557 					"/>
					<polygon fill="#999999" points="190.061,1123.594 188.4,1127.635 189.328,1127.887 190.922,1123.92 					"/>
					<polygon fill="#999999" points="184.461,1128.061 187.404,1134.117 188.266,1133.791 185.32,1127.734 					"/>
					<polygon fill="#999999" points="184.949,1123.719 184.461,1128.061 185.436,1128.029 185.867,1123.797 					"/>
					
						<rect x="197.644" y="1131.665" transform="matrix(0.7063 -0.708 0.708 0.7063 -742.7532 474.1089)" fill="#999999" width="4.629" height="0.921"/>
					
						<rect x="197.644" y="1137.122" transform="matrix(0.7063 0.708 -0.708 0.7063 864.0874 192.5898)" fill="#999999" width="4.629" height="0.921"/>
					<circle fill="#333333" cx="196.186" cy="1135.043" r="3.992"/>
					<ellipse fill="#333333" cx="180.158" cy="1135.043" rx="6.582" ry="4.947"/>
					<circle fill="#333333" cx="189.365" cy="1135.043" r="3.598"/>
				</g>
				<g>
					<polygon fill="#999999" points="230.16,1142.854 227.814,1136.598 228.699,1136.336 231.044,1142.594 					"/>
					<polygon fill="#999999" points="233.174,1146.018 230.16,1142.854 230.948,1142.297 233.859,1145.4 					"/>
					<polygon fill="#999999" points="225.537,1142.777 226.242,1136.211 227.161,1136.289 226.455,1142.855 					"/>
					<polygon fill="#999999" points="227.196,1146.818 225.537,1142.777 226.465,1142.523 228.059,1146.492 					"/>
					<polygon fill="#999999" points="221.596,1142.35 224.539,1136.295 225.401,1136.621 222.457,1142.678 					"/>
					<polygon fill="#999999" points="222.085,1146.691 221.596,1142.35 222.571,1142.383 223.003,1146.615 					"/>
					<polygon fill="#999999" points="230.16,1127.559 227.814,1133.814 228.699,1134.076 231.044,1127.818 					"/>
					<polygon fill="#999999" points="233.174,1124.395 230.16,1127.559 230.948,1128.115 233.859,1125.012 					"/>
					<polygon fill="#999999" points="225.537,1127.635 226.242,1134.201 227.161,1134.123 226.455,1127.557 					"/>
					<polygon fill="#999999" points="227.196,1123.594 225.537,1127.635 226.465,1127.887 228.059,1123.92 					"/>
					<polygon fill="#999999" points="221.596,1128.061 224.539,1134.117 225.401,1133.791 222.457,1127.734 					"/>
					<polygon fill="#999999" points="222.085,1123.719 221.596,1128.061 222.571,1128.029 223.003,1123.797 					"/>
					
						<rect x="234.78" y="1131.665" transform="matrix(0.7061 -0.7082 0.7082 0.7061 -732.0339 500.6882)" fill="#999999" width="4.628" height="0.922"/>
					
						<rect x="234.78" y="1137.122" transform="matrix(0.7061 0.7082 -0.7082 0.7061 875.2856 166.4906)" fill="#999999" width="4.628" height="0.922"/>
					<circle fill="#333333" cx="233.321" cy="1135.043" r="3.992"/>
					<ellipse fill="#333333" cx="217.293" cy="1135.043" rx="6.58" ry="4.947"/>
					<circle fill="#333333" cx="226.501" cy="1135.043" r="3.598"/>
				</g>
				<g>
					<polygon fill="#999999" points="267.296,1142.854 264.951,1136.598 265.835,1136.336 268.18,1142.594 					"/>
					<polygon fill="#999999" points="270.311,1146.018 267.296,1142.854 268.084,1142.297 270.995,1145.4 					"/>
					<polygon fill="#999999" points="262.673,1142.777 263.378,1136.211 264.297,1136.289 263.591,1142.855 					"/>
					<polygon fill="#999999" points="264.332,1146.818 262.673,1142.777 263.601,1142.523 265.195,1146.492 					"/>
					<polygon fill="#999999" points="258.732,1142.35 261.676,1136.295 262.537,1136.621 259.594,1142.678 					"/>
					<polygon fill="#999999" points="259.221,1146.691 258.732,1142.35 259.707,1142.383 260.14,1146.615 					"/>
					<polygon fill="#999999" points="267.296,1127.559 264.951,1133.814 265.835,1134.076 268.18,1127.818 					"/>
					<polygon fill="#999999" points="270.311,1124.395 267.296,1127.559 268.084,1128.115 270.995,1125.012 					"/>
					<polygon fill="#999999" points="262.673,1127.635 263.378,1134.201 264.297,1134.123 263.591,1127.557 					"/>
					<polygon fill="#999999" points="264.332,1123.594 262.673,1127.635 263.601,1127.887 265.195,1123.92 					"/>
					<polygon fill="#999999" points="258.732,1128.061 261.676,1134.117 262.537,1133.791 259.594,1127.734 					"/>
					<polygon fill="#999999" points="259.221,1123.719 258.732,1128.061 259.707,1128.029 260.14,1123.797 					"/>
					
						<rect x="271.916" y="1131.665" transform="matrix(0.7062 -0.7081 0.7081 0.7062 -721.0273 526.838)" fill="#999999" width="4.629" height="0.922"/>
					
						<rect x="271.916" y="1137.122" transform="matrix(0.7062 0.7081 -0.7081 0.7062 886.0527 140.1007)" fill="#999999" width="4.629" height="0.922"/>
					<circle fill="#333333" cx="270.457" cy="1135.043" r="3.992"/>
					<ellipse fill="#333333" cx="254.43" cy="1135.043" rx="6.581" ry="4.947"/>
					<circle fill="#333333" cx="263.637" cy="1135.043" r="3.598"/>
				</g>
				<g>
					<polygon fill="#999999" points="304.433,1142.854 302.087,1136.598 302.972,1136.336 305.316,1142.594 					"/>
					<polygon fill="#999999" points="307.446,1146.018 304.433,1142.854 305.221,1142.297 308.132,1145.4 					"/>
					<polygon fill="#999999" points="299.81,1142.777 300.515,1136.211 301.434,1136.289 300.728,1142.855 					"/>
					<polygon fill="#999999" points="301.469,1146.818 299.81,1142.777 300.737,1142.523 302.331,1146.492 					"/>
					<polygon fill="#999999" points="295.868,1142.35 298.812,1136.295 299.674,1136.621 296.729,1142.678 					"/>
					<polygon fill="#999999" points="296.357,1146.691 295.868,1142.35 296.844,1142.383 297.275,1146.615 					"/>
					<polygon fill="#999999" points="304.433,1127.559 302.087,1133.814 302.972,1134.076 305.316,1127.818 					"/>
					<polygon fill="#999999" points="307.446,1124.395 304.433,1127.559 305.221,1128.115 308.132,1125.012 					"/>
					<polygon fill="#999999" points="299.81,1127.635 300.515,1134.201 301.434,1134.123 300.728,1127.557 					"/>
					<polygon fill="#999999" points="301.469,1123.594 299.81,1127.635 300.737,1127.887 302.331,1123.92 					"/>
					<polygon fill="#999999" points="295.868,1128.061 298.812,1134.117 299.674,1133.791 296.729,1127.734 					"/>
					<polygon fill="#999999" points="296.357,1123.719 295.868,1128.061 296.844,1128.029 297.275,1123.797 					"/>
					
						<rect x="309.053" y="1131.665" transform="matrix(0.7061 -0.7082 0.7082 0.7061 -710.2016 553.2852)" fill="#999999" width="4.628" height="0.922"/>
					
						<rect x="309.053" y="1137.122" transform="matrix(0.7061 0.7082 -0.7082 0.7061 897.1179 113.8937)" fill="#999999" width="4.628" height="0.922"/>
					<circle fill="#333333" cx="307.594" cy="1135.043" r="3.992"/>
					<ellipse fill="#333333" cx="291.565" cy="1135.043" rx="6.58" ry="4.947"/>
					<circle fill="#333333" cx="300.773" cy="1135.043" r="3.598"/>
				</g>
			</g>
			<g>
				<g>
					<polygon fill="#999999" points="81.616,1112.713 79.271,1106.456 80.155,1106.195 82.5,1112.453 					"/>
					<polygon fill="#999999" points="84.63,1115.876 81.616,1112.713 82.404,1112.156 85.315,1115.26 					"/>
					<polygon fill="#999999" points="76.993,1112.636 77.698,1106.07 78.617,1106.148 77.911,1112.715 					"/>
					<polygon fill="#999999" points="78.652,1116.678 76.993,1112.636 77.921,1112.383 79.515,1116.352 					"/>
					<polygon fill="#999999" points="73.052,1112.209 75.995,1106.153 76.857,1106.48 73.913,1112.537 					"/>
					<polygon fill="#999999" points="73.541,1116.551 73.052,1112.209 74.027,1112.241 74.459,1116.475 					"/>
					<polygon fill="#999999" points="81.616,1097.417 79.271,1103.674 80.155,1103.936 82.5,1097.678 					"/>
					<polygon fill="#999999" points="84.63,1094.254 81.616,1097.417 82.404,1097.974 85.315,1094.87 					"/>
					<polygon fill="#999999" points="76.993,1097.494 77.698,1104.06 78.617,1103.981 77.911,1097.416 					"/>
					<polygon fill="#999999" points="78.652,1093.452 76.993,1097.494 77.921,1097.746 79.515,1093.778 					"/>
					<polygon fill="#999999" points="73.052,1097.92 75.995,1103.977 76.857,1103.649 73.913,1097.594 					"/>
					<polygon fill="#999999" points="73.541,1093.578 73.052,1097.92 74.027,1097.889 74.459,1093.656 					"/>
					
						<rect x="86.236" y="1101.524" transform="matrix(0.7061 -0.7082 0.7082 0.7061 -754.3535 386.6353)" fill="#999999" width="4.628" height="0.923"/>
					
						<rect x="86.237" y="1106.981" transform="matrix(0.7062 0.7081 -0.7081 0.7062 810.1507 262.7161)" fill="#999999" width="4.627" height="0.922"/>
					<circle fill="#333333" cx="84.777" cy="1104.902" r="3.993"/>
					<ellipse fill="#333333" cx="68.749" cy="1104.902" rx="6.58" ry="4.947"/>
					<circle fill="#333333" cx="77.957" cy="1104.902" r="3.598"/>
				</g>
				<g>
					<polygon fill="#999999" points="118.752,1112.713 116.407,1106.456 117.291,1106.195 119.636,1112.453 					"/>
					<polygon fill="#999999" points="121.767,1115.876 118.752,1112.713 119.54,1112.156 122.451,1115.26 					"/>
					<polygon fill="#999999" points="114.129,1112.636 114.834,1106.07 115.753,1106.148 115.047,1112.715 					"/>
					<polygon fill="#999999" points="115.788,1116.678 114.129,1112.636 115.057,1112.383 116.651,1116.352 					"/>
					<polygon fill="#999999" points="110.188,1112.209 113.132,1106.153 113.993,1106.48 111.05,1112.537 					"/>
					<polygon fill="#999999" points="110.677,1116.551 110.188,1112.209 111.163,1112.241 111.596,1116.475 					"/>
					<polygon fill="#999999" points="118.752,1097.417 116.407,1103.674 117.291,1103.936 119.636,1097.678 					"/>
					<polygon fill="#999999" points="121.767,1094.254 118.752,1097.417 119.54,1097.974 122.451,1094.87 					"/>
					<polygon fill="#999999" points="114.129,1097.494 114.834,1104.06 115.753,1103.981 115.047,1097.416 					"/>
					<polygon fill="#999999" points="115.788,1093.452 114.129,1097.494 115.057,1097.746 116.651,1093.778 					"/>
					<polygon fill="#999999" points="110.188,1097.92 113.132,1103.977 113.993,1103.649 111.05,1097.594 					"/>
					<polygon fill="#999999" points="110.677,1093.578 110.188,1097.92 111.163,1097.889 111.596,1093.656 					"/>
					
						<rect x="123.372" y="1101.524" transform="matrix(0.7062 -0.7081 0.7081 0.7062 -743.3344 412.8039)" fill="#999999" width="4.629" height="0.923"/>
					
						<rect x="123.373" y="1106.981" transform="matrix(0.7063 0.708 -0.708 0.7063 820.9327 236.3177)" fill="#999999" width="4.628" height="0.922"/>
					<circle fill="#333333" cx="121.913" cy="1104.902" r="3.993"/>
					<ellipse fill="#333333" cx="105.886" cy="1104.902" rx="6.581" ry="4.947"/>
					<circle fill="#333333" cx="115.093" cy="1104.902" r="3.598"/>
				</g>
				<g>
					<polygon fill="#999999" points="155.889,1112.713 153.543,1106.456 154.428,1106.195 156.772,1112.453 					"/>
					<polygon fill="#999999" points="158.902,1115.876 155.889,1112.713 156.677,1112.156 159.588,1115.26 					"/>
					<polygon fill="#999999" points="151.266,1112.636 151.971,1106.07 152.89,1106.148 152.184,1112.715 					"/>
					<polygon fill="#999999" points="152.925,1116.678 151.266,1112.636 152.193,1112.383 153.787,1116.352 					"/>
					<polygon fill="#999999" points="147.324,1112.209 150.268,1106.153 151.13,1106.48 148.186,1112.537 					"/>
					<polygon fill="#999999" points="147.813,1116.551 147.324,1112.209 148.3,1112.241 148.731,1116.475 					"/>
					<polygon fill="#999999" points="155.889,1097.417 153.543,1103.674 154.428,1103.936 156.772,1097.678 					"/>
					<polygon fill="#999999" points="158.902,1094.254 155.889,1097.417 156.677,1097.974 159.588,1094.87 					"/>
					<polygon fill="#999999" points="151.266,1097.494 151.971,1104.06 152.89,1103.981 152.184,1097.416 					"/>
					<polygon fill="#999999" points="152.925,1093.452 151.266,1097.494 152.193,1097.746 153.787,1093.778 					"/>
					<polygon fill="#999999" points="147.324,1097.92 150.268,1103.977 151.13,1103.649 148.186,1097.594 					"/>
					<polygon fill="#999999" points="147.813,1093.578 147.324,1097.92 148.3,1097.889 148.731,1093.656 					"/>
					
						<rect x="160.509" y="1101.524" transform="matrix(0.7061 -0.7082 0.7082 0.7061 -732.5212 439.2322)" fill="#999999" width="4.628" height="0.923"/>
					
						<rect x="160.509" y="1106.981" transform="matrix(0.7062 0.7081 -0.7081 0.7062 831.9752 210.1271)" fill="#999999" width="4.627" height="0.922"/>
					<circle fill="#333333" cx="159.05" cy="1104.902" r="3.993"/>
					<ellipse fill="#333333" cx="143.021" cy="1104.902" rx="6.58" ry="4.947"/>
					<circle fill="#333333" cx="152.229" cy="1104.902" r="3.598"/>
				</g>
				<g>
					<polygon fill="#999999" points="230.16,1112.713 227.814,1106.456 228.699,1106.195 231.044,1112.453 					"/>
					<polygon fill="#999999" points="233.174,1115.876 230.16,1112.713 230.948,1112.156 233.859,1115.26 					"/>
					<polygon fill="#999999" points="225.537,1112.636 226.242,1106.07 227.161,1106.148 226.455,1112.715 					"/>
					<polygon fill="#999999" points="227.196,1116.678 225.537,1112.636 226.465,1112.383 228.059,1116.352 					"/>
					<polygon fill="#999999" points="221.596,1112.209 224.539,1106.153 225.401,1106.48 222.457,1112.537 					"/>
					<polygon fill="#999999" points="222.085,1116.551 221.596,1112.209 222.571,1112.241 223.003,1116.475 					"/>
					<polygon fill="#999999" points="230.16,1097.417 227.814,1103.674 228.699,1103.936 231.044,1097.678 					"/>
					<polygon fill="#999999" points="233.174,1094.254 230.16,1097.417 230.948,1097.974 233.859,1094.87 					"/>
					<polygon fill="#999999" points="225.537,1097.494 226.242,1104.06 227.161,1103.981 226.455,1097.416 					"/>
					<polygon fill="#999999" points="227.196,1093.452 225.537,1097.494 226.465,1097.746 228.059,1093.778 					"/>
					<polygon fill="#999999" points="221.596,1097.92 224.539,1103.977 225.401,1103.649 222.457,1097.594 					"/>
					<polygon fill="#999999" points="222.085,1093.578 221.596,1097.92 222.571,1097.889 223.003,1093.656 					"/>
					
						<rect x="234.78" y="1101.524" transform="matrix(0.7061 -0.7082 0.7082 0.7061 -710.6891 491.8284)" fill="#999999" width="4.628" height="0.923"/>
					
						<rect x="234.781" y="1106.981" transform="matrix(0.7062 0.7081 -0.7081 0.7062 853.7993 157.5387)" fill="#999999" width="4.627" height="0.922"/>
					<circle fill="#333333" cx="233.321" cy="1104.902" r="3.993"/>
					<ellipse fill="#333333" cx="217.293" cy="1104.902" rx="6.58" ry="4.947"/>
					<circle fill="#333333" cx="226.501" cy="1104.902" r="3.598"/>
				</g>
				<g>
					<polygon fill="#999999" points="267.296,1112.713 264.951,1106.456 265.835,1106.195 268.18,1112.453 					"/>
					<polygon fill="#999999" points="270.311,1115.876 267.296,1112.713 268.084,1112.156 270.995,1115.26 					"/>
					<polygon fill="#999999" points="262.673,1112.636 263.378,1106.07 264.297,1106.148 263.591,1112.715 					"/>
					<polygon fill="#999999" points="264.332,1116.678 262.673,1112.636 263.601,1112.383 265.195,1116.352 					"/>
					<polygon fill="#999999" points="258.732,1112.209 261.676,1106.153 262.537,1106.48 259.594,1112.537 					"/>
					<polygon fill="#999999" points="259.221,1116.551 258.732,1112.209 259.707,1112.241 260.14,1116.475 					"/>
					<polygon fill="#999999" points="267.296,1097.417 264.951,1103.674 265.835,1103.936 268.18,1097.678 					"/>
					<polygon fill="#999999" points="270.311,1094.254 267.296,1097.417 268.084,1097.974 270.995,1094.87 					"/>
					<polygon fill="#999999" points="262.673,1097.494 263.378,1104.06 264.297,1103.981 263.591,1097.416 					"/>
					<polygon fill="#999999" points="264.332,1093.452 262.673,1097.494 263.601,1097.746 265.195,1093.778 					"/>
					<polygon fill="#999999" points="258.732,1097.92 261.676,1103.977 262.537,1103.649 259.594,1097.594 					"/>
					<polygon fill="#999999" points="259.221,1093.578 258.732,1097.92 259.707,1097.889 260.14,1093.656 					"/>
					
						<rect x="271.916" y="1101.524" transform="matrix(0.7062 -0.7081 0.7081 0.7062 -699.6857 517.9813)" fill="#999999" width="4.629" height="0.923"/>
					
						<rect x="271.916" y="1106.981" transform="matrix(0.7063 0.708 -0.708 0.7063 864.5657 131.1559)" fill="#999999" width="4.628" height="0.922"/>
					<circle fill="#333333" cx="270.457" cy="1104.902" r="3.993"/>
					<ellipse fill="#333333" cx="254.43" cy="1104.902" rx="6.581" ry="4.947"/>
					<circle fill="#333333" cx="263.637" cy="1104.902" r="3.598"/>
				</g>
				<g>
					<polygon fill="#999999" points="304.433,1112.713 302.087,1106.456 302.972,1106.195 305.316,1112.453 					"/>
					<polygon fill="#999999" points="307.446,1115.876 304.433,1112.713 305.221,1112.156 308.132,1115.26 					"/>
					<polygon fill="#999999" points="299.81,1112.636 300.515,1106.07 301.434,1106.148 300.728,1112.715 					"/>
					<polygon fill="#999999" points="301.469,1116.678 299.81,1112.636 300.737,1112.383 302.331,1116.352 					"/>
					<polygon fill="#999999" points="295.868,1112.209 298.812,1106.153 299.674,1106.48 296.729,1112.537 					"/>
					<polygon fill="#999999" points="296.357,1116.551 295.868,1112.209 296.844,1112.241 297.275,1116.475 					"/>
					<polygon fill="#999999" points="304.433,1097.417 302.087,1103.674 302.972,1103.936 305.316,1097.678 					"/>
					<polygon fill="#999999" points="307.446,1094.254 304.433,1097.417 305.221,1097.974 308.132,1094.87 					"/>
					<polygon fill="#999999" points="299.81,1097.494 300.515,1104.06 301.434,1103.981 300.728,1097.416 					"/>
					<polygon fill="#999999" points="301.469,1093.452 299.81,1097.494 300.737,1097.746 302.331,1093.778 					"/>
					<polygon fill="#999999" points="295.868,1097.92 298.812,1103.977 299.674,1103.649 296.729,1097.594 					"/>
					<polygon fill="#999999" points="296.357,1093.578 295.868,1097.92 296.844,1097.889 297.275,1093.656 					"/>
					
						<rect x="309.053" y="1101.524" transform="matrix(0.7061 -0.7082 0.7082 0.7061 -688.8568 544.4252)" fill="#999999" width="4.628" height="0.923"/>
					
						<rect x="309.053" y="1106.981" transform="matrix(0.7062 0.7081 -0.7081 0.7062 875.6238 104.9496)" fill="#999999" width="4.627" height="0.922"/>
					<circle fill="#333333" cx="307.594" cy="1104.902" r="3.993"/>
					<ellipse fill="#333333" cx="291.565" cy="1104.902" rx="6.58" ry="4.947"/>
					<circle fill="#333333" cx="300.773" cy="1104.902" r="3.598"/>
				</g>
				<g>
					<polygon fill="#999999" points="193.023,1112.713 190.678,1106.456 191.562,1106.195 193.908,1112.453 					"/>
					<polygon fill="#999999" points="196.039,1115.876 193.023,1112.713 193.812,1112.156 196.723,1115.26 					"/>
					<polygon fill="#999999" points="188.4,1112.636 189.105,1106.07 190.025,1106.148 189.318,1112.715 					"/>
					<polygon fill="#999999" points="190.061,1116.678 188.4,1112.636 189.328,1112.383 190.922,1116.352 					"/>
					<polygon fill="#999999" points="184.461,1112.209 187.404,1106.153 188.266,1106.48 185.32,1112.537 					"/>
					<polygon fill="#999999" points="184.949,1116.551 184.461,1112.209 185.436,1112.241 185.867,1116.475 					"/>
					<polygon fill="#999999" points="193.023,1097.417 190.678,1103.674 191.562,1103.936 193.908,1097.678 					"/>
					<polygon fill="#999999" points="196.039,1094.254 193.023,1097.417 193.812,1097.974 196.723,1094.87 					"/>
					<polygon fill="#999999" points="188.4,1097.494 189.105,1104.06 190.025,1103.981 189.318,1097.416 					"/>
					<polygon fill="#999999" points="190.061,1093.452 188.4,1097.494 189.328,1097.746 190.922,1093.778 					"/>
					<polygon fill="#999999" points="184.461,1097.92 187.404,1103.977 188.266,1103.649 185.32,1097.594 					"/>
					<polygon fill="#999999" points="184.949,1093.578 184.461,1097.92 185.436,1097.889 185.867,1093.656 					"/>
					
						<rect x="197.644" y="1101.524" transform="matrix(0.7063 -0.708 0.708 0.7063 -721.4148 465.2553)" fill="#999999" width="4.629" height="0.922"/>
					
						<rect x="197.645" y="1106.981" transform="matrix(0.7064 0.7078 -0.7078 0.7064 842.6114 183.6405)" fill="#999999" width="4.629" height="0.921"/>
					<circle fill="#333333" cx="196.186" cy="1104.902" r="3.993"/>
					<ellipse fill="#333333" cx="180.158" cy="1104.902" rx="6.582" ry="4.947"/>
					<circle fill="#333333" cx="189.365" cy="1104.902" r="3.598"/>
				</g>
			</g>
		</g>
	</g>
	<g>
		<ellipse opacity="0.2" fill="#333333" cx="240.22" cy="1083.359" rx="13.342" ry="4.348"/>
		<rect x="235" y="1028.666" fill="#F4A25F" width="11" height="54"/>
		<rect x="235" y="1028.666" fill="#DD925B" width="0" height="54"/>
		<rect x="237" y="1028.666" fill="#DD925B" width="2" height="54"/>
		<rect x="240" y="1028.666" fill="#DD925B" width="2" height="54"/>
		<rect x="243" y="1028.666" fill="#DD925B" width="2" height="54"/>
		<rect x="235" y="1029.666" opacity="0.2" fill="#333333" width="11" height="15"/>
		<polygon fill="#89427C" points="260.835,1036.92 204.779,1033.82 207.258,1014.746 262.28,1025.792 		"/>
		<polygon fill="#89427C" points="257.43,1013.364 285.567,1034.88 252.866,1048.49 		"/>
	</g>
</g>
</svg>
