<?xml version="1.0" encoding="utf-8"?>
<!-- Generator: Adobe Illustrator 16.0.0, SVG Export Plug-In . SVG Version: 6.00 Build 0)  -->
<!DOCTYPE svg PUBLIC "-//W3C//DTD SVG 1.1//EN" "http://www.w3.org/Graphics/SVG/1.1/DTD/svg11.dtd">
<svg version="1.1" id="Layer_1" xmlns="http://www.w3.org/2000/svg" xmlns:xlink="http://www.w3.org/1999/xlink" x="0px" y="0px"
	 viewBox="0 0 997.553 344.122" enable-background="new 0 0 997.553 344.122"
	 xml:space="preserve">
<path fill="#2EA3F2" d="M634.553,193c0,11.046-8.954,20-20,20h-227c-11.046,0-20-8.954-20-20V20c0-11.046,8.954-20,20-20h227
	c11.046,0,20,8.954,20,20V193z"/>
<path fill="#2EA3F2" d="M997.553,324c0,11.046-8.954,20-20,20h-227c-11.046,0-20-8.954-20-20V20c0-11.046,8.954-20,20-20h227
	c11.046,0,20,8.954,20,20V324z"/>
<path fill="#2EA3F2" d="M277.553,193c0,11.046-8.954,20-20,20h-227c-11.046,0-20-8.954-20-20V20c0-11.046,8.954-20,20-20h227
	c11.046,0,20,8.954,20,20V193z"/>
<g>
	<rect x="49.308" y="20.211" fill="none" width="190.49" height="18.134"/>
	<text transform="matrix(1 0 0 1 51.563 36.9307)" fill="#F7F7F7" font-family="'Open Sans', sans-serif" font-size="22">Uma Rede Pública</text>
</g>
<g>
	<rect x="382.471" y="20.211" fill="none" width="237.164" height="17.386"/>
	<text transform="matrix(1 0 0 1 384.6128 36.9302)" fill="#F7F7F7" font-family="'Open Sans', sans-serif" font-size="22">Incentivos Econômicos</text>
</g>
<g>
	<rect x="750.778" y="20.211" fill="none" width="226.549" height="94.092"/>
	<text transform="matrix(1 0 0 1 783.9268 36.9302)"><tspan x="0" y="0" fill="#F7F7F7" font-family="'Open Sans', sans-serif" font-size="22">Manutenção de </tspan><tspan x="-15.409" y="26.4" fill="#F7F7F7" font-family="'Open Sans', sans-serif" font-size="22">Consenso Sem um </tspan><tspan x="-30.19" y="52.8" fill="#F7F7F7" font-family="'Open Sans', sans-serif" font-size="22">Intermediário Central</tspan></text>
</g>
<g>
	<rect y="227.502" fill="none" width="289.105" height="112.722"/>
	<text transform="matrix(1 0 0 1 78.8931 242.7021)"><tspan x="0" y="0" fill="#333333" font-family="'Open Sans', sans-serif" font-size="20">Mais Usuários</tspan><tspan x="59.941" y="24" fill="#333333" font-family="'Open Sans', sans-serif" font-size="20">= </tspan><tspan x="-75.879" y="48" fill="#333333" font-family="'Open Sans', sans-serif" font-size="20">Mais Poder de Processamento</tspan><tspan x="59.941" y="72" fill="#333333" font-family="'Open Sans', sans-serif" font-size="20">= </tspan><tspan x="-7.646" y="96" fill="#333333" font-family="'Open Sans', sans-serif" font-size="20">Mais Segurança</tspan></text>
</g>
<line fill="none" stroke="#333333" stroke-width="2" stroke-miterlimit="10" stroke-dasharray="4" x1="122.327" y1="83.787" x2="198.848" y2="134.666"/>
<line fill="none" stroke="#333333" stroke-width="2" stroke-miterlimit="10" stroke-dasharray="4" x1="166.674" y1="83.768" x2="90.154" y2="134.707"/>
<line fill="none" stroke="#333333" stroke-width="2" stroke-miterlimit="10" stroke-dasharray="4" x1="166.674" y1="83.768" x2="144.5" y2="168.775"/>
<line fill="none" stroke="#333333" stroke-width="2" stroke-miterlimit="10" stroke-dasharray="4" x1="122.327" y1="83.787" x2="144.5" y2="168.775"/>
<polygon fill="none" stroke="#333333" stroke-width="2" stroke-miterlimit="10" stroke-dasharray="4" points="122.327,83.787 
	166.674,83.768 198.848,134.666 144.5,168.775 90.154,134.707 "/>
<g>
	<circle fill="#F7F7F7" cx="90.148" cy="118.667" r="4.324"/>
	<path fill="#F7F7F7" d="M99.159,126.798c0,1.167-1.99,1.673-2.971,1.673l-12.328,0.005c-0.98,0.001-2.814-0.305-2.815-1.475l0,0
		c0-1.165,3.591-2.752,4.573-2.753l9.063-0.003C95.664,124.245,99.158,125.631,99.159,126.798L99.159,126.798z"/>
	<path fill="#F7F7F7" d="M96.038,142.398c0.001,0.927,0.75,1.674,1.673,1.674l0,0c0.927-0.001,1.674-0.749,1.674-1.674
		l-0.007-14.783c0-0.924-0.749-1.674-1.674-1.675l0,0c-0.923,0.001-1.674,0.753-1.673,1.676L96.038,142.398z"/>
	<path fill="#F7F7F7" d="M91.282,158.834c0.001,0.923,0.75,1.672,1.673,1.673l0,0c0.924-0.001,1.674-0.751,1.672-1.674
		l-0.006-14.784c-0.001-0.926-0.749-1.674-1.674-1.674l0,0c-0.923,0.002-1.673,0.751-1.672,1.676L91.282,158.834z"/>
	<path fill="#F7F7F7" d="M85.702,158.837c0.001,0.923,0.751,1.673,1.677,1.671l0,0c0.922,0.001,1.673-0.748,1.673-1.674
		l-0.007-14.781c0-0.926-0.752-1.675-1.673-1.676l0,0c-0.927,0.001-1.676,0.751-1.676,1.676L85.702,158.837z"/>
	<path fill="#F7F7F7" d="M80.933,142.407c0,0.924,0.747,1.673,1.673,1.671l0,0c0.925,0,1.673-0.749,1.674-1.673l-0.007-14.783
		c-0.001-0.924-0.751-1.674-1.675-1.672l0,0c-0.925-0.002-1.672,0.751-1.672,1.673L80.933,142.407z"/>
	<rect x="85.691" y="125.084" fill="#F7F7F7" width="8.926" height="19.246"/>
</g>
<g>
	<circle fill="#F7F7F7" cx="122.321" cy="67.75" r="4.324"/>
	<path fill="#F7F7F7" d="M131.333,75.878c0,1.169-1.99,1.674-2.973,1.674l-12.327,0.005c-0.978,0.002-2.814-0.307-2.814-1.473l0,0
		c0-1.168,3.59-2.754,4.573-2.755l9.063-0.003C127.838,73.326,131.331,74.711,131.333,75.878L131.333,75.878z"/>
	<path fill="#F7F7F7" d="M128.212,91.48c0,0.926,0.749,1.673,1.674,1.673l0,0c0.925-0.001,1.672-0.749,1.672-1.674l-0.007-14.783
		c0-0.923-0.749-1.673-1.673-1.672l0,0c-0.925,0-1.672,0.751-1.672,1.674L128.212,91.48z"/>
	<path fill="#F7F7F7" d="M123.455,107.916c0,0.923,0.75,1.672,1.673,1.672l0,0c0.927-0.001,1.672-0.751,1.673-1.674l-0.006-14.783
		c-0.001-0.924-0.749-1.674-1.675-1.673l0,0c-0.922-0.001-1.672,0.749-1.671,1.674L123.455,107.916z"/>
	<path fill="#F7F7F7" d="M117.876,107.918c0.001,0.924,0.749,1.674,1.675,1.673l0,0c0.922-0.001,1.672-0.751,1.673-1.675
		l-0.007-14.781c-0.001-0.928-0.752-1.677-1.673-1.677l0,0c-0.927,0.002-1.675,0.753-1.675,1.677L117.876,107.918z"/>
	<path fill="#F7F7F7" d="M113.105,91.488c0.001,0.924,0.75,1.672,1.674,1.672l0,0c0.925,0,1.672-0.748,1.671-1.673l-0.007-14.783
		c0.001-0.925-0.749-1.673-1.674-1.673l0,0c-0.925,0-1.671,0.75-1.672,1.674L113.105,91.488z"/>
	<rect x="117.866" y="74.166" fill="#F7F7F7" width="8.922" height="19.245"/>
</g>
<g>
	<circle fill="#F7F7F7" cx="144.494" cy="152.737" r="4.324"/>
	<path fill="#F7F7F7" d="M153.505,160.866c0,1.169-1.991,1.675-2.971,1.675l-12.329,0.006c-0.979,0-2.812-0.307-2.812-1.474l0,0
		c-0.001-1.169,3.59-2.755,4.573-2.755l9.063-0.003C150.011,158.313,153.504,159.699,153.505,160.866L153.505,160.866z"/>
	<path fill="#F7F7F7" d="M150.382,176.471c0.001,0.925,0.751,1.67,1.676,1.67l0,0c0.925,0,1.672-0.748,1.672-1.672l-0.007-14.783
		c0-0.925-0.749-1.674-1.673-1.674l0,0c-0.925,0-1.675,0.752-1.674,1.674L150.382,176.471z"/>
	<path fill="#F7F7F7" d="M145.627,192.904c0.002,0.922,0.751,1.671,1.675,1.672l0,0c0.926-0.001,1.672-0.751,1.671-1.673
		l-0.006-14.785c0-0.924-0.746-1.674-1.674-1.673l0,0c-0.923,0-1.672,0.75-1.672,1.674L145.627,192.904z"/>
	<path fill="#F7F7F7" d="M140.05,192.905c0,0.925,0.749,1.673,1.675,1.673l0,0c0.922-0.001,1.671-0.749,1.671-1.673l-0.007-14.784
		c0.001-0.926-0.751-1.674-1.673-1.674l0,0c-0.925,0-1.673,0.75-1.673,1.676L140.05,192.905z"/>
	<path fill="#F7F7F7" d="M135.28,176.476c0,0.925,0.747,1.674,1.673,1.673l0,0c0.923-0.002,1.673-0.749,1.672-1.675l-0.007-14.781
		c0-0.925-0.75-1.674-1.674-1.673l0,0c-0.925-0.001-1.672,0.75-1.671,1.674L135.28,176.476z"/>
	<rect x="140.039" y="159.152" fill="#F7F7F7" width="8.923" height="19.246"/>
</g>
<g>
	<circle fill="#F7F7F7" cx="166.667" cy="67.729" r="4.324"/>
	<path fill="#F7F7F7" d="M175.677,75.857c0.001,1.168-1.988,1.673-2.97,1.674l-12.327,0.007c-0.98,0.001-2.814-0.308-2.815-1.476
		l0,0c0-1.166,3.59-2.752,4.572-2.753l9.064-0.005C172.184,73.305,175.678,74.691,175.677,75.857L175.677,75.857z"/>
	<path fill="#F7F7F7" d="M172.557,91.461c0,0.926,0.75,1.672,1.674,1.672l0,0c0.926,0,1.674-0.75,1.672-1.673l-0.006-14.784
		c0-0.923-0.75-1.673-1.676-1.672l0,0c-0.923,0-1.671,0.75-1.671,1.673L172.557,91.461z"/>
	<path fill="#F7F7F7" d="M167.8,107.896c0.001,0.923,0.753,1.673,1.673,1.672l0,0c0.926-0.002,1.675-0.75,1.673-1.674l-0.007-14.782
		c0-0.925-0.748-1.676-1.672-1.674l0,0c-0.923-0.002-1.675,0.749-1.674,1.674L167.8,107.896z"/>
	<path fill="#F7F7F7" d="M162.223,107.897c0,0.925,0.75,1.672,1.675,1.673l0,0c0.923-0.001,1.673-0.752,1.672-1.674l-0.007-14.783
		c0-0.926-0.751-1.676-1.674-1.674l0,0c-0.925-0.001-1.673,0.75-1.673,1.676L162.223,107.897z"/>
	<path fill="#F7F7F7" d="M157.454,91.467c-0.001,0.926,0.747,1.672,1.672,1.673l0,0c0.924-0.001,1.672-0.749,1.672-1.673
		l-0.006-14.783c-0.001-0.924-0.751-1.675-1.674-1.675l0,0c-0.925,0.002-1.672,0.752-1.671,1.677L157.454,91.467z"/>
	<rect x="162.212" y="74.145" fill="#F7F7F7" width="8.923" height="19.246"/>
</g>
<g>
	<circle fill="#F7F7F7" cx="198.838" cy="118.628" r="4.324"/>
	<path fill="#F7F7F7" d="M207.852,126.756c0,1.167-1.991,1.674-2.971,1.674l-12.33,0.006c-0.978,0-2.812-0.307-2.812-1.474l0,0
		c0-1.169,3.589-2.754,4.572-2.754l9.062-0.005C204.356,124.203,207.852,125.588,207.852,126.756L207.852,126.756z"/>
	<path fill="#F7F7F7" d="M204.729,142.358c0.001,0.926,0.751,1.673,1.676,1.673l0,0c0.925,0,1.671-0.749,1.671-1.673l-0.005-14.784
		c-0.001-0.924-0.748-1.674-1.673-1.673l0,0c-0.925-0.001-1.676,0.751-1.675,1.675L204.729,142.358z"/>
	<path fill="#F7F7F7" d="M199.971,158.794c0.002,0.921,0.754,1.672,1.676,1.671l0,0c0.926,0,1.673-0.75,1.673-1.674l-0.006-14.783
		c-0.001-0.925-0.75-1.674-1.675-1.674l0,0c-0.923,0-1.673,0.75-1.673,1.676L199.971,158.794z"/>
	<path fill="#F7F7F7" d="M194.396,158.797c-0.001,0.923,0.749,1.671,1.674,1.671l0,0c0.924,0,1.673-0.749,1.671-1.673l-0.004-14.783
		c-0.001-0.927-0.754-1.675-1.677-1.676l0,0c-0.924,0.001-1.671,0.751-1.671,1.676L194.396,158.797z"/>
	<path fill="#F7F7F7" d="M189.626,142.366c0,0.924,0.748,1.671,1.673,1.672l0,0c0.923-0.001,1.673-0.749,1.673-1.675l-0.007-14.782
		c0-0.923-0.751-1.673-1.674-1.673l0,0c-0.926,0-1.672,0.752-1.672,1.674L189.626,142.366z"/>
	<rect x="194.385" y="125.044" fill="#F7F7F7" width="8.924" height="19.245"/>
</g>
<g>
	<path fill="#333333" d="M327.258,104.109h14.484v4.852h-14.484v14.977h-4.887v-14.977h-14.414v-4.852h14.414V89.062h4.887V104.109z
		"/>
</g>
<g>
	<path fill="#333333" d="M667.152,101.719v-4.816h32.695v4.816H667.152z M667.152,116.098v-4.816h32.695v4.816H667.152z"/>
</g>
<g>
	<circle fill="#F7F7F7" cx="501.535" cy="128.416" r="63.333"/>
	<g>
		<defs>
			<circle id="SVGID_1_" cx="501.07" cy="128.416" r="63.333"/>
		</defs>
		<clipPath id="SVGID_2_">
			<use xlink:href="#SVGID_1_"  overflow="visible"/>
		</clipPath>
		<g clip-path="url(#SVGID_2_)">
			<path fill="#99A641" d="M501.173,109.971c0-5.678,11.972-31.844,7.024-32.184c-4.951-0.342-10.012,11.039-13.427,10.954
				c-3.413-0.085-7.75-5.496-12.187-4.13c-3.99,1.229,8.882,21.079,8.882,25.359c0,5.111-25.49,32.644-25.49,49.859
				c0,20.142,15.276,25.26,29.982,25.26s31.119-5.461,31.119-26.626C527.077,142.614,501.173,115.646,501.173,109.971z"/>
			<g>
				<rect x="524.553" y="103" fill="#FFCCB0" width="75" height="20"/>
				<path fill="#FFCCB0" d="M533.551,103.244c-5.164,0-14.407-4.982-18.125-10.561c0,0-3.926-3.912-7.643-4.117l-3.512,6.002
					l-0.92,35.323c0,0,11.429,0.425,16.722-4.882c1.896-1.9,5.783-1.938,11.773-1.938"/>
				<path fill="#FFCCB0" d="M506.553,97.332c0-1.576-1.666-2.332-3.201-2.332h-15.007c-1.536,0-3.792,0.756-3.792,2.332v28.564
					c0,1.578,2.256,4.104,3.792,4.104h15.007c1.535,0,3.201-2.525,3.201-4.104V97.332z"/>
				<path fill="#FFCCB0" d="M493.553,97.779c0-1.535-1.244-2.779-2.779-2.779h-7.441c-1.535,0-2.779,1.244-2.779,2.779v2.441
					c0,1.535,1.244,2.779,2.779,2.779h7.441c1.535,0,2.779-1.244,2.779-2.779V97.779z"/>
				<path fill="#FFCCB0" d="M493.553,106.78c0-1.535-1.244-2.78-2.779-2.78h-7.441c-1.535,0-2.779,1.245-2.779,2.78v1.439
					c0,1.535,1.244,2.78,2.779,2.78h7.441c1.535,0,2.779-1.245,2.779-2.78V106.78z"/>
				<path fill="#FFCCB0" d="M494.553,114.425c0-1.362-1.227-2.425-2.525-2.425h-8.398c-1.299,0-3.077,1.062-3.077,2.425v3.639
					c0,1.364,1.778,2.937,3.077,2.937h8.398c1.298,0,2.525-1.572,2.525-2.937V114.425z"/>
				<path fill="#FFCCB0" d="M494.553,124.829c0-1.573-1.194-2.829-2.709-2.829h-7.508c-1.515,0-3.783,1.256-3.783,2.829V126
					c0,1.572,2.268,4,3.783,4h7.508c1.515,0,2.709-2.428,2.709-4V124.829z"/>
				<path fill="#FFCCB0" d="M484.752,102.463c0.325,0,0.494,0.619,0.485,0.897c-0.014,0.346-0.066,1.083-0.506,1.083
					c-0.44,0,0.406,0.557,0.406,0.557h0.416v-3h-0.822L484.752,102.463z"/>
				<path fill="#FFCCB0" d="M484.679,110.295c0.382,0.029,0.485,1.277,0.485,1.497c0,0.221,0.069,1.22-0.324,1.22
					c-0.394,0,0.061,0.289,0.061,0.289l1.288-0.06L485.993,110h-1.262L484.679,110.295z"/>
				<path fill="#FFCCB0" d="M483.553,119.861c0,0,1.235,0.614,1.205,1.079c-0.018,0.277,0.182,0.962-0.2,0.962
					c-0.384,0,0.209,0.592,0.208,0.591l1.545-0.138l-0.78-3.087l-1.979-0.069V119.861z"/>
			</g>
			<text transform="matrix(1 0 0 1 487.7861 165.3555)" fill="#F7F7F7" font-family="'Open Sans', sans-serif" font-size="30.5678">$</text>
		</g>
	</g>
</g>
<g>
	<g>
		<rect x="361.363" y="253.708" fill="none" width="306.948" height="66"/>
		<text transform="matrix(1 0 0 1 361.3628 268.9082)"><tspan x="0" y="0" fill="#333333" font-family="'Open Sans', sans-serif" font-size="20">A  recompensa da mineração faz </tspan><tspan x="0" y="24" fill="#333333" font-family="'Open Sans', sans-serif" font-size="20">a trapaça ser menos vantajosa </tspan><tspan x="0" y="48" fill="#333333" font-family="'Open Sans', sans-serif" font-size="20">do que a colaboração honesta.</tspan></text>
	</g>
	<g>
		<path fill="#CCCCCC" d="M352.375,320.468c0,3.854,1.123,6.732,3.37,8.64c2.247,1.905,6.07,2.917,11.471,3.03v5.154
			c-7.363,0-12.604-1.416-15.719-4.249c-3.116-2.831-4.674-7.193-4.674-13.084V300.87c0-7.742-4.343-11.689-13.028-11.84v-4.532
			c4.607-0.075,7.931-1.038,9.97-2.889c2.04-1.85,3.059-4.645,3.059-8.384v-19.824c0-11.292,6.798-17.052,20.393-17.278v5.099
			c-5.211,0.188-8.988,1.284-11.329,3.285c-2.342,2.002-3.512,4.966-3.512,8.895v17.275c0,4.91-0.831,8.573-2.493,10.989
			c-1.662,2.417-4.343,4.022-8.043,4.815v0.453c3.662,0.756,6.335,2.332,8.016,4.73c1.68,2.398,2.521,5.919,2.521,10.564V320.468z"
			/>
	</g>
</g>
<rect x="727.553" y="193" fill="#FFFFFF" width="270" height="121"/>
<ellipse opacity="0.2" fill="#333333" cx="918.062" cy="200.402" rx="15.256" ry="4.972"/>
<rect x="911.553" y="138" fill="#F4A25F" width="13" height="62"/>
<rect x="911.553" y="138" fill="#DD925B" width="1" height="62"/>
<rect x="914.553" y="138" fill="#DD925B" width="2" height="62"/>
<rect x="917.553" y="138" fill="#DD925B" width="3" height="62"/>
<rect x="921.553" y="138" fill="#DD925B" width="2" height="62"/>
<rect x="911.553" y="138" opacity="0.2" fill="#333333" width="13" height="17"/>
<polygon fill="#89427C" points="941.635,147.3 877.536,143.756 880.371,121.945 943.287,134.576 "/>
<polygon fill="#89427C" points="937.741,120.365 969.916,144.968 932.522,160.531 "/>
<g>
	<g>
		<polygon fill="#999999" points="760.169,297.33 757.823,291.072 758.708,290.811 761.053,297.069 		"/>
		<polygon fill="#999999" points="763.183,300.492 760.169,297.33 760.957,296.772 763.868,299.876 		"/>
		<polygon fill="#999999" points="755.546,297.252 756.251,290.687 757.17,290.765 756.464,297.331 		"/>
		<polygon fill="#999999" points="757.205,301.294 755.546,297.252 756.474,297 758.067,300.969 		"/>
		<polygon fill="#999999" points="751.604,296.826 754.548,290.77 755.41,291.098 752.466,297.152 		"/>
		<polygon fill="#999999" points="752.094,301.168 751.604,296.826 752.58,296.857 753.012,301.09 		"/>
		<polygon fill="#999999" points="760.169,282.033 757.823,288.291 758.708,288.551 761.053,282.293 		"/>
		<polygon fill="#999999" points="763.183,278.87 760.169,282.033 760.957,282.59 763.868,279.486 		"/>
		<polygon fill="#999999" points="755.546,282.11 756.251,288.676 757.17,288.598 756.464,282.032 		"/>
		<polygon fill="#999999" points="757.205,278.068 755.546,282.11 756.474,282.363 758.067,278.395 		"/>
		<polygon fill="#999999" points="751.604,282.537 754.548,288.593 755.41,288.266 752.466,282.21 		"/>
		<polygon fill="#999999" points="752.094,278.195 751.604,282.537 752.58,282.505 753.012,278.271 		"/>
		
			<rect x="764.789" y="286.14" transform="matrix(0.7061 -0.7082 0.7082 0.7061 22.5295 627.4786)" fill="#999999" width="4.628" height="0.923"/>
		
			<rect x="764.789" y="291.597" transform="matrix(0.7061 0.7082 -0.7082 0.7061 432.313 -457.3824)" fill="#999999" width="4.628" height="0.922"/>
		<circle fill="#333333" cx="763.33" cy="289.519" r="3.993"/>
		<ellipse fill="#333333" cx="747.302" cy="289.519" rx="6.58" ry="4.946"/>
		<circle fill="#333333" cx="756.51" cy="289.518" r="3.598"/>
	</g>
	<g>
		<polygon fill="#999999" points="797.305,297.33 794.96,291.072 795.844,290.811 798.188,297.069 		"/>
		<polygon fill="#999999" points="800.319,300.492 797.305,297.33 798.093,296.772 801.004,299.876 		"/>
		<polygon fill="#999999" points="792.682,297.252 793.387,290.687 794.306,290.765 793.6,297.331 		"/>
		<polygon fill="#999999" points="794.341,301.294 792.682,297.252 793.609,297 795.204,300.969 		"/>
		<polygon fill="#999999" points="788.741,296.826 791.685,290.77 792.546,291.098 789.603,297.152 		"/>
		<polygon fill="#999999" points="789.229,301.168 788.741,296.826 789.716,296.857 790.148,301.09 		"/>
		<polygon fill="#999999" points="797.305,282.033 794.96,288.291 795.844,288.551 798.188,282.293 		"/>
		<polygon fill="#999999" points="800.319,278.87 797.305,282.033 798.093,282.59 801.004,279.486 		"/>
		<polygon fill="#999999" points="792.682,282.11 793.387,288.676 794.306,288.598 793.6,282.032 		"/>
		<polygon fill="#999999" points="794.341,278.068 792.682,282.11 793.609,282.363 795.204,278.395 		"/>
		<polygon fill="#999999" points="788.741,282.537 791.685,288.593 792.546,288.266 789.603,282.21 		"/>
		<polygon fill="#999999" points="789.229,278.195 788.741,282.537 789.716,282.505 790.148,278.271 		"/>
		
			<rect x="801.925" y="286.14" transform="matrix(0.7062 -0.7081 0.7081 0.7062 33.3908 653.6619)" fill="#999999" width="4.629" height="0.923"/>
		
			<rect x="801.925" y="291.597" transform="matrix(0.7062 0.7081 -0.7081 0.7062 443.1133 -483.6269)" fill="#999999" width="4.629" height="0.922"/>
		<circle fill="#333333" cx="800.466" cy="289.519" r="3.993"/>
		<ellipse fill="#333333" cx="784.438" cy="289.519" rx="6.581" ry="4.946"/>
		<circle fill="#333333" cx="793.646" cy="289.518" r="3.598"/>
	</g>
	<g>
		<polygon fill="#999999" points="834.441,297.33 832.096,291.072 832.98,290.811 835.325,297.069 		"/>
		<polygon fill="#999999" points="837.455,300.492 834.441,297.33 835.229,296.772 838.141,299.876 		"/>
		<polygon fill="#999999" points="829.818,297.252 830.523,290.687 831.442,290.765 830.736,297.331 		"/>
		<polygon fill="#999999" points="831.478,301.294 829.818,297.252 830.746,297 832.34,300.969 		"/>
		<polygon fill="#999999" points="825.877,296.826 828.82,290.77 829.683,291.098 826.738,297.152 		"/>
		<polygon fill="#999999" points="826.366,301.168 825.877,296.826 826.853,296.857 827.284,301.09 		"/>
		<polygon fill="#999999" points="834.441,282.033 832.096,288.291 832.98,288.551 835.325,282.293 		"/>
		<polygon fill="#999999" points="837.455,278.87 834.441,282.033 835.229,282.59 838.141,279.486 		"/>
		<polygon fill="#999999" points="829.818,282.11 830.523,288.676 831.442,288.598 830.736,282.032 		"/>
		<polygon fill="#999999" points="831.478,278.068 829.818,282.11 830.746,282.363 832.34,278.395 		"/>
		<polygon fill="#999999" points="825.877,282.537 828.82,288.593 829.683,288.266 826.738,282.21 		"/>
		<polygon fill="#999999" points="826.366,278.195 825.877,282.537 826.853,282.505 827.284,278.271 		"/>
		
			<rect x="839.062" y="286.14" transform="matrix(0.7061 -0.7082 0.7082 0.7061 44.3618 680.0754)" fill="#999999" width="4.628" height="0.923"/>
		
			<rect x="839.062" y="291.597" transform="matrix(0.7061 0.7082 -0.7082 0.7061 454.1454 -509.9792)" fill="#999999" width="4.628" height="0.922"/>
		<circle fill="#333333" cx="837.603" cy="289.519" r="3.993"/>
		<ellipse fill="#333333" cx="821.574" cy="289.519" rx="6.58" ry="4.946"/>
		<circle fill="#333333" cx="830.782" cy="289.518" r="3.598"/>
	</g>
	<g>
		<polygon fill="#999999" points="871.576,297.33 869.23,291.072 870.115,290.811 872.461,297.069 		"/>
		<polygon fill="#999999" points="874.592,300.492 871.576,297.33 872.365,296.772 875.275,299.876 		"/>
		<polygon fill="#999999" points="866.953,297.252 867.658,290.687 868.578,290.765 867.871,297.331 		"/>
		<polygon fill="#999999" points="868.613,301.294 866.953,297.252 867.881,297 869.475,300.969 		"/>
		<polygon fill="#999999" points="863.014,296.826 865.957,290.77 866.818,291.098 863.873,297.152 		"/>
		<polygon fill="#999999" points="863.502,301.168 863.014,296.826 863.988,296.857 864.42,301.09 		"/>
		<polygon fill="#999999" points="871.576,282.033 869.23,288.291 870.115,288.551 872.461,282.293 		"/>
		<polygon fill="#999999" points="874.592,278.87 871.576,282.033 872.365,282.59 875.275,279.486 		"/>
		<polygon fill="#999999" points="866.953,282.11 867.658,288.676 868.578,288.598 867.871,282.032 		"/>
		<polygon fill="#999999" points="868.613,278.068 866.953,282.11 867.881,282.363 869.475,278.395 		"/>
		<polygon fill="#999999" points="863.014,282.537 865.957,288.593 866.818,288.266 863.873,282.21 		"/>
		<polygon fill="#999999" points="863.502,278.195 863.014,282.537 863.988,282.505 864.42,278.271 		"/>
		
			<rect x="876.197" y="286.14" transform="matrix(0.7063 -0.708 0.708 0.7063 55.1526 706.1279)" fill="#999999" width="4.629" height="0.922"/>
		
			<rect x="876.197" y="291.597" transform="matrix(0.7063 0.708 -0.708 0.7063 464.8141 -536.1542)" fill="#999999" width="4.629" height="0.921"/>
		<circle fill="#333333" cx="874.738" cy="289.519" r="3.993"/>
		<ellipse fill="#333333" cx="858.711" cy="289.519" rx="6.582" ry="4.946"/>
		<circle fill="#333333" cx="867.918" cy="289.518" r="3.598"/>
	</g>
	<g>
		<polygon fill="#999999" points="908.713,297.33 906.367,291.072 907.252,290.811 909.597,297.069 		"/>
		<polygon fill="#999999" points="911.727,300.492 908.713,297.33 909.501,296.772 912.412,299.876 		"/>
		<polygon fill="#999999" points="904.09,297.252 904.795,290.687 905.714,290.765 905.008,297.331 		"/>
		<polygon fill="#999999" points="905.749,301.294 904.09,297.252 905.018,297 906.611,300.969 		"/>
		<polygon fill="#999999" points="900.148,296.826 903.092,290.77 903.954,291.098 901.01,297.152 		"/>
		<polygon fill="#999999" points="900.638,301.168 900.148,296.826 901.124,296.857 901.556,301.09 		"/>
		<polygon fill="#999999" points="908.713,282.033 906.367,288.291 907.252,288.551 909.597,282.293 		"/>
		<polygon fill="#999999" points="911.727,278.87 908.713,282.033 909.501,282.59 912.412,279.486 		"/>
		<polygon fill="#999999" points="904.09,282.11 904.795,288.676 905.714,288.598 905.008,282.032 		"/>
		<polygon fill="#999999" points="905.749,278.068 904.09,282.11 905.018,282.363 906.611,278.395 		"/>
		<polygon fill="#999999" points="900.148,282.537 903.092,288.593 903.954,288.266 901.01,282.21 		"/>
		<polygon fill="#999999" points="900.638,278.195 900.148,282.537 901.124,282.505 901.556,278.271 		"/>
		
			<rect x="913.333" y="286.14" transform="matrix(0.7061 -0.7082 0.7082 0.7061 66.1938 732.6716)" fill="#999999" width="4.628" height="0.923"/>
		
			<rect x="913.333" y="291.597" transform="matrix(0.7061 0.7082 -0.7082 0.7061 475.9774 -562.5754)" fill="#999999" width="4.628" height="0.922"/>
		<circle fill="#333333" cx="911.874" cy="289.519" r="3.993"/>
		<ellipse fill="#333333" cx="895.846" cy="289.519" rx="6.58" ry="4.946"/>
		<circle fill="#333333" cx="905.054" cy="289.518" r="3.598"/>
	</g>
	<g>
		<polygon fill="#999999" points="945.849,297.33 943.504,291.072 944.388,290.811 946.732,297.069 		"/>
		<polygon fill="#999999" points="948.863,300.492 945.849,297.33 946.637,296.772 949.548,299.876 		"/>
		<polygon fill="#999999" points="941.226,297.252 941.931,290.687 942.85,290.765 942.144,297.331 		"/>
		<polygon fill="#999999" points="942.885,301.294 941.226,297.252 942.153,297 943.748,300.969 		"/>
		<polygon fill="#999999" points="937.285,296.826 940.229,290.77 941.09,291.098 938.146,297.152 		"/>
		<polygon fill="#999999" points="937.773,301.168 937.285,296.826 938.26,296.857 938.692,301.09 		"/>
		<polygon fill="#999999" points="945.849,282.033 943.504,288.291 944.388,288.551 946.732,282.293 		"/>
		<polygon fill="#999999" points="948.863,278.87 945.849,282.033 946.637,282.59 949.548,279.486 		"/>
		<polygon fill="#999999" points="941.226,282.11 941.931,288.676 942.85,288.598 942.144,282.032 		"/>
		<polygon fill="#999999" points="942.885,278.068 941.226,282.11 942.153,282.363 943.748,278.395 		"/>
		<polygon fill="#999999" points="937.285,282.537 940.229,288.593 941.09,288.266 938.146,282.21 		"/>
		<polygon fill="#999999" points="937.773,278.195 937.285,282.537 938.26,282.505 938.692,278.271 		"/>
		
			<rect x="950.469" y="286.14" transform="matrix(0.7062 -0.7081 0.7081 0.7062 77.0394 758.8392)" fill="#999999" width="4.629" height="0.923"/>
		
			<rect x="950.469" y="291.597" transform="matrix(0.7062 0.7081 -0.7081 0.7062 486.762 -588.8043)" fill="#999999" width="4.629" height="0.922"/>
		<circle fill="#333333" cx="949.01" cy="289.519" r="3.993"/>
		<ellipse fill="#333333" cx="932.982" cy="289.519" rx="6.581" ry="4.946"/>
		<circle fill="#333333" cx="942.189" cy="289.518" r="3.598"/>
	</g>
	<g>
		<polygon fill="#999999" points="982.985,297.33 980.64,291.072 981.524,290.811 983.869,297.069 		"/>
		<polygon fill="#999999" points="985.999,300.492 982.985,297.33 983.773,296.772 986.685,299.876 		"/>
		<polygon fill="#999999" points="978.362,297.252 979.067,290.687 979.986,290.765 979.28,297.331 		"/>
		<polygon fill="#999999" points="980.021,301.294 978.362,297.252 979.29,297 980.884,300.969 		"/>
		<polygon fill="#999999" points="974.421,296.826 977.364,290.77 978.227,291.098 975.282,297.152 		"/>
		<polygon fill="#999999" points="974.91,301.168 974.421,296.826 975.396,296.857 975.828,301.09 		"/>
		<polygon fill="#999999" points="982.985,282.033 980.64,288.291 981.524,288.551 983.869,282.293 		"/>
		<polygon fill="#999999" points="985.999,278.87 982.985,282.033 983.773,282.59 986.685,279.486 		"/>
		<polygon fill="#999999" points="978.362,282.11 979.067,288.676 979.986,288.598 979.28,282.032 		"/>
		<polygon fill="#999999" points="980.021,278.068 978.362,282.11 979.29,282.363 980.884,278.395 		"/>
		<polygon fill="#999999" points="974.421,282.537 977.364,288.593 978.227,288.266 975.282,282.21 		"/>
		<polygon fill="#999999" points="974.91,278.195 974.421,282.537 975.396,282.505 975.828,278.271 		"/>
		
			<rect x="987.605" y="286.14" transform="matrix(0.7061 -0.7082 0.7082 0.7061 88.0262 785.2686)" fill="#999999" width="4.628" height="0.923"/>
		
			<rect x="987.605" y="291.597" transform="matrix(0.7061 0.7082 -0.7082 0.7061 497.8098 -615.1724)" fill="#999999" width="4.628" height="0.922"/>
		<circle fill="#333333" cx="986.146" cy="289.519" r="3.993"/>
		<ellipse fill="#333333" cx="970.118" cy="289.519" rx="6.58" ry="4.946"/>
		<circle fill="#333333" cx="979.326" cy="289.518" r="3.598"/>
	</g>
</g>
<g>
	<g>
		<polygon fill="#999999" points="760.169,267.188 757.823,260.932 758.708,260.67 761.053,266.928 		"/>
		<polygon fill="#999999" points="763.183,270.352 760.169,267.188 760.957,266.631 763.868,269.734 		"/>
		<polygon fill="#999999" points="755.546,267.111 756.251,260.545 757.17,260.623 756.464,267.189 		"/>
		<polygon fill="#999999" points="757.205,271.152 755.546,267.111 756.474,266.857 758.067,270.826 		"/>
		<polygon fill="#999999" points="751.604,266.684 754.548,260.629 755.41,260.955 752.466,267.012 		"/>
		<polygon fill="#999999" points="752.094,271.025 751.604,266.684 752.58,266.717 753.012,270.949 		"/>
		<polygon fill="#999999" points="760.169,251.893 757.823,258.148 758.708,258.41 761.053,252.152 		"/>
		<polygon fill="#999999" points="763.183,248.729 760.169,251.893 760.957,252.449 763.868,249.346 		"/>
		<polygon fill="#999999" points="755.546,251.969 756.251,258.535 757.17,258.457 756.464,251.891 		"/>
		<polygon fill="#999999" points="757.205,247.928 755.546,251.969 756.474,252.221 758.067,248.254 		"/>
		<polygon fill="#999999" points="751.604,252.395 754.548,258.451 755.41,258.125 752.466,252.068 		"/>
		<polygon fill="#999999" points="752.094,248.053 751.604,252.395 752.58,252.363 753.012,248.131 		"/>
		
			<rect x="764.789" y="255.999" transform="matrix(0.7061 -0.7082 0.7082 0.7061 43.8743 618.6187)" fill="#999999" width="4.628" height="0.922"/>
		
			<rect x="764.789" y="261.456" transform="matrix(0.7061 0.7082 -0.7082 0.7061 410.9686 -466.2422)" fill="#999999" width="4.628" height="0.922"/>
		<circle fill="#333333" cx="763.33" cy="259.377" r="3.992"/>
		<ellipse fill="#333333" cx="747.302" cy="259.377" rx="6.58" ry="4.947"/>
		<circle fill="#333333" cx="756.51" cy="259.377" r="3.598"/>
	</g>
	<g>
		<polygon fill="#999999" points="797.305,267.188 794.96,260.932 795.844,260.67 798.188,266.928 		"/>
		<polygon fill="#999999" points="800.319,270.352 797.305,267.188 798.093,266.631 801.004,269.734 		"/>
		<polygon fill="#999999" points="792.682,267.111 793.387,260.545 794.306,260.623 793.6,267.189 		"/>
		<polygon fill="#999999" points="794.341,271.152 792.682,267.111 793.609,266.857 795.204,270.826 		"/>
		<polygon fill="#999999" points="788.741,266.684 791.685,260.629 792.546,260.955 789.603,267.012 		"/>
		<polygon fill="#999999" points="789.229,271.025 788.741,266.684 789.716,266.717 790.148,270.949 		"/>
		<polygon fill="#999999" points="797.305,251.893 794.96,258.148 795.844,258.41 798.188,252.152 		"/>
		<polygon fill="#999999" points="800.319,248.729 797.305,251.893 798.093,252.449 801.004,249.346 		"/>
		<polygon fill="#999999" points="792.682,251.969 793.387,258.535 794.306,258.457 793.6,251.891 		"/>
		<polygon fill="#999999" points="794.341,247.928 792.682,251.969 793.609,252.221 795.204,248.254 		"/>
		<polygon fill="#999999" points="788.741,252.395 791.685,258.451 792.546,258.125 789.603,252.068 		"/>
		<polygon fill="#999999" points="789.229,248.053 788.741,252.395 789.716,252.363 790.148,248.131 		"/>
		
			<rect x="801.925" y="255.999" transform="matrix(0.7062 -0.7081 0.7081 0.7062 54.7324 644.8051)" fill="#999999" width="4.629" height="0.922"/>
		
			<rect x="801.925" y="261.456" transform="matrix(0.7062 0.7081 -0.7081 0.7062 421.7721 -492.4835)" fill="#999999" width="4.629" height="0.922"/>
		<circle fill="#333333" cx="800.466" cy="259.377" r="3.992"/>
		<ellipse fill="#333333" cx="784.438" cy="259.377" rx="6.581" ry="4.947"/>
		<circle fill="#333333" cx="793.646" cy="259.377" r="3.598"/>
	</g>
	<g>
		<polygon fill="#999999" points="834.441,267.188 832.096,260.932 832.98,260.67 835.325,266.928 		"/>
		<polygon fill="#999999" points="837.455,270.352 834.441,267.188 835.229,266.631 838.141,269.734 		"/>
		<polygon fill="#999999" points="829.818,267.111 830.523,260.545 831.442,260.623 830.736,267.189 		"/>
		<polygon fill="#999999" points="831.478,271.152 829.818,267.111 830.746,266.857 832.34,270.826 		"/>
		<polygon fill="#999999" points="825.877,266.684 828.82,260.629 829.683,260.955 826.738,267.012 		"/>
		<polygon fill="#999999" points="826.366,271.025 825.877,266.684 826.853,266.717 827.284,270.949 		"/>
		<polygon fill="#999999" points="834.441,251.893 832.096,258.148 832.98,258.41 835.325,252.152 		"/>
		<polygon fill="#999999" points="837.455,248.729 834.441,251.893 835.229,252.449 838.141,249.346 		"/>
		<polygon fill="#999999" points="829.818,251.969 830.523,258.535 831.442,258.457 830.736,251.891 		"/>
		<polygon fill="#999999" points="831.478,247.928 829.818,251.969 830.746,252.221 832.34,248.254 		"/>
		<polygon fill="#999999" points="825.877,252.395 828.82,258.451 829.683,258.125 826.738,252.068 		"/>
		<polygon fill="#999999" points="826.366,248.053 825.877,252.395 826.853,252.363 827.284,248.131 		"/>
		
			<rect x="839.062" y="255.999" transform="matrix(0.7061 -0.7082 0.7082 0.7061 65.7065 671.2155)" fill="#999999" width="4.628" height="0.922"/>
		
			<rect x="839.062" y="261.456" transform="matrix(0.7061 0.7082 -0.7082 0.7061 432.801 -518.8391)" fill="#999999" width="4.628" height="0.922"/>
		<circle fill="#333333" cx="837.603" cy="259.377" r="3.992"/>
		<ellipse fill="#333333" cx="821.574" cy="259.377" rx="6.58" ry="4.947"/>
		<circle fill="#333333" cx="830.782" cy="259.377" r="3.598"/>
	</g>
	<g>
		<polygon fill="#999999" points="871.576,267.188 869.23,260.932 870.115,260.67 872.461,266.928 		"/>
		<polygon fill="#999999" points="874.592,270.352 871.576,267.188 872.365,266.631 875.275,269.734 		"/>
		<polygon fill="#999999" points="866.953,267.111 867.658,260.545 868.578,260.623 867.871,267.189 		"/>
		<polygon fill="#999999" points="868.613,271.152 866.953,267.111 867.881,266.857 869.475,270.826 		"/>
		<polygon fill="#999999" points="863.014,266.684 865.957,260.629 866.818,260.955 863.873,267.012 		"/>
		<polygon fill="#999999" points="863.502,271.025 863.014,266.684 863.988,266.717 864.42,270.949 		"/>
		<polygon fill="#999999" points="871.576,251.893 869.23,258.148 870.115,258.41 872.461,252.152 		"/>
		<polygon fill="#999999" points="874.592,248.729 871.576,251.893 872.365,252.449 875.275,249.346 		"/>
		<polygon fill="#999999" points="866.953,251.969 867.658,258.535 868.578,258.457 867.871,251.891 		"/>
		<polygon fill="#999999" points="868.613,247.928 866.953,251.969 867.881,252.221 869.475,248.254 		"/>
		<polygon fill="#999999" points="863.014,252.395 865.957,258.451 866.818,258.125 863.873,252.068 		"/>
		<polygon fill="#999999" points="863.502,248.053 863.014,252.395 863.988,252.363 864.42,248.131 		"/>
		
			<rect x="876.197" y="255.999" transform="matrix(0.7063 -0.708 0.708 0.7063 76.491 697.2744)" fill="#999999" width="4.629" height="0.921"/>
		
			<rect x="876.197" y="261.456" transform="matrix(0.7063 0.708 -0.708 0.7063 443.476 -545.0076)" fill="#999999" width="4.629" height="0.921"/>
		<circle fill="#333333" cx="874.738" cy="259.377" r="3.992"/>
		<ellipse fill="#333333" cx="858.711" cy="259.377" rx="6.582" ry="4.947"/>
		<circle fill="#333333" cx="867.918" cy="259.377" r="3.598"/>
	</g>
	<g>
		<polygon fill="#999999" points="908.713,267.188 906.367,260.932 907.252,260.67 909.597,266.928 		"/>
		<polygon fill="#999999" points="911.727,270.352 908.713,267.188 909.501,266.631 912.412,269.734 		"/>
		<polygon fill="#999999" points="904.09,267.111 904.795,260.545 905.714,260.623 905.008,267.189 		"/>
		<polygon fill="#999999" points="905.749,271.152 904.09,267.111 905.018,266.857 906.611,270.826 		"/>
		<polygon fill="#999999" points="900.148,266.684 903.092,260.629 903.954,260.955 901.01,267.012 		"/>
		<polygon fill="#999999" points="900.638,271.025 900.148,266.684 901.124,266.717 901.556,270.949 		"/>
		<polygon fill="#999999" points="908.713,251.893 906.367,258.148 907.252,258.41 909.597,252.152 		"/>
		<polygon fill="#999999" points="911.727,248.729 908.713,251.893 909.501,252.449 912.412,249.346 		"/>
		<polygon fill="#999999" points="904.09,251.969 904.795,258.535 905.714,258.457 905.008,251.891 		"/>
		<polygon fill="#999999" points="905.749,247.928 904.09,251.969 905.018,252.221 906.611,248.254 		"/>
		<polygon fill="#999999" points="900.148,252.395 903.092,258.451 903.954,258.125 901.01,252.068 		"/>
		<polygon fill="#999999" points="900.638,248.053 900.148,252.395 901.124,252.363 901.556,248.131 		"/>
		
			<rect x="913.333" y="255.999" transform="matrix(0.7061 -0.7082 0.7082 0.7061 87.5386 723.8117)" fill="#999999" width="4.628" height="0.922"/>
		
			<rect x="913.333" y="261.456" transform="matrix(0.7061 0.7082 -0.7082 0.7061 454.633 -571.4353)" fill="#999999" width="4.628" height="0.922"/>
		<circle fill="#333333" cx="911.874" cy="259.377" r="3.992"/>
		<ellipse fill="#333333" cx="895.846" cy="259.377" rx="6.58" ry="4.947"/>
		<circle fill="#333333" cx="905.054" cy="259.377" r="3.598"/>
	</g>
	<g>
		<polygon fill="#999999" points="945.849,267.188 943.504,260.932 944.388,260.67 946.732,266.928 		"/>
		<polygon fill="#999999" points="948.863,270.352 945.849,267.188 946.637,266.631 949.548,269.734 		"/>
		<polygon fill="#999999" points="941.226,267.111 941.931,260.545 942.85,260.623 942.144,267.189 		"/>
		<polygon fill="#999999" points="942.885,271.152 941.226,267.111 942.153,266.857 943.748,270.826 		"/>
		<polygon fill="#999999" points="937.285,266.684 940.229,260.629 941.09,260.955 938.146,267.012 		"/>
		<polygon fill="#999999" points="937.773,271.025 937.285,266.684 938.26,266.717 938.692,270.949 		"/>
		<polygon fill="#999999" points="945.849,251.893 943.504,258.148 944.388,258.41 946.732,252.152 		"/>
		<polygon fill="#999999" points="948.863,248.729 945.849,251.893 946.637,252.449 949.548,249.346 		"/>
		<polygon fill="#999999" points="941.226,251.969 941.931,258.535 942.85,258.457 942.144,251.891 		"/>
		<polygon fill="#999999" points="942.885,247.928 941.226,251.969 942.153,252.221 943.748,248.254 		"/>
		<polygon fill="#999999" points="937.285,252.395 940.229,258.451 941.09,258.125 938.146,252.068 		"/>
		<polygon fill="#999999" points="937.773,248.053 937.285,252.395 938.26,252.363 938.692,248.131 		"/>
		
			<rect x="950.469" y="255.999" transform="matrix(0.7062 -0.7081 0.7081 0.7062 98.381 749.9824)" fill="#999999" width="4.629" height="0.922"/>
		
			<rect x="950.469" y="261.456" transform="matrix(0.7062 0.7081 -0.7081 0.7062 465.4207 -597.6609)" fill="#999999" width="4.629" height="0.922"/>
		<circle fill="#333333" cx="949.01" cy="259.377" r="3.992"/>
		<ellipse fill="#333333" cx="932.982" cy="259.377" rx="6.581" ry="4.947"/>
		<circle fill="#333333" cx="942.189" cy="259.377" r="3.598"/>
	</g>
	<g>
		<polygon fill="#999999" points="982.985,267.188 980.64,260.932 981.524,260.67 983.869,266.928 		"/>
		<polygon fill="#999999" points="985.999,270.352 982.985,267.188 983.773,266.631 986.685,269.734 		"/>
		<polygon fill="#999999" points="978.362,267.111 979.067,260.545 979.986,260.623 979.28,267.189 		"/>
		<polygon fill="#999999" points="980.021,271.152 978.362,267.111 979.29,266.857 980.884,270.826 		"/>
		<polygon fill="#999999" points="974.421,266.684 977.364,260.629 978.227,260.955 975.282,267.012 		"/>
		<polygon fill="#999999" points="974.91,271.025 974.421,266.684 975.396,266.717 975.828,270.949 		"/>
		<polygon fill="#999999" points="982.985,251.893 980.64,258.148 981.524,258.41 983.869,252.152 		"/>
		<polygon fill="#999999" points="985.999,248.729 982.985,251.893 983.773,252.449 986.685,249.346 		"/>
		<polygon fill="#999999" points="978.362,251.969 979.067,258.535 979.986,258.457 979.28,251.891 		"/>
		<polygon fill="#999999" points="980.021,247.928 978.362,251.969 979.29,252.221 980.884,248.254 		"/>
		<polygon fill="#999999" points="974.421,252.395 977.364,258.451 978.227,258.125 975.282,252.068 		"/>
		<polygon fill="#999999" points="974.91,248.053 974.421,252.395 975.396,252.363 975.828,248.131 		"/>
		
			<rect x="987.605" y="255.999" transform="matrix(0.7061 -0.7082 0.7082 0.7061 109.371 776.4086)" fill="#999999" width="4.628" height="0.922"/>
		
			<rect x="987.605" y="261.456" transform="matrix(0.7061 0.7082 -0.7082 0.7061 476.4653 -624.0322)" fill="#999999" width="4.628" height="0.922"/>
		<circle fill="#333333" cx="986.146" cy="259.377" r="3.992"/>
		<ellipse fill="#333333" cx="970.118" cy="259.377" rx="6.58" ry="4.947"/>
		<circle fill="#333333" cx="979.326" cy="259.377" r="3.598"/>
	</g>
</g>
<g>
	<g>
		<polygon fill="#999999" points="760.169,237.047 757.823,230.79 758.708,230.529 761.053,236.787 		"/>
		<polygon fill="#999999" points="763.183,240.21 760.169,237.047 760.957,236.49 763.868,239.594 		"/>
		<polygon fill="#999999" points="755.546,236.97 756.251,230.404 757.17,230.482 756.464,237.049 		"/>
		<polygon fill="#999999" points="757.205,241.012 755.546,236.97 756.474,236.717 758.067,240.686 		"/>
		<polygon fill="#999999" points="751.604,236.543 754.548,230.487 755.41,230.814 752.466,236.871 		"/>
		<polygon fill="#999999" points="752.094,240.885 751.604,236.543 752.58,236.575 753.012,240.809 		"/>
		<polygon fill="#999999" points="760.169,221.751 757.823,228.008 758.708,228.27 761.053,222.012 		"/>
		<polygon fill="#999999" points="763.183,218.588 760.169,221.751 760.957,222.308 763.868,219.204 		"/>
		<polygon fill="#999999" points="755.546,221.828 756.251,228.394 757.17,228.315 756.464,221.75 		"/>
		<polygon fill="#999999" points="757.205,217.786 755.546,221.828 756.474,222.08 758.067,218.112 		"/>
		<polygon fill="#999999" points="751.604,222.254 754.548,228.311 755.41,227.983 752.466,221.928 		"/>
		<polygon fill="#999999" points="752.094,217.912 751.604,222.254 752.58,222.223 753.012,217.99 		"/>
		
			<rect x="764.789" y="225.858" transform="matrix(0.7061 -0.7082 0.7082 0.7061 65.219 609.7587)" fill="#999999" width="4.628" height="0.923"/>
		
			<rect x="764.789" y="231.315" transform="matrix(0.7062 0.7081 -0.7081 0.7062 389.5186 -475.046)" fill="#999999" width="4.627" height="0.922"/>
		<circle fill="#333333" cx="763.33" cy="229.236" r="3.993"/>
		<ellipse fill="#333333" cx="747.302" cy="229.236" rx="6.58" ry="4.947"/>
		<circle fill="#333333" cx="756.51" cy="229.236" r="3.598"/>
	</g>
	<g>
		<polygon fill="#999999" points="797.305,237.047 794.96,230.79 795.844,230.529 798.188,236.787 		"/>
		<polygon fill="#999999" points="800.319,240.21 797.305,237.047 798.093,236.49 801.004,239.594 		"/>
		<polygon fill="#999999" points="792.682,236.97 793.387,230.404 794.306,230.482 793.6,237.049 		"/>
		<polygon fill="#999999" points="794.341,241.012 792.682,236.97 793.609,236.717 795.204,240.686 		"/>
		<polygon fill="#999999" points="788.741,236.543 791.685,230.487 792.546,230.814 789.603,236.871 		"/>
		<polygon fill="#999999" points="789.229,240.885 788.741,236.543 789.716,236.575 790.148,240.809 		"/>
		<polygon fill="#999999" points="797.305,221.751 794.96,228.008 795.844,228.27 798.188,222.012 		"/>
		<polygon fill="#999999" points="800.319,218.588 797.305,221.751 798.093,222.308 801.004,219.204 		"/>
		<polygon fill="#999999" points="792.682,221.828 793.387,228.394 794.306,228.315 793.6,221.75 		"/>
		<polygon fill="#999999" points="794.341,217.786 792.682,221.828 793.609,222.08 795.204,218.112 		"/>
		<polygon fill="#999999" points="788.741,222.254 791.685,228.311 792.546,227.983 789.603,221.928 		"/>
		<polygon fill="#999999" points="789.229,217.912 788.741,222.254 789.716,222.223 790.148,217.99 		"/>
		
			<rect x="801.925" y="225.858" transform="matrix(0.7062 -0.7081 0.7081 0.7062 76.074 635.9483)" fill="#999999" width="4.629" height="0.923"/>
		
			<rect x="801.925" y="231.315" transform="matrix(0.7063 0.708 -0.708 0.7063 400.3213 -501.2802)" fill="#999999" width="4.628" height="0.922"/>
		<circle fill="#333333" cx="800.466" cy="229.236" r="3.993"/>
		<ellipse fill="#333333" cx="784.438" cy="229.236" rx="6.581" ry="4.947"/>
		<circle fill="#333333" cx="793.646" cy="229.236" r="3.598"/>
	</g>
	<g>
		<polygon fill="#999999" points="834.441,237.047 832.096,230.79 832.98,230.529 835.325,236.787 		"/>
		<polygon fill="#999999" points="837.455,240.21 834.441,237.047 835.229,236.49 838.141,239.594 		"/>
		<polygon fill="#999999" points="829.818,236.97 830.523,230.404 831.442,230.482 830.736,237.049 		"/>
		<polygon fill="#999999" points="831.478,241.012 829.818,236.97 830.746,236.717 832.34,240.686 		"/>
		<polygon fill="#999999" points="825.877,236.543 828.82,230.487 829.683,230.814 826.738,236.871 		"/>
		<polygon fill="#999999" points="826.366,240.885 825.877,236.543 826.853,236.575 827.284,240.809 		"/>
		<polygon fill="#999999" points="834.441,221.751 832.096,228.008 832.98,228.27 835.325,222.012 		"/>
		<polygon fill="#999999" points="837.455,218.588 834.441,221.751 835.229,222.308 838.141,219.204 		"/>
		<polygon fill="#999999" points="829.818,221.828 830.523,228.394 831.442,228.315 830.736,221.75 		"/>
		<polygon fill="#999999" points="831.478,217.786 829.818,221.828 830.746,222.08 832.34,218.112 		"/>
		<polygon fill="#999999" points="825.877,222.254 828.82,228.311 829.683,227.983 826.738,221.928 		"/>
		<polygon fill="#999999" points="826.366,217.912 825.877,222.254 826.853,222.223 827.284,217.99 		"/>
		
			<rect x="839.062" y="225.858" transform="matrix(0.7061 -0.7082 0.7082 0.7061 87.0513 662.3556)" fill="#999999" width="4.628" height="0.923"/>
		
			<rect x="839.062" y="231.315" transform="matrix(0.7062 0.7081 -0.7081 0.7062 411.3431 -527.635)" fill="#999999" width="4.627" height="0.922"/>
		<circle fill="#333333" cx="837.603" cy="229.236" r="3.993"/>
		<ellipse fill="#333333" cx="821.574" cy="229.236" rx="6.58" ry="4.947"/>
		<circle fill="#333333" cx="830.782" cy="229.236" r="3.598"/>
	</g>
	<g>
		<polygon fill="#999999" points="908.713,237.047 906.367,230.79 907.252,230.529 909.597,236.787 		"/>
		<polygon fill="#999999" points="911.727,240.21 908.713,237.047 909.501,236.49 912.412,239.594 		"/>
		<polygon fill="#999999" points="904.09,236.97 904.795,230.404 905.714,230.482 905.008,237.049 		"/>
		<polygon fill="#999999" points="905.749,241.012 904.09,236.97 905.018,236.717 906.611,240.686 		"/>
		<polygon fill="#999999" points="900.148,236.543 903.092,230.487 903.954,230.814 901.01,236.871 		"/>
		<polygon fill="#999999" points="900.638,240.885 900.148,236.543 901.124,236.575 901.556,240.809 		"/>
		<polygon fill="#999999" points="908.713,221.751 906.367,228.008 907.252,228.27 909.597,222.012 		"/>
		<polygon fill="#999999" points="911.727,218.588 908.713,221.751 909.501,222.308 912.412,219.204 		"/>
		<polygon fill="#999999" points="904.09,221.828 904.795,228.394 905.714,228.315 905.008,221.75 		"/>
		<polygon fill="#999999" points="905.749,217.786 904.09,221.828 905.018,222.08 906.611,218.112 		"/>
		<polygon fill="#999999" points="900.148,222.254 903.092,228.311 903.954,227.983 901.01,221.928 		"/>
		<polygon fill="#999999" points="900.638,217.912 900.148,222.254 901.124,222.223 901.556,217.99 		"/>
		
			<rect x="913.333" y="225.858" transform="matrix(0.7061 -0.7082 0.7082 0.7061 108.8834 714.9518)" fill="#999999" width="4.628" height="0.923"/>
		
			<rect x="913.333" y="231.315" transform="matrix(0.7062 0.7081 -0.7081 0.7062 433.1672 -580.2234)" fill="#999999" width="4.627" height="0.922"/>
		<circle fill="#333333" cx="911.874" cy="229.236" r="3.993"/>
		<ellipse fill="#333333" cx="895.846" cy="229.236" rx="6.58" ry="4.947"/>
		<circle fill="#333333" cx="905.054" cy="229.236" r="3.598"/>
	</g>
	<g>
		<polygon fill="#999999" points="945.849,237.047 943.504,230.79 944.388,230.529 946.732,236.787 		"/>
		<polygon fill="#999999" points="948.863,240.21 945.849,237.047 946.637,236.49 949.548,239.594 		"/>
		<polygon fill="#999999" points="941.226,236.97 941.931,230.404 942.85,230.482 942.144,237.049 		"/>
		<polygon fill="#999999" points="942.885,241.012 941.226,236.97 942.153,236.717 943.748,240.686 		"/>
		<polygon fill="#999999" points="937.285,236.543 940.229,230.487 941.09,230.814 938.146,236.871 		"/>
		<polygon fill="#999999" points="937.773,240.885 937.285,236.543 938.26,236.575 938.692,240.809 		"/>
		<polygon fill="#999999" points="945.849,221.751 943.504,228.008 944.388,228.27 946.732,222.012 		"/>
		<polygon fill="#999999" points="948.863,218.588 945.849,221.751 946.637,222.308 949.548,219.204 		"/>
		<polygon fill="#999999" points="941.226,221.828 941.931,228.394 942.85,228.315 942.144,221.75 		"/>
		<polygon fill="#999999" points="942.885,217.786 941.226,221.828 942.153,222.08 943.748,218.112 		"/>
		<polygon fill="#999999" points="937.285,222.254 940.229,228.311 941.09,227.983 938.146,221.928 		"/>
		<polygon fill="#999999" points="937.773,217.912 937.285,222.254 938.26,222.223 938.692,217.99 		"/>
		
			<rect x="950.469" y="225.858" transform="matrix(0.7062 -0.7081 0.7081 0.7062 119.7226 741.1257)" fill="#999999" width="4.629" height="0.923"/>
		
			<rect x="950.469" y="231.315" transform="matrix(0.7063 0.708 -0.708 0.7063 443.9542 -606.4419)" fill="#999999" width="4.628" height="0.922"/>
		<circle fill="#333333" cx="949.01" cy="229.236" r="3.993"/>
		<ellipse fill="#333333" cx="932.982" cy="229.236" rx="6.581" ry="4.947"/>
		<circle fill="#333333" cx="942.189" cy="229.236" r="3.598"/>
	</g>
	<g>
		<polygon fill="#999999" points="982.985,237.047 980.64,230.79 981.524,230.529 983.869,236.787 		"/>
		<polygon fill="#999999" points="985.999,240.21 982.985,237.047 983.773,236.49 986.685,239.594 		"/>
		<polygon fill="#999999" points="978.362,236.97 979.067,230.404 979.986,230.482 979.28,237.049 		"/>
		<polygon fill="#999999" points="980.021,241.012 978.362,236.97 979.29,236.717 980.884,240.686 		"/>
		<polygon fill="#999999" points="974.421,236.543 977.364,230.487 978.227,230.814 975.282,236.871 		"/>
		<polygon fill="#999999" points="974.91,240.885 974.421,236.543 975.396,236.575 975.828,240.809 		"/>
		<polygon fill="#999999" points="982.985,221.751 980.64,228.008 981.524,228.27 983.869,222.012 		"/>
		<polygon fill="#999999" points="985.999,218.588 982.985,221.751 983.773,222.308 986.685,219.204 		"/>
		<polygon fill="#999999" points="978.362,221.828 979.067,228.394 979.986,228.315 979.28,221.75 		"/>
		<polygon fill="#999999" points="980.021,217.786 978.362,221.828 979.29,222.08 980.884,218.112 		"/>
		<polygon fill="#999999" points="974.421,222.254 977.364,228.311 978.227,227.983 975.282,221.928 		"/>
		<polygon fill="#999999" points="974.91,217.912 974.421,222.254 975.396,222.223 975.828,217.99 		"/>
		
			<rect x="987.605" y="225.858" transform="matrix(0.7061 -0.7082 0.7082 0.7061 130.7157 767.5486)" fill="#999999" width="4.628" height="0.923"/>
		
			<rect x="987.606" y="231.315" transform="matrix(0.7062 0.7081 -0.7081 0.7062 454.9918 -632.8124)" fill="#999999" width="4.627" height="0.922"/>
		<circle fill="#333333" cx="986.146" cy="229.236" r="3.993"/>
		<ellipse fill="#333333" cx="970.118" cy="229.236" rx="6.58" ry="4.947"/>
		<circle fill="#333333" cx="979.326" cy="229.236" r="3.598"/>
	</g>
	<g>
		<polygon fill="#999999" points="871.576,237.047 869.23,230.79 870.115,230.529 872.461,236.787 		"/>
		<polygon fill="#999999" points="874.592,240.21 871.576,237.047 872.365,236.49 875.275,239.594 		"/>
		<polygon fill="#999999" points="866.953,236.97 867.658,230.404 868.578,230.482 867.871,237.049 		"/>
		<polygon fill="#999999" points="868.613,241.012 866.953,236.97 867.881,236.717 869.475,240.686 		"/>
		<polygon fill="#999999" points="863.014,236.543 865.957,230.487 866.818,230.814 863.873,236.871 		"/>
		<polygon fill="#999999" points="863.502,240.885 863.014,236.543 863.988,236.575 864.42,240.809 		"/>
		<polygon fill="#999999" points="871.576,221.751 869.23,228.008 870.115,228.27 872.461,222.012 		"/>
		<polygon fill="#999999" points="874.592,218.588 871.576,221.751 872.365,222.308 875.275,219.204 		"/>
		<polygon fill="#999999" points="866.953,221.828 867.658,228.394 868.578,228.315 867.871,221.75 		"/>
		<polygon fill="#999999" points="868.613,217.786 866.953,221.828 867.881,222.08 869.475,218.112 		"/>
		<polygon fill="#999999" points="863.014,222.254 865.957,228.311 866.818,227.983 863.873,221.928 		"/>
		<polygon fill="#999999" points="863.502,217.912 863.014,222.254 863.988,222.223 864.42,217.99 		"/>
		
			<rect x="876.197" y="225.858" transform="matrix(0.7063 -0.708 0.708 0.7063 97.8295 688.4208)" fill="#999999" width="4.629" height="0.922"/>
		
			<rect x="876.197" y="231.315" transform="matrix(0.7064 0.7078 -0.7078 0.7064 422.0205 -553.7932)" fill="#999999" width="4.629" height="0.921"/>
		<circle fill="#333333" cx="874.738" cy="229.236" r="3.993"/>
		<ellipse fill="#333333" cx="858.711" cy="229.236" rx="6.582" ry="4.947"/>
		<circle fill="#333333" cx="867.918" cy="229.236" r="3.598"/>
	</g>
</g>
</svg>
