<?xml version="1.0" encoding="utf-8"?>
<!-- Generator: Adobe Illustrator 16.0.0, SVG Export Plug-In . SVG Version: 6.00 Build 0)  -->
<!DOCTYPE svg PUBLIC "-//W3C//DTD SVG 1.1//EN" "http://www.w3.org/Graphics/SVG/1.1/DTD/svg11.dtd">
<svg version="1.1" id="Layer_1" xmlns="http://www.w3.org/2000/svg" xmlns:xlink="http://www.w3.org/1999/xlink" x="0px" y="0px"
	 width="269.336px" height="108.827px" viewBox="0 0 269.336 108.827" enable-background="new 0 0 269.336 108.827"
	 xml:space="preserve">
<line fill="none" stroke="#333333" stroke-width="8" stroke-miterlimit="10" stroke-dasharray="12" x1="52.148" y1="51.777" x2="230.148" y2="51.777"/>
<g>
	<circle fill="#E2E2E2" cx="52.148" cy="52.148" r="52.148"/>
	<g>
		<defs>
			<circle id="SVGID_1_" cx="52.148" cy="52.148" r="52.148"/>
		</defs>
		<clipPath id="SVGID_2_">
			<use xlink:href="#SVGID_1_"  overflow="visible"/>
		</clipPath>
		<g clip-path="url(#SVGID_2_)">
			<path fill="#AA3D4B" d="M70.278,52.524c0,2.894,2.703,7.45,2.703,10.777s-2.685,6.039-2.685,9.656
				c0,3.615,4.139,4.755,4.139,9.529c0,4.773-14.874,2.956-14.874,2.956l-0.783-32.051L70.278,52.524z"/>
			<path fill="#D85D72" d="M67.386,52.524c0,2.894,2.702,7.45,2.702,10.777s-2.684,6.039-2.684,9.656
				c0,3.615,4.138,4.755,4.138,9.529c0,4.773-14.874,2.956-14.874,2.956l-0.783-32.051L67.386,52.524z"/>
			<path fill="#AA3D4B" d="M66.229,52.524c0,2.894,2.702,7.45,2.702,10.777s-3.822,6.224-2.684,9.656
				c1.283,3.869,4.898,4.664,4.898,9.438c0,4.773-15.635,3.047-15.635,3.047l-0.782-32.051L66.229,52.524z"/>
			<path fill="#AA3D4B" d="M32.249,49.777c0,2-2.684,6.365-2.684,9.691c0,3.328,2.684,5.931,2.684,9.547s-5.006,4.683-5.006,12.771
				c0,4.773,15.741-0.149,15.741-0.149l0.783-31.859H32.249z"/>
			<path fill="#D85D72" d="M34.563,49.777c0,2-2.684,6.365-2.684,9.691c0,3.328,2.684,5.931,2.684,9.547s-5.006,4.683-5.006,12.771
				c0,4.773,15.742-0.149,15.742-0.149l0.782-31.859H34.563z"/>
			<path fill="#AA3D4B" d="M35.721,49.777c0,2-2.684,6.365-2.684,9.691c0,3.328,2.684,5.931,2.684,9.547s-6.163,4.683-6.163,12.771
				c0,4.773,16.899-0.149,16.899-0.149l0.783-31.859H35.721z"/>
			<g>
				<path fill="#EFBB93" d="M62.447,64.846c0-9.028-5.036-16.414-11.192-16.414s-11.192,7.386-11.192,16.414
					c0,9.027-7.051,16.414-15.668,16.414S8.728,86.074,8.728,92.197s12.404,13.58,27.564,15.58c0,0,0,0,15.262,0
					c15.145,0,15.145,0,15.145,0c15.061-2,27.383-9.404,27.383-15.547c0-6.141-7.118-11.068-15.817-11.068
					S62.447,73.873,62.447,64.846z"/>
			</g>
			<path fill="#F9CDA6" d="M72.148,36.046v-3.269h-0.167c-0.324-11-9.409-19.654-20.577-19.654S31.15,21.622,30.827,32.616l0,0
				l-0.401,3.457c-1.157,0-2.046,2.793-2.046,6.254c0,3.462,1.1,6.261,2.335,6.261c0.173,0,0.388-0.063,0.549-0.166
				c2.052,10.558,10.29,23.34,20.116,23.34S69.432,58.978,71.484,48.42c0.161,0.103,0.334,0.161,0.506,0.161
				c1.236,0,2.318-2.806,2.318-6.268C74.309,38.853,73.148,36.046,72.148,36.046z"/>
			<path fill="#EFBB93" d="M52.148,71.757c9-0.137,17.6-12.837,19.641-23.338c0.16,0.103,0.182,0.162,0.354,0.162
				c1.236,0,2.242-2.806,2.242-6.268c0-3.461-1.236-6.268-2.236-6.268v-3.269h-0.167c-0.3-11-8.087-19-18.083-20h-1.75V71.757z"/>
			<g>
				<path fill="#F9CDA6" d="M51.148,78.301c0-16.429-2.383-29.869-5.542-29.869s-5.644,7.386-5.644,16.414
					c0,9.027-7,16.414-15.617,16.414S8.702,86.074,8.702,92.197s12.429,13.58,27.59,15.58c0,0-0.144,0,14.856,0
					C51.148,107.777,51.148,94.729,51.148,78.301z"/>
			</g>
			<path fill="#AA3D4B" d="M60.34,14.104c0.271-0.463,0.42-0.957,0.42-1.468c0-2.692-4.061-4.875-9.069-4.875
				s-9.07,2.183-9.07,4.875c0,0.554,0.181,1.084,0.497,1.58c-7.473,3.074-12.691,10.587-12.691,21.829c0,0,3.688-1.141,8.371-3.045
				c-0.488,1.678-1.295,3.675-2.296,4.576c-0.529,0.478,9.741-0.482,13.888-3.086c1.148-0.721,2.281-1.492,3.332-2.289
				c-0.614,2.199-1.938,4.645-4.297,5.493c0,0,7.132-1.257,10.416-2.529c3.002-1.163,4.71-4.44,4.898-6.756
				c3.62,4.911,7.349,9.516,7.349,7.636C72.087,23.621,67.645,16.839,60.34,14.104z"/>
			<path fill="#D85D72" d="M63.756,28.187c-0.24,1.266-2.808,6.835-10.04,7.342c0,0,8.55-1.944,9.822-10.996
				C63.66,23.666,64.008,26.855,63.756,28.187z"/>
			<path fill="#D85D72" d="M50.975,31.103c-1.344,1.404-4.98,5.463-12.207,4.884c0,0,10.892-1.479,13.501-10.239
				C52.519,24.909,52.943,29.042,50.975,31.103z"/>
			<path fill="#D85D72" d="M52.378,14.625c-10.08,0-16.615,7.306-19.059,13.598c-0.51,1.312,1.911-5.115,8.679-9.354
				C47.999,15.11,54.456,14.625,52.378,14.625z"/>
			<path fill="#D85D72" d="M56.897,15.107c10.464,2.507,14.169,11.655,14.248,18.405c0.017,1.408-0.573-5.116-5.424-11.462
				C61.422,16.425,54.878,14.623,56.897,15.107z"/>
			<path fill="#D85D72" d="M52.775,8.791c-5.521,0.386-6.964,1.173-9.075,5.032c0,0-0.324-3.088,3.555-4.646
				C50.773,7.762,53.337,8.752,52.775,8.791z"/>
			<path fill="#D85D72" d="M53.807,9.151c4.027,0.745,5.331,1.305,6.252,4.459c0,0,0.565-2.379-2.225-3.714
				C55.265,8.667,53.807,9.151,53.807,9.151z"/>
			<path fill="#D85D72" d="M52.118,18.937c-7.504,0-14.087,6.168-15.906,11.02c-0.379,1.012,3.142-4.479,8.18-7.748
				C48.859,19.311,53.664,18.937,52.118,18.937z"/>
			<path fill="#333333" d="M26.954,80.951c-0.627-0.193-4.533,0.164-6.461,0.453c-1.574,0.236,0.096,8.373,0.096,8.373h6.365
				C26.954,89.777,27.581,81.145,26.954,80.951z"/>
			<path fill="#333333" d="M76.951,81.061c0.627-0.193,4.484,0.256,6.4,0.615c1.289,0.241-0.214,8.102-0.214,8.102h-6.915
				C76.223,89.777,76.064,81.332,76.951,81.061z"/>
			<path fill="#333333" d="M20.589,89.847c0.193,2.459-1.733,10.414-4.515,11.932c0,0,1.031,0.721,1.344,0.87
				c11.043,5.28,15.73,5.521,34.73,5.521c0,0,0,3.158,0-4.363c0-5.063-15.9-13.988-25.037-14.074
				C23.377,89.696,20.589,89.847,20.589,89.847z"/>
			<path fill="#333333" d="M83.138,89.847c-0.192,2.459,1.763,10.007,4.544,11.523c0,0-0.998,0.96-1.311,1.109
				c-11.043,5.28-16.223,5.689-34.223,5.689c0,0,0,3.158,0-4.363c0-5.545,15.014-13.939,24.232-14.068
				C80.404,89.682,83.138,89.847,83.138,89.847z"/>
		</g>
	</g>
</g>
<circle fill="#69CD72" cx="230.481" cy="52.147" r="38.854"/>
<polyline fill="none" stroke="#F7F7F7" stroke-width="8" stroke-miterlimit="10" points="209.371,53.072 222.828,66.529 
	251.592,37.768 "/>
</svg>
