<?xml version="1.0" encoding="utf-8"?>
<!-- Generator: Adobe Illustrator 16.0.0, SVG Export Plug-In . SVG Version: 6.00 Build 0)  -->
<!DOCTYPE svg PUBLIC "-//W3C//DTD SVG 1.1//EN" "http://www.w3.org/Graphics/SVG/1.1/DTD/svg11.dtd">
<svg version="1.1" id="Layer_1" xmlns="http://www.w3.org/2000/svg" xmlns:xlink="http://www.w3.org/1999/xlink" x="0px" y="0px"
	 viewBox="0 0 1080 344" enable-background="new 0 0 1080 344" xml:space="preserve">
<path fill="#2EA3F2" d="M1080,324c0,11.046-8.954,20-20,20H20c-11.046,0-20-8.954-20-20V20C0,8.954,8.954,0,20,0h1040
	c11.046,0,20,8.954,20,20V324z"/>
<g>
	<path fill="#F7F7F7" d="M265,96.554c0,10.188-8.259,18.446-18.447,18.446H111.447C101.259,115,93,106.741,93,96.554V83.446
		C93,73.259,101.259,65,111.447,65h135.106C256.741,65,265,73.259,265,83.446V96.554z"/>
	<circle fill="#F7F7F7" cx="103.79" cy="77.511" r="36.894"/>
	<circle fill="#F7F7F7" cx="167.432" cy="69.209" r="45.194"/>
	<circle fill="#F7F7F7" cx="243.064" cy="67.365" r="47.039"/>
</g>
<g>
	<path fill="#F7F7F7" d="M625,96.554c0,10.188-8.259,18.446-18.447,18.446H471.447C461.259,115,453,106.741,453,96.554V83.446
		C453,73.259,461.259,65,471.447,65h135.106C616.741,65,625,73.259,625,83.446V96.554z"/>
	<circle fill="#F7F7F7" cx="463.79" cy="77.511" r="36.894"/>
	<circle fill="#F7F7F7" cx="527.432" cy="69.209" r="45.194"/>
	<circle fill="#F7F7F7" cx="603.064" cy="67.365" r="47.039"/>
</g>
<g>
	<path fill="#F7F7F7" d="M984,96.554c0,10.188-8.259,18.446-18.447,18.446H830.447C820.259,115,812,106.741,812,96.554V83.446
		C812,73.259,820.259,65,830.447,65h135.105C975.741,65,984,73.259,984,83.446V96.554z"/>
	<circle fill="#F7F7F7" cx="822.79" cy="77.511" r="36.894"/>
	<circle fill="#F7F7F7" cx="886.432" cy="69.209" r="45.194"/>
	<circle fill="#F7F7F7" cx="962.064" cy="67.365" r="47.039"/>
</g>
<g>
	<rect x="789.727" y="258.112" fill="none" width="215.547" height="63.379"/>
	<text transform="matrix(1 0 0 1 831.4697 273.3125)"><tspan x="0" y="0" fill="#F7F7F7" font-family="'Open Sans', sans-serif" font-size="20">Criptomoedas </tspan><tspan x="60.312" y="24" fill="#F7F7F7" font-family="'Open Sans', sans-serif" font-size="20">+</tspan><tspan x="-23.032" y="48" fill="#F7F7F7" font-family="'Open Sans', sans-serif" font-size="20">Internet das Coisas</tspan></text>
</g>
<g>
	<rect x="427.456" y="238.995" fill="none" width="222.088" height="82.496"/>
	<text transform="matrix(1 0 0 1 439.8965 254.1953)"><tspan x="0" y="0" fill="#F7F7F7" font-family="'Open Sans', sans-serif" font-size="20">Sistemas de Votação;</tspan><tspan x="8.208" y="32" fill="#F7F7F7" font-family="'Open Sans', sans-serif" font-size="20">Registros Notariais; </tspan><tspan x="-10.64" y="64" fill="#F7F7F7" font-family="'Open Sans', sans-serif" font-size="20">Propriedade Intelectual</tspan></text>
</g>
<g>
	<rect x="67.456" y="280.243" fill="none" width="222.089" height="41.248"/>
	<text transform="matrix(1 0 0 1 69.5938 295.4434)"><tspan x="0" y="0" fill="#F7F7F7" font-family="'Open Sans', sans-serif" font-size="20">Transferência de Ativos </tspan><tspan x="55.586" y="24" fill="#F7F7F7" font-family="'Open Sans', sans-serif" font-size="20">Financeiros</tspan></text>
</g>
<g>
	<rect x="103.961" y="66.72" fill="none" width="149.077" height="19.502"/>
	<text transform="matrix(1 0 0 1 111.4849 83.4395)" fill="#333333" font-family="'Open Sans', sans-serif" font-style="italic" font-size="22">Colored Coins</text>
</g>
<g>
	<rect x="445.461" y="66.72" fill="none" width="186.078" height="19.502"/>
	<text transform="matrix(1 0 0 1 445.543 83.4395)" fill="#333333" font-family="'Open Sans', sans-serif" font-size="22">Registros Públicos</text>
</g>
<g>
	<rect x="809.461" y="66.72" fill="none" width="176.078" height="19.502"/>
	<text transform="matrix(1 0 0 1 816.0156 83.4395)" fill="#333333" font-family="'Open Sans', sans-serif" font-style="italic" font-size="22">Smart Properties</text>
</g>
<g>
	<g>
		<circle fill="#530844" cx="112.507" cy="174" r="28.547"/>
		<circle fill="#7D0B65" cx="112.506" cy="174" r="23.9"/>
		<path opacity="0.2" fill="#F7F7F7" d="M112.507,145.453c-15.766,0-28.547,12.78-28.547,28.547c0,7.883,3.195,15.02,8.361,20.186
			l40.371-40.371C127.526,148.647,120.39,145.453,112.507,145.453z"/>
	</g>
	<g>
		<circle fill="#737D31" cx="178.5" cy="224" r="28.547"/>
		<circle fill="#99A641" cx="178.5" cy="224" r="23.899"/>
		<path opacity="0.2" fill="#F7F7F7" d="M178.5,195.453c-15.766,0-28.547,12.78-28.547,28.547c0,7.883,3.195,15.02,8.361,20.186
			l40.371-40.371C193.52,198.647,186.383,195.453,178.5,195.453z"/>
	</g>
	<g>
		<circle fill="#B37A10" cx="244.493" cy="174" r="28.547"/>
		<circle fill="#EEA315" cx="244.493" cy="174" r="23.9"/>
		<path opacity="0.2" fill="#F7F7F7" d="M244.493,145.453c-15.766,0-28.547,12.78-28.547,28.547c0,7.883,3.196,15.02,8.362,20.186
			l40.371-40.371C259.513,148.647,252.376,145.453,244.493,145.453z"/>
	</g>
</g>
<g>
	<g>
		<path fill="none" stroke="#F7F7F7" stroke-width="3" stroke-miterlimit="10" d="M767.751,224c0-1.018,0.002-2.017,0.005-2.998"/>
		<path fill="none" stroke="#F7F7F7" stroke-width="3" stroke-miterlimit="10" stroke-dasharray="6.1105,6.1105" d="
			M767.816,214.896c0.98-56.208,15.227-47.117,185.899-46.899"/>
		<line fill="none" stroke="#F7F7F7" stroke-width="3" stroke-miterlimit="10" x1="957" y1="168.5" x2="960" y2="168.5"/>
	</g>
</g>
<g>
	<path fill="#C45B5B" d="M894,185.105c0-0.845-0.938-1.529-2-1.529l0,0c-1.064,0-2,0.685-2,1.529v6.564c0,0.845,0.936,1.529,2,1.529
		l0,0c1.062,0,2-0.685,2-1.529V185.105z"/>
	<path fill="#CCCCCC" d="M893,203.259c0,2.814,2.166,4.741,4.981,4.741h155.398c2.813,0,4.62-1.927,4.62-4.741V201H893V203.259z"/>
	<path fill="#0F69A6" d="M1045.567,183.688c0-1.81,0.729-3.494,1.981-4.903c-0.776-0.351-1.601-0.686-2.492-1.001
		c-14.624-5.136-19.689-15.525-26.154-24.1c-5.009-6.645-19.531-19.684-35.325-19.684h-38.213C922.854,134,893,163.936,893,186.446
		v5.55v1.073v1.529V201h165v-6.401v-1.972c0,0.012-0.271,0.02-0.527,0.02C1050.766,192.646,1045.567,188.636,1045.567,183.688z"/>
	<path fill="#E3F5FF" d="M944,169v-30.043C928,142.386,913.382,156,904.639,169H944z"/>
	<path fill="#0B4F7D" d="M944.752,208c-0.085-10-8.292-18.255-18.408-18.255S908.021,198,907.938,208H944.752z"/>
	<path fill="#0B4F7D" d="M1035.442,208c-0.084-10-8.29-18.255-18.407-18.255c-10.115,0-18.322,8.255-18.407,18.255H1035.442z"/>
	<circle fill="#333333" cx="926.344" cy="208.525" r="15.201"/>
	<circle fill="#B3B3B3" cx="926.344" cy="208.525" r="10.522"/>
	<circle fill="#333333" cx="1017.035" cy="208.525" r="15.2"/>
	<circle fill="#B3B3B3" cx="1017.035" cy="208.525" r="10.521"/>
	<polygon fill="#CCCCCC" points="995.138,175 986.874,175 985.038,172 993.301,172 	"/>
	<polygon fill="#CCCCCC" points="958.411,175 950.147,175 949.229,172 957.493,172 	"/>
	<path fill="#F9F2B4" d="M1058.232,191.868c-0.021-1.342-0.246-2.628-0.863-3.816c-1.209-2.808-3.854-6.544-9.879-9.268
		c-1.251,1.409-1.954,3.094-1.954,4.903c0,4.948,5.217,8.959,11.924,8.959c0.255,0,0.54-0.008,0.54-0.02v-0.631
		C1058,191.996,1058.236,191.95,1058.232,191.868z"/>
	<line fill="none" stroke="#065F87" stroke-miterlimit="10" x1="946.5" y1="169" x2="946.5" y2="201"/>
	<line fill="none" stroke="#065F87" stroke-miterlimit="10" x1="982.5" y1="169" x2="982.5" y2="201"/>
	<path fill="#CCCCCC" d="M926.344,198.004c-5.811,0-10.521,4.712-10.521,10.521c0,2.167,0.656,4.182,1.777,5.854l14.6-14.596
		C930.524,198.66,928.512,198.004,926.344,198.004z"/>
	<path fill="#CCCCCC" d="M1017.035,198.004c-5.811,0-10.521,4.712-10.521,10.521c0,2.167,0.656,4.182,1.779,5.854l14.598-14.596
		C1021.216,198.66,1019.203,198.004,1017.035,198.004z"/>
	<polygon fill="#CAEFFC" points="979,151.291 961.67,169 979,169 	"/>
	<polygon fill="#E3F5FF" points="979,139 946,139 946,169 961.67,169 979,151.291 	"/>
	<path fill="#E3F5FF" d="M986.608,138.674L982,138.552v10.191l8.922-8.907C989.506,139.366,988.075,138.97,986.608,138.674z"/>
	<path fill="#CAEFFC" d="M1015.847,157.683c-3.876-5.141-13.47-14.077-24.914-17.878L982,148.743V169h4.635h37.544
		C1021.094,165,1018.594,161.327,1015.847,157.683z"/>
	<path fill="#0B4F7D" d="M1024.094,169.563c-0.477,1.718-2.253,2.724-3.971,2.249l-5.565-1.542c-1.719-0.476-2.724-2.253-2.249-3.97
		l0.046-0.164c0.476-1.719,2.253-2.725,3.971-2.249l5.565,1.54c1.717,0.476,2.724,2.254,2.249,3.971L1024.094,169.563z"/>
</g>
<g>
	<path fill="#CCCCCC" d="M776.02,249.548v-2.033h-16.24v2.026c0.082,10.152-4.06,10.155-4.06,10.155
		c0,1.121,0.907,2.029,2.029,2.029h20.301c1.122,0,2.031-0.908,2.031-2.029C780.081,259.696,775.939,259.696,776.02,249.548z"/>
	<path fill="#434955" d="M800.378,239.396L800.378,239.396v-38.57c0-2.241-1.819-4.06-4.059-4.06H739.48
		c-2.242,0-4.06,1.818-4.06,4.06v38.57l0,0H800.378z"/>
	<rect x="739.48" y="200.826" opacity="0.1" fill="#FFFFFF" width="56.839" height="34.51"/>
	<path fill="#E6E6E6" d="M735.421,239.396v4.06c0,2.243,1.817,4.062,4.06,4.062h56.839c2.239,0,4.059-1.819,4.059-4.062v-4.06
		H735.421z"/>
	<path opacity="0.1" d="M757.749,261.726h20.301c1.122,0,2.031-0.908,2.031-2.029H755.72
		C755.72,260.817,756.627,261.726,757.749,261.726z"/>
	<path opacity="0.1" d="M769.93,243.455c0-1.121-0.907-2.027-2.031-2.027c-1.122,0-2.029,0.906-2.029,2.027
		c0,1.124,0.907,2.033,2.029,2.033C769.022,245.488,769.93,244.579,769.93,243.455z"/>
	<rect x="759.779" y="247.515" opacity="0.1" width="16.24" height="2.026"/>
	<g>
		<circle fill="#F7F7F7" cx="768.134" cy="217.886" r="11.106"/>
		<path fill="#FF9900" d="M754.41,214.586c0.606-2.399,1.757-4.468,3.453-6.203c1.697-1.736,3.716-2.94,6.064-3.613
			c2.347-0.674,4.732-0.709,7.152-0.109s4.506,1.74,6.257,3.422c1.751,1.683,2.966,3.685,3.644,6.013
			c0.681,2.326,0.716,4.69,0.111,7.089c-0.605,2.4-1.757,4.469-3.452,6.205c-1.698,1.734-3.719,2.939-6.064,3.613
			c-2.347,0.671-4.73,0.707-7.153,0.108c-2.42-0.601-4.505-1.741-6.257-3.423c-1.751-1.682-2.966-3.686-3.645-6.012
			S753.806,216.984,754.41,214.586z M760.683,221.977l1.98,0.489c0.127,0.02,0.311,0.063,0.549,0.138
			c0.239,0.072,0.413,0.117,0.523,0.136l-0.632,2.48l1.513,0.382l0.604-2.455c0.109,0.039,0.304,0.088,0.578,0.15
			c0.273,0.064,0.486,0.114,0.633,0.152l-0.605,2.454l1.514,0.354l0.604-2.482c0.879,0.145,1.663,0.215,2.352,0.205
			c0.687-0.009,1.293-0.196,1.815-0.558c0.522-0.364,0.911-0.92,1.168-1.664c0.587-1.637,0.121-2.846-1.402-3.627
			c1.101-0.235,1.744-0.964,1.927-2.183c0.236-1.562-0.771-2.709-3.027-3.436l0.633-2.481l-1.513-0.354l-0.606,2.399
			c-0.144-0.035-0.356-0.086-0.63-0.148c-0.276-0.063-0.469-0.114-0.578-0.15l0.605-2.4l-1.515-0.381l-0.604,2.454
			c-0.274-0.036-0.597-0.108-0.963-0.218l-2.092-0.519l-0.384,1.608l1.072,0.246c0.513,0.127,0.753,0.416,0.716,0.871l-0.716,2.81
			c0.037,0,0.093,0.019,0.165,0.057c-0.018-0.021-0.046-0.028-0.083-0.028c-0.036,0-0.063-0.01-0.082-0.028l-0.99,3.926
			c-0.09,0.328-0.321,0.446-0.687,0.354l-1.101-0.271L760.683,221.977z M765.715,221.347l0.826-3.298
			c0.019,0,0.196,0.035,0.536,0.109c0.34,0.072,0.597,0.136,0.771,0.189c0.174,0.057,0.431,0.137,0.771,0.246
			c0.339,0.109,0.601,0.229,0.784,0.355c0.183,0.127,0.376,0.276,0.577,0.449c0.201,0.172,0.333,0.372,0.399,0.6
			c0.063,0.229,0.059,0.479-0.015,0.75c-0.056,0.2-0.138,0.373-0.248,0.518c-0.109,0.146-0.247,0.255-0.412,0.328
			c-0.166,0.072-0.335,0.136-0.509,0.19c-0.175,0.055-0.385,0.077-0.632,0.069c-0.249-0.011-0.465-0.025-0.648-0.042
			c-0.183-0.019-0.402-0.054-0.659-0.109c-0.257-0.055-0.453-0.095-0.591-0.121c-0.137-0.028-0.317-0.069-0.536-0.125
			C765.909,221.404,765.771,221.366,765.715,221.347z M766.926,216.549l0.743-2.999c0.054,0.019,0.169,0.045,0.345,0.08
			c0.173,0.037,0.324,0.069,0.452,0.098c0.131,0.027,0.294,0.071,0.496,0.135c0.202,0.065,0.376,0.123,0.522,0.179
			c0.146,0.054,0.312,0.131,0.495,0.231s0.321,0.2,0.413,0.3c0.091,0.1,0.196,0.223,0.314,0.368c0.12,0.145,0.175,0.295,0.168,0.45
			c-0.012,0.153-0.025,0.33-0.042,0.532c-0.057,0.235-0.152,0.431-0.29,0.585c-0.139,0.154-0.312,0.259-0.523,0.312
			c-0.21,0.057-0.416,0.097-0.617,0.124c-0.203,0.028-0.445,0.019-0.73-0.027c-0.283-0.044-0.504-0.082-0.658-0.109
			c-0.157-0.026-0.368-0.078-0.634-0.149C767.114,216.586,766.963,216.549,766.926,216.549z"/>
		<path fill="#BF7300" d="M767.975,202.481c-8.595,0-15.562,6.968-15.562,15.562c0,8.596,6.968,15.562,15.562,15.562
			c8.594,0,15.562-6.966,15.562-15.562C783.536,209.449,776.568,202.481,767.975,202.481z M767.975,231.072
			c-7.195,0-13.029-5.832-13.029-13.028s5.834-13.028,13.029-13.028c7.194,0,13.027,5.832,13.027,13.028
			S775.169,231.072,767.975,231.072z"/>
		<path opacity="0.2" fill="#F7F7F7" d="M767.975,202.481c-8.595,0-15.562,6.968-15.562,15.562c0,4.298,1.743,8.188,4.559,11.004
			l22.007-22.008C776.163,204.224,772.271,202.481,767.975,202.481z"/>
	</g>
	<path opacity="0.1" fill="#FFFFFF" d="M796.319,196.767h-26.39l16.238,42.63h14.21l0,0v-38.57
		C800.378,198.585,798.559,196.767,796.319,196.767z"/>
</g>
<g>
	<rect x="509" y="137" fill="#F2F2F2" width="58" height="82"/>
	<rect x="514" y="176" fill="#CCCCCC" width="49" height="2"/>
	<rect x="514" y="169" fill="#CCCCCC" width="49" height="2"/>
	<rect x="514" y="163" fill="#CCCCCC" width="49" height="2"/>
	<rect x="514" y="156" fill="#CCCCCC" width="49" height="2"/>
	<rect x="514" y="143" fill="#CCCCCC" width="49" height="2"/>
	<rect x="514" y="150" fill="#CCCCCC" width="49" height="2"/>
	<rect x="514" y="183" fill="#CCCCCC" width="49" height="2"/>
	<rect x="514" y="189" fill="#CCCCCC" width="49" height="2"/>
	<rect x="514" y="196" fill="#CCCCCC" width="49" height="2"/>
	<rect x="514" y="202" fill="#CCCCCC" width="49" height="2"/>
	<rect x="514" y="209" fill="#CCCCCC" width="24" height="2"/>
	<g>
		<g>
			<path fill="#333333" d="M544.854,213.418c0.492-1.743,1.051-3.319,2.136-4.799c-0.432,0-0.863,0-1.295,0
				c1.402,2.491,1.721,4.668,4.34,6.181c0.384,0.222,0.782,0.061,1.026-0.269c1.507-2.03,4.057-0.628,5.942-0.432
				c1.674,0.174,2.967-0.025,4.459-0.767c0.866-0.431,0.105-1.724-0.758-1.295c-3.724,1.851-8.097-2.093-10.938,1.735
				c0.342-0.089,0.684-0.179,1.026-0.269c-2.275-1.314-2.613-3.529-3.803-5.644c-0.299-0.531-0.977-0.435-1.295,0
				c-1.176,1.604-1.749,3.252-2.288,5.158C543.145,213.952,544.592,214.348,544.854,213.418L544.854,213.418z"/>
		</g>
	</g>
	<g>
		<path fill="#333333" d="M592.076,164.569c-0.779-0.656-2.14,0.085-4.03,1.864l2.875,2.426
			C592.355,166.693,592.855,165.228,592.076,164.569z"/>
		<path fill="#333333" d="M590.921,168.859l-2.875-2.426c-3.234,3.058-7.807,8.844-12.997,15.074l3.214,2.711
			C583.527,178.052,588.455,172.565,590.921,168.859z"/>
		<path fill="#333333" d="M576.34,186.486c0.583-0.691,0.969-1.145,1.686-1.986l-3.214-2.711c-0.709,0.848-1.092,1.307-1.675,1.996
			c-5.376,6.375-10.03,12.721-12.47,16.449l1.545,1.303C565.481,198.51,570.964,192.86,576.34,186.486z"/>
		<path fill="#333333" d="M561.738,202.101l-1.546-1.304c-1.211,1.872-2.42,3.745-2.734,4.443l0.359,0.305
			C558.45,205.113,560.094,203.607,561.738,202.101z"/>
		<path fill="#333333" d="M557.332,205.39c-0.258,0.461-0.296,0.633-0.25,0.671c0.04,0.034,0.202-0.033,0.61-0.367L557.332,205.39z"
			/>
		<path fill="#333333" d="M578.986,176.15c-0.31-0.262-0.402-0.666-0.14-0.977l7.231-7.951c0.262-0.311,0.439-0.632,0.75-0.369
			l1.082,0.912c0.095-0.401-0.193-0.646-0.52-0.92l-0.304-0.257c-0.465-0.392-0.921-0.274-1.184,0.036l-8.779,9.449
			c-0.262,0.311-0.075,0.852,0.389,1.244l0.611,0.516c0.464,0.391,0.936,0.522,1.198,0.211l0.794-0.941L578.986,176.15z"/>
		<polygon fill="#F2F2F2" points="587.875,166.597 588.046,166.434 590.921,168.859 590.797,169.044 		"/>
		<polygon fill="#F2F2F2" points="574.995,181.461 574.757,181.743 578.003,184.48 578.263,184.219 		"/>
		
			<rect x="560.818" y="200.119" transform="matrix(0.6449 -0.7643 0.7643 0.6449 45.5532 500.3449)" fill="#F2F2F2" width="0.736" height="2.07"/>
		<polygon fill="#F2F2F2" points="557.446,205.219 557.345,205.395 557.675,205.674 557.824,205.536 		"/>
	</g>
</g>
</svg>
