<?xml version="1.0" encoding="utf-8"?>
<!-- Generator: Adobe Illustrator 16.0.0, SVG Export Plug-In . SVG Version: 6.00 Build 0)  -->
<!DOCTYPE svg PUBLIC "-//W3C//DTD SVG 1.1//EN" "http://www.w3.org/Graphics/SVG/1.1/DTD/svg11.dtd">
<svg version="1.1" id="Layer_1" xmlns="http://www.w3.org/2000/svg" xmlns:xlink="http://www.w3.org/1999/xlink" x="0px" y="0px"
	 width="1075px" height="342px" viewBox="0 0 1075 342" enable-background="new 0 0 1075 342" xml:space="preserve">
<g>
	<circle fill="#E2E2E2" cx="171" cy="171" r="171"/>
	<g>
		<path fill="#F7F7F7" d="M248.5,89.508c0,9.108-7.384,16.492-16.493,16.492H110.993c-9.109,0-16.493-7.384-16.493-16.492V77.492
			C94.5,68.384,101.884,61,110.993,61h121.014c9.109,0,16.493,7.384,16.493,16.492V89.508z"/>
		<circle fill="#F7F7F7" cx="104.204" cy="72.521" r="32.985"/>
		<circle fill="#F7F7F7" cx="161.104" cy="65.099" r="40.407"/>
		<circle fill="#F7F7F7" cx="228.725" cy="63.45" r="42.056"/>
	</g>
	<g>
		<rect x="59.956" y="250.243" fill="none" width="222.089" height="41.248"/>
		<text transform="matrix(1 0 0 1 72.9844 263.9229)"><tspan x="0" y="0" fill="#333333" font-family="'Open Sans', sans-serif" font-size="18">Transferência de Ativos </tspan><tspan x="50.027" y="21.601" fill="#333333" font-family="'Open Sans', sans-serif" font-size="18">Financeiros</tspan></text>
	</g>
	<g>
		<rect x="94.711" y="65.958" fill="none" width="152.577" height="15.53"/>
		<text transform="matrix(1 0 0 1 102.6602 81.1582)" fill="#333333" font-family="'Open Sans', sans-serif" font-weight="700" font-size="20">Colored Coins</text>
	</g>
	<g>
		<g>
			<circle fill="#530844" cx="114.746" cy="157.689" r="24.334"/>
			<circle fill="#7D0B65" cx="114.746" cy="157.689" r="20.373"/>
			<path opacity="0.2" fill="#F7F7F7" d="M114.746,133.355c-13.439,0-24.334,10.895-24.334,24.334
				c0,6.721,2.724,12.804,7.127,17.205l34.413-34.411C127.549,136.078,121.466,133.355,114.746,133.355z"/>
		</g>
		<g>
			<circle fill="#737D31" cx="171" cy="200.311" r="24.334"/>
			<circle fill="#99A641" cx="171" cy="200.311" r="20.373"/>
			<path opacity="0.2" fill="#F7F7F7" d="M171,175.977c-13.439,0-24.334,10.895-24.334,24.334c0,6.719,2.724,12.803,7.127,17.207
				l34.414-34.414C183.803,178.699,177.72,175.977,171,175.977z"/>
		</g>
		<g>
			<circle fill="#B37A10" cx="227.254" cy="157.689" r="24.334"/>
			<circle fill="#EEA315" cx="227.254" cy="157.689" r="20.373"/>
			<path opacity="0.2" fill="#F7F7F7" d="M227.254,133.355c-13.438,0-24.334,10.895-24.334,24.334
				c0,6.721,2.724,12.804,7.128,17.205l34.413-34.411C240.057,136.078,233.974,133.355,227.254,133.355z"/>
		</g>
	</g>
</g>
<g>
	<circle fill="#E2E2E2" cx="904" cy="171" r="171"/>
	<g>
		<path fill="#F7F7F7" d="M981.5,89.508c0,9.108-7.384,16.492-16.493,16.492H843.993c-9.109,0-16.493-7.384-16.493-16.492V77.492
			c0-9.108,7.384-16.492,16.493-16.492h121.014c9.109,0,16.493,7.384,16.493,16.492V89.508z"/>
		<circle fill="#F7F7F7" cx="837.204" cy="72.521" r="32.985"/>
		<circle fill="#F7F7F7" cx="894.104" cy="65.099" r="40.407"/>
		<circle fill="#F7F7F7" cx="961.725" cy="63.45" r="42.056"/>
	</g>
	<g>
		<rect x="796.227" y="234.604" fill="none" width="215.547" height="56.888"/>
		<text transform="matrix(1 0 0 1 844.5723 248.2832)"><tspan x="0" y="0" fill="#333333" font-family="'Open Sans', sans-serif" font-size="18">Criptomoedas </tspan><tspan x="54.281" y="21.601" fill="#333333" font-family="'Open Sans', sans-serif" font-size="18">+</tspan><tspan x="-20.729" y="43.2" fill="#333333" font-family="'Open Sans', sans-serif" font-size="18">Internet das Coisas</tspan></text>
	</g>
	<g>
		<rect x="809.9" y="65.958" fill="none" width="188.199" height="15.53"/>
		<text transform="matrix(1 0 0 1 819.0928 81.1582)" fill="#333333" font-family="'Open Sans', sans-serif" font-weight="700" font-size="20">Smart Properties</text>
	</g>
	
		<line fill="none" stroke="#333333" stroke-width="2" stroke-miterlimit="10" stroke-dasharray="4" x1="791.5" y1="163" x2="962.5" y2="163"/>
	<g>
		<path fill="#C45B5B" d="M886.5,169.105c0-0.845-0.938-1.529-2-1.529l0,0c-1.064,0-2,0.685-2,1.529v6.564
			c0,0.845,0.936,1.529,2,1.529l0,0c1.062,0,2-0.685,2-1.529V169.105z"/>
		<path fill="#B3B3B3" d="M885.5,187.259c0,2.814,1.84,4.741,4.654,4.741h155.398c2.814,0,4.947-1.927,4.947-4.741V185h-165V187.259
			z"/>
		<path fill="#0F69A6" d="M1037.74,167.688c0-1.81,0.73-3.494,1.982-4.903c-0.777-0.351-1.602-0.686-2.492-1.001
			c-14.625-5.136-19.689-15.525-26.154-24.1c-5.01-6.645-19.531-19.684-35.326-19.684h-38.213c-22.51,0-52.037,29.936-52.037,52.446
			v5.55v1.073v1.529V185h165v-6.401v-1.972c0,0.012-0.435,0.02-0.69,0.02C1043.103,176.646,1037.74,172.636,1037.74,167.688z"/>
		<path fill="#E3F5FF" d="M936.5,153v-30.043c-16,3.429-30.945,17.043-39.688,30.043H936.5z"/>
		<path fill="#0B4F7D" d="M936.926,192c-0.086-10-8.293-18.255-18.408-18.255c-10.117,0-18.322,8.255-18.406,18.255H936.926z"/>
		<path fill="#0B4F7D" d="M1027.615,192c-0.084-10-8.289-18.255-18.406-18.255c-10.115,0-18.322,8.255-18.408,18.255H1027.615z"/>
		<circle fill="#333333" cx="918.518" cy="192.525" r="15.201"/>
		<circle fill="#B3B3B3" cx="918.518" cy="192.525" r="10.521"/>
		<circle fill="#333333" cx="1009.208" cy="192.525" r="15.2"/>
		<circle fill="#B3B3B3" cx="1009.209" cy="192.525" r="10.521"/>
		<polygon fill="#CCCCCC" points="987.311,159 979.047,159 977.211,156 985.475,156 		"/>
		<polygon fill="#CCCCCC" points="950.584,159 942.32,159 941.402,156 949.666,156 		"/>
		<path fill="#F9F2B4" d="M1050.569,175.868c-0.021-1.342-0.327-2.628-0.944-3.816c-1.209-2.808-3.896-6.544-9.92-9.268
			c-1.252,1.409-1.976,3.094-1.976,4.903c0,4.948,5.37,8.959,12.077,8.959c0.256,0,0.693-0.008,0.693-0.02v-0.631
			C1050.5,175.996,1050.573,175.95,1050.569,175.868z"/>
		<line fill="none" stroke="#065F87" stroke-miterlimit="10" x1="939" y1="153" x2="939" y2="185"/>
		<line fill="none" stroke="#065F87" stroke-miterlimit="10" x1="975" y1="153" x2="975" y2="185"/>
		<path fill="#CCCCCC" d="M918.518,182.004c-5.811,0-10.521,4.712-10.521,10.521c0,2.167,0.656,4.182,1.777,5.854l14.6-14.596
			C922.697,182.66,920.686,182.004,918.518,182.004z"/>
		<path fill="#CCCCCC" d="M1009.209,182.004c-5.811,0-10.521,4.712-10.521,10.521c0,2.167,0.656,4.182,1.779,5.854l14.598-14.596
			C1013.389,182.66,1011.377,182.004,1009.209,182.004z"/>
		<polygon fill="#CAEFFC" points="971.5,135.291 953.844,153 971.5,153 		"/>
		<polygon fill="#E3F5FF" points="971.5,123 938.5,123 938.5,153 953.844,153 971.5,135.291 		"/>
		<path fill="#E3F5FF" d="M978.944,122.674l-4.444-0.122v10.191l8.84-8.907C981.924,123.366,980.411,122.97,978.944,122.674z"/>
		<path fill="#CAEFFC" d="M1008.02,141.683c-3.875-5.141-13.306-14.077-24.751-17.878l-8.769,8.938V153h4.309h37.543
			C1013.268,149,1010.768,145.327,1008.02,141.683z"/>
		<path fill="#0B4F7D" d="M1016.268,153.563c-0.477,1.718-2.254,2.724-3.971,2.249l-5.566-1.542
			c-1.719-0.476-2.723-2.253-2.248-3.97l0.045-0.164c0.477-1.719,2.254-2.725,3.971-2.249l5.566,1.54
			c1.717,0.476,2.723,2.254,2.248,3.971L1016.268,153.563z"/>
	</g>
	<g>
		<path fill="#B3B3B3" d="M798.193,195.549v-2.033h-16.24v2.026c0.082,10.152-4.061,10.155-4.061,10.155
			c0,1.121,0.908,2.029,2.029,2.029h20.301c1.123,0,2.031-0.908,2.031-2.029C802.254,205.697,798.113,205.697,798.193,195.549z"/>
		<path fill="#434955" d="M822.551,185.397L822.551,185.397v-38.57c0-2.241-1.818-4.06-4.059-4.06h-56.838
			c-2.242,0-4.061,1.818-4.061,4.06v38.57l0,0H822.551z"/>
		<rect x="761.654" y="146.827" opacity="0.1" fill="#FFFFFF" width="56.838" height="34.51"/>
		<path fill="#B3B3B3" d="M757.594,185.397v4.06c0,2.243,1.818,4.062,4.061,4.062h56.838c2.24,0,4.059-1.819,4.059-4.062v-4.06
			H757.594z"/>
		<path opacity="0.1" d="M779.922,207.727h20.301c1.123,0,2.031-0.908,2.031-2.029h-24.361
			C777.893,206.818,778.801,207.727,779.922,207.727z"/>
		<path opacity="0.1" d="M792.104,189.456c0-1.121-0.908-2.027-2.031-2.027s-2.029,0.906-2.029,2.027
			c0,1.124,0.906,2.033,2.029,2.033S792.104,190.58,792.104,189.456z"/>
		<rect x="781.953" y="193.516" opacity="0.1" width="16.24" height="2.026"/>
		<g>
			<circle fill="#F7F7F7" cx="790.308" cy="163.887" r="11.106"/>
			<path fill="#FF9900" d="M776.584,160.587c0.605-2.399,1.756-4.468,3.453-6.203c1.697-1.736,3.715-2.94,6.064-3.613
				c2.346-0.674,4.732-0.709,7.152-0.109s4.506,1.74,6.256,3.422c1.752,1.683,2.967,3.685,3.645,6.013
				c0.68,2.326,0.715,4.69,0.111,7.089c-0.605,2.4-1.758,4.469-3.453,6.205c-1.697,1.734-3.719,2.939-6.064,3.613
				c-2.346,0.671-4.73,0.707-7.152,0.108c-2.42-0.601-4.506-1.741-6.258-3.423c-1.75-1.682-2.965-3.686-3.645-6.012
				C776.016,165.351,775.979,162.985,776.584,160.587z M782.855,167.978l1.98,0.489c0.127,0.02,0.311,0.063,0.549,0.138
				c0.24,0.072,0.414,0.117,0.523,0.136l-0.631,2.48l1.512,0.382l0.605-2.455c0.109,0.039,0.303,0.088,0.578,0.15
				c0.273,0.064,0.486,0.114,0.633,0.152L788,171.904l1.514,0.354l0.604-2.482c0.879,0.145,1.664,0.215,2.352,0.205
				c0.688-0.009,1.293-0.196,1.816-0.558c0.521-0.364,0.91-0.92,1.168-1.664c0.586-1.637,0.121-2.846-1.402-3.627
				c1.1-0.235,1.744-0.964,1.926-2.183c0.236-1.562-0.77-2.709-3.027-3.436l0.633-2.481l-1.512-0.354l-0.607,2.399
				c-0.143-0.035-0.355-0.086-0.629-0.148c-0.277-0.063-0.469-0.114-0.578-0.15l0.605-2.4l-1.516-0.381l-0.604,2.454
				c-0.275-0.036-0.598-0.108-0.963-0.218l-2.092-0.519l-0.385,1.608l1.072,0.246c0.514,0.127,0.754,0.416,0.717,0.871l-0.717,2.81
				c0.037,0,0.094,0.019,0.166,0.057c-0.018-0.021-0.047-0.028-0.084-0.028c-0.035,0-0.062-0.01-0.082-0.028l-0.99,3.926
				c-0.09,0.328-0.32,0.446-0.686,0.354l-1.102-0.271L782.855,167.978z M787.889,167.348l0.826-3.298
				c0.018,0,0.195,0.035,0.535,0.109c0.34,0.072,0.598,0.136,0.771,0.189c0.174,0.057,0.43,0.137,0.77,0.246
				s0.602,0.229,0.785,0.355c0.182,0.127,0.375,0.276,0.576,0.449c0.201,0.172,0.334,0.372,0.4,0.6
				c0.062,0.229,0.059,0.479-0.016,0.75c-0.055,0.2-0.137,0.373-0.248,0.518c-0.109,0.146-0.246,0.255-0.412,0.328
				c-0.166,0.072-0.334,0.136-0.508,0.19c-0.176,0.055-0.385,0.077-0.633,0.069c-0.248-0.011-0.465-0.025-0.648-0.042
				c-0.182-0.019-0.402-0.054-0.658-0.109c-0.258-0.055-0.453-0.095-0.592-0.121c-0.137-0.028-0.316-0.069-0.535-0.125
				C788.082,167.405,787.943,167.367,787.889,167.348z M789.1,162.55l0.742-2.999c0.055,0.019,0.17,0.045,0.346,0.08
				c0.172,0.037,0.324,0.069,0.451,0.098c0.131,0.027,0.295,0.071,0.496,0.135c0.203,0.065,0.377,0.123,0.523,0.179
				c0.146,0.054,0.311,0.131,0.494,0.231s0.322,0.2,0.414,0.3c0.09,0.1,0.195,0.223,0.314,0.368c0.119,0.145,0.174,0.295,0.168,0.45
				c-0.012,0.153-0.025,0.33-0.043,0.532c-0.057,0.235-0.152,0.431-0.289,0.585c-0.139,0.154-0.312,0.259-0.523,0.312
				c-0.211,0.057-0.416,0.097-0.617,0.124c-0.203,0.028-0.445,0.019-0.73-0.027c-0.283-0.044-0.504-0.082-0.658-0.109
				c-0.158-0.026-0.369-0.078-0.635-0.149C789.287,162.587,789.137,162.55,789.1,162.55z"/>
			<path fill="#BF7300" d="M790.148,148.482c-8.596,0-15.562,6.968-15.562,15.562c0,8.596,6.967,15.562,15.562,15.562
				c8.594,0,15.561-6.966,15.561-15.562C805.709,155.45,798.742,148.482,790.148,148.482z M790.148,177.073
				c-7.195,0-13.029-5.832-13.029-13.028s5.834-13.028,13.029-13.028c7.193,0,13.027,5.832,13.027,13.028
				S797.342,177.073,790.148,177.073z"/>
			<path opacity="0.2" fill="#F7F7F7" d="M790.148,148.482c-8.596,0-15.562,6.968-15.562,15.562c0,4.298,1.742,8.188,4.559,11.004
				l22.006-22.008C798.336,150.225,794.445,148.482,790.148,148.482z"/>
		</g>
		<path opacity="0.1" fill="#FFFFFF" d="M818.492,142.768h-26.389l16.238,42.63h14.209l0,0v-38.57
			C822.551,144.586,820.732,142.768,818.492,142.768z"/>
	</g>
</g>
<g>
	<circle fill="#E2E2E2" cx="538" cy="171" r="171"/>
	<g>
		<path fill="#F7F7F7" d="M615.5,89.508c0,9.108-7.384,16.492-16.493,16.492H477.993c-9.109,0-16.493-7.384-16.493-16.492V77.492
			c0-9.108,7.384-16.492,16.493-16.492h121.014c9.109,0,16.493,7.384,16.493,16.492V89.508z"/>
		<circle fill="#F7F7F7" cx="471.205" cy="72.521" r="32.985"/>
		<circle fill="#F7F7F7" cx="528.104" cy="65.099" r="40.407"/>
		<circle fill="#F7F7F7" cx="595.725" cy="63.45" r="42.056"/>
	</g>
	<g>
		<rect x="422.228" y="234.486" fill="none" width="230.544" height="57.005"/>
		<text transform="matrix(1 0 0 1 436.7861 248.166)"><tspan x="0" y="0" fill="#333333" font-family="'Open Sans', sans-serif" font-size="18">Propriedade Intelectual;</tspan><tspan x="11.971" y="21.601" fill="#333333" font-family="'Open Sans', sans-serif" font-size="18">Sistemas de Votação;</tspan><tspan x="19.358" y="43.2" fill="#333333" font-family="'Open Sans', sans-serif" font-size="18">Registros Notariais; </tspan></text>
	</g>
	<g>
		<rect x="437.711" y="66.083" fill="none" width="199.578" height="15.28"/>
		<text transform="matrix(1 0 0 1 447.0898 81.2832)" fill="#333333" font-family="'Open Sans', sans-serif" font-weight="700" font-size="20">Registros Públicos</text>
	</g>
	<g>
		<path fill="#EEA315" d="M490.128,168.071c0,11.288,3.883,21.663,10.372,29.888v-59.775
			C494.011,146.407,490.128,156.782,490.128,168.071z"/>
		<path fill="#EEA315" d="M577.578,158.223l-7.231,7.951c-0.263,0.311-0.17,0.715,0.14,0.977l0.29,0.244
			c3.057-3.705,5.778-6.963,7.978-9.183l-0.426-0.358C578.018,157.591,577.84,157.912,577.578,158.223z"/>
		<path fill="#EEA315" d="M538.429,119.77c-9.991,0-19.273,3.034-26.977,8.23H558.5v54.424c1.857-2.424,3.935-5.027,6.137-7.639
			c0.583-0.689,0.966-1.148,1.675-1.996l-0.055-0.046l0.238-0.282l0.055,0.046c1.045-1.255,2.064-2.49,3.054-3.69l-0.591-0.498
			c-0.464-0.393-0.65-0.934-0.389-1.244l8.779-9.449c0.263-0.311,0.719-0.428,1.184-0.036l0.304,0.257
			c0.043,0.036,0.081,0.272,0.122,0.308c0.123-0.122,0.244-0.153,0.364-0.153h-0.002l0.171-0.365
			c1.891-1.779,3.251-2.621,4.03-1.965c0.779,0.658,0.279,2.052-1.155,4.218L582.297,160h-0.002c-2.503,4-7.352,9.129-12.532,15.197
			l-0.26,0.272l-2.327-1.956l2.35,1.983c-0.717,0.842-1.103,1.296-1.686,1.987c-3.246,3.85-6.527,7.43-9.34,10.332V210h-44.038
			c7.064,4.047,15.241,6.372,23.966,6.372c26.677,0,48.302-21.625,48.302-48.301C586.73,141.395,565.105,119.77,538.429,119.77z"/>
		<path fill="#F2F2F2" d="M558.5,187.816c-1.846,1.905-3.492,3.521-4.788,4.721L553.325,193h1.175v2h-3.35
			c-0.807,0.723-1.479,1.305-1.833,1.545l-0.001-0.001l-0.142,0.13l-0.33-0.279l0.102-0.176l0.016,0.014
			c0.121-0.266,0.367-0.697,0.693-1.232H505.5v-2h45.416c0.253-0.394,0.514-0.797,0.776-1.203l-0.035-0.029l0.475-0.562l1.58,1.332
			l-1.545-1.303c0.436-0.665,0.944-1.417,1.512-2.234H505.5v-2h49v0.832c1.152-1.623,2.504-3.456,4-5.408V128h-47.048
			c-4.16,2.807-7.85,6.252-10.952,10.184v59.775c3.83,4.854,8.568,8.951,13.962,12.041H558.5V187.816z M505.5,134h49v2h-49V134z
			 M505.5,141h49v2h-49V141z M505.5,147h49v2h-49V147z M505.5,154h49v2h-49V154z M505.5,160h49v2h-49V160z M505.5,167h49v2h-49V167z
			 M505.5,174h49v2h-49V174z M505.5,180h49v2h-49V180z M548.832,196.39l0.36,0.304c-0.408,0.334-0.57,0.401-0.61,0.367
			C548.536,197.022,548.574,196.851,548.832,196.39z M529.5,202h-24v-2h24V202z M541.914,205.152
			c-2.948-1.422-2.599-3.601-4.071-5.912c-1.229,1.422-1.721,3.201-2.212,4.979c0.491-1.777,0.982-3.557,2.212-4.979
			C539.315,201.552,538.966,203.73,541.914,205.152c2.193-3.686,6.616,1.014,10.67-1.467
			C548.53,206.166,544.107,201.467,541.914,205.152z"/>
		<rect x="505.5" y="167" fill="#CCCCCC" width="49" height="2"/>
		<rect x="505.5" y="160" fill="#CCCCCC" width="49" height="2"/>
		<rect x="505.5" y="154" fill="#CCCCCC" width="49" height="2"/>
		<rect x="505.5" y="147" fill="#CCCCCC" width="49" height="2"/>
		<rect x="505.5" y="134" fill="#CCCCCC" width="49" height="2"/>
		<rect x="505.5" y="141" fill="#CCCCCC" width="49" height="2"/>
		<rect x="505.5" y="174" fill="#CCCCCC" width="49" height="2"/>
		<rect x="505.5" y="180" fill="#CCCCCC" width="49" height="2"/>
		<path fill="#CCCCCC" d="M554.5,187h-49v2h48.179c0.261-0.375,0.535-0.766,0.821-1.168V187z"/>
		<path fill="#CCCCCC" d="M553.237,193c-0.727,1-1.447,1.428-2.087,2h3.35v-2h-1.175h-0.086H553.237z"/>
		<path fill="#CCCCCC" d="M505.5,193v2h44.155c0.349-0.573,0.789-1.267,1.261-2H505.5z"/>
		<rect x="505.5" y="200" fill="#CCCCCC" width="24" height="2"/>
		<path fill="#333333" d="M583.576,155.569c-0.779-0.656-2.14,0.085-4.03,1.864l2.875,2.426
			C583.855,157.693,584.355,156.228,583.576,155.569z"/>
		<path fill="#333333" d="M582.295,160.043l-2.918-2.445c-0.12,0.115-0.241,0.232-0.364,0.354c0.27,0.234,0.479,0.465,0.397,0.813
			l-0.656-0.554c-2.199,2.22-4.921,5.478-7.978,9.183l0.84,0.709l-0.794,0.941c-0.263,0.312-0.734,0.18-1.198-0.211l-0.021-0.018
			c-0.989,1.2-2.009,2.436-3.054,3.69l3.213,2.712C574.943,169.15,579.792,163.745,582.295,160.043z"/>
		<path fill="#333333" d="M567.84,177.486c0.583-0.691,0.969-1.145,1.686-1.986l-2.35-1.981l-0.864-0.729
			c-0.709,0.848-1.092,1.307-1.675,1.996c-2.202,2.611-4.279,5.215-6.137,7.639v5.393
			C561.312,184.914,564.594,181.335,567.84,177.486z"/>
		<path fill="#333333" d="M554.5,189h-0.821c-0.567,0.817-1.076,1.569-1.512,2.234l1.545,1.303c1.296-1.199,2.942-2.815,4.788-4.721
			v-5.393c-1.496,1.952-2.848,3.785-4,5.408V189z"/>
		<path fill="#333333" d="M554.5,187.832c-0.286,0.402-0.561,0.793-0.821,1.168h0.821V187.832z"/>
		<path fill="#333333" d="M548.962,196.232l0.362,0.304l-0.008,0.008l0.001,0.001c0.354-0.24,1.026-0.822,1.833-1.545h-1.495
			C549.329,195.535,549.083,195.967,548.962,196.232z"/>
		<path fill="#333333" d="M551.692,191.797c-0.263,0.406-0.523,0.81-0.776,1.203h2.202L551.692,191.797z"/>
		<path fill="#333333" d="M553.118,193h-2.202c-0.472,0.733-0.912,1.427-1.261,2h1.495c0.64-0.572,1.36-1.232,2.087-1.898
			L553.118,193z"/>
		<path fill="#333333" d="M549.192,196.693l-0.36-0.304c-0.258,0.461-0.296,0.633-0.25,0.671
			C548.622,197.095,548.784,197.027,549.192,196.693z"/>
		<path fill="#333333" d="M570.486,167.15c-0.31-0.262-0.402-0.666-0.14-0.977l7.231-7.951c0.262-0.311,0.439-0.632,0.75-0.369
			l0.426,0.358c0.086-0.087,0.174-0.175,0.259-0.26c-0.041-0.035-0.079-0.07-0.122-0.106l-0.304-0.257
			c-0.465-0.392-0.921-0.274-1.184,0.036l-8.779,9.449c-0.262,0.311-0.075,0.852,0.389,1.244l0.591,0.498
			c0.396-0.48,0.786-0.954,1.173-1.422L570.486,167.15z"/>
		<path fill="#333333" d="M578.754,158.212l0.656,0.554c0.082-0.349-0.128-0.579-0.397-0.813
			C578.928,158.037,578.84,158.125,578.754,158.212z"/>
		<path fill="#333333" d="M570.822,169.045l0.794-0.941l-0.84-0.709c-0.387,0.468-0.776,0.941-1.173,1.422l0.021,0.018
			C570.088,169.225,570.56,169.356,570.822,169.045z"/>
		<path fill="#F2F2F2" d="M582.297,160.044l0.124-0.185c-0.039,0.06-0.085,0.123-0.126,0.184L582.297,160.044z"/>
		<path fill="#F2F2F2" d="M579.375,157.597l0.002,0.001c0.056-0.053,0.114-0.112,0.169-0.164L579.375,157.597z"/>
		<path fill="#F2F2F2" d="M582.421,159.859l-2.875-2.426c-0.055,0.052-0.113,0.111-0.169,0.164l2.918,2.445
			C582.336,159.982,582.382,159.919,582.421,159.859z"/>
		<polygon fill="#F2F2F2" points="567.176,173.519 569.503,175.48 569.763,175.219 566.549,172.508 566.55,172.507 566.495,172.461 
			566.257,172.743 566.312,172.789 566.312,172.789 		"/>
		<polygon fill="#F2F2F2" points="569.763,175.219 566.55,172.507 566.549,172.508 		"/>
		<polygon fill="#F2F2F2" points="566.312,172.789 566.312,172.789 567.176,173.519 		"/>
		<polygon fill="#F2F2F2" points="551.657,191.768 551.692,191.797 551.692,191.797 553.119,193 553.325,193 553.712,192.537 
			552.132,191.205 		"/>
		<polygon fill="#F2F2F2" points="553.238,193.101 553.237,193.102 553.239,193.103 553.325,193 553.119,193 		"/>
		
			<rect x="551.473" y="192.398" transform="matrix(0.7645 0.6447 -0.6447 0.7645 254.1342 -310.7948)" fill="#F2F2F2" width="1.866" height="0"/>
		<rect x="553.178" y="192.973" fill="#F2F2F2" width="0.001" height="0.156"/>
		<polygon fill="#F2F2F2" points="548.962,196.232 548.946,196.219 548.845,196.395 549.175,196.674 549.316,196.544 
			548.958,196.24 		"/>
		<rect x="548.904" y="196.384" fill="#F2F2F2" width="0.47" height="0.009"/>
	</g>
</g>
</svg>
