<?xml version="1.0" encoding="utf-8"?>
<!-- Generator: Adobe Illustrator 16.0.0, SVG Export Plug-In . SVG Version: 6.00 Build 0)  -->
<!DOCTYPE svg PUBLIC "-//W3C//DTD SVG 1.1//EN" "http://www.w3.org/Graphics/SVG/1.1/DTD/svg11.dtd">
<svg version="1.1" id="Layer_1" xmlns="http://www.w3.org/2000/svg" xmlns:xlink="http://www.w3.org/1999/xlink" x="0px" y="0px"
	 width="342px" height="1090px" viewBox="0 0 342 1090" enable-background="new 0 0 342 1090" xml:space="preserve">
<g>
	<circle fill="#E2E2E2" cx="171" cy="171" r="171"/>
	<g>
		<path fill="#F7F7F7" d="M248.167,89.508c0,9.108-7.384,16.492-16.493,16.492H110.66c-9.109,0-16.493-7.384-16.493-16.492V77.492
			c0-9.108,7.384-16.492,16.493-16.492h121.014c9.109,0,16.493,7.384,16.493,16.492V89.508z"/>
		<circle fill="#F7F7F7" cx="104.204" cy="72.521" r="32.985"/>
		<circle fill="#F7F7F7" cx="161.104" cy="65.099" r="40.406"/>
		<circle fill="#F7F7F7" cx="228.725" cy="63.45" r="42.056"/>
	</g>
	<g>
		<rect x="59.956" y="250.243" fill="none" width="222.09" height="41.248"/>
		<text transform="matrix(1 0 0 1 72.9844 263.9229)"><tspan x="0" y="0" fill="#333333" font-family="'Roboto', sans-serif" font-size="18">Transferência de Ativos </tspan><tspan x="50.027" y="21.601" fill="#333333" font-family="'Roboto', sans-serif" font-size="18">Financeiros</tspan></text>
	</g>
	<g>
		<rect x="94.711" y="65.958" fill="none" width="152.578" height="15.53"/>
		<text transform="matrix(1 0 0 1 102.6602 81.1582)" fill="#333333" font-family="'Roboto', sans-serif" font-weight="700" font-size="20">Colored Coins</text>
	</g>
	<g>
		<g>
			<circle fill="#530844" cx="114.746" cy="157.689" r="24.334"/>
			<circle fill="#7D0B65" cx="114.746" cy="157.689" r="20.373"/>
			<path opacity="0.2" fill="#F7F7F7" d="M114.746,133.355c-13.439,0-24.334,10.895-24.334,24.334
				c0,6.721,2.724,12.804,7.127,17.205l34.413-34.411C127.549,136.078,121.466,133.355,114.746,133.355z"/>
		</g>
		<g>
			<circle fill="#737D31" cx="171" cy="200.311" r="24.334"/>
			<circle fill="#99A641" cx="171" cy="200.311" r="20.373"/>
			<path opacity="0.2" fill="#F7F7F7" d="M171,175.977c-13.439,0-24.334,10.895-24.334,24.334c0,6.719,2.724,12.803,7.127,17.207
				l34.414-34.414C183.802,178.699,177.719,175.977,171,175.977z"/>
		</g>
		<g>
			<circle fill="#B37A10" cx="227.253" cy="157.689" r="24.334"/>
			<circle fill="#EEA315" cx="227.253" cy="157.689" r="20.373"/>
			<path opacity="0.2" fill="#F7F7F7" d="M227.253,133.355c-13.438,0-24.334,10.895-24.334,24.334
				c0,6.721,2.725,12.804,7.128,17.205l34.413-34.411C240.056,136.078,233.973,133.355,227.253,133.355z"/>
		</g>
	</g>
</g>
<g>
	<circle fill="#E2E2E2" cx="171" cy="919" r="171"/>
	<g>
		<path fill="#F7F7F7" d="M248.167,837.508c0,9.108-7.384,16.492-16.493,16.492H110.66c-9.109,0-16.493-7.384-16.493-16.492v-12.016
			c0-9.108,7.384-16.492,16.493-16.492h121.014c9.109,0,16.493,7.384,16.493,16.492V837.508z"/>
		<circle fill="#F7F7F7" cx="104.204" cy="820.521" r="32.985"/>
		<circle fill="#F7F7F7" cx="161.104" cy="813.099" r="40.406"/>
		<circle fill="#F7F7F7" cx="228.725" cy="811.45" r="42.056"/>
	</g>
	<g>
		<rect x="63.227" y="982.604" fill="none" width="215.547" height="56.888"/>
		<text transform="matrix(1 0 0 1 111.5728 996.2832)"><tspan x="0" y="0" fill="#333333" font-family="'Roboto', sans-serif" font-size="18">Criptomoedas </tspan><tspan x="54.281" y="21.601" fill="#333333" font-family="'Roboto', sans-serif" font-size="18">+</tspan><tspan x="-20.729" y="43.2" fill="#333333" font-family="'Roboto', sans-serif" font-size="18">Internet das Coisas</tspan></text>
	</g>
	<g>
		<rect x="76.9" y="813.958" fill="none" width="188.2" height="15.53"/>
		<text transform="matrix(1 0 0 1 86.0928 829.1582)" fill="#333333" font-family="'Roboto', sans-serif" font-weight="700" font-size="20">Smart Properties</text>
	</g>
	
		<line fill="none" stroke="#333333" stroke-width="2" stroke-miterlimit="10" stroke-dasharray="4" x1="58.167" y1="911" x2="229.167" y2="911"/>
	<g>
		<path fill="#C45B5B" d="M153.167,917.105c0-0.845-0.938-1.529-2-1.529l0,0c-1.064,0-2,0.685-2,1.529v6.564
			c0,0.845,0.936,1.529,2,1.529l0,0c1.062,0,2-0.685,2-1.529V917.105z"/>
		<path fill="#B3B3B3" d="M152.167,935.259c0,2.814,2.173,4.741,4.988,4.741h155.398c2.814,0,4.614-1.927,4.614-4.741V933h-165
			V935.259z"/>
		<path fill="#0F69A6" d="M304.74,915.688c0-1.81,0.73-3.494,1.982-4.903c-0.777-0.351-1.602-0.686-2.492-1.001
			c-14.625-5.136-19.689-15.525-26.154-24.1C273.066,879.039,258.544,866,242.75,866h-38.213c-22.51,0-52.37,29.936-52.37,52.446
			v5.55v1.073v1.529V933h165v-6.401v-1.972c0,0.012-0.268,0.02-0.523,0.02C309.936,924.646,304.74,920.636,304.74,915.688z"/>
		<path fill="#E3F5FF" d="M203.167,901v-30.043c-16,3.429-30.612,17.043-39.354,30.043H203.167z"/>
		<path fill="#0B4F7D" d="M203.925,940c-0.086-10-8.293-18.255-18.408-18.255c-10.117,0-18.322,8.255-18.406,18.255H203.925z"/>
		<path fill="#0B4F7D" d="M294.615,940c-0.084-10-8.289-18.255-18.406-18.255c-10.115,0-18.322,8.255-18.408,18.255H294.615z"/>
		<circle fill="#333333" cx="185.517" cy="940.525" r="15.201"/>
		<circle fill="#B3B3B3" cx="185.517" cy="940.525" r="10.521"/>
		<circle fill="#333333" cx="276.208" cy="940.525" r="15.2"/>
		<circle fill="#B3B3B3" cx="276.208" cy="940.525" r="10.521"/>
		<polygon fill="#CCCCCC" points="254.31,907 246.046,907 244.21,904 252.474,904 		"/>
		<polygon fill="#CCCCCC" points="217.583,907 209.32,907 208.402,904 216.666,904 		"/>
		<path fill="#F9F2B4" d="M317.403,923.868c-0.021-1.342-0.244-2.628-0.861-3.816c-1.209-2.808-3.855-6.544-9.879-9.268
			c-1.252,1.409-1.954,3.094-1.954,4.903c0,4.948,5.214,8.959,11.921,8.959c0.256,0,0.537-0.008,0.537-0.02v-0.631
			C317.167,923.996,317.407,923.95,317.403,923.868z"/>
		<line fill="none" stroke="#065F87" stroke-miterlimit="10" x1="205.667" y1="901" x2="205.667" y2="933"/>
		<line fill="none" stroke="#065F87" stroke-miterlimit="10" x1="241.667" y1="901" x2="241.667" y2="933"/>
		<path fill="#CCCCCC" d="M185.517,930.004c-5.811,0-10.521,4.712-10.521,10.521c0,2.167,0.656,4.182,1.777,5.854l14.6-14.596
			C189.697,930.66,187.685,930.004,185.517,930.004z"/>
		<path fill="#CCCCCC" d="M276.208,930.004c-5.811,0-10.521,4.712-10.521,10.521c0,2.167,0.656,4.182,1.779,5.854l14.598-14.596
			C280.388,930.66,278.376,930.004,276.208,930.004z"/>
		<polygon fill="#CAEFFC" points="238.167,883.291 220.843,901 238.167,901 		"/>
		<polygon fill="#E3F5FF" points="238.167,871 205.167,871 205.167,901 220.843,901 238.167,883.291 		"/>
		<path fill="#E3F5FF" d="M245.778,870.674l-4.611-0.122v10.191l8.923-8.907C248.673,871.366,247.245,870.97,245.778,870.674z"/>
		<path fill="#CAEFFC" d="M275.019,889.683c-3.875-5.141-13.472-14.077-24.917-17.878l-8.936,8.938V901h4.642h37.543
			C280.267,897,277.767,893.327,275.019,889.683z"/>
		<path fill="#0B4F7D" d="M283.267,901.563c-0.477,1.718-2.254,2.724-3.971,2.249l-5.566-1.542c-1.719-0.476-2.723-2.253-2.248-3.97
			l0.045-0.164c0.477-1.719,2.254-2.725,3.971-2.249l5.566,1.54c1.717,0.476,2.723,2.254,2.248,3.971L283.267,901.563z"/>
	</g>
	<g>
		<path fill="#B3B3B3" d="M65.193,943.549v-2.033h-16.24v2.026c0.082,10.152-4.061,10.155-4.061,10.155
			c0,1.121,0.908,2.029,2.029,2.029h20.301c1.123,0,2.031-0.908,2.031-2.029C69.254,953.697,65.113,953.697,65.193,943.549z"/>
		<path fill="#434955" d="M89.551,933.397L89.551,933.397v-38.57c0-2.241-1.818-4.06-4.059-4.06H28.654
			c-2.242,0-4.061,1.818-4.061,4.06v38.57l0,0H89.551z"/>
		<rect x="28.654" y="894.827" opacity="0.1" fill="#FFFFFF" width="56.838" height="34.51"/>
		<path fill="#B3B3B3" d="M24.594,933.397v4.06c0,2.243,1.818,4.062,4.061,4.062h56.838c2.24,0,4.059-1.819,4.059-4.062v-4.06
			H24.594z"/>
		<path opacity="0.1" d="M46.922,955.727h20.301c1.123,0,2.031-0.908,2.031-2.029H44.893
			C44.893,954.818,45.801,955.727,46.922,955.727z"/>
		<path opacity="0.1" d="M59.104,937.456c0-1.121-0.908-2.027-2.031-2.027s-2.029,0.906-2.029,2.027
			c0,1.124,0.906,2.033,2.029,2.033S59.104,938.58,59.104,937.456z"/>
		<rect x="48.953" y="941.516" opacity="0.1" width="16.24" height="2.026"/>
		<g>
			<circle fill="#F7F7F7" cx="57.308" cy="911.887" r="11.106"/>
			<path fill="#FF9900" d="M43.584,908.587c0.605-2.399,1.756-4.468,3.453-6.203c1.697-1.736,3.715-2.94,6.064-3.613
				c2.346-0.674,4.732-0.709,7.152-0.109s4.506,1.74,6.256,3.422c1.752,1.683,2.967,3.685,3.645,6.013
				c0.68,2.326,0.715,4.69,0.111,7.089c-0.605,2.4-1.758,4.469-3.453,6.205c-1.697,1.734-3.719,2.939-6.064,3.613
				c-2.346,0.671-4.73,0.707-7.152,0.108c-2.42-0.601-4.506-1.741-6.258-3.423c-1.75-1.682-2.965-3.686-3.645-6.012
				C43.016,913.351,42.979,910.985,43.584,908.587z M49.855,915.978l1.98,0.489c0.127,0.02,0.311,0.063,0.549,0.138
				c0.24,0.072,0.414,0.117,0.523,0.136l-0.631,2.48l1.512,0.382l0.605-2.455c0.109,0.039,0.303,0.088,0.578,0.15
				c0.273,0.064,0.486,0.114,0.633,0.152L55,919.904l1.514,0.354l0.604-2.482c0.879,0.145,1.664,0.215,2.352,0.205
				c0.688-0.009,1.293-0.196,1.816-0.558c0.521-0.364,0.91-0.92,1.168-1.664c0.586-1.637,0.121-2.846-1.402-3.627
				c1.1-0.235,1.744-0.964,1.926-2.183c0.236-1.562-0.77-2.709-3.027-3.436l0.633-2.481l-1.512-0.354l-0.607,2.399
				c-0.143-0.035-0.355-0.086-0.629-0.148c-0.277-0.063-0.469-0.114-0.578-0.15l0.605-2.4l-1.516-0.381l-0.604,2.454
				c-0.275-0.036-0.598-0.108-0.963-0.218l-2.092-0.519l-0.385,1.608l1.072,0.246c0.514,0.127,0.754,0.416,0.717,0.871l-0.717,2.81
				c0.037,0,0.094,0.019,0.166,0.057c-0.018-0.021-0.047-0.028-0.084-0.028c-0.035,0-0.062-0.01-0.082-0.028l-0.99,3.926
				c-0.09,0.328-0.32,0.446-0.686,0.354l-1.102-0.271L49.855,915.978z M54.889,915.348l0.826-3.298c0.018,0,0.195,0.035,0.535,0.109
				c0.34,0.072,0.598,0.136,0.771,0.189c0.174,0.057,0.43,0.137,0.77,0.246s0.602,0.229,0.785,0.355
				c0.182,0.127,0.375,0.276,0.576,0.449c0.201,0.172,0.334,0.372,0.4,0.6c0.062,0.229,0.059,0.479-0.016,0.75
				c-0.055,0.2-0.137,0.373-0.248,0.518c-0.109,0.146-0.246,0.255-0.412,0.328c-0.166,0.072-0.334,0.136-0.508,0.19
				c-0.176,0.055-0.385,0.077-0.633,0.069c-0.248-0.011-0.465-0.025-0.648-0.042c-0.182-0.019-0.402-0.054-0.658-0.109
				c-0.258-0.055-0.453-0.095-0.592-0.121c-0.137-0.028-0.316-0.069-0.535-0.125C55.082,915.405,54.943,915.367,54.889,915.348z
				 M56.1,910.55l0.742-2.999c0.055,0.019,0.17,0.045,0.346,0.08c0.172,0.037,0.324,0.069,0.451,0.098
				c0.131,0.027,0.295,0.071,0.496,0.135c0.203,0.065,0.377,0.123,0.523,0.179c0.146,0.054,0.311,0.131,0.494,0.231
				s0.322,0.2,0.414,0.3c0.09,0.1,0.195,0.223,0.314,0.368c0.119,0.145,0.174,0.295,0.168,0.45c-0.012,0.153-0.025,0.33-0.043,0.532
				c-0.057,0.235-0.152,0.431-0.289,0.585c-0.139,0.154-0.312,0.259-0.523,0.312c-0.211,0.057-0.416,0.097-0.617,0.124
				c-0.203,0.028-0.445,0.019-0.73-0.027c-0.283-0.044-0.504-0.082-0.658-0.109c-0.158-0.026-0.369-0.078-0.635-0.149
				C56.287,910.587,56.137,910.55,56.1,910.55z"/>
			<path fill="#BF7300" d="M57.148,896.482c-8.596,0-15.562,6.968-15.562,15.562c0,8.596,6.967,15.562,15.562,15.562
				c8.594,0,15.561-6.966,15.561-15.562C72.709,903.45,65.742,896.482,57.148,896.482z M57.148,925.073
				c-7.195,0-13.029-5.832-13.029-13.028s5.834-13.028,13.029-13.028c7.193,0,13.027,5.832,13.027,13.028
				S64.342,925.073,57.148,925.073z"/>
			<path opacity="0.2" fill="#F7F7F7" d="M57.148,896.482c-8.596,0-15.562,6.968-15.562,15.562c0,4.298,1.742,8.188,4.559,11.004
				l22.006-22.008C65.336,898.225,61.445,896.482,57.148,896.482z"/>
		</g>
		<path opacity="0.1" fill="#FFFFFF" d="M85.492,890.768H59.104l16.238,42.63h14.209l0,0v-38.57
			C89.551,892.586,87.732,890.768,85.492,890.768z"/>
	</g>
</g>
<g>
	<circle fill="#E2E2E2" cx="171" cy="545" r="171"/>
	<g>
		<path fill="#F7F7F7" d="M248.167,463.508c0,9.108-7.384,16.492-16.493,16.492H110.66c-9.109,0-16.493-7.384-16.493-16.492v-12.016
			c0-9.108,7.384-16.492,16.493-16.492h121.014c9.109,0,16.493,7.384,16.493,16.492V463.508z"/>
		<circle fill="#F7F7F7" cx="104.205" cy="446.521" r="32.985"/>
		<circle fill="#F7F7F7" cx="161.104" cy="439.099" r="40.406"/>
		<circle fill="#F7F7F7" cx="228.725" cy="437.45" r="42.056"/>
	</g>
	<g>
		<rect x="55.228" y="608.486" fill="none" width="230.544" height="57.005"/>
		<text transform="matrix(1 0 0 1 69.7861 622.166)"><tspan x="0" y="0" fill="#333333" font-family="'Roboto', sans-serif" font-size="18">Propriedade Intelectual;</tspan><tspan x="11.971" y="21.601" fill="#333333" font-family="'Roboto', sans-serif" font-size="18">Sistemas de Votação;</tspan><tspan x="19.358" y="43.2" fill="#333333" font-family="'Roboto', sans-serif" font-size="18">Registros Notariais; </tspan></text>
	</g>
	<g>
		<rect x="70.711" y="440.083" fill="none" width="199.578" height="15.28"/>
		<text transform="matrix(1 0 0 1 80.0898 455.2832)" fill="#333333" font-family="'Roboto', sans-serif" font-weight="700" font-size="20">Registros Públicos</text>
	</g>
	<g>
		<path fill="#EEA315" d="M122.794,542.071c0,11.288,4.372,21.663,10.372,29.888v-59.775
			C127.167,520.407,122.794,530.782,122.794,542.071z"/>
		<path fill="#EEA315" d="M210.578,532.223l-7.231,7.951c-0.263,0.311-0.17,0.715,0.14,0.977l0.29,0.244
			c3.057-3.705,5.778-6.963,7.978-9.183l-0.426-0.358C211.017,531.591,210.839,531.912,210.578,532.223z"/>
		<path fill="#EEA315" d="M171.428,493.77c-9.991,0-19.272,3.034-26.976,8.23h46.714v54.424c2-2.424,4.102-5.027,6.303-7.639
			c0.584-0.689,1.05-1.148,1.759-1.996l-0.014-0.046l0.26-0.282l0.064,0.046c1.045-1.255,2.07-2.49,3.06-3.69l-0.589-0.498
			c-0.464-0.393-0.648-0.934-0.387-1.244l8.779-9.449c0.263-0.311,0.72-0.428,1.185-0.036l0.304,0.257
			c0.043,0.036,0.081,0.272,0.122,0.308c0.123-0.122,0.244-0.153,0.364-0.153h-0.002l0.171-0.365
			c1.891-1.779,3.251-2.621,4.03-1.965c0.779,0.658,0.279,2.052-1.155,4.218L215.296,534h-0.002c-2.503,4-7.352,9.129-12.532,15.197
			l-0.26,0.272l-2.327-1.956l2.35,1.983c-0.717,0.842-1.269,1.296-1.853,1.987c-3.246,3.85-6.506,7.43-9.506,10.332V584h-43.704
			c7.064,4.047,15.241,6.372,23.966,6.372c26.677,0,48.302-21.625,48.302-48.301C219.73,515.395,198.105,493.77,171.428,493.77z"/>
		<path fill="#F2F2F2" d="M191.167,561.816c-2,1.905-3.326,3.521-4.621,4.721L186.325,567h0.842v2h-3.017
			c-0.807,0.723-1.479,1.305-1.833,1.545l-0.001-0.001l-0.142,0.13l-0.33-0.279l0.102-0.176l0.016,0.014
			c0.121-0.266,0.367-0.697,0.693-1.232h-44.488v-2h45.749c0.253-0.394,0.514-0.797,0.776-1.203l-0.035-0.029l0.475-0.562
			l1.58,1.332l-1.545-1.303c0.436-0.665,0.944-1.417,1.512-2.234h-48.512v-2h49v0.832c1-1.623,3-3.456,4-5.408V502h-46.714
			c-4.16,2.807-8.286,6.252-11.286,10.184v59.775c4,4.854,8.901,8.951,14.296,12.041h43.704V561.816z M138.167,508h49v2h-49V508z
			 M138.167,515h49v2h-49V515z M138.167,521h49v2h-49V521z M138.167,528h49v2h-49V528z M138.167,534h49v2h-49V534z M138.167,541h49
			v2h-49V541z M138.167,548h49v2h-49V548z M138.167,554h49v2h-49V554z M181.832,570.39l0.36,0.304
			c-0.408,0.334-0.57,0.401-0.61,0.367C181.536,571.022,181.574,570.851,181.832,570.39z M162.167,576h-24v-2h24V576z
			 M174.914,579.152c-2.948-1.422-2.599-3.601-4.071-5.912c-1.229,1.422-1.72,3.201-2.211,4.979
			c0.491-1.777,0.982-3.557,2.211-4.979C172.315,575.552,171.965,577.73,174.914,579.152c2.193-3.686,6.616,1.014,10.67-1.467
			C181.53,580.166,177.107,575.467,174.914,579.152z"/>
		<rect x="138.167" y="541" fill="#CCCCCC" width="49" height="2"/>
		<rect x="138.167" y="534" fill="#CCCCCC" width="49" height="2"/>
		<rect x="138.167" y="528" fill="#CCCCCC" width="49" height="2"/>
		<rect x="138.167" y="521" fill="#CCCCCC" width="49" height="2"/>
		<rect x="138.167" y="508" fill="#CCCCCC" width="49" height="2"/>
		<rect x="138.167" y="515" fill="#CCCCCC" width="49" height="2"/>
		<rect x="138.167" y="548" fill="#CCCCCC" width="49" height="2"/>
		<rect x="138.167" y="554" fill="#CCCCCC" width="49" height="2"/>
		<path fill="#CCCCCC" d="M187.167,561h-49v2h48.512c0.261-0.375,0.488-0.766,0.488-1.168V561z"/>
		<path fill="#CCCCCC" d="M186.237,567c-0.727,1-1.447,1.428-2.087,2h3.017v-2h-0.842h-0.086H186.237z"/>
		<path fill="#CCCCCC" d="M138.167,567v2h44.488c0.349-0.573,0.789-1.267,1.261-2H138.167z"/>
		<rect x="138.167" y="574" fill="#CCCCCC" width="24" height="2"/>
		<path fill="#333333" d="M216.576,529.569c-0.779-0.656-2.14,0.085-4.03,1.864l2.875,2.426
			C216.855,531.693,217.355,530.228,216.576,529.569z"/>
		<path fill="#333333" d="M215.294,534.043l-2.918-2.445c-0.12,0.115-0.241,0.232-0.364,0.354c0.27,0.234,0.479,0.465,0.397,0.813
			l-0.656-0.554c-2.199,2.22-4.921,5.478-7.978,9.183l0.84,0.709l-0.794,0.941c-0.263,0.312-0.734,0.18-1.198-0.211l-0.021-0.018
			c-0.989,1.2-2.009,2.436-3.054,3.69l3.213,2.712C207.943,543.15,212.792,537.745,215.294,534.043z"/>
		<path fill="#333333" d="M200.672,551.486c0.584-0.691,1.053-1.145,1.77-1.986l-2.309-1.981l-0.843-0.729
			c-0.709,0.848-1.248,1.307-1.831,1.996c-2.202,2.611-4.293,5.215-6.293,7.639v5.393
			C194.167,558.914,197.426,555.335,200.672,551.486z"/>
		<path fill="#333333" d="M187.167,563h-0.488c-0.567,0.817-1.076,1.569-1.512,2.234l1.379,1.303
			c1.295-1.199,2.621-2.815,4.621-4.721v-5.393c-1,1.952-3,3.785-4,5.408V563z"/>
		<path fill="#333333" d="M187.5,561.832c-0.286,0.402-0.561,0.793-0.821,1.168h0.821V561.832z"/>
		<path fill="#333333" d="M181.961,570.232l0.362,0.304l-0.008,0.008l0.001,0.001c0.354-0.24,1.026-0.822,1.833-1.545h-1.495
			C182.329,569.535,182.083,569.967,181.961,570.232z"/>
		<path fill="#333333" d="M184.692,565.797c-0.263,0.406-0.523,0.81-0.776,1.203h2.202L184.692,565.797z"/>
		<path fill="#333333" d="M186.118,567h-2.202c-0.472,0.733-0.912,1.427-1.261,2h1.495c0.64-0.572,1.36-1.232,2.087-1.898
			L186.118,567z"/>
		<path fill="#333333" d="M182.192,570.693l-0.36-0.304c-0.258,0.461-0.296,0.633-0.25,0.671
			C181.622,571.095,181.784,571.027,182.192,570.693z"/>
		<path fill="#333333" d="M203.486,541.15c-0.31-0.262-0.402-0.666-0.14-0.977l7.231-7.951c0.262-0.311,0.439-0.632,0.75-0.369
			l0.426,0.358c0.086-0.087,0.174-0.175,0.259-0.26c-0.041-0.035-0.079-0.07-0.122-0.106l-0.304-0.257
			c-0.465-0.392-0.921-0.274-1.184,0.036l-8.779,9.449c-0.262,0.311-0.075,0.852,0.389,1.244l0.591,0.498
			c0.396-0.48,0.786-0.954,1.173-1.422L203.486,541.15z"/>
		<path fill="#333333" d="M211.753,532.212l0.656,0.554c0.082-0.349-0.128-0.579-0.397-0.813
			C211.927,532.037,211.839,532.125,211.753,532.212z"/>
		<path fill="#333333" d="M203.822,543.045l0.794-0.941l-0.84-0.709c-0.387,0.468-0.776,0.941-1.173,1.422l0.021,0.018
			C203.087,543.225,203.559,543.356,203.822,543.045z"/>
		<path fill="#F2F2F2" d="M215.296,534.044l0.124-0.185c-0.039,0.06-0.085,0.123-0.126,0.184L215.296,534.044z"/>
		<path fill="#F2F2F2" d="M212.375,531.597l0.002,0.001c0.056-0.053,0.114-0.112,0.169-0.164L212.375,531.597z"/>
		<path fill="#F2F2F2" d="M215.42,533.859l-2.875-2.426c-0.055,0.052-0.113,0.111-0.169,0.164l2.918,2.445
			C215.335,533.982,215.381,533.919,215.42,533.859z"/>
		<polygon fill="#F2F2F2" points="200.175,547.519 202.502,549.48 202.762,549.219 199.548,546.508 199.549,546.507 
			199.495,546.461 199.256,546.743 199.311,546.789 199.311,546.789 		"/>
		<polygon fill="#F2F2F2" points="202.762,549.219 199.549,546.507 199.548,546.508 		"/>
		<polygon fill="#F2F2F2" points="199.311,546.789 199.311,546.789 200.175,547.519 		"/>
		<polygon fill="#F2F2F2" points="184.657,565.768 184.692,565.797 184.692,565.797 186.119,567 186.325,567 186.711,566.537 
			185.131,565.205 		"/>
		<polygon fill="#F2F2F2" points="186.238,567.101 186.237,567.102 186.239,567.103 186.325,567 186.119,567 		"/>
		
			<rect x="184.472" y="566.398" transform="matrix(0.7645 0.6447 -0.6447 0.7645 408.7967 13.8782)" fill="#F2F2F2" width="1.866" height="0"/>
		<rect x="186.177" y="566.973" fill="#F2F2F2" width="0.001" height="0.156"/>
		<polygon fill="#F2F2F2" points="181.961,570.232 181.946,570.219 181.844,570.395 182.174,570.674 182.316,570.544 
			181.958,570.24 		"/>
		<rect x="181.904" y="570.384" fill="#F2F2F2" width="0.47" height="0.009"/>
	</g>
</g>
</svg>
