<?xml version="1.0" encoding="utf-8"?>
<!-- Generator: Adobe Illustrator 16.0.0, SVG Export Plug-In . SVG Version: 6.00 Build 0)  -->
<!DOCTYPE svg PUBLIC "-//W3C//DTD SVG 1.1//EN" "http://www.w3.org/Graphics/SVG/1.1/DTD/svg11.dtd">
<svg version="1.1" id="Layer_1" xmlns="http://www.w3.org/2000/svg" xmlns:xlink="http://www.w3.org/1999/xlink" x="0px" y="0px"
	 width="674.092px" height="828px" viewBox="0 0 674.092 828" enable-background="new 0 0 674.092 828" xml:space="preserve">
<path fill="#2EA3F2" d="M634.553,193c0,11.046-8.954,20-20,20h-227c-11.046,0-20-8.954-20-20V20c0-11.046,8.954-20,20-20h227
	c11.046,0,20,8.954,20,20V193z"/>
<path fill="#2EA3F2" d="M277.553,193c0,11.046-8.954,20-20,20h-227c-11.046,0-20-8.954-20-20V20c0-11.046,8.954-20,20-20h227
	c11.046,0,20,8.954,20,20V193z"/>
<g>
	<rect x="49.308" y="20.211" fill="none" width="190.49" height="18.134"/>
	<text transform="matrix(1 0 0 1 51.563 36.9307)" fill="#F7F7F7" font-family="'OpenSans'" font-size="22">Uma Rede Pública</text>
</g>
<g>
	<rect x="382.471" y="20.211" fill="none" width="237.164" height="17.386"/>
	<text transform="matrix(1 0 0 1 384.6128 36.9302)" fill="#F7F7F7" font-family="'OpenSans'" font-size="22">Incentivos Econômicos</text>
</g>
<g>
	<rect x="376.552" y="254" fill="none" width="297.54" height="120"/>
	<text transform="matrix(1 0 0 1 376.5522 269.2002)"><tspan x="0" y="0" fill="#333333" font-family="'OpenSans'" font-size="20">Os mineradores são </tspan><tspan x="0" y="26" fill="#333333" font-family="'OpenSans'" font-size="20">recompensados com tokens </tspan><tspan x="0" y="52" fill="#333333" font-family="'OpenSans'" font-size="20">que apresentam valor de troca. </tspan><tspan x="0" y="78" fill="#333333" font-family="'OpenSans'" font-size="20">O custo para trapacear é maior </tspan><tspan x="0" y="104" fill="#333333" font-family="'OpenSans'" font-size="20">do que o retorno por colaborar.</tspan></text>
</g>
<g>
	<rect y="241.502" fill="none" width="289.105" height="112.722"/>
	<text transform="matrix(1 0 0 1 78.8931 256.7021)"><tspan x="0" y="0" fill="#333333" font-family="'OpenSans'" font-size="20">Mais Usuários</tspan><tspan x="59.941" y="24" fill="#333333" font-family="'OpenSans'" font-size="20">= </tspan><tspan x="-75.879" y="48" fill="#333333" font-family="'OpenSans'" font-size="20">Mais Poder de Processamento</tspan><tspan x="59.941" y="72" fill="#333333" font-family="'OpenSans'" font-size="20">= </tspan><tspan x="-7.646" y="96" fill="#333333" font-family="'OpenSans'" font-size="20">Mais Segurança</tspan></text>
</g>
<line fill="none" stroke="#333333" stroke-width="2" stroke-miterlimit="10" stroke-dasharray="4" x1="122.327" y1="83.787" x2="198.848" y2="134.666"/>
<line fill="none" stroke="#333333" stroke-width="2" stroke-miterlimit="10" stroke-dasharray="4" x1="166.674" y1="83.768" x2="90.154" y2="134.707"/>
<line fill="none" stroke="#333333" stroke-width="2" stroke-miterlimit="10" stroke-dasharray="4" x1="166.674" y1="83.768" x2="144.5" y2="168.775"/>
<line fill="none" stroke="#333333" stroke-width="2" stroke-miterlimit="10" stroke-dasharray="4" x1="122.327" y1="83.787" x2="144.5" y2="168.775"/>
<polygon fill="none" stroke="#333333" stroke-width="2" stroke-miterlimit="10" stroke-dasharray="4" points="122.327,83.787 
	166.674,83.768 198.848,134.666 144.5,168.775 90.154,134.707 "/>
<g>
	<circle fill="#F7F7F7" cx="90.148" cy="118.667" r="4.324"/>
	<path fill="#F7F7F7" d="M99.159,126.798c0,1.167-1.99,1.673-2.971,1.673l-12.328,0.005c-0.98,0.001-2.814-0.305-2.815-1.475l0,0
		c0-1.165,3.591-2.752,4.573-2.753l9.063-0.003C95.664,124.245,99.158,125.631,99.159,126.798L99.159,126.798z"/>
	<path fill="#F7F7F7" d="M96.038,142.398c0.001,0.927,0.75,1.674,1.673,1.674l0,0c0.927-0.001,1.674-0.749,1.674-1.674
		l-0.007-14.783c0-0.924-0.749-1.674-1.674-1.675l0,0c-0.923,0.001-1.674,0.753-1.673,1.676L96.038,142.398z"/>
	<path fill="#F7F7F7" d="M91.282,158.834c0.001,0.923,0.75,1.672,1.673,1.673l0,0c0.924-0.001,1.674-0.751,1.672-1.674
		l-0.006-14.784c-0.001-0.926-0.749-1.674-1.674-1.674l0,0c-0.923,0.002-1.673,0.751-1.672,1.676L91.282,158.834z"/>
	<path fill="#F7F7F7" d="M85.702,158.837c0.001,0.923,0.751,1.673,1.677,1.671l0,0c0.922,0.001,1.673-0.748,1.673-1.674
		l-0.007-14.781c0-0.926-0.752-1.675-1.673-1.676l0,0c-0.927,0.001-1.676,0.751-1.676,1.676L85.702,158.837z"/>
	<path fill="#F7F7F7" d="M80.933,142.407c0,0.924,0.747,1.673,1.673,1.671l0,0c0.925,0,1.673-0.749,1.674-1.673l-0.007-14.783
		c-0.001-0.924-0.751-1.674-1.675-1.672l0,0c-0.925-0.002-1.672,0.751-1.672,1.673L80.933,142.407z"/>
	<rect x="85.691" y="125.084" fill="#F7F7F7" width="8.926" height="19.246"/>
</g>
<g>
	<circle fill="#F7F7F7" cx="122.321" cy="67.75" r="4.324"/>
	<path fill="#F7F7F7" d="M131.333,75.878c0,1.169-1.99,1.674-2.973,1.674l-12.327,0.005c-0.978,0.002-2.814-0.307-2.814-1.473l0,0
		c0-1.168,3.59-2.754,4.573-2.755l9.063-0.003C127.838,73.326,131.331,74.711,131.333,75.878L131.333,75.878z"/>
	<path fill="#F7F7F7" d="M128.212,91.48c0,0.926,0.749,1.673,1.674,1.673l0,0c0.925-0.001,1.672-0.749,1.672-1.674l-0.007-14.783
		c0-0.923-0.749-1.673-1.673-1.672l0,0c-0.925,0-1.672,0.751-1.672,1.674L128.212,91.48z"/>
	<path fill="#F7F7F7" d="M123.455,107.916c0,0.923,0.75,1.672,1.673,1.672l0,0c0.927-0.001,1.672-0.751,1.673-1.674l-0.006-14.783
		c-0.001-0.924-0.749-1.674-1.675-1.673l0,0c-0.922-0.001-1.672,0.749-1.671,1.674L123.455,107.916z"/>
	<path fill="#F7F7F7" d="M117.876,107.918c0.001,0.924,0.749,1.674,1.675,1.673l0,0c0.922-0.001,1.672-0.751,1.673-1.675
		l-0.007-14.781c-0.001-0.928-0.752-1.677-1.673-1.677l0,0c-0.927,0.002-1.675,0.753-1.675,1.677L117.876,107.918z"/>
	<path fill="#F7F7F7" d="M113.105,91.488c0.001,0.924,0.75,1.672,1.674,1.672l0,0c0.925,0,1.672-0.748,1.671-1.673l-0.007-14.783
		c0.001-0.925-0.749-1.673-1.674-1.673l0,0c-0.925,0-1.671,0.75-1.672,1.674L113.105,91.488z"/>
	<rect x="117.866" y="74.166" fill="#F7F7F7" width="8.922" height="19.245"/>
</g>
<g>
	<circle fill="#F7F7F7" cx="144.494" cy="152.737" r="4.324"/>
	<path fill="#F7F7F7" d="M153.505,160.866c0,1.169-1.991,1.675-2.971,1.675l-12.329,0.006c-0.979,0-2.812-0.307-2.812-1.474l0,0
		c-0.001-1.169,3.59-2.755,4.573-2.755l9.063-0.003C150.011,158.313,153.504,159.699,153.505,160.866L153.505,160.866z"/>
	<path fill="#F7F7F7" d="M150.382,176.471c0.001,0.925,0.751,1.67,1.676,1.67l0,0c0.925,0,1.672-0.748,1.672-1.672l-0.007-14.783
		c0-0.925-0.749-1.674-1.673-1.674l0,0c-0.925,0-1.675,0.752-1.674,1.674L150.382,176.471z"/>
	<path fill="#F7F7F7" d="M145.627,192.904c0.002,0.922,0.751,1.671,1.675,1.672l0,0c0.926-0.001,1.672-0.751,1.671-1.673
		l-0.006-14.785c0-0.924-0.746-1.674-1.674-1.673l0,0c-0.923,0-1.672,0.75-1.672,1.674L145.627,192.904z"/>
	<path fill="#F7F7F7" d="M140.05,192.905c0,0.925,0.749,1.673,1.675,1.673l0,0c0.922-0.001,1.671-0.749,1.671-1.673l-0.007-14.784
		c0.001-0.926-0.751-1.674-1.673-1.674l0,0c-0.925,0-1.673,0.75-1.673,1.676L140.05,192.905z"/>
	<path fill="#F7F7F7" d="M135.28,176.476c0,0.925,0.747,1.674,1.673,1.673l0,0c0.923-0.002,1.673-0.749,1.672-1.675l-0.007-14.781
		c0-0.925-0.75-1.674-1.674-1.673l0,0c-0.925-0.001-1.672,0.75-1.671,1.674L135.28,176.476z"/>
	<rect x="140.039" y="159.152" fill="#F7F7F7" width="8.923" height="19.246"/>
</g>
<g>
	<circle fill="#F7F7F7" cx="166.667" cy="67.729" r="4.324"/>
	<path fill="#F7F7F7" d="M175.677,75.857c0.001,1.168-1.988,1.673-2.97,1.674l-12.327,0.007c-0.98,0.001-2.814-0.308-2.815-1.476
		l0,0c0-1.166,3.59-2.752,4.572-2.753l9.064-0.005C172.184,73.305,175.678,74.691,175.677,75.857L175.677,75.857z"/>
	<path fill="#F7F7F7" d="M172.557,91.461c0,0.926,0.75,1.672,1.674,1.672l0,0c0.926,0,1.674-0.75,1.672-1.673l-0.006-14.784
		c0-0.923-0.75-1.673-1.676-1.672l0,0c-0.923,0-1.671,0.75-1.671,1.673L172.557,91.461z"/>
	<path fill="#F7F7F7" d="M167.8,107.896c0.001,0.923,0.753,1.673,1.673,1.672l0,0c0.926-0.002,1.675-0.75,1.673-1.674l-0.007-14.782
		c0-0.925-0.748-1.676-1.672-1.674l0,0c-0.923-0.002-1.675,0.749-1.674,1.674L167.8,107.896z"/>
	<path fill="#F7F7F7" d="M162.223,107.897c0,0.925,0.75,1.672,1.675,1.673l0,0c0.923-0.001,1.673-0.752,1.672-1.674l-0.007-14.783
		c0-0.926-0.751-1.676-1.674-1.674l0,0c-0.925-0.001-1.673,0.75-1.673,1.676L162.223,107.897z"/>
	<path fill="#F7F7F7" d="M157.454,91.467c-0.001,0.926,0.747,1.672,1.672,1.673l0,0c0.924-0.001,1.672-0.749,1.672-1.673
		l-0.006-14.783c-0.001-0.924-0.751-1.675-1.674-1.675l0,0c-0.925,0.002-1.672,0.752-1.671,1.677L157.454,91.467z"/>
	<rect x="162.212" y="74.145" fill="#F7F7F7" width="8.923" height="19.246"/>
</g>
<g>
	<circle fill="#F7F7F7" cx="198.838" cy="118.628" r="4.324"/>
	<path fill="#F7F7F7" d="M207.852,126.756c0,1.167-1.991,1.674-2.971,1.674l-12.33,0.006c-0.978,0-2.812-0.307-2.812-1.474l0,0
		c0-1.169,3.589-2.754,4.572-2.754l9.062-0.005C204.356,124.203,207.852,125.588,207.852,126.756L207.852,126.756z"/>
	<path fill="#F7F7F7" d="M204.729,142.358c0.001,0.926,0.751,1.673,1.676,1.673l0,0c0.925,0,1.671-0.749,1.671-1.673l-0.005-14.784
		c-0.001-0.924-0.748-1.674-1.673-1.673l0,0c-0.925-0.001-1.676,0.751-1.675,1.675L204.729,142.358z"/>
	<path fill="#F7F7F7" d="M199.971,158.794c0.002,0.921,0.754,1.672,1.676,1.671l0,0c0.926,0,1.673-0.75,1.673-1.674l-0.006-14.783
		c-0.001-0.925-0.75-1.674-1.675-1.674l0,0c-0.923,0-1.673,0.75-1.673,1.676L199.971,158.794z"/>
	<path fill="#F7F7F7" d="M194.396,158.797c-0.001,0.923,0.749,1.671,1.674,1.671l0,0c0.924,0,1.673-0.749,1.671-1.673l-0.004-14.783
		c-0.001-0.927-0.754-1.675-1.677-1.676l0,0c-0.924,0.001-1.671,0.751-1.671,1.676L194.396,158.797z"/>
	<path fill="#F7F7F7" d="M189.626,142.366c0,0.924,0.748,1.671,1.673,1.672l0,0c0.923-0.001,1.673-0.749,1.673-1.675l-0.007-14.782
		c0-0.923-0.751-1.673-1.674-1.673l0,0c-0.926,0-1.672,0.752-1.672,1.674L189.626,142.366z"/>
	<rect x="194.385" y="125.044" fill="#F7F7F7" width="8.924" height="19.245"/>
</g>
<g>
	<path fill="#333333" d="M327.258,104.109h14.484v4.852h-14.484v14.977h-4.887v-14.977h-14.414v-4.852h14.414V89.062h4.887V104.109z
		"/>
</g>
<g>
	<circle fill="#F7F7F7" cx="501.535" cy="128.416" r="63.333"/>
	<g>
		<defs>
			<circle id="SVGID_1_" cx="501.07" cy="128.416" r="63.333"/>
		</defs>
		<clipPath id="SVGID_2_">
			<use xlink:href="#SVGID_1_"  overflow="visible"/>
		</clipPath>
		<g clip-path="url(#SVGID_2_)">
			<path fill="#99A641" d="M501.173,109.971c0-5.678,11.972-31.844,7.024-32.184c-4.951-0.342-10.012,11.039-13.427,10.954
				c-3.413-0.085-7.75-5.496-12.187-4.13c-3.99,1.229,8.882,21.079,8.882,25.359c0,5.111-25.49,32.644-25.49,49.859
				c0,20.142,15.276,25.26,29.982,25.26s31.119-5.461,31.119-26.626C527.077,142.614,501.173,115.646,501.173,109.971z"/>
			<g>
				<rect x="524.553" y="103" fill="#FFCCB0" width="75" height="20"/>
				<path fill="#FFCCB0" d="M533.551,103.244c-5.164,0-14.407-4.982-18.125-10.561c0,0-3.926-3.912-7.643-4.117l-3.512,6.002
					l-0.92,35.323c0,0,11.429,0.425,16.722-4.882c1.896-1.9,5.783-1.938,11.773-1.938"/>
				<path fill="#FFCCB0" d="M506.553,97.332c0-1.576-1.666-2.332-3.201-2.332h-15.007c-1.536,0-3.792,0.756-3.792,2.332v28.564
					c0,1.578,2.256,4.104,3.792,4.104h15.007c1.535,0,3.201-2.525,3.201-4.104V97.332z"/>
				<path fill="#FFCCB0" d="M493.553,97.779c0-1.535-1.244-2.779-2.779-2.779h-7.441c-1.535,0-2.779,1.244-2.779,2.779v2.441
					c0,1.535,1.244,2.779,2.779,2.779h7.441c1.535,0,2.779-1.244,2.779-2.779V97.779z"/>
				<path fill="#FFCCB0" d="M493.553,106.78c0-1.535-1.244-2.78-2.779-2.78h-7.441c-1.535,0-2.779,1.245-2.779,2.78v1.439
					c0,1.535,1.244,2.78,2.779,2.78h7.441c1.535,0,2.779-1.245,2.779-2.78V106.78z"/>
				<path fill="#FFCCB0" d="M494.553,114.425c0-1.362-1.227-2.425-2.525-2.425h-8.398c-1.299,0-3.077,1.062-3.077,2.425v3.639
					c0,1.364,1.778,2.937,3.077,2.937h8.398c1.298,0,2.525-1.572,2.525-2.937V114.425z"/>
				<path fill="#FFCCB0" d="M494.553,124.829c0-1.573-1.194-2.829-2.709-2.829h-7.508c-1.515,0-3.783,1.256-3.783,2.829V126
					c0,1.572,2.268,4,3.783,4h7.508c1.515,0,2.709-2.428,2.709-4V124.829z"/>
				<path fill="#FFCCB0" d="M484.752,102.463c0.325,0,0.494,0.619,0.485,0.897c-0.014,0.346-0.066,1.083-0.506,1.083
					c-0.44,0,0.406,0.557,0.406,0.557h0.416v-3h-0.822L484.752,102.463z"/>
				<path fill="#FFCCB0" d="M484.679,110.295c0.382,0.029,0.485,1.277,0.485,1.497c0,0.221,0.069,1.22-0.324,1.22
					c-0.394,0,0.061,0.289,0.061,0.289l1.288-0.06L485.993,110h-1.262L484.679,110.295z"/>
				<path fill="#FFCCB0" d="M483.553,119.861c0,0,1.235,0.614,1.205,1.079c-0.018,0.277,0.182,0.962-0.2,0.962
					c-0.384,0,0.209,0.592,0.208,0.591l1.545-0.138l-0.78-3.087l-1.979-0.069V119.861z"/>
			</g>
			<text transform="matrix(1 0 0 1 487.7861 165.3555)" fill="#F7F7F7" font-family="'OpenSans'" font-size="30.5678">$</text>
		</g>
	</g>
</g>
<g>
	<path fill="#CCCCCC" d="M356.16,366.597c0,5.977,1.743,10.444,5.229,13.403c3.485,2.958,9.418,4.526,17.798,4.702v7.998
		c-11.426,0-19.556-2.197-24.39-6.592s-7.251-11.162-7.251-20.303v-29.619c0-12.011-6.739-18.135-20.215-18.369v-7.031
		c7.148-0.117,12.305-1.611,15.469-4.482c3.164-2.87,4.746-7.207,4.746-13.008v-30.762c0-17.52,10.547-26.455,31.641-26.807v7.91
		c-8.086,0.294-13.946,1.992-17.578,5.098c-3.634,3.106-5.449,7.705-5.449,13.799v26.807c0,7.617-1.29,13.302-3.867,17.051
		c-2.579,3.75-6.739,6.24-12.48,7.471v0.703c5.683,1.173,9.829,3.618,12.437,7.339c2.606,3.722,3.911,9.185,3.911,16.392V366.597z"
		/>
</g>
<g>
	<path fill="#2EA3F2" d="M502.553,808c0,11.046-8.954,20-20,20h-227c-11.046,0-20-8.954-20-20V474c0-11.046,8.954-20,20-20h227
		c11.046,0,20,8.954,20,20V808z"/>
	<g>
		<rect x="255.479" y="474.211" fill="none" width="226.549" height="94.092"/>
		<text transform="matrix(1 0 0 1 288.627 490.9297)"><tspan x="0" y="0" fill="#F7F7F7" font-family="'OpenSans'" font-size="22">Manutenção de </tspan><tspan x="-15.41" y="26.4" fill="#F7F7F7" font-family="'OpenSans'" font-size="22">Consenso Sem um </tspan><tspan x="-30.191" y="52.801" fill="#F7F7F7" font-family="'OpenSans'" font-size="22">Intermediário Central</tspan></text>
	</g>
	<g>
		<path fill="#333333" d="M171.853,555.719v-4.816h32.695v4.816H171.853z M171.853,570.098v-4.816h32.695v4.816H171.853z"/>
	</g>
	<rect x="232.553" y="653" fill="#FFFFFF" width="270" height="121"/>
	<ellipse opacity="0.2" fill="#333333" cx="422.762" cy="660.402" rx="15.256" ry="4.972"/>
	<rect x="416.553" y="598" fill="#F4A25F" width="13" height="62"/>
	<rect x="416.553" y="598" fill="#DD925B" width="1" height="62"/>
	<rect x="419.553" y="598" fill="#DD925B" width="2" height="62"/>
	<rect x="422.553" y="598" fill="#DD925B" width="3" height="62"/>
	<rect x="426.553" y="598" fill="#DD925B" width="2" height="62"/>
	<rect x="416.553" y="598" opacity="0.2" fill="#333333" width="13" height="17"/>
	<polygon fill="#89427C" points="446.335,607.3 382.236,603.756 385.071,581.945 447.987,594.576 	"/>
	<polygon fill="#89427C" points="442.441,580.365 474.616,604.968 437.223,620.531 	"/>
	<g>
		<g>
			<polygon fill="#999999" points="264.869,757.33 262.523,751.072 263.408,750.811 265.753,757.069 			"/>
			<polygon fill="#999999" points="267.883,760.492 264.869,757.33 265.657,756.772 268.568,759.876 			"/>
			<polygon fill="#999999" points="260.246,757.252 260.951,750.687 261.87,750.765 261.164,757.331 			"/>
			<polygon fill="#999999" points="261.905,761.294 260.246,757.252 261.174,757 262.768,760.969 			"/>
			<polygon fill="#999999" points="256.305,756.826 259.248,750.77 260.11,751.098 257.166,757.152 			"/>
			<polygon fill="#999999" points="256.794,761.168 256.305,756.826 257.28,756.857 257.712,761.09 			"/>
			<polygon fill="#999999" points="264.869,742.033 262.523,748.291 263.408,748.551 265.753,742.293 			"/>
			<polygon fill="#999999" points="267.883,738.87 264.869,742.033 265.657,742.59 268.568,739.486 			"/>
			<polygon fill="#999999" points="260.246,742.11 260.951,748.676 261.87,748.598 261.164,742.032 			"/>
			<polygon fill="#999999" points="261.905,738.068 260.246,742.11 261.174,742.363 262.768,738.395 			"/>
			<polygon fill="#999999" points="256.305,742.537 259.248,748.593 260.11,748.266 257.166,742.21 			"/>
			<polygon fill="#999999" points="256.794,738.195 256.305,742.537 257.28,742.505 257.712,738.271 			"/>
			
				<rect x="269.489" y="746.14" transform="matrix(0.7061 -0.7082 0.7082 0.7061 -448.8175 411.9432)" fill="#999999" width="4.628" height="0.923"/>
			
				<rect x="269.489" y="751.597" transform="matrix(0.7061 0.7082 -0.7082 0.7061 612.4742 28.5862)" fill="#999999" width="4.628" height="0.922"/>
			<circle fill="#333333" cx="268.03" cy="749.519" r="3.993"/>
			<ellipse fill="#333333" cx="252.002" cy="749.519" rx="6.58" ry="4.946"/>
			<circle fill="#333333" cx="261.21" cy="749.518" r="3.598"/>
		</g>
		<g>
			<polygon fill="#999999" points="302.005,757.33 299.66,751.072 300.544,750.811 302.889,757.069 			"/>
			<polygon fill="#999999" points="305.02,760.492 302.005,757.33 302.793,756.772 305.704,759.876 			"/>
			<polygon fill="#999999" points="297.382,757.252 298.087,750.687 299.006,750.765 298.3,757.331 			"/>
			<polygon fill="#999999" points="299.041,761.294 297.382,757.252 298.31,757 299.904,760.969 			"/>
			<polygon fill="#999999" points="293.441,756.826 296.385,750.77 297.246,751.098 294.303,757.152 			"/>
			<polygon fill="#999999" points="293.93,761.168 293.441,756.826 294.416,756.857 294.849,761.09 			"/>
			<polygon fill="#999999" points="302.005,742.033 299.66,748.291 300.544,748.551 302.889,742.293 			"/>
			<polygon fill="#999999" points="305.02,738.87 302.005,742.033 302.793,742.59 305.704,739.486 			"/>
			<polygon fill="#999999" points="297.382,742.11 298.087,748.676 299.006,748.598 298.3,742.032 			"/>
			<polygon fill="#999999" points="299.041,738.068 297.382,742.11 298.31,742.363 299.904,738.395 			"/>
			<polygon fill="#999999" points="293.441,742.537 296.385,748.593 297.246,748.266 294.303,742.21 			"/>
			<polygon fill="#999999" points="293.93,738.195 293.441,742.537 294.416,742.505 294.849,738.271 			"/>
			
				<rect x="306.625" y="746.14" transform="matrix(0.7062 -0.7081 0.7081 0.7062 -437.8552 438.13)" fill="#999999" width="4.629" height="0.923"/>
			
				<rect x="306.625" y="751.597" transform="matrix(0.7062 0.7081 -0.7081 0.7062 623.2784 2.2408)" fill="#999999" width="4.629" height="0.922"/>
			<circle fill="#333333" cx="305.166" cy="749.519" r="3.993"/>
			<ellipse fill="#333333" cx="289.139" cy="749.519" rx="6.581" ry="4.946"/>
			<circle fill="#333333" cx="298.346" cy="749.518" r="3.598"/>
		</g>
		<g>
			<polygon fill="#999999" points="339.142,757.33 336.796,751.072 337.681,750.811 340.025,757.069 			"/>
			<polygon fill="#999999" points="342.155,760.492 339.142,757.33 339.93,756.772 342.841,759.876 			"/>
			<polygon fill="#999999" points="334.519,757.252 335.224,750.687 336.143,750.765 335.437,757.331 			"/>
			<polygon fill="#999999" points="336.178,761.294 334.519,757.252 335.446,757 337.04,760.969 			"/>
			<polygon fill="#999999" points="330.577,756.826 333.521,750.77 334.383,751.098 331.438,757.152 			"/>
			<polygon fill="#999999" points="331.066,761.168 330.577,756.826 331.553,756.857 331.984,761.09 			"/>
			<polygon fill="#999999" points="339.142,742.033 336.796,748.291 337.681,748.551 340.025,742.293 			"/>
			<polygon fill="#999999" points="342.155,738.87 339.142,742.033 339.93,742.59 342.841,739.486 			"/>
			<polygon fill="#999999" points="334.519,742.11 335.224,748.676 336.143,748.598 335.437,742.032 			"/>
			<polygon fill="#999999" points="336.178,738.068 334.519,742.11 335.446,742.363 337.04,738.395 			"/>
			<polygon fill="#999999" points="330.577,742.537 333.521,748.593 334.383,748.266 331.438,742.21 			"/>
			<polygon fill="#999999" points="331.066,738.195 330.577,742.537 331.553,742.505 331.984,738.271 			"/>
			
				<rect x="343.762" y="746.14" transform="matrix(0.7061 -0.7082 0.7082 0.7061 -426.9852 464.54)" fill="#999999" width="4.628" height="0.923"/>
			
				<rect x="343.762" y="751.597" transform="matrix(0.7061 0.7082 -0.7082 0.7061 634.3066 -24.0107)" fill="#999999" width="4.628" height="0.922"/>
			<circle fill="#333333" cx="342.303" cy="749.519" r="3.993"/>
			<ellipse fill="#333333" cx="326.274" cy="749.519" rx="6.58" ry="4.946"/>
			<circle fill="#333333" cx="335.482" cy="749.518" r="3.598"/>
		</g>
		<g>
			<polygon fill="#999999" points="376.276,757.33 373.931,751.072 374.815,750.811 377.161,757.069 			"/>
			<polygon fill="#999999" points="379.292,760.492 376.276,757.33 377.065,756.772 379.976,759.876 			"/>
			<polygon fill="#999999" points="371.653,757.252 372.358,750.687 373.278,750.765 372.571,757.331 			"/>
			<polygon fill="#999999" points="373.313,761.294 371.653,757.252 372.581,757 374.175,760.969 			"/>
			<polygon fill="#999999" points="367.714,756.826 370.657,750.77 371.519,751.098 368.573,757.152 			"/>
			<polygon fill="#999999" points="368.202,761.168 367.714,756.826 368.688,756.857 369.12,761.09 			"/>
			<polygon fill="#999999" points="376.276,742.033 373.931,748.291 374.815,748.551 377.161,742.293 			"/>
			<polygon fill="#999999" points="379.292,738.87 376.276,742.033 377.065,742.59 379.976,739.486 			"/>
			<polygon fill="#999999" points="371.653,742.11 372.358,748.676 373.278,748.598 372.571,742.032 			"/>
			<polygon fill="#999999" points="373.313,738.068 371.653,742.11 372.581,742.363 374.175,738.395 			"/>
			<polygon fill="#999999" points="367.714,742.537 370.657,748.593 371.519,748.266 368.573,742.21 			"/>
			<polygon fill="#999999" points="368.202,738.195 367.714,742.537 368.688,742.505 369.12,738.271 			"/>
			
				<rect x="380.897" y="746.14" transform="matrix(0.7063 -0.708 0.708 0.7063 -415.9926 490.5996)" fill="#999999" width="4.629" height="0.922"/>
			
				<rect x="380.897" y="751.597" transform="matrix(0.7063 0.708 -0.708 0.7063 644.983 -50.3873)" fill="#999999" width="4.629" height="0.921"/>
			<circle fill="#333333" cx="379.438" cy="749.519" r="3.993"/>
			<ellipse fill="#333333" cx="363.411" cy="749.519" rx="6.582" ry="4.946"/>
			<circle fill="#333333" cx="372.618" cy="749.518" r="3.598"/>
		</g>
		<g>
			<polygon fill="#999999" points="413.413,757.33 411.067,751.072 411.952,750.811 414.297,757.069 			"/>
			<polygon fill="#999999" points="416.427,760.492 413.413,757.33 414.201,756.772 417.112,759.876 			"/>
			<polygon fill="#999999" points="408.79,757.252 409.495,750.687 410.414,750.765 409.708,757.331 			"/>
			<polygon fill="#999999" points="410.449,761.294 408.79,757.252 409.718,757 411.312,760.969 			"/>
			<polygon fill="#999999" points="404.849,756.826 407.792,750.77 408.654,751.098 405.71,757.152 			"/>
			<polygon fill="#999999" points="405.338,761.168 404.849,756.826 405.824,756.857 406.256,761.09 			"/>
			<polygon fill="#999999" points="413.413,742.033 411.067,748.291 411.952,748.551 414.297,742.293 			"/>
			<polygon fill="#999999" points="416.427,738.87 413.413,742.033 414.201,742.59 417.112,739.486 			"/>
			<polygon fill="#999999" points="408.79,742.11 409.495,748.676 410.414,748.598 409.708,742.032 			"/>
			<polygon fill="#999999" points="410.449,738.068 408.79,742.11 409.718,742.363 411.312,738.395 			"/>
			<polygon fill="#999999" points="404.849,742.537 407.792,748.593 408.654,748.266 405.71,742.21 			"/>
			<polygon fill="#999999" points="405.338,738.195 404.849,742.537 405.824,742.505 406.256,738.271 			"/>
			
				<rect x="418.033" y="746.14" transform="matrix(0.7061 -0.7082 0.7082 0.7061 -405.1531 517.1362)" fill="#999999" width="4.628" height="0.923"/>
			
				<rect x="418.033" y="751.597" transform="matrix(0.7061 0.7082 -0.7082 0.7061 656.1386 -76.6068)" fill="#999999" width="4.628" height="0.922"/>
			<circle fill="#333333" cx="416.574" cy="749.519" r="3.993"/>
			<ellipse fill="#333333" cx="400.546" cy="749.519" rx="6.58" ry="4.946"/>
			<circle fill="#333333" cx="409.754" cy="749.518" r="3.598"/>
		</g>
		<g>
			<polygon fill="#999999" points="450.549,757.33 448.204,751.072 449.088,750.811 451.433,757.069 			"/>
			<polygon fill="#999999" points="453.563,760.492 450.549,757.33 451.337,756.772 454.248,759.876 			"/>
			<polygon fill="#999999" points="445.926,757.252 446.631,750.687 447.55,750.765 446.844,757.331 			"/>
			<polygon fill="#999999" points="447.585,761.294 445.926,757.252 446.854,757 448.448,760.969 			"/>
			<polygon fill="#999999" points="441.985,756.826 444.929,750.77 445.79,751.098 442.847,757.152 			"/>
			<polygon fill="#999999" points="442.474,761.168 441.985,756.826 442.96,756.857 443.393,761.09 			"/>
			<polygon fill="#999999" points="450.549,742.033 448.204,748.291 449.088,748.551 451.433,742.293 			"/>
			<polygon fill="#999999" points="453.563,738.87 450.549,742.033 451.337,742.59 454.248,739.486 			"/>
			<polygon fill="#999999" points="445.926,742.11 446.631,748.676 447.55,748.598 446.844,742.032 			"/>
			<polygon fill="#999999" points="447.585,738.068 445.926,742.11 446.854,742.363 448.448,738.395 			"/>
			<polygon fill="#999999" points="441.985,742.537 444.929,748.593 445.79,748.266 442.847,742.21 			"/>
			<polygon fill="#999999" points="442.474,738.195 441.985,742.537 442.96,742.505 443.393,738.271 			"/>
			
				<rect x="455.169" y="746.14" transform="matrix(0.7062 -0.7081 0.7081 0.7062 -394.2066 543.3074)" fill="#999999" width="4.629" height="0.923"/>
			
				<rect x="455.169" y="751.597" transform="matrix(0.7062 0.7081 -0.7081 0.7062 666.927 -102.9366)" fill="#999999" width="4.629" height="0.922"/>
			<circle fill="#333333" cx="453.71" cy="749.519" r="3.993"/>
			<ellipse fill="#333333" cx="437.683" cy="749.519" rx="6.581" ry="4.946"/>
			<circle fill="#333333" cx="446.89" cy="749.518" r="3.598"/>
		</g>
		<g>
			<polygon fill="#999999" points="487.686,757.33 485.34,751.072 486.225,750.811 488.569,757.069 			"/>
			<polygon fill="#999999" points="490.699,760.492 487.686,757.33 488.474,756.772 491.385,759.876 			"/>
			<polygon fill="#999999" points="483.062,757.252 483.768,750.687 484.687,750.765 483.98,757.331 			"/>
			<polygon fill="#999999" points="484.722,761.294 483.062,757.252 483.99,757 485.584,760.969 			"/>
			<polygon fill="#999999" points="479.121,756.826 482.064,750.77 482.927,751.098 479.982,757.152 			"/>
			<polygon fill="#999999" points="479.61,761.168 479.121,756.826 480.097,756.857 480.528,761.09 			"/>
			<polygon fill="#999999" points="487.686,742.033 485.34,748.291 486.225,748.551 488.569,742.293 			"/>
			<polygon fill="#999999" points="490.699,738.87 487.686,742.033 488.474,742.59 491.385,739.486 			"/>
			<polygon fill="#999999" points="483.062,742.11 483.768,748.676 484.687,748.598 483.98,742.032 			"/>
			<polygon fill="#999999" points="484.722,738.068 483.062,742.11 483.99,742.363 485.584,738.395 			"/>
			<polygon fill="#999999" points="479.121,742.537 482.064,748.593 482.927,748.266 479.982,742.21 			"/>
			<polygon fill="#999999" points="479.61,738.195 479.121,742.537 480.097,742.505 480.528,738.271 			"/>
			
				<rect x="492.306" y="746.14" transform="matrix(0.7061 -0.7082 0.7082 0.7061 -383.3208 569.733)" fill="#999999" width="4.628" height="0.923"/>
			
				<rect x="492.306" y="751.597" transform="matrix(0.7061 0.7082 -0.7082 0.7061 677.9709 -129.2037)" fill="#999999" width="4.628" height="0.922"/>
			<circle fill="#333333" cx="490.847" cy="749.519" r="3.993"/>
			<ellipse fill="#333333" cx="474.818" cy="749.519" rx="6.58" ry="4.946"/>
			<circle fill="#333333" cx="484.026" cy="749.518" r="3.598"/>
		</g>
	</g>
	<g>
		<g>
			<polygon fill="#999999" points="264.869,727.188 262.523,720.932 263.408,720.67 265.753,726.928 			"/>
			<polygon fill="#999999" points="267.883,730.352 264.869,727.188 265.657,726.631 268.568,729.734 			"/>
			<polygon fill="#999999" points="260.246,727.111 260.951,720.545 261.87,720.623 261.164,727.189 			"/>
			<polygon fill="#999999" points="261.905,731.152 260.246,727.111 261.174,726.857 262.768,730.826 			"/>
			<polygon fill="#999999" points="256.305,726.684 259.248,720.629 260.11,720.955 257.166,727.012 			"/>
			<polygon fill="#999999" points="256.794,731.025 256.305,726.684 257.28,726.717 257.712,730.949 			"/>
			<polygon fill="#999999" points="264.869,711.893 262.523,718.148 263.408,718.41 265.753,712.152 			"/>
			<polygon fill="#999999" points="267.883,708.729 264.869,711.893 265.657,712.449 268.568,709.346 			"/>
			<polygon fill="#999999" points="260.246,711.969 260.951,718.535 261.87,718.457 261.164,711.891 			"/>
			<polygon fill="#999999" points="261.905,707.928 260.246,711.969 261.174,712.221 262.768,708.254 			"/>
			<polygon fill="#999999" points="256.305,712.395 259.248,718.451 260.11,718.125 257.166,712.068 			"/>
			<polygon fill="#999999" points="256.794,708.053 256.305,712.395 257.28,712.363 257.712,708.131 			"/>
			
				<rect x="269.489" y="715.999" transform="matrix(0.7061 -0.7082 0.7082 0.7061 -427.4728 403.0832)" fill="#999999" width="4.628" height="0.922"/>
			
				<rect x="269.489" y="721.456" transform="matrix(0.7061 0.7082 -0.7082 0.7061 591.1298 19.7264)" fill="#999999" width="4.628" height="0.922"/>
			<circle fill="#333333" cx="268.03" cy="719.377" r="3.992"/>
			<ellipse fill="#333333" cx="252.002" cy="719.377" rx="6.58" ry="4.947"/>
			<circle fill="#333333" cx="261.21" cy="719.377" r="3.598"/>
		</g>
		<g>
			<polygon fill="#999999" points="302.005,727.188 299.66,720.932 300.544,720.67 302.889,726.928 			"/>
			<polygon fill="#999999" points="305.02,730.352 302.005,727.188 302.793,726.631 305.704,729.734 			"/>
			<polygon fill="#999999" points="297.382,727.111 298.087,720.545 299.006,720.623 298.3,727.189 			"/>
			<polygon fill="#999999" points="299.041,731.152 297.382,727.111 298.31,726.857 299.904,730.826 			"/>
			<polygon fill="#999999" points="293.441,726.684 296.385,720.629 297.246,720.955 294.303,727.012 			"/>
			<polygon fill="#999999" points="293.93,731.025 293.441,726.684 294.416,726.717 294.849,730.949 			"/>
			<polygon fill="#999999" points="302.005,711.893 299.66,718.148 300.544,718.41 302.889,712.152 			"/>
			<polygon fill="#999999" points="305.02,708.729 302.005,711.893 302.793,712.449 305.704,709.346 			"/>
			<polygon fill="#999999" points="297.382,711.969 298.087,718.535 299.006,718.457 298.3,711.891 			"/>
			<polygon fill="#999999" points="299.041,707.928 297.382,711.969 298.31,712.221 299.904,708.254 			"/>
			<polygon fill="#999999" points="293.441,712.395 296.385,718.451 297.246,718.125 294.303,712.068 			"/>
			<polygon fill="#999999" points="293.93,708.053 293.441,712.395 294.416,712.363 294.849,708.131 			"/>
			
				<rect x="306.625" y="715.999" transform="matrix(0.7062 -0.7081 0.7081 0.7062 -416.5137 429.2733)" fill="#999999" width="4.629" height="0.922"/>
			
				<rect x="306.625" y="721.456" transform="matrix(0.7062 0.7081 -0.7081 0.7062 601.9371 -6.6158)" fill="#999999" width="4.629" height="0.922"/>
			<circle fill="#333333" cx="305.166" cy="719.377" r="3.992"/>
			<ellipse fill="#333333" cx="289.139" cy="719.377" rx="6.581" ry="4.947"/>
			<circle fill="#333333" cx="298.346" cy="719.377" r="3.598"/>
		</g>
		<g>
			<polygon fill="#999999" points="339.142,727.188 336.796,720.932 337.681,720.67 340.025,726.928 			"/>
			<polygon fill="#999999" points="342.155,730.352 339.142,727.188 339.93,726.631 342.841,729.734 			"/>
			<polygon fill="#999999" points="334.519,727.111 335.224,720.545 336.143,720.623 335.437,727.189 			"/>
			<polygon fill="#999999" points="336.178,731.152 334.519,727.111 335.446,726.857 337.04,730.826 			"/>
			<polygon fill="#999999" points="330.577,726.684 333.521,720.629 334.383,720.955 331.438,727.012 			"/>
			<polygon fill="#999999" points="331.066,731.025 330.577,726.684 331.553,726.717 331.984,730.949 			"/>
			<polygon fill="#999999" points="339.142,711.893 336.796,718.148 337.681,718.41 340.025,712.152 			"/>
			<polygon fill="#999999" points="342.155,708.729 339.142,711.893 339.93,712.449 342.841,709.346 			"/>
			<polygon fill="#999999" points="334.519,711.969 335.224,718.535 336.143,718.457 335.437,711.891 			"/>
			<polygon fill="#999999" points="336.178,707.928 334.519,711.969 335.446,712.221 337.04,708.254 			"/>
			<polygon fill="#999999" points="330.577,712.395 333.521,718.451 334.383,718.125 331.438,712.068 			"/>
			<polygon fill="#999999" points="331.066,708.053 330.577,712.395 331.553,712.363 331.984,708.131 			"/>
			
				<rect x="343.762" y="715.999" transform="matrix(0.7061 -0.7082 0.7082 0.7061 -405.6404 455.6801)" fill="#999999" width="4.628" height="0.922"/>
			
				<rect x="343.762" y="721.456" transform="matrix(0.7061 0.7082 -0.7082 0.7061 612.9621 -32.8705)" fill="#999999" width="4.628" height="0.922"/>
			<circle fill="#333333" cx="342.303" cy="719.377" r="3.992"/>
			<ellipse fill="#333333" cx="326.274" cy="719.377" rx="6.58" ry="4.947"/>
			<circle fill="#333333" cx="335.482" cy="719.377" r="3.598"/>
		</g>
		<g>
			<polygon fill="#999999" points="376.276,727.188 373.931,720.932 374.815,720.67 377.161,726.928 			"/>
			<polygon fill="#999999" points="379.292,730.352 376.276,727.188 377.065,726.631 379.976,729.734 			"/>
			<polygon fill="#999999" points="371.653,727.111 372.358,720.545 373.278,720.623 372.571,727.189 			"/>
			<polygon fill="#999999" points="373.313,731.152 371.653,727.111 372.581,726.857 374.175,730.826 			"/>
			<polygon fill="#999999" points="367.714,726.684 370.657,720.629 371.519,720.955 368.573,727.012 			"/>
			<polygon fill="#999999" points="368.202,731.025 367.714,726.684 368.688,726.717 369.12,730.949 			"/>
			<polygon fill="#999999" points="376.276,711.893 373.931,718.148 374.815,718.41 377.161,712.152 			"/>
			<polygon fill="#999999" points="379.292,708.729 376.276,711.893 377.065,712.449 379.976,709.346 			"/>
			<polygon fill="#999999" points="371.653,711.969 372.358,718.535 373.278,718.457 372.571,711.891 			"/>
			<polygon fill="#999999" points="373.313,707.928 371.653,711.969 372.581,712.221 374.175,708.254 			"/>
			<polygon fill="#999999" points="367.714,712.395 370.657,718.451 371.519,718.125 368.573,712.068 			"/>
			<polygon fill="#999999" points="368.202,708.053 367.714,712.395 368.688,712.363 369.12,708.131 			"/>
			
				<rect x="380.897" y="715.999" transform="matrix(0.7063 -0.708 0.708 0.7063 -394.6542 481.7461)" fill="#999999" width="4.629" height="0.921"/>
			
				<rect x="380.897" y="721.456" transform="matrix(0.7063 0.708 -0.708 0.7063 623.6449 -59.2408)" fill="#999999" width="4.629" height="0.921"/>
			<circle fill="#333333" cx="379.438" cy="719.377" r="3.992"/>
			<ellipse fill="#333333" cx="363.411" cy="719.377" rx="6.582" ry="4.947"/>
			<circle fill="#333333" cx="372.618" cy="719.377" r="3.598"/>
		</g>
		<g>
			<polygon fill="#999999" points="413.413,727.188 411.067,720.932 411.952,720.67 414.297,726.928 			"/>
			<polygon fill="#999999" points="416.427,730.352 413.413,727.188 414.201,726.631 417.112,729.734 			"/>
			<polygon fill="#999999" points="408.79,727.111 409.495,720.545 410.414,720.623 409.708,727.189 			"/>
			<polygon fill="#999999" points="410.449,731.152 408.79,727.111 409.718,726.857 411.312,730.826 			"/>
			<polygon fill="#999999" points="404.849,726.684 407.792,720.629 408.654,720.955 405.71,727.012 			"/>
			<polygon fill="#999999" points="405.338,731.025 404.849,726.684 405.824,726.717 406.256,730.949 			"/>
			<polygon fill="#999999" points="413.413,711.893 411.067,718.148 411.952,718.41 414.297,712.152 			"/>
			<polygon fill="#999999" points="416.427,708.729 413.413,711.893 414.201,712.449 417.112,709.346 			"/>
			<polygon fill="#999999" points="408.79,711.969 409.495,718.535 410.414,718.457 409.708,711.891 			"/>
			<polygon fill="#999999" points="410.449,707.928 408.79,711.969 409.718,712.221 411.312,708.254 			"/>
			<polygon fill="#999999" points="404.849,712.395 407.792,718.451 408.654,718.125 405.71,712.068 			"/>
			<polygon fill="#999999" points="405.338,708.053 404.849,712.395 405.824,712.363 406.256,708.131 			"/>
			
				<rect x="418.033" y="715.999" transform="matrix(0.7061 -0.7082 0.7082 0.7061 -383.8083 508.2762)" fill="#999999" width="4.628" height="0.922"/>
			
				<rect x="418.033" y="721.456" transform="matrix(0.7061 0.7082 -0.7082 0.7061 634.7942 -85.4667)" fill="#999999" width="4.628" height="0.922"/>
			<circle fill="#333333" cx="416.574" cy="719.377" r="3.992"/>
			<ellipse fill="#333333" cx="400.546" cy="719.377" rx="6.58" ry="4.947"/>
			<circle fill="#333333" cx="409.754" cy="719.377" r="3.598"/>
		</g>
		<g>
			<polygon fill="#999999" points="450.549,727.188 448.204,720.932 449.088,720.67 451.433,726.928 			"/>
			<polygon fill="#999999" points="453.563,730.352 450.549,727.188 451.337,726.631 454.248,729.734 			"/>
			<polygon fill="#999999" points="445.926,727.111 446.631,720.545 447.55,720.623 446.844,727.189 			"/>
			<polygon fill="#999999" points="447.585,731.152 445.926,727.111 446.854,726.857 448.448,730.826 			"/>
			<polygon fill="#999999" points="441.985,726.684 444.929,720.629 445.79,720.955 442.847,727.012 			"/>
			<polygon fill="#999999" points="442.474,731.025 441.985,726.684 442.96,726.717 443.393,730.949 			"/>
			<polygon fill="#999999" points="450.549,711.893 448.204,718.148 449.088,718.41 451.433,712.152 			"/>
			<polygon fill="#999999" points="453.563,708.729 450.549,711.893 451.337,712.449 454.248,709.346 			"/>
			<polygon fill="#999999" points="445.926,711.969 446.631,718.535 447.55,718.457 446.844,711.891 			"/>
			<polygon fill="#999999" points="447.585,707.928 445.926,711.969 446.854,712.221 448.448,708.254 			"/>
			<polygon fill="#999999" points="441.985,712.395 444.929,718.451 445.79,718.125 442.847,712.068 			"/>
			<polygon fill="#999999" points="442.474,708.053 441.985,712.395 442.96,712.363 443.393,708.131 			"/>
			
				<rect x="455.169" y="715.999" transform="matrix(0.7062 -0.7081 0.7081 0.7062 -372.8651 534.4506)" fill="#999999" width="4.629" height="0.922"/>
			
				<rect x="455.169" y="721.456" transform="matrix(0.7062 0.7081 -0.7081 0.7062 645.5858 -111.7932)" fill="#999999" width="4.629" height="0.922"/>
			<circle fill="#333333" cx="453.71" cy="719.377" r="3.992"/>
			<ellipse fill="#333333" cx="437.683" cy="719.377" rx="6.581" ry="4.947"/>
			<circle fill="#333333" cx="446.89" cy="719.377" r="3.598"/>
		</g>
		<g>
			<polygon fill="#999999" points="487.686,727.188 485.34,720.932 486.225,720.67 488.569,726.928 			"/>
			<polygon fill="#999999" points="490.699,730.352 487.686,727.188 488.474,726.631 491.385,729.734 			"/>
			<polygon fill="#999999" points="483.062,727.111 483.768,720.545 484.687,720.623 483.98,727.189 			"/>
			<polygon fill="#999999" points="484.722,731.152 483.062,727.111 483.99,726.857 485.584,730.826 			"/>
			<polygon fill="#999999" points="479.121,726.684 482.064,720.629 482.927,720.955 479.982,727.012 			"/>
			<polygon fill="#999999" points="479.61,731.025 479.121,726.684 480.097,726.717 480.528,730.949 			"/>
			<polygon fill="#999999" points="487.686,711.893 485.34,718.148 486.225,718.41 488.569,712.152 			"/>
			<polygon fill="#999999" points="490.699,708.729 487.686,711.893 488.474,712.449 491.385,709.346 			"/>
			<polygon fill="#999999" points="483.062,711.969 483.768,718.535 484.687,718.457 483.98,711.891 			"/>
			<polygon fill="#999999" points="484.722,707.928 483.062,711.969 483.99,712.221 485.584,708.254 			"/>
			<polygon fill="#999999" points="479.121,712.395 482.064,718.451 482.927,718.125 479.982,712.068 			"/>
			<polygon fill="#999999" points="479.61,708.053 479.121,712.395 480.097,712.363 480.528,708.131 			"/>
			
				<rect x="492.306" y="715.999" transform="matrix(0.7061 -0.7082 0.7082 0.7061 -361.9761 560.8731)" fill="#999999" width="4.628" height="0.922"/>
			
				<rect x="492.306" y="721.456" transform="matrix(0.7061 0.7082 -0.7082 0.7061 656.6265 -138.0635)" fill="#999999" width="4.628" height="0.922"/>
			<circle fill="#333333" cx="490.847" cy="719.377" r="3.992"/>
			<ellipse fill="#333333" cx="474.818" cy="719.377" rx="6.58" ry="4.947"/>
			<circle fill="#333333" cx="484.026" cy="719.377" r="3.598"/>
		</g>
	</g>
	<g>
		<g>
			<polygon fill="#999999" points="264.869,697.047 262.523,690.79 263.408,690.529 265.753,696.787 			"/>
			<polygon fill="#999999" points="267.883,700.21 264.869,697.047 265.657,696.49 268.568,699.594 			"/>
			<polygon fill="#999999" points="260.246,696.97 260.951,690.404 261.87,690.482 261.164,697.049 			"/>
			<polygon fill="#999999" points="261.905,701.012 260.246,696.97 261.174,696.717 262.768,700.686 			"/>
			<polygon fill="#999999" points="256.305,696.543 259.248,690.487 260.11,690.814 257.166,696.871 			"/>
			<polygon fill="#999999" points="256.794,700.885 256.305,696.543 257.28,696.575 257.712,700.809 			"/>
			<polygon fill="#999999" points="264.869,681.751 262.523,688.008 263.408,688.27 265.753,682.012 			"/>
			<polygon fill="#999999" points="267.883,678.588 264.869,681.751 265.657,682.308 268.568,679.204 			"/>
			<polygon fill="#999999" points="260.246,681.828 260.951,688.394 261.87,688.315 261.164,681.75 			"/>
			<polygon fill="#999999" points="261.905,677.786 260.246,681.828 261.174,682.08 262.768,678.112 			"/>
			<polygon fill="#999999" points="256.305,682.254 259.248,688.311 260.11,687.983 257.166,681.928 			"/>
			<polygon fill="#999999" points="256.794,677.912 256.305,682.254 257.28,682.223 257.712,677.99 			"/>
			
				<rect x="269.489" y="685.858" transform="matrix(0.7061 -0.7082 0.7082 0.7061 -406.128 394.2233)" fill="#999999" width="4.628" height="0.923"/>
			
				<rect x="269.49" y="691.315" transform="matrix(0.7062 0.7081 -0.7081 0.7062 569.6836 10.822)" fill="#999999" width="4.627" height="0.922"/>
			<circle fill="#333333" cx="268.03" cy="689.236" r="3.993"/>
			<ellipse fill="#333333" cx="252.002" cy="689.236" rx="6.58" ry="4.947"/>
			<circle fill="#333333" cx="261.21" cy="689.236" r="3.598"/>
		</g>
		<g>
			<polygon fill="#999999" points="302.005,697.047 299.66,690.79 300.544,690.529 302.889,696.787 			"/>
			<polygon fill="#999999" points="305.02,700.21 302.005,697.047 302.793,696.49 305.704,699.594 			"/>
			<polygon fill="#999999" points="297.382,696.97 298.087,690.404 299.006,690.482 298.3,697.049 			"/>
			<polygon fill="#999999" points="299.041,701.012 297.382,696.97 298.31,696.717 299.904,700.686 			"/>
			<polygon fill="#999999" points="293.441,696.543 296.385,690.487 297.246,690.814 294.303,696.871 			"/>
			<polygon fill="#999999" points="293.93,700.885 293.441,696.543 294.416,696.575 294.849,700.809 			"/>
			<polygon fill="#999999" points="302.005,681.751 299.66,688.008 300.544,688.27 302.889,682.012 			"/>
			<polygon fill="#999999" points="305.02,678.588 302.005,681.751 302.793,682.308 305.704,679.204 			"/>
			<polygon fill="#999999" points="297.382,681.828 298.087,688.394 299.006,688.315 298.3,681.75 			"/>
			<polygon fill="#999999" points="299.041,677.786 297.382,681.828 298.31,682.08 299.904,678.112 			"/>
			<polygon fill="#999999" points="293.441,682.254 296.385,688.311 297.246,687.983 294.303,681.928 			"/>
			<polygon fill="#999999" points="293.93,677.912 293.441,682.254 294.416,682.223 294.849,677.99 			"/>
			
				<rect x="306.625" y="685.858" transform="matrix(0.7062 -0.7081 0.7081 0.7062 -395.1721 420.4164)" fill="#999999" width="4.629" height="0.923"/>
			
				<rect x="306.625" y="691.315" transform="matrix(0.7063 0.708 -0.708 0.7063 580.4902 -15.5131)" fill="#999999" width="4.628" height="0.922"/>
			<circle fill="#333333" cx="305.166" cy="689.236" r="3.993"/>
			<ellipse fill="#333333" cx="289.139" cy="689.236" rx="6.581" ry="4.947"/>
			<circle fill="#333333" cx="298.346" cy="689.236" r="3.598"/>
		</g>
		<g>
			<polygon fill="#999999" points="339.142,697.047 336.796,690.79 337.681,690.529 340.025,696.787 			"/>
			<polygon fill="#999999" points="342.155,700.21 339.142,697.047 339.93,696.49 342.841,699.594 			"/>
			<polygon fill="#999999" points="334.519,696.97 335.224,690.404 336.143,690.482 335.437,697.049 			"/>
			<polygon fill="#999999" points="336.178,701.012 334.519,696.97 335.446,696.717 337.04,700.686 			"/>
			<polygon fill="#999999" points="330.577,696.543 333.521,690.487 334.383,690.814 331.438,696.871 			"/>
			<polygon fill="#999999" points="331.066,700.885 330.577,696.543 331.553,696.575 331.984,700.809 			"/>
			<polygon fill="#999999" points="339.142,681.751 336.796,688.008 337.681,688.27 340.025,682.012 			"/>
			<polygon fill="#999999" points="342.155,678.588 339.142,681.751 339.93,682.308 342.841,679.204 			"/>
			<polygon fill="#999999" points="334.519,681.828 335.224,688.394 336.143,688.315 335.437,681.75 			"/>
			<polygon fill="#999999" points="336.178,677.786 334.519,681.828 335.446,682.08 337.04,678.112 			"/>
			<polygon fill="#999999" points="330.577,682.254 333.521,688.311 334.383,687.983 331.438,681.928 			"/>
			<polygon fill="#999999" points="331.066,677.912 330.577,682.254 331.553,682.223 331.984,677.99 			"/>
			
				<rect x="343.762" y="685.858" transform="matrix(0.7061 -0.7082 0.7082 0.7061 -384.2957 446.8201)" fill="#999999" width="4.628" height="0.923"/>
			
				<rect x="343.762" y="691.315" transform="matrix(0.7062 0.7081 -0.7081 0.7062 591.5081 -41.767)" fill="#999999" width="4.627" height="0.922"/>
			<circle fill="#333333" cx="342.303" cy="689.236" r="3.993"/>
			<ellipse fill="#333333" cx="326.274" cy="689.236" rx="6.58" ry="4.947"/>
			<circle fill="#333333" cx="335.482" cy="689.236" r="3.598"/>
		</g>
		<g>
			<polygon fill="#999999" points="413.413,697.047 411.067,690.79 411.952,690.529 414.297,696.787 			"/>
			<polygon fill="#999999" points="416.427,700.21 413.413,697.047 414.201,696.49 417.112,699.594 			"/>
			<polygon fill="#999999" points="408.79,696.97 409.495,690.404 410.414,690.482 409.708,697.049 			"/>
			<polygon fill="#999999" points="410.449,701.012 408.79,696.97 409.718,696.717 411.312,700.686 			"/>
			<polygon fill="#999999" points="404.849,696.543 407.792,690.487 408.654,690.814 405.71,696.871 			"/>
			<polygon fill="#999999" points="405.338,700.885 404.849,696.543 405.824,696.575 406.256,700.809 			"/>
			<polygon fill="#999999" points="413.413,681.751 411.067,688.008 411.952,688.27 414.297,682.012 			"/>
			<polygon fill="#999999" points="416.427,678.588 413.413,681.751 414.201,682.308 417.112,679.204 			"/>
			<polygon fill="#999999" points="408.79,681.828 409.495,688.394 410.414,688.315 409.708,681.75 			"/>
			<polygon fill="#999999" points="410.449,677.786 408.79,681.828 409.718,682.08 411.312,678.112 			"/>
			<polygon fill="#999999" points="404.849,682.254 407.792,688.311 408.654,687.983 405.71,681.928 			"/>
			<polygon fill="#999999" points="405.338,677.912 404.849,682.254 405.824,682.223 406.256,677.99 			"/>
			
				<rect x="418.033" y="685.858" transform="matrix(0.7061 -0.7082 0.7082 0.7061 -362.4636 499.4163)" fill="#999999" width="4.628" height="0.923"/>
			
				<rect x="418.034" y="691.315" transform="matrix(0.7062 0.7081 -0.7081 0.7062 613.3323 -94.3553)" fill="#999999" width="4.627" height="0.922"/>
			<circle fill="#333333" cx="416.574" cy="689.236" r="3.993"/>
			<ellipse fill="#333333" cx="400.546" cy="689.236" rx="6.58" ry="4.947"/>
			<circle fill="#333333" cx="409.754" cy="689.236" r="3.598"/>
		</g>
		<g>
			<polygon fill="#999999" points="450.549,697.047 448.204,690.79 449.088,690.529 451.433,696.787 			"/>
			<polygon fill="#999999" points="453.563,700.21 450.549,697.047 451.337,696.49 454.248,699.594 			"/>
			<polygon fill="#999999" points="445.926,696.97 446.631,690.404 447.55,690.482 446.844,697.049 			"/>
			<polygon fill="#999999" points="447.585,701.012 445.926,696.97 446.854,696.717 448.448,700.686 			"/>
			<polygon fill="#999999" points="441.985,696.543 444.929,690.487 445.79,690.814 442.847,696.871 			"/>
			<polygon fill="#999999" points="442.474,700.885 441.985,696.543 442.96,696.575 443.393,700.809 			"/>
			<polygon fill="#999999" points="450.549,681.751 448.204,688.008 449.088,688.27 451.433,682.012 			"/>
			<polygon fill="#999999" points="453.563,678.588 450.549,681.751 451.337,682.308 454.248,679.204 			"/>
			<polygon fill="#999999" points="445.926,681.828 446.631,688.394 447.55,688.315 446.844,681.75 			"/>
			<polygon fill="#999999" points="447.585,677.786 445.926,681.828 446.854,682.08 448.448,678.112 			"/>
			<polygon fill="#999999" points="441.985,682.254 444.929,688.311 445.79,687.983 442.847,681.928 			"/>
			<polygon fill="#999999" points="442.474,677.912 441.985,682.254 442.96,682.223 443.393,677.99 			"/>
			
				<rect x="455.169" y="685.858" transform="matrix(0.7062 -0.7081 0.7081 0.7062 -351.5234 525.5939)" fill="#999999" width="4.629" height="0.923"/>
			
				<rect x="455.169" y="691.315" transform="matrix(0.7063 0.708 -0.708 0.7063 624.1232 -120.6748)" fill="#999999" width="4.628" height="0.922"/>
			<circle fill="#333333" cx="453.71" cy="689.236" r="3.993"/>
			<ellipse fill="#333333" cx="437.683" cy="689.236" rx="6.581" ry="4.947"/>
			<circle fill="#333333" cx="446.89" cy="689.236" r="3.598"/>
		</g>
		<g>
			<polygon fill="#999999" points="487.686,697.047 485.34,690.79 486.225,690.529 488.569,696.787 			"/>
			<polygon fill="#999999" points="490.699,700.21 487.686,697.047 488.474,696.49 491.385,699.594 			"/>
			<polygon fill="#999999" points="483.062,696.97 483.768,690.404 484.687,690.482 483.98,697.049 			"/>
			<polygon fill="#999999" points="484.722,701.012 483.062,696.97 483.99,696.717 485.584,700.686 			"/>
			<polygon fill="#999999" points="479.121,696.543 482.064,690.487 482.927,690.814 479.982,696.871 			"/>
			<polygon fill="#999999" points="479.61,700.885 479.121,696.543 480.097,696.575 480.528,700.809 			"/>
			<polygon fill="#999999" points="487.686,681.751 485.34,688.008 486.225,688.27 488.569,682.012 			"/>
			<polygon fill="#999999" points="490.699,678.588 487.686,681.751 488.474,682.308 491.385,679.204 			"/>
			<polygon fill="#999999" points="483.062,681.828 483.768,688.394 484.687,688.315 483.98,681.75 			"/>
			<polygon fill="#999999" points="484.722,677.786 483.062,681.828 483.99,682.08 485.584,678.112 			"/>
			<polygon fill="#999999" points="479.121,682.254 482.064,688.311 482.927,687.983 479.982,681.928 			"/>
			<polygon fill="#999999" points="479.61,677.912 479.121,682.254 480.097,682.223 480.528,677.99 			"/>
			
				<rect x="492.306" y="685.858" transform="matrix(0.7061 -0.7082 0.7082 0.7061 -340.6313 552.0132)" fill="#999999" width="4.628" height="0.923"/>
			
				<rect x="492.306" y="691.315" transform="matrix(0.7062 0.7081 -0.7081 0.7062 635.1567 -146.9445)" fill="#999999" width="4.627" height="0.922"/>
			<circle fill="#333333" cx="490.847" cy="689.236" r="3.993"/>
			<ellipse fill="#333333" cx="474.818" cy="689.236" rx="6.58" ry="4.947"/>
			<circle fill="#333333" cx="484.026" cy="689.236" r="3.598"/>
		</g>
		<g>
			<polygon fill="#999999" points="376.276,697.047 373.931,690.79 374.815,690.529 377.161,696.787 			"/>
			<polygon fill="#999999" points="379.292,700.21 376.276,697.047 377.065,696.49 379.976,699.594 			"/>
			<polygon fill="#999999" points="371.653,696.97 372.358,690.404 373.278,690.482 372.571,697.049 			"/>
			<polygon fill="#999999" points="373.313,701.012 371.653,696.97 372.581,696.717 374.175,700.686 			"/>
			<polygon fill="#999999" points="367.714,696.543 370.657,690.487 371.519,690.814 368.573,696.871 			"/>
			<polygon fill="#999999" points="368.202,700.885 367.714,696.543 368.688,696.575 369.12,700.809 			"/>
			<polygon fill="#999999" points="376.276,681.751 373.931,688.008 374.815,688.27 377.161,682.012 			"/>
			<polygon fill="#999999" points="379.292,678.588 376.276,681.751 377.065,682.308 379.976,679.204 			"/>
			<polygon fill="#999999" points="371.653,681.828 372.358,688.394 373.278,688.315 372.571,681.75 			"/>
			<polygon fill="#999999" points="373.313,677.786 371.653,681.828 372.581,682.08 374.175,678.112 			"/>
			<polygon fill="#999999" points="367.714,682.254 370.657,688.311 371.519,687.983 368.573,681.928 			"/>
			<polygon fill="#999999" points="368.202,677.912 367.714,682.254 368.688,682.223 369.12,677.99 			"/>
			
				<rect x="380.897" y="685.858" transform="matrix(0.7063 -0.708 0.708 0.7063 -373.3157 472.8925)" fill="#999999" width="4.629" height="0.922"/>
			
				<rect x="380.898" y="691.315" transform="matrix(0.7064 0.7078 -0.7078 0.7064 602.1932 -68.127)" fill="#999999" width="4.629" height="0.921"/>
			<circle fill="#333333" cx="379.438" cy="689.236" r="3.993"/>
			<ellipse fill="#333333" cx="363.411" cy="689.236" rx="6.582" ry="4.947"/>
			<circle fill="#333333" cx="372.618" cy="689.236" r="3.598"/>
		</g>
	</g>
</g>
</svg>
