<?xml version="1.0" encoding="utf-8"?>
<!-- Generator: Adobe Illustrator 16.0.0, SVG Export Plug-In . SVG Version: 6.00 Build 0)  -->
<!DOCTYPE svg PUBLIC "-//W3C//DTD SVG 1.1//EN" "http://www.w3.org/Graphics/SVG/1.1/DTD/svg11.dtd">
<svg version="1.1" id="Layer_1" xmlns="http://www.w3.org/2000/svg" xmlns:xlink="http://www.w3.org/1999/xlink" x="0px" y="0px"
	 viewBox="0 0 288.103 314.499" enable-background="new 0 0 288.103 314.499"
	 xml:space="preserve">
<g>
	<g>
		<circle fill="#E2E2E2" cx="145.475" cy="137.054" r="137.054"/>
		<g>
			<defs>
				<circle id="SVGID_1_" cx="145.475" cy="137.054" r="137.054"/>
			</defs>
			<clipPath id="SVGID_2_">
				<use xlink:href="#SVGID_1_"  overflow="visible"/>
			</clipPath>
			<g clip-path="url(#SVGID_2_)">
				<g>
					<path fill="#ADB867" d="M50.726,112.524l0.1-0.003c0,0,12.091-26.351,6.147-26.761c-5.941-0.41-18.854,14.67-22.954,14.566
						c-4.099-0.103-16.191-11.17-21.519-9.53c-4.791,1.475,7.477,18.351,10.002,21.739C11.564,122.087,0,139.157,0,151.253
						c0,24.186,18.346,30.333,36.002,30.333c17.658,0,37.367-6.56,37.367-31.972C73.37,137.681,61.947,121.657,50.726,112.524z"/>
					<path fill="#99A641" d="M50.726,112.524l0.1-0.003c0,0,12.091-26.351,6.147-26.761c-4.967-0.343-14.799,10.129-20.289,13.52
						v82.297c17.48-0.166,36.686-6.875,36.686-31.963C73.37,137.681,61.947,121.657,50.726,112.524z"/>
					<text transform="matrix(1 0 0 1 24.4116 161.501)" fill="#F0F2F4" font-family="'AmericanTypewriter'" font-size="43.0384">$</text>
					<path fill="none" stroke="#FFD20A" stroke-width="3" stroke-linecap="round" stroke-miterlimit="10" d="M22.502,113.767
						c3.319,3.059,24.027,3.064,28.224-0.014"/>
					<path fill="none" stroke="#FFE454" stroke-width="3" stroke-linecap="round" stroke-miterlimit="10" d="M22.502,111.923
						c3.319,3.059,24.027,3.062,28.224-0.014"/>
				</g>
				<g>
					<path fill="#ADB867" d="M265.46,115.909l0.098-0.003c0,0,12.092-26.353,6.148-26.761c-5.942-0.41-18.854,14.67-22.955,14.565
						c-4.098-0.102-16.19-11.169-21.518-9.53c-4.792,1.476,7.477,18.35,10.002,21.74c-10.938,9.551-22.503,26.621-22.503,38.717
						c0,24.184,18.347,30.332,36.003,30.332c17.658,0,37.367-6.56,37.367-31.971C288.103,141.063,276.68,125.042,265.46,115.909z"/>
					<path fill="#99A641" d="M265.46,115.909l0.098-0.003c0,0,12.092-26.353,6.148-26.761c-4.967-0.343-14.8,10.129-20.289,13.52
						v82.297c17.479-0.168,36.686-6.877,36.686-31.963C288.103,141.063,276.68,125.042,265.46,115.909z"/>
					<text transform="matrix(1 0 0 1 239.144 164.8867)" fill="#F0F2F4" font-family="'AmericanTypewriter'" font-size="43.0384">$</text>
					<path fill="none" stroke="#FFD20A" stroke-width="3" stroke-linecap="round" stroke-miterlimit="10" d="M237.236,117.151
						c3.318,3.059,24.026,3.062,28.225-0.015"/>
					<path fill="none" stroke="#FFE454" stroke-width="3" stroke-linecap="round" stroke-miterlimit="10" d="M237.236,115.308
						c3.318,3.059,24.026,3.062,28.225-0.015"/>
				</g>
				<g>
					<path fill="#ADB867" d="M228.244,165.181l0.117-0.004c0,0,14.231-31.016,7.235-31.497
						c-6.993-0.483-22.192,17.266-27.017,17.145c-4.824-0.12-19.058-13.146-25.328-11.218c-5.64,1.736,8.8,21.599,11.772,25.588
						c-12.874,11.241-26.485,31.332-26.485,45.57c0,28.465,21.594,35.701,42.375,35.701c20.783,0,43.982-7.721,43.982-37.629
						C254.896,194.788,241.451,175.93,228.244,165.181z"/>
					<path fill="#99A641" d="M228.244,165.181l0.117-0.004c0,0,14.231-31.016,7.235-31.497c-5.847-0.403-17.419,11.922-23.88,15.913
						v96.864c20.574-0.198,43.18-8.093,43.18-37.62C254.896,194.788,241.451,175.93,228.244,165.181z"/>
					<text transform="matrix(1 0 0 1 197.271 222.8281)" fill="#F0F2F4" font-family="'AmericanTypewriter'" font-size="50.6566">$</text>
					<path fill="none" stroke="#FFD20A" stroke-width="3" stroke-linecap="round" stroke-miterlimit="10" d="M195.024,166.643
						c3.905,3.601,28.28,3.605,33.22-0.017"/>
					<path fill="none" stroke="#FFE454" stroke-width="3" stroke-linecap="round" stroke-miterlimit="10" d="M195.024,164.472
						c3.905,3.602,28.28,3.605,33.22-0.016"/>
				</g>
				<g>
					<path fill="#ADB867" d="M92.174,165.181l0.117-0.004c0,0,14.232-31.016,7.236-31.497c-6.994-0.483-22.192,17.266-27.017,17.145
						c-4.824-0.12-19.057-13.146-25.328-11.218c-5.64,1.736,8.8,21.599,11.772,25.588c-12.874,11.241-26.485,31.332-26.485,45.57
						c0,28.465,21.594,35.701,42.375,35.701c20.784,0,43.981-7.721,43.981-37.629C118.825,194.788,105.381,175.93,92.174,165.181z"
						/>
					<path fill="#99A641" d="M92.174,165.181l0.117-0.004c0,0,14.232-31.016,7.236-31.497c-5.847-0.403-17.419,11.922-23.88,15.913
						v96.864c20.574-0.198,43.179-8.093,43.179-37.62C118.825,194.788,105.381,175.93,92.174,165.181z"/>
					<text transform="matrix(1 0 0 1 61.2017 222.8281)" fill="#F0F2F4" font-family="'AmericanTypewriter'" font-size="50.6566">$</text>
					<path fill="none" stroke="#FFD20A" stroke-width="3" stroke-linecap="round" stroke-miterlimit="10" d="M58.954,166.643
						c3.906,3.601,28.28,3.605,33.22-0.017"/>
					<path fill="none" stroke="#FFE454" stroke-width="3" stroke-linecap="round" stroke-miterlimit="10" d="M58.954,164.472
						c3.906,3.602,28.28,3.605,33.22-0.016"/>
				</g>
				<g>
					<g>
						<path fill="#EFBB93" d="M168.458,189.784c0-19.817-11.055-36.031-24.566-36.031s-24.567,16.214-24.567,36.031
							c0,19.816-15.477,36.03-34.393,36.03s-34.393,10.997-34.393,24.438c0,13.44,17.75,27.427,39.444,31.081
							c0,0,21.063,3.548,54.561,3.548c33.244,0,53.899-3.451,53.899-3.451c21.699-3.626,39.453-17.623,39.453-31.104
							s-15.624-24.512-34.72-24.512S168.458,209.601,168.458,189.784z"/>
					</g>
					<path fill="#EFBB93" d="M144.855,204.953c21-0.3,39.336-28.179,43.886-51.228c0.359,0.225,0.458,0.354,0.843,0.354
						c2.756,0,5.714-6.158,5.714-13.755c0-7.594-1.842-13.758-4.234-13.758l-0.634-7.342l-0.27,0.023
						c-0.668-23.459-18.914-40.75-41.199-43.75h-4.105V204.953z"/>
					<path fill="#F9CDA6" d="M144.855,204.953c-23-0.3-40.129-28.179-44.684-51.228c-0.355,0.225-0.848,0.354-1.229,0.354
						c-2.757,0-5.604-6.158-5.604-13.755c0-7.594,1.415-13.758,5.004-13.758l0.437-6.864l0,0
						c0.667-23.929,18.098-41.204,40.385-44.204h5.691V204.953z"/>
					<g>
						<path fill="#F9CDA6" d="M144.855,193.753c0-22-5.854-40-12.789-40c-6.937,0-12.7,16.214-12.7,36.031
							c0,19.816-15.521,36.03-34.437,36.03c-18.915,0-34.414,10.997-34.414,24.438c0,13.44,17.917,27.428,39.611,31.081
							c0,0,20.729,3.548,54.729,3.548V193.753z"/>
					</g>
					<path fill="#E6E6E6" d="M144.522,75.147c-51.028,0-46.412,51.42-46.412,51.42c9.581,0,15.47-25.072,15.47-25.072
						s37.813,6.934,60.302,0c0,0,9.258,25.072,17.15,25.072C191.033,126.567,195.75,75.147,144.522,75.147z"/>
					<path fill="#E6E6E6" d="M174.049,101.495c0,0,9.667,24.801,17.345,25.072c0,0,3.461-51.42-46.539-51.42v29.385
						C153.855,104.761,165.5,104.13,174.049,101.495z"/>
					<path fill="#F7F7F7" d="M144.522,210.033l-28.357-5.914c-0.048,0.169-0.113,0.356-0.187,0.552
						c-0.024,0.062-0.053,0.131-0.08,0.195c-0.055,0.14-0.115,0.282-0.182,0.432c-0.037,0.082-0.076,0.164-0.116,0.249
						c-0.069,0.147-0.144,0.298-0.223,0.454c-0.045,0.089-0.09,0.178-0.139,0.27c-0.091,0.172-0.19,0.352-0.292,0.532
						c-0.045,0.081-0.086,0.157-0.134,0.239c-0.152,0.262-0.313,0.531-0.487,0.809c-0.039,0.062-0.082,0.127-0.123,0.19
						c-0.14,0.22-0.283,0.442-0.435,0.671c-0.072,0.107-0.148,0.217-0.223,0.327c-0.131,0.19-0.264,0.384-0.402,0.578
						c-0.085,0.118-0.171,0.237-0.258,0.358c-0.143,0.197-0.291,0.396-0.442,0.596c-0.088,0.117-0.174,0.232-0.265,0.352
						c-0.183,0.235-0.373,0.475-0.565,0.716c-0.065,0.081-0.127,0.161-0.193,0.241c-0.259,0.318-0.527,0.639-0.803,0.959
						c-0.082,0.096-0.168,0.191-0.252,0.285c-0.201,0.23-0.406,0.463-0.616,0.692c-0.11,0.12-0.223,0.241-0.334,0.362
						c-0.196,0.21-0.394,0.42-0.596,0.629c-0.119,0.122-0.236,0.244-0.357,0.365c-0.214,0.217-0.433,0.434-0.654,0.648
						c-0.111,0.109-0.221,0.217-0.333,0.324c-0.31,0.297-0.626,0.588-0.949,0.878c-0.026,0.023-0.051,0.048-0.077,0.071
						c-0.348,0.311-0.703,0.615-1.064,0.917c-0.113,0.095-0.228,0.187-0.342,0.278c-0.255,0.209-0.513,0.416-0.774,0.619
						c-0.052,0.04-0.102,0.082-0.154,0.123c5.242,15.7,12.093,48.736,20.803,65.107c7.607,0.294,19.562,0.742,19.584,0.742
						C144.544,284.882,144.522,210.033,144.522,210.033z"/>
					<path fill="#F7F7F7" d="M171.72,204.119c2.412,7.778,14.176,20.625,27.617,20.625c13.445,0,21.054,1.047,29.17,7.388
						c8.115,6.34,9.575,14.707,9.575,17.244s-0.446,12.428-7.802,19.021c-7.354,6.595-14.26,10.146-24.757,11.413
						c-10.494,1.268-18.901,3.126-23.708,3.504c-4.804,0.375-37.689,1.568-37.739,1.568c-0.047,0,0.445-74.849,0.445-74.849
						L171.72,204.119z"/>
					<polygon fill="#E2E2E2" points="104.609,218.575 144.443,227.294 144.009,230.413 103.735,219.318 					"/>
					<polygon fill="#E2E2E2" points="183.58,219.027 144.443,227.294 144.758,230.413 184.855,219.96 					"/>
					<circle fill="#333333" cx="144.008" cy="239.993" r="2.441"/>
					<circle fill="#333333" cx="143.702" cy="260.331" r="2.44"/>
					<path fill="#333333" d="M146.449,279.854c0,1.352-1.092,2.441-2.439,2.441c-1.349,0-2.442-1.09-2.442-2.441
						c0-1.348,1.093-2.439,2.442-2.439C145.357,277.415,146.449,278.507,146.449,279.854z"/>
					<g>
						<path fill="#262626" d="M142.617,168.16c-0.39-2.535,4.875-6.67,10.52-6.67c5.643,0,5.129,11.544,11.544,11.544
							c6.412,0,8.778-6.855,8.778-6.855s-2.174,10.961-9.035,10.961c-7.507,0-9.109-5.709-13.599-5.644
							C148.003,171.536,143.13,171.495,142.617,168.16z"/>
						<path fill="#2B2B2B" d="M145.474,168.16c0.39-2.535-4.875-6.67-10.52-6.67c-5.643,0-5.128,11.544-11.544,11.544
							c-6.412,0-8.778-6.855-8.778-6.855s2.173,10.961,9.035,10.961c7.507,0,9.11-5.709,13.599-5.644
							C140.087,171.536,144.962,171.495,145.474,168.16z"/>
					</g>
					<g>
						<g>
							<path fill="#333333" d="M122.533,237.064c-0.99,0.479-1.8-0.03-1.8-1.13l0.006-20.647c0-1.1,0.811-1.608,1.801-1.129
								l21.885,10.589c0.99,0.479,0.99,1.263,0,1.741L122.533,237.064z"/>
						</g>
						<g>
							<path fill="#333333" d="M165.185,213.982c0.99-0.479,1.801,0.03,1.8,1.13l-0.006,20.647c-0.001,1.1-0.812,1.608-1.802,1.129
								L143.292,226.3c-0.99-0.479-0.99-1.263,0-1.741L165.185,213.982z"/>
						</g>
						<path fill="#333333" d="M150.855,225.499c0,2.209-1.791,4-4,4h-5c-2.209,0-4-1.791-4-4l0,0c0-2.209,1.791-4,4-4h5
							C149.064,221.499,150.855,223.29,150.855,225.499L150.855,225.499z"/>
					</g>
					<path fill="#F7F7F7" d="M98.842,222.358c0.075-0.037,0.15-0.071,0.224-0.109C98.992,222.286,98.916,222.321,98.842,222.358z"/>
					<path fill="#F7F7F7" d="M112.884,209.976c0.087-0.121,0.173-0.24,0.258-0.358C113.058,209.735,112.972,209.855,112.884,209.976
						z"/>
					<path fill="#F7F7F7" d="M112.177,210.923c0.091-0.119,0.177-0.234,0.265-0.352
						C112.354,210.688,112.268,210.804,112.177,210.923z"/>
					<path fill="#F7F7F7" d="M114.203,208.041c0.041-0.063,0.083-0.128,0.123-0.19C114.286,207.913,114.243,207.978,114.203,208.041
						z"/>
					<path fill="#F7F7F7" d="M113.545,209.039c0.074-0.11,0.15-0.22,0.223-0.327C113.696,208.819,113.619,208.929,113.545,209.039z"
						/>
					<path fill="#F7F7F7" d="M105.039,218.29c0.114-0.092,0.229-0.184,0.342-0.278C105.268,218.106,105.153,218.198,105.039,218.29z
						"/>
					<path fill="#F7F7F7" d="M106.445,217.095c0.026-0.023,0.051-0.048,0.077-0.071
						C106.496,217.047,106.472,217.071,106.445,217.095z"/>
					<path fill="#F7F7F7" d="M111.418,211.88c0.066-0.08,0.128-0.16,0.193-0.241C111.546,211.72,111.484,211.8,111.418,211.88z"/>
					<path fill="#F7F7F7" d="M97.07,223.162c0.113-0.046,0.225-0.096,0.338-0.144C97.295,223.066,97.184,223.116,97.07,223.162z"/>
					<path fill="#F7F7F7" d="M109.412,214.179c0.112-0.121,0.225-0.242,0.334-0.362
						C109.637,213.937,109.524,214.058,109.412,214.179z"/>
					<path fill="#F7F7F7" d="M107.471,216.146c0.113-0.107,0.222-0.215,0.333-0.324
						C107.693,215.931,107.584,216.038,107.471,216.146z"/>
					<path fill="#F7F7F7" d="M102.452,220.234c0.012-0.009,0.023-0.017,0.035-0.026
						C102.475,220.218,102.464,220.226,102.452,220.234z"/>
					<path fill="#F7F7F7" d="M110.363,213.124c0.083-0.094,0.17-0.189,0.252-0.285C110.533,212.935,110.446,213.03,110.363,213.124z
						"/>
					<path fill="#F7F7F7" d="M100.601,221.402c0.119-0.069,0.237-0.14,0.354-0.212C100.837,221.263,100.719,221.333,100.601,221.402
						z"/>
					<path fill="#F7F7F7" d="M93.361,224.323c0.083-0.019,0.164-0.041,0.246-0.06C93.525,224.282,93.444,224.305,93.361,224.323z"/>
					<path fill="#F7F7F7" d="M115.898,204.866c0.026-0.064,0.056-0.133,0.08-0.195C115.954,204.733,115.925,204.802,115.898,204.866
						z"/>
					<path fill="#F7F7F7" d="M108.816,214.808c-0.118,0.122-0.236,0.244-0.357,0.365C108.58,215.052,108.697,214.93,108.816,214.808
						z"/>
					<path fill="#F7F7F7" d="M114.812,207.042c0.047-0.082,0.089-0.158,0.134-0.239C114.901,206.884,114.859,206.96,114.812,207.042
						z"/>
					<path fill="#F7F7F7" d="M104.11,219.032l-0.001-0.005c-0.064,0.05-0.13,0.099-0.195,0.148c0.057-0.042,0.117-0.082,0.173-0.125
						C104.095,219.045,104.103,219.038,104.11,219.032z"/>
					<path fill="#F7F7F7" d="M104.265,218.909c-0.051,0.04-0.104,0.078-0.156,0.118l0.001,0.005
						C104.163,218.991,104.213,218.949,104.265,218.909z"/>
					<path fill="#F7F7F7" d="M115.238,206.271c0.049-0.092,0.094-0.181,0.139-0.27C115.332,206.09,115.287,206.179,115.238,206.271z
						"/>
					<path fill="#F7F7F7" d="M95.119,223.858c0.112-0.035,0.224-0.066,0.335-0.103C95.343,223.792,95.231,223.823,95.119,223.858z"
						/>
					<path fill="#F7F7F7" d="M91.278,224.645c0.13-0.013,0.26-0.025,0.39-0.04C91.538,224.619,91.409,224.632,91.278,224.645z"/>
					<path fill="#F7F7F7" d="M115.601,205.547c0.04-0.085,0.079-0.167,0.116-0.249C115.68,205.378,115.641,205.462,115.601,205.547z
						"/>
					<path fill="none" d="M102.487,220.208c0.486-0.332,0.959-0.678,1.427-1.032C103.446,219.53,102.973,219.876,102.487,220.208z"
						/>
					<path fill="none" d="M104.265,218.909c0.262-0.203,0.52-0.41,0.774-0.619C104.784,218.499,104.526,218.706,104.265,218.909z"/>
					<path fill="none" d="M100.955,221.19c0.506-0.307,1.008-0.622,1.498-0.956C101.962,220.568,101.461,220.884,100.955,221.19z"/>
					<path fill="none" d="M97.408,223.019c0.483-0.205,0.961-0.426,1.434-0.66C98.37,222.593,97.891,222.813,97.408,223.019z"/>
					<path fill="none" d="M95.455,223.756c0.544-0.178,1.083-0.376,1.616-0.594C96.538,223.38,95.999,223.578,95.455,223.756z"/>
					<path fill="none" d="M93.607,224.264c0.509-0.115,1.012-0.252,1.512-0.405C94.619,224.012,94.116,224.148,93.607,224.264z"/>
					<path fill="none" d="M91.668,224.604c0.568-0.07,1.133-0.162,1.693-0.281C92.802,224.442,92.236,224.534,91.668,224.604z"/>
					<path fill="none" d="M99.066,222.249c0.52-0.265,1.03-0.55,1.535-0.847C100.097,221.699,99.585,221.984,99.066,222.249z"/>
					<path fill="none" d="M89.518,224.744c0.591,0,1.177-0.041,1.76-0.1C90.695,224.703,90.109,224.744,89.518,224.744z"/>
					<path fill="none" d="M114.946,206.803c0.102-0.181,0.202-0.36,0.292-0.532C115.147,206.442,115.048,206.622,114.946,206.803z"
						/>
					<path fill="none" d="M105.381,218.012c0.361-0.302,0.717-0.606,1.064-0.917C106.098,217.405,105.742,217.71,105.381,218.012z"
						/>
					<path fill="none" d="M114.325,207.851c0.173-0.277,0.335-0.547,0.487-0.809C114.66,207.304,114.499,207.573,114.325,207.851z"
						/>
					<path fill="none" d="M108.459,215.173c-0.214,0.217-0.434,0.434-0.654,0.648C108.026,215.606,108.245,215.39,108.459,215.173z"
						/>
					<path fill="none" d="M115.716,205.298c0.067-0.149,0.127-0.292,0.182-0.432C115.843,205.006,115.784,205.148,115.716,205.298z"
						/>
					<path fill="none" d="M113.768,208.712c0.152-0.229,0.295-0.451,0.435-0.671C114.063,208.261,113.919,208.483,113.768,208.712z"
						/>
					<path fill="none" d="M115.978,204.671c0.074-0.195,0.139-0.383,0.187-0.552C116.117,204.288,116.052,204.476,115.978,204.671z"
						/>
					<path fill="none" d="M115.377,206.001c0.08-0.156,0.154-0.307,0.223-0.454C115.531,205.694,115.457,205.845,115.377,206.001z"
						/>
					<path fill="none" d="M108.816,214.808c0.202-0.209,0.4-0.419,0.596-0.629C109.216,214.389,109.018,214.599,108.816,214.808z"/>
					<path fill="none" d="M106.522,217.023c0.323-0.29,0.639-0.581,0.949-0.878C107.161,216.442,106.845,216.733,106.522,217.023z"
						/>
					<path fill="none" d="M109.747,213.816c0.21-0.229,0.415-0.462,0.616-0.692C110.162,213.354,109.957,213.587,109.747,213.816z"
						/>
					<path fill="none" d="M110.615,212.839c0.276-0.32,0.544-0.641,0.803-0.959C111.159,212.198,110.891,212.519,110.615,212.839z"
						/>
					<path fill="none" d="M112.442,210.571c0.151-0.2,0.299-0.398,0.442-0.596C112.741,210.173,112.593,210.371,112.442,210.571z"/>
					<path fill="none" d="M113.143,209.617c0.138-0.194,0.271-0.388,0.402-0.578C113.415,209.229,113.281,209.423,113.143,209.617z"
						/>
					<path fill="none" d="M111.611,211.639c0.193-0.241,0.383-0.48,0.565-0.716C111.994,211.158,111.804,211.397,111.611,211.639z"
						/>
					<path fill="#4D4D4D" d="M104.11,219.032c-0.007,0.006-0.015,0.013-0.023,0.019c-0.057,0.043-0.116,0.083-0.173,0.125
						c-0.467,0.354-0.941,0.7-1.427,1.032c-0.012,0.01-0.023,0.018-0.035,0.026c-0.49,0.334-0.991,0.649-1.498,0.956
						c-0.117,0.072-0.235,0.143-0.354,0.212c-0.505,0.297-1.015,0.582-1.535,0.847c-0.074,0.038-0.149,0.072-0.224,0.109
						c-0.472,0.234-0.951,0.455-1.434,0.66c-0.113,0.048-0.225,0.098-0.338,0.144c-0.533,0.218-1.071,0.416-1.616,0.594
						c-0.111,0.036-0.223,0.067-0.335,0.103c-0.5,0.153-1.003,0.29-1.512,0.405c-0.082,0.019-0.163,0.041-0.246,0.06
						c-0.56,0.119-1.125,0.351-1.693,0.421c-0.13,0.015-0.629,0.104-0.759,0.104c-0.005,0-0.014,0.206-0.019,0.206
						c3.167,2.394,8.907,8.125,10.065,8.683c0.749,0.359-12.464,1.455-12.464,1.455s24.623,39.221,31.982,48.811
						c1.385,0.055,2.857,0.094,4.44,0.154C116.204,267.786,109.353,234.732,104.11,219.032z"/>
					<path fill="#333333" d="M100.955,233.599c-1.175-0.52-6.524-5.779-9.692-8.953c-0.579,0.058-1.159,0.099-1.745,0.099
						c-13.443,0-21.334,1.047-29.45,7.388c-8.115,6.34-9.576,14.707-9.576,17.244s0.446,12.428,7.801,19.021
						c7.355,6.595,14.262,10.146,24.755,11.413c10.497,1.268,18.903,3.126,23.711,3.504c2.234,0.174,6.725,0.377,13.713,0.654
						c-7.36-9.59-31.583-48.127-31.583-48.127S102.648,234.346,100.955,233.599z"/>
					<path fill="#4D4D4D" d="M183.757,219.032c0.008,0.006,0.016,0.013,0.023,0.019c0.057,0.043,0.117,0.083,0.174,0.125
						c0.467,0.354,0.941,0.7,1.427,1.032c0.012,0.01,0.023,0.018,0.034,0.026c0.49,0.334,0.992,0.649,1.498,0.956
						c0.117,0.072,0.235,0.143,0.354,0.212c0.506,0.297,1.016,0.582,1.535,0.847c0.074,0.038,0.149,0.072,0.225,0.109
						c0.472,0.234,0.95,0.455,1.434,0.66c0.112,0.048,0.225,0.098,0.338,0.144c0.532,0.218,1.07,0.416,1.615,0.594
						c0.111,0.036,0.223,0.067,0.336,0.103c0.5,0.153,1.003,0.29,1.512,0.405c0.082,0.019,0.163,0.041,0.246,0.06
						c0.56,0.119,1.125,0.351,1.693,0.421c0.129,0.015,0.553-0.073,0.684-0.073c0.006,0-0.283,0.253-0.279,0.253
						c-3.166,2.394-7.93,8.099-9.105,8.618c-1.693,0.748,11.684,2.131,11.684,2.131s-24.428,38.74-31.788,48.33
						c-1.385,0.055-2.857,0.094-4.44,0.154C171.665,267.786,178.516,234.732,183.757,219.032z"/>
					<path fill="#333333" d="M186.914,233.599c1.176-0.52,6.525-5.779,9.691-8.953c0.579,0.058,1.16,0.099,1.745,0.099
						c13.443,0,21.335,1.047,29.45,7.388c8.115,6.34,9.576,14.707,9.576,17.244s-0.447,12.428-7.802,19.021
						c-7.354,6.595-14.263,10.146-24.755,11.413c-10.497,1.268-18.903,3.126-23.711,3.504c-2.234,0.174-6.725,0.377-13.714,0.654
						c7.36-9.59,31.583-48.127,31.583-48.127S185.22,234.346,186.914,233.599z"/>
					<ellipse fill="#333333" cx="144.44" cy="101.265" rx="61.349" ry="19.51"/>
					<g>
						<path fill="#333333" d="M193.615,27.585c0.554-2.129-0.793-4.086-2.993-4.086h-90.105c-2.2,0-3.542,1.956-2.982,4.083
							c0,0,17.925,68.222,10.946,69.22c-6.979,0.998,80.359,3.136,74.177-0.054S193.615,27.585,193.615,27.585z"/>
					</g>
					<path fill="#F2F2F2" d="M182.063,83.792c-5.907,3.639-20.585,6.193-36.714,6.193c-16.131,0-30.382-2.555-36.289-6.193
						c0,0-0.422,4.814-0.466,5.51c-0.354,5.584,15.253,8.564,36.755,8.564c21.5,0,36.996-3.85,36.996-9.444
						C182.345,87.024,182.063,83.792,182.063,83.792z"/>
				</g>
			</g>
		</g>
	</g>
	<g>
		<rect x="73.855" y="260.499" fill="#333333" width="135" height="54"/>
		<rect x="79.855" y="267.499" fill="#333333" stroke="#E2E2E2" stroke-width="2" stroke-miterlimit="10" width="123" height="41"/>
		<text transform="matrix(1 0 0 1 94.4697 292.9053)" fill="#F7F7F7" font-family="'Open Sans', sans-serif" font-size="20">Investidor</text>
	</g>
</g>
</svg>
