<?xml version="1.0" encoding="utf-8"?>
<!-- Generator: Adobe Illustrator 16.0.0, SVG Export Plug-In . SVG Version: 6.00 Build 0)  -->
<!DOCTYPE svg PUBLIC "-//W3C//DTD SVG 1.1//EN" "http://www.w3.org/Graphics/SVG/1.1/DTD/svg11.dtd">
<svg version="1.1" xmlns="http://www.w3.org/2000/svg" xmlns:xlink="http://www.w3.org/1999/xlink" x="0px" y="0px"
	 width="244.416px" height="244.415px" viewBox="0 0 244.416 244.415" enable-background="new 0 0 244.416 244.415"
	 xml:space="preserve">
<g id="Layer_1">
	<g>
		<circle fill="#FFFFFF" cx="122.527" cy="122.121" r="121.294"/>
		<path fill="#EA9638" d="M3.798,92.667C9.17,71.182,19.383,52.667,34.439,37.124C49.493,21.58,67.438,10.797,88.271,4.774
			c20.834-6.021,41.993-6.348,63.479-0.977c21.483,5.372,39.998,15.585,55.543,30.641c15.543,15.055,26.326,33,32.348,53.833
			c6.022,20.833,6.348,41.992,0.976,63.477c-5.37,21.484-15.584,39.999-30.64,55.543c-15.054,15.543-32.999,26.326-53.833,32.349
			c-20.833,6.022-41.992,6.349-63.478,0.977c-21.483-5.371-39.998-15.585-55.541-30.64c-15.545-15.056-26.328-33-32.35-53.834
			C-1.247,135.31-1.572,114.151,3.798,92.667z M59.463,158.829l17.578,4.395c1.139,0.163,2.769,0.57,4.884,1.221
			c2.116,0.652,3.662,1.059,4.639,1.222l-5.615,22.217l13.429,3.418l5.369-21.974c0.976,0.326,2.687,0.773,5.128,1.344
			c2.441,0.568,4.312,1.018,5.614,1.342l-5.369,21.974l13.427,3.173l5.371-22.217c7.812,1.303,14.77,1.912,20.874,1.832
			c6.104-0.082,11.476-1.75,16.114-5.006c4.638-3.254,8.098-8.219,10.376-14.893c5.208-14.648,1.058-25.472-12.452-32.471
			c9.766-2.116,15.463-8.627,17.091-19.531c2.115-13.998-6.836-24.251-26.856-30.762l5.615-22.217l-13.428-3.174l-5.371,21.484
			c-1.302-0.326-3.175-0.773-5.615-1.343c-2.442-0.569-4.15-1.017-5.129-1.342l5.373-21.485l-13.429-3.418l-5.37,21.973
			c-2.441-0.326-5.289-0.977-8.545-1.953l-18.556-4.639l-3.417,14.404l9.521,2.197c4.559,1.14,6.673,3.743,6.349,7.812
			l-6.349,25.146c0.327,0,0.814,0.163,1.466,0.488c-0.163-0.163-0.407-0.244-0.732-0.244c-0.326,0-0.569-0.082-0.733-0.245
			l-8.788,35.157c-0.814,2.93-2.849,3.988-6.104,3.174l-9.767-2.441L59.463,158.829z M104.141,153.213l7.325-29.541
			c0.162,0,1.75,0.326,4.761,0.977c3.011,0.651,5.29,1.221,6.837,1.709c1.546,0.488,3.824,1.221,6.836,2.197
			c3.01,0.977,5.329,2.035,6.956,3.174c1.629,1.14,3.337,2.482,5.128,4.028s2.971,3.337,3.541,5.372
			c0.568,2.033,0.528,4.271-0.124,6.713c-0.486,1.791-1.22,3.337-2.196,4.639c-0.977,1.303-2.197,2.279-3.662,2.93
			c-1.465,0.651-2.971,1.221-4.517,1.709s-3.418,0.692-5.615,0.61c-2.197-0.081-4.11-0.204-5.738-0.366
			c-1.627-0.162-3.579-0.488-5.858-0.977s-4.028-0.854-5.249-1.099c-1.221-0.244-2.808-0.61-4.762-1.099
			C105.85,153.702,104.63,153.376,104.141,153.213z M114.883,110.245l6.593-26.856c0.487,0.163,1.505,0.407,3.052,0.732
			c1.547,0.326,2.889,0.611,4.028,0.855c1.14,0.244,2.604,0.651,4.395,1.221c1.791,0.569,3.337,1.099,4.639,1.586
			c1.303,0.489,2.768,1.181,4.395,2.075c1.628,0.896,2.848,1.791,3.662,2.686c0.813,0.896,1.75,1.994,2.808,3.295
			c1.058,1.303,1.547,2.645,1.466,4.028c-0.082,1.384-0.205,2.972-0.366,4.761c-0.489,2.116-1.344,3.866-2.564,5.249
			c-1.221,1.384-2.767,2.319-4.639,2.808c-1.872,0.489-3.703,0.855-5.494,1.099c-1.789,0.244-3.946,0.163-6.469-0.244
			c-2.523-0.407-4.477-0.733-5.859-0.977c-1.384-0.245-3.256-0.692-5.616-1.343C116.552,110.57,115.208,110.245,114.883,110.245z"/>
	</g>
</g>
<g id="Layer_2" display="none">
	<g display="inline">
		<circle fill="#0F69A6" cx="122.208" cy="122.208" r="122.208"/>
		<g>
			<path fill="none" stroke="#CECECE" stroke-width="10" stroke-miterlimit="10" d="M84.577,160.891
				c5.814,5.812,5.814,15.238,0,21.051L71.42,195.1c-5.813,5.812-15.238,5.812-21.053,0l-1.053-1.053
				c-5.813-5.812-5.813-15.238,0-21.053l13.158-13.156c5.813-5.814,15.238-5.814,21.053,0L84.577,160.891z"/>
			<path fill="none" stroke="#CECECE" stroke-width="10" stroke-miterlimit="10" d="M140.364,105.103
				c5.814,5.813,5.814,15.238,0,21.052l-13.156,13.157c-5.813,5.813-15.239,5.813-21.053,0l-1.053-1.052
				c-5.813-5.814-5.813-15.238,0-21.053l13.158-13.157c5.813-5.813,15.236-5.813,21.051,0L140.364,105.103z"/>
			
				<line fill="none" stroke="#F7F7F7" stroke-width="10" stroke-linecap="round" stroke-miterlimit="10" x1="77.735" y1="166.68" x2="111.944" y2="132.47"/>
			<path fill="none" stroke="#CECECE" stroke-width="10" stroke-miterlimit="10" d="M195.101,50.368
				c5.812,5.813,5.812,15.238,0,21.052l-13.157,13.157c-5.814,5.814-15.239,5.814-21.053,0l-1.053-1.052
				c-5.813-5.814-5.813-15.239,0-21.052l13.157-13.157c5.814-5.813,15.239-5.813,21.051,0L195.101,50.368z"/>
			
				<line fill="none" stroke="#F7F7F7" stroke-width="10" stroke-linecap="round" stroke-miterlimit="10" x1="132.472" y1="111.945" x2="166.68" y2="77.735"/>
		</g>
	</g>
</g>
</svg>
