<?xml version="1.0" encoding="utf-8"?>
<!-- Generator: Adobe Illustrator 16.0.0, SVG Export Plug-In . SVG Version: 6.00 Build 0)  -->
<!DOCTYPE svg PUBLIC "-//W3C//DTD SVG 1.1//EN" "http://www.w3.org/Graphics/SVG/1.1/DTD/svg11.dtd">
<svg version="1.1" id="Layer_1" xmlns="http://www.w3.org/2000/svg" xmlns:xlink="http://www.w3.org/1999/xlink" x="0px" y="0px"
	 viewBox="0 0 997.553 392.7" enable-background="new 0 0 997.553 392.7" xml:space="preserve">
<path fill="#2EA3F2" d="M634.553,193c0,11.046-8.954,20-20,20h-227c-11.046,0-20-8.954-20-20V20c0-11.046,8.954-20,20-20h227
	c11.046,0,20,8.954,20,20V193z"/>
<path fill="#2EA3F2" d="M997.553,354c0,11.046-8.954,20-20,20h-227c-11.046,0-20-8.954-20-20V20c0-11.046,8.954-20,20-20h227
	c11.046,0,20,8.954,20,20V354z"/>
<path fill="#2EA3F2" d="M277.553,193c0,11.046-8.954,20-20,20h-227c-11.046,0-20-8.954-20-20V20c0-11.046,8.954-20,20-20h227
	c11.046,0,20,8.954,20,20V193z"/>
<g>
	<rect x="49.308" y="20.211" fill="none" width="190.49" height="18.134"/>
	<text transform="matrix(1 0 0 1 51.563 36.9307)" fill="#F7F7F7" font-family="'Open Sans', sans-serif" font-size="22">Uma Rede Pública</text>
</g>
<g>
	<rect x="382.471" y="20.211" fill="none" width="237.164" height="17.386"/>
	<text transform="matrix(1 0 0 1 384.6128 36.9302)" fill="#F7F7F7" font-family="'Open Sans', sans-serif" font-size="22">Incentivos Econômicos</text>
</g>
<g>
	<rect x="750.778" y="20.211" fill="none" width="226.549" height="94.092"/>
	<text transform="matrix(1 0 0 1 783.9268 36.9302)"><tspan x="0" y="0" fill="#F7F7F7" font-family="'Open Sans', sans-serif" font-size="22">Manutenção de </tspan><tspan x="-15.409" y="26.4" fill="#F7F7F7" font-family="'Open Sans', sans-serif" font-size="22">Consenso Sem um </tspan><tspan x="-30.19" y="52.8" fill="#F7F7F7" font-family="'Open Sans', sans-serif" font-size="22">Intermediário Central</tspan></text>
</g>
<g>
	<rect x="376.552" y="254" fill="none" width="297.54" height="120"/>
	<text transform="matrix(1 0 0 1 376.5522 269.2002)"><tspan x="0" y="0" fill="#333333" font-family="'Open Sans', sans-serif" font-size="20">Os mineradores são </tspan><tspan x="0" y="26" fill="#333333" font-family="'Open Sans', sans-serif" font-size="20">recompensados com tokens </tspan><tspan x="0" y="52" fill="#333333" font-family="'Open Sans', sans-serif" font-size="20">que apresentam valor de troca. </tspan><tspan x="0" y="78" fill="#333333" font-family="'Open Sans', sans-serif" font-size="20">O custo para trapacear é maior </tspan><tspan x="0" y="104" fill="#333333" font-family="'Open Sans', sans-serif" font-size="20">do que o retorno por colaborar.</tspan></text>
</g>
<g>
	<rect y="241.502" fill="none" width="289.105" height="112.722"/>
	<text transform="matrix(1 0 0 1 78.8931 256.7021)"><tspan x="0" y="0" fill="#333333" font-family="'Open Sans', sans-serif" font-size="20">Mais Usuários</tspan><tspan x="59.941" y="24" fill="#333333" font-family="'Open Sans', sans-serif" font-size="20">= </tspan><tspan x="-75.879" y="48" fill="#333333" font-family="'Open Sans', sans-serif" font-size="20">Mais Poder de Processamento</tspan><tspan x="59.941" y="72" fill="#333333" font-family="'Open Sans', sans-serif" font-size="20">= </tspan><tspan x="-7.646" y="96" fill="#333333" font-family="'Open Sans', sans-serif" font-size="20">Mais Segurança</tspan></text>
</g>
<line fill="none" stroke="#333333" stroke-width="2" stroke-miterlimit="10" stroke-dasharray="4" x1="122.327" y1="83.787" x2="198.848" y2="134.666"/>
<line fill="none" stroke="#333333" stroke-width="2" stroke-miterlimit="10" stroke-dasharray="4" x1="166.674" y1="83.768" x2="90.154" y2="134.707"/>
<line fill="none" stroke="#333333" stroke-width="2" stroke-miterlimit="10" stroke-dasharray="4" x1="166.674" y1="83.768" x2="144.5" y2="168.775"/>
<line fill="none" stroke="#333333" stroke-width="2" stroke-miterlimit="10" stroke-dasharray="4" x1="122.327" y1="83.787" x2="144.5" y2="168.775"/>
<polygon fill="none" stroke="#333333" stroke-width="2" stroke-miterlimit="10" stroke-dasharray="4" points="122.327,83.787 
	166.674,83.768 198.848,134.666 144.5,168.775 90.154,134.707 "/>
<g>
	<circle fill="#F7F7F7" cx="90.148" cy="118.667" r="4.324"/>
	<path fill="#F7F7F7" d="M99.159,126.798c0,1.167-1.99,1.673-2.971,1.673l-12.328,0.005c-0.98,0.001-2.814-0.305-2.815-1.475l0,0
		c0-1.165,3.591-2.752,4.573-2.753l9.063-0.003C95.664,124.245,99.158,125.631,99.159,126.798L99.159,126.798z"/>
	<path fill="#F7F7F7" d="M96.038,142.398c0.001,0.927,0.75,1.674,1.673,1.674l0,0c0.927-0.001,1.674-0.749,1.674-1.674
		l-0.007-14.783c0-0.924-0.749-1.674-1.674-1.675l0,0c-0.923,0.001-1.674,0.753-1.673,1.676L96.038,142.398z"/>
	<path fill="#F7F7F7" d="M91.282,158.834c0.001,0.923,0.75,1.672,1.673,1.673l0,0c0.924-0.001,1.674-0.751,1.672-1.674
		l-0.006-14.784c-0.001-0.926-0.749-1.674-1.674-1.674l0,0c-0.923,0.002-1.673,0.751-1.672,1.676L91.282,158.834z"/>
	<path fill="#F7F7F7" d="M85.702,158.837c0.001,0.923,0.751,1.673,1.677,1.671l0,0c0.922,0.001,1.673-0.748,1.673-1.674
		l-0.007-14.781c0-0.926-0.752-1.675-1.673-1.676l0,0c-0.927,0.001-1.676,0.751-1.676,1.676L85.702,158.837z"/>
	<path fill="#F7F7F7" d="M80.933,142.407c0,0.924,0.747,1.673,1.673,1.671l0,0c0.925,0,1.673-0.749,1.674-1.673l-0.007-14.783
		c-0.001-0.924-0.751-1.674-1.675-1.672l0,0c-0.925-0.002-1.672,0.751-1.672,1.673L80.933,142.407z"/>
	<rect x="85.691" y="125.084" fill="#F7F7F7" width="8.926" height="19.246"/>
</g>
<g>
	<circle fill="#F7F7F7" cx="122.321" cy="67.75" r="4.324"/>
	<path fill="#F7F7F7" d="M131.333,75.878c0,1.169-1.99,1.674-2.973,1.674l-12.327,0.005c-0.978,0.002-2.814-0.307-2.814-1.473l0,0
		c0-1.168,3.59-2.754,4.573-2.755l9.063-0.003C127.838,73.326,131.331,74.711,131.333,75.878L131.333,75.878z"/>
	<path fill="#F7F7F7" d="M128.212,91.48c0,0.926,0.749,1.673,1.674,1.673l0,0c0.925-0.001,1.672-0.749,1.672-1.674l-0.007-14.783
		c0-0.923-0.749-1.673-1.673-1.672l0,0c-0.925,0-1.672,0.751-1.672,1.674L128.212,91.48z"/>
	<path fill="#F7F7F7" d="M123.455,107.916c0,0.923,0.75,1.672,1.673,1.672l0,0c0.927-0.001,1.672-0.751,1.673-1.674l-0.006-14.783
		c-0.001-0.924-0.749-1.674-1.675-1.673l0,0c-0.922-0.001-1.672,0.749-1.671,1.674L123.455,107.916z"/>
	<path fill="#F7F7F7" d="M117.876,107.918c0.001,0.924,0.749,1.674,1.675,1.673l0,0c0.922-0.001,1.672-0.751,1.673-1.675
		l-0.007-14.781c-0.001-0.928-0.752-1.677-1.673-1.677l0,0c-0.927,0.002-1.675,0.753-1.675,1.677L117.876,107.918z"/>
	<path fill="#F7F7F7" d="M113.105,91.488c0.001,0.924,0.75,1.672,1.674,1.672l0,0c0.925,0,1.672-0.748,1.671-1.673l-0.007-14.783
		c0.001-0.925-0.749-1.673-1.674-1.673l0,0c-0.925,0-1.671,0.75-1.672,1.674L113.105,91.488z"/>
	<rect x="117.866" y="74.166" fill="#F7F7F7" width="8.922" height="19.245"/>
</g>
<g>
	<circle fill="#F7F7F7" cx="144.494" cy="152.737" r="4.324"/>
	<path fill="#F7F7F7" d="M153.505,160.866c0,1.169-1.991,1.675-2.971,1.675l-12.329,0.006c-0.979,0-2.812-0.307-2.812-1.474l0,0
		c-0.001-1.169,3.59-2.755,4.573-2.755l9.063-0.003C150.011,158.313,153.504,159.699,153.505,160.866L153.505,160.866z"/>
	<path fill="#F7F7F7" d="M150.382,176.471c0.001,0.925,0.751,1.67,1.676,1.67l0,0c0.925,0,1.672-0.748,1.672-1.672l-0.007-14.783
		c0-0.925-0.749-1.674-1.673-1.674l0,0c-0.925,0-1.675,0.752-1.674,1.674L150.382,176.471z"/>
	<path fill="#F7F7F7" d="M145.627,192.904c0.002,0.922,0.751,1.671,1.675,1.672l0,0c0.926-0.001,1.672-0.751,1.671-1.673
		l-0.006-14.785c0-0.924-0.746-1.674-1.674-1.673l0,0c-0.923,0-1.672,0.75-1.672,1.674L145.627,192.904z"/>
	<path fill="#F7F7F7" d="M140.05,192.905c0,0.925,0.749,1.673,1.675,1.673l0,0c0.922-0.001,1.671-0.749,1.671-1.673l-0.007-14.784
		c0.001-0.926-0.751-1.674-1.673-1.674l0,0c-0.925,0-1.673,0.75-1.673,1.676L140.05,192.905z"/>
	<path fill="#F7F7F7" d="M135.28,176.476c0,0.925,0.747,1.674,1.673,1.673l0,0c0.923-0.002,1.673-0.749,1.672-1.675l-0.007-14.781
		c0-0.925-0.75-1.674-1.674-1.673l0,0c-0.925-0.001-1.672,0.75-1.671,1.674L135.28,176.476z"/>
	<rect x="140.039" y="159.152" fill="#F7F7F7" width="8.923" height="19.246"/>
</g>
<g>
	<circle fill="#F7F7F7" cx="166.667" cy="67.729" r="4.324"/>
	<path fill="#F7F7F7" d="M175.677,75.857c0.001,1.168-1.988,1.673-2.97,1.674l-12.327,0.007c-0.98,0.001-2.814-0.308-2.815-1.476
		l0,0c0-1.166,3.59-2.752,4.572-2.753l9.064-0.005C172.184,73.305,175.678,74.691,175.677,75.857L175.677,75.857z"/>
	<path fill="#F7F7F7" d="M172.557,91.461c0,0.926,0.75,1.672,1.674,1.672l0,0c0.926,0,1.674-0.75,1.672-1.673l-0.006-14.784
		c0-0.923-0.75-1.673-1.676-1.672l0,0c-0.923,0-1.671,0.75-1.671,1.673L172.557,91.461z"/>
	<path fill="#F7F7F7" d="M167.8,107.896c0.001,0.923,0.753,1.673,1.673,1.672l0,0c0.926-0.002,1.675-0.75,1.673-1.674l-0.007-14.782
		c0-0.925-0.748-1.676-1.672-1.674l0,0c-0.923-0.002-1.675,0.749-1.674,1.674L167.8,107.896z"/>
	<path fill="#F7F7F7" d="M162.223,107.897c0,0.925,0.75,1.672,1.675,1.673l0,0c0.923-0.001,1.673-0.752,1.672-1.674l-0.007-14.783
		c0-0.926-0.751-1.676-1.674-1.674l0,0c-0.925-0.001-1.673,0.75-1.673,1.676L162.223,107.897z"/>
	<path fill="#F7F7F7" d="M157.454,91.467c-0.001,0.926,0.747,1.672,1.672,1.673l0,0c0.924-0.001,1.672-0.749,1.672-1.673
		l-0.006-14.783c-0.001-0.924-0.751-1.675-1.674-1.675l0,0c-0.925,0.002-1.672,0.752-1.671,1.677L157.454,91.467z"/>
	<rect x="162.212" y="74.145" fill="#F7F7F7" width="8.923" height="19.246"/>
</g>
<g>
	<circle fill="#F7F7F7" cx="198.838" cy="118.628" r="4.324"/>
	<path fill="#F7F7F7" d="M207.852,126.756c0,1.167-1.991,1.674-2.971,1.674l-12.33,0.006c-0.978,0-2.812-0.307-2.812-1.474l0,0
		c0-1.169,3.589-2.754,4.572-2.754l9.062-0.005C204.356,124.203,207.852,125.588,207.852,126.756L207.852,126.756z"/>
	<path fill="#F7F7F7" d="M204.729,142.358c0.001,0.926,0.751,1.673,1.676,1.673l0,0c0.925,0,1.671-0.749,1.671-1.673l-0.005-14.784
		c-0.001-0.924-0.748-1.674-1.673-1.673l0,0c-0.925-0.001-1.676,0.751-1.675,1.675L204.729,142.358z"/>
	<path fill="#F7F7F7" d="M199.971,158.794c0.002,0.921,0.754,1.672,1.676,1.671l0,0c0.926,0,1.673-0.75,1.673-1.674l-0.006-14.783
		c-0.001-0.925-0.75-1.674-1.675-1.674l0,0c-0.923,0-1.673,0.75-1.673,1.676L199.971,158.794z"/>
	<path fill="#F7F7F7" d="M194.396,158.797c-0.001,0.923,0.749,1.671,1.674,1.671l0,0c0.924,0,1.673-0.749,1.671-1.673l-0.004-14.783
		c-0.001-0.927-0.754-1.675-1.677-1.676l0,0c-0.924,0.001-1.671,0.751-1.671,1.676L194.396,158.797z"/>
	<path fill="#F7F7F7" d="M189.626,142.366c0,0.924,0.748,1.671,1.673,1.672l0,0c0.923-0.001,1.673-0.749,1.673-1.675l-0.007-14.782
		c0-0.923-0.751-1.673-1.674-1.673l0,0c-0.926,0-1.672,0.752-1.672,1.674L189.626,142.366z"/>
	<rect x="194.385" y="125.044" fill="#F7F7F7" width="8.924" height="19.245"/>
</g>
<g>
	<path fill="#333333" d="M327.258,104.109h14.484v4.852h-14.484v14.977h-4.887v-14.977h-14.414v-4.852h14.414V89.062h4.887V104.109z
		"/>
</g>
<g>
	<path fill="#333333" d="M667.152,101.719v-4.816h32.695v4.816H667.152z M667.152,116.098v-4.816h32.695v4.816H667.152z"/>
</g>
<g>
	<circle fill="#F7F7F7" cx="501.535" cy="128.416" r="63.333"/>
	<g>
		<defs>
			<circle id="SVGID_1_" cx="501.07" cy="128.416" r="63.333"/>
		</defs>
		<clipPath id="SVGID_2_">
			<use xlink:href="#SVGID_1_"  overflow="visible"/>
		</clipPath>
		<g clip-path="url(#SVGID_2_)">
			<path fill="#99A641" d="M501.173,109.971c0-5.678,11.972-31.844,7.024-32.184c-4.951-0.342-10.012,11.039-13.427,10.954
				c-3.413-0.085-7.75-5.496-12.187-4.13c-3.99,1.229,8.882,21.079,8.882,25.359c0,5.111-25.49,32.644-25.49,49.859
				c0,20.142,15.276,25.26,29.982,25.26s31.119-5.461,31.119-26.626C527.077,142.614,501.173,115.646,501.173,109.971z"/>
			<g>
				<rect x="524.553" y="103" fill="#FFCCB0" width="75" height="20"/>
				<path fill="#FFCCB0" d="M533.551,103.244c-5.164,0-14.407-4.982-18.125-10.561c0,0-3.926-3.912-7.643-4.117l-3.512,6.002
					l-0.92,35.323c0,0,11.429,0.425,16.722-4.882c1.896-1.9,5.783-1.938,11.773-1.938"/>
				<path fill="#FFCCB0" d="M506.553,97.332c0-1.576-1.666-2.332-3.201-2.332h-15.007c-1.536,0-3.792,0.756-3.792,2.332v28.564
					c0,1.578,2.256,4.104,3.792,4.104h15.007c1.535,0,3.201-2.525,3.201-4.104V97.332z"/>
				<path fill="#FFCCB0" d="M493.553,97.779c0-1.535-1.244-2.779-2.779-2.779h-7.441c-1.535,0-2.779,1.244-2.779,2.779v2.441
					c0,1.535,1.244,2.779,2.779,2.779h7.441c1.535,0,2.779-1.244,2.779-2.779V97.779z"/>
				<path fill="#FFCCB0" d="M493.553,106.78c0-1.535-1.244-2.78-2.779-2.78h-7.441c-1.535,0-2.779,1.245-2.779,2.78v1.439
					c0,1.535,1.244,2.78,2.779,2.78h7.441c1.535,0,2.779-1.245,2.779-2.78V106.78z"/>
				<path fill="#FFCCB0" d="M494.553,114.425c0-1.362-1.227-2.425-2.525-2.425h-8.398c-1.299,0-3.077,1.062-3.077,2.425v3.639
					c0,1.364,1.778,2.937,3.077,2.937h8.398c1.298,0,2.525-1.572,2.525-2.937V114.425z"/>
				<path fill="#FFCCB0" d="M494.553,124.829c0-1.573-1.194-2.829-2.709-2.829h-7.508c-1.515,0-3.783,1.256-3.783,2.829V126
					c0,1.572,2.268,4,3.783,4h7.508c1.515,0,2.709-2.428,2.709-4V124.829z"/>
				<path fill="#FFCCB0" d="M484.752,102.463c0.325,0,0.494,0.619,0.485,0.897c-0.014,0.346-0.066,1.083-0.506,1.083
					c-0.44,0,0.406,0.557,0.406,0.557h0.416v-3h-0.822L484.752,102.463z"/>
				<path fill="#FFCCB0" d="M484.679,110.295c0.382,0.029,0.485,1.277,0.485,1.497c0,0.221,0.069,1.22-0.324,1.22
					c-0.394,0,0.061,0.289,0.061,0.289l1.288-0.06L485.993,110h-1.262L484.679,110.295z"/>
				<path fill="#FFCCB0" d="M483.553,119.861c0,0,1.235,0.614,1.205,1.079c-0.018,0.277,0.182,0.962-0.2,0.962
					c-0.384,0,0.209,0.592,0.208,0.591l1.545-0.138l-0.78-3.087l-1.979-0.069V119.861z"/>
			</g>
			<text transform="matrix(1 0 0 1 487.7861 165.3555)" fill="#F7F7F7" font-family="'Open Sans', sans-serif" font-size="30.5678">$</text>
		</g>
	</g>
</g>
<g>
	<path fill="#CCCCCC" d="M356.16,366.597c0,5.977,1.743,10.444,5.229,13.403c3.485,2.958,9.418,4.526,17.798,4.702v7.998
		c-11.426,0-19.556-2.197-24.39-6.592s-7.251-11.162-7.251-20.303v-29.619c0-12.011-6.739-18.135-20.215-18.369v-7.031
		c7.148-0.117,12.305-1.611,15.469-4.482c3.164-2.87,4.746-7.207,4.746-13.008v-30.762c0-17.52,10.547-26.455,31.641-26.807v7.91
		c-8.086,0.294-13.946,1.992-17.578,5.098c-3.634,3.106-5.449,7.705-5.449,13.799v26.807c0,7.617-1.29,13.302-3.867,17.051
		c-2.579,3.75-6.739,6.24-12.48,7.471v0.703c5.683,1.173,9.829,3.618,12.437,7.339c2.606,3.722,3.911,9.185,3.911,16.392V366.597z"
		/>
</g>
<rect x="727.553" y="199" fill="#FFFFFF" width="270" height="121"/>
<ellipse opacity="0.2" fill="#333333" cx="918.062" cy="206.402" rx="15.256" ry="4.972"/>
<rect x="911.553" y="144" fill="#F4A25F" width="13" height="62"/>
<rect x="911.553" y="144" fill="#DD925B" width="1" height="62"/>
<rect x="914.553" y="144" fill="#DD925B" width="2" height="62"/>
<rect x="917.553" y="144" fill="#DD925B" width="3" height="62"/>
<rect x="921.553" y="144" fill="#DD925B" width="2" height="62"/>
<rect x="911.553" y="144" opacity="0.2" fill="#333333" width="13" height="17"/>
<polygon fill="#89427C" points="941.635,153.3 877.536,149.756 880.371,127.945 943.287,140.576 "/>
<polygon fill="#89427C" points="937.741,126.365 969.916,150.968 932.522,166.531 "/>
<g>
	<g>
		<polygon fill="#999999" points="760.169,303.33 757.823,297.072 758.708,296.811 761.053,303.069 		"/>
		<polygon fill="#999999" points="763.183,306.492 760.169,303.33 760.957,302.772 763.868,305.876 		"/>
		<polygon fill="#999999" points="755.546,303.252 756.251,296.687 757.17,296.765 756.464,303.331 		"/>
		<polygon fill="#999999" points="757.205,307.294 755.546,303.252 756.474,303 758.067,306.969 		"/>
		<polygon fill="#999999" points="751.604,302.826 754.548,296.77 755.41,297.098 752.466,303.152 		"/>
		<polygon fill="#999999" points="752.094,307.168 751.604,302.826 752.58,302.857 753.012,307.09 		"/>
		<polygon fill="#999999" points="760.169,288.033 757.823,294.291 758.708,294.551 761.053,288.293 		"/>
		<polygon fill="#999999" points="763.183,284.87 760.169,288.033 760.957,288.59 763.868,285.486 		"/>
		<polygon fill="#999999" points="755.546,288.11 756.251,294.676 757.17,294.598 756.464,288.032 		"/>
		<polygon fill="#999999" points="757.205,284.068 755.546,288.11 756.474,288.363 758.067,284.395 		"/>
		<polygon fill="#999999" points="751.604,288.537 754.548,294.593 755.41,294.266 752.466,288.21 		"/>
		<polygon fill="#999999" points="752.094,284.195 751.604,288.537 752.58,288.505 753.012,284.271 		"/>
		
			<rect x="764.789" y="292.14" transform="matrix(0.7061 -0.7082 0.7082 0.7061 18.2805 629.2423)" fill="#999999" width="4.628" height="0.923"/>
		
			<rect x="764.789" y="297.597" transform="matrix(0.7061 0.7082 -0.7082 0.7061 436.562 -455.6187)" fill="#999999" width="4.628" height="0.922"/>
		<circle fill="#333333" cx="763.33" cy="295.519" r="3.993"/>
		<ellipse fill="#333333" cx="747.302" cy="295.519" rx="6.58" ry="4.946"/>
		<circle fill="#333333" cx="756.51" cy="295.518" r="3.598"/>
	</g>
	<g>
		<polygon fill="#999999" points="797.305,303.33 794.96,297.072 795.844,296.811 798.188,303.069 		"/>
		<polygon fill="#999999" points="800.319,306.492 797.305,303.33 798.093,302.772 801.004,305.876 		"/>
		<polygon fill="#999999" points="792.682,303.252 793.387,296.687 794.306,296.765 793.6,303.331 		"/>
		<polygon fill="#999999" points="794.341,307.294 792.682,303.252 793.609,303 795.204,306.969 		"/>
		<polygon fill="#999999" points="788.741,302.826 791.685,296.77 792.546,297.098 789.603,303.152 		"/>
		<polygon fill="#999999" points="789.229,307.168 788.741,302.826 789.716,302.857 790.148,307.09 		"/>
		<polygon fill="#999999" points="797.305,288.033 794.96,294.291 795.844,294.551 798.188,288.293 		"/>
		<polygon fill="#999999" points="800.319,284.87 797.305,288.033 798.093,288.59 801.004,285.486 		"/>
		<polygon fill="#999999" points="792.682,288.11 793.387,294.676 794.306,294.598 793.6,288.032 		"/>
		<polygon fill="#999999" points="794.341,284.068 792.682,288.11 793.609,288.363 795.204,284.395 		"/>
		<polygon fill="#999999" points="788.741,288.537 791.685,294.593 792.546,294.266 789.603,288.21 		"/>
		<polygon fill="#999999" points="789.229,284.195 788.741,288.537 789.716,288.505 790.148,284.271 		"/>
		
			<rect x="801.925" y="292.14" transform="matrix(0.7062 -0.7081 0.7081 0.7062 29.1425 655.4249)" fill="#999999" width="4.629" height="0.923"/>
		
			<rect x="801.925" y="297.597" transform="matrix(0.7062 0.7081 -0.7081 0.7062 447.3617 -481.8638)" fill="#999999" width="4.629" height="0.922"/>
		<circle fill="#333333" cx="800.466" cy="295.519" r="3.993"/>
		<ellipse fill="#333333" cx="784.438" cy="295.519" rx="6.581" ry="4.946"/>
		<circle fill="#333333" cx="793.646" cy="295.518" r="3.598"/>
	</g>
	<g>
		<polygon fill="#999999" points="834.441,303.33 832.096,297.072 832.98,296.811 835.325,303.069 		"/>
		<polygon fill="#999999" points="837.455,306.492 834.441,303.33 835.229,302.772 838.141,305.876 		"/>
		<polygon fill="#999999" points="829.818,303.252 830.523,296.687 831.442,296.765 830.736,303.331 		"/>
		<polygon fill="#999999" points="831.478,307.294 829.818,303.252 830.746,303 832.34,306.969 		"/>
		<polygon fill="#999999" points="825.877,302.826 828.82,296.77 829.683,297.098 826.738,303.152 		"/>
		<polygon fill="#999999" points="826.366,307.168 825.877,302.826 826.853,302.857 827.284,307.09 		"/>
		<polygon fill="#999999" points="834.441,288.033 832.096,294.291 832.98,294.551 835.325,288.293 		"/>
		<polygon fill="#999999" points="837.455,284.87 834.441,288.033 835.229,288.59 838.141,285.486 		"/>
		<polygon fill="#999999" points="829.818,288.11 830.523,294.676 831.442,294.598 830.736,288.032 		"/>
		<polygon fill="#999999" points="831.478,284.068 829.818,288.11 830.746,288.363 832.34,284.395 		"/>
		<polygon fill="#999999" points="825.877,288.537 828.82,294.593 829.683,294.266 826.738,288.21 		"/>
		<polygon fill="#999999" points="826.366,284.195 825.877,288.537 826.853,288.505 827.284,284.271 		"/>
		
			<rect x="839.062" y="292.14" transform="matrix(0.7061 -0.7082 0.7082 0.7061 40.1129 681.8392)" fill="#999999" width="4.628" height="0.923"/>
		
			<rect x="839.062" y="297.597" transform="matrix(0.7061 0.7082 -0.7082 0.7061 458.3943 -508.2156)" fill="#999999" width="4.628" height="0.922"/>
		<circle fill="#333333" cx="837.603" cy="295.519" r="3.993"/>
		<ellipse fill="#333333" cx="821.574" cy="295.519" rx="6.58" ry="4.946"/>
		<circle fill="#333333" cx="830.782" cy="295.518" r="3.598"/>
	</g>
	<g>
		<polygon fill="#999999" points="871.576,303.33 869.23,297.072 870.115,296.811 872.461,303.069 		"/>
		<polygon fill="#999999" points="874.592,306.492 871.576,303.33 872.365,302.772 875.275,305.876 		"/>
		<polygon fill="#999999" points="866.953,303.252 867.658,296.687 868.578,296.765 867.871,303.331 		"/>
		<polygon fill="#999999" points="868.613,307.294 866.953,303.252 867.881,303 869.475,306.969 		"/>
		<polygon fill="#999999" points="863.014,302.826 865.957,296.77 866.818,297.098 863.873,303.152 		"/>
		<polygon fill="#999999" points="863.502,307.168 863.014,302.826 863.988,302.857 864.42,307.09 		"/>
		<polygon fill="#999999" points="871.576,288.033 869.23,294.291 870.115,294.551 872.461,288.293 		"/>
		<polygon fill="#999999" points="874.592,284.87 871.576,288.033 872.365,288.59 875.275,285.486 		"/>
		<polygon fill="#999999" points="866.953,288.11 867.658,294.676 868.578,294.598 867.871,288.032 		"/>
		<polygon fill="#999999" points="868.613,284.068 866.953,288.11 867.881,288.363 869.475,284.395 		"/>
		<polygon fill="#999999" points="863.014,288.537 865.957,294.593 866.818,294.266 863.873,288.21 		"/>
		<polygon fill="#999999" points="863.502,284.195 863.014,288.537 863.988,288.505 864.42,284.271 		"/>
		
			<rect x="876.197" y="292.14" transform="matrix(0.7063 -0.708 0.708 0.7063 50.9049 707.8904)" fill="#999999" width="4.629" height="0.922"/>
		
			<rect x="876.197" y="297.597" transform="matrix(0.7063 0.708 -0.708 0.7063 469.0618 -534.3917)" fill="#999999" width="4.629" height="0.921"/>
		<circle fill="#333333" cx="874.738" cy="295.519" r="3.993"/>
		<ellipse fill="#333333" cx="858.711" cy="295.519" rx="6.582" ry="4.946"/>
		<circle fill="#333333" cx="867.918" cy="295.518" r="3.598"/>
	</g>
	<g>
		<polygon fill="#999999" points="908.713,303.33 906.367,297.072 907.252,296.811 909.597,303.069 		"/>
		<polygon fill="#999999" points="911.727,306.492 908.713,303.33 909.501,302.772 912.412,305.876 		"/>
		<polygon fill="#999999" points="904.09,303.252 904.795,296.687 905.714,296.765 905.008,303.331 		"/>
		<polygon fill="#999999" points="905.749,307.294 904.09,303.252 905.018,303 906.611,306.969 		"/>
		<polygon fill="#999999" points="900.148,302.826 903.092,296.77 903.954,297.098 901.01,303.152 		"/>
		<polygon fill="#999999" points="900.638,307.168 900.148,302.826 901.124,302.857 901.556,307.09 		"/>
		<polygon fill="#999999" points="908.713,288.033 906.367,294.291 907.252,294.551 909.597,288.293 		"/>
		<polygon fill="#999999" points="911.727,284.87 908.713,288.033 909.501,288.59 912.412,285.486 		"/>
		<polygon fill="#999999" points="904.09,288.11 904.795,294.676 905.714,294.598 905.008,288.032 		"/>
		<polygon fill="#999999" points="905.749,284.068 904.09,288.11 905.018,288.363 906.611,284.395 		"/>
		<polygon fill="#999999" points="900.148,288.537 903.092,294.593 903.954,294.266 901.01,288.21 		"/>
		<polygon fill="#999999" points="900.638,284.195 900.148,288.537 901.124,288.505 901.556,284.271 		"/>
		
			<rect x="913.333" y="292.14" transform="matrix(0.7061 -0.7082 0.7082 0.7061 61.9449 734.4354)" fill="#999999" width="4.628" height="0.923"/>
		
			<rect x="913.333" y="297.597" transform="matrix(0.7061 0.7082 -0.7082 0.7061 480.2264 -560.8118)" fill="#999999" width="4.628" height="0.922"/>
		<circle fill="#333333" cx="911.874" cy="295.519" r="3.993"/>
		<ellipse fill="#333333" cx="895.846" cy="295.519" rx="6.58" ry="4.946"/>
		<circle fill="#333333" cx="905.054" cy="295.518" r="3.598"/>
	</g>
	<g>
		<polygon fill="#999999" points="945.849,303.33 943.504,297.072 944.388,296.811 946.732,303.069 		"/>
		<polygon fill="#999999" points="948.863,306.492 945.849,303.33 946.637,302.772 949.548,305.876 		"/>
		<polygon fill="#999999" points="941.226,303.252 941.931,296.687 942.85,296.765 942.144,303.331 		"/>
		<polygon fill="#999999" points="942.885,307.294 941.226,303.252 942.153,303 943.748,306.969 		"/>
		<polygon fill="#999999" points="937.285,302.826 940.229,296.77 941.09,297.098 938.146,303.152 		"/>
		<polygon fill="#999999" points="937.773,307.168 937.285,302.826 938.26,302.857 938.692,307.09 		"/>
		<polygon fill="#999999" points="945.849,288.033 943.504,294.291 944.388,294.551 946.732,288.293 		"/>
		<polygon fill="#999999" points="948.863,284.87 945.849,288.033 946.637,288.59 949.548,285.486 		"/>
		<polygon fill="#999999" points="941.226,288.11 941.931,294.676 942.85,294.598 942.144,288.032 		"/>
		<polygon fill="#999999" points="942.885,284.068 941.226,288.11 942.153,288.363 943.748,284.395 		"/>
		<polygon fill="#999999" points="937.285,288.537 940.229,294.593 941.09,294.266 938.146,288.21 		"/>
		<polygon fill="#999999" points="937.773,284.195 937.285,288.537 938.26,288.505 938.692,284.271 		"/>
		
			<rect x="950.469" y="292.14" transform="matrix(0.7062 -0.7081 0.7081 0.7062 72.7911 760.6023)" fill="#999999" width="4.629" height="0.923"/>
		
			<rect x="950.469" y="297.597" transform="matrix(0.7062 0.7081 -0.7081 0.7062 491.0103 -587.0412)" fill="#999999" width="4.629" height="0.922"/>
		<circle fill="#333333" cx="949.01" cy="295.519" r="3.993"/>
		<ellipse fill="#333333" cx="932.982" cy="295.519" rx="6.581" ry="4.946"/>
		<circle fill="#333333" cx="942.189" cy="295.518" r="3.598"/>
	</g>
	<g>
		<polygon fill="#999999" points="982.985,303.33 980.64,297.072 981.524,296.811 983.869,303.069 		"/>
		<polygon fill="#999999" points="985.999,306.492 982.985,303.33 983.773,302.772 986.685,305.876 		"/>
		<polygon fill="#999999" points="978.362,303.252 979.067,296.687 979.986,296.765 979.28,303.331 		"/>
		<polygon fill="#999999" points="980.021,307.294 978.362,303.252 979.29,303 980.884,306.969 		"/>
		<polygon fill="#999999" points="974.421,302.826 977.364,296.77 978.227,297.098 975.282,303.152 		"/>
		<polygon fill="#999999" points="974.91,307.168 974.421,302.826 975.396,302.857 975.828,307.09 		"/>
		<polygon fill="#999999" points="982.985,288.033 980.64,294.291 981.524,294.551 983.869,288.293 		"/>
		<polygon fill="#999999" points="985.999,284.87 982.985,288.033 983.773,288.59 986.685,285.486 		"/>
		<polygon fill="#999999" points="978.362,288.11 979.067,294.676 979.986,294.598 979.28,288.032 		"/>
		<polygon fill="#999999" points="980.021,284.068 978.362,288.11 979.29,288.363 980.884,284.395 		"/>
		<polygon fill="#999999" points="974.421,288.537 977.364,294.593 978.227,294.266 975.282,288.21 		"/>
		<polygon fill="#999999" points="974.91,284.195 974.421,288.537 975.396,288.505 975.828,284.271 		"/>
		
			<rect x="987.605" y="292.14" transform="matrix(0.7061 -0.7082 0.7082 0.7061 83.7772 787.0322)" fill="#999999" width="4.628" height="0.923"/>
		
			<rect x="987.605" y="297.597" transform="matrix(0.7061 0.7082 -0.7082 0.7061 502.0587 -613.4086)" fill="#999999" width="4.628" height="0.922"/>
		<circle fill="#333333" cx="986.146" cy="295.519" r="3.993"/>
		<ellipse fill="#333333" cx="970.118" cy="295.519" rx="6.58" ry="4.946"/>
		<circle fill="#333333" cx="979.326" cy="295.518" r="3.598"/>
	</g>
</g>
<g>
	<g>
		<polygon fill="#999999" points="760.169,273.188 757.823,266.932 758.708,266.67 761.053,272.928 		"/>
		<polygon fill="#999999" points="763.183,276.352 760.169,273.188 760.957,272.631 763.868,275.734 		"/>
		<polygon fill="#999999" points="755.546,273.111 756.251,266.545 757.17,266.623 756.464,273.189 		"/>
		<polygon fill="#999999" points="757.205,277.152 755.546,273.111 756.474,272.857 758.067,276.826 		"/>
		<polygon fill="#999999" points="751.604,272.684 754.548,266.629 755.41,266.955 752.466,273.012 		"/>
		<polygon fill="#999999" points="752.094,277.025 751.604,272.684 752.58,272.717 753.012,276.949 		"/>
		<polygon fill="#999999" points="760.169,257.893 757.823,264.148 758.708,264.41 761.053,258.152 		"/>
		<polygon fill="#999999" points="763.183,254.729 760.169,257.893 760.957,258.449 763.868,255.346 		"/>
		<polygon fill="#999999" points="755.546,257.969 756.251,264.535 757.17,264.457 756.464,257.891 		"/>
		<polygon fill="#999999" points="757.205,253.928 755.546,257.969 756.474,258.221 758.067,254.254 		"/>
		<polygon fill="#999999" points="751.604,258.395 754.548,264.451 755.41,264.125 752.466,258.068 		"/>
		<polygon fill="#999999" points="752.094,254.053 751.604,258.395 752.58,258.363 753.012,254.131 		"/>
		
			<rect x="764.789" y="261.999" transform="matrix(0.7061 -0.7082 0.7082 0.7061 39.6252 620.3823)" fill="#999999" width="4.628" height="0.922"/>
		
			<rect x="764.789" y="267.456" transform="matrix(0.7061 0.7082 -0.7082 0.7061 415.2176 -464.4785)" fill="#999999" width="4.628" height="0.922"/>
		<circle fill="#333333" cx="763.33" cy="265.377" r="3.992"/>
		<ellipse fill="#333333" cx="747.302" cy="265.377" rx="6.58" ry="4.947"/>
		<circle fill="#333333" cx="756.51" cy="265.377" r="3.598"/>
	</g>
	<g>
		<polygon fill="#999999" points="797.305,273.188 794.96,266.932 795.844,266.67 798.188,272.928 		"/>
		<polygon fill="#999999" points="800.319,276.352 797.305,273.188 798.093,272.631 801.004,275.734 		"/>
		<polygon fill="#999999" points="792.682,273.111 793.387,266.545 794.306,266.623 793.6,273.189 		"/>
		<polygon fill="#999999" points="794.341,277.152 792.682,273.111 793.609,272.857 795.204,276.826 		"/>
		<polygon fill="#999999" points="788.741,272.684 791.685,266.629 792.546,266.955 789.603,273.012 		"/>
		<polygon fill="#999999" points="789.229,277.025 788.741,272.684 789.716,272.717 790.148,276.949 		"/>
		<polygon fill="#999999" points="797.305,257.893 794.96,264.148 795.844,264.41 798.188,258.152 		"/>
		<polygon fill="#999999" points="800.319,254.729 797.305,257.893 798.093,258.449 801.004,255.346 		"/>
		<polygon fill="#999999" points="792.682,257.969 793.387,264.535 794.306,264.457 793.6,257.891 		"/>
		<polygon fill="#999999" points="794.341,253.928 792.682,257.969 793.609,258.221 795.204,254.254 		"/>
		<polygon fill="#999999" points="788.741,258.395 791.685,264.451 792.546,264.125 789.603,258.068 		"/>
		<polygon fill="#999999" points="789.229,254.053 788.741,258.395 789.716,258.363 790.148,254.131 		"/>
		
			<rect x="801.925" y="261.999" transform="matrix(0.7062 -0.7081 0.7081 0.7062 50.4841 646.5681)" fill="#999999" width="4.629" height="0.922"/>
		
			<rect x="801.925" y="267.456" transform="matrix(0.7062 0.7081 -0.7081 0.7062 426.0204 -490.7205)" fill="#999999" width="4.629" height="0.922"/>
		<circle fill="#333333" cx="800.466" cy="265.377" r="3.992"/>
		<ellipse fill="#333333" cx="784.438" cy="265.377" rx="6.581" ry="4.947"/>
		<circle fill="#333333" cx="793.646" cy="265.377" r="3.598"/>
	</g>
	<g>
		<polygon fill="#999999" points="834.441,273.188 832.096,266.932 832.98,266.67 835.325,272.928 		"/>
		<polygon fill="#999999" points="837.455,276.352 834.441,273.188 835.229,272.631 838.141,275.734 		"/>
		<polygon fill="#999999" points="829.818,273.111 830.523,266.545 831.442,266.623 830.736,273.189 		"/>
		<polygon fill="#999999" points="831.478,277.152 829.818,273.111 830.746,272.857 832.34,276.826 		"/>
		<polygon fill="#999999" points="825.877,272.684 828.82,266.629 829.683,266.955 826.738,273.012 		"/>
		<polygon fill="#999999" points="826.366,277.025 825.877,272.684 826.853,272.717 827.284,276.949 		"/>
		<polygon fill="#999999" points="834.441,257.893 832.096,264.148 832.98,264.41 835.325,258.152 		"/>
		<polygon fill="#999999" points="837.455,254.729 834.441,257.893 835.229,258.449 838.141,255.346 		"/>
		<polygon fill="#999999" points="829.818,257.969 830.523,264.535 831.442,264.457 830.736,257.891 		"/>
		<polygon fill="#999999" points="831.478,253.928 829.818,257.969 830.746,258.221 832.34,254.254 		"/>
		<polygon fill="#999999" points="825.877,258.395 828.82,264.451 829.683,264.125 826.738,258.068 		"/>
		<polygon fill="#999999" points="826.366,254.053 825.877,258.395 826.853,258.363 827.284,254.131 		"/>
		
			<rect x="839.062" y="261.999" transform="matrix(0.7061 -0.7082 0.7082 0.7061 61.4576 672.9792)" fill="#999999" width="4.628" height="0.922"/>
		
			<rect x="839.062" y="267.456" transform="matrix(0.7061 0.7082 -0.7082 0.7061 437.0499 -517.0754)" fill="#999999" width="4.628" height="0.922"/>
		<circle fill="#333333" cx="837.603" cy="265.377" r="3.992"/>
		<ellipse fill="#333333" cx="821.574" cy="265.377" rx="6.58" ry="4.947"/>
		<circle fill="#333333" cx="830.782" cy="265.377" r="3.598"/>
	</g>
	<g>
		<polygon fill="#999999" points="871.576,273.188 869.23,266.932 870.115,266.67 872.461,272.928 		"/>
		<polygon fill="#999999" points="874.592,276.352 871.576,273.188 872.365,272.631 875.275,275.734 		"/>
		<polygon fill="#999999" points="866.953,273.111 867.658,266.545 868.578,266.623 867.871,273.189 		"/>
		<polygon fill="#999999" points="868.613,277.152 866.953,273.111 867.881,272.857 869.475,276.826 		"/>
		<polygon fill="#999999" points="863.014,272.684 865.957,266.629 866.818,266.955 863.873,273.012 		"/>
		<polygon fill="#999999" points="863.502,277.025 863.014,272.684 863.988,272.717 864.42,276.949 		"/>
		<polygon fill="#999999" points="871.576,257.893 869.23,264.148 870.115,264.41 872.461,258.152 		"/>
		<polygon fill="#999999" points="874.592,254.729 871.576,257.893 872.365,258.449 875.275,255.346 		"/>
		<polygon fill="#999999" points="866.953,257.969 867.658,264.535 868.578,264.457 867.871,257.891 		"/>
		<polygon fill="#999999" points="868.613,253.928 866.953,257.969 867.881,258.221 869.475,254.254 		"/>
		<polygon fill="#999999" points="863.014,258.395 865.957,264.451 866.818,264.125 863.873,258.068 		"/>
		<polygon fill="#999999" points="863.502,254.053 863.014,258.395 863.988,258.363 864.42,254.131 		"/>
		
			<rect x="876.197" y="261.999" transform="matrix(0.7063 -0.708 0.708 0.7063 72.2433 699.0368)" fill="#999999" width="4.629" height="0.921"/>
		
			<rect x="876.197" y="267.456" transform="matrix(0.7063 0.708 -0.708 0.7063 447.7237 -543.2452)" fill="#999999" width="4.629" height="0.921"/>
		<circle fill="#333333" cx="874.738" cy="265.377" r="3.992"/>
		<ellipse fill="#333333" cx="858.711" cy="265.377" rx="6.582" ry="4.947"/>
		<circle fill="#333333" cx="867.918" cy="265.377" r="3.598"/>
	</g>
	<g>
		<polygon fill="#999999" points="908.713,273.188 906.367,266.932 907.252,266.67 909.597,272.928 		"/>
		<polygon fill="#999999" points="911.727,276.352 908.713,273.188 909.501,272.631 912.412,275.734 		"/>
		<polygon fill="#999999" points="904.09,273.111 904.795,266.545 905.714,266.623 905.008,273.189 		"/>
		<polygon fill="#999999" points="905.749,277.152 904.09,273.111 905.018,272.857 906.611,276.826 		"/>
		<polygon fill="#999999" points="900.148,272.684 903.092,266.629 903.954,266.955 901.01,273.012 		"/>
		<polygon fill="#999999" points="900.638,277.025 900.148,272.684 901.124,272.717 901.556,276.949 		"/>
		<polygon fill="#999999" points="908.713,257.893 906.367,264.148 907.252,264.41 909.597,258.152 		"/>
		<polygon fill="#999999" points="911.727,254.729 908.713,257.893 909.501,258.449 912.412,255.346 		"/>
		<polygon fill="#999999" points="904.09,257.969 904.795,264.535 905.714,264.457 905.008,257.891 		"/>
		<polygon fill="#999999" points="905.749,253.928 904.09,257.969 905.018,258.221 906.611,254.254 		"/>
		<polygon fill="#999999" points="900.148,258.395 903.092,264.451 903.954,264.125 901.01,258.068 		"/>
		<polygon fill="#999999" points="900.638,254.053 900.148,258.395 901.124,258.363 901.556,254.131 		"/>
		
			<rect x="913.333" y="261.999" transform="matrix(0.7061 -0.7082 0.7082 0.7061 83.2897 725.5754)" fill="#999999" width="4.628" height="0.922"/>
		
			<rect x="913.333" y="267.456" transform="matrix(0.7061 0.7082 -0.7082 0.7061 458.882 -569.6716)" fill="#999999" width="4.628" height="0.922"/>
		<circle fill="#333333" cx="911.874" cy="265.377" r="3.992"/>
		<ellipse fill="#333333" cx="895.846" cy="265.377" rx="6.58" ry="4.947"/>
		<circle fill="#333333" cx="905.054" cy="265.377" r="3.598"/>
	</g>
	<g>
		<polygon fill="#999999" points="945.849,273.188 943.504,266.932 944.388,266.67 946.732,272.928 		"/>
		<polygon fill="#999999" points="948.863,276.352 945.849,273.188 946.637,272.631 949.548,275.734 		"/>
		<polygon fill="#999999" points="941.226,273.111 941.931,266.545 942.85,266.623 942.144,273.189 		"/>
		<polygon fill="#999999" points="942.885,277.152 941.226,273.111 942.153,272.857 943.748,276.826 		"/>
		<polygon fill="#999999" points="937.285,272.684 940.229,266.629 941.09,266.955 938.146,273.012 		"/>
		<polygon fill="#999999" points="937.773,277.025 937.285,272.684 938.26,272.717 938.692,276.949 		"/>
		<polygon fill="#999999" points="945.849,257.893 943.504,264.148 944.388,264.41 946.732,258.152 		"/>
		<polygon fill="#999999" points="948.863,254.729 945.849,257.893 946.637,258.449 949.548,255.346 		"/>
		<polygon fill="#999999" points="941.226,257.969 941.931,264.535 942.85,264.457 942.144,257.891 		"/>
		<polygon fill="#999999" points="942.885,253.928 941.226,257.969 942.153,258.221 943.748,254.254 		"/>
		<polygon fill="#999999" points="937.285,258.395 940.229,264.451 941.09,264.125 938.146,258.068 		"/>
		<polygon fill="#999999" points="937.773,254.053 937.285,258.395 938.26,258.363 938.692,254.131 		"/>
		
			<rect x="950.469" y="261.999" transform="matrix(0.7062 -0.7081 0.7081 0.7062 94.1327 751.7455)" fill="#999999" width="4.629" height="0.922"/>
		
			<rect x="950.469" y="267.456" transform="matrix(0.7062 0.7081 -0.7081 0.7062 469.6691 -595.8978)" fill="#999999" width="4.629" height="0.922"/>
		<circle fill="#333333" cx="949.01" cy="265.377" r="3.992"/>
		<ellipse fill="#333333" cx="932.982" cy="265.377" rx="6.581" ry="4.947"/>
		<circle fill="#333333" cx="942.189" cy="265.377" r="3.598"/>
	</g>
	<g>
		<polygon fill="#999999" points="982.985,273.188 980.64,266.932 981.524,266.67 983.869,272.928 		"/>
		<polygon fill="#999999" points="985.999,276.352 982.985,273.188 983.773,272.631 986.685,275.734 		"/>
		<polygon fill="#999999" points="978.362,273.111 979.067,266.545 979.986,266.623 979.28,273.189 		"/>
		<polygon fill="#999999" points="980.021,277.152 978.362,273.111 979.29,272.857 980.884,276.826 		"/>
		<polygon fill="#999999" points="974.421,272.684 977.364,266.629 978.227,266.955 975.282,273.012 		"/>
		<polygon fill="#999999" points="974.91,277.025 974.421,272.684 975.396,272.717 975.828,276.949 		"/>
		<polygon fill="#999999" points="982.985,257.893 980.64,264.148 981.524,264.41 983.869,258.152 		"/>
		<polygon fill="#999999" points="985.999,254.729 982.985,257.893 983.773,258.449 986.685,255.346 		"/>
		<polygon fill="#999999" points="978.362,257.969 979.067,264.535 979.986,264.457 979.28,257.891 		"/>
		<polygon fill="#999999" points="980.021,253.928 978.362,257.969 979.29,258.221 980.884,254.254 		"/>
		<polygon fill="#999999" points="974.421,258.395 977.364,264.451 978.227,264.125 975.282,258.068 		"/>
		<polygon fill="#999999" points="974.91,254.053 974.421,258.395 975.396,258.363 975.828,254.131 		"/>
		
			<rect x="987.605" y="261.999" transform="matrix(0.7061 -0.7082 0.7082 0.7061 105.1219 778.1722)" fill="#999999" width="4.628" height="0.922"/>
		
			<rect x="987.605" y="267.456" transform="matrix(0.7061 0.7082 -0.7082 0.7061 480.7143 -622.2684)" fill="#999999" width="4.628" height="0.922"/>
		<circle fill="#333333" cx="986.146" cy="265.377" r="3.992"/>
		<ellipse fill="#333333" cx="970.118" cy="265.377" rx="6.58" ry="4.947"/>
		<circle fill="#333333" cx="979.326" cy="265.377" r="3.598"/>
	</g>
</g>
<g>
	<g>
		<polygon fill="#999999" points="760.169,243.047 757.823,236.79 758.708,236.529 761.053,242.787 		"/>
		<polygon fill="#999999" points="763.183,246.21 760.169,243.047 760.957,242.49 763.868,245.594 		"/>
		<polygon fill="#999999" points="755.546,242.97 756.251,236.404 757.17,236.482 756.464,243.049 		"/>
		<polygon fill="#999999" points="757.205,247.012 755.546,242.97 756.474,242.717 758.067,246.686 		"/>
		<polygon fill="#999999" points="751.604,242.543 754.548,236.487 755.41,236.814 752.466,242.871 		"/>
		<polygon fill="#999999" points="752.094,246.885 751.604,242.543 752.58,242.575 753.012,246.809 		"/>
		<polygon fill="#999999" points="760.169,227.751 757.823,234.008 758.708,234.27 761.053,228.012 		"/>
		<polygon fill="#999999" points="763.183,224.588 760.169,227.751 760.957,228.308 763.868,225.204 		"/>
		<polygon fill="#999999" points="755.546,227.828 756.251,234.394 757.17,234.315 756.464,227.75 		"/>
		<polygon fill="#999999" points="757.205,223.786 755.546,227.828 756.474,228.08 758.067,224.112 		"/>
		<polygon fill="#999999" points="751.604,228.254 754.548,234.311 755.41,233.983 752.466,227.928 		"/>
		<polygon fill="#999999" points="752.094,223.912 751.604,228.254 752.58,228.223 753.012,223.99 		"/>
		
			<rect x="764.789" y="231.858" transform="matrix(0.7061 -0.7082 0.7082 0.7061 60.97 611.5224)" fill="#999999" width="4.628" height="0.923"/>
		
			<rect x="764.789" y="237.315" transform="matrix(0.7062 0.7081 -0.7081 0.7062 393.7668 -473.2829)" fill="#999999" width="4.627" height="0.922"/>
		<circle fill="#333333" cx="763.33" cy="235.236" r="3.993"/>
		<ellipse fill="#333333" cx="747.302" cy="235.236" rx="6.58" ry="4.947"/>
		<circle fill="#333333" cx="756.51" cy="235.236" r="3.598"/>
	</g>
	<g>
		<polygon fill="#999999" points="797.305,243.047 794.96,236.79 795.844,236.529 798.188,242.787 		"/>
		<polygon fill="#999999" points="800.319,246.21 797.305,243.047 798.093,242.49 801.004,245.594 		"/>
		<polygon fill="#999999" points="792.682,242.97 793.387,236.404 794.306,236.482 793.6,243.049 		"/>
		<polygon fill="#999999" points="794.341,247.012 792.682,242.97 793.609,242.717 795.204,246.686 		"/>
		<polygon fill="#999999" points="788.741,242.543 791.685,236.487 792.546,236.814 789.603,242.871 		"/>
		<polygon fill="#999999" points="789.229,246.885 788.741,242.543 789.716,242.575 790.148,246.809 		"/>
		<polygon fill="#999999" points="797.305,227.751 794.96,234.008 795.844,234.27 798.188,228.012 		"/>
		<polygon fill="#999999" points="800.319,224.588 797.305,227.751 798.093,228.308 801.004,225.204 		"/>
		<polygon fill="#999999" points="792.682,227.828 793.387,234.394 794.306,234.315 793.6,227.75 		"/>
		<polygon fill="#999999" points="794.341,223.786 792.682,227.828 793.609,228.08 795.204,224.112 		"/>
		<polygon fill="#999999" points="788.741,228.254 791.685,234.311 792.546,233.983 789.603,227.928 		"/>
		<polygon fill="#999999" points="789.229,223.912 788.741,228.254 789.716,228.223 790.148,223.99 		"/>
		
			<rect x="801.925" y="231.858" transform="matrix(0.7062 -0.7081 0.7081 0.7062 71.8257 637.7114)" fill="#999999" width="4.629" height="0.923"/>
		
			<rect x="801.925" y="237.315" transform="matrix(0.7063 0.708 -0.708 0.7063 404.569 -499.5177)" fill="#999999" width="4.628" height="0.922"/>
		<circle fill="#333333" cx="800.466" cy="235.236" r="3.993"/>
		<ellipse fill="#333333" cx="784.438" cy="235.236" rx="6.581" ry="4.947"/>
		<circle fill="#333333" cx="793.646" cy="235.236" r="3.598"/>
	</g>
	<g>
		<polygon fill="#999999" points="834.441,243.047 832.096,236.79 832.98,236.529 835.325,242.787 		"/>
		<polygon fill="#999999" points="837.455,246.21 834.441,243.047 835.229,242.49 838.141,245.594 		"/>
		<polygon fill="#999999" points="829.818,242.97 830.523,236.404 831.442,236.482 830.736,243.049 		"/>
		<polygon fill="#999999" points="831.478,247.012 829.818,242.97 830.746,242.717 832.34,246.686 		"/>
		<polygon fill="#999999" points="825.877,242.543 828.82,236.487 829.683,236.814 826.738,242.871 		"/>
		<polygon fill="#999999" points="826.366,246.885 825.877,242.543 826.853,242.575 827.284,246.809 		"/>
		<polygon fill="#999999" points="834.441,227.751 832.096,234.008 832.98,234.27 835.325,228.012 		"/>
		<polygon fill="#999999" points="837.455,224.588 834.441,227.751 835.229,228.308 838.141,225.204 		"/>
		<polygon fill="#999999" points="829.818,227.828 830.523,234.394 831.442,234.315 830.736,227.75 		"/>
		<polygon fill="#999999" points="831.478,223.786 829.818,227.828 830.746,228.08 832.34,224.112 		"/>
		<polygon fill="#999999" points="825.877,228.254 828.82,234.311 829.683,233.983 826.738,227.928 		"/>
		<polygon fill="#999999" points="826.366,223.912 825.877,228.254 826.853,228.223 827.284,223.99 		"/>
		
			<rect x="839.062" y="231.858" transform="matrix(0.7061 -0.7082 0.7082 0.7061 82.8024 664.1193)" fill="#999999" width="4.628" height="0.923"/>
		
			<rect x="839.062" y="237.315" transform="matrix(0.7062 0.7081 -0.7081 0.7062 415.5914 -525.8719)" fill="#999999" width="4.627" height="0.922"/>
		<circle fill="#333333" cx="837.603" cy="235.236" r="3.993"/>
		<ellipse fill="#333333" cx="821.574" cy="235.236" rx="6.58" ry="4.947"/>
		<circle fill="#333333" cx="830.782" cy="235.236" r="3.598"/>
	</g>
	<g>
		<polygon fill="#999999" points="908.713,243.047 906.367,236.79 907.252,236.529 909.597,242.787 		"/>
		<polygon fill="#999999" points="911.727,246.21 908.713,243.047 909.501,242.49 912.412,245.594 		"/>
		<polygon fill="#999999" points="904.09,242.97 904.795,236.404 905.714,236.482 905.008,243.049 		"/>
		<polygon fill="#999999" points="905.749,247.012 904.09,242.97 905.018,242.717 906.611,246.686 		"/>
		<polygon fill="#999999" points="900.148,242.543 903.092,236.487 903.954,236.814 901.01,242.871 		"/>
		<polygon fill="#999999" points="900.638,246.885 900.148,242.543 901.124,242.575 901.556,246.809 		"/>
		<polygon fill="#999999" points="908.713,227.751 906.367,234.008 907.252,234.27 909.597,228.012 		"/>
		<polygon fill="#999999" points="911.727,224.588 908.713,227.751 909.501,228.308 912.412,225.204 		"/>
		<polygon fill="#999999" points="904.09,227.828 904.795,234.394 905.714,234.315 905.008,227.75 		"/>
		<polygon fill="#999999" points="905.749,223.786 904.09,227.828 905.018,228.08 906.611,224.112 		"/>
		<polygon fill="#999999" points="900.148,228.254 903.092,234.311 903.954,233.983 901.01,227.928 		"/>
		<polygon fill="#999999" points="900.638,223.912 900.148,228.254 901.124,228.223 901.556,223.99 		"/>
		
			<rect x="913.333" y="231.858" transform="matrix(0.7061 -0.7082 0.7082 0.7061 104.6344 716.7155)" fill="#999999" width="4.628" height="0.923"/>
		
			<rect x="913.333" y="237.315" transform="matrix(0.7062 0.7081 -0.7081 0.7062 437.4155 -578.4603)" fill="#999999" width="4.627" height="0.922"/>
		<circle fill="#333333" cx="911.874" cy="235.236" r="3.993"/>
		<ellipse fill="#333333" cx="895.846" cy="235.236" rx="6.58" ry="4.947"/>
		<circle fill="#333333" cx="905.054" cy="235.236" r="3.598"/>
	</g>
	<g>
		<polygon fill="#999999" points="945.849,243.047 943.504,236.79 944.388,236.529 946.732,242.787 		"/>
		<polygon fill="#999999" points="948.863,246.21 945.849,243.047 946.637,242.49 949.548,245.594 		"/>
		<polygon fill="#999999" points="941.226,242.97 941.931,236.404 942.85,236.482 942.144,243.049 		"/>
		<polygon fill="#999999" points="942.885,247.012 941.226,242.97 942.153,242.717 943.748,246.686 		"/>
		<polygon fill="#999999" points="937.285,242.543 940.229,236.487 941.09,236.814 938.146,242.871 		"/>
		<polygon fill="#999999" points="937.773,246.885 937.285,242.543 938.26,242.575 938.692,246.809 		"/>
		<polygon fill="#999999" points="945.849,227.751 943.504,234.008 944.388,234.27 946.732,228.012 		"/>
		<polygon fill="#999999" points="948.863,224.588 945.849,227.751 946.637,228.308 949.548,225.204 		"/>
		<polygon fill="#999999" points="941.226,227.828 941.931,234.394 942.85,234.315 942.144,227.75 		"/>
		<polygon fill="#999999" points="942.885,223.786 941.226,227.828 942.153,228.08 943.748,224.112 		"/>
		<polygon fill="#999999" points="937.285,228.254 940.229,234.311 941.09,233.983 938.146,227.928 		"/>
		<polygon fill="#999999" points="937.773,223.912 937.285,228.254 938.26,228.223 938.692,223.99 		"/>
		
			<rect x="950.469" y="231.858" transform="matrix(0.7062 -0.7081 0.7081 0.7062 115.4743 742.8887)" fill="#999999" width="4.629" height="0.923"/>
		
			<rect x="950.469" y="237.315" transform="matrix(0.7063 0.708 -0.708 0.7063 448.2019 -604.6794)" fill="#999999" width="4.628" height="0.922"/>
		<circle fill="#333333" cx="949.01" cy="235.236" r="3.993"/>
		<ellipse fill="#333333" cx="932.982" cy="235.236" rx="6.581" ry="4.947"/>
		<circle fill="#333333" cx="942.189" cy="235.236" r="3.598"/>
	</g>
	<g>
		<polygon fill="#999999" points="982.985,243.047 980.64,236.79 981.524,236.529 983.869,242.787 		"/>
		<polygon fill="#999999" points="985.999,246.21 982.985,243.047 983.773,242.49 986.685,245.594 		"/>
		<polygon fill="#999999" points="978.362,242.97 979.067,236.404 979.986,236.482 979.28,243.049 		"/>
		<polygon fill="#999999" points="980.021,247.012 978.362,242.97 979.29,242.717 980.884,246.686 		"/>
		<polygon fill="#999999" points="974.421,242.543 977.364,236.487 978.227,236.814 975.282,242.871 		"/>
		<polygon fill="#999999" points="974.91,246.885 974.421,242.543 975.396,242.575 975.828,246.809 		"/>
		<polygon fill="#999999" points="982.985,227.751 980.64,234.008 981.524,234.27 983.869,228.012 		"/>
		<polygon fill="#999999" points="985.999,224.588 982.985,227.751 983.773,228.308 986.685,225.204 		"/>
		<polygon fill="#999999" points="978.362,227.828 979.067,234.394 979.986,234.315 979.28,227.75 		"/>
		<polygon fill="#999999" points="980.021,223.786 978.362,227.828 979.29,228.08 980.884,224.112 		"/>
		<polygon fill="#999999" points="974.421,228.254 977.364,234.311 978.227,233.983 975.282,227.928 		"/>
		<polygon fill="#999999" points="974.91,223.912 974.421,228.254 975.396,228.223 975.828,223.99 		"/>
		
			<rect x="987.605" y="231.858" transform="matrix(0.7061 -0.7082 0.7082 0.7061 126.4667 769.3123)" fill="#999999" width="4.628" height="0.923"/>
		
			<rect x="987.606" y="237.315" transform="matrix(0.7062 0.7081 -0.7081 0.7062 459.2401 -631.0494)" fill="#999999" width="4.627" height="0.922"/>
		<circle fill="#333333" cx="986.146" cy="235.236" r="3.993"/>
		<ellipse fill="#333333" cx="970.118" cy="235.236" rx="6.58" ry="4.947"/>
		<circle fill="#333333" cx="979.326" cy="235.236" r="3.598"/>
	</g>
	<g>
		<polygon fill="#999999" points="871.576,243.047 869.23,236.79 870.115,236.529 872.461,242.787 		"/>
		<polygon fill="#999999" points="874.592,246.21 871.576,243.047 872.365,242.49 875.275,245.594 		"/>
		<polygon fill="#999999" points="866.953,242.97 867.658,236.404 868.578,236.482 867.871,243.049 		"/>
		<polygon fill="#999999" points="868.613,247.012 866.953,242.97 867.881,242.717 869.475,246.686 		"/>
		<polygon fill="#999999" points="863.014,242.543 865.957,236.487 866.818,236.814 863.873,242.871 		"/>
		<polygon fill="#999999" points="863.502,246.885 863.014,242.543 863.988,242.575 864.42,246.809 		"/>
		<polygon fill="#999999" points="871.576,227.751 869.23,234.008 870.115,234.27 872.461,228.012 		"/>
		<polygon fill="#999999" points="874.592,224.588 871.576,227.751 872.365,228.308 875.275,225.204 		"/>
		<polygon fill="#999999" points="866.953,227.828 867.658,234.394 868.578,234.315 867.871,227.75 		"/>
		<polygon fill="#999999" points="868.613,223.786 866.953,227.828 867.881,228.08 869.475,224.112 		"/>
		<polygon fill="#999999" points="863.014,228.254 865.957,234.311 866.818,233.983 863.873,227.928 		"/>
		<polygon fill="#999999" points="863.502,223.912 863.014,228.254 863.988,228.223 864.42,223.99 		"/>
		
			<rect x="876.197" y="231.858" transform="matrix(0.7063 -0.708 0.708 0.7063 93.5817 690.1832)" fill="#999999" width="4.629" height="0.922"/>
		
			<rect x="876.197" y="237.315" transform="matrix(0.7064 0.7078 -0.7078 0.7064 426.2676 -552.0314)" fill="#999999" width="4.629" height="0.921"/>
		<circle fill="#333333" cx="874.738" cy="235.236" r="3.993"/>
		<ellipse fill="#333333" cx="858.711" cy="235.236" rx="6.582" ry="4.947"/>
		<circle fill="#333333" cx="867.918" cy="235.236" r="3.598"/>
	</g>
</g>
</svg>
