<?xml version="1.0" encoding="utf-8"?>
<!-- Generator: Adobe Illustrator 16.0.0, SVG Export Plug-In . SVG Version: 6.00 Build 0)  -->
<!DOCTYPE svg PUBLIC "-//W3C//DTD SVG 1.1//EN" "http://www.w3.org/Graphics/SVG/1.1/DTD/svg11.dtd">
<svg version="1.1" id="Layer_1" xmlns="http://www.w3.org/2000/svg" xmlns:xlink="http://www.w3.org/1999/xlink" x="0px" y="0px"
	 viewBox="0 0 368.456 1235" enable-background="new 0 0 368.456 1235" xml:space="preserve">
<g>
	<g>
		<path fill="#2EA3F2" d="M296.786,193c0,11.046-8.954,20-20,20h-227c-11.046,0-20-8.954-20-20V20c0-11.046,8.954-20,20-20h227
			c11.046,0,20,8.954,20,20V193z"/>
		<g>
			<rect x="68.164" y="20.211" fill="none" width="190.49" height="18.134"/>
			<text transform="matrix(1 0 0 1 70.4194 36.9307)" fill="#F7F7F7" font-family="'Open Sans', sans-serif" font-size="22">Uma Rede Pública</text>
		</g>
		<g>
			<rect x="18.856" y="241.502" fill="none" width="289.105" height="112.722"/>
			<text transform="matrix(1 0 0 1 97.7495 256.7021)"><tspan x="0" y="0" fill="#333333" font-family="'Open Sans', sans-serif" font-size="20">Mais Usuários</tspan><tspan x="59.941" y="24" fill="#333333" font-family="'Open Sans', sans-serif" font-size="20">= </tspan><tspan x="-75.879" y="48" fill="#333333" font-family="'Open Sans', sans-serif" font-size="20">Mais Poder de Processamento</tspan><tspan x="59.941" y="72" fill="#333333" font-family="'Open Sans', sans-serif" font-size="20">= </tspan><tspan x="-7.646" y="96" fill="#333333" font-family="'Open Sans', sans-serif" font-size="20">Mais Segurança</tspan></text>
		</g>
		
			<line fill="none" stroke="#333333" stroke-width="2" stroke-miterlimit="10" stroke-dasharray="4" x1="141.184" y1="83.787" x2="217.704" y2="134.666"/>
		
			<line fill="none" stroke="#333333" stroke-width="2" stroke-miterlimit="10" stroke-dasharray="4" x1="185.53" y1="83.768" x2="109.011" y2="134.707"/>
		
			<line fill="none" stroke="#333333" stroke-width="2" stroke-miterlimit="10" stroke-dasharray="4" x1="185.53" y1="83.768" x2="163.357" y2="168.775"/>
		
			<line fill="none" stroke="#333333" stroke-width="2" stroke-miterlimit="10" stroke-dasharray="4" x1="141.184" y1="83.787" x2="163.357" y2="168.775"/>
		<polygon fill="none" stroke="#333333" stroke-width="2" stroke-miterlimit="10" stroke-dasharray="4" points="141.184,83.787 
			185.53,83.768 217.704,134.666 163.357,168.775 109.011,134.707 		"/>
		<g>
			<circle fill="#F7F7F7" cx="109.005" cy="118.667" r="4.324"/>
			<path fill="#F7F7F7" d="M118.016,126.798c0,1.167-1.99,1.673-2.971,1.673l-12.328,0.005c-0.98,0.001-2.813-0.305-2.814-1.475l0,0
				c0-1.165,3.591-2.752,4.573-2.753l9.062-0.003C114.521,124.245,118.015,125.631,118.016,126.798L118.016,126.798z"/>
			<path fill="#F7F7F7" d="M114.895,142.398c0.001,0.927,0.75,1.674,1.673,1.674l0,0c0.927-0.001,1.674-0.749,1.674-1.674
				l-0.007-14.783c-0.001-0.924-0.749-1.674-1.674-1.675l0,0c-0.924,0.001-1.674,0.753-1.673,1.676L114.895,142.398z"/>
			<path fill="#F7F7F7" d="M110.139,158.834c0.001,0.923,0.75,1.672,1.673,1.673l0,0c0.925-0.001,1.674-0.751,1.673-1.674
				l-0.007-14.784c-0.001-0.926-0.749-1.674-1.674-1.674l0,0c-0.924,0.002-1.673,0.751-1.672,1.676L110.139,158.834z"/>
			<path fill="#F7F7F7" d="M104.559,158.837c0.001,0.923,0.751,1.673,1.677,1.671l0,0c0.923,0.001,1.673-0.748,1.673-1.674
				l-0.007-14.781c-0.001-0.926-0.753-1.675-1.673-1.676l0,0c-0.928,0.001-1.676,0.751-1.676,1.676L104.559,158.837z"/>
			<path fill="#F7F7F7" d="M99.79,142.407c0,0.924,0.747,1.673,1.673,1.671l0,0c0.925,0,1.673-0.749,1.674-1.673l-0.007-14.783
				c-0.001-0.924-0.752-1.674-1.675-1.672l0,0c-0.926-0.002-1.673,0.751-1.673,1.673L99.79,142.407z"/>
			<rect x="104.547" y="125.084" fill="#F7F7F7" width="8.926" height="19.246"/>
		</g>
		<g>
			<circle fill="#F7F7F7" cx="141.178" cy="67.75" r="4.324"/>
			<path fill="#F7F7F7" d="M150.189,75.878c0,1.169-1.99,1.674-2.973,1.674l-12.327,0.005c-0.978,0.002-2.814-0.307-2.814-1.473l0,0
				c0-1.168,3.591-2.754,4.573-2.755l9.063-0.003C146.694,73.326,150.188,74.711,150.189,75.878L150.189,75.878z"/>
			<path fill="#F7F7F7" d="M147.068,91.48c0,0.926,0.749,1.673,1.674,1.673l0,0c0.926-0.001,1.673-0.749,1.673-1.674l-0.008-14.783
				c0-0.923-0.748-1.673-1.673-1.672l0,0c-0.925,0-1.673,0.751-1.673,1.674L147.068,91.48z"/>
			<path fill="#F7F7F7" d="M142.312,107.916c0,0.923,0.751,1.672,1.673,1.672l0,0c0.927-0.001,1.673-0.751,1.674-1.674
				l-0.007-14.783c-0.001-0.924-0.748-1.674-1.675-1.673l0,0c-0.923-0.001-1.673,0.749-1.671,1.674L142.312,107.916z"/>
			<path fill="#F7F7F7" d="M136.733,107.918c0.001,0.924,0.749,1.674,1.675,1.673l0,0c0.923-0.001,1.672-0.751,1.674-1.675
				l-0.008-14.781c-0.001-0.928-0.752-1.677-1.673-1.677l0,0c-0.927,0.002-1.675,0.753-1.675,1.677L136.733,107.918z"/>
			<path fill="#F7F7F7" d="M131.962,91.488c0.002,0.924,0.751,1.672,1.675,1.672l0,0c0.925,0,1.672-0.748,1.671-1.673l-0.007-14.783
				c0.001-0.925-0.749-1.673-1.674-1.673l0,0c-0.925,0-1.671,0.75-1.672,1.674L131.962,91.488z"/>
			<rect x="136.723" y="74.166" fill="#F7F7F7" width="8.923" height="19.245"/>
		</g>
		<g>
			<circle fill="#F7F7F7" cx="163.351" cy="152.737" r="4.324"/>
			<path fill="#F7F7F7" d="M172.362,160.866c0,1.169-1.991,1.675-2.972,1.675l-12.329,0.006c-0.979,0-2.812-0.307-2.812-1.474l0,0
				c-0.001-1.169,3.59-2.755,4.573-2.755l9.063-0.003C168.868,158.313,172.36,159.699,172.362,160.866L172.362,160.866z"/>
			<path fill="#F7F7F7" d="M169.239,176.471c0.001,0.925,0.751,1.67,1.676,1.67l0,0c0.925,0,1.673-0.748,1.673-1.672l-0.007-14.783
				c0-0.925-0.749-1.674-1.674-1.674l0,0c-0.925,0-1.675,0.752-1.674,1.674L169.239,176.471z"/>
			<path fill="#F7F7F7" d="M164.483,192.904c0.002,0.922,0.752,1.671,1.675,1.672l0,0c0.927-0.001,1.673-0.751,1.671-1.673
				l-0.006-14.785c0-0.924-0.746-1.674-1.674-1.673l0,0c-0.923,0-1.672,0.75-1.672,1.674L164.483,192.904z"/>
			<path fill="#F7F7F7" d="M158.907,192.905c0,0.925,0.749,1.673,1.675,1.673l0,0c0.922-0.001,1.672-0.749,1.672-1.673
				l-0.008-14.784c0.001-0.926-0.751-1.674-1.673-1.674l0,0c-0.926,0-1.673,0.75-1.674,1.676L158.907,192.905z"/>
			<path fill="#F7F7F7" d="M154.137,176.476c0,0.925,0.747,1.674,1.673,1.673l0,0c0.924-0.002,1.674-0.749,1.672-1.675
				l-0.007-14.781c0-0.925-0.75-1.674-1.674-1.673l0,0c-0.926-0.001-1.673,0.75-1.672,1.674L154.137,176.476z"/>
			<rect x="158.896" y="159.152" fill="#F7F7F7" width="8.923" height="19.246"/>
		</g>
		<g>
			<circle fill="#F7F7F7" cx="185.524" cy="67.729" r="4.324"/>
			<path fill="#F7F7F7" d="M194.533,75.857c0.002,1.168-1.987,1.673-2.97,1.674l-12.327,0.007c-0.98,0.001-2.813-0.308-2.814-1.476
				l0,0c0-1.166,3.59-2.752,4.572-2.753l9.064-0.005C191.041,73.305,194.535,74.691,194.533,75.857L194.533,75.857z"/>
			<path fill="#F7F7F7" d="M191.414,91.461c0,0.926,0.75,1.672,1.674,1.672l0,0c0.926,0,1.675-0.75,1.673-1.673l-0.007-14.784
				c0-0.923-0.75-1.673-1.676-1.672l0,0c-0.924,0-1.671,0.75-1.671,1.673L191.414,91.461z"/>
			<path fill="#F7F7F7" d="M186.656,107.896c0.001,0.923,0.753,1.673,1.674,1.672l0,0c0.926-0.002,1.675-0.75,1.673-1.674
				l-0.007-14.782c0-0.925-0.748-1.676-1.673-1.674l0,0c-0.923-0.002-1.675,0.749-1.674,1.674L186.656,107.896z"/>
			<path fill="#F7F7F7" d="M181.08,107.897c0,0.925,0.749,1.672,1.675,1.673l0,0c0.923-0.001,1.673-0.752,1.672-1.674l-0.007-14.783
				c0-0.926-0.751-1.676-1.674-1.674l0,0c-0.925-0.001-1.674,0.75-1.674,1.676L181.08,107.897z"/>
			<path fill="#F7F7F7" d="M176.311,91.467c-0.001,0.926,0.746,1.672,1.672,1.673l0,0c0.924-0.001,1.673-0.749,1.673-1.673
				l-0.007-14.783c-0.001-0.924-0.751-1.675-1.674-1.675l0,0c-0.926,0.002-1.673,0.752-1.672,1.677L176.311,91.467z"/>
			<rect x="181.069" y="74.145" fill="#F7F7F7" width="8.923" height="19.246"/>
		</g>
		<g>
			<circle fill="#F7F7F7" cx="217.695" cy="118.628" r="4.324"/>
			<path fill="#F7F7F7" d="M226.708,126.756c0,1.167-1.99,1.674-2.971,1.674l-12.33,0.006c-0.978,0-2.812-0.307-2.812-1.474l0,0
				c0-1.169,3.589-2.754,4.572-2.754l9.062-0.005C223.213,124.203,226.708,125.588,226.708,126.756L226.708,126.756z"/>
			<path fill="#F7F7F7" d="M223.586,142.358c0.001,0.926,0.751,1.673,1.676,1.673l0,0c0.925,0,1.671-0.749,1.671-1.673
				l-0.006-14.784c-0.001-0.924-0.748-1.674-1.673-1.673l0,0c-0.925-0.001-1.676,0.751-1.675,1.675L223.586,142.358z"/>
			<path fill="#F7F7F7" d="M218.827,158.794c0.002,0.921,0.755,1.672,1.677,1.671l0,0c0.926,0,1.673-0.75,1.673-1.674l-0.006-14.783
				c-0.002-0.925-0.75-1.674-1.676-1.674l0,0c-0.923,0-1.673,0.75-1.673,1.676L218.827,158.794z"/>
			<path fill="#F7F7F7" d="M213.253,158.797c-0.002,0.923,0.748,1.671,1.674,1.671l0,0c0.924,0,1.674-0.749,1.672-1.673
				l-0.004-14.783c-0.002-0.927-0.754-1.675-1.678-1.676l0,0c-0.924,0.001-1.671,0.751-1.671,1.676L213.253,158.797z"/>
			<path fill="#F7F7F7" d="M208.482,142.366c0,0.924,0.748,1.671,1.673,1.672l0,0c0.923-0.001,1.673-0.749,1.673-1.675
				l-0.007-14.782c0-0.923-0.751-1.673-1.674-1.673l0,0c-0.927,0-1.672,0.752-1.672,1.674L208.482,142.366z"/>
			<rect x="213.242" y="125.044" fill="#F7F7F7" width="8.924" height="19.245"/>
		</g>
	</g>
	<g>
		<path fill="#333333" d="M346.114,104.109h14.484v4.852h-14.484v14.977h-4.887v-14.977h-14.414v-4.852h14.414V89.062h4.887V104.109
			z"/>
	</g>
</g>
<path fill="#2EA3F2" d="M306.786,610c0,11.046-8.954,20-20,20h-227c-11.046,0-20-8.954-20-20V437c0-11.046,8.954-20,20-20h227
	c11.046,0,20,8.954,20,20V610z"/>
<g>
	<rect x="55.139" y="437.211" fill="none" width="237.164" height="17.386"/>
	<text transform="matrix(1 0 0 1 57.2812 453.9302)" fill="#F7F7F7" font-family="'Open Sans', sans-serif" font-size="22">Incentivos Econômicos</text>
</g>
<g>
	<rect x="49.221" y="671" fill="none" width="297.54" height="120"/>
	<text transform="matrix(1 0 0 1 49.2207 686.2002)"><tspan x="0" y="0" fill="#333333" font-family="'Open Sans', sans-serif" font-size="20">Os mineradores são </tspan><tspan x="0" y="26" fill="#333333" font-family="'Open Sans', sans-serif" font-size="20">recompensados com tokens </tspan><tspan x="0" y="52" fill="#333333" font-family="'Open Sans', sans-serif" font-size="20">que apresentam valor de troca. </tspan><tspan x="0" y="78" fill="#333333" font-family="'Open Sans', sans-serif" font-size="20">O custo para trapacear é maior </tspan><tspan x="0" y="104" fill="#333333" font-family="'Open Sans', sans-serif" font-size="20">do que o retorno por colaborar.</tspan></text>
</g>
<g>
	<circle fill="#F7F7F7" cx="174.204" cy="545.416" r="63.333"/>
	<g>
		<defs>
			<circle id="SVGID_1_" cx="173.738" cy="545.416" r="63.333"/>
		</defs>
		<clipPath id="SVGID_2_">
			<use xlink:href="#SVGID_1_"  overflow="visible"/>
		</clipPath>
		<g clip-path="url(#SVGID_2_)">
			<path fill="#99A641" d="M173.841,526.971c0-5.678,11.972-31.844,7.024-32.184c-4.951-0.342-10.012,11.039-13.427,10.954
				c-3.413-0.085-7.75-5.496-12.187-4.13c-3.99,1.229,8.882,21.079,8.882,25.359c0,5.111-25.49,32.644-25.49,49.859
				c0,20.142,15.276,25.26,29.982,25.26s31.119-5.461,31.119-26.626C199.746,559.614,173.841,532.646,173.841,526.971z"/>
			<g>
				<rect x="196.786" y="520" fill="#FFCCB0" width="75" height="20"/>
				<path fill="#FFCCB0" d="M206.219,520.244c-5.164,0-14.407-4.982-18.125-10.561c0,0-3.926-3.912-7.643-4.117l-3.512,6.002
					l-0.92,35.323c0,0,11.429,0.425,16.722-4.882c1.896-1.9,5.783-1.938,11.773-1.938"/>
				<path fill="#FFCCB0" d="M178.786,514.332c0-1.576-1.231-2.332-2.766-2.332h-15.007c-1.536,0-4.227,0.756-4.227,2.332v28.564
					c0,1.578,2.691,4.104,4.227,4.104h15.007c1.535,0,2.766-2.525,2.766-4.104V514.332z"/>
				<path fill="#FFCCB0" d="M165.786,514.779c0-1.535-1.244-2.779-2.779-2.779h-7.441c-1.535,0-2.779,1.244-2.779,2.779v2.441
					c0,1.535,1.244,2.779,2.779,2.779h7.441c1.535,0,2.779-1.244,2.779-2.779V514.779z"/>
				<path fill="#FFCCB0" d="M165.786,523.78c0-1.536-1.244-2.78-2.779-2.78h-7.441c-1.535,0-2.779,1.245-2.779,2.78v1.439
					c0,1.536,1.244,2.78,2.779,2.78h7.441c1.535,0,2.779-1.245,2.779-2.78V523.78z"/>
				<path fill="#FFCCB0" d="M166.786,531.425c0-1.362-0.792-2.425-2.09-2.425h-8.398c-1.299,0-3.512,1.062-3.512,2.425v3.639
					c0,1.364,2.213,2.937,3.512,2.937h8.398c1.298,0,2.09-1.572,2.09-2.937V531.425z"/>
				<path fill="#FFCCB0" d="M166.786,541.829c0-1.573-0.759-2.829-2.274-2.829h-7.508c-1.515,0-4.218,1.256-4.218,2.829V543
					c0,1.572,2.703,4,4.218,4h7.508c1.515,0,2.274-2.428,2.274-4V541.829z"/>
				<path fill="#FFCCB0" d="M157.42,519.463c0.325,0,0.494,0.619,0.485,0.897c-0.014,0.346-0.066,1.083-0.506,1.083
					c-0.44,0,0.406,0.557,0.406,0.557h-0.019v-3h-0.387L157.42,519.463z"/>
				<path fill="#FFCCB0" d="M157.348,527.295c0.382,0.029,0.485,1.277,0.485,1.497c0,0.221,0.069,1.22-0.324,1.22
					c-0.394,0,0.061,0.289,0.061,0.289l1.288-0.06L158.662,527h-1.262L157.348,527.295z"/>
				<path fill="#FFCCB0" d="M155.786,536.861c0,0,1.452,0.614,1.423,1.079c-0.018,0.277,0.29,0.962-0.091,0.962
					c-0.384,0,0.264,0.592,0.263,0.591l1.572-0.138l-0.983-3.087l-2.183-0.069V536.861z"/>
			</g>
			<text transform="matrix(1 0 0 1 160.4546 582.3555)" fill="#F7F7F7" font-family="'Open Sans', sans-serif" font-size="30.5678">$</text>
		</g>
	</g>
</g>
<g>
	<path fill="#CCCCCC" d="M28.828,783.597c0,5.977,1.743,10.444,5.229,13.403c3.485,2.958,9.418,4.526,17.798,4.702v7.998
		c-11.426,0-19.556-2.197-24.39-6.592s-7.251-11.162-7.251-20.303v-29.619c0-12.011-6.739-18.135-20.215-18.369v-7.031
		c7.148-0.117,12.305-1.611,15.469-4.482c3.164-2.87,4.746-7.207,4.746-13.008v-30.762c0-17.52,10.547-26.455,31.641-26.807v7.91
		c-8.086,0.294-13.946,1.992-17.578,5.098c-3.634,3.106-5.449,7.705-5.449,13.799v26.807c0,7.617-1.29,13.302-3.867,17.051
		c-2.579,3.75-6.739,6.24-12.48,7.471v0.703c5.683,1.173,9.829,3.618,12.437,7.339c2.606,3.722,3.911,9.185,3.911,16.392V783.597z"
		/>
</g>
<g>
	<path fill="#333333" d="M335.761,503.591v-4.816h32.695v4.816H335.761z M335.761,517.97v-4.816h32.695v4.816H335.761z"/>
</g>
<g>
	<path fill="#2EA3F2" d="M324.786,1215c0,11.046-8.954,20-20,20h-227c-11.046,0-20-8.954-20-20V881c0-11.046,8.954-20,20-20h227
		c11.046,0,20,8.954,20,20V1215z"/>
	<g>
		<rect x="77.653" y="881.211" fill="none" width="226.549" height="94.092"/>
		<text transform="matrix(1 0 0 1 110.8018 897.9297)"><tspan x="0" y="0" fill="#F7F7F7" font-family="'Open Sans', sans-serif" font-size="22">Manutenção de </tspan><tspan x="-15.41" y="26.4" fill="#F7F7F7" font-family="'Open Sans', sans-serif" font-size="22">Consenso Sem um </tspan><tspan x="-30.191" y="52.801" fill="#F7F7F7" font-family="'Open Sans', sans-serif" font-size="22">Intermediário Central</tspan></text>
	</g>
	<rect x="54.786" y="1060" fill="#FFFFFF" width="270" height="121"/>
	<ellipse opacity="0.2" fill="#333333" cx="244.937" cy="1067.402" rx="15.256" ry="4.972"/>
	<rect x="238.786" y="1005" fill="#F4A25F" width="13" height="62"/>
	<rect x="238.786" y="1005" fill="#DD925B" width="1" height="62"/>
	<rect x="241.786" y="1005" fill="#DD925B" width="2" height="62"/>
	<rect x="244.786" y="1005" fill="#DD925B" width="3" height="62"/>
	<rect x="248.786" y="1005" fill="#DD925B" width="2" height="62"/>
	<rect x="238.786" y="1005" opacity="0.2" fill="#333333" width="13" height="17"/>
	<polygon fill="#89427C" points="268.51,1014.3 204.411,1010.756 207.246,988.945 270.162,1001.576 	"/>
	<polygon fill="#89427C" points="264.616,987.365 296.791,1011.968 259.397,1027.531 	"/>
	<g>
		<g>
			<polygon fill="#999999" points="87.044,1164.33 84.698,1158.072 85.583,1157.811 87.928,1164.069 			"/>
			<polygon fill="#999999" points="90.058,1167.492 87.044,1164.33 87.832,1163.772 90.743,1166.876 			"/>
			<polygon fill="#999999" points="82.421,1164.252 83.126,1157.687 84.045,1157.765 83.339,1164.331 			"/>
			<polygon fill="#999999" points="84.08,1168.294 82.421,1164.252 83.349,1164 84.942,1167.969 			"/>
			<polygon fill="#999999" points="78.479,1163.826 81.423,1157.77 82.285,1158.098 79.341,1164.152 			"/>
			<polygon fill="#999999" points="78.969,1168.168 78.479,1163.826 79.455,1163.857 79.887,1168.09 			"/>
			<polygon fill="#999999" points="87.044,1149.033 84.698,1155.291 85.583,1155.551 87.928,1149.293 			"/>
			<polygon fill="#999999" points="90.058,1145.87 87.044,1149.033 87.832,1149.59 90.743,1146.486 			"/>
			<polygon fill="#999999" points="82.421,1149.11 83.126,1155.676 84.045,1155.598 83.339,1149.032 			"/>
			<polygon fill="#999999" points="84.08,1145.068 82.421,1149.11 83.349,1149.363 84.942,1145.395 			"/>
			<polygon fill="#999999" points="78.479,1149.537 81.423,1155.593 82.285,1155.266 79.341,1149.21 			"/>
			<polygon fill="#999999" points="78.969,1145.195 78.479,1149.537 79.455,1149.505 79.887,1145.271 			"/>
			
				<rect x="91.664" y="1153.14" transform="matrix(0.7061 -0.7082 0.7082 0.7061 -789.3106 405.6516)" fill="#999999" width="4.628" height="0.923"/>
			
				<rect x="91.664" y="1158.597" transform="matrix(0.7061 0.7082 -0.7082 0.7061 848.4242 274.1523)" fill="#999999" width="4.628" height="0.922"/>
			<circle fill="#333333" cx="90.205" cy="1156.519" r="3.993"/>
			<ellipse fill="#333333" cx="74.177" cy="1156.519" rx="6.58" ry="4.946"/>
			<circle fill="#333333" cx="83.385" cy="1156.518" r="3.598"/>
		</g>
		<g>
			<polygon fill="#999999" points="124.18,1164.33 121.835,1158.072 122.719,1157.811 125.063,1164.069 			"/>
			<polygon fill="#999999" points="127.194,1167.492 124.18,1164.33 124.968,1163.772 127.879,1166.876 			"/>
			<polygon fill="#999999" points="119.557,1164.252 120.262,1157.687 121.181,1157.765 120.475,1164.331 			"/>
			<polygon fill="#999999" points="121.216,1168.294 119.557,1164.252 120.484,1164 122.079,1167.969 			"/>
			<polygon fill="#999999" points="115.616,1163.826 118.56,1157.77 119.421,1158.098 116.478,1164.152 			"/>
			<polygon fill="#999999" points="116.104,1168.168 115.616,1163.826 116.591,1163.857 117.023,1168.09 			"/>
			<polygon fill="#999999" points="124.18,1149.033 121.835,1155.291 122.719,1155.551 125.063,1149.293 			"/>
			<polygon fill="#999999" points="127.194,1145.87 124.18,1149.033 124.968,1149.59 127.879,1146.486 			"/>
			<polygon fill="#999999" points="119.557,1149.11 120.262,1155.676 121.181,1155.598 120.475,1149.032 			"/>
			<polygon fill="#999999" points="121.216,1145.068 119.557,1149.11 120.484,1149.363 122.079,1145.395 			"/>
			<polygon fill="#999999" points="115.616,1149.537 118.56,1155.593 119.421,1155.266 116.478,1149.21 			"/>
			<polygon fill="#999999" points="116.104,1145.195 115.616,1149.537 116.591,1149.505 117.023,1145.271 			"/>
			
				<rect x="128.8" y="1153.14" transform="matrix(0.7062 -0.7081 0.7081 0.7062 -778.2866 431.8141)" fill="#999999" width="4.629" height="0.923"/>
			
				<rect x="128.8" y="1158.597" transform="matrix(0.7062 0.7081 -0.7081 0.7062 859.2042 247.7451)" fill="#999999" width="4.629" height="0.922"/>
			<circle fill="#333333" cx="127.341" cy="1156.519" r="3.993"/>
			<ellipse fill="#333333" cx="111.313" cy="1156.519" rx="6.581" ry="4.946"/>
			<circle fill="#333333" cx="120.521" cy="1156.518" r="3.598"/>
		</g>
		<g>
			<polygon fill="#999999" points="161.316,1164.33 158.971,1158.072 159.855,1157.811 162.2,1164.069 			"/>
			<polygon fill="#999999" points="164.33,1167.492 161.316,1164.33 162.104,1163.772 165.016,1166.876 			"/>
			<polygon fill="#999999" points="156.693,1164.252 157.398,1157.687 158.317,1157.765 157.611,1164.331 			"/>
			<polygon fill="#999999" points="158.353,1168.294 156.693,1164.252 157.621,1164 159.215,1167.969 			"/>
			<polygon fill="#999999" points="152.752,1163.826 155.695,1157.77 156.558,1158.098 153.613,1164.152 			"/>
			<polygon fill="#999999" points="153.241,1168.168 152.752,1163.826 153.728,1163.857 154.159,1168.09 			"/>
			<polygon fill="#999999" points="161.316,1149.033 158.971,1155.291 159.855,1155.551 162.2,1149.293 			"/>
			<polygon fill="#999999" points="164.33,1145.87 161.316,1149.033 162.104,1149.59 165.016,1146.486 			"/>
			<polygon fill="#999999" points="156.693,1149.11 157.398,1155.676 158.317,1155.598 157.611,1149.032 			"/>
			<polygon fill="#999999" points="158.353,1145.068 156.693,1149.11 157.621,1149.363 159.215,1145.395 			"/>
			<polygon fill="#999999" points="152.752,1149.537 155.695,1155.593 156.558,1155.266 153.613,1149.21 			"/>
			<polygon fill="#999999" points="153.241,1145.195 152.752,1149.537 153.728,1149.505 154.159,1145.271 			"/>
			
				<rect x="165.937" y="1153.14" transform="matrix(0.7061 -0.7082 0.7082 0.7061 -767.4783 458.2484)" fill="#999999" width="4.628" height="0.923"/>
			
				<rect x="165.937" y="1158.597" transform="matrix(0.7061 0.7082 -0.7082 0.7061 870.2565 221.5555)" fill="#999999" width="4.628" height="0.922"/>
			<circle fill="#333333" cx="164.478" cy="1156.519" r="3.993"/>
			<ellipse fill="#333333" cx="148.449" cy="1156.519" rx="6.58" ry="4.946"/>
			<circle fill="#333333" cx="157.657" cy="1156.518" r="3.598"/>
		</g>
		<g>
			<polygon fill="#999999" points="198.451,1164.33 196.105,1158.072 196.99,1157.811 199.336,1164.069 			"/>
			<polygon fill="#999999" points="201.467,1167.492 198.451,1164.33 199.24,1163.772 202.15,1166.876 			"/>
			<polygon fill="#999999" points="193.828,1164.252 194.533,1157.687 195.453,1157.765 194.746,1164.331 			"/>
			<polygon fill="#999999" points="195.488,1168.294 193.828,1164.252 194.756,1164 196.35,1167.969 			"/>
			<polygon fill="#999999" points="189.889,1163.826 192.832,1157.77 193.693,1158.098 190.748,1164.152 			"/>
			<polygon fill="#999999" points="190.377,1168.168 189.889,1163.826 190.863,1163.857 191.295,1168.09 			"/>
			<polygon fill="#999999" points="198.451,1149.033 196.105,1155.291 196.99,1155.551 199.336,1149.293 			"/>
			<polygon fill="#999999" points="201.467,1145.87 198.451,1149.033 199.24,1149.59 202.15,1146.486 			"/>
			<polygon fill="#999999" points="193.828,1149.11 194.533,1155.676 195.453,1155.598 194.746,1149.032 			"/>
			<polygon fill="#999999" points="195.488,1145.068 193.828,1149.11 194.756,1149.363 196.35,1145.395 			"/>
			<polygon fill="#999999" points="189.889,1149.537 192.832,1155.593 193.693,1155.266 190.748,1149.21 			"/>
			<polygon fill="#999999" points="190.377,1145.195 189.889,1149.537 190.863,1149.505 191.295,1145.271 			"/>
			
				<rect x="203.072" y="1153.14" transform="matrix(0.7063 -0.708 0.708 0.7063 -756.3622 484.2595)" fill="#999999" width="4.629" height="0.922"/>
			
				<rect x="203.072" y="1158.597" transform="matrix(0.7063 0.708 -0.708 0.7063 880.8847 195.0552)" fill="#999999" width="4.629" height="0.921"/>
			<circle fill="#333333" cx="201.613" cy="1156.519" r="3.993"/>
			<ellipse fill="#333333" cx="185.586" cy="1156.519" rx="6.582" ry="4.946"/>
			<circle fill="#333333" cx="194.793" cy="1156.518" r="3.598"/>
		</g>
		<g>
			<polygon fill="#999999" points="235.588,1164.33 233.242,1158.072 234.127,1157.811 236.472,1164.069 			"/>
			<polygon fill="#999999" points="238.602,1167.492 235.588,1164.33 236.376,1163.772 239.287,1166.876 			"/>
			<polygon fill="#999999" points="230.965,1164.252 231.67,1157.687 232.589,1157.765 231.883,1164.331 			"/>
			<polygon fill="#999999" points="232.624,1168.294 230.965,1164.252 231.893,1164 233.486,1167.969 			"/>
			<polygon fill="#999999" points="227.023,1163.826 229.967,1157.77 230.829,1158.098 227.885,1164.152 			"/>
			<polygon fill="#999999" points="227.513,1168.168 227.023,1163.826 227.999,1163.857 228.431,1168.09 			"/>
			<polygon fill="#999999" points="235.588,1149.033 233.242,1155.291 234.127,1155.551 236.472,1149.293 			"/>
			<polygon fill="#999999" points="238.602,1145.87 235.588,1149.033 236.376,1149.59 239.287,1146.486 			"/>
			<polygon fill="#999999" points="230.965,1149.11 231.67,1155.676 232.589,1155.598 231.883,1149.032 			"/>
			<polygon fill="#999999" points="232.624,1145.068 230.965,1149.11 231.893,1149.363 233.486,1145.395 			"/>
			<polygon fill="#999999" points="227.023,1149.537 229.967,1155.593 230.829,1155.266 227.885,1149.21 			"/>
			<polygon fill="#999999" points="227.513,1145.195 227.023,1149.537 227.999,1149.505 228.431,1145.271 			"/>
			
				<rect x="240.208" y="1153.14" transform="matrix(0.7061 -0.7082 0.7082 0.7061 -745.6462 510.8446)" fill="#999999" width="4.628" height="0.923"/>
			
				<rect x="240.208" y="1158.597" transform="matrix(0.7061 0.7082 -0.7082 0.7061 892.0886 168.9593)" fill="#999999" width="4.628" height="0.922"/>
			<circle fill="#333333" cx="238.749" cy="1156.519" r="3.993"/>
			<ellipse fill="#333333" cx="222.721" cy="1156.519" rx="6.58" ry="4.946"/>
			<circle fill="#333333" cx="231.929" cy="1156.518" r="3.598"/>
		</g>
		<g>
			<polygon fill="#999999" points="272.724,1164.33 270.379,1158.072 271.263,1157.811 273.607,1164.069 			"/>
			<polygon fill="#999999" points="275.738,1167.492 272.724,1164.33 273.512,1163.772 276.423,1166.876 			"/>
			<polygon fill="#999999" points="268.101,1164.252 268.806,1157.687 269.725,1157.765 269.019,1164.331 			"/>
			<polygon fill="#999999" points="269.76,1168.294 268.101,1164.252 269.028,1164 270.623,1167.969 			"/>
			<polygon fill="#999999" points="264.16,1163.826 267.104,1157.77 267.965,1158.098 265.021,1164.152 			"/>
			<polygon fill="#999999" points="264.648,1168.168 264.16,1163.826 265.135,1163.857 265.567,1168.09 			"/>
			<polygon fill="#999999" points="272.724,1149.033 270.379,1155.291 271.263,1155.551 273.607,1149.293 			"/>
			<polygon fill="#999999" points="275.738,1145.87 272.724,1149.033 273.512,1149.59 276.423,1146.486 			"/>
			<polygon fill="#999999" points="268.101,1149.11 268.806,1155.676 269.725,1155.598 269.019,1149.032 			"/>
			<polygon fill="#999999" points="269.76,1145.068 268.101,1149.11 269.028,1149.363 270.623,1145.395 			"/>
			<polygon fill="#999999" points="264.16,1149.537 267.104,1155.593 267.965,1155.266 265.021,1149.21 			"/>
			<polygon fill="#999999" points="264.648,1145.195 264.16,1149.537 265.135,1149.505 265.567,1145.271 			"/>
			
				<rect x="277.344" y="1153.14" transform="matrix(0.7062 -0.7081 0.7081 0.7062 -734.638 536.9915)" fill="#999999" width="4.629" height="0.923"/>
			
				<rect x="277.344" y="1158.597" transform="matrix(0.7062 0.7081 -0.7081 0.7062 902.8528 142.5677)" fill="#999999" width="4.629" height="0.922"/>
			<circle fill="#333333" cx="275.885" cy="1156.519" r="3.993"/>
			<ellipse fill="#333333" cx="259.857" cy="1156.519" rx="6.581" ry="4.946"/>
			<circle fill="#333333" cx="269.064" cy="1156.518" r="3.598"/>
		</g>
		<g>
			<polygon fill="#999999" points="309.86,1164.33 307.515,1158.072 308.399,1157.811 310.744,1164.069 			"/>
			<polygon fill="#999999" points="312.874,1167.492 309.86,1164.33 310.648,1163.772 313.56,1166.876 			"/>
			<polygon fill="#999999" points="305.237,1164.252 305.942,1157.687 306.861,1157.765 306.155,1164.331 			"/>
			<polygon fill="#999999" points="306.896,1168.294 305.237,1164.252 306.165,1164 307.759,1167.969 			"/>
			<polygon fill="#999999" points="301.296,1163.826 304.239,1157.77 305.102,1158.098 302.157,1164.152 			"/>
			<polygon fill="#999999" points="301.785,1168.168 301.296,1163.826 302.271,1163.857 302.703,1168.09 			"/>
			<polygon fill="#999999" points="309.86,1149.033 307.515,1155.291 308.399,1155.551 310.744,1149.293 			"/>
			<polygon fill="#999999" points="312.874,1145.87 309.86,1149.033 310.648,1149.59 313.56,1146.486 			"/>
			<polygon fill="#999999" points="305.237,1149.11 305.942,1155.676 306.861,1155.598 306.155,1149.032 			"/>
			<polygon fill="#999999" points="306.896,1145.068 305.237,1149.11 306.165,1149.363 307.759,1145.395 			"/>
			<polygon fill="#999999" points="301.296,1149.537 304.239,1155.593 305.102,1155.266 302.157,1149.21 			"/>
			<polygon fill="#999999" points="301.785,1145.195 301.296,1149.537 302.271,1149.505 302.703,1145.271 			"/>
			
				<rect x="314.48" y="1153.14" transform="matrix(0.7061 -0.7082 0.7082 0.7061 -723.814 563.4415)" fill="#999999" width="4.628" height="0.923"/>
			
				<rect x="314.48" y="1158.597" transform="matrix(0.7061 0.7082 -0.7082 0.7061 913.9209 116.3624)" fill="#999999" width="4.628" height="0.922"/>
			<circle fill="#333333" cx="313.021" cy="1156.519" r="3.993"/>
			<ellipse fill="#333333" cx="296.993" cy="1156.519" rx="6.58" ry="4.946"/>
			<circle fill="#333333" cx="306.201" cy="1156.518" r="3.598"/>
		</g>
	</g>
	<g>
		<g>
			<polygon fill="#999999" points="87.044,1134.188 84.698,1127.932 85.583,1127.67 87.928,1133.928 			"/>
			<polygon fill="#999999" points="90.058,1137.352 87.044,1134.188 87.832,1133.631 90.743,1136.734 			"/>
			<polygon fill="#999999" points="82.421,1134.111 83.126,1127.545 84.045,1127.623 83.339,1134.189 			"/>
			<polygon fill="#999999" points="84.08,1138.152 82.421,1134.111 83.349,1133.857 84.942,1137.826 			"/>
			<polygon fill="#999999" points="78.479,1133.684 81.423,1127.629 82.285,1127.955 79.341,1134.012 			"/>
			<polygon fill="#999999" points="78.969,1138.025 78.479,1133.684 79.455,1133.717 79.887,1137.949 			"/>
			<polygon fill="#999999" points="87.044,1118.893 84.698,1125.148 85.583,1125.41 87.928,1119.152 			"/>
			<polygon fill="#999999" points="90.058,1115.729 87.044,1118.893 87.832,1119.449 90.743,1116.346 			"/>
			<polygon fill="#999999" points="82.421,1118.969 83.126,1125.535 84.045,1125.457 83.339,1118.891 			"/>
			<polygon fill="#999999" points="84.08,1114.928 82.421,1118.969 83.349,1119.221 84.942,1115.254 			"/>
			<polygon fill="#999999" points="78.479,1119.395 81.423,1125.451 82.285,1125.125 79.341,1119.068 			"/>
			<polygon fill="#999999" points="78.969,1115.053 78.479,1119.395 79.455,1119.363 79.887,1115.131 			"/>
			
				<rect x="91.664" y="1122.999" transform="matrix(0.7061 -0.7082 0.7082 0.7061 -767.9658 396.7916)" fill="#999999" width="4.628" height="0.922"/>
			
				<rect x="91.664" y="1128.456" transform="matrix(0.7061 0.7082 -0.7082 0.7061 827.0798 265.2925)" fill="#999999" width="4.628" height="0.922"/>
			<circle fill="#333333" cx="90.205" cy="1126.377" r="3.992"/>
			<ellipse fill="#333333" cx="74.177" cy="1126.377" rx="6.58" ry="4.947"/>
			<circle fill="#333333" cx="83.385" cy="1126.377" r="3.598"/>
		</g>
		<g>
			<polygon fill="#999999" points="124.18,1134.188 121.835,1127.932 122.719,1127.67 125.063,1133.928 			"/>
			<polygon fill="#999999" points="127.194,1137.352 124.18,1134.188 124.968,1133.631 127.879,1136.734 			"/>
			<polygon fill="#999999" points="119.557,1134.111 120.262,1127.545 121.181,1127.623 120.475,1134.189 			"/>
			<polygon fill="#999999" points="121.216,1138.152 119.557,1134.111 120.484,1133.857 122.079,1137.826 			"/>
			<polygon fill="#999999" points="115.616,1133.684 118.56,1127.629 119.421,1127.955 116.478,1134.012 			"/>
			<polygon fill="#999999" points="116.104,1138.025 115.616,1133.684 116.591,1133.717 117.023,1137.949 			"/>
			<polygon fill="#999999" points="124.18,1118.893 121.835,1125.148 122.719,1125.41 125.063,1119.152 			"/>
			<polygon fill="#999999" points="127.194,1115.729 124.18,1118.893 124.968,1119.449 127.879,1116.346 			"/>
			<polygon fill="#999999" points="119.557,1118.969 120.262,1125.535 121.181,1125.457 120.475,1118.891 			"/>
			<polygon fill="#999999" points="121.216,1114.928 119.557,1118.969 120.484,1119.221 122.079,1115.254 			"/>
			<polygon fill="#999999" points="115.616,1119.395 118.56,1125.451 119.421,1125.125 116.478,1119.068 			"/>
			<polygon fill="#999999" points="116.104,1115.053 115.616,1119.395 116.591,1119.363 117.023,1115.131 			"/>
			
				<rect x="128.8" y="1122.999" transform="matrix(0.7062 -0.7081 0.7081 0.7062 -756.945 422.9573)" fill="#999999" width="4.629" height="0.922"/>
			
				<rect x="128.8" y="1128.456" transform="matrix(0.7062 0.7081 -0.7081 0.7062 837.863 238.8885)" fill="#999999" width="4.629" height="0.922"/>
			<circle fill="#333333" cx="127.341" cy="1126.377" r="3.992"/>
			<ellipse fill="#333333" cx="111.313" cy="1126.377" rx="6.581" ry="4.947"/>
			<circle fill="#333333" cx="120.521" cy="1126.377" r="3.598"/>
		</g>
		<g>
			<polygon fill="#999999" points="161.316,1134.188 158.971,1127.932 159.855,1127.67 162.2,1133.928 			"/>
			<polygon fill="#999999" points="164.33,1137.352 161.316,1134.188 162.104,1133.631 165.016,1136.734 			"/>
			<polygon fill="#999999" points="156.693,1134.111 157.398,1127.545 158.317,1127.623 157.611,1134.189 			"/>
			<polygon fill="#999999" points="158.353,1138.152 156.693,1134.111 157.621,1133.857 159.215,1137.826 			"/>
			<polygon fill="#999999" points="152.752,1133.684 155.695,1127.629 156.558,1127.955 153.613,1134.012 			"/>
			<polygon fill="#999999" points="153.241,1138.025 152.752,1133.684 153.728,1133.717 154.159,1137.949 			"/>
			<polygon fill="#999999" points="161.316,1118.893 158.971,1125.148 159.855,1125.41 162.2,1119.152 			"/>
			<polygon fill="#999999" points="164.33,1115.729 161.316,1118.893 162.104,1119.449 165.016,1116.346 			"/>
			<polygon fill="#999999" points="156.693,1118.969 157.398,1125.535 158.317,1125.457 157.611,1118.891 			"/>
			<polygon fill="#999999" points="158.353,1114.928 156.693,1118.969 157.621,1119.221 159.215,1115.254 			"/>
			<polygon fill="#999999" points="152.752,1119.395 155.695,1125.451 156.558,1125.125 153.613,1119.068 			"/>
			<polygon fill="#999999" points="153.241,1115.053 152.752,1119.395 153.728,1119.363 154.159,1115.131 			"/>
			
				<rect x="165.937" y="1122.999" transform="matrix(0.7061 -0.7082 0.7082 0.7061 -746.1335 449.3884)" fill="#999999" width="4.628" height="0.922"/>
			
				<rect x="165.937" y="1128.456" transform="matrix(0.7061 0.7082 -0.7082 0.7061 848.9122 212.6957)" fill="#999999" width="4.628" height="0.922"/>
			<circle fill="#333333" cx="164.478" cy="1126.377" r="3.992"/>
			<ellipse fill="#333333" cx="148.449" cy="1126.377" rx="6.58" ry="4.947"/>
			<circle fill="#333333" cx="157.657" cy="1126.377" r="3.598"/>
		</g>
		<g>
			<polygon fill="#999999" points="198.451,1134.188 196.105,1127.932 196.99,1127.67 199.336,1133.928 			"/>
			<polygon fill="#999999" points="201.467,1137.352 198.451,1134.188 199.24,1133.631 202.15,1136.734 			"/>
			<polygon fill="#999999" points="193.828,1134.111 194.533,1127.545 195.453,1127.623 194.746,1134.189 			"/>
			<polygon fill="#999999" points="195.488,1138.152 193.828,1134.111 194.756,1133.857 196.35,1137.826 			"/>
			<polygon fill="#999999" points="189.889,1133.684 192.832,1127.629 193.693,1127.955 190.748,1134.012 			"/>
			<polygon fill="#999999" points="190.377,1138.025 189.889,1133.684 190.863,1133.717 191.295,1137.949 			"/>
			<polygon fill="#999999" points="198.451,1118.893 196.105,1125.148 196.99,1125.41 199.336,1119.152 			"/>
			<polygon fill="#999999" points="201.467,1115.729 198.451,1118.893 199.24,1119.449 202.15,1116.346 			"/>
			<polygon fill="#999999" points="193.828,1118.969 194.533,1125.535 195.453,1125.457 194.746,1118.891 			"/>
			<polygon fill="#999999" points="195.488,1114.928 193.828,1118.969 194.756,1119.221 196.35,1115.254 			"/>
			<polygon fill="#999999" points="189.889,1119.395 192.832,1125.451 193.693,1125.125 190.748,1119.068 			"/>
			<polygon fill="#999999" points="190.377,1115.053 189.889,1119.395 190.863,1119.363 191.295,1115.131 			"/>
			
				<rect x="203.072" y="1122.999" transform="matrix(0.7063 -0.708 0.708 0.7063 -735.0237 475.4059)" fill="#999999" width="4.629" height="0.921"/>
			
				<rect x="203.072" y="1128.456" transform="matrix(0.7063 0.708 -0.708 0.7063 859.5466 186.2018)" fill="#999999" width="4.629" height="0.921"/>
			<circle fill="#333333" cx="201.613" cy="1126.377" r="3.992"/>
			<ellipse fill="#333333" cx="185.586" cy="1126.377" rx="6.582" ry="4.947"/>
			<circle fill="#333333" cx="194.793" cy="1126.377" r="3.598"/>
		</g>
		<g>
			<polygon fill="#999999" points="235.588,1134.188 233.242,1127.932 234.127,1127.67 236.472,1133.928 			"/>
			<polygon fill="#999999" points="238.602,1137.352 235.588,1134.188 236.376,1133.631 239.287,1136.734 			"/>
			<polygon fill="#999999" points="230.965,1134.111 231.67,1127.545 232.589,1127.623 231.883,1134.189 			"/>
			<polygon fill="#999999" points="232.624,1138.152 230.965,1134.111 231.893,1133.857 233.486,1137.826 			"/>
			<polygon fill="#999999" points="227.023,1133.684 229.967,1127.629 230.829,1127.955 227.885,1134.012 			"/>
			<polygon fill="#999999" points="227.513,1138.025 227.023,1133.684 227.999,1133.717 228.431,1137.949 			"/>
			<polygon fill="#999999" points="235.588,1118.893 233.242,1125.148 234.127,1125.41 236.472,1119.152 			"/>
			<polygon fill="#999999" points="238.602,1115.729 235.588,1118.893 236.376,1119.449 239.287,1116.346 			"/>
			<polygon fill="#999999" points="230.965,1118.969 231.67,1125.535 232.589,1125.457 231.883,1118.891 			"/>
			<polygon fill="#999999" points="232.624,1114.928 230.965,1118.969 231.893,1119.221 233.486,1115.254 			"/>
			<polygon fill="#999999" points="227.023,1119.395 229.967,1125.451 230.829,1125.125 227.885,1119.068 			"/>
			<polygon fill="#999999" points="227.513,1115.053 227.023,1119.395 227.999,1119.363 228.431,1115.131 			"/>
			
				<rect x="240.208" y="1122.999" transform="matrix(0.7061 -0.7082 0.7082 0.7061 -724.3015 501.9846)" fill="#999999" width="4.628" height="0.922"/>
			
				<rect x="240.208" y="1128.456" transform="matrix(0.7061 0.7082 -0.7082 0.7061 870.7442 160.0995)" fill="#999999" width="4.628" height="0.922"/>
			<circle fill="#333333" cx="238.749" cy="1126.377" r="3.992"/>
			<ellipse fill="#333333" cx="222.721" cy="1126.377" rx="6.58" ry="4.947"/>
			<circle fill="#333333" cx="231.929" cy="1126.377" r="3.598"/>
		</g>
		<g>
			<polygon fill="#999999" points="272.724,1134.188 270.379,1127.932 271.263,1127.67 273.607,1133.928 			"/>
			<polygon fill="#999999" points="275.738,1137.352 272.724,1134.188 273.512,1133.631 276.423,1136.734 			"/>
			<polygon fill="#999999" points="268.101,1134.111 268.806,1127.545 269.725,1127.623 269.019,1134.189 			"/>
			<polygon fill="#999999" points="269.76,1138.152 268.101,1134.111 269.028,1133.857 270.623,1137.826 			"/>
			<polygon fill="#999999" points="264.16,1133.684 267.104,1127.629 267.965,1127.955 265.021,1134.012 			"/>
			<polygon fill="#999999" points="264.648,1138.025 264.16,1133.684 265.135,1133.717 265.567,1137.949 			"/>
			<polygon fill="#999999" points="272.724,1118.893 270.379,1125.148 271.263,1125.41 273.607,1119.152 			"/>
			<polygon fill="#999999" points="275.738,1115.729 272.724,1118.893 273.512,1119.449 276.423,1116.346 			"/>
			<polygon fill="#999999" points="268.101,1118.969 268.806,1125.535 269.725,1125.457 269.019,1118.891 			"/>
			<polygon fill="#999999" points="269.76,1114.928 268.101,1118.969 269.028,1119.221 270.623,1115.254 			"/>
			<polygon fill="#999999" points="264.16,1119.395 267.104,1125.451 267.965,1125.125 265.021,1119.068 			"/>
			<polygon fill="#999999" points="264.648,1115.053 264.16,1119.395 265.135,1119.363 265.567,1115.131 			"/>
			
				<rect x="277.344" y="1122.999" transform="matrix(0.7062 -0.7081 0.7081 0.7062 -713.2964 528.1347)" fill="#999999" width="4.629" height="0.922"/>
			
				<rect x="277.344" y="1128.456" transform="matrix(0.7062 0.7081 -0.7081 0.7062 881.5116 133.7111)" fill="#999999" width="4.629" height="0.922"/>
			<circle fill="#333333" cx="275.885" cy="1126.377" r="3.992"/>
			<ellipse fill="#333333" cx="259.857" cy="1126.377" rx="6.581" ry="4.947"/>
			<circle fill="#333333" cx="269.064" cy="1126.377" r="3.598"/>
		</g>
		<g>
			<polygon fill="#999999" points="309.86,1134.188 307.515,1127.932 308.399,1127.67 310.744,1133.928 			"/>
			<polygon fill="#999999" points="312.874,1137.352 309.86,1134.188 310.648,1133.631 313.56,1136.734 			"/>
			<polygon fill="#999999" points="305.237,1134.111 305.942,1127.545 306.861,1127.623 306.155,1134.189 			"/>
			<polygon fill="#999999" points="306.896,1138.152 305.237,1134.111 306.165,1133.857 307.759,1137.826 			"/>
			<polygon fill="#999999" points="301.296,1133.684 304.239,1127.629 305.102,1127.955 302.157,1134.012 			"/>
			<polygon fill="#999999" points="301.785,1138.025 301.296,1133.684 302.271,1133.717 302.703,1137.949 			"/>
			<polygon fill="#999999" points="309.86,1118.893 307.515,1125.148 308.399,1125.41 310.744,1119.152 			"/>
			<polygon fill="#999999" points="312.874,1115.729 309.86,1118.893 310.648,1119.449 313.56,1116.346 			"/>
			<polygon fill="#999999" points="305.237,1118.969 305.942,1125.535 306.861,1125.457 306.155,1118.891 			"/>
			<polygon fill="#999999" points="306.896,1114.928 305.237,1118.969 306.165,1119.221 307.759,1115.254 			"/>
			<polygon fill="#999999" points="301.296,1119.395 304.239,1125.451 305.102,1125.125 302.157,1119.068 			"/>
			<polygon fill="#999999" points="301.785,1115.053 301.296,1119.395 302.271,1119.363 302.703,1115.131 			"/>
			
				<rect x="314.48" y="1122.999" transform="matrix(0.7061 -0.7082 0.7082 0.7061 -702.4691 554.5815)" fill="#999999" width="4.628" height="0.922"/>
			
				<rect x="314.48" y="1128.456" transform="matrix(0.7061 0.7082 -0.7082 0.7061 892.5765 107.5026)" fill="#999999" width="4.628" height="0.922"/>
			<circle fill="#333333" cx="313.021" cy="1126.377" r="3.992"/>
			<ellipse fill="#333333" cx="296.993" cy="1126.377" rx="6.58" ry="4.947"/>
			<circle fill="#333333" cx="306.201" cy="1126.377" r="3.598"/>
		</g>
	</g>
	<g>
		<g>
			<polygon fill="#999999" points="87.044,1104.047 84.698,1097.79 85.583,1097.529 87.928,1103.787 			"/>
			<polygon fill="#999999" points="90.058,1107.21 87.044,1104.047 87.832,1103.49 90.743,1106.594 			"/>
			<polygon fill="#999999" points="82.421,1103.97 83.126,1097.404 84.045,1097.482 83.339,1104.049 			"/>
			<polygon fill="#999999" points="84.08,1108.012 82.421,1103.97 83.349,1103.717 84.942,1107.686 			"/>
			<polygon fill="#999999" points="78.479,1103.543 81.423,1097.487 82.285,1097.814 79.341,1103.871 			"/>
			<polygon fill="#999999" points="78.969,1107.885 78.479,1103.543 79.455,1103.575 79.887,1107.809 			"/>
			<polygon fill="#999999" points="87.044,1088.751 84.698,1095.008 85.583,1095.27 87.928,1089.012 			"/>
			<polygon fill="#999999" points="90.058,1085.588 87.044,1088.751 87.832,1089.308 90.743,1086.204 			"/>
			<polygon fill="#999999" points="82.421,1088.828 83.126,1095.394 84.045,1095.315 83.339,1088.75 			"/>
			<polygon fill="#999999" points="84.08,1084.786 82.421,1088.828 83.349,1089.08 84.942,1085.112 			"/>
			<polygon fill="#999999" points="78.479,1089.254 81.423,1095.311 82.285,1094.983 79.341,1088.928 			"/>
			<polygon fill="#999999" points="78.969,1084.912 78.479,1089.254 79.455,1089.223 79.887,1084.99 			"/>
			
				<rect x="91.664" y="1092.858" transform="matrix(0.7061 -0.7082 0.7082 0.7061 -746.6211 387.9316)" fill="#999999" width="4.628" height="0.923"/>
			
				<rect x="91.664" y="1098.315" transform="matrix(0.7062 0.7081 -0.7081 0.7062 805.6095 256.3265)" fill="#999999" width="4.627" height="0.922"/>
			<circle fill="#333333" cx="90.205" cy="1096.236" r="3.993"/>
			<ellipse fill="#333333" cx="74.177" cy="1096.236" rx="6.58" ry="4.947"/>
			<circle fill="#333333" cx="83.385" cy="1096.236" r="3.598"/>
		</g>
		<g>
			<polygon fill="#999999" points="124.18,1104.047 121.835,1097.79 122.719,1097.529 125.063,1103.787 			"/>
			<polygon fill="#999999" points="127.194,1107.21 124.18,1104.047 124.968,1103.49 127.879,1106.594 			"/>
			<polygon fill="#999999" points="119.557,1103.97 120.262,1097.404 121.181,1097.482 120.475,1104.049 			"/>
			<polygon fill="#999999" points="121.216,1108.012 119.557,1103.97 120.484,1103.717 122.079,1107.686 			"/>
			<polygon fill="#999999" points="115.616,1103.543 118.56,1097.487 119.421,1097.814 116.478,1103.871 			"/>
			<polygon fill="#999999" points="116.104,1107.885 115.616,1103.543 116.591,1103.575 117.023,1107.809 			"/>
			<polygon fill="#999999" points="124.18,1088.751 121.835,1095.008 122.719,1095.27 125.063,1089.012 			"/>
			<polygon fill="#999999" points="127.194,1085.588 124.18,1088.751 124.968,1089.308 127.879,1086.204 			"/>
			<polygon fill="#999999" points="119.557,1088.828 120.262,1095.394 121.181,1095.315 120.475,1088.75 			"/>
			<polygon fill="#999999" points="121.216,1084.786 119.557,1088.828 120.484,1089.08 122.079,1085.112 			"/>
			<polygon fill="#999999" points="115.616,1089.254 118.56,1095.311 119.421,1094.983 116.478,1088.928 			"/>
			<polygon fill="#999999" points="116.104,1084.912 115.616,1089.254 116.591,1089.223 117.023,1084.99 			"/>
			
				<rect x="128.8" y="1092.858" transform="matrix(0.7062 -0.7081 0.7081 0.7062 -735.6035 414.1006)" fill="#999999" width="4.629" height="0.923"/>
			
				<rect x="128.8" y="1098.315" transform="matrix(0.7063 0.708 -0.708 0.7063 816.392 229.9296)" fill="#999999" width="4.628" height="0.922"/>
			<circle fill="#333333" cx="127.341" cy="1096.236" r="3.993"/>
			<ellipse fill="#333333" cx="111.313" cy="1096.236" rx="6.581" ry="4.947"/>
			<circle fill="#333333" cx="120.521" cy="1096.236" r="3.598"/>
		</g>
		<g>
			<polygon fill="#999999" points="161.316,1104.047 158.971,1097.79 159.855,1097.529 162.2,1103.787 			"/>
			<polygon fill="#999999" points="164.33,1107.21 161.316,1104.047 162.104,1103.49 165.016,1106.594 			"/>
			<polygon fill="#999999" points="156.693,1103.97 157.398,1097.404 158.317,1097.482 157.611,1104.049 			"/>
			<polygon fill="#999999" points="158.353,1108.012 156.693,1103.97 157.621,1103.717 159.215,1107.686 			"/>
			<polygon fill="#999999" points="152.752,1103.543 155.695,1097.487 156.558,1097.814 153.613,1103.871 			"/>
			<polygon fill="#999999" points="153.241,1107.885 152.752,1103.543 153.728,1103.575 154.159,1107.809 			"/>
			<polygon fill="#999999" points="161.316,1088.751 158.971,1095.008 159.855,1095.27 162.2,1089.012 			"/>
			<polygon fill="#999999" points="164.33,1085.588 161.316,1088.751 162.104,1089.308 165.016,1086.204 			"/>
			<polygon fill="#999999" points="156.693,1088.828 157.398,1095.394 158.317,1095.315 157.611,1088.75 			"/>
			<polygon fill="#999999" points="158.353,1084.786 156.693,1088.828 157.621,1089.08 159.215,1085.112 			"/>
			<polygon fill="#999999" points="152.752,1089.254 155.695,1095.311 156.558,1094.983 153.613,1088.928 			"/>
			<polygon fill="#999999" points="153.241,1084.912 152.752,1089.254 153.728,1089.223 154.159,1084.99 			"/>
			
				<rect x="165.937" y="1092.858" transform="matrix(0.7061 -0.7082 0.7082 0.7061 -724.7888 440.5285)" fill="#999999" width="4.628" height="0.923"/>
			
				<rect x="165.937" y="1098.315" transform="matrix(0.7062 0.7081 -0.7081 0.7062 827.434 203.7375)" fill="#999999" width="4.627" height="0.922"/>
			<circle fill="#333333" cx="164.478" cy="1096.236" r="3.993"/>
			<ellipse fill="#333333" cx="148.449" cy="1096.236" rx="6.58" ry="4.947"/>
			<circle fill="#333333" cx="157.657" cy="1096.236" r="3.598"/>
		</g>
		<g>
			<polygon fill="#999999" points="235.588,1104.047 233.242,1097.79 234.127,1097.529 236.472,1103.787 			"/>
			<polygon fill="#999999" points="238.602,1107.21 235.588,1104.047 236.376,1103.49 239.287,1106.594 			"/>
			<polygon fill="#999999" points="230.965,1103.97 231.67,1097.404 232.589,1097.482 231.883,1104.049 			"/>
			<polygon fill="#999999" points="232.624,1108.012 230.965,1103.97 231.893,1103.717 233.486,1107.686 			"/>
			<polygon fill="#999999" points="227.023,1103.543 229.967,1097.487 230.829,1097.814 227.885,1103.871 			"/>
			<polygon fill="#999999" points="227.513,1107.885 227.023,1103.543 227.999,1103.575 228.431,1107.809 			"/>
			<polygon fill="#999999" points="235.588,1088.751 233.242,1095.008 234.127,1095.27 236.472,1089.012 			"/>
			<polygon fill="#999999" points="238.602,1085.588 235.588,1088.751 236.376,1089.308 239.287,1086.204 			"/>
			<polygon fill="#999999" points="230.965,1088.828 231.67,1095.394 232.589,1095.315 231.883,1088.75 			"/>
			<polygon fill="#999999" points="232.624,1084.786 230.965,1088.828 231.893,1089.08 233.486,1085.112 			"/>
			<polygon fill="#999999" points="227.023,1089.254 229.967,1095.311 230.829,1094.983 227.885,1088.928 			"/>
			<polygon fill="#999999" points="227.513,1084.912 227.023,1089.254 227.999,1089.223 228.431,1084.99 			"/>
			
				<rect x="240.208" y="1092.858" transform="matrix(0.7061 -0.7082 0.7082 0.7061 -702.9567 493.1247)" fill="#999999" width="4.628" height="0.923"/>
			
				<rect x="240.208" y="1098.315" transform="matrix(0.7062 0.7081 -0.7081 0.7062 849.2582 151.1491)" fill="#999999" width="4.627" height="0.922"/>
			<circle fill="#333333" cx="238.749" cy="1096.236" r="3.993"/>
			<ellipse fill="#333333" cx="222.721" cy="1096.236" rx="6.58" ry="4.947"/>
			<circle fill="#333333" cx="231.929" cy="1096.236" r="3.598"/>
		</g>
		<g>
			<polygon fill="#999999" points="272.724,1104.047 270.379,1097.79 271.263,1097.529 273.607,1103.787 			"/>
			<polygon fill="#999999" points="275.738,1107.21 272.724,1104.047 273.512,1103.49 276.423,1106.594 			"/>
			<polygon fill="#999999" points="268.101,1103.97 268.806,1097.404 269.725,1097.482 269.019,1104.049 			"/>
			<polygon fill="#999999" points="269.76,1108.012 268.101,1103.97 269.028,1103.717 270.623,1107.686 			"/>
			<polygon fill="#999999" points="264.16,1103.543 267.104,1097.487 267.965,1097.814 265.021,1103.871 			"/>
			<polygon fill="#999999" points="264.648,1107.885 264.16,1103.543 265.135,1103.575 265.567,1107.809 			"/>
			<polygon fill="#999999" points="272.724,1088.751 270.379,1095.008 271.263,1095.27 273.607,1089.012 			"/>
			<polygon fill="#999999" points="275.738,1085.588 272.724,1088.751 273.512,1089.308 276.423,1086.204 			"/>
			<polygon fill="#999999" points="268.101,1088.828 268.806,1095.394 269.725,1095.315 269.019,1088.75 			"/>
			<polygon fill="#999999" points="269.76,1084.786 268.101,1088.828 269.028,1089.08 270.623,1085.112 			"/>
			<polygon fill="#999999" points="264.16,1089.254 267.104,1095.311 267.965,1094.983 265.021,1088.928 			"/>
			<polygon fill="#999999" points="264.648,1084.912 264.16,1089.254 265.135,1089.223 265.567,1084.99 			"/>
			
				<rect x="277.344" y="1092.858" transform="matrix(0.7062 -0.7081 0.7081 0.7062 -691.9548 519.278)" fill="#999999" width="4.629" height="0.923"/>
			
				<rect x="277.344" y="1098.315" transform="matrix(0.7063 0.708 -0.708 0.7063 860.025 124.7678)" fill="#999999" width="4.628" height="0.922"/>
			<circle fill="#333333" cx="275.885" cy="1096.236" r="3.993"/>
			<ellipse fill="#333333" cx="259.857" cy="1096.236" rx="6.581" ry="4.947"/>
			<circle fill="#333333" cx="269.064" cy="1096.236" r="3.598"/>
		</g>
		<g>
			<polygon fill="#999999" points="309.86,1104.047 307.515,1097.79 308.399,1097.529 310.744,1103.787 			"/>
			<polygon fill="#999999" points="312.874,1107.21 309.86,1104.047 310.648,1103.49 313.56,1106.594 			"/>
			<polygon fill="#999999" points="305.237,1103.97 305.942,1097.404 306.861,1097.482 306.155,1104.049 			"/>
			<polygon fill="#999999" points="306.896,1108.012 305.237,1103.97 306.165,1103.717 307.759,1107.686 			"/>
			<polygon fill="#999999" points="301.296,1103.543 304.239,1097.487 305.102,1097.814 302.157,1103.871 			"/>
			<polygon fill="#999999" points="301.785,1107.885 301.296,1103.543 302.271,1103.575 302.703,1107.809 			"/>
			<polygon fill="#999999" points="309.86,1088.751 307.515,1095.008 308.399,1095.27 310.744,1089.012 			"/>
			<polygon fill="#999999" points="312.874,1085.588 309.86,1088.751 310.648,1089.308 313.56,1086.204 			"/>
			<polygon fill="#999999" points="305.237,1088.828 305.942,1095.394 306.861,1095.315 306.155,1088.75 			"/>
			<polygon fill="#999999" points="306.896,1084.786 305.237,1088.828 306.165,1089.08 307.759,1085.112 			"/>
			<polygon fill="#999999" points="301.296,1089.254 304.239,1095.311 305.102,1094.983 302.157,1088.928 			"/>
			<polygon fill="#999999" points="301.785,1084.912 301.296,1089.254 302.271,1089.223 302.703,1084.99 			"/>
			
				<rect x="314.48" y="1092.858" transform="matrix(0.7061 -0.7082 0.7082 0.7061 -681.1244 545.7216)" fill="#999999" width="4.628" height="0.923"/>
			
				<rect x="314.481" y="1098.315" transform="matrix(0.7062 0.7081 -0.7081 0.7062 871.0827 98.5601)" fill="#999999" width="4.627" height="0.922"/>
			<circle fill="#333333" cx="313.021" cy="1096.236" r="3.993"/>
			<ellipse fill="#333333" cx="296.993" cy="1096.236" rx="6.58" ry="4.947"/>
			<circle fill="#333333" cx="306.201" cy="1096.236" r="3.598"/>
		</g>
		<g>
			<polygon fill="#999999" points="198.451,1104.047 196.105,1097.79 196.99,1097.529 199.336,1103.787 			"/>
			<polygon fill="#999999" points="201.467,1107.21 198.451,1104.047 199.24,1103.49 202.15,1106.594 			"/>
			<polygon fill="#999999" points="193.828,1103.97 194.533,1097.404 195.453,1097.482 194.746,1104.049 			"/>
			<polygon fill="#999999" points="195.488,1108.012 193.828,1103.97 194.756,1103.717 196.35,1107.686 			"/>
			<polygon fill="#999999" points="189.889,1103.543 192.832,1097.487 193.693,1097.814 190.748,1103.871 			"/>
			<polygon fill="#999999" points="190.377,1107.885 189.889,1103.543 190.863,1103.575 191.295,1107.809 			"/>
			<polygon fill="#999999" points="198.451,1088.751 196.105,1095.008 196.99,1095.27 199.336,1089.012 			"/>
			<polygon fill="#999999" points="201.467,1085.588 198.451,1088.751 199.24,1089.308 202.15,1086.204 			"/>
			<polygon fill="#999999" points="193.828,1088.828 194.533,1095.394 195.453,1095.315 194.746,1088.75 			"/>
			<polygon fill="#999999" points="195.488,1084.786 193.828,1088.828 194.756,1089.08 196.35,1085.112 			"/>
			<polygon fill="#999999" points="189.889,1089.254 192.832,1095.311 193.693,1094.983 190.748,1088.928 			"/>
			<polygon fill="#999999" points="190.377,1084.912 189.889,1089.254 190.863,1089.223 191.295,1084.99 			"/>
			
				<rect x="203.072" y="1092.858" transform="matrix(0.7063 -0.708 0.708 0.7063 -713.6854 466.5524)" fill="#999999" width="4.629" height="0.922"/>
			
				<rect x="203.072" y="1098.315" transform="matrix(0.7064 0.7078 -0.7078 0.7064 838.071 177.2539)" fill="#999999" width="4.629" height="0.921"/>
			<circle fill="#333333" cx="201.613" cy="1096.236" r="3.993"/>
			<ellipse fill="#333333" cx="185.586" cy="1096.236" rx="6.582" ry="4.947"/>
			<circle fill="#333333" cx="194.793" cy="1096.236" r="3.598"/>
		</g>
	</g>
</g>
</svg>
