<?xml version="1.0" encoding="utf-8"?>
<!-- Generator: Adobe Illustrator 16.0.0, SVG Export Plug-In . SVG Version: 6.00 Build 0)  -->
<!DOCTYPE svg PUBLIC "-//W3C//DTD SVG 1.1//EN" "http://www.w3.org/Graphics/SVG/1.1/DTD/svg11.dtd">
<svg version="1.1" id="Layer_1" xmlns="http://www.w3.org/2000/svg" xmlns:xlink="http://www.w3.org/1999/xlink" x="0px" y="0px"
	 viewBox="0 0 328.066 337.164" enable-background="new 0 0 328.066 337.164"
	 xml:space="preserve">
<g>
	<circle fill="#E2E2E2" cx="164.033" cy="164.033" r="164.033"/>
	<g>
		<defs>
			<circle id="SVGID_1_" cx="164.033" cy="164.033" r="164.033"/>
		</defs>
		<clipPath id="SVGID_2_">
			<use xlink:href="#SVGID_1_"  overflow="visible"/>
		</clipPath>
		<g clip-path="url(#SVGID_2_)">
			<g>
				<g>
					
						<line fill="none" stroke="#333333" stroke-width="3" stroke-miterlimit="10" x1="50.783" y1="98.282" x2="53.377" y2="99.789"/>
					
						<line fill="none" stroke="#333333" stroke-width="3" stroke-miterlimit="10" stroke-dasharray="5.9513,5.9513" x1="58.524" y1="102.776" x2="272.115" y2="226.782"/>
					
						<line fill="none" stroke="#333333" stroke-width="3" stroke-miterlimit="10" x1="274.688" y1="228.276" x2="277.283" y2="229.782"/>
				</g>
			</g>
			<g>
				<g>
					
						<line fill="none" stroke="#333333" stroke-width="3" stroke-miterlimit="10" x1="50.783" y1="98.282" x2="53.377" y2="99.789"/>
					
						<line fill="none" stroke="#333333" stroke-width="3" stroke-miterlimit="10" stroke-dasharray="5.9513,5.9513" x1="58.524" y1="102.776" x2="272.115" y2="226.782"/>
					
						<line fill="none" stroke="#333333" stroke-width="3" stroke-miterlimit="10" x1="274.688" y1="228.276" x2="277.283" y2="229.782"/>
				</g>
			</g>
			<g>
				<g>
					
						<line fill="none" stroke="#333333" stroke-width="3" stroke-miterlimit="10" x1="277.283" y1="98.282" x2="274.688" y2="99.789"/>
					
						<line fill="none" stroke="#333333" stroke-width="3" stroke-miterlimit="10" stroke-dasharray="5.9513,5.9513" x1="269.542" y1="102.776" x2="55.951" y2="226.782"/>
					
						<line fill="none" stroke="#333333" stroke-width="3" stroke-miterlimit="10" x1="53.377" y1="228.276" x2="50.783" y2="229.782"/>
				</g>
			</g>
			<circle fill="#F7F7F7" cx="50.783" cy="98.282" r="48.666"/>
			<g>
				<defs>
					<circle id="SVGID_3_" cx="50.783" cy="98.282" r="48.666"/>
				</defs>
				<clipPath id="SVGID_4_">
					<use xlink:href="#SVGID_3_"  overflow="visible"/>
				</clipPath>
				<g clip-path="url(#SVGID_4_)">
					<g>
						<path fill="#EFBB93" d="M62.361,109.19c0-8.814-4.917-16.026-10.927-16.026s-10.927,7.211-10.927,16.026
							s-6.884,16.026-15.298,16.026s-15.298,4.729-15.298,10.708c0,5.978,12.111,13.241,26.914,15.241c0,0,0,0,14.898,0
							c14.787,0,14.787,0,14.787,0c14.704-2,26.734-9.212,26.734-15.208s-6.949-10.821-15.442-10.821S62.361,118.004,62.361,109.19z
							"/>
					</g>
					<path fill="#EFBB93" d="M50.725,115.938c10-0.134,18.066-12.534,20.09-22.786c0.16,0.101,0.487,0.158,0.659,0.158
						c1.225,0,1.845-2.739,1.845-6.118s-1.594-6.119-2.594-6.119v-3.225l0.447,0.372c-0.297-10.434-7.57-18.056-17.482-19.056
						h-2.965V115.938z"/>
					<path fill="#F9CDA6" d="M50.725,115.938c-10-0.134-17.279-12.534-19.305-22.786c-0.158,0.101-0.093,0.158-0.263,0.158
						c-1.227,0-2.437-2.739-2.437-6.118s0.004-6.119,2.004-6.119v-1.908h0.637c0.297-11,8.059-19,17.971-20h1.393V115.938z"/>
					<g>
						<path fill="#F9CDA6" d="M51.705,122.164c0-16.039-2.524-29.081-5.609-29.081s-5.609,7.252-5.609,16.066
							s-6.884,16.046-15.297,16.046s-15.297,4.739-15.297,10.718s12.11,13.251,26.912,15.251c0,0,0,0,14.898,0l0,0
							C51.704,151.164,51.705,138.203,51.705,122.164z"/>
					</g>
					<path fill="#5E4534" d="M51.715,58.201c-22.697,0-20.643,22.871-20.643,22.871c4.26,0,6.881-11.152,6.881-11.152
						s16.818,3.084,26.82,0c0,0,3.396,11.152,6.906,11.152C71.68,81.072,74.5,58.201,51.715,58.201z"/>
					<path fill="#503B2C" d="M64.279,69.92c0,0,3.147,11.152,6.657,11.152c0,0,2.788-22.871-20.212-22.871v13.07
						C54.725,71.373,60.477,71.092,64.279,69.92z"/>
					<path fill="#F4A25F" d="M39.588,115.938c-0.619,2.161-6.035,9.278-12.014,9.278s-9.812-0.011-13.424,2.81
						c-3.609,2.82-4.258,6.542-4.258,7.67c0,1.129,0.197,5.527,3.469,8.461c3.271,2.933,6.344,4.512,11.012,5.075
						c4.668,0.564,8.408,1.392,10.545,1.56c2.137,0.167,16.764,0.697,16.785,0.697s0.012-30.625,0.012-30.625L39.588,115.938z"/>
					<path fill="#F4A25F" d="M63.277,115.938c1.072,3.459,6.391,9.278,12.369,9.278s9.814-0.011,13.424,2.81s4.26,6.542,4.26,7.67
						c0,1.129-0.199,5.527-3.471,8.461c-3.27,2.933-6.342,4.512-11.012,5.075c-4.668,0.564-8.406,1.392-10.545,1.56
						c-2.137,0.167-16.764,0.697-16.785,0.697s0.197-30.625,0.197-30.625L63.277,115.938z"/>
					<polygon fill="#BB8B42" points="37.48,119.359 49.119,124.587 48.443,125.545 37.221,119.672 					"/>
					<polygon fill="#BB8B42" points="49.119,124.528 51.715,120.805 49.684,124.74 					"/>
					<polygon fill="#BB8B42" points="65.205,119.358 53.744,124.528 54.352,125.404 65.42,119.625 					"/>
					<polygon fill="#BB8B42" points="53.744,124.528 51.715,120.805 53.279,124.74 					"/>
					<circle fill="#F0F2F4" cx="51.461" cy="131.974" r="0.678"/>
					<circle fill="#F0F2F4" cx="51.461" cy="137.501" r="0.678"/>
					<circle fill="#F0F2F4" cx="51.376" cy="143.142" r="0.677"/>
					<circle fill="#F0F2F4" cx="51.461" cy="148.556" r="0.678"/>
				</g>
			</g>
			<circle fill="#F7F7F7" cx="50.783" cy="229.782" r="48.666"/>
			<g>
				<defs>
					<circle id="SVGID_5_" cx="50.783" cy="229.782" r="48.666"/>
				</defs>
				<clipPath id="SVGID_6_">
					<use xlink:href="#SVGID_5_"  overflow="visible"/>
				</clipPath>
				<g clip-path="url(#SVGID_6_)">
					<path fill="#FF7C59" d="M52.551,193.061C69,193.062,74.768,210.035,74.768,215.27c0,5.233-3.404,14.359-3.404,20.107
						s3.404,7.966,3.404,14.394c0,6.43-6.094,14.394-6.094,14.394h-35.68c0,0-5.768-10.185-5.768-15.952s3.117-7.976,3.117-13.433
						c0-5.455-2.184-16.326-2.184-20.562S33.461,193.061,52.551,193.061z"/>
					<path fill="#EF6346" d="M52.221,193.061c-0.395,0-1.496,0.01-1.496,0.024v71.079h17.949c0,0,6.094-7.964,6.094-14.394
						c0-6.428-3.404-8.308-3.404-14.056s3.239-15.043,3.239-20.276C74.603,210.204,68.67,193.062,52.221,193.061z"/>
					<g>
						<path fill="#EFBB93" d="M61.195,239.951c0-8.119-4.53-14.763-10.066-14.763s-10.066,6.644-10.066,14.763
							c0,8.12-6.342,14.764-14.093,14.764s-14.093,4.629-14.093,10.137s11.157,11.312,24.793,14.312c0,0,0,0,13.727,0
							c13.623,0,13.623,0,13.623,0c13.546-3,24.629-8.758,24.629-14.283c0-5.523-6.402-10.104-14.227-10.104
							S61.195,248.071,61.195,239.951z"/>
					</g>
					<path fill="#EFBB93" d="M50.725,246.168c9-0.123,16.518-11.547,18.383-20.991c0.146,0.092,0.386,0.146,0.544,0.146
						c1.129,0,1.581-2.523,1.581-5.637s-0.508-5.637-2.508-5.637v-2.971l0.5,0.492c-0.273-9.612-6.887-16.406-16.018-17.406h-2.482
						V246.168z"/>
					<path fill="#F9CDA6" d="M50.725,246.168c-10-0.123-16.043-11.547-17.908-20.991c-0.146,0.092-0.149,0.146-0.308,0.146
						c-1.129,0-2.437-2.523-2.437-5.637s-0.348-5.637,1.652-5.637v-1.885h0.912c0.273-10,7.424-17,16.555-18h1.533V246.168z"/>
					<g>
						<path fill="#F9CDA6" d="M51.725,252.054c0-14.776-2.499-26.865-5.341-26.865s-5.254,6.644-5.254,14.763
							c0,8.12-6.385,14.764-14.136,14.764s-14.115,4.629-14.115,10.137s11.135,11.312,24.771,14.312c0,0,0.074,0,14.074,0
							C51.725,279.164,51.725,266.83,51.725,252.054z"/>
					</g>
					<path fill="#FF7C59" d="M51.387,192.979c-20.908,0-19.018,21.07-19.018,21.07c3.926,0,6.34-10.274,6.34-10.274l-1.195,8.688
						c5.299,1.403,21.949,2.104,27.658,0.156l-1.754-8.845c0,0,3.127,10.274,6.361,10.274
						C69.779,214.049,72.379,192.979,51.387,192.979z"/>
					<path fill="#ADB867" d="M30.033,254.574l-3.457,0.127c0,0-6.572,21.101-1.27,22.318c15.994,2.9,44.334,1.917,51.047,0.011
						c4.857,0-1.275-22.272-1.275-22.272l-3.242-0.186c0,3.301-13.59,14.318-20.449,14.318
						C44.684,268.891,30.033,258.235,30.033,254.574z"/>
					<path fill="#EF6346" d="M64.84,212.619l-1.589-8.845c0,0,2.88,10.274,6.114,10.274c0,0,2.359-21.07-18.641-21.07v20.823
						C55.725,213.931,62.037,213.576,64.84,212.619z"/>
				</g>
			</g>
			<circle fill="#F7F7F7" cx="277.283" cy="98.282" r="48.666"/>
			<g>
				<defs>
					<circle id="SVGID_7_" cx="277.283" cy="98.282" r="48.666"/>
				</defs>
				<clipPath id="SVGID_8_">
					<use xlink:href="#SVGID_7_"  overflow="visible"/>
				</clipPath>
				<g clip-path="url(#SVGID_8_)">
					<g>
						<g>
							<path fill="#EFBB93" d="M288.518,110.01c0,9.136,7.203,16.61,16.006,16.61s16.006,5.241,16.006,11.457
								c0,6.216-12.469,13.087-27.709,16.087c0,0,0,0-15.328,0c-15.443,0-15.443,0-15.443,0c-15.342-3-27.895-9.926-27.895-16.122
								c0-6.197,7.135-11.344,15.855-11.344s15.855-7.514,15.855-16.649s5.097-16.63,11.326-16.63S288.518,100.874,288.518,110.01z"
								/>
						</g>
					</g>
					<path fill="#F9CDA6" d="M297.725,80.867v-2.703h0.441c-0.328-12-9.521-19.782-20.824-19.782
						c-11.301,0-20.494,7.782-20.822,19.782h0.205v2.703c-1,0-2.375,2.84-2.375,6.342c0,3.503,0.958,6.343,2.212,6.343
						c0.172,0,0.312-0.06,0.474-0.165c2.078,10.684,10.375,23.62,20.32,23.62c9.943,0,18.25-12.937,20.326-23.62
						c0.164,0.105,0.327,0.165,0.503,0.165c1.25,0,2.036-2.84,2.036-6.343C300.221,83.707,298.725,80.867,297.725,80.867z"/>
					<path fill="#EFBB93" d="M276.725,117.004c10-0.139,18.496-12.99,20.559-23.617c0.166,0.105,0.528,0.165,0.702,0.165
						c1.25,0,2.136-2.84,2.136-6.343c0-3.502-1.396-6.342-2.396-6.342v-2.703h0.441c-0.305-11-8.184-19-18.299-20h-3.143V117.004z"
						/>
					<g>
						<path fill="#F9CDA6" d="M277.725,123.626c0-16.625-2.732-30.227-5.93-30.227s-5.871,7.475-5.871,16.61
							s-7.164,16.61-15.885,16.61s-15.87,5.226-15.87,11.422c0,6.196,12.538,13.122,27.88,16.122c0,0-0.324,0,15.676,0
							C277.725,154.164,277.725,140.251,277.725,123.626z"/>
					</g>
					<path fill="#262626" d="M298.166,77.243c-0.328-11.174-9.594-19.782-20.9-19.782c-5.621,0-11.541,2.135-14.541,5.655
						c0,0,0-0.006,0-0.008c0,0.035,0.004,0.071-0.033,0.107c-0.678,0.647-1.091,1.342-1.675,2.077
						c-2.777,3.43-4.292,7.441-4.292,11.95v3.624c1-0.447,1.852-5.513,2.406-5.513s2.45-0.024,4.464-1.333
						c1.512-0.984,1.741-4.571,2.569-5.839c8.531,9.061,23.027,1.307,25.949,3.121c1.588,0.987,3.557,10.005,6.064,9.579
						c-0.045-0.006-0.097-0.016-0.144-0.016L298.166,77.243z"/>
					<path fill="#2B2B2B" d="M276.725,57.463c0,0,0.189-0.002,0.16-0.002c-5.625,0-11.16,2.135-14.16,5.655c0,0,0-0.006,0-0.008
						c0,0.035,0.004,0.071-0.033,0.107c-0.678,0.647-1.091,1.342-1.675,2.077c-2.777,3.43-4.292,7.441-4.292,11.95v3.624
						c1-0.447,1.852-5.513,2.406-5.513s2.45-0.024,4.464-1.333c1.512-0.984,1.356-4.571,2.185-5.839
						c3.248,3.448,5.945,4.461,10.945,4.491V57.463z"/>
					<g>
						<g>
							<path fill="#0F69A6" d="M290.239,126.757c-0.986,0-1.794-0.061-1.794-0.136c0-0.074-3.247,1.174-7.215,2.772
								c0,0,0,0-3.939,0.188c-3.23,0.156-6.404-0.209-9.42-1.422c-1.01-0.406-1.01-0.406-1.01-0.406
								c-1.065-0.549-8.876-0.997-17.356-0.997s-15.419,5.07-15.419,11.267s12.553,13.381,27.895,15.965c0,0,0,0,15.443,0
								c15.326,0,15.326,0,15.326,0c15.24-2.547,27.709-9.716,27.709-15.932c0-6.215-6.396-11.3-14.213-11.3
								S291.226,126.757,290.239,126.757z"/>
						</g>
						<path fill="#0F69A6" d="M307.09,126.811c-2.305-0.19-7.754-0.219-10.908-2.695l-9.5,3.328L307.09,126.811z"/>
						<path fill="#0F69A6" d="M247.334,126.811c2.303-0.19,7.943-0.708,11.098-3.185l7.674,4.007L247.334,126.811z"/>
					</g>
					<polygon fill="#0B4F7D" points="276.725,126.486 292.703,121.448 295.839,124.115 276.725,132.207 					"/>
					<polygon fill="#0B4F7D" points="276.725,126.486 261.121,121.448 257.755,124.115 276.725,132.207 					"/>
				</g>
			</g>
			<circle fill="#F7F7F7" cx="277.283" cy="229.782" r="48.666"/>
			<g>
				<defs>
					<circle id="SVGID_9_" cx="277.283" cy="229.782" r="48.666"/>
				</defs>
				<clipPath id="SVGID_10_">
					<use xlink:href="#SVGID_9_"  overflow="visible"/>
				</clipPath>
				<g clip-path="url(#SVGID_10_)">
					<path fill="#A58355" d="M285.955,192.756c0.008-3.516,11.281,3.91,13.756,9.313c3.959,8.64,4.982,13.688,6.266,18.786
						c3.074,12.213,2.479,18.599,10.328,19.7c1.623,0.228-23.822,10.465-37.627,7.16
						C267.076,244.939,285.955,192.756,285.955,192.756z"/>
					<path fill="#A58355" d="M285.963,192.844c0-3.649-9.693-3.753-14.1-2.582c-4.359,1.157-14.273,5.784-16.496,16.496
						c-2.885,13.9-7.516,31.597-14.246,32.559c-0.963,0.138,19.707,9.776,37.461,9.776L285.963,192.844z"/>
					<g>
						<path fill="#EFBB93" d="M288.951,241.543c0-8.594-4.794-15.625-10.652-15.625s-10.652,7.031-10.652,15.625
							s-6.712,15.625-14.915,15.625s-14.915,4.959-14.915,10.789c0,5.828,11.809,12.207,26.24,15.207c0,0,0,0,14.525,0
							c14.418,0,14.418,0,14.418,0c14.336-3,26.064-9.33,26.064-15.176s-6.775-10.725-15.057-10.725
							S288.951,250.137,288.951,241.543z"/>
					</g>
					<path fill="#F9CDA6" d="M297.725,214.129v-1.965h0.303c-0.309-11-8.955-18.607-19.586-18.607s-19.279,7.607-19.588,18.607
						h-1.129v1.965c-1,0-1.572,2.672-1.572,5.966c0,3.295,1.231,5.966,2.407,5.966c0.164,0,0.462-0.057,0.616-0.154
						c1.953,10.051,9.842,22.218,19.193,22.218c9.355,0,17.209-12.167,19.162-22.218c0.154,0.098,0.329,0.154,0.493,0.154
						c1.176,0,1.981-2.671,1.981-5.966C300.006,216.801,298.725,214.129,297.725,214.129z"/>
					<path fill="#EFBB93" d="M278.725,248.121c8-0.13,16.965-12.219,18.908-22.215c0.152,0.098,0.28,0.154,0.442,0.154
						c1.178,0,1.956-2.671,1.956-5.966c0-3.294-1.307-5.966-2.307-5.966v-1.965h0.303c-0.283-10-7.697-18-17.213-19h-2.09V248.121z"
						/>
					<g>
						<path fill="#F9CDA6" d="M278.725,254.35c0-15.637-2.532-28.432-5.539-28.432s-5.504,7.031-5.504,15.625
							s-6.729,15.625-14.933,15.625s-14.924,4.959-14.924,10.789c0,5.828,11.8,12.207,26.231,15.207c0,0-0.332,0,14.668,0
							C278.725,283.164,278.725,269.987,278.725,254.35z"/>
					</g>
					<path fill="#A58355" d="M297.623,206.773c-0.662-2.58-1.568-4.115-2.523-5.475c-1.846-2.627-6.863-7.135-13.486-7.135
						c-0.004,0-0.006,0-0.01,0c-3.543,0-8.791-0.789-14.02,2.35c-4.066,2.441-7.588,6.963-8.428,12.158
						c-1.787,11.062-7.109,13.003-7.109,13.003c16.82,1.24,25.471-9.545,29.742-18.465c0.139,0.256,0,0,0,0
						c0.918,5.762,7.527,21.356,23.545,20.899C305.988,224.09,301.525,221.949,297.623,206.773z"/>
					<path fill="#C19C67" d="M297.623,205.672c-0.662-2.58-1.568-4.064-2.523-5.424c-1.846-2.627-6.863-7.084-13.486-7.084
						c-0.004,0-0.006,0-0.01,0c-3.543-1-8.791-0.84-14.02,2.299c-4.066,2.441-7.588,6.938-8.428,12.133
						c-1.787,11.062-6.283,13.658-6.283,13.658c13.018,0.344,23.918-11.634,29.373-20.013c0.141,0.258,0,0,0,0
						c1.838,4.806,8.164,22.454,22.354,22.001C305.254,223.221,301.525,220.848,297.623,205.672z"/>
					<path fill="#333333" d="M261.811,256.856"/>
					<path fill="#EDCFE7" d="M303.119,257.079L303.119,257.079c-0.006,0-0.014-0.063-0.02-0.063
						c-0.061-0.004-0.123-0.039-0.186-0.043c-2.393-0.129-8.229-2.526-10.672-6.109l-13.391,10.609l-14.598-10.448
						c-2.754,4.038-6.953,5.609-8.674,5.834l0.047,0.012c-5.74,0.146-17.811,1.735-17.811,9.39c0,10.74,7.621,16.523,40.766,16.523
						c34.418,0,40.018-5.354,40.482-15.728C319.332,261.086,312.094,257.63,303.119,257.079z"/>
					<polygon fill="#BDAACC" points="261.074,254.351 276.51,266.993 274.922,268.613 260.172,254.98 					"/>
					<polygon fill="#BDAACC" points="276.51,266.993 278.852,261.473 277.18,267.172 					"/>
					<polygon fill="#BDAACC" points="296.422,254.558 281.238,266.993 282.828,268.613 297.424,255.122 					"/>
					<polygon fill="#BDAACC" points="281.238,266.993 278.898,261.473 280.568,267.172 					"/>
					<g>
						<circle fill="#413156" cx="278.886" cy="267.578" r="1.458"/>
						<circle fill="#1C0D30" cx="278.334" cy="267.027" r="0.23"/>
						<circle fill="#1C0D30" cx="279.436" cy="267.027" r="0.23"/>
						<circle fill="#1C0D30" cx="279.436" cy="268.129" r="0.23"/>
						<circle fill="#1C0D30" cx="278.334" cy="268.129" r="0.23"/>
					</g>
					<g>
						<circle fill="#413156" cx="278.886" cy="274.188" r="1.458"/>
						<circle fill="#1C0D30" cx="278.334" cy="273.637" r="0.23"/>
						<circle fill="#1C0D30" cx="279.436" cy="273.637" r="0.23"/>
						<circle fill="#1C0D30" cx="279.436" cy="274.738" r="0.23"/>
						<circle fill="#1C0D30" cx="278.334" cy="274.738" r="0.23"/>
					</g>
					<g>
						<circle fill="#413156" cx="278.886" cy="280.797" r="1.458"/>
						<circle fill="#1C0D30" cx="278.334" cy="280.246" r="0.23"/>
						<circle fill="#1C0D30" cx="279.436" cy="280.246" r="0.23"/>
						<circle fill="#1C0D30" cx="279.436" cy="281.348" r="0.23"/>
						<circle fill="#1C0D30" cx="278.334" cy="281.348" r="0.23"/>
					</g>
				</g>
			</g>
			<g>
				<path fill="#ADB867" d="M170.775,135.065l0.098-0.003c0,0,11.895-25.925,6.047-26.327c-5.846-0.403-18.549,14.432-22.582,14.33
					c-4.031-0.101-15.928-10.988-21.17-9.376c-4.713,1.451,7.355,18.053,9.84,21.388c-10.76,9.396-22.137,26.188-22.137,38.089
					c0,23.792,18.049,29.841,35.418,29.841c17.373,0,36.762-6.453,36.762-31.452C193.051,159.812,181.814,144.05,170.775,135.065z"
					/>
				<path fill="#99A641" d="M170.775,135.065l0.098-0.003c0,0,11.895-25.925,6.047-26.327c-4.887-0.337-14.559,9.965-19.959,13.301
					v80.963c17.195-0.165,36.09-6.765,36.09-31.444C193.051,159.812,181.814,144.05,170.775,135.065z"/>
				<text transform="matrix(1 0 0 1 144.8862 183.249)" fill="#F0F2F4" font-family="'AmericanTypewriter'" font-size="42.3407">$</text>
				<path fill="none" stroke="#FFD20A" stroke-width="3" stroke-linecap="round" stroke-miterlimit="10" d="M143.008,136.287
					c3.266,3.01,23.639,3.014,27.768-0.014"/>
				<path fill="none" stroke="#FFE454" stroke-width="3" stroke-linecap="round" stroke-miterlimit="10" d="M143.008,134.473
					c3.266,3.01,23.639,3.014,27.768-0.013"/>
			</g>
		</g>
	</g>
	<g>
		<rect x="86.725" y="283.164" fill="#333333" width="155" height="54"/>
		<rect x="92.725" y="290.164" fill="#333333" stroke="#E2E2E2" stroke-width="2" stroke-miterlimit="10" width="143" height="41"/>
		<text transform="matrix(1 0 0 1 107.4409 315.5703)" fill="#F7F7F7" font-family="'Open Sans', sans-serif" font-size="20">Investidores</text>
	</g>
</g>
</svg>
