<?xml version="1.0" encoding="utf-8"?>
<!-- Generator: Adobe Illustrator 16.0.0, SVG Export Plug-In . SVG Version: 6.00 Build 0)  -->
<!DOCTYPE svg PUBLIC "-//W3C//DTD SVG 1.1//EN" "http://www.w3.org/Graphics/SVG/1.1/DTD/svg11.dtd">
<svg version="1.1" xmlns="http://www.w3.org/2000/svg" xmlns:xlink="http://www.w3.org/1999/xlink" x="0px" y="0px"
	 width="337.863px" height="428.872px" viewBox="0 0 337.863 428.872" enable-background="new 0 0 337.863 428.872"
	 xml:space="preserve">
<g id="dashed-line">
	
		<line fill="none" stroke="#333333" stroke-width="5" stroke-miterlimit="10" stroke-dasharray="12" x1="76.58" y1="88.151" x2="267.356" y2="344.968"/>
</g>
<g id="intermediary">
</g>
<g id="man">
	<g>
		<circle fill="#E2E2E2" cx="253.786" cy="320.968" r="44.078"/>
		<g>
			<defs>
				<circle id="SVGID_1_" cx="253.786" cy="320.968" r="44.078"/>
			</defs>
			<clipPath id="SVGID_2_">
				<use xlink:href="#SVGID_1_"  overflow="visible"/>
			</clipPath>
			<g clip-path="url(#SVGID_2_)">
				<g>
					<path fill="#EFBB93" d="M263.665,330.829c0-7.928-4.423-14.414-9.828-14.414c-5.404,0-9.827,6.486-9.827,14.414
						c0,7.927-6.191,14.413-13.759,14.413c-7.566,0-13.758,4.38-13.758,9.757c0,5.378,10.893,11.834,24.205,13.834c0,0,0,0,13.4,0
						c13.3,0,13.3,0,13.3,0c13.225-2,24.045-8.411,24.045-13.805s-6.25-9.796-13.89-9.796
						C269.915,345.232,263.665,338.756,263.665,330.829z"/>
				</g>
				<path fill="#EFBB93" d="M253.765,336.898c9-0.121,15.966-11.273,17.786-20.494c0.144,0.09,0.298,0.142,0.45,0.142
					c1.104,0,2.377-2.463,2.377-5.502s-0.613-5.503-1.613-5.503v-2.9l-0.387-0.167c-0.267-9.385-7.598-15.641-16.512-17.641h-2.102
					V336.898z"/>
				<path fill="#F9CDA6" d="M253.765,336.898c-9-0.121-15.824-11.273-17.646-20.494c-0.143,0.09-0.225,0.142-0.378,0.142
					c-1.103,0-1.984-2.463-1.984-5.502s1.008-5.503,2.008-5.503v-2.708h0.02c0.268-9,7.248-16,16.162-18h1.818V336.898z"/>
				<g>
					<path fill="#F9CDA6" d="M253.765,342.644c0-14.426-2.112-26.229-4.887-26.229s-4.966,6.486-4.966,14.414
						c0,7.927-6.151,14.413-13.718,14.413c-7.568,0-13.739,4.38-13.739,9.757c0,5.378,10.911,11.834,24.224,13.834
						c0,0,0.086,0,13.086,0l0,0C253.765,368.833,253.765,357.069,253.765,342.644z"/>
				</g>
				<path fill="#5E4534" d="M254.09,284.97c-20.413,0-18.566,20.571-18.566,20.571c3.832,0,6.188-10.03,6.188-10.03
					s15.127,2.773,24.123,0c0,0,3.054,10.03,6.212,10.03C272.047,305.541,274.583,284.97,254.09,284.97z"/>
				<path fill="#503B2C" d="M265.673,295.511c0,0,2.973,10.03,6.13,10.03c0,0,1.962-20.571-18.038-20.571v11.756
					C258.765,296.816,262.253,296.563,265.673,295.511z"/>
				<path fill="#0F69A6" d="M242.663,336.64c-0.559,1.943-7.094,8.756-11.523,8.586c-5.374-0.205-7.588,0.008-10.835,2.544
					c-3.246,2.537-3.83,5.884-3.83,6.898s0.179,4.972,3.121,7.609s5.705,4.058,9.903,4.565c4.197,0.508,7.562,1.251,9.484,1.402
					c1.922,0.15,15.077,0.627,15.097,0.627c0.019,0,0.01-27.544,0.01-27.544L242.663,336.64z"/>
				<path fill="#0F69A6" d="M265.065,336.898c1.016,2.171,7.186,8.473,12.059,8.303c5.375-0.188,7.316,0.032,10.562,2.568
					c3.247,2.537,3.832,5.884,3.832,6.898s-0.18,4.972-3.121,7.609s-5.705,4.058-9.904,4.565c-4.198,0.508-7.562,1.251-9.484,1.402
					c-1.922,0.15-15.077,0.627-15.097,0.627c-0.019,0,0.178-27.544,0.178-27.544L265.065,336.898z"/>
				<polygon fill="#0B4F7D" points="241.287,339.976 251.756,344.677 251.147,345.539 241.053,340.257 				"/>
				<polygon fill="#0B4F7D" points="251.756,344.625 254.09,341.275 252.263,344.815 				"/>
				<polygon fill="#0B4F7D" points="266.224,339.976 255.915,344.625 256.46,345.412 266.415,340.215 				"/>
				<polygon fill="#0B4F7D" points="255.915,344.625 254.09,341.275 255.497,344.815 				"/>
				<circle fill="#F0F2F4" cx="253.861" cy="351.321" r="0.608"/>
				<circle fill="#F0F2F4" cx="253.861" cy="356.292" r="0.608"/>
				<circle fill="#F0F2F4" cx="253.785" cy="361.365" r="0.608"/>
				<circle fill="#F0F2F4" cx="253.861" cy="366.234" r="0.608"/>
			</g>
		</g>
	</g>
</g>
<g id="woman">
	<g>
		<circle fill="#E2E2E2" cx="83.151" cy="103.151" r="43.151"/>
		<g>
			<defs>
				<circle id="SVGID_3_" cx="83.151" cy="103.151" r="43.151"/>
			</defs>
			<clipPath id="SVGID_4_">
				<use xlink:href="#SVGID_3_"  overflow="visible"/>
			</clipPath>
			<g clip-path="url(#SVGID_4_)">
				<path fill="#FF7BAC" d="M100.714,108.806c-0.529,1.192-1.992,1.697-3.268,1.13l-0.243-0.108
					c-1.274-0.566-1.878-1.992-1.349-3.183l2.837-6.001c0.528-1.19,1.992-1.696,3.268-1.129l0.243,0.108
					c1.274,0.566,1.879,1.991,1.349,3.184L100.714,108.806z"/>
				<g>
					<path fill="#EFBB93" d="M92.507,112.739c0-7.753-4.325-14.097-9.612-14.097s-9.612,6.344-9.612,14.097
						s-6.055,14.097-13.456,14.097c-7.401,0-13.457,4.246-13.457,9.505s10.653,11.492,23.674,13.492c0,0,0,0,13.106,0
						c13.006,0,13.006,0,13.006,0c12.935-2,23.518-8.188,23.518-13.463s-6.113-9.562-13.584-9.562S92.507,120.492,92.507,112.739z"
						/>
				</g>
				<path fill="#F9CDA6" d="M100.765,88.005v-3.172h-0.07c-0.277-9-8.08-16.789-17.671-16.789s-17.395,7.789-17.672,16.789h-0.586
					v3.172c0,0-1.636,2.41-1.636,5.383s1.003,5.382,2.065,5.382c0.148,0,0.363-0.051,0.501-0.14
					c1.762,9.068,8.854,20.047,17.292,20.047c8.439,0,15.512-10.979,17.273-20.047c0.139,0.089,0.291,0.14,0.438,0.14
					c1.062,0,1.955-2.409,1.955-5.382S101.765,88.005,100.765,88.005z"/>
				<path fill="#EFBB93" d="M83.765,118.674c8-0.117,15.064-11.024,16.816-20.044c0.139,0.089,0.131,0.14,0.278,0.14
					c1.062,0,1.875-2.409,1.875-5.382s-0.97-5.383-1.97-5.383v-3.172h-0.07c-0.256-9-6.943-15-15.529-17h-1.4V118.674z"/>
				<g>
					<path fill="#F9CDA6" d="M82.765,124.294c0-14.109-2.027-25.652-4.741-25.652c-2.713,0-4.837,6.344-4.837,14.097
						s-6.007,14.097-13.408,14.097c-7.401,0-13.432,4.246-13.432,9.505s10.677,11.492,23.698,13.492c0,0-0.28,0,12.72,0
						C82.765,149.833,82.765,138.403,82.765,124.294z"/>
				</g>
				<path fill="#CA6FB7" d="M62.583,126.507c10.788,12.755,40.721,10.852,57.092,10.021c0,0,0.398,3.986-6.301,7.951
					c-6.45,3.818-8.861,5.467-30.223,5.467c-14.583,0-36.925-0.507-36.925-15.084C46.226,126.497,62.583,126.507,62.583,126.507z"/>
				<path fill="#B83F9F" d="M119.366,138.243c0.375-1.053,0.309-1.715,0.309-1.715c-16.371,0.83-46.304,2.733-57.092-10.021
					c0,0-0.993,0.021-2.486,0.173C71.334,141.534,102.905,139.087,119.366,138.243z"/>
				<path fill="#333333" d="M83.393,68.116c12.21,0.1,17.849,8.572,17.394,19.63c-0.012,0.259-1.656,4.301-1.656,4.301
					S72.46,72.755,70.555,76.73c-0.935,1.951-5.549,14.901-5.549,11.274C65.006,83.056,65.133,68.116,83.393,68.116"/>
				<path fill="#333333" d="M100.812,100.851c2.221,0,8.954,3.016,10.285,7.146c2.283,7.081-4.033,13.987-6.087,17.269
					c-4.198,6.709,1.143,12.051,3.728,14.908c2.584,2.857-7.029,1.399-12.259-3.479c-3.538-3.301-6.005-8.448-3.972-13.045
					c1.311-2.963,10.16-12.521,5.049-15.031C97.016,108.352,100.812,100.851,100.812,100.851z"/>
				<path fill="#FF7BAC" d="M102.151,109.583c-0.45,1.224-1.808,1.85-3.03,1.399l-0.233-0.087c-1.224-0.45-1.85-1.807-1.398-3.03
					l2.428-6.177c0.449-1.223,1.807-1.85,3.03-1.398l0.233,0.086c1.223,0.45,1.849,1.808,1.398,3.03L102.151,109.583z"/>
			</g>
		</g>
	</g>
</g>
</svg>
