<svg version="1.1" id="Layer_1" xmlns="http://www.w3.org/2000/svg" xmlns:xlink="http://www.w3.org/1999/xlink" x="0px" y="0px"
	 viewBox="0 0 344 1080" enable-background="new 0 0 344 1080" xml:space="preserve">
<path fill="#2EA3F2" d="M344,1060c0,11.046-8.954,20-20,20H20c-11.046,0-20-8.954-20-20V20C0,8.954,8.954,0,20,0h304
	c11.046,0,20,8.954,20,20V1060z"/>
<g>
	<g>
		<path fill="#F7F7F7" d="M258,108.554c0,10.188-8.259,18.446-18.447,18.446H104.447C94.259,127,86,118.741,86,108.554V95.446
			C86,85.259,94.259,77,104.447,77h135.105C249.741,77,258,85.259,258,95.446V108.554z"/>
		<circle fill="#F7F7F7" cx="96.899" cy="89.511" r="36.894"/>
		<circle fill="#F7F7F7" cx="160.54" cy="81.209" r="45.194"/>
		<circle fill="#F7F7F7" cx="236.174" cy="79.365" r="47.039"/>
	</g>
	<g>
		<rect x="60.926" y="292.243" fill="none" width="222.09" height="41.248"/>
		<text transform="matrix(1 0 0 1 63.064 307.4434)"><tspan x="0" y="0" fill="#F7F7F7" font-family="'Open Sans', sans-serif" font-size="20">Transferência de Ativos </tspan><tspan x="55.586" y="24" fill="#F7F7F7" font-family="'Open Sans', sans-serif" font-size="20">Financeiros</tspan></text>
	</g>
	<g>
		<rect x="97.432" y="78.72" fill="none" width="149.078" height="19.502"/>
		<text transform="matrix(1 0 0 1 104.9551 95.4395)" fill="#333333" font-family="'Open Sans', sans-serif" font-style="italic" font-size="22">Colored Coins</text>
	</g>
	<g>
		<g>
			<circle fill="#530844" cx="105.616" cy="186" r="28.547"/>
			<circle fill="#7D0B65" cx="105.615" cy="186" r="23.9"/>
			<path opacity="0.2" fill="#F7F7F7" d="M105.616,157.453c-15.766,0-28.547,12.78-28.547,28.547c0,7.883,3.195,15.02,8.361,20.186
				l40.371-40.371C120.635,160.647,113.499,157.453,105.616,157.453z"/>
		</g>
		<g>
			<circle fill="#737D31" cx="171.609" cy="236" r="28.547"/>
			<circle fill="#99A641" cx="171.609" cy="236" r="23.899"/>
			<path opacity="0.2" fill="#F7F7F7" d="M171.609,207.453c-15.766,0-28.547,12.78-28.547,28.547c0,7.883,3.195,15.02,8.361,20.186
				l40.372-40.371C186.629,210.647,179.492,207.453,171.609,207.453z"/>
		</g>
		<g>
			<circle fill="#B37A10" cx="237.602" cy="186" r="28.547"/>
			<circle fill="#EEA315" cx="237.603" cy="186" r="23.899"/>
			<path opacity="0.2" fill="#F7F7F7" d="M237.602,157.453c-15.766,0-28.547,12.78-28.547,28.547c0,7.883,3.197,15.02,8.363,20.186
				l40.369-40.371C252.623,160.647,245.486,157.453,237.602,157.453z"/>
		</g>
	</g>
</g>
<g>
	<g>
		<path fill="#F7F7F7" d="M259,825.554c0,10.188-8.259,18.446-18.447,18.446H105.447C95.259,844,87,835.741,87,825.554v-13.107
			C87,802.259,95.259,794,105.447,794h135.105c10.188,0,18.447,8.259,18.447,18.446V825.554z"/>
		<circle fill="#F7F7F7" cx="97.572" cy="806.511" r="36.894"/>
		<circle fill="#F7F7F7" cx="161.214" cy="798.209" r="45.194"/>
		<circle fill="#F7F7F7" cx="236.847" cy="796.365" r="47.039"/>
	</g>
	<g>
		<rect x="64.816" y="987.112" fill="none" width="215.547" height="63.379"/>
		<text transform="matrix(1 0 0 1 106.5591 1002.3125)"><tspan x="0" y="0" fill="#F7F7F7" font-family="'Open Sans', sans-serif" font-size="20">Criptomoedas </tspan><tspan x="60.312" y="24" fill="#F7F7F7" font-family="'Open Sans', sans-serif" font-size="20">+</tspan><tspan x="-23.032" y="48" fill="#F7F7F7" font-family="'Open Sans', sans-serif" font-size="20">Internet das Coisas</tspan></text>
	</g>
	<g>
		<rect x="84.55" y="795.72" fill="none" width="176.079" height="19.502"/>
		<text transform="matrix(1 0 0 1 91.1045 812.4395)" fill="#333333" font-family="'Open Sans', sans-serif" font-style="italic" font-size="22">Smart Properties</text>
	</g>
	<g>
		<g>
			<path fill="none" stroke="#F7F7F7" stroke-width="3" stroke-miterlimit="10" d="M42.533,953c0-1.018,0.001-2.017,0.005-2.998"/>
			<path fill="none" stroke="#F7F7F7" stroke-width="3" stroke-miterlimit="10" stroke-dasharray="6.1105,6.1105" d="
				M42.599,943.896c0.98-56.208,15.227-47.117,185.899-46.899"/>
			<path fill="none" stroke="#F7F7F7" stroke-width="3" stroke-miterlimit="10" d="M232,896.5c0,1,3,1,3,1"/>
		</g>
	</g>
	<g>
		<path fill="#C45B5B" d="M169,914.105c0-0.845-0.938-1.529-2-1.529l0,0c-1.064,0-2,0.685-2,1.529v6.564
			c0,0.845,0.936,1.529,2,1.529l0,0c1.062,0,2-0.685,2-1.529V914.105z"/>
		<path fill="#CCCCCC" d="M168,932.259c0,2.814,1.948,4.741,4.764,4.741h155.398c2.813,0,4.838-1.927,4.838-4.741V930H168V932.259z"
			/>
		<path fill="#0F69A6" d="M320.35,912.688c0-1.81,0.729-3.494,1.981-4.903c-0.776-0.351-1.601-0.686-2.492-1.001
			c-14.624-5.136-19.689-15.525-26.154-24.1C288.676,876.039,274.153,863,258.359,863h-38.213C197.636,863,168,892.936,168,915.446
			v5.55v1.073v1.529V930h165v-6.401v-1.972c0,0.012-0.381,0.02-0.637,0.02C325.656,921.646,320.35,917.636,320.35,912.688z"/>
		<path fill="#E3F5FF" d="M219,898v-30.043C203,871.386,188.164,885,179.421,898H219z"/>
		<path fill="#0B4F7D" d="M219.534,937c-0.085-10-8.292-18.255-18.408-18.255S182.804,927,182.72,937H219.534z"/>
		<path fill="#0B4F7D" d="M310.225,937c-0.084-10-8.29-18.255-18.407-18.255c-10.115,0-18.322,8.255-18.407,18.255H310.225z"/>
		<circle fill="#333333" cx="201.126" cy="937.525" r="15.201"/>
		<circle fill="#B3B3B3" cx="201.126" cy="937.525" r="10.522"/>
		<circle fill="#333333" cx="291.817" cy="937.525" r="15.2"/>
		<circle fill="#B3B3B3" cx="291.817" cy="937.525" r="10.521"/>
		<polygon fill="#CCCCCC" points="269.92,904 261.656,904 259.82,901 268.083,901 		"/>
		<polygon fill="#CCCCCC" points="233.193,904 224.93,904 224.012,901 232.275,901 		"/>
		<path fill="#F9F2B4" d="M333.123,920.868c-0.021-1.342-0.3-2.628-0.917-3.816c-1.209-2.808-3.882-6.544-9.906-9.268
			c-1.251,1.409-1.968,3.094-1.968,4.903c0,4.948,5.318,8.959,12.025,8.959c0.256,0,0.643-0.008,0.643-0.02v-0.631
			C333,920.996,333.127,920.95,333.123,920.868z"/>
		<line fill="none" stroke="#065F87" stroke-miterlimit="10" x1="221.5" y1="898" x2="221.5" y2="930"/>
		<line fill="none" stroke="#065F87" stroke-miterlimit="10" x1="257.5" y1="898" x2="257.5" y2="930"/>
		<path fill="#CCCCCC" d="M201.126,927.004c-5.811,0-10.521,4.712-10.521,10.521c0,2.167,0.656,4.182,1.777,5.854l14.6-14.596
			C205.307,927.66,203.294,927.004,201.126,927.004z"/>
		<path fill="#CCCCCC" d="M291.817,927.004c-5.811,0-10.521,4.712-10.521,10.521c0,2.167,0.656,4.182,1.779,5.854l14.598-14.596
			C295.998,927.66,293.985,927.004,291.817,927.004z"/>
		<polygon fill="#CAEFFC" points="254,880.291 236.452,898 254,898 		"/>
		<polygon fill="#E3F5FF" points="254,868 221,868 221,898 236.452,898 254,880.291 		"/>
		<path fill="#E3F5FF" d="M261.5,867.674l-4.5-0.122v10.191l8.867-8.907C264.451,868.366,262.967,867.97,261.5,867.674z"/>
		<path fill="#CAEFFC" d="M290.629,886.683c-3.876-5.141-13.361-14.077-24.805-17.878L257,877.743V898h4.417h37.544
			C295.876,894,293.376,890.327,290.629,886.683z"/>
		<path fill="#0B4F7D" d="M298.876,898.563c-0.477,1.718-2.253,2.724-3.971,2.249l-5.565-1.542c-1.719-0.476-2.724-2.253-2.249-3.97
			l0.046-0.164c0.476-1.719,2.253-2.725,3.971-2.249l5.565,1.54c1.717,0.476,2.724,2.254,2.249,3.971L298.876,898.563z"/>
	</g>
	<g>
		<path fill="#CCCCCC" d="M51.109,978.548v-2.033h-16.24v2.026c0.082,10.152-4.06,10.155-4.06,10.155
			c0,1.121,0.907,2.029,2.029,2.029h20.301c1.122,0,2.031-0.908,2.031-2.029C55.17,988.696,51.029,988.696,51.109,978.548z"/>
		<path fill="#434955" d="M75.467,968.396L75.467,968.396v-38.57c0-2.241-1.819-4.06-4.059-4.06H14.57
			c-2.242,0-4.06,1.818-4.06,4.06v38.57l0,0H75.467z"/>
		<rect x="14.57" y="929.826" opacity="0.1" fill="#FFFFFF" width="56.839" height="34.51"/>
		<path fill="#E6E6E6" d="M10.51,968.396v4.06c0,2.243,1.817,4.062,4.06,4.062h56.839c2.239,0,4.059-1.819,4.059-4.062v-4.06H10.51z
			"/>
		<path opacity="0.1" d="M32.838,990.726h20.301c1.122,0,2.031-0.908,2.031-2.029H30.809
			C30.809,989.817,31.716,990.726,32.838,990.726z"/>
		<path opacity="0.1" d="M45.019,972.455c0-1.121-0.907-2.027-2.031-2.027c-1.122,0-2.029,0.906-2.029,2.027
			c0,1.124,0.907,2.033,2.029,2.033C44.112,974.488,45.019,973.579,45.019,972.455z"/>
		<rect x="34.869" y="976.515" opacity="0.1" width="16.24" height="2.026"/>
		<g>
			<circle fill="#F7F7F7" cx="42.916" cy="946.886" r="11.106"/>
			<path fill="#FF9900" d="M29.5,943.586c0.606-2.399,1.757-4.468,3.453-6.203c1.697-1.736,3.716-2.94,6.064-3.613
				c2.347-0.674,4.732-0.709,7.152-0.109s4.506,1.74,6.257,3.422c1.751,1.683,2.966,3.685,3.644,6.013
				c0.681,2.326,0.716,4.69,0.111,7.089c-0.605,2.4-1.757,4.469-3.452,6.205c-1.698,1.734-3.719,2.939-6.064,3.613
				c-2.347,0.671-4.73,0.707-7.153,0.108c-2.42-0.601-4.505-1.741-6.257-3.423c-1.751-1.682-2.966-3.686-3.645-6.012
				S28.895,945.984,29.5,943.586z M35.772,950.977l1.98,0.489c0.127,0.02,0.311,0.063,0.549,0.138
				c0.239,0.072,0.413,0.117,0.523,0.136l-0.632,2.48l1.513,0.382l0.604-2.455c0.109,0.039,0.304,0.088,0.578,0.15
				c0.273,0.064,0.486,0.114,0.633,0.152l-0.605,2.454l1.514,0.354l0.604-2.482c0.879,0.145,1.663,0.215,2.352,0.205
				c0.687-0.009,1.293-0.196,1.815-0.558c0.522-0.364,0.911-0.92,1.168-1.664c0.587-1.637,0.121-2.846-1.402-3.627
				c1.101-0.235,1.744-0.964,1.927-2.183c0.236-1.562-0.771-2.709-3.027-3.436l0.633-2.481l-1.513-0.354l-0.606,2.399
				c-0.144-0.035-0.356-0.086-0.63-0.148c-0.276-0.063-0.469-0.114-0.578-0.15l0.605-2.4l-1.515-0.381l-0.604,2.454
				c-0.274-0.036-0.597-0.108-0.963-0.218l-2.092-0.519l-0.384,1.608l1.072,0.246c0.513,0.127,0.753,0.416,0.716,0.871l-0.716,2.81
				c0.037,0,0.093,0.019,0.165,0.057c-0.018-0.021-0.046-0.028-0.083-0.028c-0.036,0-0.063-0.01-0.082-0.028l-0.99,3.926
				c-0.09,0.328-0.321,0.446-0.687,0.354l-1.101-0.271L35.772,950.977z M40.804,950.347l0.826-3.298
				c0.019,0,0.196,0.035,0.536,0.109c0.34,0.072,0.597,0.136,0.771,0.189c0.174,0.057,0.431,0.137,0.771,0.246
				c0.339,0.109,0.601,0.229,0.784,0.355c0.183,0.127,0.376,0.276,0.577,0.449c0.201,0.172,0.333,0.372,0.399,0.6
				c0.063,0.229,0.059,0.479-0.015,0.75c-0.056,0.2-0.138,0.373-0.248,0.518c-0.109,0.146-0.247,0.255-0.412,0.328
				c-0.166,0.072-0.335,0.136-0.509,0.19c-0.175,0.055-0.385,0.077-0.632,0.069c-0.249-0.011-0.465-0.025-0.648-0.042
				c-0.183-0.019-0.402-0.054-0.659-0.109c-0.257-0.055-0.453-0.095-0.591-0.121c-0.137-0.028-0.317-0.069-0.536-0.125
				C40.999,950.404,40.86,950.366,40.804,950.347z M42.015,945.549l0.743-2.999c0.054,0.019,0.169,0.045,0.345,0.08
				c0.173,0.037,0.324,0.069,0.452,0.098c0.131,0.027,0.294,0.071,0.496,0.135c0.202,0.065,0.376,0.123,0.522,0.179
				c0.146,0.054,0.312,0.131,0.495,0.231s0.321,0.2,0.413,0.3c0.091,0.1,0.196,0.223,0.314,0.368c0.12,0.145,0.175,0.295,0.168,0.45
				c-0.012,0.153-0.025,0.33-0.042,0.532c-0.057,0.235-0.152,0.431-0.29,0.585c-0.139,0.154-0.312,0.259-0.523,0.312
				c-0.21,0.057-0.416,0.097-0.617,0.124c-0.203,0.028-0.445,0.019-0.73-0.027c-0.283-0.044-0.504-0.082-0.658-0.109
				c-0.157-0.026-0.368-0.078-0.634-0.149C42.204,945.586,42.052,945.549,42.015,945.549z"/>
			<path fill="#BF7300" d="M42.757,931.481c-8.595,0-15.562,6.968-15.562,15.562c0,8.596,6.968,15.562,15.562,15.562
				c8.594,0,15.562-6.966,15.562-15.562C58.318,938.449,51.351,931.481,42.757,931.481z M42.757,960.072
				c-7.195,0-13.029-5.832-13.029-13.028s5.834-13.028,13.029-13.028c7.194,0,13.027,5.832,13.027,13.028
				S49.951,960.072,42.757,960.072z"/>
			<path opacity="0.2" fill="#F7F7F7" d="M42.757,931.481c-8.595,0-15.562,6.968-15.562,15.562c0,4.298,1.743,8.188,4.559,11.004
				L53.76,936.04C50.945,933.224,47.054,931.481,42.757,931.481z"/>
		</g>
		<path opacity="0.1" fill="#FFFFFF" d="M71.409,925.767h-26.39l16.238,42.63h14.21l0,0v-38.57
			C75.467,927.585,73.648,925.767,71.409,925.767z"/>
	</g>
</g>
<g>
	<g>
		<path fill="#F7F7F7" d="M258,464.554c0,10.188-8.259,18.446-18.447,18.446H104.447C94.259,483,86,474.741,86,464.554v-13.107
			C86,441.259,94.259,433,104.447,433h135.105c10.188,0,18.447,8.259,18.447,18.446V464.554z"/>
		<circle fill="#F7F7F7" cx="96.899" cy="445.511" r="36.894"/>
		<circle fill="#F7F7F7" cx="160.54" cy="437.209" r="45.194"/>
		<circle fill="#F7F7F7" cx="236.174" cy="435.365" r="47.039"/>
	</g>
	<g>
		<rect x="60.926" y="606.995" fill="none" width="222.088" height="82.496"/>
		<text transform="matrix(1 0 0 1 73.3667 622.1953)"><tspan x="0" y="0" fill="#F7F7F7" font-family="'Open Sans', sans-serif" font-size="20">Sistemas de Votação;</tspan><tspan x="8.208" y="32" fill="#F7F7F7" font-family="'Open Sans', sans-serif" font-size="20">Registros Notariais; </tspan><tspan x="-10.64" y="64" fill="#F7F7F7" font-family="'Open Sans', sans-serif" font-size="20">Propriedade Intelectual</tspan></text>
	</g>
	<g>
		<rect x="78.932" y="434.72" fill="none" width="186.078" height="19.502"/>
		<text transform="matrix(1 0 0 1 79.0132 451.4395)" fill="#333333" font-family="'Open Sans', sans-serif" font-size="22">Registros Públicos</text>
	</g>
	<g>
		<rect x="142" y="505" fill="#F2F2F2" width="58" height="82"/>
		<rect x="147" y="544" fill="#CCCCCC" width="49" height="2"/>
		<rect x="147" y="537" fill="#CCCCCC" width="49" height="2"/>
		<rect x="147" y="531" fill="#CCCCCC" width="49" height="2"/>
		<rect x="147" y="524" fill="#CCCCCC" width="49" height="2"/>
		<rect x="147" y="511" fill="#CCCCCC" width="49" height="2"/>
		<rect x="147" y="518" fill="#CCCCCC" width="49" height="2"/>
		<rect x="147" y="551" fill="#CCCCCC" width="49" height="2"/>
		<rect x="147" y="557" fill="#CCCCCC" width="49" height="2"/>
		<rect x="147" y="564" fill="#CCCCCC" width="49" height="2"/>
		<rect x="147" y="570" fill="#CCCCCC" width="49" height="2"/>
		<rect x="147" y="577" fill="#CCCCCC" width="24" height="2"/>
		<g>
			<g>
				<path fill="#333333" d="M177.963,581.418c0.493-1.743,1.051-3.319,2.136-4.799c-0.432,0-0.863,0-1.295,0
					c1.402,2.491,1.721,4.668,4.34,6.181c0.384,0.222,0.782,0.061,1.026-0.269c1.507-2.03,4.057-0.628,5.941-0.432
					c1.675,0.174,2.968-0.025,4.46-0.767c0.866-0.431,0.105-1.724-0.758-1.295c-3.724,1.85-8.097-2.093-10.938,1.735
					c0.342-0.089,0.684-0.179,1.026-0.269c-2.276-1.314-2.613-3.529-3.803-5.644c-0.299-0.531-0.977-0.435-1.295,0
					c-1.176,1.604-1.749,3.252-2.288,5.158C176.253,581.952,177.7,582.348,177.963,581.418L177.963,581.418z"/>
			</g>
		</g>
		<g>
			<path fill="#333333" d="M225.186,532.569c-0.779-0.656-2.141,0.085-4.031,1.864l2.875,2.426
				C225.465,534.693,225.965,533.228,225.186,532.569z"/>
			<path fill="#333333" d="M224.029,536.859l-2.875-2.426c-3.234,3.058-7.807,8.844-12.996,15.074l3.213,2.711
				C216.637,546.052,221.564,540.565,224.029,536.859z"/>
			<path fill="#333333" d="M209.449,554.486c0.582-0.691,0.969-1.145,1.686-1.986l-3.215-2.711
				c-0.709,0.848-1.092,1.307-1.674,1.996c-5.377,6.375-10.031,12.721-12.471,16.449l1.545,1.303
				C198.59,566.51,204.072,560.86,209.449,554.486z"/>
			<path fill="#333333" d="M194.848,570.101l-1.547-1.304c-1.211,1.872-2.42,3.745-2.734,4.443l0.359,0.305
				C191.559,573.113,193.203,571.607,194.848,570.101z"/>
			<path fill="#333333" d="M190.441,573.39c-0.258,0.461-0.297,0.633-0.25,0.671c0.039,0.034,0.201-0.033,0.609-0.367
				L190.441,573.39z"/>
			<path fill="#333333" d="M212.096,544.15c-0.311-0.262-0.402-0.666-0.141-0.977l7.232-7.951c0.262-0.311,0.439-0.632,0.75-0.369
				l1.082,0.912c0.094-0.401-0.193-0.646-0.52-0.92l-0.305-0.257c-0.465-0.392-0.92-0.274-1.184,0.036l-8.779,9.449
				c-0.262,0.311-0.074,0.852,0.389,1.244l0.611,0.516c0.465,0.391,0.936,0.522,1.199,0.211l0.793-0.941L212.096,544.15z"/>
			<polygon fill="#F2F2F2" points="220.984,534.597 221.154,534.434 224.029,536.859 223.906,537.044 			"/>
			<polygon fill="#F2F2F2" points="208.104,549.461 207.865,549.743 211.111,552.48 211.371,552.219 			"/>
			
				<rect x="193.926" y="568.119" transform="matrix(0.6449 -0.7643 0.7643 0.6449 -365.9999 350.6202)" fill="#F2F2F2" width="0.736" height="2.07"/>
			<polygon fill="#F2F2F2" points="190.555,573.219 190.453,573.395 190.783,573.674 190.934,573.536 			"/>
		</g>
	</g>
</g>
</svg>
